{
  "header": {
    "keySignatures": [],
    "meta": [],
    "name": "",
    "ppq": 384,
    "tempos": [
      {
        "bpm": 200,
        "ticks": 0
      },
      {
        "bpm": 100,
        "ticks": 768
      },
      {
        "bpm": 200,
        "ticks": 1536
      },
      {
        "bpm": 120,
        "ticks": 3072
      },
      {
        "bpm": 208.0011093392498,
        "ticks": 3840
      },
      {
        "bpm": 36.000144000576,
        "ticks": 15744
      },
      {
        "bpm": 210.0031500472507,
        "ticks": 16128
      },
      {
        "bpm": 90.00090000900009,
        "ticks": 17664
      },
      {
        "bpm": 210.0031500472507,
        "ticks": 18432
      },
      {
        "bpm": 212.00664287481007,
        "ticks": 26880
      },
      {
        "bpm": 214.00292470663766,
        "ticks": 29952
      },
      {
        "bpm": 216.00604816934873,
        "ticks": 33024
      },
      {
        "bpm": 208.0011093392498,
        "ticks": 44544
      },
      {
        "bpm": 212.00664287481007,
        "ticks": 51456
      },
      {
        "bpm": 216.00604816934873,
        "ticks": 54528
      },
      {
        "bpm": 200,
        "ticks": 95232
      },
      {
        "bpm": 100,
        "ticks": 96000
      },
      {
        "bpm": 200,
        "ticks": 96768
      },
      {
        "bpm": 120,
        "ticks": 98304
      },
      {
        "bpm": 212.00664287481007,
        "ticks": 99072
      },
      {
        "bpm": 50,
        "ticks": 110976
      },
      {
        "bpm": 210.0031500472507,
        "ticks": 111360
      },
      {
        "bpm": 90.00090000900009,
        "ticks": 112896
      },
      {
        "bpm": 210.0031500472507,
        "ticks": 113664
      },
      {
        "bpm": 212.00664287481007,
        "ticks": 122112
      },
      {
        "bpm": 214.00292470663766,
        "ticks": 125184
      },
      {
        "bpm": 216.00604816934873,
        "ticks": 128256
      },
      {
        "bpm": 208.0011093392498,
        "ticks": 139776
      },
      {
        "bpm": 212.00664287481007,
        "ticks": 146688
      },
      {
        "bpm": 216.00604816934873,
        "ticks": 149760
      },
      {
        "bpm": 120,
        "ticks": 192000
      },
      {
        "bpm": 210.0031500472507,
        "ticks": 192768
      },
      {
        "bpm": 206.00151067774496,
        "ticks": 195840
      },
      {
        "bpm": 200,
        "ticks": 198912
      },
      {
        "bpm": 196.0015680125441,
        "ticks": 257280
      },
      {
        "bpm": 212.00664287481007,
        "ticks": 278784
      },
      {
        "bpm": 160,
        "ticks": 285696
      },
      {
        "bpm": 212.00664287481007,
        "ticks": 286464
      },
      {
        "bpm": 100,
        "ticks": 288000
      },
      {
        "bpm": 212.00664287481007,
        "ticks": 288768
      },
      {
        "bpm": 200,
        "ticks": 301056
      },
      {
        "bpm": 180.00180001800018,
        "ticks": 301824
      },
      {
        "bpm": 140.00046666822223,
        "ticks": 302592
      },
      {
        "bpm": 216.00604816934873,
        "ticks": 304128
      },
      {
        "bpm": 218.00741225201656,
        "ticks": 314112
      },
      {
        "bpm": 220.00586682311527,
        "ticks": 318720
      },
      {
        "bpm": 204.0053041379076,
        "ticks": 327936
      },
      {
        "bpm": 208.0011093392498,
        "ticks": 340224
      },
      {
        "bpm": 212.00664287481007,
        "ticks": 346368
      },
      {
        "bpm": 216.00604816934873,
        "ticks": 360192
      },
      {
        "bpm": 110.00091667430561,
        "ticks": 465408
      },
      {
        "bpm": 216.00604816934873,
        "ticks": 466176
      },
      {
        "bpm": 100,
        "ticks": 467712
      },
      {
        "bpm": 212.00664287481007,
        "ticks": 468480
      }
    ],
    "timeSignatures": [
      {
        "ticks": 0,
        "timeSignature": [
          2,
          4
        ],
        "measures": 0
      },
      {
        "ticks": 301056,
        "timeSignature": [
          8,
          4
        ],
        "measures": 392
      },
      {
        "ticks": 304128,
        "timeSignature": [
          2,
          4
        ],
        "measures": 393
      }
    ]
  },
  "tracks": [
    {
      "channel": 0,
      "controlChanges": {},
      "pitchBends": [],
      "instrument": {
        "family": "pipe",
        "number": 73,
        "name": "flute"
      },
      "name": "FLUTE",
      "notes": [
        {
          "duration": 0.1442300000000003,
          "durationTicks": 192,
          "midi": 86,
          "name": "D6",
          "ticks": 13248,
          "time": 11.06727,
          "velocity": 0.7165354330708661
        },
        {
          "duration": 0.1442300000000003,
          "durationTicks": 192,
          "midi": 91,
          "name": "G6",
          "ticks": 13248,
          "time": 11.06727,
          "velocity": 0.7165354330708661
        },
        {
          "duration": 0.14422999999999853,
          "durationTicks": 192,
          "midi": 86,
          "name": "D6",
          "ticks": 13440,
          "time": 11.211500000000001,
          "velocity": 0.7952755905511811
        },
        {
          "duration": 0.14422999999999853,
          "durationTicks": 192,
          "midi": 91,
          "name": "G6",
          "ticks": 13440,
          "time": 11.211500000000001,
          "velocity": 0.7952755905511811
        },
        {
          "duration": 0.1442300000000003,
          "durationTicks": 192,
          "midi": 86,
          "name": "D6",
          "ticks": 13632,
          "time": 11.35573,
          "velocity": 0.8582677165354331
        },
        {
          "duration": 0.1442300000000003,
          "durationTicks": 192,
          "midi": 89,
          "name": "F6",
          "ticks": 13632,
          "time": 11.35573,
          "velocity": 0.8582677165354331
        },
        {
          "duration": 0.28845999999999883,
          "durationTicks": 384,
          "midi": 84,
          "name": "C6",
          "ticks": 13824,
          "time": 11.49996,
          "velocity": 0.905511811023622
        },
        {
          "duration": 0.28845999999999883,
          "durationTicks": 384,
          "midi": 87,
          "name": "D#6",
          "ticks": 13824,
          "time": 11.49996,
          "velocity": 0.905511811023622
        },
        {
          "duration": 0.2884600000000006,
          "durationTicks": 384,
          "midi": 84,
          "name": "C6",
          "ticks": 14592,
          "time": 12.07688,
          "velocity": 0.905511811023622
        },
        {
          "duration": 0.2884600000000006,
          "durationTicks": 384,
          "midi": 84,
          "name": "C6",
          "ticks": 14592,
          "time": 12.07688,
          "velocity": 0.905511811023622
        },
        {
          "duration": 0.28845999999999883,
          "durationTicks": 384,
          "midi": 83,
          "name": "B5",
          "ticks": 15360,
          "time": 12.6538,
          "velocity": 0.905511811023622
        },
        {
          "duration": 0.28845999999999883,
          "durationTicks": 384,
          "midi": 91,
          "name": "G6",
          "ticks": 15360,
          "time": 12.6538,
          "velocity": 0.905511811023622
        },
        {
          "duration": 0.14285499999999907,
          "durationTicks": 192,
          "midi": 80,
          "name": "G#5",
          "ticks": 16320,
          "time": 14.751775,
          "velocity": 0.968503937007874
        },
        {
          "duration": 0.14285499999999907,
          "durationTicks": 192,
          "midi": 80,
          "name": "G#5",
          "ticks": 16320,
          "time": 14.751775,
          "velocity": 0.968503937007874
        },
        {
          "duration": 0.14285500000000084,
          "durationTicks": 192,
          "midi": 80,
          "name": "G#5",
          "ticks": 16512,
          "time": 14.89463,
          "velocity": 0.968503937007874
        },
        {
          "duration": 0.14285500000000084,
          "durationTicks": 192,
          "midi": 80,
          "name": "G#5",
          "ticks": 16512,
          "time": 14.89463,
          "velocity": 0.968503937007874
        },
        {
          "duration": 0.14285499999999907,
          "durationTicks": 192,
          "midi": 80,
          "name": "G#5",
          "ticks": 16704,
          "time": 15.037485,
          "velocity": 0.968503937007874
        },
        {
          "duration": 0.14285499999999907,
          "durationTicks": 192,
          "midi": 80,
          "name": "G#5",
          "ticks": 16704,
          "time": 15.037485,
          "velocity": 0.968503937007874
        },
        {
          "duration": 1.9047399999999985,
          "durationTicks": 1536,
          "midi": 77,
          "name": "F5",
          "ticks": 16896,
          "time": 15.18034,
          "velocity": 0.968503937007874
        },
        {
          "duration": 1.9047399999999985,
          "durationTicks": 1536,
          "midi": 77,
          "name": "F5",
          "ticks": 16896,
          "time": 15.18034,
          "velocity": 0.968503937007874
        },
        {
          "duration": 0.28301000000000087,
          "durationTicks": 384,
          "midi": 84,
          "name": "C6",
          "ticks": 29184,
          "time": 25.068759999999997,
          "velocity": 0.968503937007874
        },
        {
          "duration": 0.28301000000000087,
          "durationTicks": 384,
          "midi": 84,
          "name": "C6",
          "ticks": 29184,
          "time": 25.068759999999997,
          "velocity": 0.968503937007874
        },
        {
          "duration": 0.28037000000000134,
          "durationTicks": 384,
          "midi": 84,
          "name": "C6",
          "ticks": 29952,
          "time": 25.63478,
          "velocity": 0.968503937007874
        },
        {
          "duration": 0.28037000000000134,
          "durationTicks": 384,
          "midi": 84,
          "name": "C6",
          "ticks": 29952,
          "time": 25.63478,
          "velocity": 0.968503937007874
        },
        {
          "duration": 0.28037000000000134,
          "durationTicks": 384,
          "midi": 84,
          "name": "C6",
          "ticks": 30720,
          "time": 26.19552,
          "velocity": 0.968503937007874
        },
        {
          "duration": 0.28037000000000134,
          "durationTicks": 384,
          "midi": 84,
          "name": "C6",
          "ticks": 30720,
          "time": 26.19552,
          "velocity": 0.968503937007874
        },
        {
          "duration": 0.28037000000000134,
          "durationTicks": 384,
          "midi": 84,
          "name": "C6",
          "ticks": 31488,
          "time": 26.756259999999997,
          "velocity": 0.968503937007874
        },
        {
          "duration": 0.28037000000000134,
          "durationTicks": 384,
          "midi": 84,
          "name": "C6",
          "ticks": 31488,
          "time": 26.756259999999997,
          "velocity": 0.968503937007874
        },
        {
          "duration": 0.2803699999999978,
          "durationTicks": 384,
          "midi": 83,
          "name": "B5",
          "ticks": 32256,
          "time": 27.317,
          "velocity": 0.968503937007874
        },
        {
          "duration": 0.2803699999999978,
          "durationTicks": 384,
          "midi": 86,
          "name": "D6",
          "ticks": 32256,
          "time": 27.317,
          "velocity": 0.968503937007874
        },
        {
          "duration": 2.222159999999999,
          "durationTicks": 3072,
          "midi": 84,
          "name": "C6",
          "ticks": 33024,
          "time": 27.87774,
          "velocity": 0.905511811023622
        },
        {
          "duration": 2.222159999999999,
          "durationTicks": 3072,
          "midi": 87,
          "name": "D#6",
          "ticks": 33024,
          "time": 27.87774,
          "velocity": 0.905511811023622
        },
        {
          "duration": 1.9443899999999985,
          "durationTicks": 2688,
          "midi": 86,
          "name": "D6",
          "ticks": 36096,
          "time": 30.099899999999998,
          "velocity": 0.905511811023622
        },
        {
          "duration": 1.9443899999999985,
          "durationTicks": 2688,
          "midi": 89,
          "name": "F6",
          "ticks": 36096,
          "time": 30.099899999999998,
          "velocity": 0.905511811023622
        },
        {
          "duration": 0.27777000000000385,
          "durationTicks": 384,
          "midi": 84,
          "name": "C6",
          "ticks": 38784,
          "time": 32.04429,
          "velocity": 0.905511811023622
        },
        {
          "duration": 0.27777000000000385,
          "durationTicks": 384,
          "midi": 87,
          "name": "D#6",
          "ticks": 38784,
          "time": 32.04429,
          "velocity": 0.905511811023622
        },
        {
          "duration": 2.2221599999999953,
          "durationTicks": 3072,
          "midi": 84,
          "name": "C6",
          "ticks": 39168,
          "time": 32.32206,
          "velocity": 0.968503937007874
        },
        {
          "duration": 2.2221599999999953,
          "durationTicks": 3072,
          "midi": 87,
          "name": "D#6",
          "ticks": 39168,
          "time": 32.32206,
          "velocity": 0.968503937007874
        },
        {
          "duration": 0.27777000000000385,
          "durationTicks": 384,
          "midi": 81,
          "name": "A5",
          "ticks": 42240,
          "time": 34.544219999999996,
          "velocity": 0.968503937007874
        },
        {
          "duration": 0.27777000000000385,
          "durationTicks": 384,
          "midi": 90,
          "name": "F#6",
          "ticks": 42240,
          "time": 34.544219999999996,
          "velocity": 0.968503937007874
        },
        {
          "duration": 0.27777000000000385,
          "durationTicks": 384,
          "midi": 82,
          "name": "A#5",
          "ticks": 43776,
          "time": 35.6553,
          "velocity": 0.968503937007874
        },
        {
          "duration": 0.27777000000000385,
          "durationTicks": 384,
          "midi": 82,
          "name": "A#5",
          "ticks": 43776,
          "time": 35.6553,
          "velocity": 0.968503937007874
        },
        {
          "duration": 0.2830100000000044,
          "durationTicks": 384,
          "midi": 82,
          "name": "A#5",
          "ticks": 53760,
          "time": 43.10118,
          "velocity": 0.7165354330708661
        },
        {
          "duration": 0.2830100000000044,
          "durationTicks": 384,
          "midi": 82,
          "name": "A#5",
          "ticks": 53760,
          "time": 43.10118,
          "velocity": 0.7165354330708661
        },
        {
          "duration": 0.2830099999999973,
          "durationTicks": 384,
          "midi": 87,
          "name": "D#6",
          "ticks": 54144,
          "time": 43.384190000000004,
          "velocity": 0.7165354330708661
        },
        {
          "duration": 0.2830099999999973,
          "durationTicks": 384,
          "midi": 87,
          "name": "D#6",
          "ticks": 54144,
          "time": 43.384190000000004,
          "velocity": 0.7165354330708661
        },
        {
          "duration": 0.27776999999999674,
          "durationTicks": 384,
          "midi": 86,
          "name": "D6",
          "ticks": 54528,
          "time": 43.6672,
          "velocity": 0.7165354330708661
        },
        {
          "duration": 0.27776999999999674,
          "durationTicks": 384,
          "midi": 86,
          "name": "D6",
          "ticks": 54528,
          "time": 43.6672,
          "velocity": 0.7165354330708661
        },
        {
          "duration": 0.27777000000000385,
          "durationTicks": 384,
          "midi": 87,
          "name": "D#6",
          "ticks": 54912,
          "time": 43.94497,
          "velocity": 0.7165354330708661
        },
        {
          "duration": 0.27777000000000385,
          "durationTicks": 384,
          "midi": 87,
          "name": "D#6",
          "ticks": 54912,
          "time": 43.94497,
          "velocity": 0.7165354330708661
        },
        {
          "duration": 0.27776999999999674,
          "durationTicks": 384,
          "midi": 89,
          "name": "F6",
          "ticks": 55296,
          "time": 44.22274,
          "velocity": 0.7165354330708661
        },
        {
          "duration": 0.27776999999999674,
          "durationTicks": 384,
          "midi": 89,
          "name": "F6",
          "ticks": 55296,
          "time": 44.22274,
          "velocity": 0.7165354330708661
        },
        {
          "duration": 0.27777000000000385,
          "durationTicks": 384,
          "midi": 84,
          "name": "C6",
          "ticks": 55680,
          "time": 44.50051,
          "velocity": 0.7165354330708661
        },
        {
          "duration": 0.27777000000000385,
          "durationTicks": 384,
          "midi": 84,
          "name": "C6",
          "ticks": 55680,
          "time": 44.50051,
          "velocity": 0.7165354330708661
        },
        {
          "duration": 0.27776999999999674,
          "durationTicks": 384,
          "midi": 84,
          "name": "C6",
          "ticks": 56064,
          "time": 44.77828,
          "velocity": 0.7165354330708661
        },
        {
          "duration": 0.27776999999999674,
          "durationTicks": 384,
          "midi": 84,
          "name": "C6",
          "ticks": 56064,
          "time": 44.77828,
          "velocity": 0.7165354330708661
        },
        {
          "duration": 0.27777000000000385,
          "durationTicks": 384,
          "midi": 82,
          "name": "A#5",
          "ticks": 56448,
          "time": 45.05605,
          "velocity": 0.7165354330708661
        },
        {
          "duration": 0.27777000000000385,
          "durationTicks": 384,
          "midi": 82,
          "name": "A#5",
          "ticks": 56448,
          "time": 45.05605,
          "velocity": 0.7165354330708661
        },
        {
          "duration": 0.27777000000000385,
          "durationTicks": 384,
          "midi": 87,
          "name": "D#6",
          "ticks": 69120,
          "time": 54.22246,
          "velocity": 0.7165354330708661
        },
        {
          "duration": 0.27777000000000385,
          "durationTicks": 384,
          "midi": 87,
          "name": "D#6",
          "ticks": 69120,
          "time": 54.22246,
          "velocity": 0.7165354330708661
        },
        {
          "duration": 0.27777000000000385,
          "durationTicks": 384,
          "midi": 89,
          "name": "F6",
          "ticks": 69504,
          "time": 54.50023,
          "velocity": 0.7165354330708661
        },
        {
          "duration": 0.27777000000000385,
          "durationTicks": 384,
          "midi": 89,
          "name": "F6",
          "ticks": 69504,
          "time": 54.50023,
          "velocity": 0.7165354330708661
        },
        {
          "duration": 0.27776999999999674,
          "durationTicks": 384,
          "midi": 90,
          "name": "F#6",
          "ticks": 69888,
          "time": 54.778000000000006,
          "velocity": 0.7952755905511811
        },
        {
          "duration": 0.27776999999999674,
          "durationTicks": 384,
          "midi": 90,
          "name": "F#6",
          "ticks": 69888,
          "time": 54.778000000000006,
          "velocity": 0.7952755905511811
        },
        {
          "duration": 0.27776999999999674,
          "durationTicks": 384,
          "midi": 89,
          "name": "F6",
          "ticks": 70272,
          "time": 55.05577,
          "velocity": 0.8582677165354331
        },
        {
          "duration": 0.27776999999999674,
          "durationTicks": 384,
          "midi": 89,
          "name": "F6",
          "ticks": 70272,
          "time": 55.05577,
          "velocity": 0.8582677165354331
        },
        {
          "duration": 0.27777000000000385,
          "durationTicks": 384,
          "midi": 90,
          "name": "F#6",
          "ticks": 70656,
          "time": 55.33354,
          "velocity": 0.905511811023622
        },
        {
          "duration": 0.27777000000000385,
          "durationTicks": 384,
          "midi": 90,
          "name": "F#6",
          "ticks": 70656,
          "time": 55.33354,
          "velocity": 0.905511811023622
        },
        {
          "duration": 0.27776999999999674,
          "durationTicks": 384,
          "midi": 90,
          "name": "F#6",
          "ticks": 71040,
          "time": 55.61131,
          "velocity": 0.905511811023622
        },
        {
          "duration": 0.27776999999999674,
          "durationTicks": 384,
          "midi": 90,
          "name": "F#6",
          "ticks": 71040,
          "time": 55.61131,
          "velocity": 0.905511811023622
        },
        {
          "duration": 0.8333100000000044,
          "durationTicks": 1152,
          "midi": 82,
          "name": "A#5",
          "ticks": 71424,
          "time": 55.88908,
          "velocity": 0.968503937007874
        },
        {
          "duration": 0.8333100000000044,
          "durationTicks": 1152,
          "midi": 89,
          "name": "F6",
          "ticks": 71424,
          "time": 55.88908,
          "velocity": 0.968503937007874
        },
        {
          "duration": 0.27776999999999674,
          "durationTicks": 384,
          "midi": 82,
          "name": "A#5",
          "ticks": 72576,
          "time": 56.722390000000004,
          "velocity": 0.968503937007874
        },
        {
          "duration": 0.27776999999999674,
          "durationTicks": 384,
          "midi": 89,
          "name": "F6",
          "ticks": 72576,
          "time": 56.722390000000004,
          "velocity": 0.968503937007874
        },
        {
          "duration": 0.27776999999999674,
          "durationTicks": 384,
          "midi": 82,
          "name": "A#5",
          "ticks": 72960,
          "time": 57.00016,
          "velocity": 0.968503937007874
        },
        {
          "duration": 0.27776999999999674,
          "durationTicks": 384,
          "midi": 91,
          "name": "G6",
          "ticks": 72960,
          "time": 57.00016,
          "velocity": 0.968503937007874
        },
        {
          "duration": 0.27777000000000385,
          "durationTicks": 384,
          "midi": 82,
          "name": "A#5",
          "ticks": 73728,
          "time": 57.5557,
          "velocity": 0.968503937007874
        },
        {
          "duration": 0.27777000000000385,
          "durationTicks": 384,
          "midi": 89,
          "name": "F6",
          "ticks": 73728,
          "time": 57.5557,
          "velocity": 0.968503937007874
        },
        {
          "duration": 0.27776999999999674,
          "durationTicks": 384,
          "midi": 82,
          "name": "A#5",
          "ticks": 74496,
          "time": 58.11124,
          "velocity": 0.968503937007874
        },
        {
          "duration": 0.27776999999999674,
          "durationTicks": 384,
          "midi": 87,
          "name": "D#6",
          "ticks": 74496,
          "time": 58.11124,
          "velocity": 0.968503937007874
        },
        {
          "duration": 0.27776999999999674,
          "durationTicks": 384,
          "midi": 84,
          "name": "C6",
          "ticks": 75264,
          "time": 58.66678,
          "velocity": 0.968503937007874
        },
        {
          "duration": 0.27776999999999674,
          "durationTicks": 384,
          "midi": 87,
          "name": "D#6",
          "ticks": 75264,
          "time": 58.66678,
          "velocity": 0.968503937007874
        },
        {
          "duration": 0.27776999999999674,
          "durationTicks": 384,
          "midi": 82,
          "name": "A#5",
          "ticks": 76032,
          "time": 59.22232,
          "velocity": 0.968503937007874
        },
        {
          "duration": 0.27776999999999674,
          "durationTicks": 384,
          "midi": 87,
          "name": "D#6",
          "ticks": 76032,
          "time": 59.22232,
          "velocity": 0.968503937007874
        },
        {
          "duration": 0.27776999999999674,
          "durationTicks": 384,
          "midi": 82,
          "name": "A#5",
          "ticks": 76800,
          "time": 59.777860000000004,
          "velocity": 0.968503937007874
        },
        {
          "duration": 0.27776999999999674,
          "durationTicks": 384,
          "midi": 86,
          "name": "D6",
          "ticks": 76800,
          "time": 59.777860000000004,
          "velocity": 0.968503937007874
        },
        {
          "duration": 1.1110800000000012,
          "durationTicks": 1536,
          "midi": 82,
          "name": "A#5",
          "ticks": 77568,
          "time": 60.3334,
          "velocity": 0.968503937007874
        },
        {
          "duration": 1.1110800000000012,
          "durationTicks": 1536,
          "midi": 89,
          "name": "F6",
          "ticks": 77568,
          "time": 60.3334,
          "velocity": 0.968503937007874
        },
        {
          "duration": 0.27777000000000385,
          "durationTicks": 384,
          "midi": 82,
          "name": "A#5",
          "ticks": 79104,
          "time": 61.44448,
          "velocity": 0.968503937007874
        },
        {
          "duration": 0.27777000000000385,
          "durationTicks": 384,
          "midi": 91,
          "name": "G6",
          "ticks": 79104,
          "time": 61.44448,
          "velocity": 0.968503937007874
        },
        {
          "duration": 0.27777000000000385,
          "durationTicks": 384,
          "midi": 82,
          "name": "A#5",
          "ticks": 79488,
          "time": 61.72225,
          "velocity": 0.968503937007874
        },
        {
          "duration": 0.27777000000000385,
          "durationTicks": 384,
          "midi": 91,
          "name": "G6",
          "ticks": 79488,
          "time": 61.72225,
          "velocity": 0.968503937007874
        },
        {
          "duration": 0.27776999999999674,
          "durationTicks": 384,
          "midi": 82,
          "name": "A#5",
          "ticks": 80256,
          "time": 62.27779,
          "velocity": 0.968503937007874
        },
        {
          "duration": 0.27776999999999674,
          "durationTicks": 384,
          "midi": 86,
          "name": "D6",
          "ticks": 80256,
          "time": 62.27779,
          "velocity": 0.968503937007874
        },
        {
          "duration": 0.27777000000000385,
          "durationTicks": 384,
          "midi": 82,
          "name": "A#5",
          "ticks": 81024,
          "time": 62.833330000000004,
          "velocity": 0.968503937007874
        },
        {
          "duration": 0.27777000000000385,
          "durationTicks": 384,
          "midi": 87,
          "name": "D#6",
          "ticks": 81024,
          "time": 62.833330000000004,
          "velocity": 0.968503937007874
        },
        {
          "duration": 0.27777000000000385,
          "durationTicks": 384,
          "midi": 80,
          "name": "G#5",
          "ticks": 81792,
          "time": 63.38887,
          "velocity": 0.968503937007874
        },
        {
          "duration": 0.27777000000000385,
          "durationTicks": 384,
          "midi": 87,
          "name": "D#6",
          "ticks": 81792,
          "time": 63.38887,
          "velocity": 0.968503937007874
        },
        {
          "duration": 0.27777000000000385,
          "durationTicks": 384,
          "midi": 82,
          "name": "A#5",
          "ticks": 82560,
          "time": 63.944410000000005,
          "velocity": 0.968503937007874
        },
        {
          "duration": 0.27777000000000385,
          "durationTicks": 384,
          "midi": 87,
          "name": "D#6",
          "ticks": 82560,
          "time": 63.944410000000005,
          "velocity": 0.968503937007874
        },
        {
          "duration": 0.27777000000000385,
          "durationTicks": 384,
          "midi": 82,
          "name": "A#5",
          "ticks": 83328,
          "time": 64.49995,
          "velocity": 0.968503937007874
        },
        {
          "duration": 0.27777000000000385,
          "durationTicks": 384,
          "midi": 87,
          "name": "D#6",
          "ticks": 83328,
          "time": 64.49995,
          "velocity": 0.968503937007874
        },
        {
          "duration": 0.13888500000000192,
          "durationTicks": 192,
          "midi": 82,
          "name": "A#5",
          "ticks": 83712,
          "time": 64.77772,
          "velocity": 0.968503937007874
        },
        {
          "duration": 0.13888500000000192,
          "durationTicks": 192,
          "midi": 87,
          "name": "D#6",
          "ticks": 83712,
          "time": 64.77772,
          "velocity": 0.968503937007874
        },
        {
          "duration": 0.13888500000000192,
          "durationTicks": 192,
          "midi": 91,
          "name": "G6",
          "ticks": 83904,
          "time": 64.916605,
          "velocity": 0.968503937007874
        },
        {
          "duration": 0.13888500000000192,
          "durationTicks": 192,
          "midi": 91,
          "name": "G6",
          "ticks": 83904,
          "time": 64.916605,
          "velocity": 0.968503937007874
        },
        {
          "duration": 0.13888500000000192,
          "durationTicks": 192,
          "midi": 91,
          "name": "G6",
          "ticks": 84096,
          "time": 65.05549,
          "velocity": 0.968503937007874
        },
        {
          "duration": 0.13888500000000192,
          "durationTicks": 192,
          "midi": 91,
          "name": "G6",
          "ticks": 84096,
          "time": 65.05549,
          "velocity": 0.968503937007874
        },
        {
          "duration": 0.1388849999999877,
          "durationTicks": 192,
          "midi": 91,
          "name": "G6",
          "ticks": 84288,
          "time": 65.19437500000001,
          "velocity": 0.968503937007874
        },
        {
          "duration": 0.1388849999999877,
          "durationTicks": 192,
          "midi": 91,
          "name": "G6",
          "ticks": 84288,
          "time": 65.19437500000001,
          "velocity": 0.968503937007874
        },
        {
          "duration": 0.13888500000000192,
          "durationTicks": 192,
          "midi": 87,
          "name": "D#6",
          "ticks": 84480,
          "time": 65.33326,
          "velocity": 0.968503937007874
        },
        {
          "duration": 0.13888500000000192,
          "durationTicks": 192,
          "midi": 87,
          "name": "D#6",
          "ticks": 84480,
          "time": 65.33326,
          "velocity": 0.968503937007874
        },
        {
          "duration": 0.13888500000000192,
          "durationTicks": 192,
          "midi": 82,
          "name": "A#5",
          "ticks": 84672,
          "time": 65.472145,
          "velocity": 0.968503937007874
        },
        {
          "duration": 0.13888500000000192,
          "durationTicks": 192,
          "midi": 82,
          "name": "A#5",
          "ticks": 84672,
          "time": 65.472145,
          "velocity": 0.968503937007874
        },
        {
          "duration": 0.13888500000000192,
          "durationTicks": 192,
          "midi": 82,
          "name": "A#5",
          "ticks": 84864,
          "time": 65.61103,
          "velocity": 0.968503937007874
        },
        {
          "duration": 0.13888500000000192,
          "durationTicks": 192,
          "midi": 82,
          "name": "A#5",
          "ticks": 84864,
          "time": 65.61103,
          "velocity": 0.968503937007874
        },
        {
          "duration": 0.13888500000000192,
          "durationTicks": 192,
          "midi": 82,
          "name": "A#5",
          "ticks": 85056,
          "time": 65.749915,
          "velocity": 0.968503937007874
        },
        {
          "duration": 0.13888500000000192,
          "durationTicks": 192,
          "midi": 82,
          "name": "A#5",
          "ticks": 85056,
          "time": 65.749915,
          "velocity": 0.968503937007874
        },
        {
          "duration": 0.13888500000000192,
          "durationTicks": 192,
          "midi": 79,
          "name": "G5",
          "ticks": 85248,
          "time": 65.8888,
          "velocity": 0.968503937007874
        },
        {
          "duration": 0.13888500000000192,
          "durationTicks": 192,
          "midi": 79,
          "name": "G5",
          "ticks": 85248,
          "time": 65.8888,
          "velocity": 0.968503937007874
        },
        {
          "duration": 0.13888500000000192,
          "durationTicks": 192,
          "midi": 75,
          "name": "D#5",
          "ticks": 85440,
          "time": 66.027685,
          "velocity": 0.968503937007874
        },
        {
          "duration": 0.13888500000000192,
          "durationTicks": 192,
          "midi": 75,
          "name": "D#5",
          "ticks": 85440,
          "time": 66.027685,
          "velocity": 0.968503937007874
        },
        {
          "duration": 0.1388849999999877,
          "durationTicks": 192,
          "midi": 75,
          "name": "D#5",
          "ticks": 85632,
          "time": 66.16657000000001,
          "velocity": 0.968503937007874
        },
        {
          "duration": 0.1388849999999877,
          "durationTicks": 192,
          "midi": 75,
          "name": "D#5",
          "ticks": 85632,
          "time": 66.16657000000001,
          "velocity": 0.968503937007874
        },
        {
          "duration": 0.13888500000001613,
          "durationTicks": 192,
          "midi": 75,
          "name": "D#5",
          "ticks": 85824,
          "time": 66.305455,
          "velocity": 0.968503937007874
        },
        {
          "duration": 0.13888500000001613,
          "durationTicks": 192,
          "midi": 75,
          "name": "D#5",
          "ticks": 85824,
          "time": 66.305455,
          "velocity": 0.968503937007874
        },
        {
          "duration": 0.6944249999999954,
          "durationTicks": 960,
          "midi": 70,
          "name": "A#4",
          "ticks": 86016,
          "time": 66.44434000000001,
          "velocity": 0.968503937007874
        },
        {
          "duration": 0.6944249999999954,
          "durationTicks": 960,
          "midi": 70,
          "name": "A#4",
          "ticks": 86016,
          "time": 66.44434000000001,
          "velocity": 0.968503937007874
        },
        {
          "duration": 0.1388849999999877,
          "durationTicks": 192,
          "midi": 91,
          "name": "G6",
          "ticks": 86976,
          "time": 67.138765,
          "velocity": 0.968503937007874
        },
        {
          "duration": 0.1388849999999877,
          "durationTicks": 192,
          "midi": 91,
          "name": "G6",
          "ticks": 86976,
          "time": 67.138765,
          "velocity": 0.968503937007874
        },
        {
          "duration": 0.13888500000001613,
          "durationTicks": 192,
          "midi": 91,
          "name": "G6",
          "ticks": 87168,
          "time": 67.27765,
          "velocity": 0.968503937007874
        },
        {
          "duration": 0.13888500000001613,
          "durationTicks": 192,
          "midi": 91,
          "name": "G6",
          "ticks": 87168,
          "time": 67.27765,
          "velocity": 0.968503937007874
        },
        {
          "duration": 0.1388849999999877,
          "durationTicks": 192,
          "midi": 91,
          "name": "G6",
          "ticks": 87360,
          "time": 67.41653500000001,
          "velocity": 0.968503937007874
        },
        {
          "duration": 0.1388849999999877,
          "durationTicks": 192,
          "midi": 91,
          "name": "G6",
          "ticks": 87360,
          "time": 67.41653500000001,
          "velocity": 0.968503937007874
        },
        {
          "duration": 0.13888500000000192,
          "durationTicks": 192,
          "midi": 87,
          "name": "D#6",
          "ticks": 87552,
          "time": 67.55542,
          "velocity": 0.968503937007874
        },
        {
          "duration": 0.13888500000000192,
          "durationTicks": 192,
          "midi": 87,
          "name": "D#6",
          "ticks": 87552,
          "time": 67.55542,
          "velocity": 0.968503937007874
        },
        {
          "duration": 0.13888500000000192,
          "durationTicks": 192,
          "midi": 82,
          "name": "A#5",
          "ticks": 87744,
          "time": 67.694305,
          "velocity": 0.968503937007874
        },
        {
          "duration": 0.13888500000000192,
          "durationTicks": 192,
          "midi": 82,
          "name": "A#5",
          "ticks": 87744,
          "time": 67.694305,
          "velocity": 0.968503937007874
        },
        {
          "duration": 0.13888500000000192,
          "durationTicks": 192,
          "midi": 82,
          "name": "A#5",
          "ticks": 87936,
          "time": 67.83319,
          "velocity": 0.968503937007874
        },
        {
          "duration": 0.13888500000000192,
          "durationTicks": 192,
          "midi": 82,
          "name": "A#5",
          "ticks": 87936,
          "time": 67.83319,
          "velocity": 0.968503937007874
        },
        {
          "duration": 0.13888500000000192,
          "durationTicks": 192,
          "midi": 82,
          "name": "A#5",
          "ticks": 88128,
          "time": 67.972075,
          "velocity": 0.968503937007874
        },
        {
          "duration": 0.13888500000000192,
          "durationTicks": 192,
          "midi": 82,
          "name": "A#5",
          "ticks": 88128,
          "time": 67.972075,
          "velocity": 0.968503937007874
        },
        {
          "duration": 0.13888500000000192,
          "durationTicks": 192,
          "midi": 79,
          "name": "G5",
          "ticks": 88320,
          "time": 68.11096,
          "velocity": 0.968503937007874
        },
        {
          "duration": 0.13888500000000192,
          "durationTicks": 192,
          "midi": 79,
          "name": "G5",
          "ticks": 88320,
          "time": 68.11096,
          "velocity": 0.968503937007874
        },
        {
          "duration": 0.13888500000000192,
          "durationTicks": 192,
          "midi": 75,
          "name": "D#5",
          "ticks": 88512,
          "time": 68.24984500000001,
          "velocity": 0.968503937007874
        },
        {
          "duration": 0.13888500000000192,
          "durationTicks": 192,
          "midi": 75,
          "name": "D#5",
          "ticks": 88512,
          "time": 68.24984500000001,
          "velocity": 0.968503937007874
        },
        {
          "duration": 0.1388849999999877,
          "durationTicks": 192,
          "midi": 75,
          "name": "D#5",
          "ticks": 88704,
          "time": 68.38873000000001,
          "velocity": 0.968503937007874
        },
        {
          "duration": 0.1388849999999877,
          "durationTicks": 192,
          "midi": 75,
          "name": "D#5",
          "ticks": 88704,
          "time": 68.38873000000001,
          "velocity": 0.968503937007874
        },
        {
          "duration": 0.13888500000000192,
          "durationTicks": 192,
          "midi": 75,
          "name": "D#5",
          "ticks": 88896,
          "time": 68.527615,
          "velocity": 0.968503937007874
        },
        {
          "duration": 0.13888500000000192,
          "durationTicks": 192,
          "midi": 75,
          "name": "D#5",
          "ticks": 88896,
          "time": 68.527615,
          "velocity": 0.968503937007874
        },
        {
          "duration": 0.8333099999999973,
          "durationTicks": 1152,
          "midi": 70,
          "name": "A#4",
          "ticks": 89088,
          "time": 68.6665,
          "velocity": 0.968503937007874
        },
        {
          "duration": 0.8333099999999973,
          "durationTicks": 1152,
          "midi": 70,
          "name": "A#4",
          "ticks": 89088,
          "time": 68.6665,
          "velocity": 0.968503937007874
        },
        {
          "duration": 0.13888500000000192,
          "durationTicks": 192,
          "midi": 82,
          "name": "A#5",
          "ticks": 90816,
          "time": 69.916465,
          "velocity": 0.968503937007874
        },
        {
          "duration": 0.13888500000000192,
          "durationTicks": 192,
          "midi": 82,
          "name": "A#5",
          "ticks": 90816,
          "time": 69.916465,
          "velocity": 0.968503937007874
        },
        {
          "duration": 0.13888500000000192,
          "durationTicks": 192,
          "midi": 82,
          "name": "A#5",
          "ticks": 91008,
          "time": 70.05535,
          "velocity": 0.968503937007874
        },
        {
          "duration": 0.13888500000000192,
          "durationTicks": 192,
          "midi": 82,
          "name": "A#5",
          "ticks": 91008,
          "time": 70.05535,
          "velocity": 0.968503937007874
        },
        {
          "duration": 0.13888500000000192,
          "durationTicks": 192,
          "midi": 82,
          "name": "A#5",
          "ticks": 91200,
          "time": 70.194235,
          "velocity": 0.968503937007874
        },
        {
          "duration": 0.13888500000000192,
          "durationTicks": 192,
          "midi": 82,
          "name": "A#5",
          "ticks": 91200,
          "time": 70.194235,
          "velocity": 0.968503937007874
        },
        {
          "duration": 0.27776999999998964,
          "durationTicks": 384,
          "midi": 82,
          "name": "A#5",
          "ticks": 91392,
          "time": 70.33312000000001,
          "velocity": 0.968503937007874
        },
        {
          "duration": 0.27776999999998964,
          "durationTicks": 384,
          "midi": 82,
          "name": "A#5",
          "ticks": 91392,
          "time": 70.33312000000001,
          "velocity": 0.968503937007874
        },
        {
          "duration": 0.13888500000000192,
          "durationTicks": 192,
          "midi": 77,
          "name": "F5",
          "ticks": 92352,
          "time": 71.027545,
          "velocity": 0.968503937007874
        },
        {
          "duration": 0.13888500000000192,
          "durationTicks": 192,
          "midi": 86,
          "name": "D6",
          "ticks": 92352,
          "time": 71.027545,
          "velocity": 0.968503937007874
        },
        {
          "duration": 0.13888500000000192,
          "durationTicks": 192,
          "midi": 77,
          "name": "F5",
          "ticks": 92544,
          "time": 71.16643,
          "velocity": 0.968503937007874
        },
        {
          "duration": 0.13888500000000192,
          "durationTicks": 192,
          "midi": 86,
          "name": "D6",
          "ticks": 92544,
          "time": 71.16643,
          "velocity": 0.968503937007874
        },
        {
          "duration": 0.1388849999999877,
          "durationTicks": 192,
          "midi": 77,
          "name": "F5",
          "ticks": 92736,
          "time": 71.30531500000001,
          "velocity": 0.968503937007874
        },
        {
          "duration": 0.1388849999999877,
          "durationTicks": 192,
          "midi": 86,
          "name": "D6",
          "ticks": 92736,
          "time": 71.30531500000001,
          "velocity": 0.968503937007874
        },
        {
          "duration": 0.27777000000000385,
          "durationTicks": 384,
          "midi": 79,
          "name": "G5",
          "ticks": 92928,
          "time": 71.4442,
          "velocity": 0.968503937007874
        },
        {
          "duration": 0.27777000000000385,
          "durationTicks": 384,
          "midi": 87,
          "name": "D#6",
          "ticks": 92928,
          "time": 71.4442,
          "velocity": 0.968503937007874
        },
        {
          "duration": 0.1415049999999951,
          "durationTicks": 192,
          "midi": 86,
          "name": "D6",
          "ticks": 108480,
          "time": 84.044565,
          "velocity": 0.7165354330708661
        },
        {
          "duration": 0.1415049999999951,
          "durationTicks": 192,
          "midi": 91,
          "name": "G6",
          "ticks": 108480,
          "time": 84.044565,
          "velocity": 0.7165354330708661
        },
        {
          "duration": 0.1415049999999951,
          "durationTicks": 192,
          "midi": 86,
          "name": "D6",
          "ticks": 108672,
          "time": 84.18607,
          "velocity": 0.7952755905511811
        },
        {
          "duration": 0.1415049999999951,
          "durationTicks": 192,
          "midi": 91,
          "name": "G6",
          "ticks": 108672,
          "time": 84.18607,
          "velocity": 0.7952755905511811
        },
        {
          "duration": 0.14150500000000932,
          "durationTicks": 192,
          "midi": 86,
          "name": "D6",
          "ticks": 108864,
          "time": 84.327575,
          "velocity": 0.8582677165354331
        },
        {
          "duration": 0.14150500000000932,
          "durationTicks": 192,
          "midi": 89,
          "name": "F6",
          "ticks": 108864,
          "time": 84.327575,
          "velocity": 0.8582677165354331
        },
        {
          "duration": 0.2830100000000044,
          "durationTicks": 384,
          "midi": 84,
          "name": "C6",
          "ticks": 109056,
          "time": 84.46908,
          "velocity": 0.905511811023622
        },
        {
          "duration": 0.2830100000000044,
          "durationTicks": 384,
          "midi": 87,
          "name": "D#6",
          "ticks": 109056,
          "time": 84.46908,
          "velocity": 0.905511811023622
        },
        {
          "duration": 0.2830100000000044,
          "durationTicks": 384,
          "midi": 84,
          "name": "C6",
          "ticks": 109824,
          "time": 85.0351,
          "velocity": 0.905511811023622
        },
        {
          "duration": 0.2830100000000044,
          "durationTicks": 384,
          "midi": 84,
          "name": "C6",
          "ticks": 109824,
          "time": 85.0351,
          "velocity": 0.905511811023622
        },
        {
          "duration": 0.2830099999999902,
          "durationTicks": 384,
          "midi": 83,
          "name": "B5",
          "ticks": 110592,
          "time": 85.60112000000001,
          "velocity": 0.905511811023622
        },
        {
          "duration": 0.2830099999999902,
          "durationTicks": 384,
          "midi": 91,
          "name": "G6",
          "ticks": 110592,
          "time": 85.60112000000001,
          "velocity": 0.905511811023622
        },
        {
          "duration": 0.1428549999999973,
          "durationTicks": 192,
          "midi": 80,
          "name": "G#5",
          "ticks": 111552,
          "time": 87.226985,
          "velocity": 0.968503937007874
        },
        {
          "duration": 0.1428549999999973,
          "durationTicks": 192,
          "midi": 80,
          "name": "G#5",
          "ticks": 111552,
          "time": 87.226985,
          "velocity": 0.968503937007874
        },
        {
          "duration": 0.1428550000000115,
          "durationTicks": 192,
          "midi": 80,
          "name": "G#5",
          "ticks": 111744,
          "time": 87.36984,
          "velocity": 0.968503937007874
        },
        {
          "duration": 0.1428550000000115,
          "durationTicks": 192,
          "midi": 80,
          "name": "G#5",
          "ticks": 111744,
          "time": 87.36984,
          "velocity": 0.968503937007874
        },
        {
          "duration": 0.1428549999999973,
          "durationTicks": 192,
          "midi": 80,
          "name": "G#5",
          "ticks": 111936,
          "time": 87.51269500000001,
          "velocity": 0.968503937007874
        },
        {
          "duration": 0.1428549999999973,
          "durationTicks": 192,
          "midi": 80,
          "name": "G#5",
          "ticks": 111936,
          "time": 87.51269500000001,
          "velocity": 0.968503937007874
        },
        {
          "duration": 1.9047400000000039,
          "durationTicks": 1536,
          "midi": 77,
          "name": "F5",
          "ticks": 112128,
          "time": 87.65555,
          "velocity": 0.968503937007874
        },
        {
          "duration": 1.9047400000000039,
          "durationTicks": 1536,
          "midi": 77,
          "name": "F5",
          "ticks": 112128,
          "time": 87.65555,
          "velocity": 0.968503937007874
        },
        {
          "duration": 0.2830100000000044,
          "durationTicks": 384,
          "midi": 84,
          "name": "C6",
          "ticks": 124416,
          "time": 97.54397,
          "velocity": 0.968503937007874
        },
        {
          "duration": 0.2830100000000044,
          "durationTicks": 384,
          "midi": 84,
          "name": "C6",
          "ticks": 124416,
          "time": 97.54397,
          "velocity": 0.968503937007874
        },
        {
          "duration": 0.2803700000000049,
          "durationTicks": 384,
          "midi": 84,
          "name": "C6",
          "ticks": 125184,
          "time": 98.10999000000001,
          "velocity": 0.968503937007874
        },
        {
          "duration": 0.2803700000000049,
          "durationTicks": 384,
          "midi": 84,
          "name": "C6",
          "ticks": 125184,
          "time": 98.10999000000001,
          "velocity": 0.968503937007874
        },
        {
          "duration": 0.2803700000000049,
          "durationTicks": 384,
          "midi": 84,
          "name": "C6",
          "ticks": 125952,
          "time": 98.67073,
          "velocity": 0.968503937007874
        },
        {
          "duration": 0.2803700000000049,
          "durationTicks": 384,
          "midi": 84,
          "name": "C6",
          "ticks": 125952,
          "time": 98.67073,
          "velocity": 0.968503937007874
        },
        {
          "duration": 0.2803699999999907,
          "durationTicks": 384,
          "midi": 84,
          "name": "C6",
          "ticks": 126720,
          "time": 99.23147000000002,
          "velocity": 0.968503937007874
        },
        {
          "duration": 0.2803699999999907,
          "durationTicks": 384,
          "midi": 84,
          "name": "C6",
          "ticks": 126720,
          "time": 99.23147000000002,
          "velocity": 0.968503937007874
        },
        {
          "duration": 0.2803700000000049,
          "durationTicks": 384,
          "midi": 83,
          "name": "B5",
          "ticks": 127488,
          "time": 99.79221000000001,
          "velocity": 0.968503937007874
        },
        {
          "duration": 0.2803700000000049,
          "durationTicks": 384,
          "midi": 86,
          "name": "D6",
          "ticks": 127488,
          "time": 99.79221000000001,
          "velocity": 0.968503937007874
        },
        {
          "duration": 2.2221600000000024,
          "durationTicks": 3072,
          "midi": 84,
          "name": "C6",
          "ticks": 128256,
          "time": 100.35295,
          "velocity": 0.905511811023622
        },
        {
          "duration": 2.2221600000000024,
          "durationTicks": 3072,
          "midi": 87,
          "name": "D#6",
          "ticks": 128256,
          "time": 100.35295,
          "velocity": 0.905511811023622
        },
        {
          "duration": 1.9443899999999985,
          "durationTicks": 2688,
          "midi": 86,
          "name": "D6",
          "ticks": 131328,
          "time": 102.57511000000001,
          "velocity": 0.905511811023622
        },
        {
          "duration": 1.9443899999999985,
          "durationTicks": 2688,
          "midi": 89,
          "name": "F6",
          "ticks": 131328,
          "time": 102.57511000000001,
          "velocity": 0.905511811023622
        },
        {
          "duration": 0.27777000000000385,
          "durationTicks": 384,
          "midi": 84,
          "name": "C6",
          "ticks": 134016,
          "time": 104.51950000000001,
          "velocity": 0.905511811023622
        },
        {
          "duration": 0.27777000000000385,
          "durationTicks": 384,
          "midi": 87,
          "name": "D#6",
          "ticks": 134016,
          "time": 104.51950000000001,
          "velocity": 0.905511811023622
        },
        {
          "duration": 2.222159999999988,
          "durationTicks": 3072,
          "midi": 84,
          "name": "C6",
          "ticks": 134400,
          "time": 104.79727000000001,
          "velocity": 0.968503937007874
        },
        {
          "duration": 2.222159999999988,
          "durationTicks": 3072,
          "midi": 87,
          "name": "D#6",
          "ticks": 134400,
          "time": 104.79727000000001,
          "velocity": 0.968503937007874
        },
        {
          "duration": 0.27777000000000385,
          "durationTicks": 384,
          "midi": 81,
          "name": "A5",
          "ticks": 137472,
          "time": 107.01943,
          "velocity": 0.968503937007874
        },
        {
          "duration": 0.27777000000000385,
          "durationTicks": 384,
          "midi": 90,
          "name": "F#6",
          "ticks": 137472,
          "time": 107.01943,
          "velocity": 0.968503937007874
        },
        {
          "duration": 0.27777000000000385,
          "durationTicks": 384,
          "midi": 82,
          "name": "A#5",
          "ticks": 139008,
          "time": 108.13051,
          "velocity": 0.968503937007874
        },
        {
          "duration": 0.27777000000000385,
          "durationTicks": 384,
          "midi": 82,
          "name": "A#5",
          "ticks": 139008,
          "time": 108.13051,
          "velocity": 0.968503937007874
        },
        {
          "duration": 0.2830100000000044,
          "durationTicks": 384,
          "midi": 82,
          "name": "A#5",
          "ticks": 148992,
          "time": 115.57639,
          "velocity": 0.7165354330708661
        },
        {
          "duration": 0.2830100000000044,
          "durationTicks": 384,
          "midi": 82,
          "name": "A#5",
          "ticks": 148992,
          "time": 115.57639,
          "velocity": 0.7165354330708661
        },
        {
          "duration": 0.2830100000000044,
          "durationTicks": 384,
          "midi": 87,
          "name": "D#6",
          "ticks": 149376,
          "time": 115.85940000000001,
          "velocity": 0.7165354330708661
        },
        {
          "duration": 0.2830100000000044,
          "durationTicks": 384,
          "midi": 87,
          "name": "D#6",
          "ticks": 149376,
          "time": 115.85940000000001,
          "velocity": 0.7165354330708661
        },
        {
          "duration": 0.27777000000000385,
          "durationTicks": 384,
          "midi": 86,
          "name": "D6",
          "ticks": 149760,
          "time": 116.14241000000001,
          "velocity": 0.7165354330708661
        },
        {
          "duration": 0.27777000000000385,
          "durationTicks": 384,
          "midi": 86,
          "name": "D6",
          "ticks": 149760,
          "time": 116.14241000000001,
          "velocity": 0.7165354330708661
        },
        {
          "duration": 0.27776999999998964,
          "durationTicks": 384,
          "midi": 87,
          "name": "D#6",
          "ticks": 150144,
          "time": 116.42018000000002,
          "velocity": 0.7165354330708661
        },
        {
          "duration": 0.27776999999998964,
          "durationTicks": 384,
          "midi": 87,
          "name": "D#6",
          "ticks": 150144,
          "time": 116.42018000000002,
          "velocity": 0.7165354330708661
        },
        {
          "duration": 0.27777000000000385,
          "durationTicks": 384,
          "midi": 89,
          "name": "F6",
          "ticks": 150528,
          "time": 116.69795,
          "velocity": 0.7165354330708661
        },
        {
          "duration": 0.27777000000000385,
          "durationTicks": 384,
          "midi": 89,
          "name": "F6",
          "ticks": 150528,
          "time": 116.69795,
          "velocity": 0.7165354330708661
        },
        {
          "duration": 0.27777000000000385,
          "durationTicks": 384,
          "midi": 84,
          "name": "C6",
          "ticks": 150912,
          "time": 116.97572000000001,
          "velocity": 0.7165354330708661
        },
        {
          "duration": 0.27777000000000385,
          "durationTicks": 384,
          "midi": 84,
          "name": "C6",
          "ticks": 150912,
          "time": 116.97572000000001,
          "velocity": 0.7165354330708661
        },
        {
          "duration": 0.27777000000000385,
          "durationTicks": 384,
          "midi": 84,
          "name": "C6",
          "ticks": 151296,
          "time": 117.25349000000001,
          "velocity": 0.7165354330708661
        },
        {
          "duration": 0.27777000000000385,
          "durationTicks": 384,
          "midi": 84,
          "name": "C6",
          "ticks": 151296,
          "time": 117.25349000000001,
          "velocity": 0.7165354330708661
        },
        {
          "duration": 0.27776999999998964,
          "durationTicks": 384,
          "midi": 82,
          "name": "A#5",
          "ticks": 151680,
          "time": 117.53126000000002,
          "velocity": 0.7165354330708661
        },
        {
          "duration": 0.27776999999998964,
          "durationTicks": 384,
          "midi": 82,
          "name": "A#5",
          "ticks": 151680,
          "time": 117.53126000000002,
          "velocity": 0.7165354330708661
        },
        {
          "duration": 0.27777000000000385,
          "durationTicks": 384,
          "midi": 87,
          "name": "D#6",
          "ticks": 164352,
          "time": 126.69767000000002,
          "velocity": 0.7165354330708661
        },
        {
          "duration": 0.27777000000000385,
          "durationTicks": 384,
          "midi": 87,
          "name": "D#6",
          "ticks": 164352,
          "time": 126.69767000000002,
          "velocity": 0.7165354330708661
        },
        {
          "duration": 0.27776999999998964,
          "durationTicks": 384,
          "midi": 89,
          "name": "F6",
          "ticks": 164736,
          "time": 126.97544000000002,
          "velocity": 0.7165354330708661
        },
        {
          "duration": 0.27776999999998964,
          "durationTicks": 384,
          "midi": 89,
          "name": "F6",
          "ticks": 164736,
          "time": 126.97544000000002,
          "velocity": 0.7165354330708661
        },
        {
          "duration": 0.27777000000000385,
          "durationTicks": 384,
          "midi": 90,
          "name": "F#6",
          "ticks": 165120,
          "time": 127.25321000000001,
          "velocity": 0.7952755905511811
        },
        {
          "duration": 0.27777000000000385,
          "durationTicks": 384,
          "midi": 90,
          "name": "F#6",
          "ticks": 165120,
          "time": 127.25321000000001,
          "velocity": 0.7952755905511811
        },
        {
          "duration": 0.27777000000000385,
          "durationTicks": 384,
          "midi": 89,
          "name": "F6",
          "ticks": 165504,
          "time": 127.53098000000001,
          "velocity": 0.8582677165354331
        },
        {
          "duration": 0.27777000000000385,
          "durationTicks": 384,
          "midi": 89,
          "name": "F6",
          "ticks": 165504,
          "time": 127.53098000000001,
          "velocity": 0.8582677165354331
        },
        {
          "duration": 0.27776999999998964,
          "durationTicks": 384,
          "midi": 90,
          "name": "F#6",
          "ticks": 165888,
          "time": 127.80875000000002,
          "velocity": 0.905511811023622
        },
        {
          "duration": 0.27776999999998964,
          "durationTicks": 384,
          "midi": 90,
          "name": "F#6",
          "ticks": 165888,
          "time": 127.80875000000002,
          "velocity": 0.905511811023622
        },
        {
          "duration": 0.27777000000000385,
          "durationTicks": 384,
          "midi": 90,
          "name": "F#6",
          "ticks": 166272,
          "time": 128.08652,
          "velocity": 0.905511811023622
        },
        {
          "duration": 0.27777000000000385,
          "durationTicks": 384,
          "midi": 90,
          "name": "F#6",
          "ticks": 166272,
          "time": 128.08652,
          "velocity": 0.905511811023622
        },
        {
          "duration": 0.8333100000000115,
          "durationTicks": 1152,
          "midi": 82,
          "name": "A#5",
          "ticks": 166656,
          "time": 128.36429,
          "velocity": 0.968503937007874
        },
        {
          "duration": 0.8333100000000115,
          "durationTicks": 1152,
          "midi": 89,
          "name": "F6",
          "ticks": 166656,
          "time": 128.36429,
          "velocity": 0.968503937007874
        },
        {
          "duration": 0.2777699999999754,
          "durationTicks": 384,
          "midi": 82,
          "name": "A#5",
          "ticks": 167808,
          "time": 129.19760000000002,
          "velocity": 0.968503937007874
        },
        {
          "duration": 0.2777699999999754,
          "durationTicks": 384,
          "midi": 89,
          "name": "F6",
          "ticks": 167808,
          "time": 129.19760000000002,
          "velocity": 0.968503937007874
        },
        {
          "duration": 0.27777000000000385,
          "durationTicks": 384,
          "midi": 82,
          "name": "A#5",
          "ticks": 168192,
          "time": 129.47537,
          "velocity": 0.968503937007874
        },
        {
          "duration": 0.27777000000000385,
          "durationTicks": 384,
          "midi": 91,
          "name": "G6",
          "ticks": 168192,
          "time": 129.47537,
          "velocity": 0.968503937007874
        },
        {
          "duration": 0.27777000000000385,
          "durationTicks": 384,
          "midi": 82,
          "name": "A#5",
          "ticks": 168960,
          "time": 130.03091,
          "velocity": 0.968503937007874
        },
        {
          "duration": 0.27777000000000385,
          "durationTicks": 384,
          "midi": 89,
          "name": "F6",
          "ticks": 168960,
          "time": 130.03091,
          "velocity": 0.968503937007874
        },
        {
          "duration": 0.27777000000000385,
          "durationTicks": 384,
          "midi": 82,
          "name": "A#5",
          "ticks": 169728,
          "time": 130.58645,
          "velocity": 0.968503937007874
        },
        {
          "duration": 0.27777000000000385,
          "durationTicks": 384,
          "midi": 87,
          "name": "D#6",
          "ticks": 169728,
          "time": 130.58645,
          "velocity": 0.968503937007874
        },
        {
          "duration": 0.27777000000000385,
          "durationTicks": 384,
          "midi": 84,
          "name": "C6",
          "ticks": 170496,
          "time": 131.14199000000002,
          "velocity": 0.968503937007874
        },
        {
          "duration": 0.27777000000000385,
          "durationTicks": 384,
          "midi": 87,
          "name": "D#6",
          "ticks": 170496,
          "time": 131.14199000000002,
          "velocity": 0.968503937007874
        },
        {
          "duration": 0.27777000000000385,
          "durationTicks": 384,
          "midi": 82,
          "name": "A#5",
          "ticks": 171264,
          "time": 131.69753,
          "velocity": 0.968503937007874
        },
        {
          "duration": 0.27777000000000385,
          "durationTicks": 384,
          "midi": 87,
          "name": "D#6",
          "ticks": 171264,
          "time": 131.69753,
          "velocity": 0.968503937007874
        },
        {
          "duration": 0.27777000000000385,
          "durationTicks": 384,
          "midi": 82,
          "name": "A#5",
          "ticks": 172032,
          "time": 132.25307,
          "velocity": 0.968503937007874
        },
        {
          "duration": 0.27777000000000385,
          "durationTicks": 384,
          "midi": 86,
          "name": "D6",
          "ticks": 172032,
          "time": 132.25307,
          "velocity": 0.968503937007874
        },
        {
          "duration": 1.111079999999987,
          "durationTicks": 1536,
          "midi": 82,
          "name": "A#5",
          "ticks": 172800,
          "time": 132.80861000000002,
          "velocity": 0.968503937007874
        },
        {
          "duration": 1.111079999999987,
          "durationTicks": 1536,
          "midi": 89,
          "name": "F6",
          "ticks": 172800,
          "time": 132.80861000000002,
          "velocity": 0.968503937007874
        },
        {
          "duration": 0.27777000000000385,
          "durationTicks": 384,
          "midi": 82,
          "name": "A#5",
          "ticks": 174336,
          "time": 133.91969,
          "velocity": 0.968503937007874
        },
        {
          "duration": 0.27777000000000385,
          "durationTicks": 384,
          "midi": 91,
          "name": "G6",
          "ticks": 174336,
          "time": 133.91969,
          "velocity": 0.968503937007874
        },
        {
          "duration": 0.27777000000000385,
          "durationTicks": 384,
          "midi": 82,
          "name": "A#5",
          "ticks": 174720,
          "time": 134.19746,
          "velocity": 0.968503937007874
        },
        {
          "duration": 0.27777000000000385,
          "durationTicks": 384,
          "midi": 91,
          "name": "G6",
          "ticks": 174720,
          "time": 134.19746,
          "velocity": 0.968503937007874
        },
        {
          "duration": 0.27777000000000385,
          "durationTicks": 384,
          "midi": 82,
          "name": "A#5",
          "ticks": 175488,
          "time": 134.75300000000001,
          "velocity": 0.968503937007874
        },
        {
          "duration": 0.27777000000000385,
          "durationTicks": 384,
          "midi": 86,
          "name": "D6",
          "ticks": 175488,
          "time": 134.75300000000001,
          "velocity": 0.968503937007874
        },
        {
          "duration": 0.27777000000000385,
          "durationTicks": 384,
          "midi": 82,
          "name": "A#5",
          "ticks": 176256,
          "time": 135.30854000000002,
          "velocity": 0.968503937007874
        },
        {
          "duration": 0.27777000000000385,
          "durationTicks": 384,
          "midi": 87,
          "name": "D#6",
          "ticks": 176256,
          "time": 135.30854000000002,
          "velocity": 0.968503937007874
        },
        {
          "duration": 0.27777000000000385,
          "durationTicks": 384,
          "midi": 80,
          "name": "G#5",
          "ticks": 177024,
          "time": 135.86408,
          "velocity": 0.968503937007874
        },
        {
          "duration": 0.27777000000000385,
          "durationTicks": 384,
          "midi": 87,
          "name": "D#6",
          "ticks": 177024,
          "time": 135.86408,
          "velocity": 0.968503937007874
        },
        {
          "duration": 0.27777000000000385,
          "durationTicks": 384,
          "midi": 82,
          "name": "A#5",
          "ticks": 177792,
          "time": 136.41962,
          "velocity": 0.968503937007874
        },
        {
          "duration": 0.27777000000000385,
          "durationTicks": 384,
          "midi": 87,
          "name": "D#6",
          "ticks": 177792,
          "time": 136.41962,
          "velocity": 0.968503937007874
        },
        {
          "duration": 0.27777000000000385,
          "durationTicks": 384,
          "midi": 82,
          "name": "A#5",
          "ticks": 178560,
          "time": 136.97516000000002,
          "velocity": 0.968503937007874
        },
        {
          "duration": 0.27777000000000385,
          "durationTicks": 384,
          "midi": 87,
          "name": "D#6",
          "ticks": 178560,
          "time": 136.97516000000002,
          "velocity": 0.968503937007874
        },
        {
          "duration": 0.1388849999999877,
          "durationTicks": 192,
          "midi": 82,
          "name": "A#5",
          "ticks": 178944,
          "time": 137.25293000000002,
          "velocity": 0.968503937007874
        },
        {
          "duration": 0.1388849999999877,
          "durationTicks": 192,
          "midi": 87,
          "name": "D#6",
          "ticks": 178944,
          "time": 137.25293000000002,
          "velocity": 0.968503937007874
        },
        {
          "duration": 0.13888500000001613,
          "durationTicks": 192,
          "midi": 91,
          "name": "G6",
          "ticks": 179136,
          "time": 137.391815,
          "velocity": 0.968503937007874
        },
        {
          "duration": 0.13888500000001613,
          "durationTicks": 192,
          "midi": 91,
          "name": "G6",
          "ticks": 179136,
          "time": 137.391815,
          "velocity": 0.968503937007874
        },
        {
          "duration": 0.1388849999999877,
          "durationTicks": 192,
          "midi": 91,
          "name": "G6",
          "ticks": 179328,
          "time": 137.53070000000002,
          "velocity": 0.968503937007874
        },
        {
          "duration": 0.1388849999999877,
          "durationTicks": 192,
          "midi": 91,
          "name": "G6",
          "ticks": 179328,
          "time": 137.53070000000002,
          "velocity": 0.968503937007874
        },
        {
          "duration": 0.1388849999999877,
          "durationTicks": 192,
          "midi": 91,
          "name": "G6",
          "ticks": 179520,
          "time": 137.669585,
          "velocity": 0.968503937007874
        },
        {
          "duration": 0.1388849999999877,
          "durationTicks": 192,
          "midi": 91,
          "name": "G6",
          "ticks": 179520,
          "time": 137.669585,
          "velocity": 0.968503937007874
        },
        {
          "duration": 0.13888500000001613,
          "durationTicks": 192,
          "midi": 87,
          "name": "D#6",
          "ticks": 179712,
          "time": 137.80847,
          "velocity": 0.968503937007874
        },
        {
          "duration": 0.13888500000001613,
          "durationTicks": 192,
          "midi": 87,
          "name": "D#6",
          "ticks": 179712,
          "time": 137.80847,
          "velocity": 0.968503937007874
        },
        {
          "duration": 0.1388849999999877,
          "durationTicks": 192,
          "midi": 82,
          "name": "A#5",
          "ticks": 179904,
          "time": 137.94735500000002,
          "velocity": 0.968503937007874
        },
        {
          "duration": 0.1388849999999877,
          "durationTicks": 192,
          "midi": 82,
          "name": "A#5",
          "ticks": 179904,
          "time": 137.94735500000002,
          "velocity": 0.968503937007874
        },
        {
          "duration": 0.13888500000001613,
          "durationTicks": 192,
          "midi": 82,
          "name": "A#5",
          "ticks": 180096,
          "time": 138.08624,
          "velocity": 0.968503937007874
        },
        {
          "duration": 0.13888500000001613,
          "durationTicks": 192,
          "midi": 82,
          "name": "A#5",
          "ticks": 180096,
          "time": 138.08624,
          "velocity": 0.968503937007874
        },
        {
          "duration": 0.1388849999999877,
          "durationTicks": 192,
          "midi": 82,
          "name": "A#5",
          "ticks": 180288,
          "time": 138.22512500000002,
          "velocity": 0.968503937007874
        },
        {
          "duration": 0.1388849999999877,
          "durationTicks": 192,
          "midi": 82,
          "name": "A#5",
          "ticks": 180288,
          "time": 138.22512500000002,
          "velocity": 0.968503937007874
        },
        {
          "duration": 0.13888500000001613,
          "durationTicks": 192,
          "midi": 79,
          "name": "G5",
          "ticks": 180480,
          "time": 138.36401,
          "velocity": 0.968503937007874
        },
        {
          "duration": 0.13888500000001613,
          "durationTicks": 192,
          "midi": 79,
          "name": "G5",
          "ticks": 180480,
          "time": 138.36401,
          "velocity": 0.968503937007874
        },
        {
          "duration": 0.1388849999999877,
          "durationTicks": 192,
          "midi": 75,
          "name": "D#5",
          "ticks": 180672,
          "time": 138.50289500000002,
          "velocity": 0.968503937007874
        },
        {
          "duration": 0.1388849999999877,
          "durationTicks": 192,
          "midi": 75,
          "name": "D#5",
          "ticks": 180672,
          "time": 138.50289500000002,
          "velocity": 0.968503937007874
        },
        {
          "duration": 0.1388849999999877,
          "durationTicks": 192,
          "midi": 75,
          "name": "D#5",
          "ticks": 180864,
          "time": 138.64178,
          "velocity": 0.968503937007874
        },
        {
          "duration": 0.1388849999999877,
          "durationTicks": 192,
          "midi": 75,
          "name": "D#5",
          "ticks": 180864,
          "time": 138.64178,
          "velocity": 0.968503937007874
        },
        {
          "duration": 0.13888500000001613,
          "durationTicks": 192,
          "midi": 75,
          "name": "D#5",
          "ticks": 181056,
          "time": 138.780665,
          "velocity": 0.968503937007874
        },
        {
          "duration": 0.13888500000001613,
          "durationTicks": 192,
          "midi": 75,
          "name": "D#5",
          "ticks": 181056,
          "time": 138.780665,
          "velocity": 0.968503937007874
        },
        {
          "duration": 0.6944249999999954,
          "durationTicks": 960,
          "midi": 70,
          "name": "A#4",
          "ticks": 181248,
          "time": 138.91955000000002,
          "velocity": 0.968503937007874
        },
        {
          "duration": 0.6944249999999954,
          "durationTicks": 960,
          "midi": 70,
          "name": "A#4",
          "ticks": 181248,
          "time": 138.91955000000002,
          "velocity": 0.968503937007874
        },
        {
          "duration": 0.1388849999999877,
          "durationTicks": 192,
          "midi": 91,
          "name": "G6",
          "ticks": 182208,
          "time": 139.613975,
          "velocity": 0.968503937007874
        },
        {
          "duration": 0.1388849999999877,
          "durationTicks": 192,
          "midi": 91,
          "name": "G6",
          "ticks": 182208,
          "time": 139.613975,
          "velocity": 0.968503937007874
        },
        {
          "duration": 0.13888500000001613,
          "durationTicks": 192,
          "midi": 91,
          "name": "G6",
          "ticks": 182400,
          "time": 139.75286,
          "velocity": 0.968503937007874
        },
        {
          "duration": 0.13888500000001613,
          "durationTicks": 192,
          "midi": 91,
          "name": "G6",
          "ticks": 182400,
          "time": 139.75286,
          "velocity": 0.968503937007874
        },
        {
          "duration": 0.1388849999999877,
          "durationTicks": 192,
          "midi": 91,
          "name": "G6",
          "ticks": 182592,
          "time": 139.89174500000001,
          "velocity": 0.968503937007874
        },
        {
          "duration": 0.1388849999999877,
          "durationTicks": 192,
          "midi": 91,
          "name": "G6",
          "ticks": 182592,
          "time": 139.89174500000001,
          "velocity": 0.968503937007874
        },
        {
          "duration": 0.13888500000001613,
          "durationTicks": 192,
          "midi": 87,
          "name": "D#6",
          "ticks": 182784,
          "time": 140.03063,
          "velocity": 0.968503937007874
        },
        {
          "duration": 0.13888500000001613,
          "durationTicks": 192,
          "midi": 87,
          "name": "D#6",
          "ticks": 182784,
          "time": 140.03063,
          "velocity": 0.968503937007874
        },
        {
          "duration": 0.1388849999999877,
          "durationTicks": 192,
          "midi": 82,
          "name": "A#5",
          "ticks": 182976,
          "time": 140.16951500000002,
          "velocity": 0.968503937007874
        },
        {
          "duration": 0.1388849999999877,
          "durationTicks": 192,
          "midi": 82,
          "name": "A#5",
          "ticks": 182976,
          "time": 140.16951500000002,
          "velocity": 0.968503937007874
        },
        {
          "duration": 0.13888500000001613,
          "durationTicks": 192,
          "midi": 82,
          "name": "A#5",
          "ticks": 183168,
          "time": 140.3084,
          "velocity": 0.968503937007874
        },
        {
          "duration": 0.13888500000001613,
          "durationTicks": 192,
          "midi": 82,
          "name": "A#5",
          "ticks": 183168,
          "time": 140.3084,
          "velocity": 0.968503937007874
        },
        {
          "duration": 0.1388849999999877,
          "durationTicks": 192,
          "midi": 82,
          "name": "A#5",
          "ticks": 183360,
          "time": 140.44728500000002,
          "velocity": 0.968503937007874
        },
        {
          "duration": 0.1388849999999877,
          "durationTicks": 192,
          "midi": 82,
          "name": "A#5",
          "ticks": 183360,
          "time": 140.44728500000002,
          "velocity": 0.968503937007874
        },
        {
          "duration": 0.13888500000001613,
          "durationTicks": 192,
          "midi": 79,
          "name": "G5",
          "ticks": 183552,
          "time": 140.58617,
          "velocity": 0.968503937007874
        },
        {
          "duration": 0.13888500000001613,
          "durationTicks": 192,
          "midi": 79,
          "name": "G5",
          "ticks": 183552,
          "time": 140.58617,
          "velocity": 0.968503937007874
        },
        {
          "duration": 0.1388849999999877,
          "durationTicks": 192,
          "midi": 75,
          "name": "D#5",
          "ticks": 183744,
          "time": 140.72505500000003,
          "velocity": 0.968503937007874
        },
        {
          "duration": 0.1388849999999877,
          "durationTicks": 192,
          "midi": 75,
          "name": "D#5",
          "ticks": 183744,
          "time": 140.72505500000003,
          "velocity": 0.968503937007874
        },
        {
          "duration": 0.13888500000001613,
          "durationTicks": 192,
          "midi": 75,
          "name": "D#5",
          "ticks": 183936,
          "time": 140.86394,
          "velocity": 0.968503937007874
        },
        {
          "duration": 0.13888500000001613,
          "durationTicks": 192,
          "midi": 75,
          "name": "D#5",
          "ticks": 183936,
          "time": 140.86394,
          "velocity": 0.968503937007874
        },
        {
          "duration": 0.1388849999999877,
          "durationTicks": 192,
          "midi": 75,
          "name": "D#5",
          "ticks": 184128,
          "time": 141.00282500000003,
          "velocity": 0.968503937007874
        },
        {
          "duration": 0.1388849999999877,
          "durationTicks": 192,
          "midi": 75,
          "name": "D#5",
          "ticks": 184128,
          "time": 141.00282500000003,
          "velocity": 0.968503937007874
        },
        {
          "duration": 0.8333100000000115,
          "durationTicks": 1152,
          "midi": 70,
          "name": "A#4",
          "ticks": 184320,
          "time": 141.14171000000002,
          "velocity": 0.968503937007874
        },
        {
          "duration": 0.8333100000000115,
          "durationTicks": 1152,
          "midi": 70,
          "name": "A#4",
          "ticks": 184320,
          "time": 141.14171000000002,
          "velocity": 0.968503937007874
        },
        {
          "duration": 0.1388849999999877,
          "durationTicks": 192,
          "midi": 82,
          "name": "A#5",
          "ticks": 186048,
          "time": 142.39167500000002,
          "velocity": 0.968503937007874
        },
        {
          "duration": 0.1388849999999877,
          "durationTicks": 192,
          "midi": 82,
          "name": "A#5",
          "ticks": 186048,
          "time": 142.39167500000002,
          "velocity": 0.968503937007874
        },
        {
          "duration": 0.13888500000001613,
          "durationTicks": 192,
          "midi": 82,
          "name": "A#5",
          "ticks": 186240,
          "time": 142.53056,
          "velocity": 0.968503937007874
        },
        {
          "duration": 0.13888500000001613,
          "durationTicks": 192,
          "midi": 82,
          "name": "A#5",
          "ticks": 186240,
          "time": 142.53056,
          "velocity": 0.968503937007874
        },
        {
          "duration": 0.1388849999999877,
          "durationTicks": 192,
          "midi": 82,
          "name": "A#5",
          "ticks": 186432,
          "time": 142.66944500000002,
          "velocity": 0.968503937007874
        },
        {
          "duration": 0.1388849999999877,
          "durationTicks": 192,
          "midi": 82,
          "name": "A#5",
          "ticks": 186432,
          "time": 142.66944500000002,
          "velocity": 0.968503937007874
        },
        {
          "duration": 0.27777000000000385,
          "durationTicks": 384,
          "midi": 82,
          "name": "A#5",
          "ticks": 186624,
          "time": 142.80833,
          "velocity": 0.968503937007874
        },
        {
          "duration": 0.27777000000000385,
          "durationTicks": 384,
          "midi": 82,
          "name": "A#5",
          "ticks": 186624,
          "time": 142.80833,
          "velocity": 0.968503937007874
        },
        {
          "duration": 0.13888500000001613,
          "durationTicks": 192,
          "midi": 77,
          "name": "F5",
          "ticks": 187584,
          "time": 143.502755,
          "velocity": 0.968503937007874
        },
        {
          "duration": 0.13888500000001613,
          "durationTicks": 192,
          "midi": 86,
          "name": "D6",
          "ticks": 187584,
          "time": 143.502755,
          "velocity": 0.968503937007874
        },
        {
          "duration": 0.1388849999999877,
          "durationTicks": 192,
          "midi": 77,
          "name": "F5",
          "ticks": 187776,
          "time": 143.64164000000002,
          "velocity": 0.968503937007874
        },
        {
          "duration": 0.1388849999999877,
          "durationTicks": 192,
          "midi": 86,
          "name": "D6",
          "ticks": 187776,
          "time": 143.64164000000002,
          "velocity": 0.968503937007874
        },
        {
          "duration": 0.13888500000001613,
          "durationTicks": 192,
          "midi": 77,
          "name": "F5",
          "ticks": 187968,
          "time": 143.780525,
          "velocity": 0.968503937007874
        },
        {
          "duration": 0.13888500000001613,
          "durationTicks": 192,
          "midi": 86,
          "name": "D6",
          "ticks": 187968,
          "time": 143.780525,
          "velocity": 0.968503937007874
        },
        {
          "duration": 0.2777699999999754,
          "durationTicks": 384,
          "midi": 79,
          "name": "G5",
          "ticks": 188160,
          "time": 143.91941000000003,
          "velocity": 0.968503937007874
        },
        {
          "duration": 0.2777699999999754,
          "durationTicks": 384,
          "midi": 87,
          "name": "D#6",
          "ticks": 188160,
          "time": 143.91941000000003,
          "velocity": 0.968503937007874
        },
        {
          "duration": 0.15000000000000568,
          "durationTicks": 192,
          "midi": 86,
          "name": "D6",
          "ticks": 212160,
          "time": 162.66287000000003,
          "velocity": 0.7165354330708661
        },
        {
          "duration": 0.15000000000000568,
          "durationTicks": 192,
          "midi": 86,
          "name": "D6",
          "ticks": 212160,
          "time": 162.66287000000003,
          "velocity": 0.7165354330708661
        },
        {
          "duration": 0.15000000000000568,
          "durationTicks": 192,
          "midi": 86,
          "name": "D6",
          "ticks": 212352,
          "time": 162.81287000000003,
          "velocity": 0.7165354330708661
        },
        {
          "duration": 0.15000000000000568,
          "durationTicks": 192,
          "midi": 86,
          "name": "D6",
          "ticks": 212352,
          "time": 162.81287000000003,
          "velocity": 0.7165354330708661
        },
        {
          "duration": 0.15000000000000568,
          "durationTicks": 192,
          "midi": 84,
          "name": "C6",
          "ticks": 212544,
          "time": 162.96287000000004,
          "velocity": 0.7165354330708661
        },
        {
          "duration": 0.15000000000000568,
          "durationTicks": 192,
          "midi": 84,
          "name": "C6",
          "ticks": 212544,
          "time": 162.96287000000004,
          "velocity": 0.7165354330708661
        },
        {
          "duration": 0.5999999999999943,
          "durationTicks": 768,
          "midi": 82,
          "name": "A#5",
          "ticks": 212736,
          "time": 163.11287000000004,
          "velocity": 0.7165354330708661
        },
        {
          "duration": 0.5999999999999943,
          "durationTicks": 768,
          "midi": 82,
          "name": "A#5",
          "ticks": 212736,
          "time": 163.11287000000004,
          "velocity": 0.7165354330708661
        },
        {
          "duration": 0.15000000000000568,
          "durationTicks": 192,
          "midi": 81,
          "name": "A5",
          "ticks": 213504,
          "time": 163.71287000000004,
          "velocity": 0.7165354330708661
        },
        {
          "duration": 0.15000000000000568,
          "durationTicks": 192,
          "midi": 81,
          "name": "A5",
          "ticks": 213504,
          "time": 163.71287000000004,
          "velocity": 0.7165354330708661
        },
        {
          "duration": 0.14999999999997726,
          "durationTicks": 192,
          "midi": 86,
          "name": "D6",
          "ticks": 213696,
          "time": 163.86287000000004,
          "velocity": 0.7165354330708661
        },
        {
          "duration": 0.14999999999997726,
          "durationTicks": 192,
          "midi": 86,
          "name": "D6",
          "ticks": 213696,
          "time": 163.86287000000004,
          "velocity": 0.7165354330708661
        },
        {
          "duration": 0.15000000000000568,
          "durationTicks": 192,
          "midi": 86,
          "name": "D6",
          "ticks": 213888,
          "time": 164.01287000000002,
          "velocity": 0.7165354330708661
        },
        {
          "duration": 0.15000000000000568,
          "durationTicks": 192,
          "midi": 86,
          "name": "D6",
          "ticks": 213888,
          "time": 164.01287000000002,
          "velocity": 0.7165354330708661
        },
        {
          "duration": 0.15000000000000568,
          "durationTicks": 192,
          "midi": 84,
          "name": "C6",
          "ticks": 214080,
          "time": 164.16287000000003,
          "velocity": 0.7165354330708661
        },
        {
          "duration": 0.15000000000000568,
          "durationTicks": 192,
          "midi": 84,
          "name": "C6",
          "ticks": 214080,
          "time": 164.16287000000003,
          "velocity": 0.7165354330708661
        },
        {
          "duration": 0.5999999999999943,
          "durationTicks": 768,
          "midi": 82,
          "name": "A#5",
          "ticks": 214272,
          "time": 164.31287000000003,
          "velocity": 0.7165354330708661
        },
        {
          "duration": 0.5999999999999943,
          "durationTicks": 768,
          "midi": 82,
          "name": "A#5",
          "ticks": 214272,
          "time": 164.31287000000003,
          "velocity": 0.7165354330708661
        },
        {
          "duration": 0.5999999999999943,
          "durationTicks": 768,
          "midi": 81,
          "name": "A5",
          "ticks": 215040,
          "time": 164.91287000000003,
          "velocity": 0.7165354330708661
        },
        {
          "duration": 0.5999999999999943,
          "durationTicks": 768,
          "midi": 81,
          "name": "A5",
          "ticks": 215040,
          "time": 164.91287000000003,
          "velocity": 0.7165354330708661
        },
        {
          "duration": 0.75,
          "durationTicks": 960,
          "midi": 82,
          "name": "A#5",
          "ticks": 215808,
          "time": 165.51287000000002,
          "velocity": 0.7165354330708661
        },
        {
          "duration": 0.75,
          "durationTicks": 960,
          "midi": 82,
          "name": "A#5",
          "ticks": 215808,
          "time": 165.51287000000002,
          "velocity": 0.7165354330708661
        },
        {
          "duration": 0.15000000000000568,
          "durationTicks": 192,
          "midi": 79,
          "name": "G5",
          "ticks": 216768,
          "time": 166.26287000000002,
          "velocity": 0.7165354330708661
        },
        {
          "duration": 0.15000000000000568,
          "durationTicks": 192,
          "midi": 79,
          "name": "G5",
          "ticks": 216768,
          "time": 166.26287000000002,
          "velocity": 0.7165354330708661
        },
        {
          "duration": 0.15000000000000568,
          "durationTicks": 192,
          "midi": 81,
          "name": "A5",
          "ticks": 216960,
          "time": 166.41287000000003,
          "velocity": 0.7165354330708661
        },
        {
          "duration": 0.15000000000000568,
          "durationTicks": 192,
          "midi": 81,
          "name": "A5",
          "ticks": 216960,
          "time": 166.41287000000003,
          "velocity": 0.7165354330708661
        },
        {
          "duration": 0.15000000000000568,
          "durationTicks": 192,
          "midi": 82,
          "name": "A#5",
          "ticks": 217152,
          "time": 166.56287000000003,
          "velocity": 0.7165354330708661
        },
        {
          "duration": 0.15000000000000568,
          "durationTicks": 192,
          "midi": 82,
          "name": "A#5",
          "ticks": 217152,
          "time": 166.56287000000003,
          "velocity": 0.7165354330708661
        },
        {
          "duration": 0.29999999999998295,
          "durationTicks": 384,
          "midi": 84,
          "name": "C6",
          "ticks": 217344,
          "time": 166.71287000000004,
          "velocity": 0.7165354330708661
        },
        {
          "duration": 0.29999999999998295,
          "durationTicks": 384,
          "midi": 84,
          "name": "C6",
          "ticks": 217344,
          "time": 166.71287000000004,
          "velocity": 0.7165354330708661
        },
        {
          "duration": 0.15000000000000568,
          "durationTicks": 192,
          "midi": 78,
          "name": "F#5",
          "ticks": 218304,
          "time": 167.46287000000004,
          "velocity": 0.7165354330708661
        },
        {
          "duration": 0.15000000000000568,
          "durationTicks": 192,
          "midi": 78,
          "name": "F#5",
          "ticks": 218304,
          "time": 167.46287000000004,
          "velocity": 0.7165354330708661
        },
        {
          "duration": 0.14999999999997726,
          "durationTicks": 192,
          "midi": 81,
          "name": "A5",
          "ticks": 218496,
          "time": 167.61287000000004,
          "velocity": 0.7165354330708661
        },
        {
          "duration": 0.14999999999997726,
          "durationTicks": 192,
          "midi": 81,
          "name": "A5",
          "ticks": 218496,
          "time": 167.61287000000004,
          "velocity": 0.7165354330708661
        },
        {
          "duration": 0.15000000000000568,
          "durationTicks": 192,
          "midi": 82,
          "name": "A#5",
          "ticks": 218688,
          "time": 167.76287000000002,
          "velocity": 0.7165354330708661
        },
        {
          "duration": 0.15000000000000568,
          "durationTicks": 192,
          "midi": 82,
          "name": "A#5",
          "ticks": 218688,
          "time": 167.76287000000002,
          "velocity": 0.7165354330708661
        },
        {
          "duration": 0.30000000000001137,
          "durationTicks": 384,
          "midi": 84,
          "name": "C6",
          "ticks": 218880,
          "time": 167.91287000000003,
          "velocity": 0.7165354330708661
        },
        {
          "duration": 0.30000000000001137,
          "durationTicks": 384,
          "midi": 84,
          "name": "C6",
          "ticks": 218880,
          "time": 167.91287000000003,
          "velocity": 0.7165354330708661
        },
        {
          "duration": 0.15000000000000568,
          "durationTicks": 192,
          "midi": 81,
          "name": "A5",
          "ticks": 219840,
          "time": 168.66287000000003,
          "velocity": 0.7165354330708661
        },
        {
          "duration": 0.15000000000000568,
          "durationTicks": 192,
          "midi": 81,
          "name": "A5",
          "ticks": 219840,
          "time": 168.66287000000003,
          "velocity": 0.7165354330708661
        },
        {
          "duration": 0.15000000000000568,
          "durationTicks": 192,
          "midi": 82,
          "name": "A#5",
          "ticks": 220032,
          "time": 168.81287000000003,
          "velocity": 0.7165354330708661
        },
        {
          "duration": 0.15000000000000568,
          "durationTicks": 192,
          "midi": 82,
          "name": "A#5",
          "ticks": 220032,
          "time": 168.81287000000003,
          "velocity": 0.7165354330708661
        },
        {
          "duration": 0.15000000000000568,
          "durationTicks": 192,
          "midi": 84,
          "name": "C6",
          "ticks": 220224,
          "time": 168.96287000000004,
          "velocity": 0.7165354330708661
        },
        {
          "duration": 0.15000000000000568,
          "durationTicks": 192,
          "midi": 84,
          "name": "C6",
          "ticks": 220224,
          "time": 168.96287000000004,
          "velocity": 0.7165354330708661
        },
        {
          "duration": 0.29999999999998295,
          "durationTicks": 384,
          "midi": 86,
          "name": "D6",
          "ticks": 220416,
          "time": 169.11287000000004,
          "velocity": 0.7165354330708661
        },
        {
          "duration": 0.29999999999998295,
          "durationTicks": 384,
          "midi": 86,
          "name": "D6",
          "ticks": 220416,
          "time": 169.11287000000004,
          "velocity": 0.7165354330708661
        },
        {
          "duration": 0.14999999999997726,
          "durationTicks": 192,
          "midi": 79,
          "name": "G5",
          "ticks": 221376,
          "time": 169.86287000000004,
          "velocity": 0.7165354330708661
        },
        {
          "duration": 0.14999999999997726,
          "durationTicks": 192,
          "midi": 79,
          "name": "G5",
          "ticks": 221376,
          "time": 169.86287000000004,
          "velocity": 0.7165354330708661
        },
        {
          "duration": 0.15000000000000568,
          "durationTicks": 192,
          "midi": 82,
          "name": "A#5",
          "ticks": 221568,
          "time": 170.01287000000002,
          "velocity": 0.7165354330708661
        },
        {
          "duration": 0.15000000000000568,
          "durationTicks": 192,
          "midi": 82,
          "name": "A#5",
          "ticks": 221568,
          "time": 170.01287000000002,
          "velocity": 0.7165354330708661
        },
        {
          "duration": 0.15000000000000568,
          "durationTicks": 192,
          "midi": 84,
          "name": "C6",
          "ticks": 221760,
          "time": 170.16287000000003,
          "velocity": 0.7165354330708661
        },
        {
          "duration": 0.15000000000000568,
          "durationTicks": 192,
          "midi": 84,
          "name": "C6",
          "ticks": 221760,
          "time": 170.16287000000003,
          "velocity": 0.7165354330708661
        },
        {
          "duration": 0.30000000000001137,
          "durationTicks": 384,
          "midi": 86,
          "name": "D6",
          "ticks": 221952,
          "time": 170.31287000000003,
          "velocity": 0.7165354330708661
        },
        {
          "duration": 0.30000000000001137,
          "durationTicks": 384,
          "midi": 86,
          "name": "D6",
          "ticks": 221952,
          "time": 170.31287000000003,
          "velocity": 0.7165354330708661
        },
        {
          "duration": 0.15000000000000568,
          "durationTicks": 192,
          "midi": 82,
          "name": "A#5",
          "ticks": 222912,
          "time": 171.06287000000003,
          "velocity": 0.7165354330708661
        },
        {
          "duration": 0.15000000000000568,
          "durationTicks": 192,
          "midi": 82,
          "name": "A#5",
          "ticks": 222912,
          "time": 171.06287000000003,
          "velocity": 0.7165354330708661
        },
        {
          "duration": 0.15000000000000568,
          "durationTicks": 192,
          "midi": 84,
          "name": "C6",
          "ticks": 223104,
          "time": 171.21287000000004,
          "velocity": 0.7952755905511811
        },
        {
          "duration": 0.15000000000000568,
          "durationTicks": 192,
          "midi": 84,
          "name": "C6",
          "ticks": 223104,
          "time": 171.21287000000004,
          "velocity": 0.7952755905511811
        },
        {
          "duration": 0.14999999999997726,
          "durationTicks": 192,
          "midi": 86,
          "name": "D6",
          "ticks": 223296,
          "time": 171.36287000000004,
          "velocity": 0.8582677165354331
        },
        {
          "duration": 0.14999999999997726,
          "durationTicks": 192,
          "midi": 86,
          "name": "D6",
          "ticks": 223296,
          "time": 171.36287000000004,
          "velocity": 0.8582677165354331
        },
        {
          "duration": 1.200000000000017,
          "durationTicks": 1536,
          "midi": 81,
          "name": "A5",
          "ticks": 223488,
          "time": 171.51287000000002,
          "velocity": 0.905511811023622
        },
        {
          "duration": 1.200000000000017,
          "durationTicks": 1536,
          "midi": 87,
          "name": "D#6",
          "ticks": 223488,
          "time": 171.51287000000002,
          "velocity": 0.905511811023622
        },
        {
          "duration": 0.29999999999998295,
          "durationTicks": 384,
          "midi": 81,
          "name": "A5",
          "ticks": 225024,
          "time": 172.71287000000004,
          "velocity": 0.905511811023622
        },
        {
          "duration": 0.29999999999998295,
          "durationTicks": 384,
          "midi": 87,
          "name": "D#6",
          "ticks": 225024,
          "time": 172.71287000000004,
          "velocity": 0.905511811023622
        },
        {
          "duration": 0.15000000000000568,
          "durationTicks": 192,
          "midi": 79,
          "name": "G5",
          "ticks": 225984,
          "time": 173.46287000000004,
          "velocity": 0.905511811023622
        },
        {
          "duration": 0.15000000000000568,
          "durationTicks": 192,
          "midi": 88,
          "name": "E6",
          "ticks": 225984,
          "time": 173.46287000000004,
          "velocity": 0.905511811023622
        },
        {
          "duration": 0.14999999999997726,
          "durationTicks": 192,
          "midi": 79,
          "name": "G5",
          "ticks": 226176,
          "time": 173.61287000000004,
          "velocity": 0.905511811023622
        },
        {
          "duration": 0.14999999999997726,
          "durationTicks": 192,
          "midi": 88,
          "name": "E6",
          "ticks": 226176,
          "time": 173.61287000000004,
          "velocity": 0.905511811023622
        },
        {
          "duration": 0.15000000000000568,
          "durationTicks": 192,
          "midi": 79,
          "name": "G5",
          "ticks": 226368,
          "time": 173.76287000000002,
          "velocity": 0.905511811023622
        },
        {
          "duration": 0.15000000000000568,
          "durationTicks": 192,
          "midi": 88,
          "name": "E6",
          "ticks": 226368,
          "time": 173.76287000000002,
          "velocity": 0.905511811023622
        },
        {
          "duration": 1.200000000000017,
          "durationTicks": 1536,
          "midi": 79,
          "name": "G5",
          "ticks": 226560,
          "time": 173.91287000000003,
          "velocity": 0.905511811023622
        },
        {
          "duration": 1.200000000000017,
          "durationTicks": 1536,
          "midi": 88,
          "name": "E6",
          "ticks": 226560,
          "time": 173.91287000000003,
          "velocity": 0.905511811023622
        },
        {
          "duration": 0.29999999999998295,
          "durationTicks": 384,
          "midi": 79,
          "name": "G5",
          "ticks": 228096,
          "time": 175.11287000000004,
          "velocity": 0.905511811023622
        },
        {
          "duration": 0.29999999999998295,
          "durationTicks": 384,
          "midi": 88,
          "name": "E6",
          "ticks": 228096,
          "time": 175.11287000000004,
          "velocity": 0.905511811023622
        },
        {
          "duration": 0.14999999999997726,
          "durationTicks": 192,
          "midi": 82,
          "name": "A#5",
          "ticks": 229056,
          "time": 175.86287000000004,
          "velocity": 0.905511811023622
        },
        {
          "duration": 0.14999999999997726,
          "durationTicks": 192,
          "midi": 86,
          "name": "D6",
          "ticks": 229056,
          "time": 175.86287000000004,
          "velocity": 0.905511811023622
        },
        {
          "duration": 0.15000000000000568,
          "durationTicks": 192,
          "midi": 82,
          "name": "A#5",
          "ticks": 229248,
          "time": 176.01287000000002,
          "velocity": 0.905511811023622
        },
        {
          "duration": 0.15000000000000568,
          "durationTicks": 192,
          "midi": 86,
          "name": "D6",
          "ticks": 229248,
          "time": 176.01287000000002,
          "velocity": 0.905511811023622
        },
        {
          "duration": 0.15000000000000568,
          "durationTicks": 192,
          "midi": 82,
          "name": "A#5",
          "ticks": 229440,
          "time": 176.16287000000003,
          "velocity": 0.905511811023622
        },
        {
          "duration": 0.15000000000000568,
          "durationTicks": 192,
          "midi": 86,
          "name": "D6",
          "ticks": 229440,
          "time": 176.16287000000003,
          "velocity": 0.905511811023622
        },
        {
          "duration": 0.30000000000001137,
          "durationTicks": 384,
          "midi": 82,
          "name": "A#5",
          "ticks": 229632,
          "time": 176.31287000000003,
          "velocity": 0.905511811023622
        },
        {
          "duration": 0.30000000000001137,
          "durationTicks": 384,
          "midi": 86,
          "name": "D6",
          "ticks": 229632,
          "time": 176.31287000000003,
          "velocity": 0.905511811023622
        },
        {
          "duration": 0.15000000000000568,
          "durationTicks": 192,
          "midi": 73,
          "name": "C#5",
          "ticks": 230784,
          "time": 177.21287000000004,
          "velocity": 0.905511811023622
        },
        {
          "duration": 0.15000000000000568,
          "durationTicks": 192,
          "midi": 85,
          "name": "C#6",
          "ticks": 230784,
          "time": 177.21287000000004,
          "velocity": 0.905511811023622
        },
        {
          "duration": 0.14999999999997726,
          "durationTicks": 192,
          "midi": 73,
          "name": "C#5",
          "ticks": 230976,
          "time": 177.36287000000004,
          "velocity": 0.905511811023622
        },
        {
          "duration": 0.14999999999997726,
          "durationTicks": 192,
          "midi": 85,
          "name": "C#6",
          "ticks": 230976,
          "time": 177.36287000000004,
          "velocity": 0.905511811023622
        },
        {
          "duration": 0.30000000000001137,
          "durationTicks": 384,
          "midi": 73,
          "name": "C#5",
          "ticks": 231168,
          "time": 177.51287000000002,
          "velocity": 0.905511811023622
        },
        {
          "duration": 0.30000000000001137,
          "durationTicks": 384,
          "midi": 85,
          "name": "C#6",
          "ticks": 231168,
          "time": 177.51287000000002,
          "velocity": 0.905511811023622
        },
        {
          "duration": 0.15000000000000568,
          "durationTicks": 192,
          "midi": 74,
          "name": "D5",
          "ticks": 231552,
          "time": 177.81287000000003,
          "velocity": 0.905511811023622
        },
        {
          "duration": 0.15000000000000568,
          "durationTicks": 192,
          "midi": 86,
          "name": "D6",
          "ticks": 231552,
          "time": 177.81287000000003,
          "velocity": 0.905511811023622
        },
        {
          "duration": 0.15000000000000568,
          "durationTicks": 192,
          "midi": 74,
          "name": "D5",
          "ticks": 231744,
          "time": 177.96287000000004,
          "velocity": 0.905511811023622
        },
        {
          "duration": 0.15000000000000568,
          "durationTicks": 192,
          "midi": 86,
          "name": "D6",
          "ticks": 231744,
          "time": 177.96287000000004,
          "velocity": 0.905511811023622
        },
        {
          "duration": 0.29999999999998295,
          "durationTicks": 384,
          "midi": 74,
          "name": "D5",
          "ticks": 231936,
          "time": 178.11287000000004,
          "velocity": 0.905511811023622
        },
        {
          "duration": 0.29999999999998295,
          "durationTicks": 384,
          "midi": 86,
          "name": "D6",
          "ticks": 231936,
          "time": 178.11287000000004,
          "velocity": 0.905511811023622
        },
        {
          "duration": 0.14999999999997726,
          "durationTicks": 192,
          "midi": 86,
          "name": "D6",
          "ticks": 237696,
          "time": 182.61287000000004,
          "velocity": 0.905511811023622
        },
        {
          "duration": 0.14999999999997726,
          "durationTicks": 192,
          "midi": 86,
          "name": "D6",
          "ticks": 237696,
          "time": 182.61287000000004,
          "velocity": 0.905511811023622
        },
        {
          "duration": 0.15000000000000568,
          "durationTicks": 192,
          "midi": 86,
          "name": "D6",
          "ticks": 237888,
          "time": 182.76287000000002,
          "velocity": 0.905511811023622
        },
        {
          "duration": 0.15000000000000568,
          "durationTicks": 192,
          "midi": 86,
          "name": "D6",
          "ticks": 237888,
          "time": 182.76287000000002,
          "velocity": 0.905511811023622
        },
        {
          "duration": 0.30000000000001137,
          "durationTicks": 384,
          "midi": 86,
          "name": "D6",
          "ticks": 238080,
          "time": 182.91287000000003,
          "velocity": 0.905511811023622
        },
        {
          "duration": 0.30000000000001137,
          "durationTicks": 384,
          "midi": 91,
          "name": "G6",
          "ticks": 238080,
          "time": 182.91287000000003,
          "velocity": 0.905511811023622
        },
        {
          "duration": 0.15000000000000568,
          "durationTicks": 192,
          "midi": 83,
          "name": "B5",
          "ticks": 243840,
          "time": 187.41287000000003,
          "velocity": 0.905511811023622
        },
        {
          "duration": 0.15000000000000568,
          "durationTicks": 192,
          "midi": 86,
          "name": "D6",
          "ticks": 243840,
          "time": 187.41287000000003,
          "velocity": 0.905511811023622
        },
        {
          "duration": 0.15000000000000568,
          "durationTicks": 192,
          "midi": 83,
          "name": "B5",
          "ticks": 244032,
          "time": 187.56287000000003,
          "velocity": 0.905511811023622
        },
        {
          "duration": 0.15000000000000568,
          "durationTicks": 192,
          "midi": 86,
          "name": "D6",
          "ticks": 244032,
          "time": 187.56287000000003,
          "velocity": 0.905511811023622
        },
        {
          "duration": 0.15000000000000568,
          "durationTicks": 192,
          "midi": 84,
          "name": "C6",
          "ticks": 244224,
          "time": 187.71287000000004,
          "velocity": 0.905511811023622
        },
        {
          "duration": 0.15000000000000568,
          "durationTicks": 192,
          "midi": 88,
          "name": "E6",
          "ticks": 244224,
          "time": 187.71287000000004,
          "velocity": 0.905511811023622
        },
        {
          "duration": 0.14999999999997726,
          "durationTicks": 192,
          "midi": 84,
          "name": "C6",
          "ticks": 244416,
          "time": 187.86287000000004,
          "velocity": 0.968503937007874
        },
        {
          "duration": 0.14999999999997726,
          "durationTicks": 192,
          "midi": 84,
          "name": "C6",
          "ticks": 244416,
          "time": 187.86287000000004,
          "velocity": 0.968503937007874
        },
        {
          "duration": 0.15000000000000568,
          "durationTicks": 192,
          "midi": 84,
          "name": "C6",
          "ticks": 244608,
          "time": 188.01287000000002,
          "velocity": 0.968503937007874
        },
        {
          "duration": 0.15000000000000568,
          "durationTicks": 192,
          "midi": 84,
          "name": "C6",
          "ticks": 244608,
          "time": 188.01287000000002,
          "velocity": 0.968503937007874
        },
        {
          "duration": 0.15000000000000568,
          "durationTicks": 192,
          "midi": 84,
          "name": "C6",
          "ticks": 244800,
          "time": 188.16287000000003,
          "velocity": 0.968503937007874
        },
        {
          "duration": 0.15000000000000568,
          "durationTicks": 192,
          "midi": 84,
          "name": "C6",
          "ticks": 244800,
          "time": 188.16287000000003,
          "velocity": 0.968503937007874
        },
        {
          "duration": 0.5999999999999943,
          "durationTicks": 768,
          "midi": 77,
          "name": "F5",
          "ticks": 244992,
          "time": 188.31287000000003,
          "velocity": 0.968503937007874
        },
        {
          "duration": 0.5999999999999943,
          "durationTicks": 768,
          "midi": 77,
          "name": "F5",
          "ticks": 244992,
          "time": 188.31287000000003,
          "velocity": 0.968503937007874
        },
        {
          "duration": 0.5999999999999943,
          "durationTicks": 768,
          "midi": 79,
          "name": "G5",
          "ticks": 245760,
          "time": 188.91287000000003,
          "velocity": 0.968503937007874
        },
        {
          "duration": 0.5999999999999943,
          "durationTicks": 768,
          "midi": 79,
          "name": "G5",
          "ticks": 245760,
          "time": 188.91287000000003,
          "velocity": 0.968503937007874
        },
        {
          "duration": 0.5999999999999943,
          "durationTicks": 768,
          "midi": 77,
          "name": "F5",
          "ticks": 248064,
          "time": 190.71287000000004,
          "velocity": 0.968503937007874
        },
        {
          "duration": 0.5999999999999943,
          "durationTicks": 768,
          "midi": 77,
          "name": "F5",
          "ticks": 248064,
          "time": 190.71287000000004,
          "velocity": 0.968503937007874
        },
        {
          "duration": 0.5999999999999943,
          "durationTicks": 768,
          "midi": 79,
          "name": "G5",
          "ticks": 248832,
          "time": 191.31287000000003,
          "velocity": 0.968503937007874
        },
        {
          "duration": 0.5999999999999943,
          "durationTicks": 768,
          "midi": 79,
          "name": "G5",
          "ticks": 248832,
          "time": 191.31287000000003,
          "velocity": 0.968503937007874
        },
        {
          "duration": 0.5999999999999943,
          "durationTicks": 768,
          "midi": 77,
          "name": "F5",
          "ticks": 251136,
          "time": 193.11287000000004,
          "velocity": 0.968503937007874
        },
        {
          "duration": 0.5999999999999943,
          "durationTicks": 768,
          "midi": 77,
          "name": "F5",
          "ticks": 251136,
          "time": 193.11287000000004,
          "velocity": 0.968503937007874
        },
        {
          "duration": 0.5999999999999943,
          "durationTicks": 768,
          "midi": 78,
          "name": "F#5",
          "ticks": 251904,
          "time": 193.71287000000004,
          "velocity": 0.968503937007874
        },
        {
          "duration": 0.5999999999999943,
          "durationTicks": 768,
          "midi": 78,
          "name": "F#5",
          "ticks": 251904,
          "time": 193.71287000000004,
          "velocity": 0.968503937007874
        },
        {
          "duration": 0.6000000000000227,
          "durationTicks": 768,
          "midi": 81,
          "name": "A5",
          "ticks": 254208,
          "time": 195.51287000000002,
          "velocity": 0.968503937007874
        },
        {
          "duration": 0.6000000000000227,
          "durationTicks": 768,
          "midi": 81,
          "name": "A5",
          "ticks": 254208,
          "time": 195.51287000000002,
          "velocity": 0.968503937007874
        },
        {
          "duration": 0.5999999999999943,
          "durationTicks": 768,
          "midi": 82,
          "name": "A#5",
          "ticks": 254976,
          "time": 196.11287000000004,
          "velocity": 0.968503937007874
        },
        {
          "duration": 0.5999999999999943,
          "durationTicks": 768,
          "midi": 82,
          "name": "A#5",
          "ticks": 254976,
          "time": 196.11287000000004,
          "velocity": 0.968503937007874
        },
        {
          "duration": 0.5999999999999943,
          "durationTicks": 768,
          "midi": 83,
          "name": "B5",
          "ticks": 256512,
          "time": 197.31287000000003,
          "velocity": 0.905511811023622
        },
        {
          "duration": 0.5999999999999943,
          "durationTicks": 768,
          "midi": 83,
          "name": "B5",
          "ticks": 256512,
          "time": 197.31287000000003,
          "velocity": 0.905511811023622
        },
        {
          "duration": 0.6122399999999857,
          "durationTicks": 768,
          "midi": 85,
          "name": "C#6",
          "ticks": 258048,
          "time": 198.52511000000004,
          "velocity": 0.8582677165354331
        },
        {
          "duration": 0.6122399999999857,
          "durationTicks": 768,
          "midi": 85,
          "name": "C#6",
          "ticks": 258048,
          "time": 198.52511000000004,
          "velocity": 0.8582677165354331
        },
        {
          "duration": 0.6122399999999857,
          "durationTicks": 768,
          "midi": 85,
          "name": "C#6",
          "ticks": 259584,
          "time": 199.74959000000004,
          "velocity": 0.7952755905511811
        },
        {
          "duration": 0.6122399999999857,
          "durationTicks": 768,
          "midi": 85,
          "name": "C#6",
          "ticks": 259584,
          "time": 199.74959000000004,
          "velocity": 0.7952755905511811
        },
        {
          "duration": 0.6122399999999857,
          "durationTicks": 768,
          "midi": 85,
          "name": "C#6",
          "ticks": 261120,
          "time": 200.97407000000004,
          "velocity": 0.7165354330708661
        },
        {
          "duration": 0.6122399999999857,
          "durationTicks": 768,
          "midi": 85,
          "name": "C#6",
          "ticks": 261120,
          "time": 200.97407000000004,
          "velocity": 0.7165354330708661
        },
        {
          "duration": 0.6122399999999857,
          "durationTicks": 768,
          "midi": 85,
          "name": "C#6",
          "ticks": 262656,
          "time": 202.19855000000004,
          "velocity": 0.7165354330708661
        },
        {
          "duration": 0.6122399999999857,
          "durationTicks": 768,
          "midi": 85,
          "name": "C#6",
          "ticks": 262656,
          "time": 202.19855000000004,
          "velocity": 0.7165354330708661
        },
        {
          "duration": 0.6122399999999857,
          "durationTicks": 768,
          "midi": 86,
          "name": "D6",
          "ticks": 264192,
          "time": 203.42303000000004,
          "velocity": 0.6141732283464567
        },
        {
          "duration": 0.6122399999999857,
          "durationTicks": 768,
          "midi": 86,
          "name": "D6",
          "ticks": 264192,
          "time": 203.42303000000004,
          "velocity": 0.6141732283464567
        },
        {
          "duration": 0.6122399999999857,
          "durationTicks": 768,
          "midi": 86,
          "name": "D6",
          "ticks": 265728,
          "time": 204.64751000000004,
          "velocity": 0.6141732283464567
        },
        {
          "duration": 0.6122399999999857,
          "durationTicks": 768,
          "midi": 86,
          "name": "D6",
          "ticks": 265728,
          "time": 204.64751000000004,
          "velocity": 0.6141732283464567
        },
        {
          "duration": 0.6122399999999857,
          "durationTicks": 768,
          "midi": 86,
          "name": "D6",
          "ticks": 267264,
          "time": 205.87199000000004,
          "velocity": 0.6141732283464567
        },
        {
          "duration": 0.6122399999999857,
          "durationTicks": 768,
          "midi": 86,
          "name": "D6",
          "ticks": 267264,
          "time": 205.87199000000004,
          "velocity": 0.6141732283464567
        },
        {
          "duration": 0.6122399999999857,
          "durationTicks": 768,
          "midi": 86,
          "name": "D6",
          "ticks": 268800,
          "time": 207.09647000000004,
          "velocity": 0.6141732283464567
        },
        {
          "duration": 0.6122399999999857,
          "durationTicks": 768,
          "midi": 86,
          "name": "D6",
          "ticks": 268800,
          "time": 207.09647000000004,
          "velocity": 0.6141732283464567
        },
        {
          "duration": 0.1530599999999822,
          "durationTicks": 192,
          "midi": 86,
          "name": "D6",
          "ticks": 269760,
          "time": 207.86177000000004,
          "velocity": 0.968503937007874
        },
        {
          "duration": 0.1530599999999822,
          "durationTicks": 192,
          "midi": 86,
          "name": "D6",
          "ticks": 269760,
          "time": 207.86177000000004,
          "velocity": 0.968503937007874
        },
        {
          "duration": 0.15306000000001063,
          "durationTicks": 192,
          "midi": 86,
          "name": "D6",
          "ticks": 269952,
          "time": 208.01483000000002,
          "velocity": 0.968503937007874
        },
        {
          "duration": 0.15306000000001063,
          "durationTicks": 192,
          "midi": 86,
          "name": "D6",
          "ticks": 269952,
          "time": 208.01483000000002,
          "velocity": 0.968503937007874
        },
        {
          "duration": 0.15306000000001063,
          "durationTicks": 192,
          "midi": 86,
          "name": "D6",
          "ticks": 270144,
          "time": 208.16789000000003,
          "velocity": 0.968503937007874
        },
        {
          "duration": 0.15306000000001063,
          "durationTicks": 192,
          "midi": 86,
          "name": "D6",
          "ticks": 270144,
          "time": 208.16789000000003,
          "velocity": 0.968503937007874
        },
        {
          "duration": 0.6122399999999857,
          "durationTicks": 768,
          "midi": 83,
          "name": "B5",
          "ticks": 270336,
          "time": 208.32095000000004,
          "velocity": 0.968503937007874
        },
        {
          "duration": 0.6122399999999857,
          "durationTicks": 768,
          "midi": 86,
          "name": "D6",
          "ticks": 270336,
          "time": 208.32095000000004,
          "velocity": 0.968503937007874
        },
        {
          "duration": 0.6122400000000141,
          "durationTicks": 768,
          "midi": 84,
          "name": "C6",
          "ticks": 271104,
          "time": 208.93319000000002,
          "velocity": 0.968503937007874
        },
        {
          "duration": 0.6122400000000141,
          "durationTicks": 768,
          "midi": 86,
          "name": "D6",
          "ticks": 271104,
          "time": 208.93319000000002,
          "velocity": 0.968503937007874
        },
        {
          "duration": 1.2244799999999998,
          "durationTicks": 1536,
          "midi": 81,
          "name": "A5",
          "ticks": 271872,
          "time": 209.54543000000004,
          "velocity": 0.968503937007874
        },
        {
          "duration": 0.6122399999999857,
          "durationTicks": 768,
          "midi": 86,
          "name": "D6",
          "ticks": 271872,
          "time": 209.54543000000004,
          "velocity": 0.968503937007874
        },
        {
          "duration": 0.6122400000000141,
          "durationTicks": 768,
          "midi": 86,
          "name": "D6",
          "ticks": 272640,
          "time": 210.15767000000002,
          "velocity": 0.968503937007874
        },
        {
          "duration": 0.6122399999999857,
          "durationTicks": 768,
          "midi": 86,
          "name": "D6",
          "ticks": 273408,
          "time": 210.76991000000004,
          "velocity": 0.6141732283464567
        },
        {
          "duration": 0.6122399999999857,
          "durationTicks": 768,
          "midi": 86,
          "name": "D6",
          "ticks": 273408,
          "time": 210.76991000000004,
          "velocity": 0.6141732283464567
        },
        {
          "duration": 0.6122399999999857,
          "durationTicks": 768,
          "midi": 86,
          "name": "D6",
          "ticks": 274944,
          "time": 211.99439000000004,
          "velocity": 0.6141732283464567
        },
        {
          "duration": 0.6122399999999857,
          "durationTicks": 768,
          "midi": 86,
          "name": "D6",
          "ticks": 274944,
          "time": 211.99439000000004,
          "velocity": 0.6141732283464567
        },
        {
          "duration": 0.6122399999999857,
          "durationTicks": 768,
          "midi": 86,
          "name": "D6",
          "ticks": 276480,
          "time": 213.21887000000004,
          "velocity": 0.6141732283464567
        },
        {
          "duration": 0.6122399999999857,
          "durationTicks": 768,
          "midi": 86,
          "name": "D6",
          "ticks": 276480,
          "time": 213.21887000000004,
          "velocity": 0.6141732283464567
        },
        {
          "duration": 0.6122399999999857,
          "durationTicks": 768,
          "midi": 86,
          "name": "D6",
          "ticks": 278016,
          "time": 214.44335000000004,
          "velocity": 0.6141732283464567
        },
        {
          "duration": 0.6122399999999857,
          "durationTicks": 768,
          "midi": 86,
          "name": "D6",
          "ticks": 278016,
          "time": 214.44335000000004,
          "velocity": 0.6141732283464567
        },
        {
          "duration": 0.1415049999999951,
          "durationTicks": 192,
          "midi": 80,
          "name": "G#5",
          "ticks": 279744,
          "time": 215.76311500000003,
          "velocity": 0.968503937007874
        },
        {
          "duration": 0.1415049999999951,
          "durationTicks": 192,
          "midi": 92,
          "name": "G#6",
          "ticks": 279744,
          "time": 215.76311500000003,
          "velocity": 0.968503937007874
        },
        {
          "duration": 0.1415049999999951,
          "durationTicks": 192,
          "midi": 80,
          "name": "G#5",
          "ticks": 279936,
          "time": 215.90462000000002,
          "velocity": 0.968503937007874
        },
        {
          "duration": 0.1415049999999951,
          "durationTicks": 192,
          "midi": 92,
          "name": "G#6",
          "ticks": 279936,
          "time": 215.90462000000002,
          "velocity": 0.968503937007874
        },
        {
          "duration": 0.1415049999999951,
          "durationTicks": 192,
          "midi": 80,
          "name": "G#5",
          "ticks": 280128,
          "time": 216.04612500000002,
          "velocity": 0.968503937007874
        },
        {
          "duration": 0.1415049999999951,
          "durationTicks": 192,
          "midi": 92,
          "name": "G#6",
          "ticks": 280128,
          "time": 216.04612500000002,
          "velocity": 0.968503937007874
        },
        {
          "duration": 0.707525000000004,
          "durationTicks": 960,
          "midi": 77,
          "name": "F5",
          "ticks": 280320,
          "time": 216.18763,
          "velocity": 0.968503937007874
        },
        {
          "duration": 0.707525000000004,
          "durationTicks": 960,
          "midi": 89,
          "name": "F6",
          "ticks": 280320,
          "time": 216.18763,
          "velocity": 0.968503937007874
        },
        {
          "duration": 0.1415049999999951,
          "durationTicks": 192,
          "midi": 80,
          "name": "G#5",
          "ticks": 281280,
          "time": 216.89515500000002,
          "velocity": 0.968503937007874
        },
        {
          "duration": 0.1415049999999951,
          "durationTicks": 192,
          "midi": 92,
          "name": "G#6",
          "ticks": 281280,
          "time": 216.89515500000002,
          "velocity": 0.968503937007874
        },
        {
          "duration": 0.14150500000002353,
          "durationTicks": 192,
          "midi": 80,
          "name": "G#5",
          "ticks": 281472,
          "time": 217.03666,
          "velocity": 0.968503937007874
        },
        {
          "duration": 0.14150500000002353,
          "durationTicks": 192,
          "midi": 92,
          "name": "G#6",
          "ticks": 281472,
          "time": 217.03666,
          "velocity": 0.968503937007874
        },
        {
          "duration": 0.1415049999999951,
          "durationTicks": 192,
          "midi": 80,
          "name": "G#5",
          "ticks": 281664,
          "time": 217.17816500000004,
          "velocity": 0.968503937007874
        },
        {
          "duration": 0.1415049999999951,
          "durationTicks": 192,
          "midi": 92,
          "name": "G#6",
          "ticks": 281664,
          "time": 217.17816500000004,
          "velocity": 0.968503937007874
        },
        {
          "duration": 0.707525000000004,
          "durationTicks": 960,
          "midi": 77,
          "name": "F5",
          "ticks": 281856,
          "time": 217.31967000000003,
          "velocity": 0.968503937007874
        },
        {
          "duration": 0.707525000000004,
          "durationTicks": 960,
          "midi": 89,
          "name": "F6",
          "ticks": 281856,
          "time": 217.31967000000003,
          "velocity": 0.968503937007874
        },
        {
          "duration": 0.1415049999999951,
          "durationTicks": 192,
          "midi": 80,
          "name": "G#5",
          "ticks": 282816,
          "time": 218.02719500000003,
          "velocity": 0.968503937007874
        },
        {
          "duration": 0.1415049999999951,
          "durationTicks": 192,
          "midi": 92,
          "name": "G#6",
          "ticks": 282816,
          "time": 218.02719500000003,
          "velocity": 0.968503937007874
        },
        {
          "duration": 0.1415049999999951,
          "durationTicks": 192,
          "midi": 80,
          "name": "G#5",
          "ticks": 283008,
          "time": 218.16870000000003,
          "velocity": 0.968503937007874
        },
        {
          "duration": 0.1415049999999951,
          "durationTicks": 192,
          "midi": 92,
          "name": "G#6",
          "ticks": 283008,
          "time": 218.16870000000003,
          "velocity": 0.968503937007874
        },
        {
          "duration": 0.1415049999999951,
          "durationTicks": 192,
          "midi": 80,
          "name": "G#5",
          "ticks": 283200,
          "time": 218.31020500000002,
          "velocity": 0.968503937007874
        },
        {
          "duration": 0.1415049999999951,
          "durationTicks": 192,
          "midi": 92,
          "name": "G#6",
          "ticks": 283200,
          "time": 218.31020500000002,
          "velocity": 0.968503937007874
        },
        {
          "duration": 0.1415049999999951,
          "durationTicks": 192,
          "midi": 77,
          "name": "F5",
          "ticks": 283392,
          "time": 218.45171000000002,
          "velocity": 0.968503937007874
        },
        {
          "duration": 0.1415049999999951,
          "durationTicks": 192,
          "midi": 89,
          "name": "F6",
          "ticks": 283392,
          "time": 218.45171000000002,
          "velocity": 0.968503937007874
        },
        {
          "duration": 0.1415049999999951,
          "durationTicks": 192,
          "midi": 80,
          "name": "G#5",
          "ticks": 283584,
          "time": 218.59321500000001,
          "velocity": 0.968503937007874
        },
        {
          "duration": 0.1415049999999951,
          "durationTicks": 192,
          "midi": 92,
          "name": "G#6",
          "ticks": 283584,
          "time": 218.59321500000001,
          "velocity": 0.968503937007874
        },
        {
          "duration": 0.14150500000002353,
          "durationTicks": 192,
          "midi": 80,
          "name": "G#5",
          "ticks": 283776,
          "time": 218.73472,
          "velocity": 0.968503937007874
        },
        {
          "duration": 0.14150500000002353,
          "durationTicks": 192,
          "midi": 92,
          "name": "G#6",
          "ticks": 283776,
          "time": 218.73472,
          "velocity": 0.968503937007874
        },
        {
          "duration": 0.1415049999999951,
          "durationTicks": 192,
          "midi": 80,
          "name": "G#5",
          "ticks": 283968,
          "time": 218.87622500000003,
          "velocity": 0.968503937007874
        },
        {
          "duration": 0.1415049999999951,
          "durationTicks": 192,
          "midi": 92,
          "name": "G#6",
          "ticks": 283968,
          "time": 218.87622500000003,
          "velocity": 0.968503937007874
        },
        {
          "duration": 0.1415049999999951,
          "durationTicks": 192,
          "midi": 77,
          "name": "F5",
          "ticks": 284160,
          "time": 219.01773000000003,
          "velocity": 0.968503937007874
        },
        {
          "duration": 0.1415049999999951,
          "durationTicks": 192,
          "midi": 89,
          "name": "F6",
          "ticks": 284160,
          "time": 219.01773000000003,
          "velocity": 0.968503937007874
        },
        {
          "duration": 0.1415049999999951,
          "durationTicks": 192,
          "midi": 80,
          "name": "G#5",
          "ticks": 284352,
          "time": 219.15923500000002,
          "velocity": 0.968503937007874
        },
        {
          "duration": 0.1415049999999951,
          "durationTicks": 192,
          "midi": 92,
          "name": "G#6",
          "ticks": 284352,
          "time": 219.15923500000002,
          "velocity": 0.968503937007874
        },
        {
          "duration": 0.1415049999999951,
          "durationTicks": 192,
          "midi": 80,
          "name": "G#5",
          "ticks": 284544,
          "time": 219.30074000000002,
          "velocity": 0.968503937007874
        },
        {
          "duration": 0.1415049999999951,
          "durationTicks": 192,
          "midi": 92,
          "name": "G#6",
          "ticks": 284544,
          "time": 219.30074000000002,
          "velocity": 0.968503937007874
        },
        {
          "duration": 0.1415049999999951,
          "durationTicks": 192,
          "midi": 80,
          "name": "G#5",
          "ticks": 284736,
          "time": 219.442245,
          "velocity": 0.968503937007874
        },
        {
          "duration": 0.1415049999999951,
          "durationTicks": 192,
          "midi": 92,
          "name": "G#6",
          "ticks": 284736,
          "time": 219.442245,
          "velocity": 0.968503937007874
        },
        {
          "duration": 0.14150500000002353,
          "durationTicks": 192,
          "midi": 77,
          "name": "F5",
          "ticks": 284928,
          "time": 219.58375,
          "velocity": 0.968503937007874
        },
        {
          "duration": 0.14150500000002353,
          "durationTicks": 192,
          "midi": 89,
          "name": "F6",
          "ticks": 284928,
          "time": 219.58375,
          "velocity": 0.968503937007874
        },
        {
          "duration": 0.1415049999999951,
          "durationTicks": 192,
          "midi": 79,
          "name": "G5",
          "ticks": 285120,
          "time": 219.72525500000003,
          "velocity": 0.968503937007874
        },
        {
          "duration": 0.1415049999999951,
          "durationTicks": 192,
          "midi": 91,
          "name": "G6",
          "ticks": 285120,
          "time": 219.72525500000003,
          "velocity": 0.968503937007874
        },
        {
          "duration": 0.1415049999999951,
          "durationTicks": 192,
          "midi": 79,
          "name": "G5",
          "ticks": 285312,
          "time": 219.86676000000003,
          "velocity": 0.968503937007874
        },
        {
          "duration": 0.1415049999999951,
          "durationTicks": 192,
          "midi": 91,
          "name": "G6",
          "ticks": 285312,
          "time": 219.86676000000003,
          "velocity": 0.968503937007874
        },
        {
          "duration": 0.1415049999999951,
          "durationTicks": 192,
          "midi": 79,
          "name": "G5",
          "ticks": 285504,
          "time": 220.00826500000002,
          "velocity": 0.968503937007874
        },
        {
          "duration": 0.1415049999999951,
          "durationTicks": 192,
          "midi": 91,
          "name": "G6",
          "ticks": 285504,
          "time": 220.00826500000002,
          "velocity": 0.968503937007874
        },
        {
          "duration": 0.75,
          "durationTicks": 768,
          "midi": 87,
          "name": "D#6",
          "ticks": 285696,
          "time": 220.14977000000002,
          "velocity": 0.968503937007874
        },
        {
          "duration": 0.75,
          "durationTicks": 768,
          "midi": 91,
          "name": "G6",
          "ticks": 285696,
          "time": 220.14977000000002,
          "velocity": 0.968503937007874
        },
        {
          "duration": 0.1415049999999951,
          "durationTicks": 192,
          "midi": 89,
          "name": "F6",
          "ticks": 286656,
          "time": 221.041275,
          "velocity": 0.968503937007874
        },
        {
          "duration": 0.1415049999999951,
          "durationTicks": 192,
          "midi": 91,
          "name": "G6",
          "ticks": 286656,
          "time": 221.041275,
          "velocity": 0.968503937007874
        },
        {
          "duration": 0.14150500000002353,
          "durationTicks": 192,
          "midi": 89,
          "name": "F6",
          "ticks": 286848,
          "time": 221.18278,
          "velocity": 0.968503937007874
        },
        {
          "duration": 0.14150500000002353,
          "durationTicks": 192,
          "midi": 91,
          "name": "G6",
          "ticks": 286848,
          "time": 221.18278,
          "velocity": 0.968503937007874
        },
        {
          "duration": 0.1415049999999951,
          "durationTicks": 192,
          "midi": 89,
          "name": "F6",
          "ticks": 287040,
          "time": 221.32428500000003,
          "velocity": 0.968503937007874
        },
        {
          "duration": 0.1415049999999951,
          "durationTicks": 192,
          "midi": 91,
          "name": "G6",
          "ticks": 287040,
          "time": 221.32428500000003,
          "velocity": 0.968503937007874
        },
        {
          "duration": 1.766019999999969,
          "durationTicks": 1536,
          "midi": 86,
          "name": "D6",
          "ticks": 287232,
          "time": 221.46579000000003,
          "velocity": 0.968503937007874
        },
        {
          "duration": 1.766019999999969,
          "durationTicks": 1536,
          "midi": 91,
          "name": "G6",
          "ticks": 287232,
          "time": 221.46579000000003,
          "velocity": 0.968503937007874
        },
        {
          "duration": 1.1320399999999893,
          "durationTicks": 1536,
          "midi": 65,
          "name": "F4",
          "ticks": 294144,
          "time": 227.19395,
          "velocity": 0.7165354330708661
        },
        {
          "duration": 1.1320399999999893,
          "durationTicks": 1536,
          "midi": 65,
          "name": "F4",
          "ticks": 294144,
          "time": 227.19395,
          "velocity": 0.7165354330708661
        },
        {
          "duration": 0.28301000000001864,
          "durationTicks": 384,
          "midi": 63,
          "name": "D#4",
          "ticks": 295680,
          "time": 228.32599,
          "velocity": 0.7165354330708661
        },
        {
          "duration": 0.28301000000001864,
          "durationTicks": 384,
          "midi": 63,
          "name": "D#4",
          "ticks": 295680,
          "time": 228.32599,
          "velocity": 0.7165354330708661
        },
        {
          "duration": 0.5660199999999804,
          "durationTicks": 768,
          "midi": 78,
          "name": "F#5",
          "ticks": 299520,
          "time": 231.15609,
          "velocity": 0.7165354330708661
        },
        {
          "duration": 0.5660199999999804,
          "durationTicks": 768,
          "midi": 84,
          "name": "C6",
          "ticks": 299520,
          "time": 231.15609,
          "velocity": 0.7165354330708661
        },
        {
          "duration": 0.28301000000001864,
          "durationTicks": 384,
          "midi": 79,
          "name": "G5",
          "ticks": 300288,
          "time": 231.72211,
          "velocity": 0.905511811023622
        },
        {
          "duration": 0.28301000000001864,
          "durationTicks": 384,
          "midi": 83,
          "name": "B5",
          "ticks": 300288,
          "time": 231.72211,
          "velocity": 0.905511811023622
        },
        {
          "duration": 0.27521999999999025,
          "durationTicks": 384,
          "midi": 84,
          "name": "C6",
          "ticks": 314880,
          "time": 243.04153,
          "velocity": 0.905511811023622
        },
        {
          "duration": 0.27521999999999025,
          "durationTicks": 384,
          "midi": 84,
          "name": "C6",
          "ticks": 314880,
          "time": 243.04153,
          "velocity": 0.905511811023622
        },
        {
          "duration": 0.27522000000001867,
          "durationTicks": 384,
          "midi": 84,
          "name": "C6",
          "ticks": 315648,
          "time": 243.59196999999998,
          "velocity": 0.905511811023622
        },
        {
          "duration": 0.27522000000001867,
          "durationTicks": 384,
          "midi": 84,
          "name": "C6",
          "ticks": 315648,
          "time": 243.59196999999998,
          "velocity": 0.905511811023622
        },
        {
          "duration": 0.27521999999999025,
          "durationTicks": 384,
          "midi": 84,
          "name": "C6",
          "ticks": 316416,
          "time": 244.14240999999998,
          "velocity": 0.905511811023622
        },
        {
          "duration": 0.27521999999999025,
          "durationTicks": 384,
          "midi": 84,
          "name": "C6",
          "ticks": 316416,
          "time": 244.14240999999998,
          "velocity": 0.905511811023622
        },
        {
          "duration": 0.27521999999999025,
          "durationTicks": 384,
          "midi": 84,
          "name": "C6",
          "ticks": 317184,
          "time": 244.69285,
          "velocity": 0.905511811023622
        },
        {
          "duration": 0.27521999999999025,
          "durationTicks": 384,
          "midi": 84,
          "name": "C6",
          "ticks": 317184,
          "time": 244.69285,
          "velocity": 0.905511811023622
        },
        {
          "duration": 0.27522000000001867,
          "durationTicks": 384,
          "midi": 83,
          "name": "B5",
          "ticks": 317952,
          "time": 245.24328999999997,
          "velocity": 0.905511811023622
        },
        {
          "duration": 0.27522000000001867,
          "durationTicks": 384,
          "midi": 86,
          "name": "D6",
          "ticks": 317952,
          "time": 245.24328999999997,
          "velocity": 0.905511811023622
        },
        {
          "duration": 2.181759999999997,
          "durationTicks": 3072,
          "midi": 84,
          "name": "C6",
          "ticks": 318720,
          "time": 245.79372999999998,
          "velocity": 0.905511811023622
        },
        {
          "duration": 2.181759999999997,
          "durationTicks": 3072,
          "midi": 87,
          "name": "D#6",
          "ticks": 318720,
          "time": 245.79372999999998,
          "velocity": 0.905511811023622
        },
        {
          "duration": 1.9090400000000045,
          "durationTicks": 2688,
          "midi": 86,
          "name": "D6",
          "ticks": 321792,
          "time": 247.97548999999998,
          "velocity": 0.905511811023622
        },
        {
          "duration": 1.9090400000000045,
          "durationTicks": 2688,
          "midi": 89,
          "name": "F6",
          "ticks": 321792,
          "time": 247.97548999999998,
          "velocity": 0.905511811023622
        },
        {
          "duration": 0.2727199999999925,
          "durationTicks": 384,
          "midi": 84,
          "name": "C6",
          "ticks": 324480,
          "time": 249.88452999999998,
          "velocity": 0.905511811023622
        },
        {
          "duration": 0.2727199999999925,
          "durationTicks": 384,
          "midi": 87,
          "name": "D#6",
          "ticks": 324480,
          "time": 249.88452999999998,
          "velocity": 0.905511811023622
        },
        {
          "duration": 2.181759999999997,
          "durationTicks": 3072,
          "midi": 84,
          "name": "C6",
          "ticks": 324864,
          "time": 250.15724999999998,
          "velocity": 0.968503937007874
        },
        {
          "duration": 2.181759999999997,
          "durationTicks": 3072,
          "midi": 90,
          "name": "F#6",
          "ticks": 324864,
          "time": 250.15724999999998,
          "velocity": 0.968503937007874
        },
        {
          "duration": 0.2941099999999892,
          "durationTicks": 384,
          "midi": 84,
          "name": "C6",
          "ticks": 327936,
          "time": 252.33900999999997,
          "velocity": 0.968503937007874
        },
        {
          "duration": 0.2941099999999892,
          "durationTicks": 384,
          "midi": 90,
          "name": "F#6",
          "ticks": 327936,
          "time": 252.33900999999997,
          "velocity": 0.968503937007874
        },
        {
          "duration": 0.2941099999999892,
          "durationTicks": 384,
          "midi": 79,
          "name": "G5",
          "ticks": 329472,
          "time": 253.51545,
          "velocity": 0.968503937007874
        },
        {
          "duration": 0.2941099999999892,
          "durationTicks": 384,
          "midi": 91,
          "name": "G6",
          "ticks": 329472,
          "time": 253.51545,
          "velocity": 0.968503937007874
        },
        {
          "duration": 0.2941099999999892,
          "durationTicks": 384,
          "midi": 79,
          "name": "G5",
          "ticks": 336384,
          "time": 258.80942999999996,
          "velocity": 0.7165354330708661
        },
        {
          "duration": 0.2941099999999892,
          "durationTicks": 384,
          "midi": 79,
          "name": "G5",
          "ticks": 336384,
          "time": 258.80942999999996,
          "velocity": 0.7165354330708661
        },
        {
          "duration": 0.29411000000004606,
          "durationTicks": 384,
          "midi": 84,
          "name": "C6",
          "ticks": 336768,
          "time": 259.10353999999995,
          "velocity": 0.7165354330708661
        },
        {
          "duration": 0.29411000000004606,
          "durationTicks": 384,
          "midi": 84,
          "name": "C6",
          "ticks": 336768,
          "time": 259.10353999999995,
          "velocity": 0.7165354330708661
        },
        {
          "duration": 0.2941099999999892,
          "durationTicks": 384,
          "midi": 83,
          "name": "B5",
          "ticks": 337152,
          "time": 259.39765,
          "velocity": 0.7165354330708661
        },
        {
          "duration": 0.2941099999999892,
          "durationTicks": 384,
          "midi": 83,
          "name": "B5",
          "ticks": 337152,
          "time": 259.39765,
          "velocity": 0.7165354330708661
        },
        {
          "duration": 0.2941099999999892,
          "durationTicks": 384,
          "midi": 84,
          "name": "C6",
          "ticks": 337536,
          "time": 259.69176,
          "velocity": 0.7165354330708661
        },
        {
          "duration": 0.2941099999999892,
          "durationTicks": 384,
          "midi": 84,
          "name": "C6",
          "ticks": 337536,
          "time": 259.69176,
          "velocity": 0.7165354330708661
        },
        {
          "duration": 0.2941099999999892,
          "durationTicks": 384,
          "midi": 86,
          "name": "D6",
          "ticks": 337920,
          "time": 259.98587,
          "velocity": 0.7165354330708661
        },
        {
          "duration": 0.2941099999999892,
          "durationTicks": 384,
          "midi": 86,
          "name": "D6",
          "ticks": 337920,
          "time": 259.98587,
          "velocity": 0.7165354330708661
        },
        {
          "duration": 0.2941099999999892,
          "durationTicks": 384,
          "midi": 81,
          "name": "A5",
          "ticks": 338304,
          "time": 260.27997999999997,
          "velocity": 0.7165354330708661
        },
        {
          "duration": 0.2941099999999892,
          "durationTicks": 384,
          "midi": 81,
          "name": "A5",
          "ticks": 338304,
          "time": 260.27997999999997,
          "velocity": 0.7165354330708661
        },
        {
          "duration": 0.29411000000004606,
          "durationTicks": 384,
          "midi": 81,
          "name": "A5",
          "ticks": 338688,
          "time": 260.57408999999996,
          "velocity": 0.7165354330708661
        },
        {
          "duration": 0.29411000000004606,
          "durationTicks": 384,
          "midi": 81,
          "name": "A5",
          "ticks": 338688,
          "time": 260.57408999999996,
          "velocity": 0.7165354330708661
        },
        {
          "duration": 0.2941099999999892,
          "durationTicks": 384,
          "midi": 79,
          "name": "G5",
          "ticks": 339072,
          "time": 260.8682,
          "velocity": 0.7165354330708661
        },
        {
          "duration": 0.2941099999999892,
          "durationTicks": 384,
          "midi": 79,
          "name": "G5",
          "ticks": 339072,
          "time": 260.8682,
          "velocity": 0.7165354330708661
        },
        {
          "duration": 0.28846000000004324,
          "durationTicks": 384,
          "midi": 79,
          "name": "G5",
          "ticks": 342528,
          "time": 263.48128999999994,
          "velocity": 0.7165354330708661
        },
        {
          "duration": 0.28846000000004324,
          "durationTicks": 384,
          "midi": 79,
          "name": "G5",
          "ticks": 342528,
          "time": 263.48128999999994,
          "velocity": 0.7165354330708661
        },
        {
          "duration": 0.2884599999999864,
          "durationTicks": 384,
          "midi": 84,
          "name": "C6",
          "ticks": 342912,
          "time": 263.76975,
          "velocity": 0.7165354330708661
        },
        {
          "duration": 0.2884599999999864,
          "durationTicks": 384,
          "midi": 84,
          "name": "C6",
          "ticks": 342912,
          "time": 263.76975,
          "velocity": 0.7165354330708661
        },
        {
          "duration": 0.2884599999999864,
          "durationTicks": 384,
          "midi": 83,
          "name": "B5",
          "ticks": 343296,
          "time": 264.05821,
          "velocity": 0.7165354330708661
        },
        {
          "duration": 0.2884599999999864,
          "durationTicks": 384,
          "midi": 83,
          "name": "B5",
          "ticks": 343296,
          "time": 264.05821,
          "velocity": 0.7165354330708661
        },
        {
          "duration": 0.2884599999999864,
          "durationTicks": 384,
          "midi": 84,
          "name": "C6",
          "ticks": 343680,
          "time": 264.34666999999996,
          "velocity": 0.7165354330708661
        },
        {
          "duration": 0.2884599999999864,
          "durationTicks": 384,
          "midi": 84,
          "name": "C6",
          "ticks": 343680,
          "time": 264.34666999999996,
          "velocity": 0.7165354330708661
        },
        {
          "duration": 0.28846000000004324,
          "durationTicks": 384,
          "midi": 86,
          "name": "D6",
          "ticks": 344064,
          "time": 264.63512999999995,
          "velocity": 0.7165354330708661
        },
        {
          "duration": 0.28846000000004324,
          "durationTicks": 384,
          "midi": 86,
          "name": "D6",
          "ticks": 344064,
          "time": 264.63512999999995,
          "velocity": 0.7165354330708661
        },
        {
          "duration": 0.2884599999999864,
          "durationTicks": 384,
          "midi": 81,
          "name": "A5",
          "ticks": 344448,
          "time": 264.92359,
          "velocity": 0.7165354330708661
        },
        {
          "duration": 0.2884599999999864,
          "durationTicks": 384,
          "midi": 81,
          "name": "A5",
          "ticks": 344448,
          "time": 264.92359,
          "velocity": 0.7165354330708661
        },
        {
          "duration": 0.2884599999999864,
          "durationTicks": 384,
          "midi": 81,
          "name": "A5",
          "ticks": 344832,
          "time": 265.21205,
          "velocity": 0.7165354330708661
        },
        {
          "duration": 0.2884599999999864,
          "durationTicks": 384,
          "midi": 81,
          "name": "A5",
          "ticks": 344832,
          "time": 265.21205,
          "velocity": 0.7165354330708661
        },
        {
          "duration": 0.2884599999999864,
          "durationTicks": 384,
          "midi": 79,
          "name": "G5",
          "ticks": 345216,
          "time": 265.50050999999996,
          "velocity": 0.7165354330708661
        },
        {
          "duration": 0.2884599999999864,
          "durationTicks": 384,
          "midi": 79,
          "name": "G5",
          "ticks": 345216,
          "time": 265.50050999999996,
          "velocity": 0.7165354330708661
        },
        {
          "duration": 0.28301000000004706,
          "durationTicks": 384,
          "midi": 82,
          "name": "A#5",
          "ticks": 347136,
          "time": 266.93190999999996,
          "velocity": 0.7165354330708661
        },
        {
          "duration": 0.28301000000004706,
          "durationTicks": 384,
          "midi": 82,
          "name": "A#5",
          "ticks": 347136,
          "time": 266.93190999999996,
          "velocity": 0.7165354330708661
        },
        {
          "duration": 0.2830099999999902,
          "durationTicks": 384,
          "midi": 84,
          "name": "C6",
          "ticks": 347520,
          "time": 267.21492,
          "velocity": 0.7165354330708661
        },
        {
          "duration": 0.2830099999999902,
          "durationTicks": 384,
          "midi": 84,
          "name": "C6",
          "ticks": 347520,
          "time": 267.21492,
          "velocity": 0.7165354330708661
        },
        {
          "duration": 0.2830099999999902,
          "durationTicks": 384,
          "midi": 82,
          "name": "A#5",
          "ticks": 347904,
          "time": 267.49793,
          "velocity": 0.7165354330708661
        },
        {
          "duration": 0.2830099999999902,
          "durationTicks": 384,
          "midi": 82,
          "name": "A#5",
          "ticks": 347904,
          "time": 267.49793,
          "velocity": 0.7165354330708661
        },
        {
          "duration": 0.2830099999999902,
          "durationTicks": 384,
          "midi": 81,
          "name": "A5",
          "ticks": 348288,
          "time": 267.78094,
          "velocity": 0.7165354330708661
        },
        {
          "duration": 0.2830099999999902,
          "durationTicks": 384,
          "midi": 81,
          "name": "A5",
          "ticks": 348288,
          "time": 267.78094,
          "velocity": 0.7165354330708661
        },
        {
          "duration": 0.2830099999999902,
          "durationTicks": 384,
          "midi": 84,
          "name": "C6",
          "ticks": 350208,
          "time": 269.19599,
          "velocity": 0.7165354330708661
        },
        {
          "duration": 0.2830099999999902,
          "durationTicks": 384,
          "midi": 84,
          "name": "C6",
          "ticks": 350208,
          "time": 269.19599,
          "velocity": 0.7165354330708661
        },
        {
          "duration": 0.2830099999999902,
          "durationTicks": 384,
          "midi": 86,
          "name": "D6",
          "ticks": 350592,
          "time": 269.479,
          "velocity": 0.7165354330708661
        },
        {
          "duration": 0.2830099999999902,
          "durationTicks": 384,
          "midi": 86,
          "name": "D6",
          "ticks": 350592,
          "time": 269.479,
          "velocity": 0.7165354330708661
        },
        {
          "duration": 0.2830099999999902,
          "durationTicks": 384,
          "midi": 84,
          "name": "C6",
          "ticks": 350976,
          "time": 269.76201,
          "velocity": 0.7165354330708661
        },
        {
          "duration": 0.2830099999999902,
          "durationTicks": 384,
          "midi": 84,
          "name": "C6",
          "ticks": 350976,
          "time": 269.76201,
          "velocity": 0.7165354330708661
        },
        {
          "duration": 0.2830099999999902,
          "durationTicks": 384,
          "midi": 83,
          "name": "B5",
          "ticks": 351360,
          "time": 270.04501999999997,
          "velocity": 0.7165354330708661
        },
        {
          "duration": 0.2830099999999902,
          "durationTicks": 384,
          "midi": 83,
          "name": "B5",
          "ticks": 351360,
          "time": 270.04501999999997,
          "velocity": 0.7165354330708661
        },
        {
          "duration": 0.2830099999999902,
          "durationTicks": 384,
          "midi": 92,
          "name": "G#6",
          "ticks": 357120,
          "time": 274.29017,
          "velocity": 0.7165354330708661
        },
        {
          "duration": 0.2830099999999902,
          "durationTicks": 384,
          "midi": 92,
          "name": "G#6",
          "ticks": 357120,
          "time": 274.29017,
          "velocity": 0.7165354330708661
        },
        {
          "duration": 0.2830099999999902,
          "durationTicks": 384,
          "midi": 91,
          "name": "G6",
          "ticks": 357504,
          "time": 274.57318,
          "velocity": 0.7165354330708661
        },
        {
          "duration": 0.2830099999999902,
          "durationTicks": 384,
          "midi": 91,
          "name": "G6",
          "ticks": 357504,
          "time": 274.57318,
          "velocity": 0.7165354330708661
        },
        {
          "duration": 0.2830099999999902,
          "durationTicks": 384,
          "midi": 90,
          "name": "F#6",
          "ticks": 357888,
          "time": 274.85618999999997,
          "velocity": 0.7165354330708661
        },
        {
          "duration": 0.2830099999999902,
          "durationTicks": 384,
          "midi": 90,
          "name": "F#6",
          "ticks": 357888,
          "time": 274.85618999999997,
          "velocity": 0.7165354330708661
        },
        {
          "duration": 0.2830099999999902,
          "durationTicks": 384,
          "midi": 91,
          "name": "G6",
          "ticks": 358272,
          "time": 275.13919999999996,
          "velocity": 0.7165354330708661
        },
        {
          "duration": 0.2830099999999902,
          "durationTicks": 384,
          "midi": 91,
          "name": "G6",
          "ticks": 358272,
          "time": 275.13919999999996,
          "velocity": 0.7165354330708661
        },
        {
          "duration": 0.28301000000004706,
          "durationTicks": 384,
          "midi": 93,
          "name": "A6",
          "ticks": 358656,
          "time": 275.42220999999995,
          "velocity": 0.7952755905511811
        },
        {
          "duration": 0.28301000000004706,
          "durationTicks": 384,
          "midi": 93,
          "name": "A6",
          "ticks": 358656,
          "time": 275.42220999999995,
          "velocity": 0.7952755905511811
        },
        {
          "duration": 0.2830099999999902,
          "durationTicks": 384,
          "midi": 91,
          "name": "G6",
          "ticks": 359040,
          "time": 275.70522,
          "velocity": 0.7952755905511811
        },
        {
          "duration": 0.2830099999999902,
          "durationTicks": 384,
          "midi": 91,
          "name": "G6",
          "ticks": 359040,
          "time": 275.70522,
          "velocity": 0.7952755905511811
        },
        {
          "duration": 0.2830099999999902,
          "durationTicks": 384,
          "midi": 90,
          "name": "F#6",
          "ticks": 359424,
          "time": 275.98823,
          "velocity": 0.7952755905511811
        },
        {
          "duration": 0.2830099999999902,
          "durationTicks": 384,
          "midi": 90,
          "name": "F#6",
          "ticks": 359424,
          "time": 275.98823,
          "velocity": 0.7952755905511811
        },
        {
          "duration": 0.2830099999999902,
          "durationTicks": 384,
          "midi": 91,
          "name": "G6",
          "ticks": 359808,
          "time": 276.27124,
          "velocity": 0.7952755905511811
        },
        {
          "duration": 0.2830099999999902,
          "durationTicks": 384,
          "midi": 91,
          "name": "G6",
          "ticks": 359808,
          "time": 276.27124,
          "velocity": 0.7952755905511811
        },
        {
          "duration": 0.2777699999999754,
          "durationTicks": 384,
          "midi": 93,
          "name": "A6",
          "ticks": 360192,
          "time": 276.55424999999997,
          "velocity": 0.8582677165354331
        },
        {
          "duration": 0.2777699999999754,
          "durationTicks": 384,
          "midi": 93,
          "name": "A6",
          "ticks": 360192,
          "time": 276.55424999999997,
          "velocity": 0.8582677165354331
        },
        {
          "duration": 0.27777000000003227,
          "durationTicks": 384,
          "midi": 91,
          "name": "G6",
          "ticks": 360576,
          "time": 276.83201999999994,
          "velocity": 0.8582677165354331
        },
        {
          "duration": 0.27777000000003227,
          "durationTicks": 384,
          "midi": 91,
          "name": "G6",
          "ticks": 360576,
          "time": 276.83201999999994,
          "velocity": 0.8582677165354331
        },
        {
          "duration": 0.2777699999999754,
          "durationTicks": 384,
          "midi": 90,
          "name": "F#6",
          "ticks": 360960,
          "time": 277.10979,
          "velocity": 0.8582677165354331
        },
        {
          "duration": 0.2777699999999754,
          "durationTicks": 384,
          "midi": 90,
          "name": "F#6",
          "ticks": 360960,
          "time": 277.10979,
          "velocity": 0.8582677165354331
        },
        {
          "duration": 0.27777000000003227,
          "durationTicks": 384,
          "midi": 91,
          "name": "G6",
          "ticks": 361344,
          "time": 277.38755999999995,
          "velocity": 0.8582677165354331
        },
        {
          "duration": 0.27777000000003227,
          "durationTicks": 384,
          "midi": 91,
          "name": "G6",
          "ticks": 361344,
          "time": 277.38755999999995,
          "velocity": 0.8582677165354331
        },
        {
          "duration": 0.2777699999999754,
          "durationTicks": 384,
          "midi": 90,
          "name": "F#6",
          "ticks": 361728,
          "time": 277.66533,
          "velocity": 0.905511811023622
        },
        {
          "duration": 0.2777699999999754,
          "durationTicks": 384,
          "midi": 90,
          "name": "F#6",
          "ticks": 361728,
          "time": 277.66533,
          "velocity": 0.905511811023622
        },
        {
          "duration": 0.27777000000003227,
          "durationTicks": 384,
          "midi": 91,
          "name": "G6",
          "ticks": 362112,
          "time": 277.94309999999996,
          "velocity": 0.905511811023622
        },
        {
          "duration": 0.27777000000003227,
          "durationTicks": 384,
          "midi": 91,
          "name": "G6",
          "ticks": 362112,
          "time": 277.94309999999996,
          "velocity": 0.905511811023622
        },
        {
          "duration": 0.2777699999999754,
          "durationTicks": 384,
          "midi": 90,
          "name": "F#6",
          "ticks": 362496,
          "time": 278.22087,
          "velocity": 0.905511811023622
        },
        {
          "duration": 0.2777699999999754,
          "durationTicks": 384,
          "midi": 90,
          "name": "F#6",
          "ticks": 362496,
          "time": 278.22087,
          "velocity": 0.905511811023622
        },
        {
          "duration": 0.2777699999999754,
          "durationTicks": 384,
          "midi": 91,
          "name": "G6",
          "ticks": 362880,
          "time": 278.49863999999997,
          "velocity": 0.905511811023622
        },
        {
          "duration": 0.2777699999999754,
          "durationTicks": 384,
          "midi": 91,
          "name": "G6",
          "ticks": 362880,
          "time": 278.49863999999997,
          "velocity": 0.905511811023622
        },
        {
          "duration": 0.83331000000004,
          "durationTicks": 1152,
          "midi": 89,
          "name": "F6",
          "ticks": 363264,
          "time": 278.77640999999994,
          "velocity": 0.968503937007874
        },
        {
          "duration": 0.83331000000004,
          "durationTicks": 1152,
          "midi": 91,
          "name": "G6",
          "ticks": 363264,
          "time": 278.77640999999994,
          "velocity": 0.968503937007874
        },
        {
          "duration": 0.2777699999999754,
          "durationTicks": 384,
          "midi": 89,
          "name": "F6",
          "ticks": 364416,
          "time": 279.60972,
          "velocity": 0.968503937007874
        },
        {
          "duration": 0.2777699999999754,
          "durationTicks": 384,
          "midi": 91,
          "name": "G6",
          "ticks": 364416,
          "time": 279.60972,
          "velocity": 0.968503937007874
        },
        {
          "duration": 0.27777000000003227,
          "durationTicks": 384,
          "midi": 88,
          "name": "E6",
          "ticks": 364800,
          "time": 279.88748999999996,
          "velocity": 0.968503937007874
        },
        {
          "duration": 0.27777000000003227,
          "durationTicks": 384,
          "midi": 91,
          "name": "G6",
          "ticks": 364800,
          "time": 279.88748999999996,
          "velocity": 0.968503937007874
        },
        {
          "duration": 0.2777699999999754,
          "durationTicks": 384,
          "midi": 83,
          "name": "B5",
          "ticks": 365568,
          "time": 280.44302999999996,
          "velocity": 0.968503937007874
        },
        {
          "duration": 0.2777699999999754,
          "durationTicks": 384,
          "midi": 91,
          "name": "G6",
          "ticks": 365568,
          "time": 280.44302999999996,
          "velocity": 0.968503937007874
        },
        {
          "duration": 0.2777699999999754,
          "durationTicks": 384,
          "midi": 84,
          "name": "C6",
          "ticks": 366336,
          "time": 280.99857,
          "velocity": 0.968503937007874
        },
        {
          "duration": 0.2777699999999754,
          "durationTicks": 384,
          "midi": 91,
          "name": "G6",
          "ticks": 366336,
          "time": 280.99857,
          "velocity": 0.968503937007874
        },
        {
          "duration": 0.2777699999999754,
          "durationTicks": 384,
          "midi": 84,
          "name": "C6",
          "ticks": 367104,
          "time": 281.55411,
          "velocity": 0.968503937007874
        },
        {
          "duration": 0.2777699999999754,
          "durationTicks": 384,
          "midi": 93,
          "name": "A6",
          "ticks": 367104,
          "time": 281.55411,
          "velocity": 0.968503937007874
        },
        {
          "duration": 0.2777699999999754,
          "durationTicks": 384,
          "midi": 88,
          "name": "E6",
          "ticks": 367872,
          "time": 282.10965,
          "velocity": 0.968503937007874
        },
        {
          "duration": 0.2777699999999754,
          "durationTicks": 384,
          "midi": 91,
          "name": "G6",
          "ticks": 367872,
          "time": 282.10965,
          "velocity": 0.968503937007874
        },
        {
          "duration": 0.2777699999999754,
          "durationTicks": 384,
          "midi": 83,
          "name": "B5",
          "ticks": 368640,
          "time": 282.66519,
          "velocity": 0.968503937007874
        },
        {
          "duration": 0.1388849999999593,
          "durationTicks": 192,
          "midi": 91,
          "name": "G6",
          "ticks": 368640,
          "time": 282.66519,
          "velocity": 0.968503937007874
        },
        {
          "duration": 0.13888500000001613,
          "durationTicks": 192,
          "midi": 90,
          "name": "F#6",
          "ticks": 368832,
          "time": 282.80407499999995,
          "velocity": 0.968503937007874
        },
        {
          "duration": 0.13888500000001613,
          "durationTicks": 192,
          "midi": 91,
          "name": "G6",
          "ticks": 369024,
          "time": 282.94295999999997,
          "velocity": 0.968503937007874
        },
        {
          "duration": 0.1388849999999593,
          "durationTicks": 192,
          "midi": 90,
          "name": "F#6",
          "ticks": 369216,
          "time": 283.081845,
          "velocity": 0.968503937007874
        },
        {
          "duration": 1.1110800000000154,
          "durationTicks": 1536,
          "midi": 89,
          "name": "F6",
          "ticks": 369408,
          "time": 283.22072999999995,
          "velocity": 0.968503937007874
        },
        {
          "duration": 1.1110800000000154,
          "durationTicks": 1536,
          "midi": 91,
          "name": "G6",
          "ticks": 369408,
          "time": 283.22072999999995,
          "velocity": 0.968503937007874
        },
        {
          "duration": 0.27777000000003227,
          "durationTicks": 384,
          "midi": 88,
          "name": "E6",
          "ticks": 370944,
          "time": 284.33180999999996,
          "velocity": 0.968503937007874
        },
        {
          "duration": 0.27777000000003227,
          "durationTicks": 384,
          "midi": 91,
          "name": "G6",
          "ticks": 370944,
          "time": 284.33180999999996,
          "velocity": 0.968503937007874
        },
        {
          "duration": 0.2777699999999754,
          "durationTicks": 384,
          "midi": 88,
          "name": "E6",
          "ticks": 371328,
          "time": 284.60958,
          "velocity": 0.968503937007874
        },
        {
          "duration": 0.2777699999999754,
          "durationTicks": 384,
          "midi": 91,
          "name": "G6",
          "ticks": 371328,
          "time": 284.60958,
          "velocity": 0.968503937007874
        },
        {
          "duration": 0.27777000000003227,
          "durationTicks": 384,
          "midi": 83,
          "name": "B5",
          "ticks": 372096,
          "time": 285.16511999999994,
          "velocity": 0.968503937007874
        },
        {
          "duration": 0.27777000000003227,
          "durationTicks": 384,
          "midi": 91,
          "name": "G6",
          "ticks": 372096,
          "time": 285.16511999999994,
          "velocity": 0.968503937007874
        },
        {
          "duration": 0.27777000000003227,
          "durationTicks": 384,
          "midi": 84,
          "name": "C6",
          "ticks": 372864,
          "time": 285.72065999999995,
          "velocity": 0.968503937007874
        },
        {
          "duration": 0.27777000000003227,
          "durationTicks": 384,
          "midi": 91,
          "name": "G6",
          "ticks": 372864,
          "time": 285.72065999999995,
          "velocity": 0.968503937007874
        },
        {
          "duration": 0.27777000000003227,
          "durationTicks": 384,
          "midi": 86,
          "name": "D6",
          "ticks": 373632,
          "time": 286.27619999999996,
          "velocity": 0.968503937007874
        },
        {
          "duration": 0.27777000000003227,
          "durationTicks": 384,
          "midi": 89,
          "name": "F6",
          "ticks": 373632,
          "time": 286.27619999999996,
          "velocity": 0.968503937007874
        },
        {
          "duration": 0.2777699999999754,
          "durationTicks": 384,
          "midi": 88,
          "name": "E6",
          "ticks": 374400,
          "time": 286.83173999999997,
          "velocity": 0.968503937007874
        },
        {
          "duration": 0.2777699999999754,
          "durationTicks": 384,
          "midi": 91,
          "name": "G6",
          "ticks": 374400,
          "time": 286.83173999999997,
          "velocity": 0.968503937007874
        },
        {
          "duration": 0.2777699999999754,
          "durationTicks": 384,
          "midi": 86,
          "name": "D6",
          "ticks": 375168,
          "time": 287.38728,
          "velocity": 0.968503937007874
        },
        {
          "duration": 0.2777699999999754,
          "durationTicks": 384,
          "midi": 91,
          "name": "G6",
          "ticks": 375168,
          "time": 287.38728,
          "velocity": 0.968503937007874
        },
        {
          "duration": 0.13888500000001613,
          "durationTicks": 192,
          "midi": 84,
          "name": "C6",
          "ticks": 375552,
          "time": 287.66504999999995,
          "velocity": 0.968503937007874
        },
        {
          "duration": 0.13888500000001613,
          "durationTicks": 192,
          "midi": 84,
          "name": "C6",
          "ticks": 375552,
          "time": 287.66504999999995,
          "velocity": 0.968503937007874
        },
        {
          "duration": 0.13888500000001613,
          "durationTicks": 192,
          "midi": 88,
          "name": "E6",
          "ticks": 375744,
          "time": 287.80393499999997,
          "velocity": 0.968503937007874
        },
        {
          "duration": 0.13888500000001613,
          "durationTicks": 192,
          "midi": 88,
          "name": "E6",
          "ticks": 375744,
          "time": 287.80393499999997,
          "velocity": 0.968503937007874
        },
        {
          "duration": 0.1388849999999593,
          "durationTicks": 192,
          "midi": 88,
          "name": "E6",
          "ticks": 375936,
          "time": 287.94282,
          "velocity": 0.968503937007874
        },
        {
          "duration": 0.1388849999999593,
          "durationTicks": 192,
          "midi": 88,
          "name": "E6",
          "ticks": 375936,
          "time": 287.94282,
          "velocity": 0.968503937007874
        },
        {
          "duration": 0.13888500000001613,
          "durationTicks": 192,
          "midi": 88,
          "name": "E6",
          "ticks": 376128,
          "time": 288.08170499999994,
          "velocity": 0.968503937007874
        },
        {
          "duration": 0.13888500000001613,
          "durationTicks": 192,
          "midi": 88,
          "name": "E6",
          "ticks": 376128,
          "time": 288.08170499999994,
          "velocity": 0.968503937007874
        },
        {
          "duration": 0.13888500000001613,
          "durationTicks": 192,
          "midi": 84,
          "name": "C6",
          "ticks": 376320,
          "time": 288.22058999999996,
          "velocity": 0.968503937007874
        },
        {
          "duration": 0.13888500000001613,
          "durationTicks": 192,
          "midi": 84,
          "name": "C6",
          "ticks": 376320,
          "time": 288.22058999999996,
          "velocity": 0.968503937007874
        },
        {
          "duration": 0.13888500000001613,
          "durationTicks": 192,
          "midi": 79,
          "name": "G5",
          "ticks": 376512,
          "time": 288.359475,
          "velocity": 0.968503937007874
        },
        {
          "duration": 0.13888500000001613,
          "durationTicks": 192,
          "midi": 79,
          "name": "G5",
          "ticks": 376512,
          "time": 288.359475,
          "velocity": 0.968503937007874
        },
        {
          "duration": 0.1388849999999593,
          "durationTicks": 192,
          "midi": 79,
          "name": "G5",
          "ticks": 376704,
          "time": 288.49836,
          "velocity": 0.968503937007874
        },
        {
          "duration": 0.1388849999999593,
          "durationTicks": 192,
          "midi": 79,
          "name": "G5",
          "ticks": 376704,
          "time": 288.49836,
          "velocity": 0.968503937007874
        },
        {
          "duration": 0.13888500000001613,
          "durationTicks": 192,
          "midi": 79,
          "name": "G5",
          "ticks": 376896,
          "time": 288.63724499999995,
          "velocity": 0.968503937007874
        },
        {
          "duration": 0.13888500000001613,
          "durationTicks": 192,
          "midi": 79,
          "name": "G5",
          "ticks": 376896,
          "time": 288.63724499999995,
          "velocity": 0.968503937007874
        },
        {
          "duration": 0.13888500000001613,
          "durationTicks": 192,
          "midi": 76,
          "name": "E5",
          "ticks": 377088,
          "time": 288.77612999999997,
          "velocity": 0.968503937007874
        },
        {
          "duration": 0.13888500000001613,
          "durationTicks": 192,
          "midi": 76,
          "name": "E5",
          "ticks": 377088,
          "time": 288.77612999999997,
          "velocity": 0.968503937007874
        },
        {
          "duration": 0.1388849999999593,
          "durationTicks": 192,
          "midi": 72,
          "name": "C5",
          "ticks": 377280,
          "time": 288.915015,
          "velocity": 0.968503937007874
        },
        {
          "duration": 0.1388849999999593,
          "durationTicks": 192,
          "midi": 72,
          "name": "C5",
          "ticks": 377280,
          "time": 288.915015,
          "velocity": 0.968503937007874
        },
        {
          "duration": 0.13888500000001613,
          "durationTicks": 192,
          "midi": 72,
          "name": "C5",
          "ticks": 377472,
          "time": 289.05389999999994,
          "velocity": 0.968503937007874
        },
        {
          "duration": 0.13888500000001613,
          "durationTicks": 192,
          "midi": 72,
          "name": "C5",
          "ticks": 377472,
          "time": 289.05389999999994,
          "velocity": 0.968503937007874
        },
        {
          "duration": 0.13888500000001613,
          "durationTicks": 192,
          "midi": 72,
          "name": "C5",
          "ticks": 377664,
          "time": 289.19278499999996,
          "velocity": 0.968503937007874
        },
        {
          "duration": 0.13888500000001613,
          "durationTicks": 192,
          "midi": 72,
          "name": "C5",
          "ticks": 377664,
          "time": 289.19278499999996,
          "velocity": 0.968503937007874
        },
        {
          "duration": 0.694424999999967,
          "durationTicks": 960,
          "midi": 67,
          "name": "G4",
          "ticks": 377856,
          "time": 289.33167,
          "velocity": 0.968503937007874
        },
        {
          "duration": 0.694424999999967,
          "durationTicks": 960,
          "midi": 67,
          "name": "G4",
          "ticks": 377856,
          "time": 289.33167,
          "velocity": 0.968503937007874
        },
        {
          "duration": 0.13888500000001613,
          "durationTicks": 192,
          "midi": 88,
          "name": "E6",
          "ticks": 378816,
          "time": 290.02609499999994,
          "velocity": 0.968503937007874
        },
        {
          "duration": 0.13888500000001613,
          "durationTicks": 192,
          "midi": 88,
          "name": "E6",
          "ticks": 378816,
          "time": 290.02609499999994,
          "velocity": 0.968503937007874
        },
        {
          "duration": 0.13888500000001613,
          "durationTicks": 192,
          "midi": 88,
          "name": "E6",
          "ticks": 379008,
          "time": 290.16497999999996,
          "velocity": 0.968503937007874
        },
        {
          "duration": 0.13888500000001613,
          "durationTicks": 192,
          "midi": 88,
          "name": "E6",
          "ticks": 379008,
          "time": 290.16497999999996,
          "velocity": 0.968503937007874
        },
        {
          "duration": 0.13888500000001613,
          "durationTicks": 192,
          "midi": 88,
          "name": "E6",
          "ticks": 379200,
          "time": 290.303865,
          "velocity": 0.968503937007874
        },
        {
          "duration": 0.13888500000001613,
          "durationTicks": 192,
          "midi": 88,
          "name": "E6",
          "ticks": 379200,
          "time": 290.303865,
          "velocity": 0.968503937007874
        },
        {
          "duration": 0.1388849999999593,
          "durationTicks": 192,
          "midi": 84,
          "name": "C6",
          "ticks": 379392,
          "time": 290.44275,
          "velocity": 0.968503937007874
        },
        {
          "duration": 0.1388849999999593,
          "durationTicks": 192,
          "midi": 84,
          "name": "C6",
          "ticks": 379392,
          "time": 290.44275,
          "velocity": 0.968503937007874
        },
        {
          "duration": 0.13888500000001613,
          "durationTicks": 192,
          "midi": 79,
          "name": "G5",
          "ticks": 379584,
          "time": 290.58163499999995,
          "velocity": 0.968503937007874
        },
        {
          "duration": 0.13888500000001613,
          "durationTicks": 192,
          "midi": 79,
          "name": "G5",
          "ticks": 379584,
          "time": 290.58163499999995,
          "velocity": 0.968503937007874
        },
        {
          "duration": 0.13888500000001613,
          "durationTicks": 192,
          "midi": 79,
          "name": "G5",
          "ticks": 379776,
          "time": 290.72051999999996,
          "velocity": 0.968503937007874
        },
        {
          "duration": 0.13888500000001613,
          "durationTicks": 192,
          "midi": 79,
          "name": "G5",
          "ticks": 379776,
          "time": 290.72051999999996,
          "velocity": 0.968503937007874
        },
        {
          "duration": 0.13888500000001613,
          "durationTicks": 192,
          "midi": 79,
          "name": "G5",
          "ticks": 379968,
          "time": 290.859405,
          "velocity": 0.968503937007874
        },
        {
          "duration": 0.13888500000001613,
          "durationTicks": 192,
          "midi": 79,
          "name": "G5",
          "ticks": 379968,
          "time": 290.859405,
          "velocity": 0.968503937007874
        },
        {
          "duration": 0.1388849999999593,
          "durationTicks": 192,
          "midi": 76,
          "name": "E5",
          "ticks": 380160,
          "time": 290.99829,
          "velocity": 0.968503937007874
        },
        {
          "duration": 0.1388849999999593,
          "durationTicks": 192,
          "midi": 76,
          "name": "E5",
          "ticks": 380160,
          "time": 290.99829,
          "velocity": 0.968503937007874
        },
        {
          "duration": 0.13888500000001613,
          "durationTicks": 192,
          "midi": 72,
          "name": "C5",
          "ticks": 380352,
          "time": 291.13717499999996,
          "velocity": 0.968503937007874
        },
        {
          "duration": 0.13888500000001613,
          "durationTicks": 192,
          "midi": 72,
          "name": "C5",
          "ticks": 380352,
          "time": 291.13717499999996,
          "velocity": 0.968503937007874
        },
        {
          "duration": 0.13888500000001613,
          "durationTicks": 192,
          "midi": 72,
          "name": "C5",
          "ticks": 380544,
          "time": 291.27606,
          "velocity": 0.968503937007874
        },
        {
          "duration": 0.13888500000001613,
          "durationTicks": 192,
          "midi": 72,
          "name": "C5",
          "ticks": 380544,
          "time": 291.27606,
          "velocity": 0.968503937007874
        },
        {
          "duration": 0.1388849999999593,
          "durationTicks": 192,
          "midi": 72,
          "name": "C5",
          "ticks": 380736,
          "time": 291.414945,
          "velocity": 0.968503937007874
        },
        {
          "duration": 0.1388849999999593,
          "durationTicks": 192,
          "midi": 72,
          "name": "C5",
          "ticks": 380736,
          "time": 291.414945,
          "velocity": 0.968503937007874
        },
        {
          "duration": 0.13888500000001613,
          "durationTicks": 192,
          "midi": 67,
          "name": "G4",
          "ticks": 380928,
          "time": 291.55382999999995,
          "velocity": 0.968503937007874
        },
        {
          "duration": 0.13888500000001613,
          "durationTicks": 192,
          "midi": 67,
          "name": "G4",
          "ticks": 380928,
          "time": 291.55382999999995,
          "velocity": 0.968503937007874
        },
        {
          "duration": 0.13888500000001613,
          "durationTicks": 192,
          "midi": 74,
          "name": "D5",
          "ticks": 381120,
          "time": 291.69271499999996,
          "velocity": 0.968503937007874
        },
        {
          "duration": 0.13888500000001613,
          "durationTicks": 192,
          "midi": 79,
          "name": "G5",
          "ticks": 381120,
          "time": 291.69271499999996,
          "velocity": 0.968503937007874
        },
        {
          "duration": 0.1388849999999593,
          "durationTicks": 192,
          "midi": 74,
          "name": "D5",
          "ticks": 381312,
          "time": 291.8316,
          "velocity": 0.968503937007874
        },
        {
          "duration": 0.1388849999999593,
          "durationTicks": 192,
          "midi": 79,
          "name": "G5",
          "ticks": 381312,
          "time": 291.8316,
          "velocity": 0.968503937007874
        },
        {
          "duration": 0.13888500000001613,
          "durationTicks": 192,
          "midi": 74,
          "name": "D5",
          "ticks": 381504,
          "time": 291.97048499999994,
          "velocity": 0.968503937007874
        },
        {
          "duration": 0.13888500000001613,
          "durationTicks": 192,
          "midi": 79,
          "name": "G5",
          "ticks": 381504,
          "time": 291.97048499999994,
          "velocity": 0.968503937007874
        },
        {
          "duration": 0.27777000000003227,
          "durationTicks": 384,
          "midi": 76,
          "name": "E5",
          "ticks": 381696,
          "time": 292.10936999999996,
          "velocity": 0.968503937007874
        },
        {
          "duration": 0.27777000000003227,
          "durationTicks": 384,
          "midi": 79,
          "name": "G5",
          "ticks": 381696,
          "time": 292.10936999999996,
          "velocity": 0.968503937007874
        },
        {
          "duration": 0.13888500000001613,
          "durationTicks": 192,
          "midi": 74,
          "name": "D5",
          "ticks": 382656,
          "time": 292.803795,
          "velocity": 0.968503937007874
        },
        {
          "duration": 0.13888500000001613,
          "durationTicks": 192,
          "midi": 79,
          "name": "G5",
          "ticks": 382656,
          "time": 292.803795,
          "velocity": 0.968503937007874
        },
        {
          "duration": 0.1388849999999593,
          "durationTicks": 192,
          "midi": 74,
          "name": "D5",
          "ticks": 382848,
          "time": 292.94268,
          "velocity": 0.968503937007874
        },
        {
          "duration": 0.1388849999999593,
          "durationTicks": 192,
          "midi": 79,
          "name": "G5",
          "ticks": 382848,
          "time": 292.94268,
          "velocity": 0.968503937007874
        },
        {
          "duration": 0.13888500000001613,
          "durationTicks": 192,
          "midi": 74,
          "name": "D5",
          "ticks": 383040,
          "time": 293.08156499999996,
          "velocity": 0.968503937007874
        },
        {
          "duration": 0.13888500000001613,
          "durationTicks": 192,
          "midi": 79,
          "name": "G5",
          "ticks": 383040,
          "time": 293.08156499999996,
          "velocity": 0.968503937007874
        },
        {
          "duration": 0.2777699999999754,
          "durationTicks": 384,
          "midi": 76,
          "name": "E5",
          "ticks": 383232,
          "time": 293.22044999999997,
          "velocity": 0.968503937007874
        },
        {
          "duration": 0.2777699999999754,
          "durationTicks": 384,
          "midi": 79,
          "name": "G5",
          "ticks": 383232,
          "time": 293.22044999999997,
          "velocity": 0.968503937007874
        },
        {
          "duration": 0.1388849999999593,
          "durationTicks": 192,
          "midi": 74,
          "name": "D5",
          "ticks": 384192,
          "time": 293.914875,
          "velocity": 0.968503937007874
        },
        {
          "duration": 0.1388849999999593,
          "durationTicks": 192,
          "midi": 83,
          "name": "B5",
          "ticks": 384192,
          "time": 293.914875,
          "velocity": 0.968503937007874
        },
        {
          "duration": 0.13888500000001613,
          "durationTicks": 192,
          "midi": 74,
          "name": "D5",
          "ticks": 384384,
          "time": 294.05375999999995,
          "velocity": 0.968503937007874
        },
        {
          "duration": 0.13888500000001613,
          "durationTicks": 192,
          "midi": 83,
          "name": "B5",
          "ticks": 384384,
          "time": 294.05375999999995,
          "velocity": 0.968503937007874
        },
        {
          "duration": 0.13888500000001613,
          "durationTicks": 192,
          "midi": 74,
          "name": "D5",
          "ticks": 384576,
          "time": 294.19264499999997,
          "velocity": 0.968503937007874
        },
        {
          "duration": 0.13888500000001613,
          "durationTicks": 192,
          "midi": 83,
          "name": "B5",
          "ticks": 384576,
          "time": 294.19264499999997,
          "velocity": 0.968503937007874
        },
        {
          "duration": 0.1388849999999593,
          "durationTicks": 192,
          "midi": 76,
          "name": "E5",
          "ticks": 384768,
          "time": 294.33153,
          "velocity": 0.968503937007874
        },
        {
          "duration": 0.1388849999999593,
          "durationTicks": 192,
          "midi": 84,
          "name": "C6",
          "ticks": 384768,
          "time": 294.33153,
          "velocity": 0.968503937007874
        },
        {
          "duration": 0.13888500000001613,
          "durationTicks": 192,
          "midi": 72,
          "name": "C5",
          "ticks": 384960,
          "time": 294.47041499999995,
          "velocity": 0.968503937007874
        },
        {
          "duration": 0.13888500000001613,
          "durationTicks": 192,
          "midi": 84,
          "name": "C6",
          "ticks": 384960,
          "time": 294.47041499999995,
          "velocity": 0.968503937007874
        },
        {
          "duration": 0.13888500000001613,
          "durationTicks": 192,
          "midi": 72,
          "name": "C5",
          "ticks": 385152,
          "time": 294.60929999999996,
          "velocity": 0.968503937007874
        },
        {
          "duration": 0.13888500000001613,
          "durationTicks": 192,
          "midi": 84,
          "name": "C6",
          "ticks": 385152,
          "time": 294.60929999999996,
          "velocity": 0.968503937007874
        },
        {
          "duration": 0.13888500000001613,
          "durationTicks": 192,
          "midi": 72,
          "name": "C5",
          "ticks": 385344,
          "time": 294.748185,
          "velocity": 0.968503937007874
        },
        {
          "duration": 0.13888500000001613,
          "durationTicks": 192,
          "midi": 84,
          "name": "C6",
          "ticks": 385344,
          "time": 294.748185,
          "velocity": 0.968503937007874
        },
        {
          "duration": 0.694424999999967,
          "durationTicks": 960,
          "midi": 72,
          "name": "C5",
          "ticks": 385536,
          "time": 294.88707,
          "velocity": 0.968503937007874
        },
        {
          "duration": 0.694424999999967,
          "durationTicks": 960,
          "midi": 84,
          "name": "C6",
          "ticks": 385536,
          "time": 294.88707,
          "velocity": 0.968503937007874
        },
        {
          "duration": 0.13888500000001613,
          "durationTicks": 192,
          "midi": 72,
          "name": "C5",
          "ticks": 386496,
          "time": 295.58149499999996,
          "velocity": 0.968503937007874
        },
        {
          "duration": 0.13888500000001613,
          "durationTicks": 192,
          "midi": 84,
          "name": "C6",
          "ticks": 386496,
          "time": 295.58149499999996,
          "velocity": 0.968503937007874
        },
        {
          "duration": 0.13888500000001613,
          "durationTicks": 192,
          "midi": 72,
          "name": "C5",
          "ticks": 386688,
          "time": 295.72038,
          "velocity": 0.968503937007874
        },
        {
          "duration": 0.13888500000001613,
          "durationTicks": 192,
          "midi": 84,
          "name": "C6",
          "ticks": 386688,
          "time": 295.72038,
          "velocity": 0.968503937007874
        },
        {
          "duration": 0.1388849999999593,
          "durationTicks": 192,
          "midi": 72,
          "name": "C5",
          "ticks": 386880,
          "time": 295.859265,
          "velocity": 0.968503937007874
        },
        {
          "duration": 0.1388849999999593,
          "durationTicks": 192,
          "midi": 84,
          "name": "C6",
          "ticks": 386880,
          "time": 295.859265,
          "velocity": 0.968503937007874
        },
        {
          "duration": 0.6944250000000238,
          "durationTicks": 960,
          "midi": 72,
          "name": "C5",
          "ticks": 387072,
          "time": 295.99814999999995,
          "velocity": 0.968503937007874
        },
        {
          "duration": 0.6944250000000238,
          "durationTicks": 960,
          "midi": 84,
          "name": "C6",
          "ticks": 387072,
          "time": 295.99814999999995,
          "velocity": 0.968503937007874
        },
        {
          "duration": 0.13888500000001613,
          "durationTicks": 192,
          "midi": 72,
          "name": "C5",
          "ticks": 388032,
          "time": 296.692575,
          "velocity": 0.968503937007874
        },
        {
          "duration": 0.13888500000001613,
          "durationTicks": 192,
          "midi": 84,
          "name": "C6",
          "ticks": 388032,
          "time": 296.692575,
          "velocity": 0.968503937007874
        },
        {
          "duration": 0.1388849999999593,
          "durationTicks": 192,
          "midi": 72,
          "name": "C5",
          "ticks": 388224,
          "time": 296.83146,
          "velocity": 0.968503937007874
        },
        {
          "duration": 0.1388849999999593,
          "durationTicks": 192,
          "midi": 84,
          "name": "C6",
          "ticks": 388224,
          "time": 296.83146,
          "velocity": 0.968503937007874
        },
        {
          "duration": 0.13888500000001613,
          "durationTicks": 192,
          "midi": 72,
          "name": "C5",
          "ticks": 388416,
          "time": 296.97034499999995,
          "velocity": 0.968503937007874
        },
        {
          "duration": 0.13888500000001613,
          "durationTicks": 192,
          "midi": 84,
          "name": "C6",
          "ticks": 388416,
          "time": 296.97034499999995,
          "velocity": 0.968503937007874
        },
        {
          "duration": 0.6944250000000238,
          "durationTicks": 960,
          "midi": 72,
          "name": "C5",
          "ticks": 388608,
          "time": 297.10922999999997,
          "velocity": 0.968503937007874
        },
        {
          "duration": 0.6944250000000238,
          "durationTicks": 960,
          "midi": 84,
          "name": "C6",
          "ticks": 388608,
          "time": 297.10922999999997,
          "velocity": 0.968503937007874
        },
        {
          "duration": 0.1388849999999593,
          "durationTicks": 192,
          "midi": 72,
          "name": "C5",
          "ticks": 389568,
          "time": 297.803655,
          "velocity": 0.968503937007874
        },
        {
          "duration": 0.1388849999999593,
          "durationTicks": 192,
          "midi": 84,
          "name": "C6",
          "ticks": 389568,
          "time": 297.803655,
          "velocity": 0.968503937007874
        },
        {
          "duration": 0.13888500000001613,
          "durationTicks": 192,
          "midi": 72,
          "name": "C5",
          "ticks": 389760,
          "time": 297.94253999999995,
          "velocity": 0.968503937007874
        },
        {
          "duration": 0.13888500000001613,
          "durationTicks": 192,
          "midi": 84,
          "name": "C6",
          "ticks": 389760,
          "time": 297.94253999999995,
          "velocity": 0.968503937007874
        },
        {
          "duration": 0.13888500000001613,
          "durationTicks": 192,
          "midi": 72,
          "name": "C5",
          "ticks": 389952,
          "time": 298.08142499999997,
          "velocity": 0.968503937007874
        },
        {
          "duration": 0.13888500000001613,
          "durationTicks": 192,
          "midi": 84,
          "name": "C6",
          "ticks": 389952,
          "time": 298.08142499999997,
          "velocity": 0.968503937007874
        },
        {
          "duration": 0.5555400000000077,
          "durationTicks": 768,
          "midi": 72,
          "name": "C5",
          "ticks": 390144,
          "time": 298.22031,
          "velocity": 0.968503937007874
        },
        {
          "duration": 0.5555400000000077,
          "durationTicks": 768,
          "midi": 84,
          "name": "C6",
          "ticks": 390144,
          "time": 298.22031,
          "velocity": 0.968503937007874
        },
        {
          "duration": 2.222159999999974,
          "durationTicks": 3072,
          "midi": 80,
          "name": "G#5",
          "ticks": 390912,
          "time": 298.77585,
          "velocity": 0.968503937007874
        },
        {
          "duration": 2.222159999999974,
          "durationTicks": 3072,
          "midi": 85,
          "name": "C#6",
          "ticks": 390912,
          "time": 298.77585,
          "velocity": 0.968503937007874
        },
        {
          "duration": 0.2777699999999754,
          "durationTicks": 384,
          "midi": 80,
          "name": "G#5",
          "ticks": 393984,
          "time": 300.99800999999997,
          "velocity": 0.968503937007874
        },
        {
          "duration": 0.2777699999999754,
          "durationTicks": 384,
          "midi": 85,
          "name": "C#6",
          "ticks": 393984,
          "time": 300.99800999999997,
          "velocity": 0.968503937007874
        },
        {
          "duration": 0.13888500000001613,
          "durationTicks": 192,
          "midi": 84,
          "name": "C6",
          "ticks": 397248,
          "time": 303.35905499999996,
          "velocity": 0.968503937007874
        },
        {
          "duration": 0.13888500000001613,
          "durationTicks": 192,
          "midi": 87,
          "name": "D#6",
          "ticks": 397248,
          "time": 303.35905499999996,
          "velocity": 0.968503937007874
        },
        {
          "duration": 0.13888500000001613,
          "durationTicks": 192,
          "midi": 84,
          "name": "C6",
          "ticks": 397440,
          "time": 303.49793999999997,
          "velocity": 0.968503937007874
        },
        {
          "duration": 0.13888500000001613,
          "durationTicks": 192,
          "midi": 87,
          "name": "D#6",
          "ticks": 397440,
          "time": 303.49793999999997,
          "velocity": 0.968503937007874
        },
        {
          "duration": 0.1388849999999593,
          "durationTicks": 192,
          "midi": 84,
          "name": "C6",
          "ticks": 397632,
          "time": 303.636825,
          "velocity": 0.968503937007874
        },
        {
          "duration": 0.1388849999999593,
          "durationTicks": 192,
          "midi": 87,
          "name": "D#6",
          "ticks": 397632,
          "time": 303.636825,
          "velocity": 0.968503937007874
        },
        {
          "duration": 2.2221600000000308,
          "durationTicks": 3072,
          "midi": 84,
          "name": "C6",
          "ticks": 397824,
          "time": 303.77570999999995,
          "velocity": 0.968503937007874
        },
        {
          "duration": 2.2221600000000308,
          "durationTicks": 3072,
          "midi": 87,
          "name": "D#6",
          "ticks": 397824,
          "time": 303.77570999999995,
          "velocity": 0.968503937007874
        },
        {
          "duration": 0.2777699999999754,
          "durationTicks": 384,
          "midi": 84,
          "name": "C6",
          "ticks": 400896,
          "time": 305.99787,
          "velocity": 0.968503937007874
        },
        {
          "duration": 0.2777699999999754,
          "durationTicks": 384,
          "midi": 87,
          "name": "D#6",
          "ticks": 400896,
          "time": 305.99787,
          "velocity": 0.968503937007874
        },
        {
          "duration": 0.13888500000001613,
          "durationTicks": 192,
          "midi": 84,
          "name": "C6",
          "ticks": 401856,
          "time": 306.69229499999994,
          "velocity": 0.968503937007874
        },
        {
          "duration": 0.13888500000001613,
          "durationTicks": 192,
          "midi": 84,
          "name": "C6",
          "ticks": 401856,
          "time": 306.69229499999994,
          "velocity": 0.968503937007874
        },
        {
          "duration": 0.13888500000001613,
          "durationTicks": 192,
          "midi": 84,
          "name": "C6",
          "ticks": 402048,
          "time": 306.83117999999996,
          "velocity": 0.968503937007874
        },
        {
          "duration": 0.13888500000001613,
          "durationTicks": 192,
          "midi": 84,
          "name": "C6",
          "ticks": 402048,
          "time": 306.83117999999996,
          "velocity": 0.968503937007874
        },
        {
          "duration": 0.13888500000001613,
          "durationTicks": 192,
          "midi": 84,
          "name": "C6",
          "ticks": 402240,
          "time": 306.970065,
          "velocity": 0.968503937007874
        },
        {
          "duration": 0.13888500000001613,
          "durationTicks": 192,
          "midi": 84,
          "name": "C6",
          "ticks": 402240,
          "time": 306.970065,
          "velocity": 0.968503937007874
        },
        {
          "duration": 0.2777699999999754,
          "durationTicks": 384,
          "midi": 87,
          "name": "D#6",
          "ticks": 402432,
          "time": 307.10895,
          "velocity": 0.968503937007874
        },
        {
          "duration": 0.2777699999999754,
          "durationTicks": 384,
          "midi": 87,
          "name": "D#6",
          "ticks": 402432,
          "time": 307.10895,
          "velocity": 0.968503937007874
        },
        {
          "duration": 1.1110800000000154,
          "durationTicks": 1536,
          "midi": 83,
          "name": "B5",
          "ticks": 405504,
          "time": 309.33110999999997,
          "velocity": 0.905511811023622
        },
        {
          "duration": 1.1110800000000154,
          "durationTicks": 1536,
          "midi": 89,
          "name": "F6",
          "ticks": 405504,
          "time": 309.33110999999997,
          "velocity": 0.905511811023622
        },
        {
          "duration": 1.1110799999999585,
          "durationTicks": 1536,
          "midi": 83,
          "name": "B5",
          "ticks": 408576,
          "time": 311.55327,
          "velocity": 0.905511811023622
        },
        {
          "duration": 1.1110799999999585,
          "durationTicks": 1536,
          "midi": 89,
          "name": "F6",
          "ticks": 408576,
          "time": 311.55327,
          "velocity": 0.905511811023622
        },
        {
          "duration": 0.2777699999999754,
          "durationTicks": 384,
          "midi": 87,
          "name": "D#6",
          "ticks": 411648,
          "time": 313.77543,
          "velocity": 0.905511811023622
        },
        {
          "duration": 0.2777699999999754,
          "durationTicks": 384,
          "midi": 87,
          "name": "D#6",
          "ticks": 411648,
          "time": 313.77543,
          "velocity": 0.905511811023622
        },
        {
          "duration": 0.27777000000003227,
          "durationTicks": 384,
          "midi": 89,
          "name": "F6",
          "ticks": 412032,
          "time": 314.05319999999995,
          "velocity": 0.905511811023622
        },
        {
          "duration": 0.27777000000003227,
          "durationTicks": 384,
          "midi": 89,
          "name": "F6",
          "ticks": 412032,
          "time": 314.05319999999995,
          "velocity": 0.905511811023622
        },
        {
          "duration": 0.2777699999999754,
          "durationTicks": 384,
          "midi": 86,
          "name": "D6",
          "ticks": 412416,
          "time": 314.33097,
          "velocity": 0.905511811023622
        },
        {
          "duration": 0.2777699999999754,
          "durationTicks": 384,
          "midi": 86,
          "name": "D6",
          "ticks": 412416,
          "time": 314.33097,
          "velocity": 0.905511811023622
        },
        {
          "duration": 0.27777000000003227,
          "durationTicks": 384,
          "midi": 87,
          "name": "D#6",
          "ticks": 412800,
          "time": 314.60873999999995,
          "velocity": 0.905511811023622
        },
        {
          "duration": 0.27777000000003227,
          "durationTicks": 384,
          "midi": 87,
          "name": "D#6",
          "ticks": 412800,
          "time": 314.60873999999995,
          "velocity": 0.905511811023622
        },
        {
          "duration": 0.2777699999999754,
          "durationTicks": 384,
          "midi": 84,
          "name": "C6",
          "ticks": 413184,
          "time": 314.88651,
          "velocity": 0.905511811023622
        },
        {
          "duration": 0.2777699999999754,
          "durationTicks": 384,
          "midi": 84,
          "name": "C6",
          "ticks": 413184,
          "time": 314.88651,
          "velocity": 0.905511811023622
        },
        {
          "duration": 0.27777000000003227,
          "durationTicks": 384,
          "midi": 86,
          "name": "D6",
          "ticks": 413568,
          "time": 315.16427999999996,
          "velocity": 0.905511811023622
        },
        {
          "duration": 0.27777000000003227,
          "durationTicks": 384,
          "midi": 86,
          "name": "D6",
          "ticks": 413568,
          "time": 315.16427999999996,
          "velocity": 0.905511811023622
        },
        {
          "duration": 0.2777699999999754,
          "durationTicks": 384,
          "midi": 82,
          "name": "A#5",
          "ticks": 413952,
          "time": 315.44205,
          "velocity": 0.905511811023622
        },
        {
          "duration": 0.2777699999999754,
          "durationTicks": 384,
          "midi": 82,
          "name": "A#5",
          "ticks": 413952,
          "time": 315.44205,
          "velocity": 0.905511811023622
        },
        {
          "duration": 0.2777699999999754,
          "durationTicks": 384,
          "midi": 84,
          "name": "C6",
          "ticks": 414336,
          "time": 315.71981999999997,
          "velocity": 0.905511811023622
        },
        {
          "duration": 0.2777699999999754,
          "durationTicks": 384,
          "midi": 84,
          "name": "C6",
          "ticks": 414336,
          "time": 315.71981999999997,
          "velocity": 0.905511811023622
        },
        {
          "duration": 0.27777000000003227,
          "durationTicks": 384,
          "midi": 80,
          "name": "G#5",
          "ticks": 414720,
          "time": 315.99758999999995,
          "velocity": 0.905511811023622
        },
        {
          "duration": 0.27777000000003227,
          "durationTicks": 384,
          "midi": 80,
          "name": "G#5",
          "ticks": 414720,
          "time": 315.99758999999995,
          "velocity": 0.905511811023622
        },
        {
          "duration": 0.2777699999999754,
          "durationTicks": 384,
          "midi": 82,
          "name": "A#5",
          "ticks": 415104,
          "time": 316.27536,
          "velocity": 0.905511811023622
        },
        {
          "duration": 0.2777699999999754,
          "durationTicks": 384,
          "midi": 82,
          "name": "A#5",
          "ticks": 415104,
          "time": 316.27536,
          "velocity": 0.905511811023622
        },
        {
          "duration": 0.27777000000003227,
          "durationTicks": 384,
          "midi": 79,
          "name": "G5",
          "ticks": 415488,
          "time": 316.55312999999995,
          "velocity": 0.905511811023622
        },
        {
          "duration": 0.27777000000003227,
          "durationTicks": 384,
          "midi": 79,
          "name": "G5",
          "ticks": 415488,
          "time": 316.55312999999995,
          "velocity": 0.905511811023622
        },
        {
          "duration": 0.2777699999999754,
          "durationTicks": 384,
          "midi": 80,
          "name": "G#5",
          "ticks": 415872,
          "time": 316.8309,
          "velocity": 0.905511811023622
        },
        {
          "duration": 0.2777699999999754,
          "durationTicks": 384,
          "midi": 80,
          "name": "G#5",
          "ticks": 415872,
          "time": 316.8309,
          "velocity": 0.905511811023622
        },
        {
          "duration": 0.27777000000003227,
          "durationTicks": 384,
          "midi": 77,
          "name": "F5",
          "ticks": 416256,
          "time": 317.10866999999996,
          "velocity": 0.905511811023622
        },
        {
          "duration": 0.27777000000003227,
          "durationTicks": 384,
          "midi": 77,
          "name": "F5",
          "ticks": 416256,
          "time": 317.10866999999996,
          "velocity": 0.905511811023622
        },
        {
          "duration": 0.2777699999999754,
          "durationTicks": 384,
          "midi": 79,
          "name": "G5",
          "ticks": 416640,
          "time": 317.38644,
          "velocity": 0.905511811023622
        },
        {
          "duration": 0.2777699999999754,
          "durationTicks": 384,
          "midi": 79,
          "name": "G5",
          "ticks": 416640,
          "time": 317.38644,
          "velocity": 0.905511811023622
        },
        {
          "duration": 0.2777699999999754,
          "durationTicks": 384,
          "midi": 79,
          "name": "G5",
          "ticks": 417024,
          "time": 317.66420999999997,
          "velocity": 0.905511811023622
        },
        {
          "duration": 0.2777699999999754,
          "durationTicks": 384,
          "midi": 79,
          "name": "G5",
          "ticks": 417024,
          "time": 317.66420999999997,
          "velocity": 0.905511811023622
        },
        {
          "duration": 0.27777000000003227,
          "durationTicks": 384,
          "midi": 79,
          "name": "G5",
          "ticks": 417408,
          "time": 317.94197999999994,
          "velocity": 0.905511811023622
        },
        {
          "duration": 0.27777000000003227,
          "durationTicks": 384,
          "midi": 79,
          "name": "G5",
          "ticks": 417408,
          "time": 317.94197999999994,
          "velocity": 0.905511811023622
        },
        {
          "duration": 0.2777699999999754,
          "durationTicks": 384,
          "midi": 79,
          "name": "G5",
          "ticks": 417792,
          "time": 318.21975,
          "velocity": 0.905511811023622
        },
        {
          "duration": 0.2777699999999754,
          "durationTicks": 384,
          "midi": 79,
          "name": "G5",
          "ticks": 417792,
          "time": 318.21975,
          "velocity": 0.905511811023622
        },
        {
          "duration": 0.27777000000003227,
          "durationTicks": 384,
          "midi": 79,
          "name": "G5",
          "ticks": 418176,
          "time": 318.49751999999995,
          "velocity": 0.905511811023622
        },
        {
          "duration": 0.27777000000003227,
          "durationTicks": 384,
          "midi": 79,
          "name": "G5",
          "ticks": 418176,
          "time": 318.49751999999995,
          "velocity": 0.905511811023622
        },
        {
          "duration": 0.2777699999999754,
          "durationTicks": 384,
          "midi": 79,
          "name": "G5",
          "ticks": 418560,
          "time": 318.77529,
          "velocity": 0.905511811023622
        },
        {
          "duration": 0.2777699999999754,
          "durationTicks": 384,
          "midi": 79,
          "name": "G5",
          "ticks": 418560,
          "time": 318.77529,
          "velocity": 0.905511811023622
        },
        {
          "duration": 0.27777000000003227,
          "durationTicks": 384,
          "midi": 84,
          "name": "C6",
          "ticks": 418944,
          "time": 319.05305999999996,
          "velocity": 0.905511811023622
        },
        {
          "duration": 0.27777000000003227,
          "durationTicks": 384,
          "midi": 84,
          "name": "C6",
          "ticks": 418944,
          "time": 319.05305999999996,
          "velocity": 0.905511811023622
        },
        {
          "duration": 0.2777699999999754,
          "durationTicks": 384,
          "midi": 84,
          "name": "C6",
          "ticks": 419328,
          "time": 319.33083,
          "velocity": 0.905511811023622
        },
        {
          "duration": 0.2777699999999754,
          "durationTicks": 384,
          "midi": 84,
          "name": "C6",
          "ticks": 419328,
          "time": 319.33083,
          "velocity": 0.905511811023622
        },
        {
          "duration": 0.2777699999999754,
          "durationTicks": 384,
          "midi": 84,
          "name": "C6",
          "ticks": 419712,
          "time": 319.60859999999997,
          "velocity": 0.905511811023622
        },
        {
          "duration": 0.2777699999999754,
          "durationTicks": 384,
          "midi": 84,
          "name": "C6",
          "ticks": 419712,
          "time": 319.60859999999997,
          "velocity": 0.905511811023622
        },
        {
          "duration": 0.27777000000003227,
          "durationTicks": 384,
          "midi": 84,
          "name": "C6",
          "ticks": 420096,
          "time": 319.88636999999994,
          "velocity": 0.905511811023622
        },
        {
          "duration": 0.27777000000003227,
          "durationTicks": 384,
          "midi": 84,
          "name": "C6",
          "ticks": 420096,
          "time": 319.88636999999994,
          "velocity": 0.905511811023622
        },
        {
          "duration": 0.2777699999999754,
          "durationTicks": 384,
          "midi": 83,
          "name": "B5",
          "ticks": 420480,
          "time": 320.16414,
          "velocity": 0.905511811023622
        },
        {
          "duration": 0.2777699999999754,
          "durationTicks": 384,
          "midi": 89,
          "name": "F6",
          "ticks": 420480,
          "time": 320.16414,
          "velocity": 0.905511811023622
        },
        {
          "duration": 0.27777000000003227,
          "durationTicks": 384,
          "midi": 84,
          "name": "C6",
          "ticks": 420864,
          "time": 320.44190999999995,
          "velocity": 0.905511811023622
        },
        {
          "duration": 0.27777000000003227,
          "durationTicks": 384,
          "midi": 89,
          "name": "F6",
          "ticks": 420864,
          "time": 320.44190999999995,
          "velocity": 0.905511811023622
        },
        {
          "duration": 0.2777699999999754,
          "durationTicks": 384,
          "midi": 83,
          "name": "B5",
          "ticks": 421248,
          "time": 320.71968,
          "velocity": 0.905511811023622
        },
        {
          "duration": 0.2777699999999754,
          "durationTicks": 384,
          "midi": 89,
          "name": "F6",
          "ticks": 421248,
          "time": 320.71968,
          "velocity": 0.905511811023622
        },
        {
          "duration": 0.27777000000003227,
          "durationTicks": 384,
          "midi": 84,
          "name": "C6",
          "ticks": 421632,
          "time": 320.99744999999996,
          "velocity": 0.905511811023622
        },
        {
          "duration": 0.27777000000003227,
          "durationTicks": 384,
          "midi": 89,
          "name": "F6",
          "ticks": 421632,
          "time": 320.99744999999996,
          "velocity": 0.905511811023622
        },
        {
          "duration": 0.2777699999999754,
          "durationTicks": 384,
          "midi": 86,
          "name": "D6",
          "ticks": 422016,
          "time": 321.27522,
          "velocity": 0.905511811023622
        },
        {
          "duration": 0.2777699999999754,
          "durationTicks": 384,
          "midi": 89,
          "name": "F6",
          "ticks": 422016,
          "time": 321.27522,
          "velocity": 0.905511811023622
        },
        {
          "duration": 1.1110800000000154,
          "durationTicks": 1536,
          "midi": 84,
          "name": "C6",
          "ticks": 422400,
          "time": 321.55298999999997,
          "velocity": 0.905511811023622
        },
        {
          "duration": 1.1110800000000154,
          "durationTicks": 1536,
          "midi": 87,
          "name": "D#6",
          "ticks": 422400,
          "time": 321.55298999999997,
          "velocity": 0.905511811023622
        },
        {
          "duration": 1.1110799999999585,
          "durationTicks": 1536,
          "midi": 84,
          "name": "C6",
          "ticks": 423936,
          "time": 322.66407,
          "velocity": 0.905511811023622
        },
        {
          "duration": 1.1110799999999585,
          "durationTicks": 1536,
          "midi": 89,
          "name": "F6",
          "ticks": 423936,
          "time": 322.66407,
          "velocity": 0.905511811023622
        },
        {
          "duration": 1.1110800000000154,
          "durationTicks": 1536,
          "midi": 84,
          "name": "C6",
          "ticks": 425472,
          "time": 323.77514999999994,
          "velocity": 0.905511811023622
        },
        {
          "duration": 1.1110800000000154,
          "durationTicks": 1536,
          "midi": 91,
          "name": "G6",
          "ticks": 425472,
          "time": 323.77514999999994,
          "velocity": 0.905511811023622
        },
        {
          "duration": 1.1110800000000154,
          "durationTicks": 1536,
          "midi": 84,
          "name": "C6",
          "ticks": 427008,
          "time": 324.88622999999995,
          "velocity": 0.905511811023622
        },
        {
          "duration": 1.1110800000000154,
          "durationTicks": 1536,
          "midi": 89,
          "name": "F6",
          "ticks": 427008,
          "time": 324.88622999999995,
          "velocity": 0.905511811023622
        },
        {
          "duration": 0.5555400000000077,
          "durationTicks": 768,
          "midi": 86,
          "name": "D6",
          "ticks": 428544,
          "time": 325.99730999999997,
          "velocity": 0.905511811023622
        },
        {
          "duration": 0.5555400000000077,
          "durationTicks": 768,
          "midi": 89,
          "name": "F6",
          "ticks": 428544,
          "time": 325.99730999999997,
          "velocity": 0.905511811023622
        },
        {
          "duration": 0.5555400000000077,
          "durationTicks": 768,
          "midi": 86,
          "name": "D6",
          "ticks": 429312,
          "time": 326.55285,
          "velocity": 0.905511811023622
        },
        {
          "duration": 0.5555400000000077,
          "durationTicks": 768,
          "midi": 91,
          "name": "G6",
          "ticks": 429312,
          "time": 326.55285,
          "velocity": 0.905511811023622
        },
        {
          "duration": 0.2777699999999754,
          "durationTicks": 384,
          "midi": 87,
          "name": "D#6",
          "ticks": 430080,
          "time": 327.10839,
          "velocity": 0.905511811023622
        },
        {
          "duration": 0.2777699999999754,
          "durationTicks": 384,
          "midi": 91,
          "name": "G6",
          "ticks": 430080,
          "time": 327.10839,
          "velocity": 0.905511811023622
        },
        {
          "duration": 0.2777699999999754,
          "durationTicks": 384,
          "midi": 87,
          "name": "D#6",
          "ticks": 430848,
          "time": 327.66393,
          "velocity": 0.905511811023622
        },
        {
          "duration": 0.2777699999999754,
          "durationTicks": 384,
          "midi": 92,
          "name": "G#6",
          "ticks": 430848,
          "time": 327.66393,
          "velocity": 0.905511811023622
        },
        {
          "duration": 0.2777699999999754,
          "durationTicks": 384,
          "midi": 86,
          "name": "D6",
          "ticks": 431616,
          "time": 328.21947,
          "velocity": 0.905511811023622
        },
        {
          "duration": 0.2777699999999754,
          "durationTicks": 384,
          "midi": 92,
          "name": "G#6",
          "ticks": 431616,
          "time": 328.21947,
          "velocity": 0.905511811023622
        },
        {
          "duration": 0.27777000000003227,
          "durationTicks": 384,
          "midi": 86,
          "name": "D6",
          "ticks": 432384,
          "time": 328.77500999999995,
          "velocity": 0.905511811023622
        },
        {
          "duration": 0.27777000000003227,
          "durationTicks": 384,
          "midi": 92,
          "name": "G#6",
          "ticks": 432384,
          "time": 328.77500999999995,
          "velocity": 0.905511811023622
        },
        {
          "duration": 0.27777000000003227,
          "durationTicks": 384,
          "midi": 86,
          "name": "D6",
          "ticks": 433152,
          "time": 329.33054999999996,
          "velocity": 0.905511811023622
        },
        {
          "duration": 0.27777000000003227,
          "durationTicks": 384,
          "midi": 91,
          "name": "G6",
          "ticks": 433152,
          "time": 329.33054999999996,
          "velocity": 0.905511811023622
        },
        {
          "duration": 0.27777000000003227,
          "durationTicks": 384,
          "midi": 86,
          "name": "D6",
          "ticks": 433920,
          "time": 329.88608999999997,
          "velocity": 0.905511811023622
        },
        {
          "duration": 0.27777000000003227,
          "durationTicks": 384,
          "midi": 91,
          "name": "G6",
          "ticks": 433920,
          "time": 329.88608999999997,
          "velocity": 0.905511811023622
        },
        {
          "duration": 0.5555400000000077,
          "durationTicks": 768,
          "midi": 84,
          "name": "C6",
          "ticks": 434688,
          "time": 330.44163,
          "velocity": 0.968503937007874
        },
        {
          "duration": 0.5555400000000077,
          "durationTicks": 768,
          "midi": 84,
          "name": "C6",
          "ticks": 434688,
          "time": 330.44163,
          "velocity": 0.968503937007874
        },
        {
          "duration": 0.2777699999999754,
          "durationTicks": 384,
          "midi": 86,
          "name": "D6",
          "ticks": 435456,
          "time": 330.99717,
          "velocity": 0.968503937007874
        },
        {
          "duration": 0.2777699999999754,
          "durationTicks": 384,
          "midi": 86,
          "name": "D6",
          "ticks": 435456,
          "time": 330.99717,
          "velocity": 0.968503937007874
        },
        {
          "duration": 0.27777000000003227,
          "durationTicks": 384,
          "midi": 87,
          "name": "D#6",
          "ticks": 435840,
          "time": 331.27493999999996,
          "velocity": 0.968503937007874
        },
        {
          "duration": 0.27777000000003227,
          "durationTicks": 384,
          "midi": 87,
          "name": "D#6",
          "ticks": 435840,
          "time": 331.27493999999996,
          "velocity": 0.968503937007874
        },
        {
          "duration": 0.2777699999999754,
          "durationTicks": 384,
          "midi": 89,
          "name": "F6",
          "ticks": 436224,
          "time": 331.55271,
          "velocity": 0.968503937007874
        },
        {
          "duration": 0.2777699999999754,
          "durationTicks": 384,
          "midi": 89,
          "name": "F6",
          "ticks": 436224,
          "time": 331.55271,
          "velocity": 0.968503937007874
        },
        {
          "duration": 0.27777000000003227,
          "durationTicks": 384,
          "midi": 86,
          "name": "D6",
          "ticks": 436608,
          "time": 331.83047999999997,
          "velocity": 0.968503937007874
        },
        {
          "duration": 0.27777000000003227,
          "durationTicks": 384,
          "midi": 86,
          "name": "D6",
          "ticks": 436608,
          "time": 331.83047999999997,
          "velocity": 0.968503937007874
        },
        {
          "duration": 0.27777000000003227,
          "durationTicks": 384,
          "midi": 77,
          "name": "F5",
          "ticks": 438528,
          "time": 333.21932999999996,
          "velocity": 0.968503937007874
        },
        {
          "duration": 0.27777000000003227,
          "durationTicks": 384,
          "midi": 89,
          "name": "F6",
          "ticks": 438528,
          "time": 333.21932999999996,
          "velocity": 0.968503937007874
        },
        {
          "duration": 0.2777699999999754,
          "durationTicks": 384,
          "midi": 79,
          "name": "G5",
          "ticks": 438912,
          "time": 333.4971,
          "velocity": 0.968503937007874
        },
        {
          "duration": 0.2777699999999754,
          "durationTicks": 384,
          "midi": 91,
          "name": "G6",
          "ticks": 438912,
          "time": 333.4971,
          "velocity": 0.968503937007874
        },
        {
          "duration": 0.27777000000003227,
          "durationTicks": 384,
          "midi": 80,
          "name": "G#5",
          "ticks": 439296,
          "time": 333.77486999999996,
          "velocity": 0.968503937007874
        },
        {
          "duration": 0.27777000000003227,
          "durationTicks": 384,
          "midi": 92,
          "name": "G#6",
          "ticks": 439296,
          "time": 333.77486999999996,
          "velocity": 0.968503937007874
        },
        {
          "duration": 0.2777699999999754,
          "durationTicks": 384,
          "midi": 77,
          "name": "F5",
          "ticks": 439680,
          "time": 334.05264,
          "velocity": 0.968503937007874
        },
        {
          "duration": 0.2777699999999754,
          "durationTicks": 384,
          "midi": 89,
          "name": "F6",
          "ticks": 439680,
          "time": 334.05264,
          "velocity": 0.968503937007874
        },
        {
          "duration": 0.2777699999999754,
          "durationTicks": 384,
          "midi": 81,
          "name": "A5",
          "ticks": 441600,
          "time": 335.44149,
          "velocity": 0.968503937007874
        },
        {
          "duration": 0.2777699999999754,
          "durationTicks": 384,
          "midi": 84,
          "name": "C6",
          "ticks": 441600,
          "time": 335.44149,
          "velocity": 0.968503937007874
        },
        {
          "duration": 0.27777000000003227,
          "durationTicks": 384,
          "midi": 83,
          "name": "B5",
          "ticks": 441984,
          "time": 335.71925999999996,
          "velocity": 0.968503937007874
        },
        {
          "duration": 0.27777000000003227,
          "durationTicks": 384,
          "midi": 86,
          "name": "D6",
          "ticks": 441984,
          "time": 335.71925999999996,
          "velocity": 0.968503937007874
        },
        {
          "duration": 0.2777699999999754,
          "durationTicks": 384,
          "midi": 84,
          "name": "C6",
          "ticks": 442368,
          "time": 335.99703,
          "velocity": 0.968503937007874
        },
        {
          "duration": 0.2777699999999754,
          "durationTicks": 384,
          "midi": 87,
          "name": "D#6",
          "ticks": 442368,
          "time": 335.99703,
          "velocity": 0.968503937007874
        },
        {
          "duration": 0.2777699999999754,
          "durationTicks": 384,
          "midi": 79,
          "name": "G5",
          "ticks": 442752,
          "time": 336.27479999999997,
          "velocity": 0.968503937007874
        },
        {
          "duration": 0.2777699999999754,
          "durationTicks": 384,
          "midi": 84,
          "name": "C6",
          "ticks": 442752,
          "time": 336.27479999999997,
          "velocity": 0.968503937007874
        },
        {
          "duration": 0.27777000000003227,
          "durationTicks": 384,
          "midi": 81,
          "name": "A5",
          "ticks": 444672,
          "time": 337.66364999999996,
          "velocity": 0.968503937007874
        },
        {
          "duration": 0.27777000000003227,
          "durationTicks": 384,
          "midi": 84,
          "name": "C6",
          "ticks": 444672,
          "time": 337.66364999999996,
          "velocity": 0.968503937007874
        },
        {
          "duration": 0.2777699999999754,
          "durationTicks": 384,
          "midi": 83,
          "name": "B5",
          "ticks": 445056,
          "time": 337.94142,
          "velocity": 0.968503937007874
        },
        {
          "duration": 0.2777699999999754,
          "durationTicks": 384,
          "midi": 86,
          "name": "D6",
          "ticks": 445056,
          "time": 337.94142,
          "velocity": 0.968503937007874
        },
        {
          "duration": 0.2777699999999754,
          "durationTicks": 384,
          "midi": 84,
          "name": "C6",
          "ticks": 445440,
          "time": 338.21918999999997,
          "velocity": 0.968503937007874
        },
        {
          "duration": 0.2777699999999754,
          "durationTicks": 384,
          "midi": 87,
          "name": "D#6",
          "ticks": 445440,
          "time": 338.21918999999997,
          "velocity": 0.968503937007874
        },
        {
          "duration": 0.27777000000003227,
          "durationTicks": 384,
          "midi": 82,
          "name": "A#5",
          "ticks": 445824,
          "time": 338.49695999999994,
          "velocity": 0.968503937007874
        },
        {
          "duration": 0.27777000000003227,
          "durationTicks": 384,
          "midi": 86,
          "name": "D6",
          "ticks": 445824,
          "time": 338.49695999999994,
          "velocity": 0.968503937007874
        },
        {
          "duration": 0.2777699999999754,
          "durationTicks": 384,
          "midi": 80,
          "name": "G#5",
          "ticks": 446208,
          "time": 338.77473,
          "velocity": 0.968503937007874
        },
        {
          "duration": 0.2777699999999754,
          "durationTicks": 384,
          "midi": 84,
          "name": "C6",
          "ticks": 446208,
          "time": 338.77473,
          "velocity": 0.968503937007874
        },
        {
          "duration": 0.27777000000003227,
          "durationTicks": 384,
          "midi": 79,
          "name": "G5",
          "ticks": 446592,
          "time": 339.05249999999995,
          "velocity": 0.968503937007874
        },
        {
          "duration": 0.27777000000003227,
          "durationTicks": 384,
          "midi": 82,
          "name": "A#5",
          "ticks": 446592,
          "time": 339.05249999999995,
          "velocity": 0.968503937007874
        },
        {
          "duration": 0.2777699999999754,
          "durationTicks": 384,
          "midi": 77,
          "name": "F5",
          "ticks": 446976,
          "time": 339.33027,
          "velocity": 0.968503937007874
        },
        {
          "duration": 0.2777699999999754,
          "durationTicks": 384,
          "midi": 80,
          "name": "G#5",
          "ticks": 446976,
          "time": 339.33027,
          "velocity": 0.968503937007874
        },
        {
          "duration": 0.27777000000003227,
          "durationTicks": 384,
          "midi": 75,
          "name": "D#5",
          "ticks": 447360,
          "time": 339.60803999999996,
          "velocity": 0.968503937007874
        },
        {
          "duration": 0.27777000000003227,
          "durationTicks": 384,
          "midi": 79,
          "name": "G5",
          "ticks": 447360,
          "time": 339.60803999999996,
          "velocity": 0.968503937007874
        },
        {
          "duration": 0.27777000000003227,
          "durationTicks": 384,
          "midi": 77,
          "name": "F5",
          "ticks": 448512,
          "time": 340.44134999999994,
          "velocity": 0.968503937007874
        },
        {
          "duration": 0.27777000000003227,
          "durationTicks": 384,
          "midi": 80,
          "name": "G#5",
          "ticks": 448512,
          "time": 340.44134999999994,
          "velocity": 0.968503937007874
        },
        {
          "duration": 0.2777699999999754,
          "durationTicks": 384,
          "midi": 75,
          "name": "D#5",
          "ticks": 448896,
          "time": 340.71912,
          "velocity": 0.968503937007874
        },
        {
          "duration": 0.2777699999999754,
          "durationTicks": 384,
          "midi": 79,
          "name": "G5",
          "ticks": 448896,
          "time": 340.71912,
          "velocity": 0.968503937007874
        },
        {
          "duration": 0.27777000000003227,
          "durationTicks": 384,
          "midi": 89,
          "name": "F6",
          "ticks": 449280,
          "time": 340.99688999999995,
          "velocity": 0.968503937007874
        },
        {
          "duration": 0.27777000000003227,
          "durationTicks": 384,
          "midi": 92,
          "name": "G#6",
          "ticks": 449280,
          "time": 340.99688999999995,
          "velocity": 0.968503937007874
        },
        {
          "duration": 0.2777699999999754,
          "durationTicks": 384,
          "midi": 87,
          "name": "D#6",
          "ticks": 449664,
          "time": 341.27466,
          "velocity": 0.968503937007874
        },
        {
          "duration": 0.2777699999999754,
          "durationTicks": 384,
          "midi": 91,
          "name": "G6",
          "ticks": 449664,
          "time": 341.27466,
          "velocity": 0.968503937007874
        },
        {
          "duration": 0.2777699999999754,
          "durationTicks": 384,
          "midi": 84,
          "name": "C6",
          "ticks": 450432,
          "time": 341.8302,
          "velocity": 0.968503937007874
        },
        {
          "duration": 0.2777699999999754,
          "durationTicks": 384,
          "midi": 91,
          "name": "G6",
          "ticks": 450432,
          "time": 341.8302,
          "velocity": 0.968503937007874
        },
        {
          "duration": 0.27777000000003227,
          "durationTicks": 384,
          "midi": 84,
          "name": "C6",
          "ticks": 451200,
          "time": 342.38573999999994,
          "velocity": 0.968503937007874
        },
        {
          "duration": 0.27777000000003227,
          "durationTicks": 384,
          "midi": 91,
          "name": "G6",
          "ticks": 451200,
          "time": 342.38573999999994,
          "velocity": 0.968503937007874
        },
        {
          "duration": 0.27777000000003227,
          "durationTicks": 384,
          "midi": 80,
          "name": "G#5",
          "ticks": 453888,
          "time": 344.33012999999994,
          "velocity": 0.968503937007874
        },
        {
          "duration": 0.27777000000003227,
          "durationTicks": 384,
          "midi": 80,
          "name": "G#5",
          "ticks": 453888,
          "time": 344.33012999999994,
          "velocity": 0.968503937007874
        },
        {
          "duration": 0.27777000000003227,
          "durationTicks": 384,
          "midi": 79,
          "name": "G5",
          "ticks": 454272,
          "time": 344.6079,
          "velocity": 0.968503937007874
        },
        {
          "duration": 0.27777000000003227,
          "durationTicks": 384,
          "midi": 79,
          "name": "G5",
          "ticks": 454272,
          "time": 344.6079,
          "velocity": 0.968503937007874
        },
        {
          "duration": 0.27777000000003227,
          "durationTicks": 384,
          "midi": 89,
          "name": "F6",
          "ticks": 455424,
          "time": 345.44120999999996,
          "velocity": 0.968503937007874
        },
        {
          "duration": 0.27777000000003227,
          "durationTicks": 384,
          "midi": 92,
          "name": "G#6",
          "ticks": 455424,
          "time": 345.44120999999996,
          "velocity": 0.968503937007874
        },
        {
          "duration": 0.2777699999999754,
          "durationTicks": 384,
          "midi": 87,
          "name": "D#6",
          "ticks": 455808,
          "time": 345.71898,
          "velocity": 0.968503937007874
        },
        {
          "duration": 0.2777699999999754,
          "durationTicks": 384,
          "midi": 91,
          "name": "G6",
          "ticks": 455808,
          "time": 345.71898,
          "velocity": 0.968503937007874
        },
        {
          "duration": 0.27777000000003227,
          "durationTicks": 384,
          "midi": 87,
          "name": "D#6",
          "ticks": 456576,
          "time": 346.27451999999994,
          "velocity": 0.968503937007874
        },
        {
          "duration": 0.27777000000003227,
          "durationTicks": 384,
          "midi": 91,
          "name": "G6",
          "ticks": 456576,
          "time": 346.27451999999994,
          "velocity": 0.968503937007874
        },
        {
          "duration": 0.2777699999999754,
          "durationTicks": 384,
          "midi": 86,
          "name": "D6",
          "ticks": 457344,
          "time": 346.83006,
          "velocity": 0.968503937007874
        },
        {
          "duration": 0.2777699999999754,
          "durationTicks": 384,
          "midi": 91,
          "name": "G6",
          "ticks": 457344,
          "time": 346.83006,
          "velocity": 0.968503937007874
        },
        {
          "duration": 0.2777699999999754,
          "durationTicks": 384,
          "midi": 84,
          "name": "C6",
          "ticks": 457728,
          "time": 347.10783,
          "velocity": 0.968503937007874
        },
        {
          "duration": 0.2777699999999754,
          "durationTicks": 384,
          "midi": 84,
          "name": "C6",
          "ticks": 457728,
          "time": 347.10783,
          "velocity": 0.968503937007874
        },
        {
          "duration": 0.13888500000001613,
          "durationTicks": 192,
          "midi": 86,
          "name": "D6",
          "ticks": 458688,
          "time": 347.80225499999995,
          "velocity": 0.968503937007874
        },
        {
          "duration": 0.13888500000001613,
          "durationTicks": 192,
          "midi": 91,
          "name": "G6",
          "ticks": 458688,
          "time": 347.80225499999995,
          "velocity": 0.968503937007874
        },
        {
          "duration": 0.13888500000001613,
          "durationTicks": 192,
          "midi": 86,
          "name": "D6",
          "ticks": 458880,
          "time": 347.94113999999996,
          "velocity": 0.968503937007874
        },
        {
          "duration": 0.13888500000001613,
          "durationTicks": 192,
          "midi": 91,
          "name": "G6",
          "ticks": 458880,
          "time": 347.94113999999996,
          "velocity": 0.968503937007874
        },
        {
          "duration": 0.1388849999999593,
          "durationTicks": 192,
          "midi": 86,
          "name": "D6",
          "ticks": 459072,
          "time": 348.080025,
          "velocity": 0.968503937007874
        },
        {
          "duration": 0.1388849999999593,
          "durationTicks": 192,
          "midi": 91,
          "name": "G6",
          "ticks": 459072,
          "time": 348.080025,
          "velocity": 0.968503937007874
        },
        {
          "duration": 0.83331000000004,
          "durationTicks": 1152,
          "midi": 86,
          "name": "D6",
          "ticks": 459264,
          "time": 348.21890999999994,
          "velocity": 0.968503937007874
        },
        {
          "duration": 2.2221600000000308,
          "durationTicks": 3072,
          "midi": 91,
          "name": "G6",
          "ticks": 459264,
          "time": 348.21890999999994,
          "velocity": 0.968503937007874
        },
        {
          "duration": 0.2777699999999754,
          "durationTicks": 384,
          "midi": 87,
          "name": "D#6",
          "ticks": 460416,
          "time": 349.05222,
          "velocity": 0.968503937007874
        },
        {
          "duration": 0.27777000000003227,
          "durationTicks": 384,
          "midi": 89,
          "name": "F6",
          "ticks": 460800,
          "time": 349.32998999999995,
          "velocity": 0.968503937007874
        },
        {
          "duration": 0.2777699999999754,
          "durationTicks": 384,
          "midi": 86,
          "name": "D6",
          "ticks": 461184,
          "time": 349.60776,
          "velocity": 0.968503937007874
        },
        {
          "duration": 0.27777000000003227,
          "durationTicks": 384,
          "midi": 87,
          "name": "D#6",
          "ticks": 461568,
          "time": 349.88552999999996,
          "velocity": 0.968503937007874
        },
        {
          "duration": 0.2777699999999754,
          "durationTicks": 384,
          "midi": 89,
          "name": "F6",
          "ticks": 461952,
          "time": 350.1633,
          "velocity": 0.968503937007874
        },
        {
          "duration": 0.27777000000003227,
          "durationTicks": 384,
          "midi": 87,
          "name": "D#6",
          "ticks": 462336,
          "time": 350.44106999999997,
          "velocity": 0.968503937007874
        },
        {
          "duration": 0.27777000000003227,
          "durationTicks": 384,
          "midi": 91,
          "name": "G6",
          "ticks": 462336,
          "time": 350.44106999999997,
          "velocity": 0.968503937007874
        },
        {
          "duration": 0.1388849999999593,
          "durationTicks": 192,
          "midi": 79,
          "name": "G5",
          "ticks": 463296,
          "time": 351.135495,
          "velocity": 0.968503937007874
        },
        {
          "duration": 0.1388849999999593,
          "durationTicks": 192,
          "midi": 91,
          "name": "G6",
          "ticks": 463296,
          "time": 351.135495,
          "velocity": 0.968503937007874
        },
        {
          "duration": 0.13888500000001613,
          "durationTicks": 192,
          "midi": 79,
          "name": "G5",
          "ticks": 463488,
          "time": 351.27437999999995,
          "velocity": 0.968503937007874
        },
        {
          "duration": 0.13888500000001613,
          "durationTicks": 192,
          "midi": 91,
          "name": "G6",
          "ticks": 463488,
          "time": 351.27437999999995,
          "velocity": 0.968503937007874
        },
        {
          "duration": 0.13888500000001613,
          "durationTicks": 192,
          "midi": 79,
          "name": "G5",
          "ticks": 463680,
          "time": 351.41326499999997,
          "velocity": 0.968503937007874
        },
        {
          "duration": 0.13888500000001613,
          "durationTicks": 192,
          "midi": 91,
          "name": "G6",
          "ticks": 463680,
          "time": 351.41326499999997,
          "velocity": 0.968503937007874
        },
        {
          "duration": 0.1388849999999593,
          "durationTicks": 192,
          "midi": 79,
          "name": "G5",
          "ticks": 463872,
          "time": 351.55215,
          "velocity": 0.968503937007874
        },
        {
          "duration": 0.1388849999999593,
          "durationTicks": 192,
          "midi": 91,
          "name": "G6",
          "ticks": 463872,
          "time": 351.55215,
          "velocity": 0.968503937007874
        },
        {
          "duration": 0.13888500000001613,
          "durationTicks": 192,
          "midi": 79,
          "name": "G5",
          "ticks": 464064,
          "time": 351.69103499999994,
          "velocity": 0.968503937007874
        },
        {
          "duration": 0.13888500000001613,
          "durationTicks": 192,
          "midi": 91,
          "name": "G6",
          "ticks": 464064,
          "time": 351.69103499999994,
          "velocity": 0.968503937007874
        },
        {
          "duration": 0.13888500000001613,
          "durationTicks": 192,
          "midi": 79,
          "name": "G5",
          "ticks": 464256,
          "time": 351.82991999999996,
          "velocity": 0.968503937007874
        },
        {
          "duration": 0.13888500000001613,
          "durationTicks": 192,
          "midi": 91,
          "name": "G6",
          "ticks": 464256,
          "time": 351.82991999999996,
          "velocity": 0.968503937007874
        },
        {
          "duration": 0.13888500000001613,
          "durationTicks": 192,
          "midi": 79,
          "name": "G5",
          "ticks": 464448,
          "time": 351.968805,
          "velocity": 0.968503937007874
        },
        {
          "duration": 0.13888500000001613,
          "durationTicks": 192,
          "midi": 91,
          "name": "G6",
          "ticks": 464448,
          "time": 351.968805,
          "velocity": 0.968503937007874
        },
        {
          "duration": 0.13888500000001613,
          "durationTicks": 192,
          "midi": 79,
          "name": "G5",
          "ticks": 464640,
          "time": 352.10769,
          "velocity": 0.968503937007874
        },
        {
          "duration": 0.13888500000001613,
          "durationTicks": 192,
          "midi": 91,
          "name": "G6",
          "ticks": 464640,
          "time": 352.10769,
          "velocity": 0.968503937007874
        },
        {
          "duration": 0.1388849999999593,
          "durationTicks": 192,
          "midi": 79,
          "name": "G5",
          "ticks": 464832,
          "time": 352.246575,
          "velocity": 0.968503937007874
        },
        {
          "duration": 0.1388849999999593,
          "durationTicks": 192,
          "midi": 91,
          "name": "G6",
          "ticks": 464832,
          "time": 352.246575,
          "velocity": 0.968503937007874
        },
        {
          "duration": 0.13888500000001613,
          "durationTicks": 192,
          "midi": 79,
          "name": "G5",
          "ticks": 465024,
          "time": 352.38545999999997,
          "velocity": 0.968503937007874
        },
        {
          "duration": 0.13888500000001613,
          "durationTicks": 192,
          "midi": 91,
          "name": "G6",
          "ticks": 465024,
          "time": 352.38545999999997,
          "velocity": 0.968503937007874
        },
        {
          "duration": 0.13888500000001613,
          "durationTicks": 192,
          "midi": 79,
          "name": "G5",
          "ticks": 465216,
          "time": 352.524345,
          "velocity": 0.968503937007874
        },
        {
          "duration": 0.13888500000001613,
          "durationTicks": 192,
          "midi": 91,
          "name": "G6",
          "ticks": 465216,
          "time": 352.524345,
          "velocity": 0.968503937007874
        },
        {
          "duration": 1.0908999999999764,
          "durationTicks": 768,
          "midi": 87,
          "name": "D#6",
          "ticks": 465408,
          "time": 352.66323,
          "velocity": 0.968503937007874
        },
        {
          "duration": 1.0908999999999764,
          "durationTicks": 768,
          "midi": 91,
          "name": "G6",
          "ticks": 465408,
          "time": 352.66323,
          "velocity": 0.968503937007874
        },
        {
          "duration": 0.1388849999999593,
          "durationTicks": 192,
          "midi": 89,
          "name": "F6",
          "ticks": 466368,
          "time": 353.893015,
          "velocity": 0.968503937007874
        },
        {
          "duration": 0.1388849999999593,
          "durationTicks": 192,
          "midi": 91,
          "name": "G6",
          "ticks": 466368,
          "time": 353.893015,
          "velocity": 0.968503937007874
        },
        {
          "duration": 0.13888500000001613,
          "durationTicks": 192,
          "midi": 89,
          "name": "F6",
          "ticks": 466560,
          "time": 354.03189999999995,
          "velocity": 0.968503937007874
        },
        {
          "duration": 0.13888500000001613,
          "durationTicks": 192,
          "midi": 91,
          "name": "G6",
          "ticks": 466560,
          "time": 354.03189999999995,
          "velocity": 0.968503937007874
        },
        {
          "duration": 0.13888500000001613,
          "durationTicks": 192,
          "midi": 89,
          "name": "F6",
          "ticks": 466752,
          "time": 354.17078499999997,
          "velocity": 0.968503937007874
        },
        {
          "duration": 0.13888500000001613,
          "durationTicks": 192,
          "midi": 91,
          "name": "G6",
          "ticks": 466752,
          "time": 354.17078499999997,
          "velocity": 0.968503937007874
        },
        {
          "duration": 1.7555399999999963,
          "durationTicks": 1536,
          "midi": 89,
          "name": "F6",
          "ticks": 466944,
          "time": 354.30967,
          "velocity": 0.968503937007874
        },
        {
          "duration": 1.7555399999999963,
          "durationTicks": 1536,
          "midi": 91,
          "name": "G6",
          "ticks": 466944,
          "time": 354.30967,
          "velocity": 0.968503937007874
        },
        {
          "duration": 0.1415049999999951,
          "durationTicks": 192,
          "midi": 83,
          "name": "B5",
          "ticks": 474816,
          "time": 360.734875,
          "velocity": 0.968503937007874
        },
        {
          "duration": 0.1415049999999951,
          "durationTicks": 192,
          "midi": 86,
          "name": "D6",
          "ticks": 474816,
          "time": 360.734875,
          "velocity": 0.968503937007874
        },
        {
          "duration": 0.1415049999999951,
          "durationTicks": 192,
          "midi": 83,
          "name": "B5",
          "ticks": 475008,
          "time": 360.87638,
          "velocity": 0.968503937007874
        },
        {
          "duration": 0.1415049999999951,
          "durationTicks": 192,
          "midi": 86,
          "name": "D6",
          "ticks": 475008,
          "time": 360.87638,
          "velocity": 0.968503937007874
        },
        {
          "duration": 0.1415049999999951,
          "durationTicks": 192,
          "midi": 83,
          "name": "B5",
          "ticks": 475200,
          "time": 361.017885,
          "velocity": 0.968503937007874
        },
        {
          "duration": 0.1415049999999951,
          "durationTicks": 192,
          "midi": 86,
          "name": "D6",
          "ticks": 475200,
          "time": 361.017885,
          "velocity": 0.968503937007874
        },
        {
          "duration": 0.2830099999999902,
          "durationTicks": 384,
          "midi": 84,
          "name": "C6",
          "ticks": 475392,
          "time": 361.15939,
          "velocity": 0.968503937007874
        },
        {
          "duration": 0.2830099999999902,
          "durationTicks": 384,
          "midi": 87,
          "name": "D#6",
          "ticks": 475392,
          "time": 361.15939,
          "velocity": 0.968503937007874
        },
        {
          "duration": 0.1415049999999951,
          "durationTicks": 192,
          "midi": 83,
          "name": "B5",
          "ticks": 476352,
          "time": 361.866915,
          "velocity": 0.968503937007874
        },
        {
          "duration": 0.1415049999999951,
          "durationTicks": 192,
          "midi": 86,
          "name": "D6",
          "ticks": 476352,
          "time": 361.866915,
          "velocity": 0.968503937007874
        },
        {
          "duration": 0.1415049999999951,
          "durationTicks": 192,
          "midi": 83,
          "name": "B5",
          "ticks": 476544,
          "time": 362.00842,
          "velocity": 0.968503937007874
        },
        {
          "duration": 0.1415049999999951,
          "durationTicks": 192,
          "midi": 86,
          "name": "D6",
          "ticks": 476544,
          "time": 362.00842,
          "velocity": 0.968503937007874
        },
        {
          "duration": 0.1415049999999951,
          "durationTicks": 192,
          "midi": 83,
          "name": "B5",
          "ticks": 476736,
          "time": 362.149925,
          "velocity": 0.968503937007874
        },
        {
          "duration": 0.1415049999999951,
          "durationTicks": 192,
          "midi": 86,
          "name": "D6",
          "ticks": 476736,
          "time": 362.149925,
          "velocity": 0.968503937007874
        },
        {
          "duration": 0.2830099999999902,
          "durationTicks": 384,
          "midi": 84,
          "name": "C6",
          "ticks": 476928,
          "time": 362.29143,
          "velocity": 0.968503937007874
        },
        {
          "duration": 0.2830099999999902,
          "durationTicks": 384,
          "midi": 87,
          "name": "D#6",
          "ticks": 476928,
          "time": 362.29143,
          "velocity": 0.968503937007874
        },
        {
          "duration": 0.1415049999999951,
          "durationTicks": 192,
          "midi": 83,
          "name": "B5",
          "ticks": 477888,
          "time": 362.99895499999997,
          "velocity": 0.968503937007874
        },
        {
          "duration": 0.1415049999999951,
          "durationTicks": 192,
          "midi": 86,
          "name": "D6",
          "ticks": 477888,
          "time": 362.99895499999997,
          "velocity": 0.968503937007874
        },
        {
          "duration": 0.1415049999999951,
          "durationTicks": 192,
          "midi": 83,
          "name": "B5",
          "ticks": 478080,
          "time": 363.14045999999996,
          "velocity": 0.968503937007874
        },
        {
          "duration": 0.1415049999999951,
          "durationTicks": 192,
          "midi": 86,
          "name": "D6",
          "ticks": 478080,
          "time": 363.14045999999996,
          "velocity": 0.968503937007874
        },
        {
          "duration": 0.1415049999999951,
          "durationTicks": 192,
          "midi": 83,
          "name": "B5",
          "ticks": 478272,
          "time": 363.28196499999996,
          "velocity": 0.968503937007874
        },
        {
          "duration": 0.1415049999999951,
          "durationTicks": 192,
          "midi": 86,
          "name": "D6",
          "ticks": 478272,
          "time": 363.28196499999996,
          "velocity": 0.968503937007874
        },
        {
          "duration": 0.28301000000004706,
          "durationTicks": 384,
          "midi": 84,
          "name": "C6",
          "ticks": 478464,
          "time": 363.42346999999995,
          "velocity": 0.968503937007874
        },
        {
          "duration": 0.28301000000004706,
          "durationTicks": 384,
          "midi": 87,
          "name": "D#6",
          "ticks": 478464,
          "time": 363.42346999999995,
          "velocity": 0.968503937007874
        },
        {
          "duration": 0.2830099999999902,
          "durationTicks": 384,
          "midi": 86,
          "name": "D6",
          "ticks": 478848,
          "time": 363.70648,
          "velocity": 0.968503937007874
        },
        {
          "duration": 0.2830099999999902,
          "durationTicks": 384,
          "midi": 91,
          "name": "G6",
          "ticks": 478848,
          "time": 363.70648,
          "velocity": 0.968503937007874
        },
        {
          "duration": 0.2830099999999902,
          "durationTicks": 384,
          "midi": 87,
          "name": "D#6",
          "ticks": 479232,
          "time": 363.98949,
          "velocity": 0.968503937007874
        },
        {
          "duration": 0.2830099999999902,
          "durationTicks": 384,
          "midi": 91,
          "name": "G6",
          "ticks": 479232,
          "time": 363.98949,
          "velocity": 0.968503937007874
        },
        {
          "duration": 0.2830099999999902,
          "durationTicks": 384,
          "midi": 86,
          "name": "D6",
          "ticks": 479616,
          "time": 364.2725,
          "velocity": 0.968503937007874
        },
        {
          "duration": 0.2830099999999902,
          "durationTicks": 384,
          "midi": 91,
          "name": "G6",
          "ticks": 479616,
          "time": 364.2725,
          "velocity": 0.968503937007874
        },
        {
          "duration": 0.2830099999999902,
          "durationTicks": 384,
          "midi": 87,
          "name": "D#6",
          "ticks": 480000,
          "time": 364.55550999999997,
          "velocity": 0.968503937007874
        },
        {
          "duration": 0.2830099999999902,
          "durationTicks": 384,
          "midi": 91,
          "name": "G6",
          "ticks": 480000,
          "time": 364.55550999999997,
          "velocity": 0.968503937007874
        },
        {
          "duration": 0.28301000000004706,
          "durationTicks": 384,
          "midi": 86,
          "name": "D6",
          "ticks": 480384,
          "time": 364.83851999999996,
          "velocity": 0.968503937007874
        },
        {
          "duration": 0.28301000000004706,
          "durationTicks": 384,
          "midi": 91,
          "name": "G6",
          "ticks": 480384,
          "time": 364.83851999999996,
          "velocity": 0.968503937007874
        },
        {
          "duration": 0.2830099999999902,
          "durationTicks": 384,
          "midi": 87,
          "name": "D#6",
          "ticks": 480768,
          "time": 365.12153,
          "velocity": 0.968503937007874
        },
        {
          "duration": 0.2830099999999902,
          "durationTicks": 384,
          "midi": 91,
          "name": "G6",
          "ticks": 480768,
          "time": 365.12153,
          "velocity": 0.968503937007874
        },
        {
          "duration": 0.2830099999999902,
          "durationTicks": 384,
          "midi": 86,
          "name": "D6",
          "ticks": 481152,
          "time": 365.40454,
          "velocity": 0.968503937007874
        },
        {
          "duration": 0.2830099999999902,
          "durationTicks": 384,
          "midi": 91,
          "name": "G6",
          "ticks": 481152,
          "time": 365.40454,
          "velocity": 0.968503937007874
        },
        {
          "duration": 0.2830099999999902,
          "durationTicks": 384,
          "midi": 87,
          "name": "D#6",
          "ticks": 481536,
          "time": 365.68755,
          "velocity": 0.968503937007874
        },
        {
          "duration": 0.2830099999999902,
          "durationTicks": 384,
          "midi": 91,
          "name": "G6",
          "ticks": 481536,
          "time": 365.68755,
          "velocity": 0.968503937007874
        },
        {
          "duration": 0.2830099999999902,
          "durationTicks": 384,
          "midi": 79,
          "name": "G5",
          "ticks": 482304,
          "time": 366.25356999999997,
          "velocity": 0.968503937007874
        },
        {
          "duration": 0.2830099999999902,
          "durationTicks": 384,
          "midi": 83,
          "name": "B5",
          "ticks": 482304,
          "time": 366.25356999999997,
          "velocity": 0.968503937007874
        },
        {
          "duration": 0.2830099999999902,
          "durationTicks": 384,
          "midi": 79,
          "name": "G5",
          "ticks": 483072,
          "time": 366.81959,
          "velocity": 0.968503937007874
        },
        {
          "duration": 0.2830099999999902,
          "durationTicks": 384,
          "midi": 84,
          "name": "C6",
          "ticks": 483072,
          "time": 366.81959,
          "velocity": 0.968503937007874
        }
      ],
      "endOfTrackTicks": 484608
    },
    {
      "channel": 1,
      "controlChanges": {},
      "pitchBends": [],
      "instrument": {
        "family": "reed",
        "number": 68,
        "name": "oboe"
      },
      "name": "OBOE",
      "notes": [
        {
          "duration": 0.1442300000000003,
          "durationTicks": 192,
          "midi": 62,
          "name": "D4",
          "ticks": 13248,
          "time": 11.06727,
          "velocity": 0.7165354330708661
        },
        {
          "duration": 0.1442300000000003,
          "durationTicks": 192,
          "midi": 67,
          "name": "G4",
          "ticks": 13248,
          "time": 11.06727,
          "velocity": 0.7165354330708661
        },
        {
          "duration": 0.14422999999999853,
          "durationTicks": 192,
          "midi": 62,
          "name": "D4",
          "ticks": 13440,
          "time": 11.211500000000001,
          "velocity": 0.7952755905511811
        },
        {
          "duration": 0.14422999999999853,
          "durationTicks": 192,
          "midi": 67,
          "name": "G4",
          "ticks": 13440,
          "time": 11.211500000000001,
          "velocity": 0.7952755905511811
        },
        {
          "duration": 0.1442300000000003,
          "durationTicks": 192,
          "midi": 62,
          "name": "D4",
          "ticks": 13632,
          "time": 11.35573,
          "velocity": 0.8582677165354331
        },
        {
          "duration": 0.1442300000000003,
          "durationTicks": 192,
          "midi": 65,
          "name": "F4",
          "ticks": 13632,
          "time": 11.35573,
          "velocity": 0.8582677165354331
        },
        {
          "duration": 0.28845999999999883,
          "durationTicks": 384,
          "midi": 60,
          "name": "C4",
          "ticks": 13824,
          "time": 11.49996,
          "velocity": 0.905511811023622
        },
        {
          "duration": 0.28845999999999883,
          "durationTicks": 384,
          "midi": 63,
          "name": "D#4",
          "ticks": 13824,
          "time": 11.49996,
          "velocity": 0.905511811023622
        },
        {
          "duration": 0.2884600000000006,
          "durationTicks": 384,
          "midi": 60,
          "name": "C4",
          "ticks": 14592,
          "time": 12.07688,
          "velocity": 0.905511811023622
        },
        {
          "duration": 0.2884600000000006,
          "durationTicks": 384,
          "midi": 66,
          "name": "F#4",
          "ticks": 14592,
          "time": 12.07688,
          "velocity": 0.905511811023622
        },
        {
          "duration": 0.28845999999999883,
          "durationTicks": 384,
          "midi": 59,
          "name": "B3",
          "ticks": 15360,
          "time": 12.6538,
          "velocity": 0.905511811023622
        },
        {
          "duration": 0.28845999999999883,
          "durationTicks": 384,
          "midi": 67,
          "name": "G4",
          "ticks": 15360,
          "time": 12.6538,
          "velocity": 0.905511811023622
        },
        {
          "duration": 0.14285499999999907,
          "durationTicks": 192,
          "midi": 68,
          "name": "G#4",
          "ticks": 16320,
          "time": 14.751775,
          "velocity": 0.968503937007874
        },
        {
          "duration": 0.14285499999999907,
          "durationTicks": 192,
          "midi": 68,
          "name": "G#4",
          "ticks": 16320,
          "time": 14.751775,
          "velocity": 0.968503937007874
        },
        {
          "duration": 0.14285500000000084,
          "durationTicks": 192,
          "midi": 68,
          "name": "G#4",
          "ticks": 16512,
          "time": 14.89463,
          "velocity": 0.968503937007874
        },
        {
          "duration": 0.14285500000000084,
          "durationTicks": 192,
          "midi": 68,
          "name": "G#4",
          "ticks": 16512,
          "time": 14.89463,
          "velocity": 0.968503937007874
        },
        {
          "duration": 0.14285499999999907,
          "durationTicks": 192,
          "midi": 68,
          "name": "G#4",
          "ticks": 16704,
          "time": 15.037485,
          "velocity": 0.968503937007874
        },
        {
          "duration": 0.14285499999999907,
          "durationTicks": 192,
          "midi": 68,
          "name": "G#4",
          "ticks": 16704,
          "time": 15.037485,
          "velocity": 0.968503937007874
        },
        {
          "duration": 1.9047399999999985,
          "durationTicks": 1536,
          "midi": 65,
          "name": "F4",
          "ticks": 16896,
          "time": 15.18034,
          "velocity": 0.968503937007874
        },
        {
          "duration": 1.9047399999999985,
          "durationTicks": 1536,
          "midi": 65,
          "name": "F4",
          "ticks": 16896,
          "time": 15.18034,
          "velocity": 0.968503937007874
        },
        {
          "duration": 0.14285500000000084,
          "durationTicks": 192,
          "midi": 65,
          "name": "F4",
          "ticks": 24000,
          "time": 21.227874999999997,
          "velocity": 0.7165354330708661
        },
        {
          "duration": 0.14285500000000084,
          "durationTicks": 192,
          "midi": 65,
          "name": "F4",
          "ticks": 24000,
          "time": 21.227874999999997,
          "velocity": 0.7165354330708661
        },
        {
          "duration": 0.14285500000000084,
          "durationTicks": 192,
          "midi": 65,
          "name": "F4",
          "ticks": 24192,
          "time": 21.37073,
          "velocity": 0.7165354330708661
        },
        {
          "duration": 0.14285500000000084,
          "durationTicks": 192,
          "midi": 65,
          "name": "F4",
          "ticks": 24192,
          "time": 21.37073,
          "velocity": 0.7165354330708661
        },
        {
          "duration": 0.1428549999999973,
          "durationTicks": 192,
          "midi": 65,
          "name": "F4",
          "ticks": 24384,
          "time": 21.513585,
          "velocity": 0.7165354330708661
        },
        {
          "duration": 0.1428549999999973,
          "durationTicks": 192,
          "midi": 65,
          "name": "F4",
          "ticks": 24384,
          "time": 21.513585,
          "velocity": 0.7165354330708661
        },
        {
          "duration": 0.2857100000000017,
          "durationTicks": 384,
          "midi": 63,
          "name": "D#4",
          "ticks": 24576,
          "time": 21.656439999999996,
          "velocity": 0.7165354330708661
        },
        {
          "duration": 0.2857100000000017,
          "durationTicks": 384,
          "midi": 63,
          "name": "D#4",
          "ticks": 24576,
          "time": 21.656439999999996,
          "velocity": 0.7165354330708661
        },
        {
          "duration": 0.8490299999999991,
          "durationTicks": 1152,
          "midi": 63,
          "name": "D#4",
          "ticks": 26880,
          "time": 23.3707,
          "velocity": 0.7165354330708661
        },
        {
          "duration": 0.8490299999999991,
          "durationTicks": 1152,
          "midi": 67,
          "name": "G4",
          "ticks": 26880,
          "time": 23.3707,
          "velocity": 0.7165354330708661
        },
        {
          "duration": 0.28301000000000087,
          "durationTicks": 384,
          "midi": 65,
          "name": "F4",
          "ticks": 28416,
          "time": 24.50274,
          "velocity": 0.7165354330708661
        },
        {
          "duration": 0.28301000000000087,
          "durationTicks": 384,
          "midi": 68,
          "name": "G#4",
          "ticks": 28416,
          "time": 24.50274,
          "velocity": 0.7165354330708661
        },
        {
          "duration": 0.28301000000000087,
          "durationTicks": 384,
          "midi": 64,
          "name": "E4",
          "ticks": 29184,
          "time": 25.068759999999997,
          "velocity": 0.7165354330708661
        },
        {
          "duration": 0.28301000000000087,
          "durationTicks": 384,
          "midi": 67,
          "name": "G4",
          "ticks": 29184,
          "time": 25.068759999999997,
          "velocity": 0.7165354330708661
        },
        {
          "duration": 0.28037000000000134,
          "durationTicks": 384,
          "midi": 65,
          "name": "F4",
          "ticks": 29952,
          "time": 25.63478,
          "velocity": 0.7165354330708661
        },
        {
          "duration": 0.28037000000000134,
          "durationTicks": 384,
          "midi": 68,
          "name": "G#4",
          "ticks": 29952,
          "time": 25.63478,
          "velocity": 0.7165354330708661
        },
        {
          "duration": 0.28037000000000134,
          "durationTicks": 384,
          "midi": 67,
          "name": "G4",
          "ticks": 30720,
          "time": 26.19552,
          "velocity": 0.7165354330708661
        },
        {
          "duration": 0.28037000000000134,
          "durationTicks": 384,
          "midi": 70,
          "name": "A#4",
          "ticks": 30720,
          "time": 26.19552,
          "velocity": 0.7165354330708661
        },
        {
          "duration": 0.28037000000000134,
          "durationTicks": 384,
          "midi": 65,
          "name": "F4",
          "ticks": 31488,
          "time": 26.756259999999997,
          "velocity": 0.7165354330708661
        },
        {
          "duration": 0.28037000000000134,
          "durationTicks": 384,
          "midi": 68,
          "name": "G#4",
          "ticks": 31488,
          "time": 26.756259999999997,
          "velocity": 0.7165354330708661
        },
        {
          "duration": 0.2803699999999978,
          "durationTicks": 384,
          "midi": 65,
          "name": "F4",
          "ticks": 32256,
          "time": 27.317,
          "velocity": 0.7165354330708661
        },
        {
          "duration": 0.2803699999999978,
          "durationTicks": 384,
          "midi": 68,
          "name": "G#4",
          "ticks": 32256,
          "time": 27.317,
          "velocity": 0.7165354330708661
        },
        {
          "duration": 2.222159999999999,
          "durationTicks": 3072,
          "midi": 63,
          "name": "D#4",
          "ticks": 33024,
          "time": 27.87774,
          "velocity": 0.905511811023622
        },
        {
          "duration": 2.222159999999999,
          "durationTicks": 3072,
          "midi": 67,
          "name": "G4",
          "ticks": 33024,
          "time": 27.87774,
          "velocity": 0.905511811023622
        },
        {
          "duration": 1.9443899999999985,
          "durationTicks": 2688,
          "midi": 65,
          "name": "F4",
          "ticks": 36096,
          "time": 30.099899999999998,
          "velocity": 0.905511811023622
        },
        {
          "duration": 1.9443899999999985,
          "durationTicks": 2688,
          "midi": 67,
          "name": "G4",
          "ticks": 36096,
          "time": 30.099899999999998,
          "velocity": 0.905511811023622
        },
        {
          "duration": 0.27777000000000385,
          "durationTicks": 384,
          "midi": 63,
          "name": "D#4",
          "ticks": 38784,
          "time": 32.04429,
          "velocity": 0.905511811023622
        },
        {
          "duration": 0.27777000000000385,
          "durationTicks": 384,
          "midi": 67,
          "name": "G4",
          "ticks": 38784,
          "time": 32.04429,
          "velocity": 0.905511811023622
        },
        {
          "duration": 2.2221599999999953,
          "durationTicks": 3072,
          "midi": 63,
          "name": "D#4",
          "ticks": 39168,
          "time": 32.32206,
          "velocity": 0.968503937007874
        },
        {
          "duration": 2.2221599999999953,
          "durationTicks": 3072,
          "midi": 66,
          "name": "F#4",
          "ticks": 39168,
          "time": 32.32206,
          "velocity": 0.968503937007874
        },
        {
          "duration": 0.27777000000000385,
          "durationTicks": 384,
          "midi": 63,
          "name": "D#4",
          "ticks": 42240,
          "time": 34.544219999999996,
          "velocity": 0.968503937007874
        },
        {
          "duration": 0.27777000000000385,
          "durationTicks": 384,
          "midi": 66,
          "name": "F#4",
          "ticks": 42240,
          "time": 34.544219999999996,
          "velocity": 0.968503937007874
        },
        {
          "duration": 0.27777000000000385,
          "durationTicks": 384,
          "midi": 58,
          "name": "A#3",
          "ticks": 43776,
          "time": 35.6553,
          "velocity": 0.968503937007874
        },
        {
          "duration": 0.27777000000000385,
          "durationTicks": 384,
          "midi": 65,
          "name": "F4",
          "ticks": 43776,
          "time": 35.6553,
          "velocity": 0.968503937007874
        },
        {
          "duration": 1.1110800000000012,
          "durationTicks": 1536,
          "midi": 72,
          "name": "C5",
          "ticks": 63744,
          "time": 50.33368,
          "velocity": 0.7165354330708661
        },
        {
          "duration": 1.1110800000000012,
          "durationTicks": 1536,
          "midi": 72,
          "name": "C5",
          "ticks": 63744,
          "time": 50.33368,
          "velocity": 0.7165354330708661
        },
        {
          "duration": 1.1110800000000012,
          "durationTicks": 1536,
          "midi": 70,
          "name": "A#4",
          "ticks": 65280,
          "time": 51.44476,
          "velocity": 0.7165354330708661
        },
        {
          "duration": 1.1110800000000012,
          "durationTicks": 1536,
          "midi": 70,
          "name": "A#4",
          "ticks": 65280,
          "time": 51.44476,
          "velocity": 0.7165354330708661
        },
        {
          "duration": 2.499929999999999,
          "durationTicks": 3456,
          "midi": 69,
          "name": "A4",
          "ticks": 66816,
          "time": 52.55584,
          "velocity": 0.7165354330708661
        },
        {
          "duration": 2.499929999999999,
          "durationTicks": 3456,
          "midi": 69,
          "name": "A4",
          "ticks": 66816,
          "time": 52.55584,
          "velocity": 0.7165354330708661
        },
        {
          "duration": 0.27776999999999674,
          "durationTicks": 384,
          "midi": 69,
          "name": "A4",
          "ticks": 70272,
          "time": 55.05577,
          "velocity": 0.8582677165354331
        },
        {
          "duration": 0.27776999999999674,
          "durationTicks": 384,
          "midi": 69,
          "name": "A4",
          "ticks": 70272,
          "time": 55.05577,
          "velocity": 0.8582677165354331
        },
        {
          "duration": 0.27777000000000385,
          "durationTicks": 384,
          "midi": 69,
          "name": "A4",
          "ticks": 70656,
          "time": 55.33354,
          "velocity": 0.905511811023622
        },
        {
          "duration": 0.27777000000000385,
          "durationTicks": 384,
          "midi": 69,
          "name": "A4",
          "ticks": 70656,
          "time": 55.33354,
          "velocity": 0.905511811023622
        },
        {
          "duration": 0.27776999999999674,
          "durationTicks": 384,
          "midi": 69,
          "name": "A4",
          "ticks": 71040,
          "time": 55.61131,
          "velocity": 0.905511811023622
        },
        {
          "duration": 0.27776999999999674,
          "durationTicks": 384,
          "midi": 69,
          "name": "A4",
          "ticks": 71040,
          "time": 55.61131,
          "velocity": 0.905511811023622
        },
        {
          "duration": 0.8333100000000044,
          "durationTicks": 1152,
          "midi": 65,
          "name": "F4",
          "ticks": 71424,
          "time": 55.88908,
          "velocity": 0.968503937007874
        },
        {
          "duration": 0.8333100000000044,
          "durationTicks": 1152,
          "midi": 68,
          "name": "G#4",
          "ticks": 71424,
          "time": 55.88908,
          "velocity": 0.968503937007874
        },
        {
          "duration": 0.27776999999999674,
          "durationTicks": 384,
          "midi": 65,
          "name": "F4",
          "ticks": 72576,
          "time": 56.722390000000004,
          "velocity": 0.968503937007874
        },
        {
          "duration": 0.27776999999999674,
          "durationTicks": 384,
          "midi": 68,
          "name": "G#4",
          "ticks": 72576,
          "time": 56.722390000000004,
          "velocity": 0.968503937007874
        },
        {
          "duration": 0.27776999999999674,
          "durationTicks": 384,
          "midi": 63,
          "name": "D#4",
          "ticks": 72960,
          "time": 57.00016,
          "velocity": 0.968503937007874
        },
        {
          "duration": 0.27776999999999674,
          "durationTicks": 384,
          "midi": 67,
          "name": "G4",
          "ticks": 72960,
          "time": 57.00016,
          "velocity": 0.968503937007874
        },
        {
          "duration": 0.27777000000000385,
          "durationTicks": 384,
          "midi": 68,
          "name": "G#4",
          "ticks": 73728,
          "time": 57.5557,
          "velocity": 0.968503937007874
        },
        {
          "duration": 0.27777000000000385,
          "durationTicks": 384,
          "midi": 68,
          "name": "G#4",
          "ticks": 73728,
          "time": 57.5557,
          "velocity": 0.968503937007874
        },
        {
          "duration": 0.27776999999999674,
          "durationTicks": 384,
          "midi": 63,
          "name": "D#4",
          "ticks": 74496,
          "time": 58.11124,
          "velocity": 0.968503937007874
        },
        {
          "duration": 0.27776999999999674,
          "durationTicks": 384,
          "midi": 70,
          "name": "A#4",
          "ticks": 74496,
          "time": 58.11124,
          "velocity": 0.968503937007874
        },
        {
          "duration": 0.27776999999999674,
          "durationTicks": 384,
          "midi": 63,
          "name": "D#4",
          "ticks": 75264,
          "time": 58.66678,
          "velocity": 0.968503937007874
        },
        {
          "duration": 0.27776999999999674,
          "durationTicks": 384,
          "midi": 72,
          "name": "C5",
          "ticks": 75264,
          "time": 58.66678,
          "velocity": 0.968503937007874
        },
        {
          "duration": 0.27776999999999674,
          "durationTicks": 384,
          "midi": 63,
          "name": "D#4",
          "ticks": 76032,
          "time": 59.22232,
          "velocity": 0.968503937007874
        },
        {
          "duration": 0.27776999999999674,
          "durationTicks": 384,
          "midi": 67,
          "name": "G4",
          "ticks": 76032,
          "time": 59.22232,
          "velocity": 0.968503937007874
        },
        {
          "duration": 0.27776999999999674,
          "durationTicks": 384,
          "midi": 62,
          "name": "D4",
          "ticks": 76800,
          "time": 59.777860000000004,
          "velocity": 0.968503937007874
        },
        {
          "duration": 0.27776999999999674,
          "durationTicks": 384,
          "midi": 65,
          "name": "F4",
          "ticks": 76800,
          "time": 59.777860000000004,
          "velocity": 0.968503937007874
        },
        {
          "duration": 1.1110800000000012,
          "durationTicks": 1536,
          "midi": 65,
          "name": "F4",
          "ticks": 77568,
          "time": 60.3334,
          "velocity": 0.968503937007874
        },
        {
          "duration": 1.1110800000000012,
          "durationTicks": 1536,
          "midi": 68,
          "name": "G#4",
          "ticks": 77568,
          "time": 60.3334,
          "velocity": 0.968503937007874
        },
        {
          "duration": 0.27777000000000385,
          "durationTicks": 384,
          "midi": 63,
          "name": "D#4",
          "ticks": 79104,
          "time": 61.44448,
          "velocity": 0.968503937007874
        },
        {
          "duration": 0.27777000000000385,
          "durationTicks": 384,
          "midi": 67,
          "name": "G4",
          "ticks": 79104,
          "time": 61.44448,
          "velocity": 0.968503937007874
        },
        {
          "duration": 0.27777000000000385,
          "durationTicks": 384,
          "midi": 63,
          "name": "D#4",
          "ticks": 79488,
          "time": 61.72225,
          "velocity": 0.968503937007874
        },
        {
          "duration": 0.27777000000000385,
          "durationTicks": 384,
          "midi": 67,
          "name": "G4",
          "ticks": 79488,
          "time": 61.72225,
          "velocity": 0.968503937007874
        },
        {
          "duration": 0.27776999999999674,
          "durationTicks": 384,
          "midi": 62,
          "name": "D4",
          "ticks": 80256,
          "time": 62.27779,
          "velocity": 0.968503937007874
        },
        {
          "duration": 0.27776999999999674,
          "durationTicks": 384,
          "midi": 65,
          "name": "F4",
          "ticks": 80256,
          "time": 62.27779,
          "velocity": 0.968503937007874
        },
        {
          "duration": 0.27777000000000385,
          "durationTicks": 384,
          "midi": 63,
          "name": "D#4",
          "ticks": 81024,
          "time": 62.833330000000004,
          "velocity": 0.968503937007874
        },
        {
          "duration": 0.27777000000000385,
          "durationTicks": 384,
          "midi": 67,
          "name": "G4",
          "ticks": 81024,
          "time": 62.833330000000004,
          "velocity": 0.968503937007874
        },
        {
          "duration": 0.27777000000000385,
          "durationTicks": 384,
          "midi": 63,
          "name": "D#4",
          "ticks": 81792,
          "time": 63.38887,
          "velocity": 0.968503937007874
        },
        {
          "duration": 0.27777000000000385,
          "durationTicks": 384,
          "midi": 65,
          "name": "F4",
          "ticks": 81792,
          "time": 63.38887,
          "velocity": 0.968503937007874
        },
        {
          "duration": 0.27777000000000385,
          "durationTicks": 384,
          "midi": 63,
          "name": "D#4",
          "ticks": 82560,
          "time": 63.944410000000005,
          "velocity": 0.968503937007874
        },
        {
          "duration": 0.27777000000000385,
          "durationTicks": 384,
          "midi": 67,
          "name": "G4",
          "ticks": 82560,
          "time": 63.944410000000005,
          "velocity": 0.968503937007874
        },
        {
          "duration": 0.27777000000000385,
          "durationTicks": 384,
          "midi": 62,
          "name": "D4",
          "ticks": 83328,
          "time": 64.49995,
          "velocity": 0.968503937007874
        },
        {
          "duration": 0.27777000000000385,
          "durationTicks": 384,
          "midi": 65,
          "name": "F4",
          "ticks": 83328,
          "time": 64.49995,
          "velocity": 0.968503937007874
        },
        {
          "duration": 0.13888500000000192,
          "durationTicks": 192,
          "midi": 63,
          "name": "D#4",
          "ticks": 83712,
          "time": 64.77772,
          "velocity": 0.968503937007874
        },
        {
          "duration": 0.13888500000000192,
          "durationTicks": 192,
          "midi": 67,
          "name": "G4",
          "ticks": 83712,
          "time": 64.77772,
          "velocity": 0.968503937007874
        },
        {
          "duration": 0.13888500000000192,
          "durationTicks": 192,
          "midi": 67,
          "name": "G4",
          "ticks": 83904,
          "time": 64.916605,
          "velocity": 0.968503937007874
        },
        {
          "duration": 0.13888500000000192,
          "durationTicks": 192,
          "midi": 67,
          "name": "G4",
          "ticks": 83904,
          "time": 64.916605,
          "velocity": 0.968503937007874
        },
        {
          "duration": 0.13888500000000192,
          "durationTicks": 192,
          "midi": 67,
          "name": "G4",
          "ticks": 84096,
          "time": 65.05549,
          "velocity": 0.968503937007874
        },
        {
          "duration": 0.13888500000000192,
          "durationTicks": 192,
          "midi": 67,
          "name": "G4",
          "ticks": 84096,
          "time": 65.05549,
          "velocity": 0.968503937007874
        },
        {
          "duration": 0.1388849999999877,
          "durationTicks": 192,
          "midi": 67,
          "name": "G4",
          "ticks": 84288,
          "time": 65.19437500000001,
          "velocity": 0.968503937007874
        },
        {
          "duration": 0.1388849999999877,
          "durationTicks": 192,
          "midi": 67,
          "name": "G4",
          "ticks": 84288,
          "time": 65.19437500000001,
          "velocity": 0.968503937007874
        },
        {
          "duration": 0.13888500000000192,
          "durationTicks": 192,
          "midi": 63,
          "name": "D#4",
          "ticks": 84480,
          "time": 65.33326,
          "velocity": 0.968503937007874
        },
        {
          "duration": 0.13888500000000192,
          "durationTicks": 192,
          "midi": 63,
          "name": "D#4",
          "ticks": 84480,
          "time": 65.33326,
          "velocity": 0.968503937007874
        },
        {
          "duration": 0.13888500000000192,
          "durationTicks": 192,
          "midi": 70,
          "name": "A#4",
          "ticks": 84672,
          "time": 65.472145,
          "velocity": 0.968503937007874
        },
        {
          "duration": 0.13888500000000192,
          "durationTicks": 192,
          "midi": 70,
          "name": "A#4",
          "ticks": 84672,
          "time": 65.472145,
          "velocity": 0.968503937007874
        },
        {
          "duration": 0.13888500000000192,
          "durationTicks": 192,
          "midi": 70,
          "name": "A#4",
          "ticks": 84864,
          "time": 65.61103,
          "velocity": 0.968503937007874
        },
        {
          "duration": 0.13888500000000192,
          "durationTicks": 192,
          "midi": 70,
          "name": "A#4",
          "ticks": 84864,
          "time": 65.61103,
          "velocity": 0.968503937007874
        },
        {
          "duration": 0.13888500000000192,
          "durationTicks": 192,
          "midi": 70,
          "name": "A#4",
          "ticks": 85056,
          "time": 65.749915,
          "velocity": 0.968503937007874
        },
        {
          "duration": 0.13888500000000192,
          "durationTicks": 192,
          "midi": 70,
          "name": "A#4",
          "ticks": 85056,
          "time": 65.749915,
          "velocity": 0.968503937007874
        },
        {
          "duration": 0.13888500000000192,
          "durationTicks": 192,
          "midi": 67,
          "name": "G4",
          "ticks": 85248,
          "time": 65.8888,
          "velocity": 0.968503937007874
        },
        {
          "duration": 0.13888500000000192,
          "durationTicks": 192,
          "midi": 67,
          "name": "G4",
          "ticks": 85248,
          "time": 65.8888,
          "velocity": 0.968503937007874
        },
        {
          "duration": 0.13888500000000192,
          "durationTicks": 192,
          "midi": 63,
          "name": "D#4",
          "ticks": 85440,
          "time": 66.027685,
          "velocity": 0.968503937007874
        },
        {
          "duration": 0.13888500000000192,
          "durationTicks": 192,
          "midi": 63,
          "name": "D#4",
          "ticks": 85440,
          "time": 66.027685,
          "velocity": 0.968503937007874
        },
        {
          "duration": 0.1388849999999877,
          "durationTicks": 192,
          "midi": 63,
          "name": "D#4",
          "ticks": 85632,
          "time": 66.16657000000001,
          "velocity": 0.968503937007874
        },
        {
          "duration": 0.1388849999999877,
          "durationTicks": 192,
          "midi": 63,
          "name": "D#4",
          "ticks": 85632,
          "time": 66.16657000000001,
          "velocity": 0.968503937007874
        },
        {
          "duration": 0.13888500000001613,
          "durationTicks": 192,
          "midi": 63,
          "name": "D#4",
          "ticks": 85824,
          "time": 66.305455,
          "velocity": 0.968503937007874
        },
        {
          "duration": 0.13888500000001613,
          "durationTicks": 192,
          "midi": 63,
          "name": "D#4",
          "ticks": 85824,
          "time": 66.305455,
          "velocity": 0.968503937007874
        },
        {
          "duration": 0.6944249999999954,
          "durationTicks": 960,
          "midi": 58,
          "name": "A#3",
          "ticks": 86016,
          "time": 66.44434000000001,
          "velocity": 0.968503937007874
        },
        {
          "duration": 0.6944249999999954,
          "durationTicks": 960,
          "midi": 58,
          "name": "A#3",
          "ticks": 86016,
          "time": 66.44434000000001,
          "velocity": 0.968503937007874
        },
        {
          "duration": 0.1388849999999877,
          "durationTicks": 192,
          "midi": 67,
          "name": "G4",
          "ticks": 86976,
          "time": 67.138765,
          "velocity": 0.968503937007874
        },
        {
          "duration": 0.1388849999999877,
          "durationTicks": 192,
          "midi": 67,
          "name": "G4",
          "ticks": 86976,
          "time": 67.138765,
          "velocity": 0.968503937007874
        },
        {
          "duration": 0.13888500000001613,
          "durationTicks": 192,
          "midi": 67,
          "name": "G4",
          "ticks": 87168,
          "time": 67.27765,
          "velocity": 0.968503937007874
        },
        {
          "duration": 0.13888500000001613,
          "durationTicks": 192,
          "midi": 67,
          "name": "G4",
          "ticks": 87168,
          "time": 67.27765,
          "velocity": 0.968503937007874
        },
        {
          "duration": 0.1388849999999877,
          "durationTicks": 192,
          "midi": 67,
          "name": "G4",
          "ticks": 87360,
          "time": 67.41653500000001,
          "velocity": 0.968503937007874
        },
        {
          "duration": 0.1388849999999877,
          "durationTicks": 192,
          "midi": 67,
          "name": "G4",
          "ticks": 87360,
          "time": 67.41653500000001,
          "velocity": 0.968503937007874
        },
        {
          "duration": 0.13888500000000192,
          "durationTicks": 192,
          "midi": 63,
          "name": "D#4",
          "ticks": 87552,
          "time": 67.55542,
          "velocity": 0.968503937007874
        },
        {
          "duration": 0.13888500000000192,
          "durationTicks": 192,
          "midi": 63,
          "name": "D#4",
          "ticks": 87552,
          "time": 67.55542,
          "velocity": 0.968503937007874
        },
        {
          "duration": 0.13888500000000192,
          "durationTicks": 192,
          "midi": 70,
          "name": "A#4",
          "ticks": 87744,
          "time": 67.694305,
          "velocity": 0.968503937007874
        },
        {
          "duration": 0.13888500000000192,
          "durationTicks": 192,
          "midi": 70,
          "name": "A#4",
          "ticks": 87744,
          "time": 67.694305,
          "velocity": 0.968503937007874
        },
        {
          "duration": 0.13888500000000192,
          "durationTicks": 192,
          "midi": 70,
          "name": "A#4",
          "ticks": 87936,
          "time": 67.83319,
          "velocity": 0.968503937007874
        },
        {
          "duration": 0.13888500000000192,
          "durationTicks": 192,
          "midi": 70,
          "name": "A#4",
          "ticks": 87936,
          "time": 67.83319,
          "velocity": 0.968503937007874
        },
        {
          "duration": 0.13888500000000192,
          "durationTicks": 192,
          "midi": 70,
          "name": "A#4",
          "ticks": 88128,
          "time": 67.972075,
          "velocity": 0.968503937007874
        },
        {
          "duration": 0.13888500000000192,
          "durationTicks": 192,
          "midi": 70,
          "name": "A#4",
          "ticks": 88128,
          "time": 67.972075,
          "velocity": 0.968503937007874
        },
        {
          "duration": 0.13888500000000192,
          "durationTicks": 192,
          "midi": 67,
          "name": "G4",
          "ticks": 88320,
          "time": 68.11096,
          "velocity": 0.968503937007874
        },
        {
          "duration": 0.13888500000000192,
          "durationTicks": 192,
          "midi": 67,
          "name": "G4",
          "ticks": 88320,
          "time": 68.11096,
          "velocity": 0.968503937007874
        },
        {
          "duration": 0.13888500000000192,
          "durationTicks": 192,
          "midi": 63,
          "name": "D#4",
          "ticks": 88512,
          "time": 68.24984500000001,
          "velocity": 0.968503937007874
        },
        {
          "duration": 0.13888500000000192,
          "durationTicks": 192,
          "midi": 63,
          "name": "D#4",
          "ticks": 88512,
          "time": 68.24984500000001,
          "velocity": 0.968503937007874
        },
        {
          "duration": 0.1388849999999877,
          "durationTicks": 192,
          "midi": 63,
          "name": "D#4",
          "ticks": 88704,
          "time": 68.38873000000001,
          "velocity": 0.968503937007874
        },
        {
          "duration": 0.1388849999999877,
          "durationTicks": 192,
          "midi": 63,
          "name": "D#4",
          "ticks": 88704,
          "time": 68.38873000000001,
          "velocity": 0.968503937007874
        },
        {
          "duration": 0.13888500000000192,
          "durationTicks": 192,
          "midi": 63,
          "name": "D#4",
          "ticks": 88896,
          "time": 68.527615,
          "velocity": 0.968503937007874
        },
        {
          "duration": 0.13888500000000192,
          "durationTicks": 192,
          "midi": 63,
          "name": "D#4",
          "ticks": 88896,
          "time": 68.527615,
          "velocity": 0.968503937007874
        },
        {
          "duration": 0.8333099999999973,
          "durationTicks": 1152,
          "midi": 58,
          "name": "A#3",
          "ticks": 89088,
          "time": 68.6665,
          "velocity": 0.968503937007874
        },
        {
          "duration": 0.8333099999999973,
          "durationTicks": 1152,
          "midi": 58,
          "name": "A#3",
          "ticks": 89088,
          "time": 68.6665,
          "velocity": 0.968503937007874
        },
        {
          "duration": 0.13888500000000192,
          "durationTicks": 192,
          "midi": 62,
          "name": "D4",
          "ticks": 90816,
          "time": 69.916465,
          "velocity": 0.968503937007874
        },
        {
          "duration": 0.13888500000000192,
          "durationTicks": 192,
          "midi": 65,
          "name": "F4",
          "ticks": 90816,
          "time": 69.916465,
          "velocity": 0.968503937007874
        },
        {
          "duration": 0.13888500000000192,
          "durationTicks": 192,
          "midi": 62,
          "name": "D4",
          "ticks": 91008,
          "time": 70.05535,
          "velocity": 0.968503937007874
        },
        {
          "duration": 0.13888500000000192,
          "durationTicks": 192,
          "midi": 65,
          "name": "F4",
          "ticks": 91008,
          "time": 70.05535,
          "velocity": 0.968503937007874
        },
        {
          "duration": 0.13888500000000192,
          "durationTicks": 192,
          "midi": 62,
          "name": "D4",
          "ticks": 91200,
          "time": 70.194235,
          "velocity": 0.968503937007874
        },
        {
          "duration": 0.13888500000000192,
          "durationTicks": 192,
          "midi": 65,
          "name": "F4",
          "ticks": 91200,
          "time": 70.194235,
          "velocity": 0.968503937007874
        },
        {
          "duration": 0.27776999999998964,
          "durationTicks": 384,
          "midi": 63,
          "name": "D#4",
          "ticks": 91392,
          "time": 70.33312000000001,
          "velocity": 0.968503937007874
        },
        {
          "duration": 0.27776999999998964,
          "durationTicks": 384,
          "midi": 67,
          "name": "G4",
          "ticks": 91392,
          "time": 70.33312000000001,
          "velocity": 0.968503937007874
        },
        {
          "duration": 0.13888500000000192,
          "durationTicks": 192,
          "midi": 65,
          "name": "F4",
          "ticks": 92352,
          "time": 71.027545,
          "velocity": 0.968503937007874
        },
        {
          "duration": 0.13888500000000192,
          "durationTicks": 192,
          "midi": 70,
          "name": "A#4",
          "ticks": 92352,
          "time": 71.027545,
          "velocity": 0.968503937007874
        },
        {
          "duration": 0.13888500000000192,
          "durationTicks": 192,
          "midi": 65,
          "name": "F4",
          "ticks": 92544,
          "time": 71.16643,
          "velocity": 0.968503937007874
        },
        {
          "duration": 0.13888500000000192,
          "durationTicks": 192,
          "midi": 70,
          "name": "A#4",
          "ticks": 92544,
          "time": 71.16643,
          "velocity": 0.968503937007874
        },
        {
          "duration": 0.1388849999999877,
          "durationTicks": 192,
          "midi": 65,
          "name": "F4",
          "ticks": 92736,
          "time": 71.30531500000001,
          "velocity": 0.968503937007874
        },
        {
          "duration": 0.1388849999999877,
          "durationTicks": 192,
          "midi": 70,
          "name": "A#4",
          "ticks": 92736,
          "time": 71.30531500000001,
          "velocity": 0.968503937007874
        },
        {
          "duration": 0.27777000000000385,
          "durationTicks": 384,
          "midi": 63,
          "name": "D#4",
          "ticks": 92928,
          "time": 71.4442,
          "velocity": 0.968503937007874
        },
        {
          "duration": 0.27777000000000385,
          "durationTicks": 384,
          "midi": 67,
          "name": "G4",
          "ticks": 92928,
          "time": 71.4442,
          "velocity": 0.968503937007874
        },
        {
          "duration": 0.1415049999999951,
          "durationTicks": 192,
          "midi": 62,
          "name": "D4",
          "ticks": 108480,
          "time": 84.044565,
          "velocity": 0.7165354330708661
        },
        {
          "duration": 0.1415049999999951,
          "durationTicks": 192,
          "midi": 67,
          "name": "G4",
          "ticks": 108480,
          "time": 84.044565,
          "velocity": 0.7165354330708661
        },
        {
          "duration": 0.1415049999999951,
          "durationTicks": 192,
          "midi": 62,
          "name": "D4",
          "ticks": 108672,
          "time": 84.18607,
          "velocity": 0.7952755905511811
        },
        {
          "duration": 0.1415049999999951,
          "durationTicks": 192,
          "midi": 67,
          "name": "G4",
          "ticks": 108672,
          "time": 84.18607,
          "velocity": 0.7952755905511811
        },
        {
          "duration": 0.14150500000000932,
          "durationTicks": 192,
          "midi": 62,
          "name": "D4",
          "ticks": 108864,
          "time": 84.327575,
          "velocity": 0.8582677165354331
        },
        {
          "duration": 0.14150500000000932,
          "durationTicks": 192,
          "midi": 65,
          "name": "F4",
          "ticks": 108864,
          "time": 84.327575,
          "velocity": 0.8582677165354331
        },
        {
          "duration": 0.2830100000000044,
          "durationTicks": 384,
          "midi": 60,
          "name": "C4",
          "ticks": 109056,
          "time": 84.46908,
          "velocity": 0.905511811023622
        },
        {
          "duration": 0.2830100000000044,
          "durationTicks": 384,
          "midi": 63,
          "name": "D#4",
          "ticks": 109056,
          "time": 84.46908,
          "velocity": 0.905511811023622
        },
        {
          "duration": 0.2830100000000044,
          "durationTicks": 384,
          "midi": 60,
          "name": "C4",
          "ticks": 109824,
          "time": 85.0351,
          "velocity": 0.905511811023622
        },
        {
          "duration": 0.2830100000000044,
          "durationTicks": 384,
          "midi": 66,
          "name": "F#4",
          "ticks": 109824,
          "time": 85.0351,
          "velocity": 0.905511811023622
        },
        {
          "duration": 0.2830099999999902,
          "durationTicks": 384,
          "midi": 59,
          "name": "B3",
          "ticks": 110592,
          "time": 85.60112000000001,
          "velocity": 0.905511811023622
        },
        {
          "duration": 0.2830099999999902,
          "durationTicks": 384,
          "midi": 67,
          "name": "G4",
          "ticks": 110592,
          "time": 85.60112000000001,
          "velocity": 0.905511811023622
        },
        {
          "duration": 0.1428549999999973,
          "durationTicks": 192,
          "midi": 68,
          "name": "G#4",
          "ticks": 111552,
          "time": 87.226985,
          "velocity": 0.968503937007874
        },
        {
          "duration": 0.1428549999999973,
          "durationTicks": 192,
          "midi": 68,
          "name": "G#4",
          "ticks": 111552,
          "time": 87.226985,
          "velocity": 0.968503937007874
        },
        {
          "duration": 0.1428550000000115,
          "durationTicks": 192,
          "midi": 68,
          "name": "G#4",
          "ticks": 111744,
          "time": 87.36984,
          "velocity": 0.968503937007874
        },
        {
          "duration": 0.1428550000000115,
          "durationTicks": 192,
          "midi": 68,
          "name": "G#4",
          "ticks": 111744,
          "time": 87.36984,
          "velocity": 0.968503937007874
        },
        {
          "duration": 0.1428549999999973,
          "durationTicks": 192,
          "midi": 68,
          "name": "G#4",
          "ticks": 111936,
          "time": 87.51269500000001,
          "velocity": 0.968503937007874
        },
        {
          "duration": 0.1428549999999973,
          "durationTicks": 192,
          "midi": 68,
          "name": "G#4",
          "ticks": 111936,
          "time": 87.51269500000001,
          "velocity": 0.968503937007874
        },
        {
          "duration": 1.9047400000000039,
          "durationTicks": 1536,
          "midi": 65,
          "name": "F4",
          "ticks": 112128,
          "time": 87.65555,
          "velocity": 0.968503937007874
        },
        {
          "duration": 1.9047400000000039,
          "durationTicks": 1536,
          "midi": 65,
          "name": "F4",
          "ticks": 112128,
          "time": 87.65555,
          "velocity": 0.968503937007874
        },
        {
          "duration": 0.1428549999999973,
          "durationTicks": 192,
          "midi": 65,
          "name": "F4",
          "ticks": 119232,
          "time": 93.70308500000002,
          "velocity": 0.7165354330708661
        },
        {
          "duration": 0.1428549999999973,
          "durationTicks": 192,
          "midi": 65,
          "name": "F4",
          "ticks": 119232,
          "time": 93.70308500000002,
          "velocity": 0.7165354330708661
        },
        {
          "duration": 0.1428549999999973,
          "durationTicks": 192,
          "midi": 65,
          "name": "F4",
          "ticks": 119424,
          "time": 93.84594000000001,
          "velocity": 0.7165354330708661
        },
        {
          "duration": 0.1428549999999973,
          "durationTicks": 192,
          "midi": 65,
          "name": "F4",
          "ticks": 119424,
          "time": 93.84594000000001,
          "velocity": 0.7165354330708661
        },
        {
          "duration": 0.1428549999999973,
          "durationTicks": 192,
          "midi": 65,
          "name": "F4",
          "ticks": 119616,
          "time": 93.98879500000001,
          "velocity": 0.7165354330708661
        },
        {
          "duration": 0.1428549999999973,
          "durationTicks": 192,
          "midi": 65,
          "name": "F4",
          "ticks": 119616,
          "time": 93.98879500000001,
          "velocity": 0.7165354330708661
        },
        {
          "duration": 0.2857099999999946,
          "durationTicks": 384,
          "midi": 63,
          "name": "D#4",
          "ticks": 119808,
          "time": 94.13165000000001,
          "velocity": 0.7165354330708661
        },
        {
          "duration": 0.2857099999999946,
          "durationTicks": 384,
          "midi": 63,
          "name": "D#4",
          "ticks": 119808,
          "time": 94.13165000000001,
          "velocity": 0.7165354330708661
        },
        {
          "duration": 0.8490299999999991,
          "durationTicks": 1152,
          "midi": 63,
          "name": "D#4",
          "ticks": 122112,
          "time": 95.84591,
          "velocity": 0.7165354330708661
        },
        {
          "duration": 0.8490299999999991,
          "durationTicks": 1152,
          "midi": 67,
          "name": "G4",
          "ticks": 122112,
          "time": 95.84591,
          "velocity": 0.7165354330708661
        },
        {
          "duration": 0.2830099999999902,
          "durationTicks": 384,
          "midi": 65,
          "name": "F4",
          "ticks": 123648,
          "time": 96.97795,
          "velocity": 0.7165354330708661
        },
        {
          "duration": 0.2830099999999902,
          "durationTicks": 384,
          "midi": 68,
          "name": "G#4",
          "ticks": 123648,
          "time": 96.97795,
          "velocity": 0.7165354330708661
        },
        {
          "duration": 0.2830100000000044,
          "durationTicks": 384,
          "midi": 64,
          "name": "E4",
          "ticks": 124416,
          "time": 97.54397,
          "velocity": 0.7165354330708661
        },
        {
          "duration": 0.2830100000000044,
          "durationTicks": 384,
          "midi": 67,
          "name": "G4",
          "ticks": 124416,
          "time": 97.54397,
          "velocity": 0.7165354330708661
        },
        {
          "duration": 0.2803700000000049,
          "durationTicks": 384,
          "midi": 65,
          "name": "F4",
          "ticks": 125184,
          "time": 98.10999000000001,
          "velocity": 0.7165354330708661
        },
        {
          "duration": 0.2803700000000049,
          "durationTicks": 384,
          "midi": 68,
          "name": "G#4",
          "ticks": 125184,
          "time": 98.10999000000001,
          "velocity": 0.7165354330708661
        },
        {
          "duration": 0.2803700000000049,
          "durationTicks": 384,
          "midi": 67,
          "name": "G4",
          "ticks": 125952,
          "time": 98.67073,
          "velocity": 0.7165354330708661
        },
        {
          "duration": 0.2803700000000049,
          "durationTicks": 384,
          "midi": 70,
          "name": "A#4",
          "ticks": 125952,
          "time": 98.67073,
          "velocity": 0.7165354330708661
        },
        {
          "duration": 0.2803699999999907,
          "durationTicks": 384,
          "midi": 65,
          "name": "F4",
          "ticks": 126720,
          "time": 99.23147000000002,
          "velocity": 0.7165354330708661
        },
        {
          "duration": 0.2803699999999907,
          "durationTicks": 384,
          "midi": 68,
          "name": "G#4",
          "ticks": 126720,
          "time": 99.23147000000002,
          "velocity": 0.7165354330708661
        },
        {
          "duration": 0.2803700000000049,
          "durationTicks": 384,
          "midi": 65,
          "name": "F4",
          "ticks": 127488,
          "time": 99.79221000000001,
          "velocity": 0.7165354330708661
        },
        {
          "duration": 0.2803700000000049,
          "durationTicks": 384,
          "midi": 68,
          "name": "G#4",
          "ticks": 127488,
          "time": 99.79221000000001,
          "velocity": 0.7165354330708661
        },
        {
          "duration": 2.2221600000000024,
          "durationTicks": 3072,
          "midi": 63,
          "name": "D#4",
          "ticks": 128256,
          "time": 100.35295,
          "velocity": 0.905511811023622
        },
        {
          "duration": 2.2221600000000024,
          "durationTicks": 3072,
          "midi": 67,
          "name": "G4",
          "ticks": 128256,
          "time": 100.35295,
          "velocity": 0.905511811023622
        },
        {
          "duration": 1.9443899999999985,
          "durationTicks": 2688,
          "midi": 65,
          "name": "F4",
          "ticks": 131328,
          "time": 102.57511000000001,
          "velocity": 0.905511811023622
        },
        {
          "duration": 1.9443899999999985,
          "durationTicks": 2688,
          "midi": 67,
          "name": "G4",
          "ticks": 131328,
          "time": 102.57511000000001,
          "velocity": 0.905511811023622
        },
        {
          "duration": 0.27777000000000385,
          "durationTicks": 384,
          "midi": 63,
          "name": "D#4",
          "ticks": 134016,
          "time": 104.51950000000001,
          "velocity": 0.905511811023622
        },
        {
          "duration": 0.27777000000000385,
          "durationTicks": 384,
          "midi": 67,
          "name": "G4",
          "ticks": 134016,
          "time": 104.51950000000001,
          "velocity": 0.905511811023622
        },
        {
          "duration": 2.222159999999988,
          "durationTicks": 3072,
          "midi": 63,
          "name": "D#4",
          "ticks": 134400,
          "time": 104.79727000000001,
          "velocity": 0.968503937007874
        },
        {
          "duration": 2.222159999999988,
          "durationTicks": 3072,
          "midi": 66,
          "name": "F#4",
          "ticks": 134400,
          "time": 104.79727000000001,
          "velocity": 0.968503937007874
        },
        {
          "duration": 0.27777000000000385,
          "durationTicks": 384,
          "midi": 63,
          "name": "D#4",
          "ticks": 137472,
          "time": 107.01943,
          "velocity": 0.968503937007874
        },
        {
          "duration": 0.27777000000000385,
          "durationTicks": 384,
          "midi": 66,
          "name": "F#4",
          "ticks": 137472,
          "time": 107.01943,
          "velocity": 0.968503937007874
        },
        {
          "duration": 0.27777000000000385,
          "durationTicks": 384,
          "midi": 58,
          "name": "A#3",
          "ticks": 139008,
          "time": 108.13051,
          "velocity": 0.968503937007874
        },
        {
          "duration": 0.27777000000000385,
          "durationTicks": 384,
          "midi": 65,
          "name": "F4",
          "ticks": 139008,
          "time": 108.13051,
          "velocity": 0.968503937007874
        },
        {
          "duration": 1.111079999999987,
          "durationTicks": 1536,
          "midi": 72,
          "name": "C5",
          "ticks": 158976,
          "time": 122.80889000000002,
          "velocity": 0.7165354330708661
        },
        {
          "duration": 1.111079999999987,
          "durationTicks": 1536,
          "midi": 72,
          "name": "C5",
          "ticks": 158976,
          "time": 122.80889000000002,
          "velocity": 0.7165354330708661
        },
        {
          "duration": 1.1110800000000012,
          "durationTicks": 1536,
          "midi": 70,
          "name": "A#4",
          "ticks": 160512,
          "time": 123.91997,
          "velocity": 0.7165354330708661
        },
        {
          "duration": 1.1110800000000012,
          "durationTicks": 1536,
          "midi": 70,
          "name": "A#4",
          "ticks": 160512,
          "time": 123.91997,
          "velocity": 0.7165354330708661
        },
        {
          "duration": 2.499930000000006,
          "durationTicks": 3456,
          "midi": 69,
          "name": "A4",
          "ticks": 162048,
          "time": 125.03105000000001,
          "velocity": 0.7165354330708661
        },
        {
          "duration": 2.499930000000006,
          "durationTicks": 3456,
          "midi": 69,
          "name": "A4",
          "ticks": 162048,
          "time": 125.03105000000001,
          "velocity": 0.7165354330708661
        },
        {
          "duration": 0.27777000000000385,
          "durationTicks": 384,
          "midi": 69,
          "name": "A4",
          "ticks": 165504,
          "time": 127.53098000000001,
          "velocity": 0.8582677165354331
        },
        {
          "duration": 0.27777000000000385,
          "durationTicks": 384,
          "midi": 69,
          "name": "A4",
          "ticks": 165504,
          "time": 127.53098000000001,
          "velocity": 0.8582677165354331
        },
        {
          "duration": 0.27776999999998964,
          "durationTicks": 384,
          "midi": 69,
          "name": "A4",
          "ticks": 165888,
          "time": 127.80875000000002,
          "velocity": 0.905511811023622
        },
        {
          "duration": 0.27776999999998964,
          "durationTicks": 384,
          "midi": 69,
          "name": "A4",
          "ticks": 165888,
          "time": 127.80875000000002,
          "velocity": 0.905511811023622
        },
        {
          "duration": 0.27777000000000385,
          "durationTicks": 384,
          "midi": 69,
          "name": "A4",
          "ticks": 166272,
          "time": 128.08652,
          "velocity": 0.905511811023622
        },
        {
          "duration": 0.27777000000000385,
          "durationTicks": 384,
          "midi": 69,
          "name": "A4",
          "ticks": 166272,
          "time": 128.08652,
          "velocity": 0.905511811023622
        },
        {
          "duration": 0.8333100000000115,
          "durationTicks": 1152,
          "midi": 65,
          "name": "F4",
          "ticks": 166656,
          "time": 128.36429,
          "velocity": 0.968503937007874
        },
        {
          "duration": 0.8333100000000115,
          "durationTicks": 1152,
          "midi": 68,
          "name": "G#4",
          "ticks": 166656,
          "time": 128.36429,
          "velocity": 0.968503937007874
        },
        {
          "duration": 0.2777699999999754,
          "durationTicks": 384,
          "midi": 65,
          "name": "F4",
          "ticks": 167808,
          "time": 129.19760000000002,
          "velocity": 0.968503937007874
        },
        {
          "duration": 0.2777699999999754,
          "durationTicks": 384,
          "midi": 68,
          "name": "G#4",
          "ticks": 167808,
          "time": 129.19760000000002,
          "velocity": 0.968503937007874
        },
        {
          "duration": 0.27777000000000385,
          "durationTicks": 384,
          "midi": 63,
          "name": "D#4",
          "ticks": 168192,
          "time": 129.47537,
          "velocity": 0.968503937007874
        },
        {
          "duration": 0.27777000000000385,
          "durationTicks": 384,
          "midi": 67,
          "name": "G4",
          "ticks": 168192,
          "time": 129.47537,
          "velocity": 0.968503937007874
        },
        {
          "duration": 0.27777000000000385,
          "durationTicks": 384,
          "midi": 68,
          "name": "G#4",
          "ticks": 168960,
          "time": 130.03091,
          "velocity": 0.968503937007874
        },
        {
          "duration": 0.27777000000000385,
          "durationTicks": 384,
          "midi": 68,
          "name": "G#4",
          "ticks": 168960,
          "time": 130.03091,
          "velocity": 0.968503937007874
        },
        {
          "duration": 0.27777000000000385,
          "durationTicks": 384,
          "midi": 63,
          "name": "D#4",
          "ticks": 169728,
          "time": 130.58645,
          "velocity": 0.968503937007874
        },
        {
          "duration": 0.27777000000000385,
          "durationTicks": 384,
          "midi": 70,
          "name": "A#4",
          "ticks": 169728,
          "time": 130.58645,
          "velocity": 0.968503937007874
        },
        {
          "duration": 0.27777000000000385,
          "durationTicks": 384,
          "midi": 63,
          "name": "D#4",
          "ticks": 170496,
          "time": 131.14199000000002,
          "velocity": 0.968503937007874
        },
        {
          "duration": 0.27777000000000385,
          "durationTicks": 384,
          "midi": 72,
          "name": "C5",
          "ticks": 170496,
          "time": 131.14199000000002,
          "velocity": 0.968503937007874
        },
        {
          "duration": 0.27777000000000385,
          "durationTicks": 384,
          "midi": 63,
          "name": "D#4",
          "ticks": 171264,
          "time": 131.69753,
          "velocity": 0.968503937007874
        },
        {
          "duration": 0.27777000000000385,
          "durationTicks": 384,
          "midi": 67,
          "name": "G4",
          "ticks": 171264,
          "time": 131.69753,
          "velocity": 0.968503937007874
        },
        {
          "duration": 0.27777000000000385,
          "durationTicks": 384,
          "midi": 62,
          "name": "D4",
          "ticks": 172032,
          "time": 132.25307,
          "velocity": 0.968503937007874
        },
        {
          "duration": 0.27777000000000385,
          "durationTicks": 384,
          "midi": 65,
          "name": "F4",
          "ticks": 172032,
          "time": 132.25307,
          "velocity": 0.968503937007874
        },
        {
          "duration": 1.111079999999987,
          "durationTicks": 1536,
          "midi": 65,
          "name": "F4",
          "ticks": 172800,
          "time": 132.80861000000002,
          "velocity": 0.968503937007874
        },
        {
          "duration": 1.111079999999987,
          "durationTicks": 1536,
          "midi": 68,
          "name": "G#4",
          "ticks": 172800,
          "time": 132.80861000000002,
          "velocity": 0.968503937007874
        },
        {
          "duration": 0.27777000000000385,
          "durationTicks": 384,
          "midi": 63,
          "name": "D#4",
          "ticks": 174336,
          "time": 133.91969,
          "velocity": 0.968503937007874
        },
        {
          "duration": 0.27777000000000385,
          "durationTicks": 384,
          "midi": 67,
          "name": "G4",
          "ticks": 174336,
          "time": 133.91969,
          "velocity": 0.968503937007874
        },
        {
          "duration": 0.27777000000000385,
          "durationTicks": 384,
          "midi": 63,
          "name": "D#4",
          "ticks": 174720,
          "time": 134.19746,
          "velocity": 0.968503937007874
        },
        {
          "duration": 0.27777000000000385,
          "durationTicks": 384,
          "midi": 67,
          "name": "G4",
          "ticks": 174720,
          "time": 134.19746,
          "velocity": 0.968503937007874
        },
        {
          "duration": 0.27777000000000385,
          "durationTicks": 384,
          "midi": 62,
          "name": "D4",
          "ticks": 175488,
          "time": 134.75300000000001,
          "velocity": 0.968503937007874
        },
        {
          "duration": 0.27777000000000385,
          "durationTicks": 384,
          "midi": 65,
          "name": "F4",
          "ticks": 175488,
          "time": 134.75300000000001,
          "velocity": 0.968503937007874
        },
        {
          "duration": 0.27777000000000385,
          "durationTicks": 384,
          "midi": 63,
          "name": "D#4",
          "ticks": 176256,
          "time": 135.30854000000002,
          "velocity": 0.968503937007874
        },
        {
          "duration": 0.27777000000000385,
          "durationTicks": 384,
          "midi": 67,
          "name": "G4",
          "ticks": 176256,
          "time": 135.30854000000002,
          "velocity": 0.968503937007874
        },
        {
          "duration": 0.27777000000000385,
          "durationTicks": 384,
          "midi": 63,
          "name": "D#4",
          "ticks": 177024,
          "time": 135.86408,
          "velocity": 0.968503937007874
        },
        {
          "duration": 0.27777000000000385,
          "durationTicks": 384,
          "midi": 65,
          "name": "F4",
          "ticks": 177024,
          "time": 135.86408,
          "velocity": 0.968503937007874
        },
        {
          "duration": 0.27777000000000385,
          "durationTicks": 384,
          "midi": 63,
          "name": "D#4",
          "ticks": 177792,
          "time": 136.41962,
          "velocity": 0.968503937007874
        },
        {
          "duration": 0.27777000000000385,
          "durationTicks": 384,
          "midi": 67,
          "name": "G4",
          "ticks": 177792,
          "time": 136.41962,
          "velocity": 0.968503937007874
        },
        {
          "duration": 0.27777000000000385,
          "durationTicks": 384,
          "midi": 62,
          "name": "D4",
          "ticks": 178560,
          "time": 136.97516000000002,
          "velocity": 0.968503937007874
        },
        {
          "duration": 0.27777000000000385,
          "durationTicks": 384,
          "midi": 65,
          "name": "F4",
          "ticks": 178560,
          "time": 136.97516000000002,
          "velocity": 0.968503937007874
        },
        {
          "duration": 0.1388849999999877,
          "durationTicks": 192,
          "midi": 63,
          "name": "D#4",
          "ticks": 178944,
          "time": 137.25293000000002,
          "velocity": 0.968503937007874
        },
        {
          "duration": 0.1388849999999877,
          "durationTicks": 192,
          "midi": 67,
          "name": "G4",
          "ticks": 178944,
          "time": 137.25293000000002,
          "velocity": 0.968503937007874
        },
        {
          "duration": 0.13888500000001613,
          "durationTicks": 192,
          "midi": 67,
          "name": "G4",
          "ticks": 179136,
          "time": 137.391815,
          "velocity": 0.968503937007874
        },
        {
          "duration": 0.13888500000001613,
          "durationTicks": 192,
          "midi": 67,
          "name": "G4",
          "ticks": 179136,
          "time": 137.391815,
          "velocity": 0.968503937007874
        },
        {
          "duration": 0.1388849999999877,
          "durationTicks": 192,
          "midi": 67,
          "name": "G4",
          "ticks": 179328,
          "time": 137.53070000000002,
          "velocity": 0.968503937007874
        },
        {
          "duration": 0.1388849999999877,
          "durationTicks": 192,
          "midi": 67,
          "name": "G4",
          "ticks": 179328,
          "time": 137.53070000000002,
          "velocity": 0.968503937007874
        },
        {
          "duration": 0.1388849999999877,
          "durationTicks": 192,
          "midi": 67,
          "name": "G4",
          "ticks": 179520,
          "time": 137.669585,
          "velocity": 0.968503937007874
        },
        {
          "duration": 0.1388849999999877,
          "durationTicks": 192,
          "midi": 67,
          "name": "G4",
          "ticks": 179520,
          "time": 137.669585,
          "velocity": 0.968503937007874
        },
        {
          "duration": 0.13888500000001613,
          "durationTicks": 192,
          "midi": 63,
          "name": "D#4",
          "ticks": 179712,
          "time": 137.80847,
          "velocity": 0.968503937007874
        },
        {
          "duration": 0.13888500000001613,
          "durationTicks": 192,
          "midi": 63,
          "name": "D#4",
          "ticks": 179712,
          "time": 137.80847,
          "velocity": 0.968503937007874
        },
        {
          "duration": 0.1388849999999877,
          "durationTicks": 192,
          "midi": 70,
          "name": "A#4",
          "ticks": 179904,
          "time": 137.94735500000002,
          "velocity": 0.968503937007874
        },
        {
          "duration": 0.1388849999999877,
          "durationTicks": 192,
          "midi": 70,
          "name": "A#4",
          "ticks": 179904,
          "time": 137.94735500000002,
          "velocity": 0.968503937007874
        },
        {
          "duration": 0.13888500000001613,
          "durationTicks": 192,
          "midi": 70,
          "name": "A#4",
          "ticks": 180096,
          "time": 138.08624,
          "velocity": 0.968503937007874
        },
        {
          "duration": 0.13888500000001613,
          "durationTicks": 192,
          "midi": 70,
          "name": "A#4",
          "ticks": 180096,
          "time": 138.08624,
          "velocity": 0.968503937007874
        },
        {
          "duration": 0.1388849999999877,
          "durationTicks": 192,
          "midi": 70,
          "name": "A#4",
          "ticks": 180288,
          "time": 138.22512500000002,
          "velocity": 0.968503937007874
        },
        {
          "duration": 0.1388849999999877,
          "durationTicks": 192,
          "midi": 70,
          "name": "A#4",
          "ticks": 180288,
          "time": 138.22512500000002,
          "velocity": 0.968503937007874
        },
        {
          "duration": 0.13888500000001613,
          "durationTicks": 192,
          "midi": 67,
          "name": "G4",
          "ticks": 180480,
          "time": 138.36401,
          "velocity": 0.968503937007874
        },
        {
          "duration": 0.13888500000001613,
          "durationTicks": 192,
          "midi": 67,
          "name": "G4",
          "ticks": 180480,
          "time": 138.36401,
          "velocity": 0.968503937007874
        },
        {
          "duration": 0.1388849999999877,
          "durationTicks": 192,
          "midi": 63,
          "name": "D#4",
          "ticks": 180672,
          "time": 138.50289500000002,
          "velocity": 0.968503937007874
        },
        {
          "duration": 0.1388849999999877,
          "durationTicks": 192,
          "midi": 63,
          "name": "D#4",
          "ticks": 180672,
          "time": 138.50289500000002,
          "velocity": 0.968503937007874
        },
        {
          "duration": 0.1388849999999877,
          "durationTicks": 192,
          "midi": 63,
          "name": "D#4",
          "ticks": 180864,
          "time": 138.64178,
          "velocity": 0.968503937007874
        },
        {
          "duration": 0.1388849999999877,
          "durationTicks": 192,
          "midi": 63,
          "name": "D#4",
          "ticks": 180864,
          "time": 138.64178,
          "velocity": 0.968503937007874
        },
        {
          "duration": 0.13888500000001613,
          "durationTicks": 192,
          "midi": 63,
          "name": "D#4",
          "ticks": 181056,
          "time": 138.780665,
          "velocity": 0.968503937007874
        },
        {
          "duration": 0.13888500000001613,
          "durationTicks": 192,
          "midi": 63,
          "name": "D#4",
          "ticks": 181056,
          "time": 138.780665,
          "velocity": 0.968503937007874
        },
        {
          "duration": 0.6944249999999954,
          "durationTicks": 960,
          "midi": 58,
          "name": "A#3",
          "ticks": 181248,
          "time": 138.91955000000002,
          "velocity": 0.968503937007874
        },
        {
          "duration": 0.6944249999999954,
          "durationTicks": 960,
          "midi": 58,
          "name": "A#3",
          "ticks": 181248,
          "time": 138.91955000000002,
          "velocity": 0.968503937007874
        },
        {
          "duration": 0.1388849999999877,
          "durationTicks": 192,
          "midi": 67,
          "name": "G4",
          "ticks": 182208,
          "time": 139.613975,
          "velocity": 0.968503937007874
        },
        {
          "duration": 0.1388849999999877,
          "durationTicks": 192,
          "midi": 67,
          "name": "G4",
          "ticks": 182208,
          "time": 139.613975,
          "velocity": 0.968503937007874
        },
        {
          "duration": 0.13888500000001613,
          "durationTicks": 192,
          "midi": 67,
          "name": "G4",
          "ticks": 182400,
          "time": 139.75286,
          "velocity": 0.968503937007874
        },
        {
          "duration": 0.13888500000001613,
          "durationTicks": 192,
          "midi": 67,
          "name": "G4",
          "ticks": 182400,
          "time": 139.75286,
          "velocity": 0.968503937007874
        },
        {
          "duration": 0.1388849999999877,
          "durationTicks": 192,
          "midi": 67,
          "name": "G4",
          "ticks": 182592,
          "time": 139.89174500000001,
          "velocity": 0.968503937007874
        },
        {
          "duration": 0.1388849999999877,
          "durationTicks": 192,
          "midi": 67,
          "name": "G4",
          "ticks": 182592,
          "time": 139.89174500000001,
          "velocity": 0.968503937007874
        },
        {
          "duration": 0.13888500000001613,
          "durationTicks": 192,
          "midi": 63,
          "name": "D#4",
          "ticks": 182784,
          "time": 140.03063,
          "velocity": 0.968503937007874
        },
        {
          "duration": 0.13888500000001613,
          "durationTicks": 192,
          "midi": 63,
          "name": "D#4",
          "ticks": 182784,
          "time": 140.03063,
          "velocity": 0.968503937007874
        },
        {
          "duration": 0.1388849999999877,
          "durationTicks": 192,
          "midi": 70,
          "name": "A#4",
          "ticks": 182976,
          "time": 140.16951500000002,
          "velocity": 0.968503937007874
        },
        {
          "duration": 0.1388849999999877,
          "durationTicks": 192,
          "midi": 70,
          "name": "A#4",
          "ticks": 182976,
          "time": 140.16951500000002,
          "velocity": 0.968503937007874
        },
        {
          "duration": 0.13888500000001613,
          "durationTicks": 192,
          "midi": 70,
          "name": "A#4",
          "ticks": 183168,
          "time": 140.3084,
          "velocity": 0.968503937007874
        },
        {
          "duration": 0.13888500000001613,
          "durationTicks": 192,
          "midi": 70,
          "name": "A#4",
          "ticks": 183168,
          "time": 140.3084,
          "velocity": 0.968503937007874
        },
        {
          "duration": 0.1388849999999877,
          "durationTicks": 192,
          "midi": 70,
          "name": "A#4",
          "ticks": 183360,
          "time": 140.44728500000002,
          "velocity": 0.968503937007874
        },
        {
          "duration": 0.1388849999999877,
          "durationTicks": 192,
          "midi": 70,
          "name": "A#4",
          "ticks": 183360,
          "time": 140.44728500000002,
          "velocity": 0.968503937007874
        },
        {
          "duration": 0.13888500000001613,
          "durationTicks": 192,
          "midi": 67,
          "name": "G4",
          "ticks": 183552,
          "time": 140.58617,
          "velocity": 0.968503937007874
        },
        {
          "duration": 0.13888500000001613,
          "durationTicks": 192,
          "midi": 67,
          "name": "G4",
          "ticks": 183552,
          "time": 140.58617,
          "velocity": 0.968503937007874
        },
        {
          "duration": 0.1388849999999877,
          "durationTicks": 192,
          "midi": 63,
          "name": "D#4",
          "ticks": 183744,
          "time": 140.72505500000003,
          "velocity": 0.968503937007874
        },
        {
          "duration": 0.1388849999999877,
          "durationTicks": 192,
          "midi": 63,
          "name": "D#4",
          "ticks": 183744,
          "time": 140.72505500000003,
          "velocity": 0.968503937007874
        },
        {
          "duration": 0.13888500000001613,
          "durationTicks": 192,
          "midi": 63,
          "name": "D#4",
          "ticks": 183936,
          "time": 140.86394,
          "velocity": 0.968503937007874
        },
        {
          "duration": 0.13888500000001613,
          "durationTicks": 192,
          "midi": 63,
          "name": "D#4",
          "ticks": 183936,
          "time": 140.86394,
          "velocity": 0.968503937007874
        },
        {
          "duration": 0.1388849999999877,
          "durationTicks": 192,
          "midi": 63,
          "name": "D#4",
          "ticks": 184128,
          "time": 141.00282500000003,
          "velocity": 0.968503937007874
        },
        {
          "duration": 0.1388849999999877,
          "durationTicks": 192,
          "midi": 63,
          "name": "D#4",
          "ticks": 184128,
          "time": 141.00282500000003,
          "velocity": 0.968503937007874
        },
        {
          "duration": 0.8333100000000115,
          "durationTicks": 1152,
          "midi": 58,
          "name": "A#3",
          "ticks": 184320,
          "time": 141.14171000000002,
          "velocity": 0.968503937007874
        },
        {
          "duration": 0.8333100000000115,
          "durationTicks": 1152,
          "midi": 58,
          "name": "A#3",
          "ticks": 184320,
          "time": 141.14171000000002,
          "velocity": 0.968503937007874
        },
        {
          "duration": 0.1388849999999877,
          "durationTicks": 192,
          "midi": 62,
          "name": "D4",
          "ticks": 186048,
          "time": 142.39167500000002,
          "velocity": 0.968503937007874
        },
        {
          "duration": 0.1388849999999877,
          "durationTicks": 192,
          "midi": 65,
          "name": "F4",
          "ticks": 186048,
          "time": 142.39167500000002,
          "velocity": 0.968503937007874
        },
        {
          "duration": 0.13888500000001613,
          "durationTicks": 192,
          "midi": 62,
          "name": "D4",
          "ticks": 186240,
          "time": 142.53056,
          "velocity": 0.968503937007874
        },
        {
          "duration": 0.13888500000001613,
          "durationTicks": 192,
          "midi": 65,
          "name": "F4",
          "ticks": 186240,
          "time": 142.53056,
          "velocity": 0.968503937007874
        },
        {
          "duration": 0.1388849999999877,
          "durationTicks": 192,
          "midi": 62,
          "name": "D4",
          "ticks": 186432,
          "time": 142.66944500000002,
          "velocity": 0.968503937007874
        },
        {
          "duration": 0.1388849999999877,
          "durationTicks": 192,
          "midi": 65,
          "name": "F4",
          "ticks": 186432,
          "time": 142.66944500000002,
          "velocity": 0.968503937007874
        },
        {
          "duration": 0.27777000000000385,
          "durationTicks": 384,
          "midi": 63,
          "name": "D#4",
          "ticks": 186624,
          "time": 142.80833,
          "velocity": 0.968503937007874
        },
        {
          "duration": 0.27777000000000385,
          "durationTicks": 384,
          "midi": 67,
          "name": "G4",
          "ticks": 186624,
          "time": 142.80833,
          "velocity": 0.968503937007874
        },
        {
          "duration": 0.13888500000001613,
          "durationTicks": 192,
          "midi": 65,
          "name": "F4",
          "ticks": 187584,
          "time": 143.502755,
          "velocity": 0.968503937007874
        },
        {
          "duration": 0.13888500000001613,
          "durationTicks": 192,
          "midi": 70,
          "name": "A#4",
          "ticks": 187584,
          "time": 143.502755,
          "velocity": 0.968503937007874
        },
        {
          "duration": 0.1388849999999877,
          "durationTicks": 192,
          "midi": 65,
          "name": "F4",
          "ticks": 187776,
          "time": 143.64164000000002,
          "velocity": 0.968503937007874
        },
        {
          "duration": 0.1388849999999877,
          "durationTicks": 192,
          "midi": 70,
          "name": "A#4",
          "ticks": 187776,
          "time": 143.64164000000002,
          "velocity": 0.968503937007874
        },
        {
          "duration": 0.13888500000001613,
          "durationTicks": 192,
          "midi": 65,
          "name": "F4",
          "ticks": 187968,
          "time": 143.780525,
          "velocity": 0.968503937007874
        },
        {
          "duration": 0.13888500000001613,
          "durationTicks": 192,
          "midi": 70,
          "name": "A#4",
          "ticks": 187968,
          "time": 143.780525,
          "velocity": 0.968503937007874
        },
        {
          "duration": 0.2777699999999754,
          "durationTicks": 384,
          "midi": 63,
          "name": "D#4",
          "ticks": 188160,
          "time": 143.91941000000003,
          "velocity": 0.968503937007874
        },
        {
          "duration": 0.2777699999999754,
          "durationTicks": 384,
          "midi": 67,
          "name": "G4",
          "ticks": 188160,
          "time": 143.91941000000003,
          "velocity": 0.968503937007874
        },
        {
          "duration": 0.15000000000000568,
          "durationTicks": 192,
          "midi": 66,
          "name": "F#4",
          "ticks": 212160,
          "time": 162.66287000000003,
          "velocity": 0.7165354330708661
        },
        {
          "duration": 0.15000000000000568,
          "durationTicks": 192,
          "midi": 66,
          "name": "F#4",
          "ticks": 212160,
          "time": 162.66287000000003,
          "velocity": 0.7165354330708661
        },
        {
          "duration": 0.15000000000000568,
          "durationTicks": 192,
          "midi": 66,
          "name": "F#4",
          "ticks": 212352,
          "time": 162.81287000000003,
          "velocity": 0.7165354330708661
        },
        {
          "duration": 0.15000000000000568,
          "durationTicks": 192,
          "midi": 66,
          "name": "F#4",
          "ticks": 212352,
          "time": 162.81287000000003,
          "velocity": 0.7165354330708661
        },
        {
          "duration": 0.15000000000000568,
          "durationTicks": 192,
          "midi": 69,
          "name": "A4",
          "ticks": 212544,
          "time": 162.96287000000004,
          "velocity": 0.7165354330708661
        },
        {
          "duration": 0.15000000000000568,
          "durationTicks": 192,
          "midi": 69,
          "name": "A4",
          "ticks": 212544,
          "time": 162.96287000000004,
          "velocity": 0.7165354330708661
        },
        {
          "duration": 0.5999999999999943,
          "durationTicks": 768,
          "midi": 67,
          "name": "G4",
          "ticks": 212736,
          "time": 163.11287000000004,
          "velocity": 0.7165354330708661
        },
        {
          "duration": 0.5999999999999943,
          "durationTicks": 768,
          "midi": 67,
          "name": "G4",
          "ticks": 212736,
          "time": 163.11287000000004,
          "velocity": 0.7165354330708661
        },
        {
          "duration": 0.15000000000000568,
          "durationTicks": 192,
          "midi": 66,
          "name": "F#4",
          "ticks": 213504,
          "time": 163.71287000000004,
          "velocity": 0.7165354330708661
        },
        {
          "duration": 0.15000000000000568,
          "durationTicks": 192,
          "midi": 66,
          "name": "F#4",
          "ticks": 213504,
          "time": 163.71287000000004,
          "velocity": 0.7165354330708661
        },
        {
          "duration": 0.14999999999997726,
          "durationTicks": 192,
          "midi": 66,
          "name": "F#4",
          "ticks": 213696,
          "time": 163.86287000000004,
          "velocity": 0.7165354330708661
        },
        {
          "duration": 0.14999999999997726,
          "durationTicks": 192,
          "midi": 66,
          "name": "F#4",
          "ticks": 213696,
          "time": 163.86287000000004,
          "velocity": 0.7165354330708661
        },
        {
          "duration": 0.15000000000000568,
          "durationTicks": 192,
          "midi": 66,
          "name": "F#4",
          "ticks": 213888,
          "time": 164.01287000000002,
          "velocity": 0.7165354330708661
        },
        {
          "duration": 0.15000000000000568,
          "durationTicks": 192,
          "midi": 66,
          "name": "F#4",
          "ticks": 213888,
          "time": 164.01287000000002,
          "velocity": 0.7165354330708661
        },
        {
          "duration": 0.15000000000000568,
          "durationTicks": 192,
          "midi": 69,
          "name": "A4",
          "ticks": 214080,
          "time": 164.16287000000003,
          "velocity": 0.7165354330708661
        },
        {
          "duration": 0.15000000000000568,
          "durationTicks": 192,
          "midi": 69,
          "name": "A4",
          "ticks": 214080,
          "time": 164.16287000000003,
          "velocity": 0.7165354330708661
        },
        {
          "duration": 0.5999999999999943,
          "durationTicks": 768,
          "midi": 67,
          "name": "G4",
          "ticks": 214272,
          "time": 164.31287000000003,
          "velocity": 0.7165354330708661
        },
        {
          "duration": 0.5999999999999943,
          "durationTicks": 768,
          "midi": 67,
          "name": "G4",
          "ticks": 214272,
          "time": 164.31287000000003,
          "velocity": 0.7165354330708661
        },
        {
          "duration": 0.5999999999999943,
          "durationTicks": 768,
          "midi": 66,
          "name": "F#4",
          "ticks": 215040,
          "time": 164.91287000000003,
          "velocity": 0.7165354330708661
        },
        {
          "duration": 0.5999999999999943,
          "durationTicks": 768,
          "midi": 66,
          "name": "F#4",
          "ticks": 215040,
          "time": 164.91287000000003,
          "velocity": 0.7165354330708661
        },
        {
          "duration": 0.75,
          "durationTicks": 960,
          "midi": 67,
          "name": "G4",
          "ticks": 215808,
          "time": 165.51287000000002,
          "velocity": 0.7165354330708661
        },
        {
          "duration": 0.75,
          "durationTicks": 960,
          "midi": 67,
          "name": "G4",
          "ticks": 215808,
          "time": 165.51287000000002,
          "velocity": 0.7165354330708661
        },
        {
          "duration": 0.29999999999998295,
          "durationTicks": 384,
          "midi": 60,
          "name": "C4",
          "ticks": 217344,
          "time": 166.71287000000004,
          "velocity": 0.7165354330708661
        },
        {
          "duration": 0.29999999999998295,
          "durationTicks": 384,
          "midi": 66,
          "name": "F#4",
          "ticks": 217344,
          "time": 166.71287000000004,
          "velocity": 0.7165354330708661
        },
        {
          "duration": 0.30000000000001137,
          "durationTicks": 384,
          "midi": 60,
          "name": "C4",
          "ticks": 218880,
          "time": 167.91287000000003,
          "velocity": 0.7165354330708661
        },
        {
          "duration": 0.30000000000001137,
          "durationTicks": 384,
          "midi": 66,
          "name": "F#4",
          "ticks": 218880,
          "time": 167.91287000000003,
          "velocity": 0.7165354330708661
        },
        {
          "duration": 0.29999999999998295,
          "durationTicks": 384,
          "midi": 55,
          "name": "G3",
          "ticks": 220416,
          "time": 169.11287000000004,
          "velocity": 0.7165354330708661
        },
        {
          "duration": 0.29999999999998295,
          "durationTicks": 384,
          "midi": 67,
          "name": "G4",
          "ticks": 220416,
          "time": 169.11287000000004,
          "velocity": 0.7165354330708661
        },
        {
          "duration": 0.30000000000001137,
          "durationTicks": 384,
          "midi": 62,
          "name": "D4",
          "ticks": 221952,
          "time": 170.31287000000003,
          "velocity": 0.7165354330708661
        },
        {
          "duration": 0.30000000000001137,
          "durationTicks": 384,
          "midi": 67,
          "name": "G4",
          "ticks": 221952,
          "time": 170.31287000000003,
          "velocity": 0.7165354330708661
        },
        {
          "duration": 0.15000000000000568,
          "durationTicks": 192,
          "midi": 67,
          "name": "G4",
          "ticks": 222912,
          "time": 171.06287000000003,
          "velocity": 0.7165354330708661
        },
        {
          "duration": 0.15000000000000568,
          "durationTicks": 192,
          "midi": 69,
          "name": "A4",
          "ticks": 223104,
          "time": 171.21287000000004,
          "velocity": 0.7952755905511811
        },
        {
          "duration": 0.14999999999997726,
          "durationTicks": 192,
          "midi": 70,
          "name": "A#4",
          "ticks": 223296,
          "time": 171.36287000000004,
          "velocity": 0.8582677165354331
        },
        {
          "duration": 1.200000000000017,
          "durationTicks": 1536,
          "midi": 66,
          "name": "F#4",
          "ticks": 223488,
          "time": 171.51287000000002,
          "velocity": 0.905511811023622
        },
        {
          "duration": 1.200000000000017,
          "durationTicks": 1536,
          "midi": 69,
          "name": "A4",
          "ticks": 223488,
          "time": 171.51287000000002,
          "velocity": 0.905511811023622
        },
        {
          "duration": 0.29999999999998295,
          "durationTicks": 384,
          "midi": 66,
          "name": "F#4",
          "ticks": 225024,
          "time": 172.71287000000004,
          "velocity": 0.905511811023622
        },
        {
          "duration": 0.29999999999998295,
          "durationTicks": 384,
          "midi": 69,
          "name": "A4",
          "ticks": 225024,
          "time": 172.71287000000004,
          "velocity": 0.905511811023622
        },
        {
          "duration": 0.15000000000000568,
          "durationTicks": 192,
          "midi": 67,
          "name": "G4",
          "ticks": 225984,
          "time": 173.46287000000004,
          "velocity": 0.905511811023622
        },
        {
          "duration": 0.15000000000000568,
          "durationTicks": 192,
          "midi": 70,
          "name": "A#4",
          "ticks": 225984,
          "time": 173.46287000000004,
          "velocity": 0.905511811023622
        },
        {
          "duration": 0.14999999999997726,
          "durationTicks": 192,
          "midi": 67,
          "name": "G4",
          "ticks": 226176,
          "time": 173.61287000000004,
          "velocity": 0.905511811023622
        },
        {
          "duration": 0.14999999999997726,
          "durationTicks": 192,
          "midi": 70,
          "name": "A#4",
          "ticks": 226176,
          "time": 173.61287000000004,
          "velocity": 0.905511811023622
        },
        {
          "duration": 0.15000000000000568,
          "durationTicks": 192,
          "midi": 67,
          "name": "G4",
          "ticks": 226368,
          "time": 173.76287000000002,
          "velocity": 0.905511811023622
        },
        {
          "duration": 0.15000000000000568,
          "durationTicks": 192,
          "midi": 70,
          "name": "A#4",
          "ticks": 226368,
          "time": 173.76287000000002,
          "velocity": 0.905511811023622
        },
        {
          "duration": 1.200000000000017,
          "durationTicks": 1536,
          "midi": 67,
          "name": "G4",
          "ticks": 226560,
          "time": 173.91287000000003,
          "velocity": 0.905511811023622
        },
        {
          "duration": 1.200000000000017,
          "durationTicks": 1536,
          "midi": 70,
          "name": "A#4",
          "ticks": 226560,
          "time": 173.91287000000003,
          "velocity": 0.905511811023622
        },
        {
          "duration": 0.29999999999998295,
          "durationTicks": 384,
          "midi": 67,
          "name": "G4",
          "ticks": 228096,
          "time": 175.11287000000004,
          "velocity": 0.905511811023622
        },
        {
          "duration": 0.29999999999998295,
          "durationTicks": 384,
          "midi": 70,
          "name": "A#4",
          "ticks": 228096,
          "time": 175.11287000000004,
          "velocity": 0.905511811023622
        },
        {
          "duration": 0.14999999999997726,
          "durationTicks": 192,
          "midi": 67,
          "name": "G4",
          "ticks": 229056,
          "time": 175.86287000000004,
          "velocity": 0.905511811023622
        },
        {
          "duration": 0.14999999999997726,
          "durationTicks": 192,
          "midi": 70,
          "name": "A#4",
          "ticks": 229056,
          "time": 175.86287000000004,
          "velocity": 0.905511811023622
        },
        {
          "duration": 0.15000000000000568,
          "durationTicks": 192,
          "midi": 67,
          "name": "G4",
          "ticks": 229248,
          "time": 176.01287000000002,
          "velocity": 0.905511811023622
        },
        {
          "duration": 0.15000000000000568,
          "durationTicks": 192,
          "midi": 70,
          "name": "A#4",
          "ticks": 229248,
          "time": 176.01287000000002,
          "velocity": 0.905511811023622
        },
        {
          "duration": 0.15000000000000568,
          "durationTicks": 192,
          "midi": 67,
          "name": "G4",
          "ticks": 229440,
          "time": 176.16287000000003,
          "velocity": 0.905511811023622
        },
        {
          "duration": 0.15000000000000568,
          "durationTicks": 192,
          "midi": 70,
          "name": "A#4",
          "ticks": 229440,
          "time": 176.16287000000003,
          "velocity": 0.905511811023622
        },
        {
          "duration": 0.30000000000001137,
          "durationTicks": 384,
          "midi": 67,
          "name": "G4",
          "ticks": 229632,
          "time": 176.31287000000003,
          "velocity": 0.905511811023622
        },
        {
          "duration": 0.30000000000001137,
          "durationTicks": 384,
          "midi": 70,
          "name": "A#4",
          "ticks": 229632,
          "time": 176.31287000000003,
          "velocity": 0.905511811023622
        },
        {
          "duration": 0.15000000000000568,
          "durationTicks": 192,
          "midi": 67,
          "name": "G4",
          "ticks": 230784,
          "time": 177.21287000000004,
          "velocity": 0.905511811023622
        },
        {
          "duration": 0.15000000000000568,
          "durationTicks": 192,
          "midi": 70,
          "name": "A#4",
          "ticks": 230784,
          "time": 177.21287000000004,
          "velocity": 0.905511811023622
        },
        {
          "duration": 0.14999999999997726,
          "durationTicks": 192,
          "midi": 67,
          "name": "G4",
          "ticks": 230976,
          "time": 177.36287000000004,
          "velocity": 0.905511811023622
        },
        {
          "duration": 0.14999999999997726,
          "durationTicks": 192,
          "midi": 70,
          "name": "A#4",
          "ticks": 230976,
          "time": 177.36287000000004,
          "velocity": 0.905511811023622
        },
        {
          "duration": 0.30000000000001137,
          "durationTicks": 384,
          "midi": 67,
          "name": "G4",
          "ticks": 231168,
          "time": 177.51287000000002,
          "velocity": 0.905511811023622
        },
        {
          "duration": 0.30000000000001137,
          "durationTicks": 384,
          "midi": 70,
          "name": "A#4",
          "ticks": 231168,
          "time": 177.51287000000002,
          "velocity": 0.905511811023622
        },
        {
          "duration": 0.15000000000000568,
          "durationTicks": 192,
          "midi": 62,
          "name": "D4",
          "ticks": 231552,
          "time": 177.81287000000003,
          "velocity": 0.905511811023622
        },
        {
          "duration": 0.15000000000000568,
          "durationTicks": 192,
          "midi": 69,
          "name": "A4",
          "ticks": 231552,
          "time": 177.81287000000003,
          "velocity": 0.905511811023622
        },
        {
          "duration": 0.15000000000000568,
          "durationTicks": 192,
          "midi": 62,
          "name": "D4",
          "ticks": 231744,
          "time": 177.96287000000004,
          "velocity": 0.905511811023622
        },
        {
          "duration": 0.15000000000000568,
          "durationTicks": 192,
          "midi": 69,
          "name": "A4",
          "ticks": 231744,
          "time": 177.96287000000004,
          "velocity": 0.905511811023622
        },
        {
          "duration": 0.29999999999998295,
          "durationTicks": 384,
          "midi": 62,
          "name": "D4",
          "ticks": 231936,
          "time": 178.11287000000004,
          "velocity": 0.905511811023622
        },
        {
          "duration": 0.29999999999998295,
          "durationTicks": 384,
          "midi": 69,
          "name": "A4",
          "ticks": 231936,
          "time": 178.11287000000004,
          "velocity": 0.905511811023622
        },
        {
          "duration": 0.15000000000000568,
          "durationTicks": 192,
          "midi": 66,
          "name": "F#4",
          "ticks": 236928,
          "time": 182.01287000000002,
          "velocity": 0.905511811023622
        },
        {
          "duration": 0.15000000000000568,
          "durationTicks": 192,
          "midi": 66,
          "name": "F#4",
          "ticks": 236928,
          "time": 182.01287000000002,
          "velocity": 0.905511811023622
        },
        {
          "duration": 0.15000000000000568,
          "durationTicks": 192,
          "midi": 66,
          "name": "F#4",
          "ticks": 237120,
          "time": 182.16287000000003,
          "velocity": 0.905511811023622
        },
        {
          "duration": 0.15000000000000568,
          "durationTicks": 192,
          "midi": 66,
          "name": "F#4",
          "ticks": 237120,
          "time": 182.16287000000003,
          "velocity": 0.905511811023622
        },
        {
          "duration": 0.30000000000001137,
          "durationTicks": 384,
          "midi": 66,
          "name": "F#4",
          "ticks": 237312,
          "time": 182.31287000000003,
          "velocity": 0.905511811023622
        },
        {
          "duration": 0.30000000000001137,
          "durationTicks": 384,
          "midi": 66,
          "name": "F#4",
          "ticks": 237312,
          "time": 182.31287000000003,
          "velocity": 0.905511811023622
        },
        {
          "duration": 0.14999999999997726,
          "durationTicks": 192,
          "midi": 66,
          "name": "F#4",
          "ticks": 237696,
          "time": 182.61287000000004,
          "velocity": 0.905511811023622
        },
        {
          "duration": 0.14999999999997726,
          "durationTicks": 192,
          "midi": 69,
          "name": "A4",
          "ticks": 237696,
          "time": 182.61287000000004,
          "velocity": 0.905511811023622
        },
        {
          "duration": 0.15000000000000568,
          "durationTicks": 192,
          "midi": 66,
          "name": "F#4",
          "ticks": 237888,
          "time": 182.76287000000002,
          "velocity": 0.905511811023622
        },
        {
          "duration": 0.15000000000000568,
          "durationTicks": 192,
          "midi": 69,
          "name": "A4",
          "ticks": 237888,
          "time": 182.76287000000002,
          "velocity": 0.905511811023622
        },
        {
          "duration": 0.30000000000001137,
          "durationTicks": 384,
          "midi": 67,
          "name": "G4",
          "ticks": 238080,
          "time": 182.91287000000003,
          "velocity": 0.905511811023622
        },
        {
          "duration": 0.30000000000001137,
          "durationTicks": 384,
          "midi": 71,
          "name": "B4",
          "ticks": 238080,
          "time": 182.91287000000003,
          "velocity": 0.905511811023622
        },
        {
          "duration": 0.15000000000000568,
          "durationTicks": 192,
          "midi": 65,
          "name": "F4",
          "ticks": 243072,
          "time": 186.81287000000003,
          "velocity": 0.905511811023622
        },
        {
          "duration": 0.15000000000000568,
          "durationTicks": 192,
          "midi": 65,
          "name": "F4",
          "ticks": 243072,
          "time": 186.81287000000003,
          "velocity": 0.905511811023622
        },
        {
          "duration": 0.15000000000000568,
          "durationTicks": 192,
          "midi": 65,
          "name": "F4",
          "ticks": 243264,
          "time": 186.96287000000004,
          "velocity": 0.905511811023622
        },
        {
          "duration": 0.15000000000000568,
          "durationTicks": 192,
          "midi": 65,
          "name": "F4",
          "ticks": 243264,
          "time": 186.96287000000004,
          "velocity": 0.905511811023622
        },
        {
          "duration": 0.29999999999998295,
          "durationTicks": 384,
          "midi": 65,
          "name": "F4",
          "ticks": 243456,
          "time": 187.11287000000004,
          "velocity": 0.905511811023622
        },
        {
          "duration": 0.29999999999998295,
          "durationTicks": 384,
          "midi": 65,
          "name": "F4",
          "ticks": 243456,
          "time": 187.11287000000004,
          "velocity": 0.905511811023622
        },
        {
          "duration": 0.14999999999997726,
          "durationTicks": 192,
          "midi": 60,
          "name": "C4",
          "ticks": 244416,
          "time": 187.86287000000004,
          "velocity": 0.968503937007874
        },
        {
          "duration": 0.14999999999997726,
          "durationTicks": 192,
          "midi": 72,
          "name": "C5",
          "ticks": 244416,
          "time": 187.86287000000004,
          "velocity": 0.968503937007874
        },
        {
          "duration": 0.15000000000000568,
          "durationTicks": 192,
          "midi": 60,
          "name": "C4",
          "ticks": 244608,
          "time": 188.01287000000002,
          "velocity": 0.968503937007874
        },
        {
          "duration": 0.15000000000000568,
          "durationTicks": 192,
          "midi": 72,
          "name": "C5",
          "ticks": 244608,
          "time": 188.01287000000002,
          "velocity": 0.968503937007874
        },
        {
          "duration": 0.15000000000000568,
          "durationTicks": 192,
          "midi": 60,
          "name": "C4",
          "ticks": 244800,
          "time": 188.16287000000003,
          "velocity": 0.968503937007874
        },
        {
          "duration": 0.15000000000000568,
          "durationTicks": 192,
          "midi": 72,
          "name": "C5",
          "ticks": 244800,
          "time": 188.16287000000003,
          "velocity": 0.968503937007874
        },
        {
          "duration": 0.5999999999999943,
          "durationTicks": 768,
          "midi": 65,
          "name": "F4",
          "ticks": 244992,
          "time": 188.31287000000003,
          "velocity": 0.968503937007874
        },
        {
          "duration": 0.5999999999999943,
          "durationTicks": 768,
          "midi": 65,
          "name": "F4",
          "ticks": 244992,
          "time": 188.31287000000003,
          "velocity": 0.968503937007874
        },
        {
          "duration": 0.5999999999999943,
          "durationTicks": 768,
          "midi": 67,
          "name": "G4",
          "ticks": 245760,
          "time": 188.91287000000003,
          "velocity": 0.968503937007874
        },
        {
          "duration": 0.5999999999999943,
          "durationTicks": 768,
          "midi": 67,
          "name": "G4",
          "ticks": 245760,
          "time": 188.91287000000003,
          "velocity": 0.968503937007874
        },
        {
          "duration": 0.5999999999999943,
          "durationTicks": 768,
          "midi": 53,
          "name": "F3",
          "ticks": 248064,
          "time": 190.71287000000004,
          "velocity": 0.968503937007874
        },
        {
          "duration": 0.5999999999999943,
          "durationTicks": 768,
          "midi": 65,
          "name": "F4",
          "ticks": 248064,
          "time": 190.71287000000004,
          "velocity": 0.968503937007874
        },
        {
          "duration": 0.5999999999999943,
          "durationTicks": 768,
          "midi": 55,
          "name": "G3",
          "ticks": 248832,
          "time": 191.31287000000003,
          "velocity": 0.968503937007874
        },
        {
          "duration": 0.5999999999999943,
          "durationTicks": 768,
          "midi": 67,
          "name": "G4",
          "ticks": 248832,
          "time": 191.31287000000003,
          "velocity": 0.968503937007874
        },
        {
          "duration": 0.5999999999999943,
          "durationTicks": 768,
          "midi": 65,
          "name": "F4",
          "ticks": 251136,
          "time": 193.11287000000004,
          "velocity": 0.968503937007874
        },
        {
          "duration": 0.5999999999999943,
          "durationTicks": 768,
          "midi": 65,
          "name": "F4",
          "ticks": 251136,
          "time": 193.11287000000004,
          "velocity": 0.968503937007874
        },
        {
          "duration": 0.5999999999999943,
          "durationTicks": 768,
          "midi": 66,
          "name": "F#4",
          "ticks": 251904,
          "time": 193.71287000000004,
          "velocity": 0.968503937007874
        },
        {
          "duration": 0.5999999999999943,
          "durationTicks": 768,
          "midi": 66,
          "name": "F#4",
          "ticks": 251904,
          "time": 193.71287000000004,
          "velocity": 0.968503937007874
        },
        {
          "duration": 0.6000000000000227,
          "durationTicks": 768,
          "midi": 69,
          "name": "A4",
          "ticks": 254208,
          "time": 195.51287000000002,
          "velocity": 0.968503937007874
        },
        {
          "duration": 0.6000000000000227,
          "durationTicks": 768,
          "midi": 69,
          "name": "A4",
          "ticks": 254208,
          "time": 195.51287000000002,
          "velocity": 0.968503937007874
        },
        {
          "duration": 0.5999999999999943,
          "durationTicks": 768,
          "midi": 70,
          "name": "A#4",
          "ticks": 254976,
          "time": 196.11287000000004,
          "velocity": 0.968503937007874
        },
        {
          "duration": 0.5999999999999943,
          "durationTicks": 768,
          "midi": 70,
          "name": "A#4",
          "ticks": 254976,
          "time": 196.11287000000004,
          "velocity": 0.968503937007874
        },
        {
          "duration": 0.6122399999999857,
          "durationTicks": 768,
          "midi": 69,
          "name": "A4",
          "ticks": 261120,
          "time": 200.97407000000004,
          "velocity": 0.7165354330708661
        },
        {
          "duration": 0.6122399999999857,
          "durationTicks": 768,
          "midi": 69,
          "name": "A4",
          "ticks": 261120,
          "time": 200.97407000000004,
          "velocity": 0.7165354330708661
        },
        {
          "duration": 0.6122399999999857,
          "durationTicks": 768,
          "midi": 69,
          "name": "A4",
          "ticks": 262656,
          "time": 202.19855000000004,
          "velocity": 0.7165354330708661
        },
        {
          "duration": 0.6122399999999857,
          "durationTicks": 768,
          "midi": 69,
          "name": "A4",
          "ticks": 262656,
          "time": 202.19855000000004,
          "velocity": 0.7165354330708661
        },
        {
          "duration": 0.6122399999999857,
          "durationTicks": 768,
          "midi": 69,
          "name": "A4",
          "ticks": 264192,
          "time": 203.42303000000004,
          "velocity": 0.6141732283464567
        },
        {
          "duration": 0.6122399999999857,
          "durationTicks": 768,
          "midi": 69,
          "name": "A4",
          "ticks": 264192,
          "time": 203.42303000000004,
          "velocity": 0.6141732283464567
        },
        {
          "duration": 0.6122399999999857,
          "durationTicks": 768,
          "midi": 69,
          "name": "A4",
          "ticks": 265728,
          "time": 204.64751000000004,
          "velocity": 0.6141732283464567
        },
        {
          "duration": 0.6122399999999857,
          "durationTicks": 768,
          "midi": 69,
          "name": "A4",
          "ticks": 265728,
          "time": 204.64751000000004,
          "velocity": 0.6141732283464567
        },
        {
          "duration": 0.6122399999999857,
          "durationTicks": 768,
          "midi": 69,
          "name": "A4",
          "ticks": 267264,
          "time": 205.87199000000004,
          "velocity": 0.6141732283464567
        },
        {
          "duration": 0.6122399999999857,
          "durationTicks": 768,
          "midi": 69,
          "name": "A4",
          "ticks": 267264,
          "time": 205.87199000000004,
          "velocity": 0.6141732283464567
        },
        {
          "duration": 0.6122399999999857,
          "durationTicks": 768,
          "midi": 69,
          "name": "A4",
          "ticks": 268800,
          "time": 207.09647000000004,
          "velocity": 0.6141732283464567
        },
        {
          "duration": 0.6122399999999857,
          "durationTicks": 768,
          "midi": 69,
          "name": "A4",
          "ticks": 268800,
          "time": 207.09647000000004,
          "velocity": 0.6141732283464567
        },
        {
          "duration": 0.1530599999999822,
          "durationTicks": 192,
          "midi": 62,
          "name": "D4",
          "ticks": 269760,
          "time": 207.86177000000004,
          "velocity": 0.968503937007874
        },
        {
          "duration": 0.1530599999999822,
          "durationTicks": 192,
          "midi": 74,
          "name": "D5",
          "ticks": 269760,
          "time": 207.86177000000004,
          "velocity": 0.968503937007874
        },
        {
          "duration": 0.15306000000001063,
          "durationTicks": 192,
          "midi": 62,
          "name": "D4",
          "ticks": 269952,
          "time": 208.01483000000002,
          "velocity": 0.968503937007874
        },
        {
          "duration": 0.15306000000001063,
          "durationTicks": 192,
          "midi": 74,
          "name": "D5",
          "ticks": 269952,
          "time": 208.01483000000002,
          "velocity": 0.968503937007874
        },
        {
          "duration": 0.15306000000001063,
          "durationTicks": 192,
          "midi": 62,
          "name": "D4",
          "ticks": 270144,
          "time": 208.16789000000003,
          "velocity": 0.968503937007874
        },
        {
          "duration": 0.15306000000001063,
          "durationTicks": 192,
          "midi": 74,
          "name": "D5",
          "ticks": 270144,
          "time": 208.16789000000003,
          "velocity": 0.968503937007874
        },
        {
          "duration": 0.6122399999999857,
          "durationTicks": 768,
          "midi": 59,
          "name": "B3",
          "ticks": 270336,
          "time": 208.32095000000004,
          "velocity": 0.968503937007874
        },
        {
          "duration": 0.6122399999999857,
          "durationTicks": 768,
          "midi": 71,
          "name": "B4",
          "ticks": 270336,
          "time": 208.32095000000004,
          "velocity": 0.968503937007874
        },
        {
          "duration": 0.6122400000000141,
          "durationTicks": 768,
          "midi": 60,
          "name": "C4",
          "ticks": 271104,
          "time": 208.93319000000002,
          "velocity": 0.968503937007874
        },
        {
          "duration": 0.6122400000000141,
          "durationTicks": 768,
          "midi": 72,
          "name": "C5",
          "ticks": 271104,
          "time": 208.93319000000002,
          "velocity": 0.968503937007874
        },
        {
          "duration": 1.2244799999999998,
          "durationTicks": 1536,
          "midi": 57,
          "name": "A3",
          "ticks": 271872,
          "time": 209.54543000000004,
          "velocity": 0.968503937007874
        },
        {
          "duration": 1.2244799999999998,
          "durationTicks": 1536,
          "midi": 69,
          "name": "A4",
          "ticks": 271872,
          "time": 209.54543000000004,
          "velocity": 0.968503937007874
        },
        {
          "duration": 0.6122399999999857,
          "durationTicks": 768,
          "midi": 68,
          "name": "G#4",
          "ticks": 273408,
          "time": 210.76991000000004,
          "velocity": 0.6141732283464567
        },
        {
          "duration": 0.6122399999999857,
          "durationTicks": 768,
          "midi": 68,
          "name": "G#4",
          "ticks": 273408,
          "time": 210.76991000000004,
          "velocity": 0.6141732283464567
        },
        {
          "duration": 0.6122399999999857,
          "durationTicks": 768,
          "midi": 68,
          "name": "G#4",
          "ticks": 274944,
          "time": 211.99439000000004,
          "velocity": 0.6141732283464567
        },
        {
          "duration": 0.6122399999999857,
          "durationTicks": 768,
          "midi": 68,
          "name": "G#4",
          "ticks": 274944,
          "time": 211.99439000000004,
          "velocity": 0.6141732283464567
        },
        {
          "duration": 0.6122399999999857,
          "durationTicks": 768,
          "midi": 68,
          "name": "G#4",
          "ticks": 276480,
          "time": 213.21887000000004,
          "velocity": 0.6141732283464567
        },
        {
          "duration": 0.6122399999999857,
          "durationTicks": 768,
          "midi": 68,
          "name": "G#4",
          "ticks": 276480,
          "time": 213.21887000000004,
          "velocity": 0.6141732283464567
        },
        {
          "duration": 0.6122399999999857,
          "durationTicks": 768,
          "midi": 68,
          "name": "G#4",
          "ticks": 278016,
          "time": 214.44335000000004,
          "velocity": 0.6141732283464567
        },
        {
          "duration": 0.6122399999999857,
          "durationTicks": 768,
          "midi": 68,
          "name": "G#4",
          "ticks": 278016,
          "time": 214.44335000000004,
          "velocity": 0.6141732283464567
        },
        {
          "duration": 0.1415049999999951,
          "durationTicks": 192,
          "midi": 68,
          "name": "G#4",
          "ticks": 279744,
          "time": 215.76311500000003,
          "velocity": 0.968503937007874
        },
        {
          "duration": 0.1415049999999951,
          "durationTicks": 192,
          "midi": 68,
          "name": "G#4",
          "ticks": 279744,
          "time": 215.76311500000003,
          "velocity": 0.968503937007874
        },
        {
          "duration": 0.1415049999999951,
          "durationTicks": 192,
          "midi": 68,
          "name": "G#4",
          "ticks": 279936,
          "time": 215.90462000000002,
          "velocity": 0.968503937007874
        },
        {
          "duration": 0.1415049999999951,
          "durationTicks": 192,
          "midi": 68,
          "name": "G#4",
          "ticks": 279936,
          "time": 215.90462000000002,
          "velocity": 0.968503937007874
        },
        {
          "duration": 0.1415049999999951,
          "durationTicks": 192,
          "midi": 68,
          "name": "G#4",
          "ticks": 280128,
          "time": 216.04612500000002,
          "velocity": 0.968503937007874
        },
        {
          "duration": 0.1415049999999951,
          "durationTicks": 192,
          "midi": 68,
          "name": "G#4",
          "ticks": 280128,
          "time": 216.04612500000002,
          "velocity": 0.968503937007874
        },
        {
          "duration": 0.707525000000004,
          "durationTicks": 960,
          "midi": 65,
          "name": "F4",
          "ticks": 280320,
          "time": 216.18763,
          "velocity": 0.968503937007874
        },
        {
          "duration": 0.707525000000004,
          "durationTicks": 960,
          "midi": 65,
          "name": "F4",
          "ticks": 280320,
          "time": 216.18763,
          "velocity": 0.968503937007874
        },
        {
          "duration": 0.1415049999999951,
          "durationTicks": 192,
          "midi": 68,
          "name": "G#4",
          "ticks": 281280,
          "time": 216.89515500000002,
          "velocity": 0.968503937007874
        },
        {
          "duration": 0.1415049999999951,
          "durationTicks": 192,
          "midi": 68,
          "name": "G#4",
          "ticks": 281280,
          "time": 216.89515500000002,
          "velocity": 0.968503937007874
        },
        {
          "duration": 0.14150500000002353,
          "durationTicks": 192,
          "midi": 68,
          "name": "G#4",
          "ticks": 281472,
          "time": 217.03666,
          "velocity": 0.968503937007874
        },
        {
          "duration": 0.14150500000002353,
          "durationTicks": 192,
          "midi": 68,
          "name": "G#4",
          "ticks": 281472,
          "time": 217.03666,
          "velocity": 0.968503937007874
        },
        {
          "duration": 0.1415049999999951,
          "durationTicks": 192,
          "midi": 68,
          "name": "G#4",
          "ticks": 281664,
          "time": 217.17816500000004,
          "velocity": 0.968503937007874
        },
        {
          "duration": 0.1415049999999951,
          "durationTicks": 192,
          "midi": 68,
          "name": "G#4",
          "ticks": 281664,
          "time": 217.17816500000004,
          "velocity": 0.968503937007874
        },
        {
          "duration": 0.707525000000004,
          "durationTicks": 960,
          "midi": 65,
          "name": "F4",
          "ticks": 281856,
          "time": 217.31967000000003,
          "velocity": 0.968503937007874
        },
        {
          "duration": 0.707525000000004,
          "durationTicks": 960,
          "midi": 65,
          "name": "F4",
          "ticks": 281856,
          "time": 217.31967000000003,
          "velocity": 0.968503937007874
        },
        {
          "duration": 0.1415049999999951,
          "durationTicks": 192,
          "midi": 68,
          "name": "G#4",
          "ticks": 282816,
          "time": 218.02719500000003,
          "velocity": 0.968503937007874
        },
        {
          "duration": 0.1415049999999951,
          "durationTicks": 192,
          "midi": 68,
          "name": "G#4",
          "ticks": 282816,
          "time": 218.02719500000003,
          "velocity": 0.968503937007874
        },
        {
          "duration": 0.1415049999999951,
          "durationTicks": 192,
          "midi": 68,
          "name": "G#4",
          "ticks": 283008,
          "time": 218.16870000000003,
          "velocity": 0.968503937007874
        },
        {
          "duration": 0.1415049999999951,
          "durationTicks": 192,
          "midi": 68,
          "name": "G#4",
          "ticks": 283008,
          "time": 218.16870000000003,
          "velocity": 0.968503937007874
        },
        {
          "duration": 0.1415049999999951,
          "durationTicks": 192,
          "midi": 68,
          "name": "G#4",
          "ticks": 283200,
          "time": 218.31020500000002,
          "velocity": 0.968503937007874
        },
        {
          "duration": 0.1415049999999951,
          "durationTicks": 192,
          "midi": 68,
          "name": "G#4",
          "ticks": 283200,
          "time": 218.31020500000002,
          "velocity": 0.968503937007874
        },
        {
          "duration": 0.1415049999999951,
          "durationTicks": 192,
          "midi": 65,
          "name": "F4",
          "ticks": 283392,
          "time": 218.45171000000002,
          "velocity": 0.968503937007874
        },
        {
          "duration": 0.1415049999999951,
          "durationTicks": 192,
          "midi": 65,
          "name": "F4",
          "ticks": 283392,
          "time": 218.45171000000002,
          "velocity": 0.968503937007874
        },
        {
          "duration": 0.1415049999999951,
          "durationTicks": 192,
          "midi": 68,
          "name": "G#4",
          "ticks": 283584,
          "time": 218.59321500000001,
          "velocity": 0.968503937007874
        },
        {
          "duration": 0.1415049999999951,
          "durationTicks": 192,
          "midi": 68,
          "name": "G#4",
          "ticks": 283584,
          "time": 218.59321500000001,
          "velocity": 0.968503937007874
        },
        {
          "duration": 0.14150500000002353,
          "durationTicks": 192,
          "midi": 68,
          "name": "G#4",
          "ticks": 283776,
          "time": 218.73472,
          "velocity": 0.968503937007874
        },
        {
          "duration": 0.14150500000002353,
          "durationTicks": 192,
          "midi": 68,
          "name": "G#4",
          "ticks": 283776,
          "time": 218.73472,
          "velocity": 0.968503937007874
        },
        {
          "duration": 0.1415049999999951,
          "durationTicks": 192,
          "midi": 68,
          "name": "G#4",
          "ticks": 283968,
          "time": 218.87622500000003,
          "velocity": 0.968503937007874
        },
        {
          "duration": 0.1415049999999951,
          "durationTicks": 192,
          "midi": 68,
          "name": "G#4",
          "ticks": 283968,
          "time": 218.87622500000003,
          "velocity": 0.968503937007874
        },
        {
          "duration": 0.1415049999999951,
          "durationTicks": 192,
          "midi": 65,
          "name": "F4",
          "ticks": 284160,
          "time": 219.01773000000003,
          "velocity": 0.968503937007874
        },
        {
          "duration": 0.1415049999999951,
          "durationTicks": 192,
          "midi": 65,
          "name": "F4",
          "ticks": 284160,
          "time": 219.01773000000003,
          "velocity": 0.968503937007874
        },
        {
          "duration": 0.1415049999999951,
          "durationTicks": 192,
          "midi": 68,
          "name": "G#4",
          "ticks": 284352,
          "time": 219.15923500000002,
          "velocity": 0.968503937007874
        },
        {
          "duration": 0.1415049999999951,
          "durationTicks": 192,
          "midi": 68,
          "name": "G#4",
          "ticks": 284352,
          "time": 219.15923500000002,
          "velocity": 0.968503937007874
        },
        {
          "duration": 0.1415049999999951,
          "durationTicks": 192,
          "midi": 68,
          "name": "G#4",
          "ticks": 284544,
          "time": 219.30074000000002,
          "velocity": 0.968503937007874
        },
        {
          "duration": 0.1415049999999951,
          "durationTicks": 192,
          "midi": 68,
          "name": "G#4",
          "ticks": 284544,
          "time": 219.30074000000002,
          "velocity": 0.968503937007874
        },
        {
          "duration": 0.1415049999999951,
          "durationTicks": 192,
          "midi": 68,
          "name": "G#4",
          "ticks": 284736,
          "time": 219.442245,
          "velocity": 0.968503937007874
        },
        {
          "duration": 0.1415049999999951,
          "durationTicks": 192,
          "midi": 68,
          "name": "G#4",
          "ticks": 284736,
          "time": 219.442245,
          "velocity": 0.968503937007874
        },
        {
          "duration": 0.14150500000002353,
          "durationTicks": 192,
          "midi": 65,
          "name": "F4",
          "ticks": 284928,
          "time": 219.58375,
          "velocity": 0.968503937007874
        },
        {
          "duration": 0.14150500000002353,
          "durationTicks": 192,
          "midi": 65,
          "name": "F4",
          "ticks": 284928,
          "time": 219.58375,
          "velocity": 0.968503937007874
        },
        {
          "duration": 0.1415049999999951,
          "durationTicks": 192,
          "midi": 55,
          "name": "G3",
          "ticks": 285120,
          "time": 219.72525500000003,
          "velocity": 0.968503937007874
        },
        {
          "duration": 0.1415049999999951,
          "durationTicks": 192,
          "midi": 67,
          "name": "G4",
          "ticks": 285120,
          "time": 219.72525500000003,
          "velocity": 0.968503937007874
        },
        {
          "duration": 0.1415049999999951,
          "durationTicks": 192,
          "midi": 55,
          "name": "G3",
          "ticks": 285312,
          "time": 219.86676000000003,
          "velocity": 0.968503937007874
        },
        {
          "duration": 0.1415049999999951,
          "durationTicks": 192,
          "midi": 67,
          "name": "G4",
          "ticks": 285312,
          "time": 219.86676000000003,
          "velocity": 0.968503937007874
        },
        {
          "duration": 0.1415049999999951,
          "durationTicks": 192,
          "midi": 55,
          "name": "G3",
          "ticks": 285504,
          "time": 220.00826500000002,
          "velocity": 0.968503937007874
        },
        {
          "duration": 0.1415049999999951,
          "durationTicks": 192,
          "midi": 67,
          "name": "G4",
          "ticks": 285504,
          "time": 220.00826500000002,
          "velocity": 0.968503937007874
        },
        {
          "duration": 0.75,
          "durationTicks": 768,
          "midi": 63,
          "name": "D#4",
          "ticks": 285696,
          "time": 220.14977000000002,
          "velocity": 0.968503937007874
        },
        {
          "duration": 0.75,
          "durationTicks": 768,
          "midi": 67,
          "name": "G4",
          "ticks": 285696,
          "time": 220.14977000000002,
          "velocity": 0.968503937007874
        },
        {
          "duration": 0.1415049999999951,
          "durationTicks": 192,
          "midi": 65,
          "name": "F4",
          "ticks": 286656,
          "time": 221.041275,
          "velocity": 0.968503937007874
        },
        {
          "duration": 0.1415049999999951,
          "durationTicks": 192,
          "midi": 67,
          "name": "G4",
          "ticks": 286656,
          "time": 221.041275,
          "velocity": 0.968503937007874
        },
        {
          "duration": 0.14150500000002353,
          "durationTicks": 192,
          "midi": 65,
          "name": "F4",
          "ticks": 286848,
          "time": 221.18278,
          "velocity": 0.968503937007874
        },
        {
          "duration": 0.14150500000002353,
          "durationTicks": 192,
          "midi": 67,
          "name": "G4",
          "ticks": 286848,
          "time": 221.18278,
          "velocity": 0.968503937007874
        },
        {
          "duration": 0.1415049999999951,
          "durationTicks": 192,
          "midi": 65,
          "name": "F4",
          "ticks": 287040,
          "time": 221.32428500000003,
          "velocity": 0.968503937007874
        },
        {
          "duration": 0.1415049999999951,
          "durationTicks": 192,
          "midi": 67,
          "name": "G4",
          "ticks": 287040,
          "time": 221.32428500000003,
          "velocity": 0.968503937007874
        },
        {
          "duration": 1.766019999999969,
          "durationTicks": 1536,
          "midi": 62,
          "name": "D4",
          "ticks": 287232,
          "time": 221.46579000000003,
          "velocity": 0.968503937007874
        },
        {
          "duration": 1.766019999999969,
          "durationTicks": 1536,
          "midi": 67,
          "name": "G4",
          "ticks": 287232,
          "time": 221.46579000000003,
          "velocity": 0.968503937007874
        },
        {
          "duration": 2.2640799999999786,
          "durationTicks": 3072,
          "midi": 60,
          "name": "C4",
          "ticks": 289536,
          "time": 223.79783,
          "velocity": 0.7165354330708661
        },
        {
          "duration": 2.2640799999999786,
          "durationTicks": 3072,
          "midi": 60,
          "name": "C4",
          "ticks": 289536,
          "time": 223.79783,
          "velocity": 0.7165354330708661
        },
        {
          "duration": 2.264080000000007,
          "durationTicks": 3072,
          "midi": 62,
          "name": "D4",
          "ticks": 292608,
          "time": 226.06190999999998,
          "velocity": 0.7165354330708661
        },
        {
          "duration": 2.264080000000007,
          "durationTicks": 3072,
          "midi": 62,
          "name": "D4",
          "ticks": 292608,
          "time": 226.06190999999998,
          "velocity": 0.7165354330708661
        },
        {
          "duration": 0.5660200000000088,
          "durationTicks": 768,
          "midi": 63,
          "name": "D#4",
          "ticks": 295680,
          "time": 228.32599,
          "velocity": 0.7165354330708661
        },
        {
          "duration": 0.5660200000000088,
          "durationTicks": 768,
          "midi": 63,
          "name": "D#4",
          "ticks": 295680,
          "time": 228.32599,
          "velocity": 0.7165354330708661
        },
        {
          "duration": 0.5660200000000088,
          "durationTicks": 768,
          "midi": 62,
          "name": "D4",
          "ticks": 296448,
          "time": 228.89201,
          "velocity": 0.7165354330708661
        },
        {
          "duration": 0.5660200000000088,
          "durationTicks": 768,
          "midi": 62,
          "name": "D4",
          "ticks": 296448,
          "time": 228.89201,
          "velocity": 0.7165354330708661
        },
        {
          "duration": 0.5660199999999804,
          "durationTicks": 768,
          "midi": 60,
          "name": "C4",
          "ticks": 297216,
          "time": 229.45803,
          "velocity": 0.7165354330708661
        },
        {
          "duration": 0.5660199999999804,
          "durationTicks": 768,
          "midi": 60,
          "name": "C4",
          "ticks": 297216,
          "time": 229.45803,
          "velocity": 0.7165354330708661
        },
        {
          "duration": 0.28301000000001864,
          "durationTicks": 384,
          "midi": 58,
          "name": "A#3",
          "ticks": 297984,
          "time": 230.02405,
          "velocity": 0.7165354330708661
        },
        {
          "duration": 0.28301000000001864,
          "durationTicks": 384,
          "midi": 58,
          "name": "A#3",
          "ticks": 297984,
          "time": 230.02405,
          "velocity": 0.7165354330708661
        },
        {
          "duration": 0.1415049999999951,
          "durationTicks": 192,
          "midi": 60,
          "name": "C4",
          "ticks": 298368,
          "time": 230.30706,
          "velocity": 0.7165354330708661
        },
        {
          "duration": 0.1415049999999951,
          "durationTicks": 192,
          "midi": 60,
          "name": "C4",
          "ticks": 298368,
          "time": 230.30706,
          "velocity": 0.7165354330708661
        },
        {
          "duration": 0.1415049999999951,
          "durationTicks": 192,
          "midi": 62,
          "name": "D4",
          "ticks": 298560,
          "time": 230.448565,
          "velocity": 0.7165354330708661
        },
        {
          "duration": 0.1415049999999951,
          "durationTicks": 192,
          "midi": 62,
          "name": "D4",
          "ticks": 298560,
          "time": 230.448565,
          "velocity": 0.7165354330708661
        },
        {
          "duration": 0.5660200000000088,
          "durationTicks": 768,
          "midi": 63,
          "name": "D#4",
          "ticks": 298752,
          "time": 230.59007,
          "velocity": 0.7165354330708661
        },
        {
          "duration": 0.5660200000000088,
          "durationTicks": 768,
          "midi": 63,
          "name": "D#4",
          "ticks": 298752,
          "time": 230.59007,
          "velocity": 0.7165354330708661
        },
        {
          "duration": 0.5660199999999804,
          "durationTicks": 768,
          "midi": 60,
          "name": "C4",
          "ticks": 299520,
          "time": 231.15609,
          "velocity": 0.7165354330708661
        },
        {
          "duration": 0.5660199999999804,
          "durationTicks": 768,
          "midi": 60,
          "name": "C4",
          "ticks": 299520,
          "time": 231.15609,
          "velocity": 0.7165354330708661
        },
        {
          "duration": 0.28301000000001864,
          "durationTicks": 384,
          "midi": 67,
          "name": "G4",
          "ticks": 300288,
          "time": 231.72211,
          "velocity": 0.6929133858267716
        },
        {
          "duration": 3.4956208854166846,
          "durationTicks": 3794,
          "midi": 67,
          "name": "G4",
          "ticks": 300288,
          "time": 231.72211,
          "velocity": 0.905511811023622
        },
        {
          "duration": 0.29999999999998295,
          "durationTicks": 384,
          "midi": 65,
          "name": "F4",
          "ticks": 301440,
          "time": 232.58813,
          "velocity": 0.8582677165354331
        },
        {
          "duration": 0.33332999999998947,
          "durationTicks": 384,
          "midi": 63,
          "name": "D#4",
          "ticks": 301824,
          "time": 232.88813,
          "velocity": 0.8582677165354331
        },
        {
          "duration": 0.3333300000000179,
          "durationTicks": 384,
          "midi": 62,
          "name": "D4",
          "ticks": 302208,
          "time": 233.22145999999998,
          "velocity": 0.7952755905511811
        },
        {
          "duration": 0.10714250000000902,
          "durationTicks": 96,
          "midi": 63,
          "name": "D#4",
          "ticks": 302592,
          "time": 233.55479,
          "velocity": 0.7952755905511811
        },
        {
          "duration": 0.1071424999999806,
          "durationTicks": 96,
          "midi": 62,
          "name": "D4",
          "ticks": 302688,
          "time": 233.6619325,
          "velocity": 0.7165354330708661
        },
        {
          "duration": 0.10714250000000902,
          "durationTicks": 96,
          "midi": 60,
          "name": "C4",
          "ticks": 302784,
          "time": 233.769075,
          "velocity": 0.7165354330708661
        },
        {
          "duration": 0.10714250000000902,
          "durationTicks": 96,
          "midi": 62,
          "name": "D4",
          "ticks": 302880,
          "time": 233.8762175,
          "velocity": 0.7165354330708661
        },
        {
          "duration": 0.42856999999997925,
          "durationTicks": 384,
          "midi": 65,
          "name": "F4",
          "ticks": 302976,
          "time": 233.98336,
          "velocity": 0.6141732283464567
        },
        {
          "duration": 0.42857000000000767,
          "durationTicks": 384,
          "midi": 63,
          "name": "D#4",
          "ticks": 303360,
          "time": 234.41192999999998,
          "velocity": 0.6141732283464567
        },
        {
          "duration": 0.42857000000000767,
          "durationTicks": 384,
          "midi": 62,
          "name": "D4",
          "ticks": 303744,
          "time": 234.8405,
          "velocity": 0.49606299212598426
        },
        {
          "duration": 1.6666199999999947,
          "durationTicks": 2304,
          "midi": 62,
          "name": "D4",
          "ticks": 304896,
          "time": 235.82461,
          "velocity": 0.7165354330708661
        },
        {
          "duration": 1.6666199999999947,
          "durationTicks": 2304,
          "midi": 65,
          "name": "F4",
          "ticks": 304896,
          "time": 235.82461,
          "velocity": 0.7165354330708661
        },
        {
          "duration": 0.27777000000000385,
          "durationTicks": 384,
          "midi": 60,
          "name": "C4",
          "ticks": 307200,
          "time": 237.49123,
          "velocity": 0.7165354330708661
        },
        {
          "duration": 0.27777000000000385,
          "durationTicks": 384,
          "midi": 63,
          "name": "D#4",
          "ticks": 307200,
          "time": 237.49123,
          "velocity": 0.7165354330708661
        },
        {
          "duration": 1.1110800000000154,
          "durationTicks": 1536,
          "midi": 71,
          "name": "B4",
          "ticks": 308736,
          "time": 238.60231,
          "velocity": 0.7165354330708661
        },
        {
          "duration": 1.1110800000000154,
          "durationTicks": 1536,
          "midi": 71,
          "name": "B4",
          "ticks": 308736,
          "time": 238.60231,
          "velocity": 0.7165354330708661
        },
        {
          "duration": 0.27777000000000385,
          "durationTicks": 384,
          "midi": 72,
          "name": "C5",
          "ticks": 310272,
          "time": 239.71339,
          "velocity": 0.905511811023622
        },
        {
          "duration": 0.27777000000000385,
          "durationTicks": 384,
          "midi": 72,
          "name": "C5",
          "ticks": 310272,
          "time": 239.71339,
          "velocity": 0.905511811023622
        },
        {
          "duration": 0.27777000000000385,
          "durationTicks": 384,
          "midi": 65,
          "name": "F4",
          "ticks": 311808,
          "time": 240.82447,
          "velocity": 0.905511811023622
        },
        {
          "duration": 0.27777000000000385,
          "durationTicks": 384,
          "midi": 68,
          "name": "G#4",
          "ticks": 311808,
          "time": 240.82447,
          "velocity": 0.905511811023622
        },
        {
          "duration": 0.13888500000001613,
          "durationTicks": 192,
          "midi": 63,
          "name": "D#4",
          "ticks": 312768,
          "time": 241.518895,
          "velocity": 0.905511811023622
        },
        {
          "duration": 0.13888500000001613,
          "durationTicks": 192,
          "midi": 67,
          "name": "G4",
          "ticks": 312768,
          "time": 241.518895,
          "velocity": 0.905511811023622
        },
        {
          "duration": 0.1388849999999877,
          "durationTicks": 192,
          "midi": 63,
          "name": "D#4",
          "ticks": 312960,
          "time": 241.65778,
          "velocity": 0.905511811023622
        },
        {
          "duration": 0.1388849999999877,
          "durationTicks": 192,
          "midi": 67,
          "name": "G4",
          "ticks": 312960,
          "time": 241.65778,
          "velocity": 0.905511811023622
        },
        {
          "duration": 0.13888500000001613,
          "durationTicks": 192,
          "midi": 63,
          "name": "D#4",
          "ticks": 313152,
          "time": 241.796665,
          "velocity": 0.905511811023622
        },
        {
          "duration": 0.13888500000001613,
          "durationTicks": 192,
          "midi": 67,
          "name": "G4",
          "ticks": 313152,
          "time": 241.796665,
          "velocity": 0.905511811023622
        },
        {
          "duration": 0.27777000000000385,
          "durationTicks": 384,
          "midi": 63,
          "name": "D#4",
          "ticks": 313344,
          "time": 241.93555,
          "velocity": 0.905511811023622
        },
        {
          "duration": 0.27777000000000385,
          "durationTicks": 384,
          "midi": 67,
          "name": "G4",
          "ticks": 313344,
          "time": 241.93555,
          "velocity": 0.905511811023622
        },
        {
          "duration": 0.27521999999999025,
          "durationTicks": 384,
          "midi": 65,
          "name": "F4",
          "ticks": 314112,
          "time": 242.49108999999999,
          "velocity": 0.905511811023622
        },
        {
          "duration": 0.27521999999999025,
          "durationTicks": 384,
          "midi": 68,
          "name": "G#4",
          "ticks": 314112,
          "time": 242.49108999999999,
          "velocity": 0.905511811023622
        },
        {
          "duration": 0.27521999999999025,
          "durationTicks": 384,
          "midi": 64,
          "name": "E4",
          "ticks": 314880,
          "time": 243.04153,
          "velocity": 0.905511811023622
        },
        {
          "duration": 0.27521999999999025,
          "durationTicks": 384,
          "midi": 67,
          "name": "G4",
          "ticks": 314880,
          "time": 243.04153,
          "velocity": 0.905511811023622
        },
        {
          "duration": 0.27522000000001867,
          "durationTicks": 384,
          "midi": 65,
          "name": "F4",
          "ticks": 315648,
          "time": 243.59196999999998,
          "velocity": 0.905511811023622
        },
        {
          "duration": 0.27522000000001867,
          "durationTicks": 384,
          "midi": 68,
          "name": "G#4",
          "ticks": 315648,
          "time": 243.59196999999998,
          "velocity": 0.905511811023622
        },
        {
          "duration": 0.27521999999999025,
          "durationTicks": 384,
          "midi": 67,
          "name": "G4",
          "ticks": 316416,
          "time": 244.14240999999998,
          "velocity": 0.905511811023622
        },
        {
          "duration": 0.27521999999999025,
          "durationTicks": 384,
          "midi": 70,
          "name": "A#4",
          "ticks": 316416,
          "time": 244.14240999999998,
          "velocity": 0.905511811023622
        },
        {
          "duration": 0.27521999999999025,
          "durationTicks": 384,
          "midi": 65,
          "name": "F4",
          "ticks": 317184,
          "time": 244.69285,
          "velocity": 0.905511811023622
        },
        {
          "duration": 0.27521999999999025,
          "durationTicks": 384,
          "midi": 68,
          "name": "G#4",
          "ticks": 317184,
          "time": 244.69285,
          "velocity": 0.905511811023622
        },
        {
          "duration": 0.27522000000001867,
          "durationTicks": 384,
          "midi": 65,
          "name": "F4",
          "ticks": 317952,
          "time": 245.24328999999997,
          "velocity": 0.905511811023622
        },
        {
          "duration": 0.27522000000001867,
          "durationTicks": 384,
          "midi": 68,
          "name": "G#4",
          "ticks": 317952,
          "time": 245.24328999999997,
          "velocity": 0.905511811023622
        },
        {
          "duration": 2.181759999999997,
          "durationTicks": 3072,
          "midi": 63,
          "name": "D#4",
          "ticks": 318720,
          "time": 245.79372999999998,
          "velocity": 0.905511811023622
        },
        {
          "duration": 2.181759999999997,
          "durationTicks": 3072,
          "midi": 67,
          "name": "G4",
          "ticks": 318720,
          "time": 245.79372999999998,
          "velocity": 0.905511811023622
        },
        {
          "duration": 1.9090400000000045,
          "durationTicks": 2688,
          "midi": 65,
          "name": "F4",
          "ticks": 321792,
          "time": 247.97548999999998,
          "velocity": 0.905511811023622
        },
        {
          "duration": 1.9090400000000045,
          "durationTicks": 2688,
          "midi": 67,
          "name": "G4",
          "ticks": 321792,
          "time": 247.97548999999998,
          "velocity": 0.905511811023622
        },
        {
          "duration": 0.2727199999999925,
          "durationTicks": 384,
          "midi": 63,
          "name": "D#4",
          "ticks": 324480,
          "time": 249.88452999999998,
          "velocity": 0.905511811023622
        },
        {
          "duration": 0.2727199999999925,
          "durationTicks": 384,
          "midi": 67,
          "name": "G4",
          "ticks": 324480,
          "time": 249.88452999999998,
          "velocity": 0.905511811023622
        },
        {
          "duration": 2.181759999999997,
          "durationTicks": 3072,
          "midi": 66,
          "name": "F#4",
          "ticks": 324864,
          "time": 250.15724999999998,
          "velocity": 0.968503937007874
        },
        {
          "duration": 2.181759999999997,
          "durationTicks": 3072,
          "midi": 69,
          "name": "A4",
          "ticks": 324864,
          "time": 250.15724999999998,
          "velocity": 0.968503937007874
        },
        {
          "duration": 0.2941099999999892,
          "durationTicks": 384,
          "midi": 66,
          "name": "F#4",
          "ticks": 327936,
          "time": 252.33900999999997,
          "velocity": 0.968503937007874
        },
        {
          "duration": 0.2941099999999892,
          "durationTicks": 384,
          "midi": 69,
          "name": "A4",
          "ticks": 327936,
          "time": 252.33900999999997,
          "velocity": 0.968503937007874
        },
        {
          "duration": 0.2941099999999892,
          "durationTicks": 384,
          "midi": 62,
          "name": "D4",
          "ticks": 329472,
          "time": 253.51545,
          "velocity": 0.968503937007874
        },
        {
          "duration": 0.2941099999999892,
          "durationTicks": 384,
          "midi": 67,
          "name": "G4",
          "ticks": 329472,
          "time": 253.51545,
          "velocity": 0.968503937007874
        },
        {
          "duration": 0.5882200000000353,
          "durationTicks": 768,
          "midi": 60,
          "name": "C4",
          "ticks": 336384,
          "time": 258.80942999999996,
          "velocity": 0.7165354330708661
        },
        {
          "duration": 0.5882200000000353,
          "durationTicks": 768,
          "midi": 64,
          "name": "E4",
          "ticks": 336384,
          "time": 258.80942999999996,
          "velocity": 0.7165354330708661
        },
        {
          "duration": 0.5882199999999784,
          "durationTicks": 768,
          "midi": 62,
          "name": "D4",
          "ticks": 337152,
          "time": 259.39765,
          "velocity": 0.7165354330708661
        },
        {
          "duration": 0.5882199999999784,
          "durationTicks": 768,
          "midi": 65,
          "name": "F4",
          "ticks": 337152,
          "time": 259.39765,
          "velocity": 0.7165354330708661
        },
        {
          "duration": 0.5882199999999784,
          "durationTicks": 768,
          "midi": 59,
          "name": "B3",
          "ticks": 337920,
          "time": 259.98587,
          "velocity": 0.7165354330708661
        },
        {
          "duration": 0.5882199999999784,
          "durationTicks": 768,
          "midi": 65,
          "name": "F4",
          "ticks": 337920,
          "time": 259.98587,
          "velocity": 0.7165354330708661
        },
        {
          "duration": 0.5882200000000353,
          "durationTicks": 768,
          "midi": 60,
          "name": "C4",
          "ticks": 338688,
          "time": 260.57408999999996,
          "velocity": 0.7165354330708661
        },
        {
          "duration": 0.5882200000000353,
          "durationTicks": 768,
          "midi": 64,
          "name": "E4",
          "ticks": 338688,
          "time": 260.57408999999996,
          "velocity": 0.7165354330708661
        },
        {
          "duration": 0.5769200000000296,
          "durationTicks": 768,
          "midi": 60,
          "name": "C4",
          "ticks": 342528,
          "time": 263.48128999999994,
          "velocity": 0.7165354330708661
        },
        {
          "duration": 0.5769200000000296,
          "durationTicks": 768,
          "midi": 64,
          "name": "E4",
          "ticks": 342528,
          "time": 263.48128999999994,
          "velocity": 0.7165354330708661
        },
        {
          "duration": 0.5769199999999728,
          "durationTicks": 768,
          "midi": 62,
          "name": "D4",
          "ticks": 343296,
          "time": 264.05821,
          "velocity": 0.7165354330708661
        },
        {
          "duration": 0.5769199999999728,
          "durationTicks": 768,
          "midi": 65,
          "name": "F4",
          "ticks": 343296,
          "time": 264.05821,
          "velocity": 0.7165354330708661
        },
        {
          "duration": 0.5769200000000296,
          "durationTicks": 768,
          "midi": 59,
          "name": "B3",
          "ticks": 344064,
          "time": 264.63512999999995,
          "velocity": 0.7165354330708661
        },
        {
          "duration": 0.5769200000000296,
          "durationTicks": 768,
          "midi": 65,
          "name": "F4",
          "ticks": 344064,
          "time": 264.63512999999995,
          "velocity": 0.7165354330708661
        },
        {
          "duration": 0.5769199999999728,
          "durationTicks": 768,
          "midi": 60,
          "name": "C4",
          "ticks": 344832,
          "time": 265.21205,
          "velocity": 0.7165354330708661
        },
        {
          "duration": 0.5769199999999728,
          "durationTicks": 768,
          "midi": 64,
          "name": "E4",
          "ticks": 344832,
          "time": 265.21205,
          "velocity": 0.7165354330708661
        },
        {
          "duration": 0.83331000000004,
          "durationTicks": 1152,
          "midi": 67,
          "name": "G4",
          "ticks": 363264,
          "time": 278.77640999999994,
          "velocity": 0.968503937007874
        },
        {
          "duration": 0.83331000000004,
          "durationTicks": 1152,
          "midi": 71,
          "name": "B4",
          "ticks": 363264,
          "time": 278.77640999999994,
          "velocity": 0.968503937007874
        },
        {
          "duration": 0.2777699999999754,
          "durationTicks": 384,
          "midi": 67,
          "name": "G4",
          "ticks": 364416,
          "time": 279.60972,
          "velocity": 0.968503937007874
        },
        {
          "duration": 0.2777699999999754,
          "durationTicks": 384,
          "midi": 74,
          "name": "D5",
          "ticks": 364416,
          "time": 279.60972,
          "velocity": 0.968503937007874
        },
        {
          "duration": 0.27777000000003227,
          "durationTicks": 384,
          "midi": 67,
          "name": "G4",
          "ticks": 364800,
          "time": 279.88748999999996,
          "velocity": 0.968503937007874
        },
        {
          "duration": 0.27777000000003227,
          "durationTicks": 384,
          "midi": 72,
          "name": "C5",
          "ticks": 364800,
          "time": 279.88748999999996,
          "velocity": 0.968503937007874
        },
        {
          "duration": 0.2777699999999754,
          "durationTicks": 384,
          "midi": 65,
          "name": "F4",
          "ticks": 365568,
          "time": 280.44302999999996,
          "velocity": 0.968503937007874
        },
        {
          "duration": 0.2777699999999754,
          "durationTicks": 384,
          "midi": 67,
          "name": "G4",
          "ticks": 365568,
          "time": 280.44302999999996,
          "velocity": 0.968503937007874
        },
        {
          "duration": 0.2777699999999754,
          "durationTicks": 384,
          "midi": 60,
          "name": "C4",
          "ticks": 366336,
          "time": 280.99857,
          "velocity": 0.968503937007874
        },
        {
          "duration": 0.2777699999999754,
          "durationTicks": 384,
          "midi": 67,
          "name": "G4",
          "ticks": 366336,
          "time": 280.99857,
          "velocity": 0.968503937007874
        },
        {
          "duration": 0.2777699999999754,
          "durationTicks": 384,
          "midi": 62,
          "name": "D4",
          "ticks": 367104,
          "time": 281.55411,
          "velocity": 0.968503937007874
        },
        {
          "duration": 0.2777699999999754,
          "durationTicks": 384,
          "midi": 72,
          "name": "C5",
          "ticks": 367104,
          "time": 281.55411,
          "velocity": 0.968503937007874
        },
        {
          "duration": 0.2777699999999754,
          "durationTicks": 384,
          "midi": 64,
          "name": "E4",
          "ticks": 367872,
          "time": 282.10965,
          "velocity": 0.968503937007874
        },
        {
          "duration": 0.2777699999999754,
          "durationTicks": 384,
          "midi": 72,
          "name": "C5",
          "ticks": 367872,
          "time": 282.10965,
          "velocity": 0.968503937007874
        },
        {
          "duration": 0.2777699999999754,
          "durationTicks": 384,
          "midi": 62,
          "name": "D4",
          "ticks": 368640,
          "time": 282.66519,
          "velocity": 0.968503937007874
        },
        {
          "duration": 0.2777699999999754,
          "durationTicks": 384,
          "midi": 71,
          "name": "B4",
          "ticks": 368640,
          "time": 282.66519,
          "velocity": 0.968503937007874
        },
        {
          "duration": 1.1110800000000154,
          "durationTicks": 1536,
          "midi": 65,
          "name": "F4",
          "ticks": 369408,
          "time": 283.22072999999995,
          "velocity": 0.968503937007874
        },
        {
          "duration": 1.1110800000000154,
          "durationTicks": 1536,
          "midi": 74,
          "name": "D5",
          "ticks": 369408,
          "time": 283.22072999999995,
          "velocity": 0.968503937007874
        },
        {
          "duration": 0.27777000000003227,
          "durationTicks": 384,
          "midi": 64,
          "name": "E4",
          "ticks": 370944,
          "time": 284.33180999999996,
          "velocity": 0.968503937007874
        },
        {
          "duration": 0.27777000000003227,
          "durationTicks": 384,
          "midi": 72,
          "name": "C5",
          "ticks": 370944,
          "time": 284.33180999999996,
          "velocity": 0.968503937007874
        },
        {
          "duration": 0.2777699999999754,
          "durationTicks": 384,
          "midi": 64,
          "name": "E4",
          "ticks": 371328,
          "time": 284.60958,
          "velocity": 0.968503937007874
        },
        {
          "duration": 0.2777699999999754,
          "durationTicks": 384,
          "midi": 72,
          "name": "C5",
          "ticks": 371328,
          "time": 284.60958,
          "velocity": 0.968503937007874
        },
        {
          "duration": 0.27777000000003227,
          "durationTicks": 384,
          "midi": 62,
          "name": "D4",
          "ticks": 372096,
          "time": 285.16511999999994,
          "velocity": 0.968503937007874
        },
        {
          "duration": 0.27777000000003227,
          "durationTicks": 384,
          "midi": 71,
          "name": "B4",
          "ticks": 372096,
          "time": 285.16511999999994,
          "velocity": 0.968503937007874
        },
        {
          "duration": 0.27777000000003227,
          "durationTicks": 384,
          "midi": 64,
          "name": "E4",
          "ticks": 372864,
          "time": 285.72065999999995,
          "velocity": 0.968503937007874
        },
        {
          "duration": 0.27777000000003227,
          "durationTicks": 384,
          "midi": 72,
          "name": "C5",
          "ticks": 372864,
          "time": 285.72065999999995,
          "velocity": 0.968503937007874
        },
        {
          "duration": 0.27777000000003227,
          "durationTicks": 384,
          "midi": 62,
          "name": "D4",
          "ticks": 373632,
          "time": 286.27619999999996,
          "velocity": 0.968503937007874
        },
        {
          "duration": 0.27777000000003227,
          "durationTicks": 384,
          "midi": 72,
          "name": "C5",
          "ticks": 373632,
          "time": 286.27619999999996,
          "velocity": 0.968503937007874
        },
        {
          "duration": 0.2777699999999754,
          "durationTicks": 384,
          "midi": 64,
          "name": "E4",
          "ticks": 374400,
          "time": 286.83173999999997,
          "velocity": 0.968503937007874
        },
        {
          "duration": 0.2777699999999754,
          "durationTicks": 384,
          "midi": 72,
          "name": "C5",
          "ticks": 374400,
          "time": 286.83173999999997,
          "velocity": 0.968503937007874
        },
        {
          "duration": 0.2777699999999754,
          "durationTicks": 384,
          "midi": 62,
          "name": "D4",
          "ticks": 375168,
          "time": 287.38728,
          "velocity": 0.968503937007874
        },
        {
          "duration": 0.2777699999999754,
          "durationTicks": 384,
          "midi": 71,
          "name": "B4",
          "ticks": 375168,
          "time": 287.38728,
          "velocity": 0.968503937007874
        },
        {
          "duration": 0.13888500000001613,
          "durationTicks": 192,
          "midi": 64,
          "name": "E4",
          "ticks": 375552,
          "time": 287.66504999999995,
          "velocity": 0.968503937007874
        },
        {
          "duration": 0.13888500000001613,
          "durationTicks": 192,
          "midi": 72,
          "name": "C5",
          "ticks": 375552,
          "time": 287.66504999999995,
          "velocity": 0.968503937007874
        },
        {
          "duration": 0.13888500000001613,
          "durationTicks": 192,
          "midi": 64,
          "name": "E4",
          "ticks": 375744,
          "time": 287.80393499999997,
          "velocity": 0.968503937007874
        },
        {
          "duration": 0.13888500000001613,
          "durationTicks": 192,
          "midi": 64,
          "name": "E4",
          "ticks": 375744,
          "time": 287.80393499999997,
          "velocity": 0.968503937007874
        },
        {
          "duration": 0.1388849999999593,
          "durationTicks": 192,
          "midi": 64,
          "name": "E4",
          "ticks": 375936,
          "time": 287.94282,
          "velocity": 0.968503937007874
        },
        {
          "duration": 0.1388849999999593,
          "durationTicks": 192,
          "midi": 64,
          "name": "E4",
          "ticks": 375936,
          "time": 287.94282,
          "velocity": 0.968503937007874
        },
        {
          "duration": 0.13888500000001613,
          "durationTicks": 192,
          "midi": 64,
          "name": "E4",
          "ticks": 376128,
          "time": 288.08170499999994,
          "velocity": 0.968503937007874
        },
        {
          "duration": 0.13888500000001613,
          "durationTicks": 192,
          "midi": 64,
          "name": "E4",
          "ticks": 376128,
          "time": 288.08170499999994,
          "velocity": 0.968503937007874
        },
        {
          "duration": 0.13888500000001613,
          "durationTicks": 192,
          "midi": 60,
          "name": "C4",
          "ticks": 376320,
          "time": 288.22058999999996,
          "velocity": 0.968503937007874
        },
        {
          "duration": 0.13888500000001613,
          "durationTicks": 192,
          "midi": 60,
          "name": "C4",
          "ticks": 376320,
          "time": 288.22058999999996,
          "velocity": 0.968503937007874
        },
        {
          "duration": 0.13888500000001613,
          "durationTicks": 192,
          "midi": 67,
          "name": "G4",
          "ticks": 376512,
          "time": 288.359475,
          "velocity": 0.968503937007874
        },
        {
          "duration": 0.13888500000001613,
          "durationTicks": 192,
          "midi": 67,
          "name": "G4",
          "ticks": 376512,
          "time": 288.359475,
          "velocity": 0.968503937007874
        },
        {
          "duration": 0.1388849999999593,
          "durationTicks": 192,
          "midi": 67,
          "name": "G4",
          "ticks": 376704,
          "time": 288.49836,
          "velocity": 0.968503937007874
        },
        {
          "duration": 0.1388849999999593,
          "durationTicks": 192,
          "midi": 67,
          "name": "G4",
          "ticks": 376704,
          "time": 288.49836,
          "velocity": 0.968503937007874
        },
        {
          "duration": 0.13888500000001613,
          "durationTicks": 192,
          "midi": 67,
          "name": "G4",
          "ticks": 376896,
          "time": 288.63724499999995,
          "velocity": 0.968503937007874
        },
        {
          "duration": 0.13888500000001613,
          "durationTicks": 192,
          "midi": 67,
          "name": "G4",
          "ticks": 376896,
          "time": 288.63724499999995,
          "velocity": 0.968503937007874
        },
        {
          "duration": 0.13888500000001613,
          "durationTicks": 192,
          "midi": 64,
          "name": "E4",
          "ticks": 377088,
          "time": 288.77612999999997,
          "velocity": 0.968503937007874
        },
        {
          "duration": 0.13888500000001613,
          "durationTicks": 192,
          "midi": 64,
          "name": "E4",
          "ticks": 377088,
          "time": 288.77612999999997,
          "velocity": 0.968503937007874
        },
        {
          "duration": 0.1388849999999593,
          "durationTicks": 192,
          "midi": 60,
          "name": "C4",
          "ticks": 377280,
          "time": 288.915015,
          "velocity": 0.968503937007874
        },
        {
          "duration": 0.1388849999999593,
          "durationTicks": 192,
          "midi": 60,
          "name": "C4",
          "ticks": 377280,
          "time": 288.915015,
          "velocity": 0.968503937007874
        },
        {
          "duration": 0.13888500000001613,
          "durationTicks": 192,
          "midi": 60,
          "name": "C4",
          "ticks": 377472,
          "time": 289.05389999999994,
          "velocity": 0.968503937007874
        },
        {
          "duration": 0.13888500000001613,
          "durationTicks": 192,
          "midi": 60,
          "name": "C4",
          "ticks": 377472,
          "time": 289.05389999999994,
          "velocity": 0.968503937007874
        },
        {
          "duration": 0.13888500000001613,
          "durationTicks": 192,
          "midi": 60,
          "name": "C4",
          "ticks": 377664,
          "time": 289.19278499999996,
          "velocity": 0.968503937007874
        },
        {
          "duration": 0.13888500000001613,
          "durationTicks": 192,
          "midi": 60,
          "name": "C4",
          "ticks": 377664,
          "time": 289.19278499999996,
          "velocity": 0.968503937007874
        },
        {
          "duration": 0.694424999999967,
          "durationTicks": 960,
          "midi": 55,
          "name": "G3",
          "ticks": 377856,
          "time": 289.33167,
          "velocity": 0.968503937007874
        },
        {
          "duration": 0.694424999999967,
          "durationTicks": 960,
          "midi": 55,
          "name": "G3",
          "ticks": 377856,
          "time": 289.33167,
          "velocity": 0.968503937007874
        },
        {
          "duration": 0.13888500000001613,
          "durationTicks": 192,
          "midi": 64,
          "name": "E4",
          "ticks": 378816,
          "time": 290.02609499999994,
          "velocity": 0.968503937007874
        },
        {
          "duration": 0.13888500000001613,
          "durationTicks": 192,
          "midi": 64,
          "name": "E4",
          "ticks": 378816,
          "time": 290.02609499999994,
          "velocity": 0.968503937007874
        },
        {
          "duration": 0.13888500000001613,
          "durationTicks": 192,
          "midi": 64,
          "name": "E4",
          "ticks": 379008,
          "time": 290.16497999999996,
          "velocity": 0.968503937007874
        },
        {
          "duration": 0.13888500000001613,
          "durationTicks": 192,
          "midi": 64,
          "name": "E4",
          "ticks": 379008,
          "time": 290.16497999999996,
          "velocity": 0.968503937007874
        },
        {
          "duration": 0.13888500000001613,
          "durationTicks": 192,
          "midi": 64,
          "name": "E4",
          "ticks": 379200,
          "time": 290.303865,
          "velocity": 0.968503937007874
        },
        {
          "duration": 0.13888500000001613,
          "durationTicks": 192,
          "midi": 64,
          "name": "E4",
          "ticks": 379200,
          "time": 290.303865,
          "velocity": 0.968503937007874
        },
        {
          "duration": 0.1388849999999593,
          "durationTicks": 192,
          "midi": 60,
          "name": "C4",
          "ticks": 379392,
          "time": 290.44275,
          "velocity": 0.968503937007874
        },
        {
          "duration": 0.1388849999999593,
          "durationTicks": 192,
          "midi": 60,
          "name": "C4",
          "ticks": 379392,
          "time": 290.44275,
          "velocity": 0.968503937007874
        },
        {
          "duration": 0.13888500000001613,
          "durationTicks": 192,
          "midi": 67,
          "name": "G4",
          "ticks": 379584,
          "time": 290.58163499999995,
          "velocity": 0.968503937007874
        },
        {
          "duration": 0.13888500000001613,
          "durationTicks": 192,
          "midi": 67,
          "name": "G4",
          "ticks": 379584,
          "time": 290.58163499999995,
          "velocity": 0.968503937007874
        },
        {
          "duration": 0.13888500000001613,
          "durationTicks": 192,
          "midi": 67,
          "name": "G4",
          "ticks": 379776,
          "time": 290.72051999999996,
          "velocity": 0.968503937007874
        },
        {
          "duration": 0.13888500000001613,
          "durationTicks": 192,
          "midi": 67,
          "name": "G4",
          "ticks": 379776,
          "time": 290.72051999999996,
          "velocity": 0.968503937007874
        },
        {
          "duration": 0.13888500000001613,
          "durationTicks": 192,
          "midi": 67,
          "name": "G4",
          "ticks": 379968,
          "time": 290.859405,
          "velocity": 0.968503937007874
        },
        {
          "duration": 0.13888500000001613,
          "durationTicks": 192,
          "midi": 67,
          "name": "G4",
          "ticks": 379968,
          "time": 290.859405,
          "velocity": 0.968503937007874
        },
        {
          "duration": 0.1388849999999593,
          "durationTicks": 192,
          "midi": 64,
          "name": "E4",
          "ticks": 380160,
          "time": 290.99829,
          "velocity": 0.968503937007874
        },
        {
          "duration": 0.1388849999999593,
          "durationTicks": 192,
          "midi": 64,
          "name": "E4",
          "ticks": 380160,
          "time": 290.99829,
          "velocity": 0.968503937007874
        },
        {
          "duration": 0.13888500000001613,
          "durationTicks": 192,
          "midi": 60,
          "name": "C4",
          "ticks": 380352,
          "time": 291.13717499999996,
          "velocity": 0.968503937007874
        },
        {
          "duration": 0.13888500000001613,
          "durationTicks": 192,
          "midi": 60,
          "name": "C4",
          "ticks": 380352,
          "time": 291.13717499999996,
          "velocity": 0.968503937007874
        },
        {
          "duration": 0.13888500000001613,
          "durationTicks": 192,
          "midi": 60,
          "name": "C4",
          "ticks": 380544,
          "time": 291.27606,
          "velocity": 0.968503937007874
        },
        {
          "duration": 0.13888500000001613,
          "durationTicks": 192,
          "midi": 60,
          "name": "C4",
          "ticks": 380544,
          "time": 291.27606,
          "velocity": 0.968503937007874
        },
        {
          "duration": 0.1388849999999593,
          "durationTicks": 192,
          "midi": 60,
          "name": "C4",
          "ticks": 380736,
          "time": 291.414945,
          "velocity": 0.968503937007874
        },
        {
          "duration": 0.1388849999999593,
          "durationTicks": 192,
          "midi": 60,
          "name": "C4",
          "ticks": 380736,
          "time": 291.414945,
          "velocity": 0.968503937007874
        },
        {
          "duration": 0.13888500000001613,
          "durationTicks": 192,
          "midi": 55,
          "name": "G3",
          "ticks": 380928,
          "time": 291.55382999999995,
          "velocity": 0.968503937007874
        },
        {
          "duration": 0.13888500000001613,
          "durationTicks": 192,
          "midi": 55,
          "name": "G3",
          "ticks": 380928,
          "time": 291.55382999999995,
          "velocity": 0.968503937007874
        },
        {
          "duration": 0.13888500000001613,
          "durationTicks": 192,
          "midi": 59,
          "name": "B3",
          "ticks": 381120,
          "time": 291.69271499999996,
          "velocity": 0.968503937007874
        },
        {
          "duration": 0.13888500000001613,
          "durationTicks": 192,
          "midi": 62,
          "name": "D4",
          "ticks": 381120,
          "time": 291.69271499999996,
          "velocity": 0.968503937007874
        },
        {
          "duration": 0.1388849999999593,
          "durationTicks": 192,
          "midi": 59,
          "name": "B3",
          "ticks": 381312,
          "time": 291.8316,
          "velocity": 0.968503937007874
        },
        {
          "duration": 0.1388849999999593,
          "durationTicks": 192,
          "midi": 62,
          "name": "D4",
          "ticks": 381312,
          "time": 291.8316,
          "velocity": 0.968503937007874
        },
        {
          "duration": 0.13888500000001613,
          "durationTicks": 192,
          "midi": 59,
          "name": "B3",
          "ticks": 381504,
          "time": 291.97048499999994,
          "velocity": 0.968503937007874
        },
        {
          "duration": 0.13888500000001613,
          "durationTicks": 192,
          "midi": 62,
          "name": "D4",
          "ticks": 381504,
          "time": 291.97048499999994,
          "velocity": 0.968503937007874
        },
        {
          "duration": 0.27777000000003227,
          "durationTicks": 384,
          "midi": 60,
          "name": "C4",
          "ticks": 381696,
          "time": 292.10936999999996,
          "velocity": 0.968503937007874
        },
        {
          "duration": 0.27777000000003227,
          "durationTicks": 384,
          "midi": 64,
          "name": "E4",
          "ticks": 381696,
          "time": 292.10936999999996,
          "velocity": 0.968503937007874
        },
        {
          "duration": 0.13888500000001613,
          "durationTicks": 192,
          "midi": 59,
          "name": "B3",
          "ticks": 382656,
          "time": 292.803795,
          "velocity": 0.968503937007874
        },
        {
          "duration": 0.13888500000001613,
          "durationTicks": 192,
          "midi": 62,
          "name": "D4",
          "ticks": 382656,
          "time": 292.803795,
          "velocity": 0.968503937007874
        },
        {
          "duration": 0.1388849999999593,
          "durationTicks": 192,
          "midi": 59,
          "name": "B3",
          "ticks": 382848,
          "time": 292.94268,
          "velocity": 0.968503937007874
        },
        {
          "duration": 0.1388849999999593,
          "durationTicks": 192,
          "midi": 62,
          "name": "D4",
          "ticks": 382848,
          "time": 292.94268,
          "velocity": 0.968503937007874
        },
        {
          "duration": 0.13888500000001613,
          "durationTicks": 192,
          "midi": 59,
          "name": "B3",
          "ticks": 383040,
          "time": 293.08156499999996,
          "velocity": 0.968503937007874
        },
        {
          "duration": 0.13888500000001613,
          "durationTicks": 192,
          "midi": 62,
          "name": "D4",
          "ticks": 383040,
          "time": 293.08156499999996,
          "velocity": 0.968503937007874
        },
        {
          "duration": 0.2777699999999754,
          "durationTicks": 384,
          "midi": 60,
          "name": "C4",
          "ticks": 383232,
          "time": 293.22044999999997,
          "velocity": 0.968503937007874
        },
        {
          "duration": 0.2777699999999754,
          "durationTicks": 384,
          "midi": 64,
          "name": "E4",
          "ticks": 383232,
          "time": 293.22044999999997,
          "velocity": 0.968503937007874
        },
        {
          "duration": 0.1388849999999593,
          "durationTicks": 192,
          "midi": 62,
          "name": "D4",
          "ticks": 384192,
          "time": 293.914875,
          "velocity": 0.968503937007874
        },
        {
          "duration": 0.1388849999999593,
          "durationTicks": 192,
          "midi": 67,
          "name": "G4",
          "ticks": 384192,
          "time": 293.914875,
          "velocity": 0.968503937007874
        },
        {
          "duration": 0.13888500000001613,
          "durationTicks": 192,
          "midi": 62,
          "name": "D4",
          "ticks": 384384,
          "time": 294.05375999999995,
          "velocity": 0.968503937007874
        },
        {
          "duration": 0.13888500000001613,
          "durationTicks": 192,
          "midi": 67,
          "name": "G4",
          "ticks": 384384,
          "time": 294.05375999999995,
          "velocity": 0.968503937007874
        },
        {
          "duration": 0.13888500000001613,
          "durationTicks": 192,
          "midi": 62,
          "name": "D4",
          "ticks": 384576,
          "time": 294.19264499999997,
          "velocity": 0.968503937007874
        },
        {
          "duration": 0.13888500000001613,
          "durationTicks": 192,
          "midi": 67,
          "name": "G4",
          "ticks": 384576,
          "time": 294.19264499999997,
          "velocity": 0.968503937007874
        },
        {
          "duration": 0.1388849999999593,
          "durationTicks": 192,
          "midi": 64,
          "name": "E4",
          "ticks": 384768,
          "time": 294.33153,
          "velocity": 0.968503937007874
        },
        {
          "duration": 0.1388849999999593,
          "durationTicks": 192,
          "midi": 67,
          "name": "G4",
          "ticks": 384768,
          "time": 294.33153,
          "velocity": 0.968503937007874
        },
        {
          "duration": 0.13888500000001613,
          "durationTicks": 192,
          "midi": 60,
          "name": "C4",
          "ticks": 384960,
          "time": 294.47041499999995,
          "velocity": 0.968503937007874
        },
        {
          "duration": 0.13888500000001613,
          "durationTicks": 192,
          "midi": 72,
          "name": "C5",
          "ticks": 384960,
          "time": 294.47041499999995,
          "velocity": 0.968503937007874
        },
        {
          "duration": 0.13888500000001613,
          "durationTicks": 192,
          "midi": 60,
          "name": "C4",
          "ticks": 385152,
          "time": 294.60929999999996,
          "velocity": 0.968503937007874
        },
        {
          "duration": 0.13888500000001613,
          "durationTicks": 192,
          "midi": 72,
          "name": "C5",
          "ticks": 385152,
          "time": 294.60929999999996,
          "velocity": 0.968503937007874
        },
        {
          "duration": 0.13888500000001613,
          "durationTicks": 192,
          "midi": 60,
          "name": "C4",
          "ticks": 385344,
          "time": 294.748185,
          "velocity": 0.968503937007874
        },
        {
          "duration": 0.13888500000001613,
          "durationTicks": 192,
          "midi": 72,
          "name": "C5",
          "ticks": 385344,
          "time": 294.748185,
          "velocity": 0.968503937007874
        },
        {
          "duration": 0.694424999999967,
          "durationTicks": 960,
          "midi": 60,
          "name": "C4",
          "ticks": 385536,
          "time": 294.88707,
          "velocity": 0.968503937007874
        },
        {
          "duration": 0.694424999999967,
          "durationTicks": 960,
          "midi": 72,
          "name": "C5",
          "ticks": 385536,
          "time": 294.88707,
          "velocity": 0.968503937007874
        },
        {
          "duration": 0.13888500000001613,
          "durationTicks": 192,
          "midi": 60,
          "name": "C4",
          "ticks": 386496,
          "time": 295.58149499999996,
          "velocity": 0.968503937007874
        },
        {
          "duration": 0.13888500000001613,
          "durationTicks": 192,
          "midi": 72,
          "name": "C5",
          "ticks": 386496,
          "time": 295.58149499999996,
          "velocity": 0.968503937007874
        },
        {
          "duration": 0.13888500000001613,
          "durationTicks": 192,
          "midi": 60,
          "name": "C4",
          "ticks": 386688,
          "time": 295.72038,
          "velocity": 0.968503937007874
        },
        {
          "duration": 0.13888500000001613,
          "durationTicks": 192,
          "midi": 72,
          "name": "C5",
          "ticks": 386688,
          "time": 295.72038,
          "velocity": 0.968503937007874
        },
        {
          "duration": 0.1388849999999593,
          "durationTicks": 192,
          "midi": 60,
          "name": "C4",
          "ticks": 386880,
          "time": 295.859265,
          "velocity": 0.968503937007874
        },
        {
          "duration": 0.1388849999999593,
          "durationTicks": 192,
          "midi": 72,
          "name": "C5",
          "ticks": 386880,
          "time": 295.859265,
          "velocity": 0.968503937007874
        },
        {
          "duration": 0.6944250000000238,
          "durationTicks": 960,
          "midi": 60,
          "name": "C4",
          "ticks": 387072,
          "time": 295.99814999999995,
          "velocity": 0.968503937007874
        },
        {
          "duration": 0.6944250000000238,
          "durationTicks": 960,
          "midi": 72,
          "name": "C5",
          "ticks": 387072,
          "time": 295.99814999999995,
          "velocity": 0.968503937007874
        },
        {
          "duration": 0.13888500000001613,
          "durationTicks": 192,
          "midi": 60,
          "name": "C4",
          "ticks": 388032,
          "time": 296.692575,
          "velocity": 0.968503937007874
        },
        {
          "duration": 0.13888500000001613,
          "durationTicks": 192,
          "midi": 72,
          "name": "C5",
          "ticks": 388032,
          "time": 296.692575,
          "velocity": 0.968503937007874
        },
        {
          "duration": 0.1388849999999593,
          "durationTicks": 192,
          "midi": 60,
          "name": "C4",
          "ticks": 388224,
          "time": 296.83146,
          "velocity": 0.968503937007874
        },
        {
          "duration": 0.1388849999999593,
          "durationTicks": 192,
          "midi": 72,
          "name": "C5",
          "ticks": 388224,
          "time": 296.83146,
          "velocity": 0.968503937007874
        },
        {
          "duration": 0.13888500000001613,
          "durationTicks": 192,
          "midi": 60,
          "name": "C4",
          "ticks": 388416,
          "time": 296.97034499999995,
          "velocity": 0.968503937007874
        },
        {
          "duration": 0.13888500000001613,
          "durationTicks": 192,
          "midi": 72,
          "name": "C5",
          "ticks": 388416,
          "time": 296.97034499999995,
          "velocity": 0.968503937007874
        },
        {
          "duration": 0.6944250000000238,
          "durationTicks": 960,
          "midi": 60,
          "name": "C4",
          "ticks": 388608,
          "time": 297.10922999999997,
          "velocity": 0.968503937007874
        },
        {
          "duration": 0.6944250000000238,
          "durationTicks": 960,
          "midi": 72,
          "name": "C5",
          "ticks": 388608,
          "time": 297.10922999999997,
          "velocity": 0.968503937007874
        },
        {
          "duration": 0.1388849999999593,
          "durationTicks": 192,
          "midi": 60,
          "name": "C4",
          "ticks": 389568,
          "time": 297.803655,
          "velocity": 0.968503937007874
        },
        {
          "duration": 0.1388849999999593,
          "durationTicks": 192,
          "midi": 72,
          "name": "C5",
          "ticks": 389568,
          "time": 297.803655,
          "velocity": 0.968503937007874
        },
        {
          "duration": 0.13888500000001613,
          "durationTicks": 192,
          "midi": 60,
          "name": "C4",
          "ticks": 389760,
          "time": 297.94253999999995,
          "velocity": 0.968503937007874
        },
        {
          "duration": 0.13888500000001613,
          "durationTicks": 192,
          "midi": 72,
          "name": "C5",
          "ticks": 389760,
          "time": 297.94253999999995,
          "velocity": 0.968503937007874
        },
        {
          "duration": 0.13888500000001613,
          "durationTicks": 192,
          "midi": 60,
          "name": "C4",
          "ticks": 389952,
          "time": 298.08142499999997,
          "velocity": 0.968503937007874
        },
        {
          "duration": 0.13888500000001613,
          "durationTicks": 192,
          "midi": 72,
          "name": "C5",
          "ticks": 389952,
          "time": 298.08142499999997,
          "velocity": 0.968503937007874
        },
        {
          "duration": 0.5555400000000077,
          "durationTicks": 768,
          "midi": 60,
          "name": "C4",
          "ticks": 390144,
          "time": 298.22031,
          "velocity": 0.968503937007874
        },
        {
          "duration": 0.5555400000000077,
          "durationTicks": 768,
          "midi": 72,
          "name": "C5",
          "ticks": 390144,
          "time": 298.22031,
          "velocity": 0.968503937007874
        },
        {
          "duration": 2.222159999999974,
          "durationTicks": 3072,
          "midi": 61,
          "name": "C#4",
          "ticks": 390912,
          "time": 298.77585,
          "velocity": 0.968503937007874
        },
        {
          "duration": 0.2777699999999754,
          "durationTicks": 384,
          "midi": 73,
          "name": "C#5",
          "ticks": 390912,
          "time": 298.77585,
          "velocity": 0.968503937007874
        },
        {
          "duration": 1.9443899999999985,
          "durationTicks": 2688,
          "midi": 68,
          "name": "G#4",
          "ticks": 391296,
          "time": 299.05361999999997,
          "velocity": 0.968503937007874
        },
        {
          "duration": 0.2777699999999754,
          "durationTicks": 384,
          "midi": 61,
          "name": "C#4",
          "ticks": 393984,
          "time": 300.99800999999997,
          "velocity": 0.968503937007874
        },
        {
          "duration": 0.2777699999999754,
          "durationTicks": 384,
          "midi": 68,
          "name": "G#4",
          "ticks": 393984,
          "time": 300.99800999999997,
          "velocity": 0.968503937007874
        },
        {
          "duration": 0.13888500000001613,
          "durationTicks": 192,
          "midi": 63,
          "name": "D#4",
          "ticks": 397248,
          "time": 303.35905499999996,
          "velocity": 0.968503937007874
        },
        {
          "duration": 0.13888500000001613,
          "durationTicks": 192,
          "midi": 69,
          "name": "A4",
          "ticks": 397248,
          "time": 303.35905499999996,
          "velocity": 0.968503937007874
        },
        {
          "duration": 0.13888500000001613,
          "durationTicks": 192,
          "midi": 63,
          "name": "D#4",
          "ticks": 397440,
          "time": 303.49793999999997,
          "velocity": 0.968503937007874
        },
        {
          "duration": 0.13888500000001613,
          "durationTicks": 192,
          "midi": 69,
          "name": "A4",
          "ticks": 397440,
          "time": 303.49793999999997,
          "velocity": 0.968503937007874
        },
        {
          "duration": 0.1388849999999593,
          "durationTicks": 192,
          "midi": 63,
          "name": "D#4",
          "ticks": 397632,
          "time": 303.636825,
          "velocity": 0.968503937007874
        },
        {
          "duration": 0.1388849999999593,
          "durationTicks": 192,
          "midi": 69,
          "name": "A4",
          "ticks": 397632,
          "time": 303.636825,
          "velocity": 0.968503937007874
        },
        {
          "duration": 2.2221600000000308,
          "durationTicks": 3072,
          "midi": 63,
          "name": "D#4",
          "ticks": 397824,
          "time": 303.77570999999995,
          "velocity": 0.968503937007874
        },
        {
          "duration": 2.2221600000000308,
          "durationTicks": 3072,
          "midi": 69,
          "name": "A4",
          "ticks": 397824,
          "time": 303.77570999999995,
          "velocity": 0.968503937007874
        },
        {
          "duration": 0.2777699999999754,
          "durationTicks": 384,
          "midi": 63,
          "name": "D#4",
          "ticks": 400896,
          "time": 305.99787,
          "velocity": 0.968503937007874
        },
        {
          "duration": 0.2777699999999754,
          "durationTicks": 384,
          "midi": 69,
          "name": "A4",
          "ticks": 400896,
          "time": 305.99787,
          "velocity": 0.968503937007874
        },
        {
          "duration": 0.13888500000001613,
          "durationTicks": 192,
          "midi": 60,
          "name": "C4",
          "ticks": 401856,
          "time": 306.69229499999994,
          "velocity": 0.968503937007874
        },
        {
          "duration": 0.13888500000001613,
          "durationTicks": 192,
          "midi": 60,
          "name": "C4",
          "ticks": 401856,
          "time": 306.69229499999994,
          "velocity": 0.968503937007874
        },
        {
          "duration": 0.13888500000001613,
          "durationTicks": 192,
          "midi": 60,
          "name": "C4",
          "ticks": 402048,
          "time": 306.83117999999996,
          "velocity": 0.968503937007874
        },
        {
          "duration": 0.13888500000001613,
          "durationTicks": 192,
          "midi": 60,
          "name": "C4",
          "ticks": 402048,
          "time": 306.83117999999996,
          "velocity": 0.968503937007874
        },
        {
          "duration": 0.13888500000001613,
          "durationTicks": 192,
          "midi": 60,
          "name": "C4",
          "ticks": 402240,
          "time": 306.970065,
          "velocity": 0.968503937007874
        },
        {
          "duration": 0.13888500000001613,
          "durationTicks": 192,
          "midi": 60,
          "name": "C4",
          "ticks": 402240,
          "time": 306.970065,
          "velocity": 0.968503937007874
        },
        {
          "duration": 0.2777699999999754,
          "durationTicks": 384,
          "midi": 63,
          "name": "D#4",
          "ticks": 402432,
          "time": 307.10895,
          "velocity": 0.968503937007874
        },
        {
          "duration": 0.2777699999999754,
          "durationTicks": 384,
          "midi": 63,
          "name": "D#4",
          "ticks": 402432,
          "time": 307.10895,
          "velocity": 0.968503937007874
        },
        {
          "duration": 1.1110800000000154,
          "durationTicks": 1536,
          "midi": 65,
          "name": "F4",
          "ticks": 405504,
          "time": 309.33110999999997,
          "velocity": 0.905511811023622
        },
        {
          "duration": 1.1110800000000154,
          "durationTicks": 1536,
          "midi": 71,
          "name": "B4",
          "ticks": 405504,
          "time": 309.33110999999997,
          "velocity": 0.905511811023622
        },
        {
          "duration": 1.1110799999999585,
          "durationTicks": 1536,
          "midi": 65,
          "name": "F4",
          "ticks": 408576,
          "time": 311.55327,
          "velocity": 0.905511811023622
        },
        {
          "duration": 1.1110799999999585,
          "durationTicks": 1536,
          "midi": 71,
          "name": "B4",
          "ticks": 408576,
          "time": 311.55327,
          "velocity": 0.905511811023622
        },
        {
          "duration": 0.2777699999999754,
          "durationTicks": 384,
          "midi": 60,
          "name": "C4",
          "ticks": 413184,
          "time": 314.88651,
          "velocity": 0.905511811023622
        },
        {
          "duration": 0.2777699999999754,
          "durationTicks": 384,
          "midi": 72,
          "name": "C5",
          "ticks": 413184,
          "time": 314.88651,
          "velocity": 0.905511811023622
        },
        {
          "duration": 0.27777000000003227,
          "durationTicks": 384,
          "midi": 62,
          "name": "D4",
          "ticks": 413568,
          "time": 315.16427999999996,
          "velocity": 0.905511811023622
        },
        {
          "duration": 0.27777000000003227,
          "durationTicks": 384,
          "midi": 74,
          "name": "D5",
          "ticks": 413568,
          "time": 315.16427999999996,
          "velocity": 0.905511811023622
        },
        {
          "duration": 0.2777699999999754,
          "durationTicks": 384,
          "midi": 58,
          "name": "A#3",
          "ticks": 413952,
          "time": 315.44205,
          "velocity": 0.905511811023622
        },
        {
          "duration": 0.2777699999999754,
          "durationTicks": 384,
          "midi": 70,
          "name": "A#4",
          "ticks": 413952,
          "time": 315.44205,
          "velocity": 0.905511811023622
        },
        {
          "duration": 0.2777699999999754,
          "durationTicks": 384,
          "midi": 60,
          "name": "C4",
          "ticks": 414336,
          "time": 315.71981999999997,
          "velocity": 0.905511811023622
        },
        {
          "duration": 0.2777699999999754,
          "durationTicks": 384,
          "midi": 72,
          "name": "C5",
          "ticks": 414336,
          "time": 315.71981999999997,
          "velocity": 0.905511811023622
        },
        {
          "duration": 0.27777000000003227,
          "durationTicks": 384,
          "midi": 56,
          "name": "G#3",
          "ticks": 414720,
          "time": 315.99758999999995,
          "velocity": 0.905511811023622
        },
        {
          "duration": 0.27777000000003227,
          "durationTicks": 384,
          "midi": 68,
          "name": "G#4",
          "ticks": 414720,
          "time": 315.99758999999995,
          "velocity": 0.905511811023622
        },
        {
          "duration": 0.2777699999999754,
          "durationTicks": 384,
          "midi": 58,
          "name": "A#3",
          "ticks": 415104,
          "time": 316.27536,
          "velocity": 0.905511811023622
        },
        {
          "duration": 0.2777699999999754,
          "durationTicks": 384,
          "midi": 70,
          "name": "A#4",
          "ticks": 415104,
          "time": 316.27536,
          "velocity": 0.905511811023622
        },
        {
          "duration": 0.27777000000003227,
          "durationTicks": 384,
          "midi": 55,
          "name": "G3",
          "ticks": 415488,
          "time": 316.55312999999995,
          "velocity": 0.905511811023622
        },
        {
          "duration": 0.27777000000003227,
          "durationTicks": 384,
          "midi": 67,
          "name": "G4",
          "ticks": 415488,
          "time": 316.55312999999995,
          "velocity": 0.905511811023622
        },
        {
          "duration": 0.2777699999999754,
          "durationTicks": 384,
          "midi": 68,
          "name": "G#4",
          "ticks": 415872,
          "time": 316.8309,
          "velocity": 0.905511811023622
        },
        {
          "duration": 0.2777699999999754,
          "durationTicks": 384,
          "midi": 68,
          "name": "G#4",
          "ticks": 415872,
          "time": 316.8309,
          "velocity": 0.905511811023622
        },
        {
          "duration": 0.27777000000003227,
          "durationTicks": 384,
          "midi": 65,
          "name": "F4",
          "ticks": 416256,
          "time": 317.10866999999996,
          "velocity": 0.905511811023622
        },
        {
          "duration": 0.27777000000003227,
          "durationTicks": 384,
          "midi": 65,
          "name": "F4",
          "ticks": 416256,
          "time": 317.10866999999996,
          "velocity": 0.905511811023622
        },
        {
          "duration": 0.2777699999999754,
          "durationTicks": 384,
          "midi": 63,
          "name": "D#4",
          "ticks": 416640,
          "time": 317.38644,
          "velocity": 0.905511811023622
        },
        {
          "duration": 0.2777699999999754,
          "durationTicks": 384,
          "midi": 63,
          "name": "D#4",
          "ticks": 416640,
          "time": 317.38644,
          "velocity": 0.905511811023622
        },
        {
          "duration": 0.2777699999999754,
          "durationTicks": 384,
          "midi": 62,
          "name": "D4",
          "ticks": 417024,
          "time": 317.66420999999997,
          "velocity": 0.905511811023622
        },
        {
          "duration": 0.2777699999999754,
          "durationTicks": 384,
          "midi": 62,
          "name": "D4",
          "ticks": 417024,
          "time": 317.66420999999997,
          "velocity": 0.905511811023622
        },
        {
          "duration": 0.27777000000003227,
          "durationTicks": 384,
          "midi": 63,
          "name": "D#4",
          "ticks": 417408,
          "time": 317.94197999999994,
          "velocity": 0.905511811023622
        },
        {
          "duration": 0.27777000000003227,
          "durationTicks": 384,
          "midi": 63,
          "name": "D#4",
          "ticks": 417408,
          "time": 317.94197999999994,
          "velocity": 0.905511811023622
        },
        {
          "duration": 0.2777699999999754,
          "durationTicks": 384,
          "midi": 65,
          "name": "F4",
          "ticks": 417792,
          "time": 318.21975,
          "velocity": 0.905511811023622
        },
        {
          "duration": 0.2777699999999754,
          "durationTicks": 384,
          "midi": 65,
          "name": "F4",
          "ticks": 417792,
          "time": 318.21975,
          "velocity": 0.905511811023622
        },
        {
          "duration": 0.27777000000003227,
          "durationTicks": 384,
          "midi": 63,
          "name": "D#4",
          "ticks": 418176,
          "time": 318.49751999999995,
          "velocity": 0.905511811023622
        },
        {
          "duration": 0.27777000000003227,
          "durationTicks": 384,
          "midi": 63,
          "name": "D#4",
          "ticks": 418176,
          "time": 318.49751999999995,
          "velocity": 0.905511811023622
        },
        {
          "duration": 0.2777699999999754,
          "durationTicks": 384,
          "midi": 65,
          "name": "F4",
          "ticks": 418560,
          "time": 318.77529,
          "velocity": 0.905511811023622
        },
        {
          "duration": 0.2777699999999754,
          "durationTicks": 384,
          "midi": 65,
          "name": "F4",
          "ticks": 418560,
          "time": 318.77529,
          "velocity": 0.905511811023622
        },
        {
          "duration": 0.27777000000003227,
          "durationTicks": 384,
          "midi": 67,
          "name": "G4",
          "ticks": 418944,
          "time": 319.05305999999996,
          "velocity": 0.905511811023622
        },
        {
          "duration": 0.27777000000003227,
          "durationTicks": 384,
          "midi": 67,
          "name": "G4",
          "ticks": 418944,
          "time": 319.05305999999996,
          "velocity": 0.905511811023622
        },
        {
          "duration": 0.2777699999999754,
          "durationTicks": 384,
          "midi": 68,
          "name": "G#4",
          "ticks": 419328,
          "time": 319.33083,
          "velocity": 0.905511811023622
        },
        {
          "duration": 0.2777699999999754,
          "durationTicks": 384,
          "midi": 68,
          "name": "G#4",
          "ticks": 419328,
          "time": 319.33083,
          "velocity": 0.905511811023622
        },
        {
          "duration": 0.2777699999999754,
          "durationTicks": 384,
          "midi": 67,
          "name": "G4",
          "ticks": 419712,
          "time": 319.60859999999997,
          "velocity": 0.905511811023622
        },
        {
          "duration": 0.2777699999999754,
          "durationTicks": 384,
          "midi": 67,
          "name": "G4",
          "ticks": 419712,
          "time": 319.60859999999997,
          "velocity": 0.905511811023622
        },
        {
          "duration": 0.27777000000003227,
          "durationTicks": 384,
          "midi": 68,
          "name": "G#4",
          "ticks": 420096,
          "time": 319.88636999999994,
          "velocity": 0.905511811023622
        },
        {
          "duration": 0.27777000000003227,
          "durationTicks": 384,
          "midi": 68,
          "name": "G#4",
          "ticks": 420096,
          "time": 319.88636999999994,
          "velocity": 0.905511811023622
        },
        {
          "duration": 0.2777699999999754,
          "durationTicks": 384,
          "midi": 59,
          "name": "B3",
          "ticks": 420480,
          "time": 320.16414,
          "velocity": 0.905511811023622
        },
        {
          "duration": 0.2777699999999754,
          "durationTicks": 384,
          "midi": 65,
          "name": "F4",
          "ticks": 420480,
          "time": 320.16414,
          "velocity": 0.905511811023622
        },
        {
          "duration": 0.27777000000003227,
          "durationTicks": 384,
          "midi": 60,
          "name": "C4",
          "ticks": 420864,
          "time": 320.44190999999995,
          "velocity": 0.905511811023622
        },
        {
          "duration": 0.27777000000003227,
          "durationTicks": 384,
          "midi": 65,
          "name": "F4",
          "ticks": 420864,
          "time": 320.44190999999995,
          "velocity": 0.905511811023622
        },
        {
          "duration": 0.2777699999999754,
          "durationTicks": 384,
          "midi": 59,
          "name": "B3",
          "ticks": 421248,
          "time": 320.71968,
          "velocity": 0.905511811023622
        },
        {
          "duration": 0.2777699999999754,
          "durationTicks": 384,
          "midi": 65,
          "name": "F4",
          "ticks": 421248,
          "time": 320.71968,
          "velocity": 0.905511811023622
        },
        {
          "duration": 0.27777000000003227,
          "durationTicks": 384,
          "midi": 60,
          "name": "C4",
          "ticks": 421632,
          "time": 320.99744999999996,
          "velocity": 0.905511811023622
        },
        {
          "duration": 0.27777000000003227,
          "durationTicks": 384,
          "midi": 65,
          "name": "F4",
          "ticks": 421632,
          "time": 320.99744999999996,
          "velocity": 0.905511811023622
        },
        {
          "duration": 0.2777699999999754,
          "durationTicks": 384,
          "midi": 62,
          "name": "D4",
          "ticks": 422016,
          "time": 321.27522,
          "velocity": 0.905511811023622
        },
        {
          "duration": 0.2777699999999754,
          "durationTicks": 384,
          "midi": 65,
          "name": "F4",
          "ticks": 422016,
          "time": 321.27522,
          "velocity": 0.905511811023622
        },
        {
          "duration": 1.1110800000000154,
          "durationTicks": 1536,
          "midi": 60,
          "name": "C4",
          "ticks": 422400,
          "time": 321.55298999999997,
          "velocity": 0.905511811023622
        },
        {
          "duration": 1.1110800000000154,
          "durationTicks": 1536,
          "midi": 63,
          "name": "D#4",
          "ticks": 422400,
          "time": 321.55298999999997,
          "velocity": 0.905511811023622
        },
        {
          "duration": 1.1110799999999585,
          "durationTicks": 1536,
          "midi": 60,
          "name": "C4",
          "ticks": 423936,
          "time": 322.66407,
          "velocity": 0.905511811023622
        },
        {
          "duration": 1.1110799999999585,
          "durationTicks": 1536,
          "midi": 65,
          "name": "F4",
          "ticks": 423936,
          "time": 322.66407,
          "velocity": 0.905511811023622
        },
        {
          "duration": 1.1110800000000154,
          "durationTicks": 1536,
          "midi": 60,
          "name": "C4",
          "ticks": 425472,
          "time": 323.77514999999994,
          "velocity": 0.905511811023622
        },
        {
          "duration": 1.1110800000000154,
          "durationTicks": 1536,
          "midi": 67,
          "name": "G4",
          "ticks": 425472,
          "time": 323.77514999999994,
          "velocity": 0.905511811023622
        },
        {
          "duration": 1.1110800000000154,
          "durationTicks": 1536,
          "midi": 60,
          "name": "C4",
          "ticks": 427008,
          "time": 324.88622999999995,
          "velocity": 0.905511811023622
        },
        {
          "duration": 0.5555400000000077,
          "durationTicks": 768,
          "midi": 68,
          "name": "G#4",
          "ticks": 427008,
          "time": 324.88622999999995,
          "velocity": 0.905511811023622
        },
        {
          "duration": 0.5555400000000077,
          "durationTicks": 768,
          "midi": 65,
          "name": "F4",
          "ticks": 427776,
          "time": 325.44176999999996,
          "velocity": 0.905511811023622
        },
        {
          "duration": 0.5555400000000077,
          "durationTicks": 768,
          "midi": 59,
          "name": "B3",
          "ticks": 428544,
          "time": 325.99730999999997,
          "velocity": 0.905511811023622
        },
        {
          "duration": 0.5555400000000077,
          "durationTicks": 768,
          "midi": 65,
          "name": "F4",
          "ticks": 428544,
          "time": 325.99730999999997,
          "velocity": 0.905511811023622
        },
        {
          "duration": 0.5555400000000077,
          "durationTicks": 768,
          "midi": 62,
          "name": "D4",
          "ticks": 429312,
          "time": 326.55285,
          "velocity": 0.905511811023622
        },
        {
          "duration": 0.5555400000000077,
          "durationTicks": 768,
          "midi": 67,
          "name": "G4",
          "ticks": 429312,
          "time": 326.55285,
          "velocity": 0.905511811023622
        },
        {
          "duration": 0.2777699999999754,
          "durationTicks": 384,
          "midi": 63,
          "name": "D#4",
          "ticks": 430080,
          "time": 327.10839,
          "velocity": 0.905511811023622
        },
        {
          "duration": 0.2777699999999754,
          "durationTicks": 384,
          "midi": 67,
          "name": "G4",
          "ticks": 430080,
          "time": 327.10839,
          "velocity": 0.905511811023622
        },
        {
          "duration": 0.2777699999999754,
          "durationTicks": 384,
          "midi": 63,
          "name": "D#4",
          "ticks": 430848,
          "time": 327.66393,
          "velocity": 0.905511811023622
        },
        {
          "duration": 0.2777699999999754,
          "durationTicks": 384,
          "midi": 72,
          "name": "C5",
          "ticks": 430848,
          "time": 327.66393,
          "velocity": 0.905511811023622
        },
        {
          "duration": 0.2777699999999754,
          "durationTicks": 384,
          "midi": 68,
          "name": "G#4",
          "ticks": 431616,
          "time": 328.21947,
          "velocity": 0.905511811023622
        },
        {
          "duration": 0.2777699999999754,
          "durationTicks": 384,
          "midi": 72,
          "name": "C5",
          "ticks": 431616,
          "time": 328.21947,
          "velocity": 0.905511811023622
        },
        {
          "duration": 0.27777000000003227,
          "durationTicks": 384,
          "midi": 68,
          "name": "G#4",
          "ticks": 432384,
          "time": 328.77500999999995,
          "velocity": 0.905511811023622
        },
        {
          "duration": 0.27777000000003227,
          "durationTicks": 384,
          "midi": 72,
          "name": "C5",
          "ticks": 432384,
          "time": 328.77500999999995,
          "velocity": 0.905511811023622
        },
        {
          "duration": 0.27777000000003227,
          "durationTicks": 384,
          "midi": 67,
          "name": "G4",
          "ticks": 433152,
          "time": 329.33054999999996,
          "velocity": 0.905511811023622
        },
        {
          "duration": 0.27777000000003227,
          "durationTicks": 384,
          "midi": 72,
          "name": "C5",
          "ticks": 433152,
          "time": 329.33054999999996,
          "velocity": 0.905511811023622
        },
        {
          "duration": 0.27777000000003227,
          "durationTicks": 384,
          "midi": 67,
          "name": "G4",
          "ticks": 433920,
          "time": 329.88608999999997,
          "velocity": 0.905511811023622
        },
        {
          "duration": 0.27777000000003227,
          "durationTicks": 384,
          "midi": 71,
          "name": "B4",
          "ticks": 433920,
          "time": 329.88608999999997,
          "velocity": 0.905511811023622
        },
        {
          "duration": 0.5555400000000077,
          "durationTicks": 768,
          "midi": 60,
          "name": "C4",
          "ticks": 434688,
          "time": 330.44163,
          "velocity": 0.968503937007874
        },
        {
          "duration": 0.5555400000000077,
          "durationTicks": 768,
          "midi": 72,
          "name": "C5",
          "ticks": 434688,
          "time": 330.44163,
          "velocity": 0.968503937007874
        },
        {
          "duration": 0.2777699999999754,
          "durationTicks": 384,
          "midi": 60,
          "name": "C4",
          "ticks": 435456,
          "time": 330.99717,
          "velocity": 0.968503937007874
        },
        {
          "duration": 0.2777699999999754,
          "durationTicks": 384,
          "midi": 72,
          "name": "C5",
          "ticks": 435456,
          "time": 330.99717,
          "velocity": 0.968503937007874
        },
        {
          "duration": 0.27777000000003227,
          "durationTicks": 384,
          "midi": 60,
          "name": "C4",
          "ticks": 435840,
          "time": 331.27493999999996,
          "velocity": 0.968503937007874
        },
        {
          "duration": 0.27777000000003227,
          "durationTicks": 384,
          "midi": 72,
          "name": "C5",
          "ticks": 435840,
          "time": 331.27493999999996,
          "velocity": 0.968503937007874
        },
        {
          "duration": 0.5555400000000077,
          "durationTicks": 768,
          "midi": 60,
          "name": "C4",
          "ticks": 436224,
          "time": 331.55271,
          "velocity": 0.968503937007874
        },
        {
          "duration": 0.5555400000000077,
          "durationTicks": 768,
          "midi": 72,
          "name": "C5",
          "ticks": 436224,
          "time": 331.55271,
          "velocity": 0.968503937007874
        },
        {
          "duration": 0.27777000000003227,
          "durationTicks": 384,
          "midi": 60,
          "name": "C4",
          "ticks": 438528,
          "time": 333.21932999999996,
          "velocity": 0.968503937007874
        },
        {
          "duration": 0.27777000000003227,
          "durationTicks": 384,
          "midi": 72,
          "name": "C5",
          "ticks": 438528,
          "time": 333.21932999999996,
          "velocity": 0.968503937007874
        },
        {
          "duration": 0.2777699999999754,
          "durationTicks": 384,
          "midi": 60,
          "name": "C4",
          "ticks": 438912,
          "time": 333.4971,
          "velocity": 0.968503937007874
        },
        {
          "duration": 0.2777699999999754,
          "durationTicks": 384,
          "midi": 72,
          "name": "C5",
          "ticks": 438912,
          "time": 333.4971,
          "velocity": 0.968503937007874
        },
        {
          "duration": 0.5555400000000077,
          "durationTicks": 768,
          "midi": 60,
          "name": "C4",
          "ticks": 439296,
          "time": 333.77486999999996,
          "velocity": 0.968503937007874
        },
        {
          "duration": 0.5555400000000077,
          "durationTicks": 768,
          "midi": 72,
          "name": "C5",
          "ticks": 439296,
          "time": 333.77486999999996,
          "velocity": 0.968503937007874
        },
        {
          "duration": 0.2777699999999754,
          "durationTicks": 384,
          "midi": 55,
          "name": "G3",
          "ticks": 441600,
          "time": 335.44149,
          "velocity": 0.968503937007874
        },
        {
          "duration": 0.2777699999999754,
          "durationTicks": 384,
          "midi": 67,
          "name": "G4",
          "ticks": 441600,
          "time": 335.44149,
          "velocity": 0.968503937007874
        },
        {
          "duration": 0.27777000000003227,
          "durationTicks": 384,
          "midi": 55,
          "name": "G3",
          "ticks": 441984,
          "time": 335.71925999999996,
          "velocity": 0.968503937007874
        },
        {
          "duration": 0.27777000000003227,
          "durationTicks": 384,
          "midi": 67,
          "name": "G4",
          "ticks": 441984,
          "time": 335.71925999999996,
          "velocity": 0.968503937007874
        },
        {
          "duration": 0.5555399999999509,
          "durationTicks": 768,
          "midi": 55,
          "name": "G3",
          "ticks": 442368,
          "time": 335.99703,
          "velocity": 0.968503937007874
        },
        {
          "duration": 0.5555399999999509,
          "durationTicks": 768,
          "midi": 67,
          "name": "G4",
          "ticks": 442368,
          "time": 335.99703,
          "velocity": 0.968503937007874
        },
        {
          "duration": 0.27777000000003227,
          "durationTicks": 384,
          "midi": 55,
          "name": "G3",
          "ticks": 444672,
          "time": 337.66364999999996,
          "velocity": 0.968503937007874
        },
        {
          "duration": 0.27777000000003227,
          "durationTicks": 384,
          "midi": 67,
          "name": "G4",
          "ticks": 444672,
          "time": 337.66364999999996,
          "velocity": 0.968503937007874
        },
        {
          "duration": 0.2777699999999754,
          "durationTicks": 384,
          "midi": 55,
          "name": "G3",
          "ticks": 445056,
          "time": 337.94142,
          "velocity": 0.968503937007874
        },
        {
          "duration": 0.2777699999999754,
          "durationTicks": 384,
          "midi": 67,
          "name": "G4",
          "ticks": 445056,
          "time": 337.94142,
          "velocity": 0.968503937007874
        },
        {
          "duration": 0.5555400000000077,
          "durationTicks": 768,
          "midi": 55,
          "name": "G3",
          "ticks": 445440,
          "time": 338.21918999999997,
          "velocity": 0.968503937007874
        },
        {
          "duration": 0.5555400000000077,
          "durationTicks": 768,
          "midi": 67,
          "name": "G4",
          "ticks": 445440,
          "time": 338.21918999999997,
          "velocity": 0.968503937007874
        },
        {
          "duration": 0.2777699999999754,
          "durationTicks": 384,
          "midi": 68,
          "name": "G#4",
          "ticks": 446208,
          "time": 338.77473,
          "velocity": 0.968503937007874
        },
        {
          "duration": 0.2777699999999754,
          "durationTicks": 384,
          "midi": 72,
          "name": "C5",
          "ticks": 446208,
          "time": 338.77473,
          "velocity": 0.968503937007874
        },
        {
          "duration": 0.27777000000003227,
          "durationTicks": 384,
          "midi": 67,
          "name": "G4",
          "ticks": 446592,
          "time": 339.05249999999995,
          "velocity": 0.968503937007874
        },
        {
          "duration": 0.27777000000003227,
          "durationTicks": 384,
          "midi": 70,
          "name": "A#4",
          "ticks": 446592,
          "time": 339.05249999999995,
          "velocity": 0.968503937007874
        },
        {
          "duration": 0.2777699999999754,
          "durationTicks": 384,
          "midi": 65,
          "name": "F4",
          "ticks": 446976,
          "time": 339.33027,
          "velocity": 0.968503937007874
        },
        {
          "duration": 0.2777699999999754,
          "durationTicks": 384,
          "midi": 68,
          "name": "G#4",
          "ticks": 446976,
          "time": 339.33027,
          "velocity": 0.968503937007874
        },
        {
          "duration": 0.27777000000003227,
          "durationTicks": 384,
          "midi": 63,
          "name": "D#4",
          "ticks": 447360,
          "time": 339.60803999999996,
          "velocity": 0.968503937007874
        },
        {
          "duration": 0.27777000000003227,
          "durationTicks": 384,
          "midi": 67,
          "name": "G4",
          "ticks": 447360,
          "time": 339.60803999999996,
          "velocity": 0.968503937007874
        },
        {
          "duration": 0.27777000000003227,
          "durationTicks": 384,
          "midi": 65,
          "name": "F4",
          "ticks": 448512,
          "time": 340.44134999999994,
          "velocity": 0.968503937007874
        },
        {
          "duration": 0.27777000000003227,
          "durationTicks": 384,
          "midi": 68,
          "name": "G#4",
          "ticks": 448512,
          "time": 340.44134999999994,
          "velocity": 0.968503937007874
        },
        {
          "duration": 0.2777699999999754,
          "durationTicks": 384,
          "midi": 63,
          "name": "D#4",
          "ticks": 448896,
          "time": 340.71912,
          "velocity": 0.968503937007874
        },
        {
          "duration": 0.2777699999999754,
          "durationTicks": 384,
          "midi": 67,
          "name": "G4",
          "ticks": 448896,
          "time": 340.71912,
          "velocity": 0.968503937007874
        },
        {
          "duration": 0.27777000000003227,
          "durationTicks": 384,
          "midi": 65,
          "name": "F4",
          "ticks": 449280,
          "time": 340.99688999999995,
          "velocity": 0.968503937007874
        },
        {
          "duration": 0.27777000000003227,
          "durationTicks": 384,
          "midi": 72,
          "name": "C5",
          "ticks": 449280,
          "time": 340.99688999999995,
          "velocity": 0.968503937007874
        },
        {
          "duration": 0.2777699999999754,
          "durationTicks": 384,
          "midi": 63,
          "name": "D#4",
          "ticks": 449664,
          "time": 341.27466,
          "velocity": 0.968503937007874
        },
        {
          "duration": 0.2777699999999754,
          "durationTicks": 384,
          "midi": 72,
          "name": "C5",
          "ticks": 449664,
          "time": 341.27466,
          "velocity": 0.968503937007874
        },
        {
          "duration": 0.2777699999999754,
          "durationTicks": 384,
          "midi": 63,
          "name": "D#4",
          "ticks": 450432,
          "time": 341.8302,
          "velocity": 0.968503937007874
        },
        {
          "duration": 0.2777699999999754,
          "durationTicks": 384,
          "midi": 72,
          "name": "C5",
          "ticks": 450432,
          "time": 341.8302,
          "velocity": 0.968503937007874
        },
        {
          "duration": 0.27777000000003227,
          "durationTicks": 384,
          "midi": 62,
          "name": "D4",
          "ticks": 451200,
          "time": 342.38573999999994,
          "velocity": 0.968503937007874
        },
        {
          "duration": 0.27777000000003227,
          "durationTicks": 384,
          "midi": 71,
          "name": "B4",
          "ticks": 451200,
          "time": 342.38573999999994,
          "velocity": 0.968503937007874
        },
        {
          "duration": 0.27777000000003227,
          "durationTicks": 384,
          "midi": 65,
          "name": "F4",
          "ticks": 453888,
          "time": 344.33012999999994,
          "velocity": 0.968503937007874
        },
        {
          "duration": 0.27777000000003227,
          "durationTicks": 384,
          "midi": 68,
          "name": "G#4",
          "ticks": 453888,
          "time": 344.33012999999994,
          "velocity": 0.968503937007874
        },
        {
          "duration": 0.27777000000003227,
          "durationTicks": 384,
          "midi": 63,
          "name": "D#4",
          "ticks": 454272,
          "time": 344.6079,
          "velocity": 0.968503937007874
        },
        {
          "duration": 0.27777000000003227,
          "durationTicks": 384,
          "midi": 67,
          "name": "G4",
          "ticks": 454272,
          "time": 344.6079,
          "velocity": 0.968503937007874
        },
        {
          "duration": 0.27777000000003227,
          "durationTicks": 384,
          "midi": 65,
          "name": "F4",
          "ticks": 455424,
          "time": 345.44120999999996,
          "velocity": 0.968503937007874
        },
        {
          "duration": 0.27777000000003227,
          "durationTicks": 384,
          "midi": 72,
          "name": "C5",
          "ticks": 455424,
          "time": 345.44120999999996,
          "velocity": 0.968503937007874
        },
        {
          "duration": 0.2777699999999754,
          "durationTicks": 384,
          "midi": 63,
          "name": "D#4",
          "ticks": 455808,
          "time": 345.71898,
          "velocity": 0.968503937007874
        },
        {
          "duration": 0.2777699999999754,
          "durationTicks": 384,
          "midi": 72,
          "name": "C5",
          "ticks": 455808,
          "time": 345.71898,
          "velocity": 0.968503937007874
        },
        {
          "duration": 0.27777000000003227,
          "durationTicks": 384,
          "midi": 63,
          "name": "D#4",
          "ticks": 456576,
          "time": 346.27451999999994,
          "velocity": 0.968503937007874
        },
        {
          "duration": 0.27777000000003227,
          "durationTicks": 384,
          "midi": 72,
          "name": "C5",
          "ticks": 456576,
          "time": 346.27451999999994,
          "velocity": 0.968503937007874
        },
        {
          "duration": 0.2777699999999754,
          "durationTicks": 384,
          "midi": 62,
          "name": "D4",
          "ticks": 457344,
          "time": 346.83006,
          "velocity": 0.968503937007874
        },
        {
          "duration": 0.2777699999999754,
          "durationTicks": 384,
          "midi": 71,
          "name": "B4",
          "ticks": 457344,
          "time": 346.83006,
          "velocity": 0.968503937007874
        },
        {
          "duration": 0.2777699999999754,
          "durationTicks": 384,
          "midi": 63,
          "name": "D#4",
          "ticks": 457728,
          "time": 347.10783,
          "velocity": 0.968503937007874
        },
        {
          "duration": 0.2777699999999754,
          "durationTicks": 384,
          "midi": 72,
          "name": "C5",
          "ticks": 457728,
          "time": 347.10783,
          "velocity": 0.968503937007874
        },
        {
          "duration": 0.13888500000001613,
          "durationTicks": 192,
          "midi": 62,
          "name": "D4",
          "ticks": 458688,
          "time": 347.80225499999995,
          "velocity": 0.968503937007874
        },
        {
          "duration": 0.13888500000001613,
          "durationTicks": 192,
          "midi": 71,
          "name": "B4",
          "ticks": 458688,
          "time": 347.80225499999995,
          "velocity": 0.968503937007874
        },
        {
          "duration": 0.13888500000001613,
          "durationTicks": 192,
          "midi": 62,
          "name": "D4",
          "ticks": 458880,
          "time": 347.94113999999996,
          "velocity": 0.968503937007874
        },
        {
          "duration": 0.13888500000001613,
          "durationTicks": 192,
          "midi": 71,
          "name": "B4",
          "ticks": 458880,
          "time": 347.94113999999996,
          "velocity": 0.968503937007874
        },
        {
          "duration": 0.1388849999999593,
          "durationTicks": 192,
          "midi": 62,
          "name": "D4",
          "ticks": 459072,
          "time": 348.080025,
          "velocity": 0.968503937007874
        },
        {
          "duration": 0.1388849999999593,
          "durationTicks": 192,
          "midi": 71,
          "name": "B4",
          "ticks": 459072,
          "time": 348.080025,
          "velocity": 0.968503937007874
        },
        {
          "duration": 0.83331000000004,
          "durationTicks": 1152,
          "midi": 62,
          "name": "D4",
          "ticks": 459264,
          "time": 348.21890999999994,
          "velocity": 0.968503937007874
        },
        {
          "duration": 0.83331000000004,
          "durationTicks": 1152,
          "midi": 71,
          "name": "B4",
          "ticks": 459264,
          "time": 348.21890999999994,
          "velocity": 0.968503937007874
        },
        {
          "duration": 0.2777699999999754,
          "durationTicks": 384,
          "midi": 63,
          "name": "D#4",
          "ticks": 460416,
          "time": 349.05222,
          "velocity": 0.968503937007874
        },
        {
          "duration": 0.2777699999999754,
          "durationTicks": 384,
          "midi": 72,
          "name": "C5",
          "ticks": 460416,
          "time": 349.05222,
          "velocity": 0.968503937007874
        },
        {
          "duration": 0.27777000000003227,
          "durationTicks": 384,
          "midi": 65,
          "name": "F4",
          "ticks": 460800,
          "time": 349.32998999999995,
          "velocity": 0.968503937007874
        },
        {
          "duration": 0.27777000000003227,
          "durationTicks": 384,
          "midi": 74,
          "name": "D5",
          "ticks": 460800,
          "time": 349.32998999999995,
          "velocity": 0.968503937007874
        },
        {
          "duration": 0.2777699999999754,
          "durationTicks": 384,
          "midi": 62,
          "name": "D4",
          "ticks": 461184,
          "time": 349.60776,
          "velocity": 0.968503937007874
        },
        {
          "duration": 0.2777699999999754,
          "durationTicks": 384,
          "midi": 71,
          "name": "B4",
          "ticks": 461184,
          "time": 349.60776,
          "velocity": 0.968503937007874
        },
        {
          "duration": 0.27777000000003227,
          "durationTicks": 384,
          "midi": 63,
          "name": "D#4",
          "ticks": 461568,
          "time": 349.88552999999996,
          "velocity": 0.968503937007874
        },
        {
          "duration": 0.27777000000003227,
          "durationTicks": 384,
          "midi": 72,
          "name": "C5",
          "ticks": 461568,
          "time": 349.88552999999996,
          "velocity": 0.968503937007874
        },
        {
          "duration": 0.2777699999999754,
          "durationTicks": 384,
          "midi": 65,
          "name": "F4",
          "ticks": 461952,
          "time": 350.1633,
          "velocity": 0.968503937007874
        },
        {
          "duration": 0.2777699999999754,
          "durationTicks": 384,
          "midi": 74,
          "name": "D5",
          "ticks": 461952,
          "time": 350.1633,
          "velocity": 0.968503937007874
        },
        {
          "duration": 0.27777000000003227,
          "durationTicks": 384,
          "midi": 63,
          "name": "D#4",
          "ticks": 462336,
          "time": 350.44106999999997,
          "velocity": 0.968503937007874
        },
        {
          "duration": 0.27777000000003227,
          "durationTicks": 384,
          "midi": 72,
          "name": "C5",
          "ticks": 462336,
          "time": 350.44106999999997,
          "velocity": 0.968503937007874
        },
        {
          "duration": 0.1388849999999593,
          "durationTicks": 192,
          "midi": 67,
          "name": "G4",
          "ticks": 463296,
          "time": 351.135495,
          "velocity": 0.968503937007874
        },
        {
          "duration": 0.1388849999999593,
          "durationTicks": 192,
          "midi": 67,
          "name": "G4",
          "ticks": 463296,
          "time": 351.135495,
          "velocity": 0.968503937007874
        },
        {
          "duration": 0.13888500000001613,
          "durationTicks": 192,
          "midi": 67,
          "name": "G4",
          "ticks": 463488,
          "time": 351.27437999999995,
          "velocity": 0.968503937007874
        },
        {
          "duration": 0.13888500000001613,
          "durationTicks": 192,
          "midi": 67,
          "name": "G4",
          "ticks": 463488,
          "time": 351.27437999999995,
          "velocity": 0.968503937007874
        },
        {
          "duration": 0.13888500000001613,
          "durationTicks": 192,
          "midi": 67,
          "name": "G4",
          "ticks": 463680,
          "time": 351.41326499999997,
          "velocity": 0.968503937007874
        },
        {
          "duration": 0.13888500000001613,
          "durationTicks": 192,
          "midi": 67,
          "name": "G4",
          "ticks": 463680,
          "time": 351.41326499999997,
          "velocity": 0.968503937007874
        },
        {
          "duration": 0.1388849999999593,
          "durationTicks": 192,
          "midi": 67,
          "name": "G4",
          "ticks": 463872,
          "time": 351.55215,
          "velocity": 0.968503937007874
        },
        {
          "duration": 0.1388849999999593,
          "durationTicks": 192,
          "midi": 67,
          "name": "G4",
          "ticks": 463872,
          "time": 351.55215,
          "velocity": 0.968503937007874
        },
        {
          "duration": 0.13888500000001613,
          "durationTicks": 192,
          "midi": 67,
          "name": "G4",
          "ticks": 464064,
          "time": 351.69103499999994,
          "velocity": 0.968503937007874
        },
        {
          "duration": 0.13888500000001613,
          "durationTicks": 192,
          "midi": 67,
          "name": "G4",
          "ticks": 464064,
          "time": 351.69103499999994,
          "velocity": 0.968503937007874
        },
        {
          "duration": 0.13888500000001613,
          "durationTicks": 192,
          "midi": 67,
          "name": "G4",
          "ticks": 464256,
          "time": 351.82991999999996,
          "velocity": 0.968503937007874
        },
        {
          "duration": 0.13888500000001613,
          "durationTicks": 192,
          "midi": 67,
          "name": "G4",
          "ticks": 464256,
          "time": 351.82991999999996,
          "velocity": 0.968503937007874
        },
        {
          "duration": 0.13888500000001613,
          "durationTicks": 192,
          "midi": 67,
          "name": "G4",
          "ticks": 464448,
          "time": 351.968805,
          "velocity": 0.968503937007874
        },
        {
          "duration": 0.13888500000001613,
          "durationTicks": 192,
          "midi": 67,
          "name": "G4",
          "ticks": 464448,
          "time": 351.968805,
          "velocity": 0.968503937007874
        },
        {
          "duration": 0.13888500000001613,
          "durationTicks": 192,
          "midi": 67,
          "name": "G4",
          "ticks": 464640,
          "time": 352.10769,
          "velocity": 0.968503937007874
        },
        {
          "duration": 0.13888500000001613,
          "durationTicks": 192,
          "midi": 67,
          "name": "G4",
          "ticks": 464640,
          "time": 352.10769,
          "velocity": 0.968503937007874
        },
        {
          "duration": 0.1388849999999593,
          "durationTicks": 192,
          "midi": 67,
          "name": "G4",
          "ticks": 464832,
          "time": 352.246575,
          "velocity": 0.968503937007874
        },
        {
          "duration": 0.1388849999999593,
          "durationTicks": 192,
          "midi": 67,
          "name": "G4",
          "ticks": 464832,
          "time": 352.246575,
          "velocity": 0.968503937007874
        },
        {
          "duration": 0.13888500000001613,
          "durationTicks": 192,
          "midi": 67,
          "name": "G4",
          "ticks": 465024,
          "time": 352.38545999999997,
          "velocity": 0.968503937007874
        },
        {
          "duration": 0.13888500000001613,
          "durationTicks": 192,
          "midi": 67,
          "name": "G4",
          "ticks": 465024,
          "time": 352.38545999999997,
          "velocity": 0.968503937007874
        },
        {
          "duration": 0.13888500000001613,
          "durationTicks": 192,
          "midi": 67,
          "name": "G4",
          "ticks": 465216,
          "time": 352.524345,
          "velocity": 0.968503937007874
        },
        {
          "duration": 0.13888500000001613,
          "durationTicks": 192,
          "midi": 67,
          "name": "G4",
          "ticks": 465216,
          "time": 352.524345,
          "velocity": 0.968503937007874
        },
        {
          "duration": 1.0908999999999764,
          "durationTicks": 768,
          "midi": 63,
          "name": "D#4",
          "ticks": 465408,
          "time": 352.66323,
          "velocity": 0.968503937007874
        },
        {
          "duration": 1.0908999999999764,
          "durationTicks": 768,
          "midi": 67,
          "name": "G4",
          "ticks": 465408,
          "time": 352.66323,
          "velocity": 0.968503937007874
        },
        {
          "duration": 0.1388849999999593,
          "durationTicks": 192,
          "midi": 65,
          "name": "F4",
          "ticks": 466368,
          "time": 353.893015,
          "velocity": 0.968503937007874
        },
        {
          "duration": 0.1388849999999593,
          "durationTicks": 192,
          "midi": 67,
          "name": "G4",
          "ticks": 466368,
          "time": 353.893015,
          "velocity": 0.968503937007874
        },
        {
          "duration": 0.13888500000001613,
          "durationTicks": 192,
          "midi": 65,
          "name": "F4",
          "ticks": 466560,
          "time": 354.03189999999995,
          "velocity": 0.968503937007874
        },
        {
          "duration": 0.13888500000001613,
          "durationTicks": 192,
          "midi": 67,
          "name": "G4",
          "ticks": 466560,
          "time": 354.03189999999995,
          "velocity": 0.968503937007874
        },
        {
          "duration": 0.13888500000001613,
          "durationTicks": 192,
          "midi": 65,
          "name": "F4",
          "ticks": 466752,
          "time": 354.17078499999997,
          "velocity": 0.968503937007874
        },
        {
          "duration": 0.13888500000001613,
          "durationTicks": 192,
          "midi": 67,
          "name": "G4",
          "ticks": 466752,
          "time": 354.17078499999997,
          "velocity": 0.968503937007874
        },
        {
          "duration": 1.7555399999999963,
          "durationTicks": 1536,
          "midi": 62,
          "name": "D4",
          "ticks": 466944,
          "time": 354.30967,
          "velocity": 0.968503937007874
        },
        {
          "duration": 1.7555399999999963,
          "durationTicks": 1536,
          "midi": 67,
          "name": "G4",
          "ticks": 466944,
          "time": 354.30967,
          "velocity": 0.968503937007874
        },
        {
          "duration": 0.2830099999999902,
          "durationTicks": 384,
          "midi": 68,
          "name": "G#4",
          "ticks": 471168,
          "time": 358.04627999999997,
          "velocity": 0.7165354330708661
        },
        {
          "duration": 0.2830099999999902,
          "durationTicks": 384,
          "midi": 68,
          "name": "G#4",
          "ticks": 471168,
          "time": 358.04627999999997,
          "velocity": 0.7165354330708661
        },
        {
          "duration": 0.5660200000000373,
          "durationTicks": 768,
          "midi": 67,
          "name": "G4",
          "ticks": 471552,
          "time": 358.32928999999996,
          "velocity": 0.7165354330708661
        },
        {
          "duration": 0.5660200000000373,
          "durationTicks": 768,
          "midi": 67,
          "name": "G4",
          "ticks": 471552,
          "time": 358.32928999999996,
          "velocity": 0.7165354330708661
        },
        {
          "duration": 0.2830099999999902,
          "durationTicks": 384,
          "midi": 68,
          "name": "G#4",
          "ticks": 474240,
          "time": 360.31036,
          "velocity": 0.7165354330708661
        },
        {
          "duration": 0.2830099999999902,
          "durationTicks": 384,
          "midi": 68,
          "name": "G#4",
          "ticks": 474240,
          "time": 360.31036,
          "velocity": 0.7165354330708661
        },
        {
          "duration": 0.1415049999999951,
          "durationTicks": 192,
          "midi": 67,
          "name": "G4",
          "ticks": 474624,
          "time": 360.59337,
          "velocity": 0.7165354330708661
        },
        {
          "duration": 0.1415049999999951,
          "durationTicks": 192,
          "midi": 67,
          "name": "G4",
          "ticks": 474624,
          "time": 360.59337,
          "velocity": 0.7165354330708661
        },
        {
          "duration": 0.1415049999999951,
          "durationTicks": 192,
          "midi": 62,
          "name": "D4",
          "ticks": 474816,
          "time": 360.734875,
          "velocity": 0.968503937007874
        },
        {
          "duration": 0.1415049999999951,
          "durationTicks": 192,
          "midi": 67,
          "name": "G4",
          "ticks": 474816,
          "time": 360.734875,
          "velocity": 0.968503937007874
        },
        {
          "duration": 0.1415049999999951,
          "durationTicks": 192,
          "midi": 62,
          "name": "D4",
          "ticks": 475008,
          "time": 360.87638,
          "velocity": 0.968503937007874
        },
        {
          "duration": 0.1415049999999951,
          "durationTicks": 192,
          "midi": 67,
          "name": "G4",
          "ticks": 475008,
          "time": 360.87638,
          "velocity": 0.968503937007874
        },
        {
          "duration": 0.1415049999999951,
          "durationTicks": 192,
          "midi": 62,
          "name": "D4",
          "ticks": 475200,
          "time": 361.017885,
          "velocity": 0.968503937007874
        },
        {
          "duration": 0.1415049999999951,
          "durationTicks": 192,
          "midi": 67,
          "name": "G4",
          "ticks": 475200,
          "time": 361.017885,
          "velocity": 0.968503937007874
        },
        {
          "duration": 0.2830099999999902,
          "durationTicks": 384,
          "midi": 63,
          "name": "D#4",
          "ticks": 475392,
          "time": 361.15939,
          "velocity": 0.968503937007874
        },
        {
          "duration": 0.2830099999999902,
          "durationTicks": 384,
          "midi": 67,
          "name": "G4",
          "ticks": 475392,
          "time": 361.15939,
          "velocity": 0.968503937007874
        },
        {
          "duration": 0.1415049999999951,
          "durationTicks": 192,
          "midi": 62,
          "name": "D4",
          "ticks": 476352,
          "time": 361.866915,
          "velocity": 0.968503937007874
        },
        {
          "duration": 0.1415049999999951,
          "durationTicks": 192,
          "midi": 71,
          "name": "B4",
          "ticks": 476352,
          "time": 361.866915,
          "velocity": 0.968503937007874
        },
        {
          "duration": 0.1415049999999951,
          "durationTicks": 192,
          "midi": 62,
          "name": "D4",
          "ticks": 476544,
          "time": 362.00842,
          "velocity": 0.968503937007874
        },
        {
          "duration": 0.1415049999999951,
          "durationTicks": 192,
          "midi": 71,
          "name": "B4",
          "ticks": 476544,
          "time": 362.00842,
          "velocity": 0.968503937007874
        },
        {
          "duration": 0.1415049999999951,
          "durationTicks": 192,
          "midi": 62,
          "name": "D4",
          "ticks": 476736,
          "time": 362.149925,
          "velocity": 0.968503937007874
        },
        {
          "duration": 0.1415049999999951,
          "durationTicks": 192,
          "midi": 71,
          "name": "B4",
          "ticks": 476736,
          "time": 362.149925,
          "velocity": 0.968503937007874
        },
        {
          "duration": 0.2830099999999902,
          "durationTicks": 384,
          "midi": 63,
          "name": "D#4",
          "ticks": 476928,
          "time": 362.29143,
          "velocity": 0.968503937007874
        },
        {
          "duration": 0.2830099999999902,
          "durationTicks": 384,
          "midi": 72,
          "name": "C5",
          "ticks": 476928,
          "time": 362.29143,
          "velocity": 0.968503937007874
        },
        {
          "duration": 0.1415049999999951,
          "durationTicks": 192,
          "midi": 62,
          "name": "D4",
          "ticks": 477888,
          "time": 362.99895499999997,
          "velocity": 0.968503937007874
        },
        {
          "duration": 0.1415049999999951,
          "durationTicks": 192,
          "midi": 71,
          "name": "B4",
          "ticks": 477888,
          "time": 362.99895499999997,
          "velocity": 0.968503937007874
        },
        {
          "duration": 0.1415049999999951,
          "durationTicks": 192,
          "midi": 62,
          "name": "D4",
          "ticks": 478080,
          "time": 363.14045999999996,
          "velocity": 0.968503937007874
        },
        {
          "duration": 0.1415049999999951,
          "durationTicks": 192,
          "midi": 71,
          "name": "B4",
          "ticks": 478080,
          "time": 363.14045999999996,
          "velocity": 0.968503937007874
        },
        {
          "duration": 0.1415049999999951,
          "durationTicks": 192,
          "midi": 62,
          "name": "D4",
          "ticks": 478272,
          "time": 363.28196499999996,
          "velocity": 0.968503937007874
        },
        {
          "duration": 0.1415049999999951,
          "durationTicks": 192,
          "midi": 71,
          "name": "B4",
          "ticks": 478272,
          "time": 363.28196499999996,
          "velocity": 0.968503937007874
        },
        {
          "duration": 0.28301000000004706,
          "durationTicks": 384,
          "midi": 63,
          "name": "D#4",
          "ticks": 478464,
          "time": 363.42346999999995,
          "velocity": 0.968503937007874
        },
        {
          "duration": 0.28301000000004706,
          "durationTicks": 384,
          "midi": 72,
          "name": "C5",
          "ticks": 478464,
          "time": 363.42346999999995,
          "velocity": 0.968503937007874
        },
        {
          "duration": 0.2830099999999902,
          "durationTicks": 384,
          "midi": 62,
          "name": "D4",
          "ticks": 478848,
          "time": 363.70648,
          "velocity": 0.968503937007874
        },
        {
          "duration": 0.2830099999999902,
          "durationTicks": 384,
          "midi": 71,
          "name": "B4",
          "ticks": 478848,
          "time": 363.70648,
          "velocity": 0.968503937007874
        },
        {
          "duration": 0.2830099999999902,
          "durationTicks": 384,
          "midi": 63,
          "name": "D#4",
          "ticks": 479232,
          "time": 363.98949,
          "velocity": 0.968503937007874
        },
        {
          "duration": 0.2830099999999902,
          "durationTicks": 384,
          "midi": 72,
          "name": "C5",
          "ticks": 479232,
          "time": 363.98949,
          "velocity": 0.968503937007874
        },
        {
          "duration": 0.2830099999999902,
          "durationTicks": 384,
          "midi": 62,
          "name": "D4",
          "ticks": 479616,
          "time": 364.2725,
          "velocity": 0.968503937007874
        },
        {
          "duration": 0.2830099999999902,
          "durationTicks": 384,
          "midi": 71,
          "name": "B4",
          "ticks": 479616,
          "time": 364.2725,
          "velocity": 0.968503937007874
        },
        {
          "duration": 0.2830099999999902,
          "durationTicks": 384,
          "midi": 63,
          "name": "D#4",
          "ticks": 480000,
          "time": 364.55550999999997,
          "velocity": 0.968503937007874
        },
        {
          "duration": 0.2830099999999902,
          "durationTicks": 384,
          "midi": 72,
          "name": "C5",
          "ticks": 480000,
          "time": 364.55550999999997,
          "velocity": 0.968503937007874
        },
        {
          "duration": 0.28301000000004706,
          "durationTicks": 384,
          "midi": 62,
          "name": "D4",
          "ticks": 480384,
          "time": 364.83851999999996,
          "velocity": 0.968503937007874
        },
        {
          "duration": 0.28301000000004706,
          "durationTicks": 384,
          "midi": 71,
          "name": "B4",
          "ticks": 480384,
          "time": 364.83851999999996,
          "velocity": 0.968503937007874
        },
        {
          "duration": 0.2830099999999902,
          "durationTicks": 384,
          "midi": 63,
          "name": "D#4",
          "ticks": 480768,
          "time": 365.12153,
          "velocity": 0.968503937007874
        },
        {
          "duration": 0.2830099999999902,
          "durationTicks": 384,
          "midi": 72,
          "name": "C5",
          "ticks": 480768,
          "time": 365.12153,
          "velocity": 0.968503937007874
        },
        {
          "duration": 0.2830099999999902,
          "durationTicks": 384,
          "midi": 62,
          "name": "D4",
          "ticks": 481152,
          "time": 365.40454,
          "velocity": 0.968503937007874
        },
        {
          "duration": 0.2830099999999902,
          "durationTicks": 384,
          "midi": 71,
          "name": "B4",
          "ticks": 481152,
          "time": 365.40454,
          "velocity": 0.968503937007874
        },
        {
          "duration": 0.2830099999999902,
          "durationTicks": 384,
          "midi": 63,
          "name": "D#4",
          "ticks": 481536,
          "time": 365.68755,
          "velocity": 0.968503937007874
        },
        {
          "duration": 0.2830099999999902,
          "durationTicks": 384,
          "midi": 72,
          "name": "C5",
          "ticks": 481536,
          "time": 365.68755,
          "velocity": 0.968503937007874
        },
        {
          "duration": 0.2830099999999902,
          "durationTicks": 384,
          "midi": 62,
          "name": "D4",
          "ticks": 482304,
          "time": 366.25356999999997,
          "velocity": 0.968503937007874
        },
        {
          "duration": 0.2830099999999902,
          "durationTicks": 384,
          "midi": 71,
          "name": "B4",
          "ticks": 482304,
          "time": 366.25356999999997,
          "velocity": 0.968503937007874
        },
        {
          "duration": 0.2830099999999902,
          "durationTicks": 384,
          "midi": 63,
          "name": "D#4",
          "ticks": 483072,
          "time": 366.81959,
          "velocity": 0.968503937007874
        },
        {
          "duration": 0.2830099999999902,
          "durationTicks": 384,
          "midi": 72,
          "name": "C5",
          "ticks": 483072,
          "time": 366.81959,
          "velocity": 0.968503937007874
        }
      ],
      "endOfTrackTicks": 484608
    },
    {
      "channel": 2,
      "controlChanges": {},
      "pitchBends": [],
      "instrument": {
        "family": "reed",
        "number": 71,
        "name": "clarinet"
      },
      "name": "CLARINET",
      "notes": [
        {
          "duration": 0.15,
          "durationTicks": 192,
          "midi": 55,
          "name": "G3",
          "ticks": 192,
          "time": 0.15,
          "velocity": 0.968503937007874
        },
        {
          "duration": 0.15,
          "durationTicks": 192,
          "midi": 55,
          "name": "G3",
          "ticks": 192,
          "time": 0.15,
          "velocity": 0.968503937007874
        },
        {
          "duration": 0.14999999999999997,
          "durationTicks": 192,
          "midi": 55,
          "name": "G3",
          "ticks": 384,
          "time": 0.3,
          "velocity": 0.968503937007874
        },
        {
          "duration": 0.14999999999999997,
          "durationTicks": 192,
          "midi": 55,
          "name": "G3",
          "ticks": 384,
          "time": 0.3,
          "velocity": 0.968503937007874
        },
        {
          "duration": 0.15000000000000002,
          "durationTicks": 192,
          "midi": 55,
          "name": "G3",
          "ticks": 576,
          "time": 0.44999999999999996,
          "velocity": 0.968503937007874
        },
        {
          "duration": 0.15000000000000002,
          "durationTicks": 192,
          "midi": 55,
          "name": "G3",
          "ticks": 576,
          "time": 0.44999999999999996,
          "velocity": 0.968503937007874
        },
        {
          "duration": 1.1999999999999997,
          "durationTicks": 768,
          "midi": 51,
          "name": "D#3",
          "ticks": 768,
          "time": 0.6,
          "velocity": 0.968503937007874
        },
        {
          "duration": 1.1999999999999997,
          "durationTicks": 768,
          "midi": 51,
          "name": "D#3",
          "ticks": 768,
          "time": 0.6,
          "velocity": 0.968503937007874
        },
        {
          "duration": 0.1499999999999999,
          "durationTicks": 192,
          "midi": 53,
          "name": "F3",
          "ticks": 1728,
          "time": 1.9499999999999997,
          "velocity": 0.968503937007874
        },
        {
          "duration": 0.1499999999999999,
          "durationTicks": 192,
          "midi": 53,
          "name": "F3",
          "ticks": 1728,
          "time": 1.9499999999999997,
          "velocity": 0.968503937007874
        },
        {
          "duration": 0.15000000000000036,
          "durationTicks": 192,
          "midi": 53,
          "name": "F3",
          "ticks": 1920,
          "time": 2.0999999999999996,
          "velocity": 0.968503937007874
        },
        {
          "duration": 0.15000000000000036,
          "durationTicks": 192,
          "midi": 53,
          "name": "F3",
          "ticks": 1920,
          "time": 2.0999999999999996,
          "velocity": 0.968503937007874
        },
        {
          "duration": 0.1499999999999999,
          "durationTicks": 192,
          "midi": 53,
          "name": "F3",
          "ticks": 2112,
          "time": 2.25,
          "velocity": 0.968503937007874
        },
        {
          "duration": 0.1499999999999999,
          "durationTicks": 192,
          "midi": 53,
          "name": "F3",
          "ticks": 2112,
          "time": 2.25,
          "velocity": 0.968503937007874
        },
        {
          "duration": 1.6,
          "durationTicks": 1536,
          "midi": 50,
          "name": "D3",
          "ticks": 2304,
          "time": 2.4,
          "velocity": 0.968503937007874
        },
        {
          "duration": 1.6,
          "durationTicks": 1536,
          "midi": 50,
          "name": "D3",
          "ticks": 2304,
          "time": 2.4,
          "velocity": 0.968503937007874
        },
        {
          "duration": 0.1442300000000003,
          "durationTicks": 192,
          "midi": 43,
          "name": "G2",
          "ticks": 13248,
          "time": 11.06727,
          "velocity": 0.7165354330708661
        },
        {
          "duration": 0.1442300000000003,
          "durationTicks": 192,
          "midi": 47,
          "name": "B2",
          "ticks": 13248,
          "time": 11.06727,
          "velocity": 0.7165354330708661
        },
        {
          "duration": 0.14422999999999853,
          "durationTicks": 192,
          "midi": 47,
          "name": "B2",
          "ticks": 13440,
          "time": 11.211500000000001,
          "velocity": 0.7952755905511811
        },
        {
          "duration": 0.14422999999999853,
          "durationTicks": 192,
          "midi": 50,
          "name": "D3",
          "ticks": 13440,
          "time": 11.211500000000001,
          "velocity": 0.7952755905511811
        },
        {
          "duration": 0.1442300000000003,
          "durationTicks": 192,
          "midi": 50,
          "name": "D3",
          "ticks": 13632,
          "time": 11.35573,
          "velocity": 0.8582677165354331
        },
        {
          "duration": 0.1442300000000003,
          "durationTicks": 192,
          "midi": 55,
          "name": "G3",
          "ticks": 13632,
          "time": 11.35573,
          "velocity": 0.8582677165354331
        },
        {
          "duration": 0.28845999999999883,
          "durationTicks": 384,
          "midi": 51,
          "name": "D#3",
          "ticks": 13824,
          "time": 11.49996,
          "velocity": 0.905511811023622
        },
        {
          "duration": 0.28845999999999883,
          "durationTicks": 384,
          "midi": 55,
          "name": "G3",
          "ticks": 13824,
          "time": 11.49996,
          "velocity": 0.905511811023622
        },
        {
          "duration": 0.2884600000000006,
          "durationTicks": 384,
          "midi": 48,
          "name": "C3",
          "ticks": 14592,
          "time": 12.07688,
          "velocity": 0.905511811023622
        },
        {
          "duration": 0.2884600000000006,
          "durationTicks": 384,
          "midi": 54,
          "name": "F#3",
          "ticks": 14592,
          "time": 12.07688,
          "velocity": 0.905511811023622
        },
        {
          "duration": 0.28845999999999883,
          "durationTicks": 384,
          "midi": 47,
          "name": "B2",
          "ticks": 15360,
          "time": 12.6538,
          "velocity": 0.905511811023622
        },
        {
          "duration": 0.28845999999999883,
          "durationTicks": 384,
          "midi": 50,
          "name": "D3",
          "ticks": 15360,
          "time": 12.6538,
          "velocity": 0.905511811023622
        },
        {
          "duration": 0.14285499999999907,
          "durationTicks": 192,
          "midi": 56,
          "name": "G#3",
          "ticks": 16320,
          "time": 14.751775,
          "velocity": 0.968503937007874
        },
        {
          "duration": 0.14285499999999907,
          "durationTicks": 192,
          "midi": 56,
          "name": "G#3",
          "ticks": 16320,
          "time": 14.751775,
          "velocity": 0.968503937007874
        },
        {
          "duration": 0.14285500000000084,
          "durationTicks": 192,
          "midi": 56,
          "name": "G#3",
          "ticks": 16512,
          "time": 14.89463,
          "velocity": 0.968503937007874
        },
        {
          "duration": 0.14285500000000084,
          "durationTicks": 192,
          "midi": 56,
          "name": "G#3",
          "ticks": 16512,
          "time": 14.89463,
          "velocity": 0.968503937007874
        },
        {
          "duration": 0.14285499999999907,
          "durationTicks": 192,
          "midi": 56,
          "name": "G#3",
          "ticks": 16704,
          "time": 15.037485,
          "velocity": 0.968503937007874
        },
        {
          "duration": 0.14285499999999907,
          "durationTicks": 192,
          "midi": 56,
          "name": "G#3",
          "ticks": 16704,
          "time": 15.037485,
          "velocity": 0.968503937007874
        },
        {
          "duration": 1.9047399999999985,
          "durationTicks": 1536,
          "midi": 53,
          "name": "F3",
          "ticks": 16896,
          "time": 15.18034,
          "velocity": 0.968503937007874
        },
        {
          "duration": 1.9047399999999985,
          "durationTicks": 1536,
          "midi": 53,
          "name": "F3",
          "ticks": 16896,
          "time": 15.18034,
          "velocity": 0.968503937007874
        },
        {
          "duration": 0.14285500000000084,
          "durationTicks": 192,
          "midi": 62,
          "name": "D4",
          "ticks": 24000,
          "time": 21.227874999999997,
          "velocity": 0.7165354330708661
        },
        {
          "duration": 0.14285500000000084,
          "durationTicks": 192,
          "midi": 62,
          "name": "D4",
          "ticks": 24000,
          "time": 21.227874999999997,
          "velocity": 0.7165354330708661
        },
        {
          "duration": 0.14285500000000084,
          "durationTicks": 192,
          "midi": 62,
          "name": "D4",
          "ticks": 24192,
          "time": 21.37073,
          "velocity": 0.7165354330708661
        },
        {
          "duration": 0.14285500000000084,
          "durationTicks": 192,
          "midi": 62,
          "name": "D4",
          "ticks": 24192,
          "time": 21.37073,
          "velocity": 0.7165354330708661
        },
        {
          "duration": 0.1428549999999973,
          "durationTicks": 192,
          "midi": 62,
          "name": "D4",
          "ticks": 24384,
          "time": 21.513585,
          "velocity": 0.7165354330708661
        },
        {
          "duration": 0.1428549999999973,
          "durationTicks": 192,
          "midi": 62,
          "name": "D4",
          "ticks": 24384,
          "time": 21.513585,
          "velocity": 0.7165354330708661
        },
        {
          "duration": 0.2857100000000017,
          "durationTicks": 384,
          "midi": 60,
          "name": "C4",
          "ticks": 24576,
          "time": 21.656439999999996,
          "velocity": 0.7165354330708661
        },
        {
          "duration": 0.2857100000000017,
          "durationTicks": 384,
          "midi": 60,
          "name": "C4",
          "ticks": 24576,
          "time": 21.656439999999996,
          "velocity": 0.7165354330708661
        },
        {
          "duration": 0.28301000000000087,
          "durationTicks": 384,
          "midi": 53,
          "name": "F3",
          "ticks": 28416,
          "time": 24.50274,
          "velocity": 0.7165354330708661
        },
        {
          "duration": 0.28301000000000087,
          "durationTicks": 384,
          "midi": 56,
          "name": "G#3",
          "ticks": 28416,
          "time": 24.50274,
          "velocity": 0.7165354330708661
        },
        {
          "duration": 0.28301000000000087,
          "durationTicks": 384,
          "midi": 52,
          "name": "E3",
          "ticks": 29184,
          "time": 25.068759999999997,
          "velocity": 0.7165354330708661
        },
        {
          "duration": 0.28301000000000087,
          "durationTicks": 384,
          "midi": 55,
          "name": "G3",
          "ticks": 29184,
          "time": 25.068759999999997,
          "velocity": 0.7165354330708661
        },
        {
          "duration": 0.28037000000000134,
          "durationTicks": 384,
          "midi": 53,
          "name": "F3",
          "ticks": 29952,
          "time": 25.63478,
          "velocity": 0.7165354330708661
        },
        {
          "duration": 0.28037000000000134,
          "durationTicks": 384,
          "midi": 56,
          "name": "G#3",
          "ticks": 29952,
          "time": 25.63478,
          "velocity": 0.7165354330708661
        },
        {
          "duration": 0.28037000000000134,
          "durationTicks": 384,
          "midi": 55,
          "name": "G3",
          "ticks": 30720,
          "time": 26.19552,
          "velocity": 0.7165354330708661
        },
        {
          "duration": 0.28037000000000134,
          "durationTicks": 384,
          "midi": 58,
          "name": "A#3",
          "ticks": 30720,
          "time": 26.19552,
          "velocity": 0.7165354330708661
        },
        {
          "duration": 0.28037000000000134,
          "durationTicks": 384,
          "midi": 53,
          "name": "F3",
          "ticks": 31488,
          "time": 26.756259999999997,
          "velocity": 0.7165354330708661
        },
        {
          "duration": 0.28037000000000134,
          "durationTicks": 384,
          "midi": 56,
          "name": "G#3",
          "ticks": 31488,
          "time": 26.756259999999997,
          "velocity": 0.7165354330708661
        },
        {
          "duration": 0.2803699999999978,
          "durationTicks": 384,
          "midi": 50,
          "name": "D3",
          "ticks": 32256,
          "time": 27.317,
          "velocity": 0.7165354330708661
        },
        {
          "duration": 0.2803699999999978,
          "durationTicks": 384,
          "midi": 53,
          "name": "F3",
          "ticks": 32256,
          "time": 27.317,
          "velocity": 0.7165354330708661
        },
        {
          "duration": 2.222159999999999,
          "durationTicks": 3072,
          "midi": 51,
          "name": "D#3",
          "ticks": 33024,
          "time": 27.87774,
          "velocity": 0.905511811023622
        },
        {
          "duration": 2.222159999999999,
          "durationTicks": 3072,
          "midi": 55,
          "name": "G3",
          "ticks": 33024,
          "time": 27.87774,
          "velocity": 0.905511811023622
        },
        {
          "duration": 1.9443899999999985,
          "durationTicks": 2688,
          "midi": 50,
          "name": "D3",
          "ticks": 36096,
          "time": 30.099899999999998,
          "velocity": 0.905511811023622
        },
        {
          "duration": 1.9443899999999985,
          "durationTicks": 2688,
          "midi": 53,
          "name": "F3",
          "ticks": 36096,
          "time": 30.099899999999998,
          "velocity": 0.905511811023622
        },
        {
          "duration": 0.27777000000000385,
          "durationTicks": 384,
          "midi": 48,
          "name": "C3",
          "ticks": 38784,
          "time": 32.04429,
          "velocity": 0.905511811023622
        },
        {
          "duration": 0.27777000000000385,
          "durationTicks": 384,
          "midi": 51,
          "name": "D#3",
          "ticks": 38784,
          "time": 32.04429,
          "velocity": 0.905511811023622
        },
        {
          "duration": 2.2221599999999953,
          "durationTicks": 3072,
          "midi": 54,
          "name": "F#3",
          "ticks": 39168,
          "time": 32.32206,
          "velocity": 0.968503937007874
        },
        {
          "duration": 2.2221599999999953,
          "durationTicks": 3072,
          "midi": 63,
          "name": "D#4",
          "ticks": 39168,
          "time": 32.32206,
          "velocity": 0.968503937007874
        },
        {
          "duration": 0.27777000000000385,
          "durationTicks": 384,
          "midi": 54,
          "name": "F#3",
          "ticks": 42240,
          "time": 34.544219999999996,
          "velocity": 0.968503937007874
        },
        {
          "duration": 0.27777000000000385,
          "durationTicks": 384,
          "midi": 63,
          "name": "D#4",
          "ticks": 42240,
          "time": 34.544219999999996,
          "velocity": 0.968503937007874
        },
        {
          "duration": 0.27777000000000385,
          "durationTicks": 384,
          "midi": 58,
          "name": "A#3",
          "ticks": 43776,
          "time": 35.6553,
          "velocity": 0.968503937007874
        },
        {
          "duration": 0.27777000000000385,
          "durationTicks": 384,
          "midi": 58,
          "name": "A#3",
          "ticks": 43776,
          "time": 35.6553,
          "velocity": 0.968503937007874
        },
        {
          "duration": 0.2884600000000006,
          "durationTicks": 384,
          "midi": 58,
          "name": "A#3",
          "ticks": 50688,
          "time": 40.8262,
          "velocity": 0.7165354330708661
        },
        {
          "duration": 0.2884600000000006,
          "durationTicks": 384,
          "midi": 58,
          "name": "A#3",
          "ticks": 50688,
          "time": 40.8262,
          "velocity": 0.7165354330708661
        },
        {
          "duration": 0.2884600000000006,
          "durationTicks": 384,
          "midi": 63,
          "name": "D#4",
          "ticks": 51072,
          "time": 41.11466,
          "velocity": 0.7165354330708661
        },
        {
          "duration": 0.2884600000000006,
          "durationTicks": 384,
          "midi": 63,
          "name": "D#4",
          "ticks": 51072,
          "time": 41.11466,
          "velocity": 0.7165354330708661
        },
        {
          "duration": 0.2830099999999973,
          "durationTicks": 384,
          "midi": 62,
          "name": "D4",
          "ticks": 51456,
          "time": 41.40312,
          "velocity": 0.7165354330708661
        },
        {
          "duration": 0.2830099999999973,
          "durationTicks": 384,
          "midi": 62,
          "name": "D4",
          "ticks": 51456,
          "time": 41.40312,
          "velocity": 0.7165354330708661
        },
        {
          "duration": 0.2830100000000044,
          "durationTicks": 384,
          "midi": 63,
          "name": "D#4",
          "ticks": 51840,
          "time": 41.68613,
          "velocity": 0.7165354330708661
        },
        {
          "duration": 0.2830100000000044,
          "durationTicks": 384,
          "midi": 63,
          "name": "D#4",
          "ticks": 51840,
          "time": 41.68613,
          "velocity": 0.7165354330708661
        },
        {
          "duration": 0.2830099999999973,
          "durationTicks": 384,
          "midi": 65,
          "name": "F4",
          "ticks": 52224,
          "time": 41.96914,
          "velocity": 0.7165354330708661
        },
        {
          "duration": 0.2830099999999973,
          "durationTicks": 384,
          "midi": 65,
          "name": "F4",
          "ticks": 52224,
          "time": 41.96914,
          "velocity": 0.7165354330708661
        },
        {
          "duration": 0.2830100000000044,
          "durationTicks": 384,
          "midi": 60,
          "name": "C4",
          "ticks": 52608,
          "time": 42.25215,
          "velocity": 0.7165354330708661
        },
        {
          "duration": 0.2830100000000044,
          "durationTicks": 384,
          "midi": 60,
          "name": "C4",
          "ticks": 52608,
          "time": 42.25215,
          "velocity": 0.7165354330708661
        },
        {
          "duration": 0.2830099999999973,
          "durationTicks": 384,
          "midi": 60,
          "name": "C4",
          "ticks": 52992,
          "time": 42.535160000000005,
          "velocity": 0.7165354330708661
        },
        {
          "duration": 0.2830099999999973,
          "durationTicks": 384,
          "midi": 60,
          "name": "C4",
          "ticks": 52992,
          "time": 42.535160000000005,
          "velocity": 0.7165354330708661
        },
        {
          "duration": 0.2830099999999973,
          "durationTicks": 384,
          "midi": 58,
          "name": "A#3",
          "ticks": 53376,
          "time": 42.81817,
          "velocity": 0.7165354330708661
        },
        {
          "duration": 0.2830099999999973,
          "durationTicks": 384,
          "midi": 58,
          "name": "A#3",
          "ticks": 53376,
          "time": 42.81817,
          "velocity": 0.7165354330708661
        },
        {
          "duration": 1.6666200000000018,
          "durationTicks": 2304,
          "midi": 60,
          "name": "C4",
          "ticks": 62976,
          "time": 49.77814,
          "velocity": 0.7165354330708661
        },
        {
          "duration": 1.6666200000000018,
          "durationTicks": 2304,
          "midi": 63,
          "name": "D#4",
          "ticks": 62976,
          "time": 49.77814,
          "velocity": 0.7165354330708661
        },
        {
          "duration": 1.1110800000000012,
          "durationTicks": 1536,
          "midi": 58,
          "name": "A#3",
          "ticks": 65280,
          "time": 51.44476,
          "velocity": 0.7165354330708661
        },
        {
          "duration": 1.1110800000000012,
          "durationTicks": 1536,
          "midi": 63,
          "name": "D#4",
          "ticks": 65280,
          "time": 51.44476,
          "velocity": 0.7165354330708661
        },
        {
          "duration": 2.499929999999999,
          "durationTicks": 3456,
          "midi": 57,
          "name": "A3",
          "ticks": 66816,
          "time": 52.55584,
          "velocity": 0.7165354330708661
        },
        {
          "duration": 2.499929999999999,
          "durationTicks": 3456,
          "midi": 63,
          "name": "D#4",
          "ticks": 66816,
          "time": 52.55584,
          "velocity": 0.7165354330708661
        },
        {
          "duration": 0.27776999999999674,
          "durationTicks": 384,
          "midi": 57,
          "name": "A3",
          "ticks": 70272,
          "time": 55.05577,
          "velocity": 0.8582677165354331
        },
        {
          "duration": 0.27776999999999674,
          "durationTicks": 384,
          "midi": 63,
          "name": "D#4",
          "ticks": 70272,
          "time": 55.05577,
          "velocity": 0.8582677165354331
        },
        {
          "duration": 0.27777000000000385,
          "durationTicks": 384,
          "midi": 57,
          "name": "A3",
          "ticks": 70656,
          "time": 55.33354,
          "velocity": 0.905511811023622
        },
        {
          "duration": 0.27777000000000385,
          "durationTicks": 384,
          "midi": 63,
          "name": "D#4",
          "ticks": 70656,
          "time": 55.33354,
          "velocity": 0.905511811023622
        },
        {
          "duration": 0.27776999999999674,
          "durationTicks": 384,
          "midi": 57,
          "name": "A3",
          "ticks": 71040,
          "time": 55.61131,
          "velocity": 0.905511811023622
        },
        {
          "duration": 0.27776999999999674,
          "durationTicks": 384,
          "midi": 63,
          "name": "D#4",
          "ticks": 71040,
          "time": 55.61131,
          "velocity": 0.905511811023622
        },
        {
          "duration": 0.8333100000000044,
          "durationTicks": 1152,
          "midi": 56,
          "name": "G#3",
          "ticks": 71424,
          "time": 55.88908,
          "velocity": 0.968503937007874
        },
        {
          "duration": 0.8333100000000044,
          "durationTicks": 1152,
          "midi": 58,
          "name": "A#3",
          "ticks": 71424,
          "time": 55.88908,
          "velocity": 0.968503937007874
        },
        {
          "duration": 0.27776999999999674,
          "durationTicks": 384,
          "midi": 53,
          "name": "F3",
          "ticks": 72576,
          "time": 56.722390000000004,
          "velocity": 0.968503937007874
        },
        {
          "duration": 0.27776999999999674,
          "durationTicks": 384,
          "midi": 58,
          "name": "A#3",
          "ticks": 72576,
          "time": 56.722390000000004,
          "velocity": 0.968503937007874
        },
        {
          "duration": 0.27776999999999674,
          "durationTicks": 384,
          "midi": 55,
          "name": "G3",
          "ticks": 72960,
          "time": 57.00016,
          "velocity": 0.968503937007874
        },
        {
          "duration": 0.27776999999999674,
          "durationTicks": 384,
          "midi": 58,
          "name": "A#3",
          "ticks": 72960,
          "time": 57.00016,
          "velocity": 0.968503937007874
        },
        {
          "duration": 0.27777000000000385,
          "durationTicks": 384,
          "midi": 56,
          "name": "G#3",
          "ticks": 73728,
          "time": 57.5557,
          "velocity": 0.968503937007874
        },
        {
          "duration": 0.27777000000000385,
          "durationTicks": 384,
          "midi": 58,
          "name": "A#3",
          "ticks": 73728,
          "time": 57.5557,
          "velocity": 0.968503937007874
        },
        {
          "duration": 0.27776999999999674,
          "durationTicks": 384,
          "midi": 55,
          "name": "G3",
          "ticks": 74496,
          "time": 58.11124,
          "velocity": 0.968503937007874
        },
        {
          "duration": 0.27776999999999674,
          "durationTicks": 384,
          "midi": 58,
          "name": "A#3",
          "ticks": 74496,
          "time": 58.11124,
          "velocity": 0.968503937007874
        },
        {
          "duration": 0.27776999999999674,
          "durationTicks": 384,
          "midi": 53,
          "name": "F3",
          "ticks": 75264,
          "time": 58.66678,
          "velocity": 0.968503937007874
        },
        {
          "duration": 0.27776999999999674,
          "durationTicks": 384,
          "midi": 60,
          "name": "C4",
          "ticks": 75264,
          "time": 58.66678,
          "velocity": 0.968503937007874
        },
        {
          "duration": 0.27776999999999674,
          "durationTicks": 384,
          "midi": 55,
          "name": "G3",
          "ticks": 76032,
          "time": 59.22232,
          "velocity": 0.968503937007874
        },
        {
          "duration": 0.27776999999999674,
          "durationTicks": 384,
          "midi": 58,
          "name": "A#3",
          "ticks": 76032,
          "time": 59.22232,
          "velocity": 0.968503937007874
        },
        {
          "duration": 0.13888500000000192,
          "durationTicks": 192,
          "midi": 53,
          "name": "F3",
          "ticks": 76800,
          "time": 59.777860000000004,
          "velocity": 0.968503937007874
        },
        {
          "duration": 0.13888500000000192,
          "durationTicks": 192,
          "midi": 58,
          "name": "A#3",
          "ticks": 76800,
          "time": 59.777860000000004,
          "velocity": 0.968503937007874
        },
        {
          "duration": 0.13888499999999482,
          "durationTicks": 192,
          "midi": 57,
          "name": "A3",
          "ticks": 76992,
          "time": 59.916745000000006,
          "velocity": 0.968503937007874
        },
        {
          "duration": 0.13888499999999482,
          "durationTicks": 192,
          "midi": 69,
          "name": "A4",
          "ticks": 76992,
          "time": 59.916745000000006,
          "velocity": 0.968503937007874
        },
        {
          "duration": 0.13888500000000192,
          "durationTicks": 192,
          "midi": 58,
          "name": "A#3",
          "ticks": 77184,
          "time": 60.05563,
          "velocity": 0.968503937007874
        },
        {
          "duration": 0.13888500000000192,
          "durationTicks": 192,
          "midi": 70,
          "name": "A#4",
          "ticks": 77184,
          "time": 60.05563,
          "velocity": 0.968503937007874
        },
        {
          "duration": 0.13888499999999482,
          "durationTicks": 192,
          "midi": 57,
          "name": "A3",
          "ticks": 77376,
          "time": 60.194515,
          "velocity": 0.968503937007874
        },
        {
          "duration": 0.13888499999999482,
          "durationTicks": 192,
          "midi": 69,
          "name": "A4",
          "ticks": 77376,
          "time": 60.194515,
          "velocity": 0.968503937007874
        },
        {
          "duration": 0.13888500000000192,
          "durationTicks": 192,
          "midi": 58,
          "name": "A#3",
          "ticks": 77568,
          "time": 60.3334,
          "velocity": 0.968503937007874
        },
        {
          "duration": 0.13888500000000192,
          "durationTicks": 192,
          "midi": 70,
          "name": "A#4",
          "ticks": 77568,
          "time": 60.3334,
          "velocity": 0.968503937007874
        },
        {
          "duration": 0.13888500000000192,
          "durationTicks": 192,
          "midi": 57,
          "name": "A3",
          "ticks": 77760,
          "time": 60.472285,
          "velocity": 0.968503937007874
        },
        {
          "duration": 0.13888500000000192,
          "durationTicks": 192,
          "midi": 69,
          "name": "A4",
          "ticks": 77760,
          "time": 60.472285,
          "velocity": 0.968503937007874
        },
        {
          "duration": 0.13888500000000192,
          "durationTicks": 192,
          "midi": 58,
          "name": "A#3",
          "ticks": 77952,
          "time": 60.61117,
          "velocity": 0.968503937007874
        },
        {
          "duration": 0.13888500000000192,
          "durationTicks": 192,
          "midi": 70,
          "name": "A#4",
          "ticks": 77952,
          "time": 60.61117,
          "velocity": 0.968503937007874
        },
        {
          "duration": 0.13888500000000192,
          "durationTicks": 192,
          "midi": 57,
          "name": "A3",
          "ticks": 78144,
          "time": 60.750055,
          "velocity": 0.968503937007874
        },
        {
          "duration": 0.13888500000000192,
          "durationTicks": 192,
          "midi": 69,
          "name": "A4",
          "ticks": 78144,
          "time": 60.750055,
          "velocity": 0.968503937007874
        },
        {
          "duration": 0.13888500000000192,
          "durationTicks": 192,
          "midi": 58,
          "name": "A#3",
          "ticks": 78336,
          "time": 60.888940000000005,
          "velocity": 0.968503937007874
        },
        {
          "duration": 0.13888500000000192,
          "durationTicks": 192,
          "midi": 70,
          "name": "A#4",
          "ticks": 78336,
          "time": 60.888940000000005,
          "velocity": 0.968503937007874
        },
        {
          "duration": 0.13888499999999482,
          "durationTicks": 192,
          "midi": 60,
          "name": "C4",
          "ticks": 78528,
          "time": 61.02782500000001,
          "velocity": 0.968503937007874
        },
        {
          "duration": 0.13888499999999482,
          "durationTicks": 192,
          "midi": 72,
          "name": "C5",
          "ticks": 78528,
          "time": 61.02782500000001,
          "velocity": 0.968503937007874
        },
        {
          "duration": 0.13888500000000192,
          "durationTicks": 192,
          "midi": 58,
          "name": "A#3",
          "ticks": 78720,
          "time": 61.16671,
          "velocity": 0.968503937007874
        },
        {
          "duration": 0.13888500000000192,
          "durationTicks": 192,
          "midi": 70,
          "name": "A#4",
          "ticks": 78720,
          "time": 61.16671,
          "velocity": 0.968503937007874
        },
        {
          "duration": 0.13888499999999482,
          "durationTicks": 192,
          "midi": 56,
          "name": "G#3",
          "ticks": 78912,
          "time": 61.305595000000004,
          "velocity": 0.968503937007874
        },
        {
          "duration": 0.13888499999999482,
          "durationTicks": 192,
          "midi": 68,
          "name": "G#4",
          "ticks": 78912,
          "time": 61.305595000000004,
          "velocity": 0.968503937007874
        },
        {
          "duration": 0.27777000000000385,
          "durationTicks": 384,
          "midi": 55,
          "name": "G3",
          "ticks": 79104,
          "time": 61.44448,
          "velocity": 0.968503937007874
        },
        {
          "duration": 0.27777000000000385,
          "durationTicks": 384,
          "midi": 67,
          "name": "G4",
          "ticks": 79104,
          "time": 61.44448,
          "velocity": 0.968503937007874
        },
        {
          "duration": 0.27777000000000385,
          "durationTicks": 384,
          "midi": 55,
          "name": "G3",
          "ticks": 79488,
          "time": 61.72225,
          "velocity": 0.968503937007874
        },
        {
          "duration": 0.27777000000000385,
          "durationTicks": 384,
          "midi": 67,
          "name": "G4",
          "ticks": 79488,
          "time": 61.72225,
          "velocity": 0.968503937007874
        },
        {
          "duration": 0.27776999999999674,
          "durationTicks": 384,
          "midi": 53,
          "name": "F3",
          "ticks": 80256,
          "time": 62.27779,
          "velocity": 0.968503937007874
        },
        {
          "duration": 0.27776999999999674,
          "durationTicks": 384,
          "midi": 62,
          "name": "D4",
          "ticks": 80256,
          "time": 62.27779,
          "velocity": 0.968503937007874
        },
        {
          "duration": 0.27777000000000385,
          "durationTicks": 384,
          "midi": 55,
          "name": "G3",
          "ticks": 81024,
          "time": 62.833330000000004,
          "velocity": 0.968503937007874
        },
        {
          "duration": 0.27777000000000385,
          "durationTicks": 384,
          "midi": 63,
          "name": "D#4",
          "ticks": 81024,
          "time": 62.833330000000004,
          "velocity": 0.968503937007874
        },
        {
          "duration": 0.27777000000000385,
          "durationTicks": 384,
          "midi": 53,
          "name": "F3",
          "ticks": 81792,
          "time": 63.38887,
          "velocity": 0.968503937007874
        },
        {
          "duration": 0.27777000000000385,
          "durationTicks": 384,
          "midi": 56,
          "name": "G#3",
          "ticks": 81792,
          "time": 63.38887,
          "velocity": 0.968503937007874
        },
        {
          "duration": 0.27777000000000385,
          "durationTicks": 384,
          "midi": 51,
          "name": "D#3",
          "ticks": 82560,
          "time": 63.944410000000005,
          "velocity": 0.968503937007874
        },
        {
          "duration": 0.27777000000000385,
          "durationTicks": 384,
          "midi": 55,
          "name": "G3",
          "ticks": 82560,
          "time": 63.944410000000005,
          "velocity": 0.968503937007874
        },
        {
          "duration": 0.27777000000000385,
          "durationTicks": 384,
          "midi": 53,
          "name": "F3",
          "ticks": 83328,
          "time": 64.49995,
          "velocity": 0.968503937007874
        },
        {
          "duration": 0.27777000000000385,
          "durationTicks": 384,
          "midi": 62,
          "name": "D4",
          "ticks": 83328,
          "time": 64.49995,
          "velocity": 0.968503937007874
        },
        {
          "duration": 0.13888500000000192,
          "durationTicks": 192,
          "midi": 55,
          "name": "G3",
          "ticks": 83712,
          "time": 64.77772,
          "velocity": 0.968503937007874
        },
        {
          "duration": 0.13888500000000192,
          "durationTicks": 192,
          "midi": 63,
          "name": "D#4",
          "ticks": 83712,
          "time": 64.77772,
          "velocity": 0.968503937007874
        },
        {
          "duration": 0.13888500000000192,
          "durationTicks": 192,
          "midi": 67,
          "name": "G4",
          "ticks": 83904,
          "time": 64.916605,
          "velocity": 0.968503937007874
        },
        {
          "duration": 0.13888500000000192,
          "durationTicks": 192,
          "midi": 67,
          "name": "G4",
          "ticks": 83904,
          "time": 64.916605,
          "velocity": 0.968503937007874
        },
        {
          "duration": 0.13888500000000192,
          "durationTicks": 192,
          "midi": 67,
          "name": "G4",
          "ticks": 84096,
          "time": 65.05549,
          "velocity": 0.968503937007874
        },
        {
          "duration": 0.13888500000000192,
          "durationTicks": 192,
          "midi": 67,
          "name": "G4",
          "ticks": 84096,
          "time": 65.05549,
          "velocity": 0.968503937007874
        },
        {
          "duration": 0.1388849999999877,
          "durationTicks": 192,
          "midi": 67,
          "name": "G4",
          "ticks": 84288,
          "time": 65.19437500000001,
          "velocity": 0.968503937007874
        },
        {
          "duration": 0.1388849999999877,
          "durationTicks": 192,
          "midi": 67,
          "name": "G4",
          "ticks": 84288,
          "time": 65.19437500000001,
          "velocity": 0.968503937007874
        },
        {
          "duration": 0.13888500000000192,
          "durationTicks": 192,
          "midi": 63,
          "name": "D#4",
          "ticks": 84480,
          "time": 65.33326,
          "velocity": 0.968503937007874
        },
        {
          "duration": 0.13888500000000192,
          "durationTicks": 192,
          "midi": 63,
          "name": "D#4",
          "ticks": 84480,
          "time": 65.33326,
          "velocity": 0.968503937007874
        },
        {
          "duration": 0.13888500000000192,
          "durationTicks": 192,
          "midi": 58,
          "name": "A#3",
          "ticks": 84672,
          "time": 65.472145,
          "velocity": 0.968503937007874
        },
        {
          "duration": 0.13888500000000192,
          "durationTicks": 192,
          "midi": 70,
          "name": "A#4",
          "ticks": 84672,
          "time": 65.472145,
          "velocity": 0.968503937007874
        },
        {
          "duration": 0.13888500000000192,
          "durationTicks": 192,
          "midi": 58,
          "name": "A#3",
          "ticks": 84864,
          "time": 65.61103,
          "velocity": 0.968503937007874
        },
        {
          "duration": 0.13888500000000192,
          "durationTicks": 192,
          "midi": 70,
          "name": "A#4",
          "ticks": 84864,
          "time": 65.61103,
          "velocity": 0.968503937007874
        },
        {
          "duration": 0.13888500000000192,
          "durationTicks": 192,
          "midi": 58,
          "name": "A#3",
          "ticks": 85056,
          "time": 65.749915,
          "velocity": 0.968503937007874
        },
        {
          "duration": 0.13888500000000192,
          "durationTicks": 192,
          "midi": 70,
          "name": "A#4",
          "ticks": 85056,
          "time": 65.749915,
          "velocity": 0.968503937007874
        },
        {
          "duration": 0.13888500000000192,
          "durationTicks": 192,
          "midi": 55,
          "name": "G3",
          "ticks": 85248,
          "time": 65.8888,
          "velocity": 0.968503937007874
        },
        {
          "duration": 0.13888500000000192,
          "durationTicks": 192,
          "midi": 67,
          "name": "G4",
          "ticks": 85248,
          "time": 65.8888,
          "velocity": 0.968503937007874
        },
        {
          "duration": 0.13888500000000192,
          "durationTicks": 192,
          "midi": 51,
          "name": "D#3",
          "ticks": 85440,
          "time": 66.027685,
          "velocity": 0.968503937007874
        },
        {
          "duration": 0.13888500000000192,
          "durationTicks": 192,
          "midi": 63,
          "name": "D#4",
          "ticks": 85440,
          "time": 66.027685,
          "velocity": 0.968503937007874
        },
        {
          "duration": 0.1388849999999877,
          "durationTicks": 192,
          "midi": 51,
          "name": "D#3",
          "ticks": 85632,
          "time": 66.16657000000001,
          "velocity": 0.968503937007874
        },
        {
          "duration": 0.1388849999999877,
          "durationTicks": 192,
          "midi": 63,
          "name": "D#4",
          "ticks": 85632,
          "time": 66.16657000000001,
          "velocity": 0.968503937007874
        },
        {
          "duration": 0.13888500000001613,
          "durationTicks": 192,
          "midi": 51,
          "name": "D#3",
          "ticks": 85824,
          "time": 66.305455,
          "velocity": 0.968503937007874
        },
        {
          "duration": 0.13888500000001613,
          "durationTicks": 192,
          "midi": 63,
          "name": "D#4",
          "ticks": 85824,
          "time": 66.305455,
          "velocity": 0.968503937007874
        },
        {
          "duration": 0.6944249999999954,
          "durationTicks": 960,
          "midi": 46,
          "name": "A#2",
          "ticks": 86016,
          "time": 66.44434000000001,
          "velocity": 0.968503937007874
        },
        {
          "duration": 0.6944249999999954,
          "durationTicks": 960,
          "midi": 58,
          "name": "A#3",
          "ticks": 86016,
          "time": 66.44434000000001,
          "velocity": 0.968503937007874
        },
        {
          "duration": 0.1388849999999877,
          "durationTicks": 192,
          "midi": 67,
          "name": "G4",
          "ticks": 86976,
          "time": 67.138765,
          "velocity": 0.968503937007874
        },
        {
          "duration": 0.1388849999999877,
          "durationTicks": 192,
          "midi": 67,
          "name": "G4",
          "ticks": 86976,
          "time": 67.138765,
          "velocity": 0.968503937007874
        },
        {
          "duration": 0.13888500000001613,
          "durationTicks": 192,
          "midi": 67,
          "name": "G4",
          "ticks": 87168,
          "time": 67.27765,
          "velocity": 0.968503937007874
        },
        {
          "duration": 0.13888500000001613,
          "durationTicks": 192,
          "midi": 67,
          "name": "G4",
          "ticks": 87168,
          "time": 67.27765,
          "velocity": 0.968503937007874
        },
        {
          "duration": 0.1388849999999877,
          "durationTicks": 192,
          "midi": 67,
          "name": "G4",
          "ticks": 87360,
          "time": 67.41653500000001,
          "velocity": 0.968503937007874
        },
        {
          "duration": 0.1388849999999877,
          "durationTicks": 192,
          "midi": 67,
          "name": "G4",
          "ticks": 87360,
          "time": 67.41653500000001,
          "velocity": 0.968503937007874
        },
        {
          "duration": 0.13888500000000192,
          "durationTicks": 192,
          "midi": 63,
          "name": "D#4",
          "ticks": 87552,
          "time": 67.55542,
          "velocity": 0.968503937007874
        },
        {
          "duration": 0.13888500000000192,
          "durationTicks": 192,
          "midi": 63,
          "name": "D#4",
          "ticks": 87552,
          "time": 67.55542,
          "velocity": 0.968503937007874
        },
        {
          "duration": 0.13888500000000192,
          "durationTicks": 192,
          "midi": 58,
          "name": "A#3",
          "ticks": 87744,
          "time": 67.694305,
          "velocity": 0.968503937007874
        },
        {
          "duration": 0.13888500000000192,
          "durationTicks": 192,
          "midi": 70,
          "name": "A#4",
          "ticks": 87744,
          "time": 67.694305,
          "velocity": 0.968503937007874
        },
        {
          "duration": 0.13888500000000192,
          "durationTicks": 192,
          "midi": 58,
          "name": "A#3",
          "ticks": 87936,
          "time": 67.83319,
          "velocity": 0.968503937007874
        },
        {
          "duration": 0.13888500000000192,
          "durationTicks": 192,
          "midi": 70,
          "name": "A#4",
          "ticks": 87936,
          "time": 67.83319,
          "velocity": 0.968503937007874
        },
        {
          "duration": 0.13888500000000192,
          "durationTicks": 192,
          "midi": 58,
          "name": "A#3",
          "ticks": 88128,
          "time": 67.972075,
          "velocity": 0.968503937007874
        },
        {
          "duration": 0.13888500000000192,
          "durationTicks": 192,
          "midi": 70,
          "name": "A#4",
          "ticks": 88128,
          "time": 67.972075,
          "velocity": 0.968503937007874
        },
        {
          "duration": 0.13888500000000192,
          "durationTicks": 192,
          "midi": 55,
          "name": "G3",
          "ticks": 88320,
          "time": 68.11096,
          "velocity": 0.968503937007874
        },
        {
          "duration": 0.13888500000000192,
          "durationTicks": 192,
          "midi": 67,
          "name": "G4",
          "ticks": 88320,
          "time": 68.11096,
          "velocity": 0.968503937007874
        },
        {
          "duration": 0.13888500000000192,
          "durationTicks": 192,
          "midi": 51,
          "name": "D#3",
          "ticks": 88512,
          "time": 68.24984500000001,
          "velocity": 0.968503937007874
        },
        {
          "duration": 0.13888500000000192,
          "durationTicks": 192,
          "midi": 63,
          "name": "D#4",
          "ticks": 88512,
          "time": 68.24984500000001,
          "velocity": 0.968503937007874
        },
        {
          "duration": 0.1388849999999877,
          "durationTicks": 192,
          "midi": 51,
          "name": "D#3",
          "ticks": 88704,
          "time": 68.38873000000001,
          "velocity": 0.968503937007874
        },
        {
          "duration": 0.1388849999999877,
          "durationTicks": 192,
          "midi": 63,
          "name": "D#4",
          "ticks": 88704,
          "time": 68.38873000000001,
          "velocity": 0.968503937007874
        },
        {
          "duration": 0.13888500000000192,
          "durationTicks": 192,
          "midi": 51,
          "name": "D#3",
          "ticks": 88896,
          "time": 68.527615,
          "velocity": 0.968503937007874
        },
        {
          "duration": 0.13888500000000192,
          "durationTicks": 192,
          "midi": 63,
          "name": "D#4",
          "ticks": 88896,
          "time": 68.527615,
          "velocity": 0.968503937007874
        },
        {
          "duration": 0.8333099999999973,
          "durationTicks": 1152,
          "midi": 46,
          "name": "A#2",
          "ticks": 89088,
          "time": 68.6665,
          "velocity": 0.968503937007874
        },
        {
          "duration": 0.8333099999999973,
          "durationTicks": 1152,
          "midi": 58,
          "name": "A#3",
          "ticks": 89088,
          "time": 68.6665,
          "velocity": 0.968503937007874
        },
        {
          "duration": 0.13888500000000192,
          "durationTicks": 192,
          "midi": 53,
          "name": "F3",
          "ticks": 90816,
          "time": 69.916465,
          "velocity": 0.968503937007874
        },
        {
          "duration": 0.13888500000000192,
          "durationTicks": 192,
          "midi": 62,
          "name": "D4",
          "ticks": 90816,
          "time": 69.916465,
          "velocity": 0.968503937007874
        },
        {
          "duration": 0.13888500000000192,
          "durationTicks": 192,
          "midi": 53,
          "name": "F3",
          "ticks": 91008,
          "time": 70.05535,
          "velocity": 0.968503937007874
        },
        {
          "duration": 0.13888500000000192,
          "durationTicks": 192,
          "midi": 62,
          "name": "D4",
          "ticks": 91008,
          "time": 70.05535,
          "velocity": 0.968503937007874
        },
        {
          "duration": 0.13888500000000192,
          "durationTicks": 192,
          "midi": 53,
          "name": "F3",
          "ticks": 91200,
          "time": 70.194235,
          "velocity": 0.968503937007874
        },
        {
          "duration": 0.13888500000000192,
          "durationTicks": 192,
          "midi": 62,
          "name": "D4",
          "ticks": 91200,
          "time": 70.194235,
          "velocity": 0.968503937007874
        },
        {
          "duration": 0.27776999999998964,
          "durationTicks": 384,
          "midi": 55,
          "name": "G3",
          "ticks": 91392,
          "time": 70.33312000000001,
          "velocity": 0.968503937007874
        },
        {
          "duration": 0.27776999999998964,
          "durationTicks": 384,
          "midi": 63,
          "name": "D#4",
          "ticks": 91392,
          "time": 70.33312000000001,
          "velocity": 0.968503937007874
        },
        {
          "duration": 0.13888500000000192,
          "durationTicks": 192,
          "midi": 62,
          "name": "D4",
          "ticks": 92352,
          "time": 71.027545,
          "velocity": 0.968503937007874
        },
        {
          "duration": 0.13888500000000192,
          "durationTicks": 192,
          "midi": 65,
          "name": "F4",
          "ticks": 92352,
          "time": 71.027545,
          "velocity": 0.968503937007874
        },
        {
          "duration": 0.13888500000000192,
          "durationTicks": 192,
          "midi": 62,
          "name": "D4",
          "ticks": 92544,
          "time": 71.16643,
          "velocity": 0.968503937007874
        },
        {
          "duration": 0.13888500000000192,
          "durationTicks": 192,
          "midi": 65,
          "name": "F4",
          "ticks": 92544,
          "time": 71.16643,
          "velocity": 0.968503937007874
        },
        {
          "duration": 0.1388849999999877,
          "durationTicks": 192,
          "midi": 62,
          "name": "D4",
          "ticks": 92736,
          "time": 71.30531500000001,
          "velocity": 0.968503937007874
        },
        {
          "duration": 0.1388849999999877,
          "durationTicks": 192,
          "midi": 65,
          "name": "F4",
          "ticks": 92736,
          "time": 71.30531500000001,
          "velocity": 0.968503937007874
        },
        {
          "duration": 0.27777000000000385,
          "durationTicks": 384,
          "midi": 55,
          "name": "G3",
          "ticks": 92928,
          "time": 71.4442,
          "velocity": 0.968503937007874
        },
        {
          "duration": 0.27777000000000385,
          "durationTicks": 384,
          "midi": 63,
          "name": "D#4",
          "ticks": 92928,
          "time": 71.4442,
          "velocity": 0.968503937007874
        },
        {
          "duration": 0.14999999999999147,
          "durationTicks": 192,
          "midi": 55,
          "name": "G3",
          "ticks": 95424,
          "time": 73.26082000000001,
          "velocity": 0.968503937007874
        },
        {
          "duration": 0.14999999999999147,
          "durationTicks": 192,
          "midi": 55,
          "name": "G3",
          "ticks": 95424,
          "time": 73.26082000000001,
          "velocity": 0.968503937007874
        },
        {
          "duration": 0.15000000000000568,
          "durationTicks": 192,
          "midi": 55,
          "name": "G3",
          "ticks": 95616,
          "time": 73.41082,
          "velocity": 0.968503937007874
        },
        {
          "duration": 0.15000000000000568,
          "durationTicks": 192,
          "midi": 55,
          "name": "G3",
          "ticks": 95616,
          "time": 73.41082,
          "velocity": 0.968503937007874
        },
        {
          "duration": 0.14999999999999147,
          "durationTicks": 192,
          "midi": 55,
          "name": "G3",
          "ticks": 95808,
          "time": 73.56082,
          "velocity": 0.968503937007874
        },
        {
          "duration": 0.14999999999999147,
          "durationTicks": 192,
          "midi": 55,
          "name": "G3",
          "ticks": 95808,
          "time": 73.56082,
          "velocity": 0.968503937007874
        },
        {
          "duration": 1.2000000000000028,
          "durationTicks": 768,
          "midi": 51,
          "name": "D#3",
          "ticks": 96000,
          "time": 73.71082,
          "velocity": 0.968503937007874
        },
        {
          "duration": 1.2000000000000028,
          "durationTicks": 768,
          "midi": 51,
          "name": "D#3",
          "ticks": 96000,
          "time": 73.71082,
          "velocity": 0.968503937007874
        },
        {
          "duration": 0.14999999999999147,
          "durationTicks": 192,
          "midi": 53,
          "name": "F3",
          "ticks": 96960,
          "time": 75.06082,
          "velocity": 0.968503937007874
        },
        {
          "duration": 0.14999999999999147,
          "durationTicks": 192,
          "midi": 53,
          "name": "F3",
          "ticks": 96960,
          "time": 75.06082,
          "velocity": 0.968503937007874
        },
        {
          "duration": 0.15000000000000568,
          "durationTicks": 192,
          "midi": 53,
          "name": "F3",
          "ticks": 97152,
          "time": 75.21082,
          "velocity": 0.968503937007874
        },
        {
          "duration": 0.15000000000000568,
          "durationTicks": 192,
          "midi": 53,
          "name": "F3",
          "ticks": 97152,
          "time": 75.21082,
          "velocity": 0.968503937007874
        },
        {
          "duration": 0.14999999999999147,
          "durationTicks": 192,
          "midi": 53,
          "name": "F3",
          "ticks": 97344,
          "time": 75.36082,
          "velocity": 0.968503937007874
        },
        {
          "duration": 0.14999999999999147,
          "durationTicks": 192,
          "midi": 53,
          "name": "F3",
          "ticks": 97344,
          "time": 75.36082,
          "velocity": 0.968503937007874
        },
        {
          "duration": 1.6000000000000085,
          "durationTicks": 1536,
          "midi": 50,
          "name": "D3",
          "ticks": 97536,
          "time": 75.51082,
          "velocity": 0.968503937007874
        },
        {
          "duration": 1.6000000000000085,
          "durationTicks": 1536,
          "midi": 50,
          "name": "D3",
          "ticks": 97536,
          "time": 75.51082,
          "velocity": 0.968503937007874
        },
        {
          "duration": 0.1415049999999951,
          "durationTicks": 192,
          "midi": 43,
          "name": "G2",
          "ticks": 108480,
          "time": 84.044565,
          "velocity": 0.7165354330708661
        },
        {
          "duration": 0.1415049999999951,
          "durationTicks": 192,
          "midi": 47,
          "name": "B2",
          "ticks": 108480,
          "time": 84.044565,
          "velocity": 0.7165354330708661
        },
        {
          "duration": 0.1415049999999951,
          "durationTicks": 192,
          "midi": 47,
          "name": "B2",
          "ticks": 108672,
          "time": 84.18607,
          "velocity": 0.7952755905511811
        },
        {
          "duration": 0.1415049999999951,
          "durationTicks": 192,
          "midi": 50,
          "name": "D3",
          "ticks": 108672,
          "time": 84.18607,
          "velocity": 0.7952755905511811
        },
        {
          "duration": 0.14150500000000932,
          "durationTicks": 192,
          "midi": 50,
          "name": "D3",
          "ticks": 108864,
          "time": 84.327575,
          "velocity": 0.8582677165354331
        },
        {
          "duration": 0.14150500000000932,
          "durationTicks": 192,
          "midi": 55,
          "name": "G3",
          "ticks": 108864,
          "time": 84.327575,
          "velocity": 0.8582677165354331
        },
        {
          "duration": 0.2830100000000044,
          "durationTicks": 384,
          "midi": 51,
          "name": "D#3",
          "ticks": 109056,
          "time": 84.46908,
          "velocity": 0.905511811023622
        },
        {
          "duration": 0.2830100000000044,
          "durationTicks": 384,
          "midi": 55,
          "name": "G3",
          "ticks": 109056,
          "time": 84.46908,
          "velocity": 0.905511811023622
        },
        {
          "duration": 0.2830100000000044,
          "durationTicks": 384,
          "midi": 48,
          "name": "C3",
          "ticks": 109824,
          "time": 85.0351,
          "velocity": 0.905511811023622
        },
        {
          "duration": 0.2830100000000044,
          "durationTicks": 384,
          "midi": 54,
          "name": "F#3",
          "ticks": 109824,
          "time": 85.0351,
          "velocity": 0.905511811023622
        },
        {
          "duration": 0.2830099999999902,
          "durationTicks": 384,
          "midi": 47,
          "name": "B2",
          "ticks": 110592,
          "time": 85.60112000000001,
          "velocity": 0.905511811023622
        },
        {
          "duration": 0.2830099999999902,
          "durationTicks": 384,
          "midi": 50,
          "name": "D3",
          "ticks": 110592,
          "time": 85.60112000000001,
          "velocity": 0.905511811023622
        },
        {
          "duration": 0.1428549999999973,
          "durationTicks": 192,
          "midi": 56,
          "name": "G#3",
          "ticks": 111552,
          "time": 87.226985,
          "velocity": 0.968503937007874
        },
        {
          "duration": 0.1428549999999973,
          "durationTicks": 192,
          "midi": 56,
          "name": "G#3",
          "ticks": 111552,
          "time": 87.226985,
          "velocity": 0.968503937007874
        },
        {
          "duration": 0.1428550000000115,
          "durationTicks": 192,
          "midi": 56,
          "name": "G#3",
          "ticks": 111744,
          "time": 87.36984,
          "velocity": 0.968503937007874
        },
        {
          "duration": 0.1428550000000115,
          "durationTicks": 192,
          "midi": 56,
          "name": "G#3",
          "ticks": 111744,
          "time": 87.36984,
          "velocity": 0.968503937007874
        },
        {
          "duration": 0.1428549999999973,
          "durationTicks": 192,
          "midi": 56,
          "name": "G#3",
          "ticks": 111936,
          "time": 87.51269500000001,
          "velocity": 0.968503937007874
        },
        {
          "duration": 0.1428549999999973,
          "durationTicks": 192,
          "midi": 56,
          "name": "G#3",
          "ticks": 111936,
          "time": 87.51269500000001,
          "velocity": 0.968503937007874
        },
        {
          "duration": 1.9047400000000039,
          "durationTicks": 1536,
          "midi": 53,
          "name": "F3",
          "ticks": 112128,
          "time": 87.65555,
          "velocity": 0.968503937007874
        },
        {
          "duration": 1.9047400000000039,
          "durationTicks": 1536,
          "midi": 53,
          "name": "F3",
          "ticks": 112128,
          "time": 87.65555,
          "velocity": 0.968503937007874
        },
        {
          "duration": 0.1428549999999973,
          "durationTicks": 192,
          "midi": 62,
          "name": "D4",
          "ticks": 119232,
          "time": 93.70308500000002,
          "velocity": 0.7165354330708661
        },
        {
          "duration": 0.1428549999999973,
          "durationTicks": 192,
          "midi": 62,
          "name": "D4",
          "ticks": 119232,
          "time": 93.70308500000002,
          "velocity": 0.7165354330708661
        },
        {
          "duration": 0.1428549999999973,
          "durationTicks": 192,
          "midi": 62,
          "name": "D4",
          "ticks": 119424,
          "time": 93.84594000000001,
          "velocity": 0.7165354330708661
        },
        {
          "duration": 0.1428549999999973,
          "durationTicks": 192,
          "midi": 62,
          "name": "D4",
          "ticks": 119424,
          "time": 93.84594000000001,
          "velocity": 0.7165354330708661
        },
        {
          "duration": 0.1428549999999973,
          "durationTicks": 192,
          "midi": 62,
          "name": "D4",
          "ticks": 119616,
          "time": 93.98879500000001,
          "velocity": 0.7165354330708661
        },
        {
          "duration": 0.1428549999999973,
          "durationTicks": 192,
          "midi": 62,
          "name": "D4",
          "ticks": 119616,
          "time": 93.98879500000001,
          "velocity": 0.7165354330708661
        },
        {
          "duration": 0.2857099999999946,
          "durationTicks": 384,
          "midi": 60,
          "name": "C4",
          "ticks": 119808,
          "time": 94.13165000000001,
          "velocity": 0.7165354330708661
        },
        {
          "duration": 0.2857099999999946,
          "durationTicks": 384,
          "midi": 60,
          "name": "C4",
          "ticks": 119808,
          "time": 94.13165000000001,
          "velocity": 0.7165354330708661
        },
        {
          "duration": 0.2830099999999902,
          "durationTicks": 384,
          "midi": 53,
          "name": "F3",
          "ticks": 123648,
          "time": 96.97795,
          "velocity": 0.7165354330708661
        },
        {
          "duration": 0.2830099999999902,
          "durationTicks": 384,
          "midi": 56,
          "name": "G#3",
          "ticks": 123648,
          "time": 96.97795,
          "velocity": 0.7165354330708661
        },
        {
          "duration": 0.2830100000000044,
          "durationTicks": 384,
          "midi": 52,
          "name": "E3",
          "ticks": 124416,
          "time": 97.54397,
          "velocity": 0.7165354330708661
        },
        {
          "duration": 0.2830100000000044,
          "durationTicks": 384,
          "midi": 55,
          "name": "G3",
          "ticks": 124416,
          "time": 97.54397,
          "velocity": 0.7165354330708661
        },
        {
          "duration": 0.2803700000000049,
          "durationTicks": 384,
          "midi": 53,
          "name": "F3",
          "ticks": 125184,
          "time": 98.10999000000001,
          "velocity": 0.7165354330708661
        },
        {
          "duration": 0.2803700000000049,
          "durationTicks": 384,
          "midi": 56,
          "name": "G#3",
          "ticks": 125184,
          "time": 98.10999000000001,
          "velocity": 0.7165354330708661
        },
        {
          "duration": 0.2803700000000049,
          "durationTicks": 384,
          "midi": 55,
          "name": "G3",
          "ticks": 125952,
          "time": 98.67073,
          "velocity": 0.7165354330708661
        },
        {
          "duration": 0.2803700000000049,
          "durationTicks": 384,
          "midi": 58,
          "name": "A#3",
          "ticks": 125952,
          "time": 98.67073,
          "velocity": 0.7165354330708661
        },
        {
          "duration": 0.2803699999999907,
          "durationTicks": 384,
          "midi": 53,
          "name": "F3",
          "ticks": 126720,
          "time": 99.23147000000002,
          "velocity": 0.7165354330708661
        },
        {
          "duration": 0.2803699999999907,
          "durationTicks": 384,
          "midi": 56,
          "name": "G#3",
          "ticks": 126720,
          "time": 99.23147000000002,
          "velocity": 0.7165354330708661
        },
        {
          "duration": 0.2803700000000049,
          "durationTicks": 384,
          "midi": 50,
          "name": "D3",
          "ticks": 127488,
          "time": 99.79221000000001,
          "velocity": 0.7165354330708661
        },
        {
          "duration": 0.2803700000000049,
          "durationTicks": 384,
          "midi": 53,
          "name": "F3",
          "ticks": 127488,
          "time": 99.79221000000001,
          "velocity": 0.7165354330708661
        },
        {
          "duration": 2.2221600000000024,
          "durationTicks": 3072,
          "midi": 51,
          "name": "D#3",
          "ticks": 128256,
          "time": 100.35295,
          "velocity": 0.905511811023622
        },
        {
          "duration": 2.2221600000000024,
          "durationTicks": 3072,
          "midi": 55,
          "name": "G3",
          "ticks": 128256,
          "time": 100.35295,
          "velocity": 0.905511811023622
        },
        {
          "duration": 1.9443899999999985,
          "durationTicks": 2688,
          "midi": 50,
          "name": "D3",
          "ticks": 131328,
          "time": 102.57511000000001,
          "velocity": 0.905511811023622
        },
        {
          "duration": 1.9443899999999985,
          "durationTicks": 2688,
          "midi": 53,
          "name": "F3",
          "ticks": 131328,
          "time": 102.57511000000001,
          "velocity": 0.905511811023622
        },
        {
          "duration": 0.27777000000000385,
          "durationTicks": 384,
          "midi": 48,
          "name": "C3",
          "ticks": 134016,
          "time": 104.51950000000001,
          "velocity": 0.905511811023622
        },
        {
          "duration": 0.27777000000000385,
          "durationTicks": 384,
          "midi": 51,
          "name": "D#3",
          "ticks": 134016,
          "time": 104.51950000000001,
          "velocity": 0.905511811023622
        },
        {
          "duration": 2.222159999999988,
          "durationTicks": 3072,
          "midi": 54,
          "name": "F#3",
          "ticks": 134400,
          "time": 104.79727000000001,
          "velocity": 0.968503937007874
        },
        {
          "duration": 2.222159999999988,
          "durationTicks": 3072,
          "midi": 63,
          "name": "D#4",
          "ticks": 134400,
          "time": 104.79727000000001,
          "velocity": 0.968503937007874
        },
        {
          "duration": 0.27777000000000385,
          "durationTicks": 384,
          "midi": 54,
          "name": "F#3",
          "ticks": 137472,
          "time": 107.01943,
          "velocity": 0.968503937007874
        },
        {
          "duration": 0.27777000000000385,
          "durationTicks": 384,
          "midi": 63,
          "name": "D#4",
          "ticks": 137472,
          "time": 107.01943,
          "velocity": 0.968503937007874
        },
        {
          "duration": 0.27777000000000385,
          "durationTicks": 384,
          "midi": 58,
          "name": "A#3",
          "ticks": 139008,
          "time": 108.13051,
          "velocity": 0.968503937007874
        },
        {
          "duration": 0.27777000000000385,
          "durationTicks": 384,
          "midi": 58,
          "name": "A#3",
          "ticks": 139008,
          "time": 108.13051,
          "velocity": 0.968503937007874
        },
        {
          "duration": 0.2884600000000006,
          "durationTicks": 384,
          "midi": 58,
          "name": "A#3",
          "ticks": 145920,
          "time": 113.30141,
          "velocity": 0.7165354330708661
        },
        {
          "duration": 0.2884600000000006,
          "durationTicks": 384,
          "midi": 58,
          "name": "A#3",
          "ticks": 145920,
          "time": 113.30141,
          "velocity": 0.7165354330708661
        },
        {
          "duration": 0.2884600000000006,
          "durationTicks": 384,
          "midi": 63,
          "name": "D#4",
          "ticks": 146304,
          "time": 113.58987,
          "velocity": 0.7165354330708661
        },
        {
          "duration": 0.2884600000000006,
          "durationTicks": 384,
          "midi": 63,
          "name": "D#4",
          "ticks": 146304,
          "time": 113.58987,
          "velocity": 0.7165354330708661
        },
        {
          "duration": 0.2830100000000044,
          "durationTicks": 384,
          "midi": 62,
          "name": "D4",
          "ticks": 146688,
          "time": 113.87833,
          "velocity": 0.7165354330708661
        },
        {
          "duration": 0.2830100000000044,
          "durationTicks": 384,
          "midi": 62,
          "name": "D4",
          "ticks": 146688,
          "time": 113.87833,
          "velocity": 0.7165354330708661
        },
        {
          "duration": 0.2830099999999902,
          "durationTicks": 384,
          "midi": 63,
          "name": "D#4",
          "ticks": 147072,
          "time": 114.16134000000001,
          "velocity": 0.7165354330708661
        },
        {
          "duration": 0.2830099999999902,
          "durationTicks": 384,
          "midi": 63,
          "name": "D#4",
          "ticks": 147072,
          "time": 114.16134000000001,
          "velocity": 0.7165354330708661
        },
        {
          "duration": 0.2830100000000044,
          "durationTicks": 384,
          "midi": 65,
          "name": "F4",
          "ticks": 147456,
          "time": 114.44435,
          "velocity": 0.7165354330708661
        },
        {
          "duration": 0.2830100000000044,
          "durationTicks": 384,
          "midi": 65,
          "name": "F4",
          "ticks": 147456,
          "time": 114.44435,
          "velocity": 0.7165354330708661
        },
        {
          "duration": 0.2830100000000044,
          "durationTicks": 384,
          "midi": 60,
          "name": "C4",
          "ticks": 147840,
          "time": 114.72736,
          "velocity": 0.7165354330708661
        },
        {
          "duration": 0.2830100000000044,
          "durationTicks": 384,
          "midi": 60,
          "name": "C4",
          "ticks": 147840,
          "time": 114.72736,
          "velocity": 0.7165354330708661
        },
        {
          "duration": 0.2830099999999902,
          "durationTicks": 384,
          "midi": 60,
          "name": "C4",
          "ticks": 148224,
          "time": 115.01037000000001,
          "velocity": 0.7165354330708661
        },
        {
          "duration": 0.2830099999999902,
          "durationTicks": 384,
          "midi": 60,
          "name": "C4",
          "ticks": 148224,
          "time": 115.01037000000001,
          "velocity": 0.7165354330708661
        },
        {
          "duration": 0.2830100000000044,
          "durationTicks": 384,
          "midi": 58,
          "name": "A#3",
          "ticks": 148608,
          "time": 115.29338,
          "velocity": 0.7165354330708661
        },
        {
          "duration": 0.2830100000000044,
          "durationTicks": 384,
          "midi": 58,
          "name": "A#3",
          "ticks": 148608,
          "time": 115.29338,
          "velocity": 0.7165354330708661
        },
        {
          "duration": 1.6666199999999947,
          "durationTicks": 2304,
          "midi": 60,
          "name": "C4",
          "ticks": 158208,
          "time": 122.25335000000001,
          "velocity": 0.7165354330708661
        },
        {
          "duration": 1.6666199999999947,
          "durationTicks": 2304,
          "midi": 63,
          "name": "D#4",
          "ticks": 158208,
          "time": 122.25335000000001,
          "velocity": 0.7165354330708661
        },
        {
          "duration": 1.1110800000000012,
          "durationTicks": 1536,
          "midi": 58,
          "name": "A#3",
          "ticks": 160512,
          "time": 123.91997,
          "velocity": 0.7165354330708661
        },
        {
          "duration": 1.1110800000000012,
          "durationTicks": 1536,
          "midi": 63,
          "name": "D#4",
          "ticks": 160512,
          "time": 123.91997,
          "velocity": 0.7165354330708661
        },
        {
          "duration": 2.499930000000006,
          "durationTicks": 3456,
          "midi": 57,
          "name": "A3",
          "ticks": 162048,
          "time": 125.03105000000001,
          "velocity": 0.7165354330708661
        },
        {
          "duration": 2.499930000000006,
          "durationTicks": 3456,
          "midi": 63,
          "name": "D#4",
          "ticks": 162048,
          "time": 125.03105000000001,
          "velocity": 0.7165354330708661
        },
        {
          "duration": 0.27777000000000385,
          "durationTicks": 384,
          "midi": 57,
          "name": "A3",
          "ticks": 165504,
          "time": 127.53098000000001,
          "velocity": 0.8582677165354331
        },
        {
          "duration": 0.27777000000000385,
          "durationTicks": 384,
          "midi": 63,
          "name": "D#4",
          "ticks": 165504,
          "time": 127.53098000000001,
          "velocity": 0.8582677165354331
        },
        {
          "duration": 0.27776999999998964,
          "durationTicks": 384,
          "midi": 57,
          "name": "A3",
          "ticks": 165888,
          "time": 127.80875000000002,
          "velocity": 0.905511811023622
        },
        {
          "duration": 0.27776999999998964,
          "durationTicks": 384,
          "midi": 63,
          "name": "D#4",
          "ticks": 165888,
          "time": 127.80875000000002,
          "velocity": 0.905511811023622
        },
        {
          "duration": 0.27777000000000385,
          "durationTicks": 384,
          "midi": 57,
          "name": "A3",
          "ticks": 166272,
          "time": 128.08652,
          "velocity": 0.905511811023622
        },
        {
          "duration": 0.27777000000000385,
          "durationTicks": 384,
          "midi": 63,
          "name": "D#4",
          "ticks": 166272,
          "time": 128.08652,
          "velocity": 0.905511811023622
        },
        {
          "duration": 0.8333100000000115,
          "durationTicks": 1152,
          "midi": 56,
          "name": "G#3",
          "ticks": 166656,
          "time": 128.36429,
          "velocity": 0.968503937007874
        },
        {
          "duration": 0.8333100000000115,
          "durationTicks": 1152,
          "midi": 58,
          "name": "A#3",
          "ticks": 166656,
          "time": 128.36429,
          "velocity": 0.968503937007874
        },
        {
          "duration": 0.2777699999999754,
          "durationTicks": 384,
          "midi": 53,
          "name": "F3",
          "ticks": 167808,
          "time": 129.19760000000002,
          "velocity": 0.968503937007874
        },
        {
          "duration": 0.2777699999999754,
          "durationTicks": 384,
          "midi": 58,
          "name": "A#3",
          "ticks": 167808,
          "time": 129.19760000000002,
          "velocity": 0.968503937007874
        },
        {
          "duration": 0.27777000000000385,
          "durationTicks": 384,
          "midi": 55,
          "name": "G3",
          "ticks": 168192,
          "time": 129.47537,
          "velocity": 0.968503937007874
        },
        {
          "duration": 0.27777000000000385,
          "durationTicks": 384,
          "midi": 58,
          "name": "A#3",
          "ticks": 168192,
          "time": 129.47537,
          "velocity": 0.968503937007874
        },
        {
          "duration": 0.27777000000000385,
          "durationTicks": 384,
          "midi": 56,
          "name": "G#3",
          "ticks": 168960,
          "time": 130.03091,
          "velocity": 0.968503937007874
        },
        {
          "duration": 0.27777000000000385,
          "durationTicks": 384,
          "midi": 58,
          "name": "A#3",
          "ticks": 168960,
          "time": 130.03091,
          "velocity": 0.968503937007874
        },
        {
          "duration": 0.27777000000000385,
          "durationTicks": 384,
          "midi": 55,
          "name": "G3",
          "ticks": 169728,
          "time": 130.58645,
          "velocity": 0.968503937007874
        },
        {
          "duration": 0.27777000000000385,
          "durationTicks": 384,
          "midi": 58,
          "name": "A#3",
          "ticks": 169728,
          "time": 130.58645,
          "velocity": 0.968503937007874
        },
        {
          "duration": 0.27777000000000385,
          "durationTicks": 384,
          "midi": 53,
          "name": "F3",
          "ticks": 170496,
          "time": 131.14199000000002,
          "velocity": 0.968503937007874
        },
        {
          "duration": 0.27777000000000385,
          "durationTicks": 384,
          "midi": 60,
          "name": "C4",
          "ticks": 170496,
          "time": 131.14199000000002,
          "velocity": 0.968503937007874
        },
        {
          "duration": 0.27777000000000385,
          "durationTicks": 384,
          "midi": 55,
          "name": "G3",
          "ticks": 171264,
          "time": 131.69753,
          "velocity": 0.968503937007874
        },
        {
          "duration": 0.27777000000000385,
          "durationTicks": 384,
          "midi": 58,
          "name": "A#3",
          "ticks": 171264,
          "time": 131.69753,
          "velocity": 0.968503937007874
        },
        {
          "duration": 0.13888500000001613,
          "durationTicks": 192,
          "midi": 53,
          "name": "F3",
          "ticks": 172032,
          "time": 132.25307,
          "velocity": 0.968503937007874
        },
        {
          "duration": 0.13888500000001613,
          "durationTicks": 192,
          "midi": 58,
          "name": "A#3",
          "ticks": 172032,
          "time": 132.25307,
          "velocity": 0.968503937007874
        },
        {
          "duration": 0.1388849999999877,
          "durationTicks": 192,
          "midi": 57,
          "name": "A3",
          "ticks": 172224,
          "time": 132.39195500000002,
          "velocity": 0.968503937007874
        },
        {
          "duration": 0.1388849999999877,
          "durationTicks": 192,
          "midi": 69,
          "name": "A4",
          "ticks": 172224,
          "time": 132.39195500000002,
          "velocity": 0.968503937007874
        },
        {
          "duration": 0.13888500000001613,
          "durationTicks": 192,
          "midi": 58,
          "name": "A#3",
          "ticks": 172416,
          "time": 132.53084,
          "velocity": 0.968503937007874
        },
        {
          "duration": 0.13888500000001613,
          "durationTicks": 192,
          "midi": 70,
          "name": "A#4",
          "ticks": 172416,
          "time": 132.53084,
          "velocity": 0.968503937007874
        },
        {
          "duration": 0.1388849999999877,
          "durationTicks": 192,
          "midi": 57,
          "name": "A3",
          "ticks": 172608,
          "time": 132.66972500000003,
          "velocity": 0.968503937007874
        },
        {
          "duration": 0.1388849999999877,
          "durationTicks": 192,
          "midi": 69,
          "name": "A4",
          "ticks": 172608,
          "time": 132.66972500000003,
          "velocity": 0.968503937007874
        },
        {
          "duration": 0.1388849999999877,
          "durationTicks": 192,
          "midi": 58,
          "name": "A#3",
          "ticks": 172800,
          "time": 132.80861000000002,
          "velocity": 0.968503937007874
        },
        {
          "duration": 0.1388849999999877,
          "durationTicks": 192,
          "midi": 70,
          "name": "A#4",
          "ticks": 172800,
          "time": 132.80861000000002,
          "velocity": 0.968503937007874
        },
        {
          "duration": 0.13888500000001613,
          "durationTicks": 192,
          "midi": 57,
          "name": "A3",
          "ticks": 172992,
          "time": 132.947495,
          "velocity": 0.968503937007874
        },
        {
          "duration": 0.13888500000001613,
          "durationTicks": 192,
          "midi": 69,
          "name": "A4",
          "ticks": 172992,
          "time": 132.947495,
          "velocity": 0.968503937007874
        },
        {
          "duration": 0.1388849999999877,
          "durationTicks": 192,
          "midi": 58,
          "name": "A#3",
          "ticks": 173184,
          "time": 133.08638000000002,
          "velocity": 0.968503937007874
        },
        {
          "duration": 0.1388849999999877,
          "durationTicks": 192,
          "midi": 70,
          "name": "A#4",
          "ticks": 173184,
          "time": 133.08638000000002,
          "velocity": 0.968503937007874
        },
        {
          "duration": 0.13888500000001613,
          "durationTicks": 192,
          "midi": 57,
          "name": "A3",
          "ticks": 173376,
          "time": 133.225265,
          "velocity": 0.968503937007874
        },
        {
          "duration": 0.13888500000001613,
          "durationTicks": 192,
          "midi": 69,
          "name": "A4",
          "ticks": 173376,
          "time": 133.225265,
          "velocity": 0.968503937007874
        },
        {
          "duration": 0.1388849999999877,
          "durationTicks": 192,
          "midi": 58,
          "name": "A#3",
          "ticks": 173568,
          "time": 133.36415000000002,
          "velocity": 0.968503937007874
        },
        {
          "duration": 0.1388849999999877,
          "durationTicks": 192,
          "midi": 70,
          "name": "A#4",
          "ticks": 173568,
          "time": 133.36415000000002,
          "velocity": 0.968503937007874
        },
        {
          "duration": 0.13888500000001613,
          "durationTicks": 192,
          "midi": 60,
          "name": "C4",
          "ticks": 173760,
          "time": 133.503035,
          "velocity": 0.968503937007874
        },
        {
          "duration": 0.13888500000001613,
          "durationTicks": 192,
          "midi": 72,
          "name": "C5",
          "ticks": 173760,
          "time": 133.503035,
          "velocity": 0.968503937007874
        },
        {
          "duration": 0.1388849999999877,
          "durationTicks": 192,
          "midi": 58,
          "name": "A#3",
          "ticks": 173952,
          "time": 133.64192000000003,
          "velocity": 0.968503937007874
        },
        {
          "duration": 0.1388849999999877,
          "durationTicks": 192,
          "midi": 70,
          "name": "A#4",
          "ticks": 173952,
          "time": 133.64192000000003,
          "velocity": 0.968503937007874
        },
        {
          "duration": 0.1388849999999877,
          "durationTicks": 192,
          "midi": 56,
          "name": "G#3",
          "ticks": 174144,
          "time": 133.78080500000002,
          "velocity": 0.968503937007874
        },
        {
          "duration": 0.1388849999999877,
          "durationTicks": 192,
          "midi": 68,
          "name": "G#4",
          "ticks": 174144,
          "time": 133.78080500000002,
          "velocity": 0.968503937007874
        },
        {
          "duration": 0.27777000000000385,
          "durationTicks": 384,
          "midi": 55,
          "name": "G3",
          "ticks": 174336,
          "time": 133.91969,
          "velocity": 0.968503937007874
        },
        {
          "duration": 0.27777000000000385,
          "durationTicks": 384,
          "midi": 67,
          "name": "G4",
          "ticks": 174336,
          "time": 133.91969,
          "velocity": 0.968503937007874
        },
        {
          "duration": 0.27777000000000385,
          "durationTicks": 384,
          "midi": 55,
          "name": "G3",
          "ticks": 174720,
          "time": 134.19746,
          "velocity": 0.968503937007874
        },
        {
          "duration": 0.27777000000000385,
          "durationTicks": 384,
          "midi": 67,
          "name": "G4",
          "ticks": 174720,
          "time": 134.19746,
          "velocity": 0.968503937007874
        },
        {
          "duration": 0.27777000000000385,
          "durationTicks": 384,
          "midi": 53,
          "name": "F3",
          "ticks": 175488,
          "time": 134.75300000000001,
          "velocity": 0.968503937007874
        },
        {
          "duration": 0.27777000000000385,
          "durationTicks": 384,
          "midi": 62,
          "name": "D4",
          "ticks": 175488,
          "time": 134.75300000000001,
          "velocity": 0.968503937007874
        },
        {
          "duration": 0.27777000000000385,
          "durationTicks": 384,
          "midi": 55,
          "name": "G3",
          "ticks": 176256,
          "time": 135.30854000000002,
          "velocity": 0.968503937007874
        },
        {
          "duration": 0.27777000000000385,
          "durationTicks": 384,
          "midi": 63,
          "name": "D#4",
          "ticks": 176256,
          "time": 135.30854000000002,
          "velocity": 0.968503937007874
        },
        {
          "duration": 0.27777000000000385,
          "durationTicks": 384,
          "midi": 53,
          "name": "F3",
          "ticks": 177024,
          "time": 135.86408,
          "velocity": 0.968503937007874
        },
        {
          "duration": 0.27777000000000385,
          "durationTicks": 384,
          "midi": 56,
          "name": "G#3",
          "ticks": 177024,
          "time": 135.86408,
          "velocity": 0.968503937007874
        },
        {
          "duration": 0.27777000000000385,
          "durationTicks": 384,
          "midi": 51,
          "name": "D#3",
          "ticks": 177792,
          "time": 136.41962,
          "velocity": 0.968503937007874
        },
        {
          "duration": 0.27777000000000385,
          "durationTicks": 384,
          "midi": 55,
          "name": "G3",
          "ticks": 177792,
          "time": 136.41962,
          "velocity": 0.968503937007874
        },
        {
          "duration": 0.27777000000000385,
          "durationTicks": 384,
          "midi": 53,
          "name": "F3",
          "ticks": 178560,
          "time": 136.97516000000002,
          "velocity": 0.968503937007874
        },
        {
          "duration": 0.27777000000000385,
          "durationTicks": 384,
          "midi": 62,
          "name": "D4",
          "ticks": 178560,
          "time": 136.97516000000002,
          "velocity": 0.968503937007874
        },
        {
          "duration": 0.1388849999999877,
          "durationTicks": 192,
          "midi": 55,
          "name": "G3",
          "ticks": 178944,
          "time": 137.25293000000002,
          "velocity": 0.968503937007874
        },
        {
          "duration": 0.1388849999999877,
          "durationTicks": 192,
          "midi": 63,
          "name": "D#4",
          "ticks": 178944,
          "time": 137.25293000000002,
          "velocity": 0.968503937007874
        },
        {
          "duration": 0.13888500000001613,
          "durationTicks": 192,
          "midi": 67,
          "name": "G4",
          "ticks": 179136,
          "time": 137.391815,
          "velocity": 0.968503937007874
        },
        {
          "duration": 0.13888500000001613,
          "durationTicks": 192,
          "midi": 67,
          "name": "G4",
          "ticks": 179136,
          "time": 137.391815,
          "velocity": 0.968503937007874
        },
        {
          "duration": 0.1388849999999877,
          "durationTicks": 192,
          "midi": 67,
          "name": "G4",
          "ticks": 179328,
          "time": 137.53070000000002,
          "velocity": 0.968503937007874
        },
        {
          "duration": 0.1388849999999877,
          "durationTicks": 192,
          "midi": 67,
          "name": "G4",
          "ticks": 179328,
          "time": 137.53070000000002,
          "velocity": 0.968503937007874
        },
        {
          "duration": 0.1388849999999877,
          "durationTicks": 192,
          "midi": 67,
          "name": "G4",
          "ticks": 179520,
          "time": 137.669585,
          "velocity": 0.968503937007874
        },
        {
          "duration": 0.1388849999999877,
          "durationTicks": 192,
          "midi": 67,
          "name": "G4",
          "ticks": 179520,
          "time": 137.669585,
          "velocity": 0.968503937007874
        },
        {
          "duration": 0.13888500000001613,
          "durationTicks": 192,
          "midi": 63,
          "name": "D#4",
          "ticks": 179712,
          "time": 137.80847,
          "velocity": 0.968503937007874
        },
        {
          "duration": 0.13888500000001613,
          "durationTicks": 192,
          "midi": 63,
          "name": "D#4",
          "ticks": 179712,
          "time": 137.80847,
          "velocity": 0.968503937007874
        },
        {
          "duration": 0.1388849999999877,
          "durationTicks": 192,
          "midi": 58,
          "name": "A#3",
          "ticks": 179904,
          "time": 137.94735500000002,
          "velocity": 0.968503937007874
        },
        {
          "duration": 0.1388849999999877,
          "durationTicks": 192,
          "midi": 70,
          "name": "A#4",
          "ticks": 179904,
          "time": 137.94735500000002,
          "velocity": 0.968503937007874
        },
        {
          "duration": 0.13888500000001613,
          "durationTicks": 192,
          "midi": 58,
          "name": "A#3",
          "ticks": 180096,
          "time": 138.08624,
          "velocity": 0.968503937007874
        },
        {
          "duration": 0.13888500000001613,
          "durationTicks": 192,
          "midi": 70,
          "name": "A#4",
          "ticks": 180096,
          "time": 138.08624,
          "velocity": 0.968503937007874
        },
        {
          "duration": 0.1388849999999877,
          "durationTicks": 192,
          "midi": 58,
          "name": "A#3",
          "ticks": 180288,
          "time": 138.22512500000002,
          "velocity": 0.968503937007874
        },
        {
          "duration": 0.1388849999999877,
          "durationTicks": 192,
          "midi": 70,
          "name": "A#4",
          "ticks": 180288,
          "time": 138.22512500000002,
          "velocity": 0.968503937007874
        },
        {
          "duration": 0.13888500000001613,
          "durationTicks": 192,
          "midi": 55,
          "name": "G3",
          "ticks": 180480,
          "time": 138.36401,
          "velocity": 0.968503937007874
        },
        {
          "duration": 0.13888500000001613,
          "durationTicks": 192,
          "midi": 67,
          "name": "G4",
          "ticks": 180480,
          "time": 138.36401,
          "velocity": 0.968503937007874
        },
        {
          "duration": 0.1388849999999877,
          "durationTicks": 192,
          "midi": 51,
          "name": "D#3",
          "ticks": 180672,
          "time": 138.50289500000002,
          "velocity": 0.968503937007874
        },
        {
          "duration": 0.1388849999999877,
          "durationTicks": 192,
          "midi": 63,
          "name": "D#4",
          "ticks": 180672,
          "time": 138.50289500000002,
          "velocity": 0.968503937007874
        },
        {
          "duration": 0.1388849999999877,
          "durationTicks": 192,
          "midi": 51,
          "name": "D#3",
          "ticks": 180864,
          "time": 138.64178,
          "velocity": 0.968503937007874
        },
        {
          "duration": 0.1388849999999877,
          "durationTicks": 192,
          "midi": 63,
          "name": "D#4",
          "ticks": 180864,
          "time": 138.64178,
          "velocity": 0.968503937007874
        },
        {
          "duration": 0.13888500000001613,
          "durationTicks": 192,
          "midi": 51,
          "name": "D#3",
          "ticks": 181056,
          "time": 138.780665,
          "velocity": 0.968503937007874
        },
        {
          "duration": 0.13888500000001613,
          "durationTicks": 192,
          "midi": 63,
          "name": "D#4",
          "ticks": 181056,
          "time": 138.780665,
          "velocity": 0.968503937007874
        },
        {
          "duration": 0.6944249999999954,
          "durationTicks": 960,
          "midi": 46,
          "name": "A#2",
          "ticks": 181248,
          "time": 138.91955000000002,
          "velocity": 0.968503937007874
        },
        {
          "duration": 0.6944249999999954,
          "durationTicks": 960,
          "midi": 58,
          "name": "A#3",
          "ticks": 181248,
          "time": 138.91955000000002,
          "velocity": 0.968503937007874
        },
        {
          "duration": 0.1388849999999877,
          "durationTicks": 192,
          "midi": 67,
          "name": "G4",
          "ticks": 182208,
          "time": 139.613975,
          "velocity": 0.968503937007874
        },
        {
          "duration": 0.1388849999999877,
          "durationTicks": 192,
          "midi": 67,
          "name": "G4",
          "ticks": 182208,
          "time": 139.613975,
          "velocity": 0.968503937007874
        },
        {
          "duration": 0.13888500000001613,
          "durationTicks": 192,
          "midi": 67,
          "name": "G4",
          "ticks": 182400,
          "time": 139.75286,
          "velocity": 0.968503937007874
        },
        {
          "duration": 0.13888500000001613,
          "durationTicks": 192,
          "midi": 67,
          "name": "G4",
          "ticks": 182400,
          "time": 139.75286,
          "velocity": 0.968503937007874
        },
        {
          "duration": 0.1388849999999877,
          "durationTicks": 192,
          "midi": 67,
          "name": "G4",
          "ticks": 182592,
          "time": 139.89174500000001,
          "velocity": 0.968503937007874
        },
        {
          "duration": 0.1388849999999877,
          "durationTicks": 192,
          "midi": 67,
          "name": "G4",
          "ticks": 182592,
          "time": 139.89174500000001,
          "velocity": 0.968503937007874
        },
        {
          "duration": 0.13888500000001613,
          "durationTicks": 192,
          "midi": 63,
          "name": "D#4",
          "ticks": 182784,
          "time": 140.03063,
          "velocity": 0.968503937007874
        },
        {
          "duration": 0.13888500000001613,
          "durationTicks": 192,
          "midi": 63,
          "name": "D#4",
          "ticks": 182784,
          "time": 140.03063,
          "velocity": 0.968503937007874
        },
        {
          "duration": 0.1388849999999877,
          "durationTicks": 192,
          "midi": 58,
          "name": "A#3",
          "ticks": 182976,
          "time": 140.16951500000002,
          "velocity": 0.968503937007874
        },
        {
          "duration": 0.1388849999999877,
          "durationTicks": 192,
          "midi": 70,
          "name": "A#4",
          "ticks": 182976,
          "time": 140.16951500000002,
          "velocity": 0.968503937007874
        },
        {
          "duration": 0.13888500000001613,
          "durationTicks": 192,
          "midi": 58,
          "name": "A#3",
          "ticks": 183168,
          "time": 140.3084,
          "velocity": 0.968503937007874
        },
        {
          "duration": 0.13888500000001613,
          "durationTicks": 192,
          "midi": 70,
          "name": "A#4",
          "ticks": 183168,
          "time": 140.3084,
          "velocity": 0.968503937007874
        },
        {
          "duration": 0.1388849999999877,
          "durationTicks": 192,
          "midi": 58,
          "name": "A#3",
          "ticks": 183360,
          "time": 140.44728500000002,
          "velocity": 0.968503937007874
        },
        {
          "duration": 0.1388849999999877,
          "durationTicks": 192,
          "midi": 70,
          "name": "A#4",
          "ticks": 183360,
          "time": 140.44728500000002,
          "velocity": 0.968503937007874
        },
        {
          "duration": 0.13888500000001613,
          "durationTicks": 192,
          "midi": 55,
          "name": "G3",
          "ticks": 183552,
          "time": 140.58617,
          "velocity": 0.968503937007874
        },
        {
          "duration": 0.13888500000001613,
          "durationTicks": 192,
          "midi": 67,
          "name": "G4",
          "ticks": 183552,
          "time": 140.58617,
          "velocity": 0.968503937007874
        },
        {
          "duration": 0.1388849999999877,
          "durationTicks": 192,
          "midi": 51,
          "name": "D#3",
          "ticks": 183744,
          "time": 140.72505500000003,
          "velocity": 0.968503937007874
        },
        {
          "duration": 0.1388849999999877,
          "durationTicks": 192,
          "midi": 63,
          "name": "D#4",
          "ticks": 183744,
          "time": 140.72505500000003,
          "velocity": 0.968503937007874
        },
        {
          "duration": 0.13888500000001613,
          "durationTicks": 192,
          "midi": 51,
          "name": "D#3",
          "ticks": 183936,
          "time": 140.86394,
          "velocity": 0.968503937007874
        },
        {
          "duration": 0.13888500000001613,
          "durationTicks": 192,
          "midi": 63,
          "name": "D#4",
          "ticks": 183936,
          "time": 140.86394,
          "velocity": 0.968503937007874
        },
        {
          "duration": 0.1388849999999877,
          "durationTicks": 192,
          "midi": 51,
          "name": "D#3",
          "ticks": 184128,
          "time": 141.00282500000003,
          "velocity": 0.968503937007874
        },
        {
          "duration": 0.1388849999999877,
          "durationTicks": 192,
          "midi": 63,
          "name": "D#4",
          "ticks": 184128,
          "time": 141.00282500000003,
          "velocity": 0.968503937007874
        },
        {
          "duration": 0.8333100000000115,
          "durationTicks": 1152,
          "midi": 46,
          "name": "A#2",
          "ticks": 184320,
          "time": 141.14171000000002,
          "velocity": 0.968503937007874
        },
        {
          "duration": 0.8333100000000115,
          "durationTicks": 1152,
          "midi": 58,
          "name": "A#3",
          "ticks": 184320,
          "time": 141.14171000000002,
          "velocity": 0.968503937007874
        },
        {
          "duration": 0.1388849999999877,
          "durationTicks": 192,
          "midi": 53,
          "name": "F3",
          "ticks": 186048,
          "time": 142.39167500000002,
          "velocity": 0.968503937007874
        },
        {
          "duration": 0.1388849999999877,
          "durationTicks": 192,
          "midi": 62,
          "name": "D4",
          "ticks": 186048,
          "time": 142.39167500000002,
          "velocity": 0.968503937007874
        },
        {
          "duration": 0.13888500000001613,
          "durationTicks": 192,
          "midi": 53,
          "name": "F3",
          "ticks": 186240,
          "time": 142.53056,
          "velocity": 0.968503937007874
        },
        {
          "duration": 0.13888500000001613,
          "durationTicks": 192,
          "midi": 62,
          "name": "D4",
          "ticks": 186240,
          "time": 142.53056,
          "velocity": 0.968503937007874
        },
        {
          "duration": 0.1388849999999877,
          "durationTicks": 192,
          "midi": 53,
          "name": "F3",
          "ticks": 186432,
          "time": 142.66944500000002,
          "velocity": 0.968503937007874
        },
        {
          "duration": 0.1388849999999877,
          "durationTicks": 192,
          "midi": 62,
          "name": "D4",
          "ticks": 186432,
          "time": 142.66944500000002,
          "velocity": 0.968503937007874
        },
        {
          "duration": 0.27777000000000385,
          "durationTicks": 384,
          "midi": 55,
          "name": "G3",
          "ticks": 186624,
          "time": 142.80833,
          "velocity": 0.968503937007874
        },
        {
          "duration": 0.27777000000000385,
          "durationTicks": 384,
          "midi": 63,
          "name": "D#4",
          "ticks": 186624,
          "time": 142.80833,
          "velocity": 0.968503937007874
        },
        {
          "duration": 0.13888500000001613,
          "durationTicks": 192,
          "midi": 62,
          "name": "D4",
          "ticks": 187584,
          "time": 143.502755,
          "velocity": 0.968503937007874
        },
        {
          "duration": 0.13888500000001613,
          "durationTicks": 192,
          "midi": 65,
          "name": "F4",
          "ticks": 187584,
          "time": 143.502755,
          "velocity": 0.968503937007874
        },
        {
          "duration": 0.1388849999999877,
          "durationTicks": 192,
          "midi": 62,
          "name": "D4",
          "ticks": 187776,
          "time": 143.64164000000002,
          "velocity": 0.968503937007874
        },
        {
          "duration": 0.1388849999999877,
          "durationTicks": 192,
          "midi": 65,
          "name": "F4",
          "ticks": 187776,
          "time": 143.64164000000002,
          "velocity": 0.968503937007874
        },
        {
          "duration": 0.13888500000001613,
          "durationTicks": 192,
          "midi": 62,
          "name": "D4",
          "ticks": 187968,
          "time": 143.780525,
          "velocity": 0.968503937007874
        },
        {
          "duration": 0.13888500000001613,
          "durationTicks": 192,
          "midi": 65,
          "name": "F4",
          "ticks": 187968,
          "time": 143.780525,
          "velocity": 0.968503937007874
        },
        {
          "duration": 0.2777699999999754,
          "durationTicks": 384,
          "midi": 55,
          "name": "G3",
          "ticks": 188160,
          "time": 143.91941000000003,
          "velocity": 0.968503937007874
        },
        {
          "duration": 0.2777699999999754,
          "durationTicks": 384,
          "midi": 63,
          "name": "D#4",
          "ticks": 188160,
          "time": 143.91941000000003,
          "velocity": 0.968503937007874
        },
        {
          "duration": 0.13888500000001613,
          "durationTicks": 192,
          "midi": 58,
          "name": "A#3",
          "ticks": 190656,
          "time": 145.724915,
          "velocity": 0.968503937007874
        },
        {
          "duration": 0.13888500000001613,
          "durationTicks": 192,
          "midi": 58,
          "name": "A#3",
          "ticks": 190656,
          "time": 145.724915,
          "velocity": 0.968503937007874
        },
        {
          "duration": 0.1388849999999877,
          "durationTicks": 192,
          "midi": 58,
          "name": "A#3",
          "ticks": 190848,
          "time": 145.86380000000003,
          "velocity": 0.968503937007874
        },
        {
          "duration": 0.1388849999999877,
          "durationTicks": 192,
          "midi": 58,
          "name": "A#3",
          "ticks": 190848,
          "time": 145.86380000000003,
          "velocity": 0.968503937007874
        },
        {
          "duration": 0.1388849999999877,
          "durationTicks": 192,
          "midi": 58,
          "name": "A#3",
          "ticks": 191040,
          "time": 146.002685,
          "velocity": 0.968503937007874
        },
        {
          "duration": 0.1388849999999877,
          "durationTicks": 192,
          "midi": 58,
          "name": "A#3",
          "ticks": 191040,
          "time": 146.002685,
          "velocity": 0.968503937007874
        },
        {
          "duration": 2.126959999999997,
          "durationTicks": 2304,
          "midi": 55,
          "name": "G3",
          "ticks": 191232,
          "time": 146.14157,
          "velocity": 0.968503937007874
        },
        {
          "duration": 2.126959999999997,
          "durationTicks": 2304,
          "midi": 55,
          "name": "G3",
          "ticks": 191232,
          "time": 146.14157,
          "velocity": 0.968503937007874
        },
        {
          "duration": 0.1428549999999973,
          "durationTicks": 192,
          "midi": 61,
          "name": "C#4",
          "ticks": 194496,
          "time": 148.982805,
          "velocity": 0.7165354330708661
        },
        {
          "duration": 0.1428549999999973,
          "durationTicks": 192,
          "midi": 61,
          "name": "C#4",
          "ticks": 194496,
          "time": 148.982805,
          "velocity": 0.7165354330708661
        },
        {
          "duration": 0.1428549999999973,
          "durationTicks": 192,
          "midi": 61,
          "name": "C#4",
          "ticks": 194688,
          "time": 149.12566,
          "velocity": 0.7165354330708661
        },
        {
          "duration": 0.1428549999999973,
          "durationTicks": 192,
          "midi": 61,
          "name": "C#4",
          "ticks": 194688,
          "time": 149.12566,
          "velocity": 0.7165354330708661
        },
        {
          "duration": 0.1428549999999973,
          "durationTicks": 192,
          "midi": 61,
          "name": "C#4",
          "ticks": 194880,
          "time": 149.268515,
          "velocity": 0.7165354330708661
        },
        {
          "duration": 0.1428549999999973,
          "durationTicks": 192,
          "midi": 61,
          "name": "C#4",
          "ticks": 194880,
          "time": 149.268515,
          "velocity": 0.7165354330708661
        },
        {
          "duration": 1.8820900000000051,
          "durationTicks": 2496,
          "midi": 60,
          "name": "C4",
          "ticks": 195072,
          "time": 149.41137,
          "velocity": 0.7165354330708661
        },
        {
          "duration": 1.8820900000000051,
          "durationTicks": 2496,
          "midi": 60,
          "name": "C4",
          "ticks": 195072,
          "time": 149.41137,
          "velocity": 0.7165354330708661
        },
        {
          "duration": 0.14563000000001125,
          "durationTicks": 192,
          "midi": 61,
          "name": "C#4",
          "ticks": 197568,
          "time": 151.29346,
          "velocity": 0.7165354330708661
        },
        {
          "duration": 0.14563000000001125,
          "durationTicks": 192,
          "midi": 61,
          "name": "C#4",
          "ticks": 197568,
          "time": 151.29346,
          "velocity": 0.7165354330708661
        },
        {
          "duration": 0.14563000000001125,
          "durationTicks": 192,
          "midi": 61,
          "name": "C#4",
          "ticks": 197760,
          "time": 151.43909000000002,
          "velocity": 0.7165354330708661
        },
        {
          "duration": 0.14563000000001125,
          "durationTicks": 192,
          "midi": 61,
          "name": "C#4",
          "ticks": 197760,
          "time": 151.43909000000002,
          "velocity": 0.7165354330708661
        },
        {
          "duration": 0.14562999999998283,
          "durationTicks": 192,
          "midi": 61,
          "name": "C#4",
          "ticks": 197952,
          "time": 151.58472000000003,
          "velocity": 0.7165354330708661
        },
        {
          "duration": 0.14562999999998283,
          "durationTicks": 192,
          "midi": 61,
          "name": "C#4",
          "ticks": 197952,
          "time": 151.58472000000003,
          "velocity": 0.7165354330708661
        },
        {
          "duration": 1.7825200000000052,
          "durationTicks": 2304,
          "midi": 60,
          "name": "C4",
          "ticks": 198144,
          "time": 151.73035000000002,
          "velocity": 0.7165354330708661
        },
        {
          "duration": 1.7825200000000052,
          "durationTicks": 2304,
          "midi": 60,
          "name": "C4",
          "ticks": 198144,
          "time": 151.73035000000002,
          "velocity": 0.7165354330708661
        },
        {
          "duration": 0.6000000000000227,
          "durationTicks": 768,
          "midi": 56,
          "name": "G#3",
          "ticks": 200448,
          "time": 153.51287000000002,
          "velocity": 0.7165354330708661
        },
        {
          "duration": 2.700000000000017,
          "durationTicks": 3456,
          "midi": 60,
          "name": "C4",
          "ticks": 200448,
          "time": 153.51287000000002,
          "velocity": 0.7165354330708661
        },
        {
          "duration": 0.5999999999999943,
          "durationTicks": 768,
          "midi": 55,
          "name": "G3",
          "ticks": 201216,
          "time": 154.11287000000004,
          "velocity": 0.7165354330708661
        },
        {
          "duration": 0.5999999999999943,
          "durationTicks": 768,
          "midi": 56,
          "name": "G#3",
          "ticks": 201984,
          "time": 154.71287000000004,
          "velocity": 0.7165354330708661
        },
        {
          "duration": 0.5999999999999943,
          "durationTicks": 768,
          "midi": 55,
          "name": "G3",
          "ticks": 202752,
          "time": 155.31287000000003,
          "velocity": 0.7165354330708661
        },
        {
          "duration": 0.30000000000001137,
          "durationTicks": 384,
          "midi": 56,
          "name": "G#3",
          "ticks": 203520,
          "time": 155.91287000000003,
          "velocity": 0.7165354330708661
        },
        {
          "duration": 0.5999999999999943,
          "durationTicks": 768,
          "midi": 60,
          "name": "C4",
          "ticks": 206592,
          "time": 158.31287000000003,
          "velocity": 0.7165354330708661
        },
        {
          "duration": 0.5999999999999943,
          "durationTicks": 768,
          "midi": 63,
          "name": "D#4",
          "ticks": 206592,
          "time": 158.31287000000003,
          "velocity": 0.7165354330708661
        },
        {
          "duration": 0.5999999999999943,
          "durationTicks": 768,
          "midi": 59,
          "name": "B3",
          "ticks": 207360,
          "time": 158.91287000000003,
          "velocity": 0.7165354330708661
        },
        {
          "duration": 0.5999999999999943,
          "durationTicks": 768,
          "midi": 62,
          "name": "D4",
          "ticks": 207360,
          "time": 158.91287000000003,
          "velocity": 0.7165354330708661
        },
        {
          "duration": 0.6000000000000227,
          "durationTicks": 768,
          "midi": 60,
          "name": "C4",
          "ticks": 208128,
          "time": 159.51287000000002,
          "velocity": 0.7165354330708661
        },
        {
          "duration": 0.6000000000000227,
          "durationTicks": 768,
          "midi": 63,
          "name": "D#4",
          "ticks": 208128,
          "time": 159.51287000000002,
          "velocity": 0.7165354330708661
        },
        {
          "duration": 0.5999999999999943,
          "durationTicks": 768,
          "midi": 59,
          "name": "B3",
          "ticks": 208896,
          "time": 160.11287000000004,
          "velocity": 0.7165354330708661
        },
        {
          "duration": 0.5999999999999943,
          "durationTicks": 768,
          "midi": 62,
          "name": "D4",
          "ticks": 208896,
          "time": 160.11287000000004,
          "velocity": 0.7165354330708661
        },
        {
          "duration": 0.29999999999998295,
          "durationTicks": 384,
          "midi": 60,
          "name": "C4",
          "ticks": 209664,
          "time": 160.71287000000004,
          "velocity": 0.7165354330708661
        },
        {
          "duration": 0.29999999999998295,
          "durationTicks": 384,
          "midi": 63,
          "name": "D#4",
          "ticks": 209664,
          "time": 160.71287000000004,
          "velocity": 0.7165354330708661
        },
        {
          "duration": 0.15000000000000568,
          "durationTicks": 192,
          "midi": 54,
          "name": "F#3",
          "ticks": 212160,
          "time": 162.66287000000003,
          "velocity": 0.7165354330708661
        },
        {
          "duration": 0.15000000000000568,
          "durationTicks": 192,
          "midi": 62,
          "name": "D4",
          "ticks": 212160,
          "time": 162.66287000000003,
          "velocity": 0.7165354330708661
        },
        {
          "duration": 0.15000000000000568,
          "durationTicks": 192,
          "midi": 54,
          "name": "F#3",
          "ticks": 212352,
          "time": 162.81287000000003,
          "velocity": 0.7165354330708661
        },
        {
          "duration": 0.15000000000000568,
          "durationTicks": 192,
          "midi": 62,
          "name": "D4",
          "ticks": 212352,
          "time": 162.81287000000003,
          "velocity": 0.7165354330708661
        },
        {
          "duration": 0.15000000000000568,
          "durationTicks": 192,
          "midi": 57,
          "name": "A3",
          "ticks": 212544,
          "time": 162.96287000000004,
          "velocity": 0.7165354330708661
        },
        {
          "duration": 0.15000000000000568,
          "durationTicks": 192,
          "midi": 60,
          "name": "C4",
          "ticks": 212544,
          "time": 162.96287000000004,
          "velocity": 0.7165354330708661
        },
        {
          "duration": 0.5999999999999943,
          "durationTicks": 768,
          "midi": 55,
          "name": "G3",
          "ticks": 212736,
          "time": 163.11287000000004,
          "velocity": 0.7165354330708661
        },
        {
          "duration": 0.5999999999999943,
          "durationTicks": 768,
          "midi": 58,
          "name": "A#3",
          "ticks": 212736,
          "time": 163.11287000000004,
          "velocity": 0.7165354330708661
        },
        {
          "duration": 0.15000000000000568,
          "durationTicks": 192,
          "midi": 54,
          "name": "F#3",
          "ticks": 213504,
          "time": 163.71287000000004,
          "velocity": 0.7165354330708661
        },
        {
          "duration": 0.15000000000000568,
          "durationTicks": 192,
          "midi": 57,
          "name": "A3",
          "ticks": 213504,
          "time": 163.71287000000004,
          "velocity": 0.7165354330708661
        },
        {
          "duration": 0.14999999999997726,
          "durationTicks": 192,
          "midi": 54,
          "name": "F#3",
          "ticks": 213696,
          "time": 163.86287000000004,
          "velocity": 0.7165354330708661
        },
        {
          "duration": 0.14999999999997726,
          "durationTicks": 192,
          "midi": 62,
          "name": "D4",
          "ticks": 213696,
          "time": 163.86287000000004,
          "velocity": 0.7165354330708661
        },
        {
          "duration": 0.15000000000000568,
          "durationTicks": 192,
          "midi": 54,
          "name": "F#3",
          "ticks": 213888,
          "time": 164.01287000000002,
          "velocity": 0.7165354330708661
        },
        {
          "duration": 0.15000000000000568,
          "durationTicks": 192,
          "midi": 62,
          "name": "D4",
          "ticks": 213888,
          "time": 164.01287000000002,
          "velocity": 0.7165354330708661
        },
        {
          "duration": 0.15000000000000568,
          "durationTicks": 192,
          "midi": 57,
          "name": "A3",
          "ticks": 214080,
          "time": 164.16287000000003,
          "velocity": 0.7165354330708661
        },
        {
          "duration": 0.15000000000000568,
          "durationTicks": 192,
          "midi": 60,
          "name": "C4",
          "ticks": 214080,
          "time": 164.16287000000003,
          "velocity": 0.7165354330708661
        },
        {
          "duration": 0.5999999999999943,
          "durationTicks": 768,
          "midi": 55,
          "name": "G3",
          "ticks": 214272,
          "time": 164.31287000000003,
          "velocity": 0.7165354330708661
        },
        {
          "duration": 0.5999999999999943,
          "durationTicks": 768,
          "midi": 58,
          "name": "A#3",
          "ticks": 214272,
          "time": 164.31287000000003,
          "velocity": 0.7165354330708661
        },
        {
          "duration": 0.5999999999999943,
          "durationTicks": 768,
          "midi": 54,
          "name": "F#3",
          "ticks": 215040,
          "time": 164.91287000000003,
          "velocity": 0.7165354330708661
        },
        {
          "duration": 0.5999999999999943,
          "durationTicks": 768,
          "midi": 57,
          "name": "A3",
          "ticks": 215040,
          "time": 164.91287000000003,
          "velocity": 0.7165354330708661
        },
        {
          "duration": 0.75,
          "durationTicks": 960,
          "midi": 55,
          "name": "G3",
          "ticks": 215808,
          "time": 165.51287000000002,
          "velocity": 0.7165354330708661
        },
        {
          "duration": 0.75,
          "durationTicks": 960,
          "midi": 58,
          "name": "A#3",
          "ticks": 215808,
          "time": 165.51287000000002,
          "velocity": 0.7165354330708661
        },
        {
          "duration": 0.15000000000000568,
          "durationTicks": 192,
          "midi": 55,
          "name": "G3",
          "ticks": 216768,
          "time": 166.26287000000002,
          "velocity": 0.7165354330708661
        },
        {
          "duration": 0.15000000000000568,
          "durationTicks": 192,
          "midi": 57,
          "name": "A3",
          "ticks": 216960,
          "time": 166.41287000000003,
          "velocity": 0.7165354330708661
        },
        {
          "duration": 0.15000000000000568,
          "durationTicks": 192,
          "midi": 58,
          "name": "A#3",
          "ticks": 217152,
          "time": 166.56287000000003,
          "velocity": 0.7165354330708661
        },
        {
          "duration": 0.29999999999998295,
          "durationTicks": 384,
          "midi": 54,
          "name": "F#3",
          "ticks": 217344,
          "time": 166.71287000000004,
          "velocity": 0.7165354330708661
        },
        {
          "duration": 0.29999999999998295,
          "durationTicks": 384,
          "midi": 60,
          "name": "C4",
          "ticks": 217344,
          "time": 166.71287000000004,
          "velocity": 0.7165354330708661
        },
        {
          "duration": 0.15000000000000568,
          "durationTicks": 192,
          "midi": 54,
          "name": "F#3",
          "ticks": 218304,
          "time": 167.46287000000004,
          "velocity": 0.7165354330708661
        },
        {
          "duration": 0.14999999999997726,
          "durationTicks": 192,
          "midi": 57,
          "name": "A3",
          "ticks": 218496,
          "time": 167.61287000000004,
          "velocity": 0.7165354330708661
        },
        {
          "duration": 0.15000000000000568,
          "durationTicks": 192,
          "midi": 58,
          "name": "A#3",
          "ticks": 218688,
          "time": 167.76287000000002,
          "velocity": 0.7165354330708661
        },
        {
          "duration": 0.30000000000001137,
          "durationTicks": 384,
          "midi": 54,
          "name": "F#3",
          "ticks": 218880,
          "time": 167.91287000000003,
          "velocity": 0.7165354330708661
        },
        {
          "duration": 0.30000000000001137,
          "durationTicks": 384,
          "midi": 60,
          "name": "C4",
          "ticks": 218880,
          "time": 167.91287000000003,
          "velocity": 0.7165354330708661
        },
        {
          "duration": 0.15000000000000568,
          "durationTicks": 192,
          "midi": 57,
          "name": "A3",
          "ticks": 219840,
          "time": 168.66287000000003,
          "velocity": 0.7165354330708661
        },
        {
          "duration": 0.15000000000000568,
          "durationTicks": 192,
          "midi": 58,
          "name": "A#3",
          "ticks": 220032,
          "time": 168.81287000000003,
          "velocity": 0.7165354330708661
        },
        {
          "duration": 0.15000000000000568,
          "durationTicks": 192,
          "midi": 60,
          "name": "C4",
          "ticks": 220224,
          "time": 168.96287000000004,
          "velocity": 0.7165354330708661
        },
        {
          "duration": 0.29999999999998295,
          "durationTicks": 384,
          "midi": 55,
          "name": "G3",
          "ticks": 220416,
          "time": 169.11287000000004,
          "velocity": 0.7165354330708661
        },
        {
          "duration": 0.29999999999998295,
          "durationTicks": 384,
          "midi": 62,
          "name": "D4",
          "ticks": 220416,
          "time": 169.11287000000004,
          "velocity": 0.7165354330708661
        },
        {
          "duration": 0.14999999999997726,
          "durationTicks": 192,
          "midi": 55,
          "name": "G3",
          "ticks": 221376,
          "time": 169.86287000000004,
          "velocity": 0.7165354330708661
        },
        {
          "duration": 0.15000000000000568,
          "durationTicks": 192,
          "midi": 58,
          "name": "A#3",
          "ticks": 221568,
          "time": 170.01287000000002,
          "velocity": 0.7165354330708661
        },
        {
          "duration": 0.15000000000000568,
          "durationTicks": 192,
          "midi": 60,
          "name": "C4",
          "ticks": 221760,
          "time": 170.16287000000003,
          "velocity": 0.7165354330708661
        },
        {
          "duration": 0.30000000000001137,
          "durationTicks": 384,
          "midi": 55,
          "name": "G3",
          "ticks": 221952,
          "time": 170.31287000000003,
          "velocity": 0.7165354330708661
        },
        {
          "duration": 0.30000000000001137,
          "durationTicks": 384,
          "midi": 62,
          "name": "D4",
          "ticks": 221952,
          "time": 170.31287000000003,
          "velocity": 0.7165354330708661
        },
        {
          "duration": 0.15000000000000568,
          "durationTicks": 192,
          "midi": 55,
          "name": "G3",
          "ticks": 222912,
          "time": 171.06287000000003,
          "velocity": 0.7165354330708661
        },
        {
          "duration": 0.15000000000000568,
          "durationTicks": 192,
          "midi": 58,
          "name": "A#3",
          "ticks": 222912,
          "time": 171.06287000000003,
          "velocity": 0.7165354330708661
        },
        {
          "duration": 0.15000000000000568,
          "durationTicks": 192,
          "midi": 57,
          "name": "A3",
          "ticks": 223104,
          "time": 171.21287000000004,
          "velocity": 0.7952755905511811
        },
        {
          "duration": 0.15000000000000568,
          "durationTicks": 192,
          "midi": 60,
          "name": "C4",
          "ticks": 223104,
          "time": 171.21287000000004,
          "velocity": 0.7952755905511811
        },
        {
          "duration": 0.14999999999997726,
          "durationTicks": 192,
          "midi": 58,
          "name": "A#3",
          "ticks": 223296,
          "time": 171.36287000000004,
          "velocity": 0.8582677165354331
        },
        {
          "duration": 0.14999999999997726,
          "durationTicks": 192,
          "midi": 62,
          "name": "D4",
          "ticks": 223296,
          "time": 171.36287000000004,
          "velocity": 0.8582677165354331
        },
        {
          "duration": 1.200000000000017,
          "durationTicks": 1536,
          "midi": 54,
          "name": "F#3",
          "ticks": 223488,
          "time": 171.51287000000002,
          "velocity": 0.905511811023622
        },
        {
          "duration": 1.200000000000017,
          "durationTicks": 1536,
          "midi": 57,
          "name": "A3",
          "ticks": 223488,
          "time": 171.51287000000002,
          "velocity": 0.905511811023622
        },
        {
          "duration": 0.29999999999998295,
          "durationTicks": 384,
          "midi": 54,
          "name": "F#3",
          "ticks": 225024,
          "time": 172.71287000000004,
          "velocity": 0.905511811023622
        },
        {
          "duration": 0.29999999999998295,
          "durationTicks": 384,
          "midi": 57,
          "name": "A3",
          "ticks": 225024,
          "time": 172.71287000000004,
          "velocity": 0.905511811023622
        },
        {
          "duration": 0.15000000000000568,
          "durationTicks": 192,
          "midi": 55,
          "name": "G3",
          "ticks": 225984,
          "time": 173.46287000000004,
          "velocity": 0.905511811023622
        },
        {
          "duration": 0.15000000000000568,
          "durationTicks": 192,
          "midi": 58,
          "name": "A#3",
          "ticks": 225984,
          "time": 173.46287000000004,
          "velocity": 0.905511811023622
        },
        {
          "duration": 0.14999999999997726,
          "durationTicks": 192,
          "midi": 55,
          "name": "G3",
          "ticks": 226176,
          "time": 173.61287000000004,
          "velocity": 0.905511811023622
        },
        {
          "duration": 0.14999999999997726,
          "durationTicks": 192,
          "midi": 58,
          "name": "A#3",
          "ticks": 226176,
          "time": 173.61287000000004,
          "velocity": 0.905511811023622
        },
        {
          "duration": 0.15000000000000568,
          "durationTicks": 192,
          "midi": 55,
          "name": "G3",
          "ticks": 226368,
          "time": 173.76287000000002,
          "velocity": 0.905511811023622
        },
        {
          "duration": 0.15000000000000568,
          "durationTicks": 192,
          "midi": 58,
          "name": "A#3",
          "ticks": 226368,
          "time": 173.76287000000002,
          "velocity": 0.905511811023622
        },
        {
          "duration": 1.200000000000017,
          "durationTicks": 1536,
          "midi": 55,
          "name": "G3",
          "ticks": 226560,
          "time": 173.91287000000003,
          "velocity": 0.905511811023622
        },
        {
          "duration": 1.200000000000017,
          "durationTicks": 1536,
          "midi": 58,
          "name": "A#3",
          "ticks": 226560,
          "time": 173.91287000000003,
          "velocity": 0.905511811023622
        },
        {
          "duration": 0.29999999999998295,
          "durationTicks": 384,
          "midi": 55,
          "name": "G3",
          "ticks": 228096,
          "time": 175.11287000000004,
          "velocity": 0.905511811023622
        },
        {
          "duration": 0.29999999999998295,
          "durationTicks": 384,
          "midi": 58,
          "name": "A#3",
          "ticks": 228096,
          "time": 175.11287000000004,
          "velocity": 0.905511811023622
        },
        {
          "duration": 0.14999999999997726,
          "durationTicks": 192,
          "midi": 55,
          "name": "G3",
          "ticks": 229056,
          "time": 175.86287000000004,
          "velocity": 0.905511811023622
        },
        {
          "duration": 0.14999999999997726,
          "durationTicks": 192,
          "midi": 58,
          "name": "A#3",
          "ticks": 229056,
          "time": 175.86287000000004,
          "velocity": 0.905511811023622
        },
        {
          "duration": 0.15000000000000568,
          "durationTicks": 192,
          "midi": 55,
          "name": "G3",
          "ticks": 229248,
          "time": 176.01287000000002,
          "velocity": 0.905511811023622
        },
        {
          "duration": 0.15000000000000568,
          "durationTicks": 192,
          "midi": 58,
          "name": "A#3",
          "ticks": 229248,
          "time": 176.01287000000002,
          "velocity": 0.905511811023622
        },
        {
          "duration": 0.15000000000000568,
          "durationTicks": 192,
          "midi": 55,
          "name": "G3",
          "ticks": 229440,
          "time": 176.16287000000003,
          "velocity": 0.905511811023622
        },
        {
          "duration": 0.15000000000000568,
          "durationTicks": 192,
          "midi": 58,
          "name": "A#3",
          "ticks": 229440,
          "time": 176.16287000000003,
          "velocity": 0.905511811023622
        },
        {
          "duration": 0.30000000000001137,
          "durationTicks": 384,
          "midi": 55,
          "name": "G3",
          "ticks": 229632,
          "time": 176.31287000000003,
          "velocity": 0.905511811023622
        },
        {
          "duration": 0.30000000000001137,
          "durationTicks": 384,
          "midi": 58,
          "name": "A#3",
          "ticks": 229632,
          "time": 176.31287000000003,
          "velocity": 0.905511811023622
        },
        {
          "duration": 0.15000000000000568,
          "durationTicks": 192,
          "midi": 55,
          "name": "G3",
          "ticks": 230784,
          "time": 177.21287000000004,
          "velocity": 0.905511811023622
        },
        {
          "duration": 0.15000000000000568,
          "durationTicks": 192,
          "midi": 58,
          "name": "A#3",
          "ticks": 230784,
          "time": 177.21287000000004,
          "velocity": 0.905511811023622
        },
        {
          "duration": 0.14999999999997726,
          "durationTicks": 192,
          "midi": 55,
          "name": "G3",
          "ticks": 230976,
          "time": 177.36287000000004,
          "velocity": 0.905511811023622
        },
        {
          "duration": 0.14999999999997726,
          "durationTicks": 192,
          "midi": 58,
          "name": "A#3",
          "ticks": 230976,
          "time": 177.36287000000004,
          "velocity": 0.905511811023622
        },
        {
          "duration": 0.30000000000001137,
          "durationTicks": 384,
          "midi": 55,
          "name": "G3",
          "ticks": 231168,
          "time": 177.51287000000002,
          "velocity": 0.905511811023622
        },
        {
          "duration": 0.30000000000001137,
          "durationTicks": 384,
          "midi": 58,
          "name": "A#3",
          "ticks": 231168,
          "time": 177.51287000000002,
          "velocity": 0.905511811023622
        },
        {
          "duration": 0.15000000000000568,
          "durationTicks": 192,
          "midi": 50,
          "name": "D3",
          "ticks": 231552,
          "time": 177.81287000000003,
          "velocity": 0.905511811023622
        },
        {
          "duration": 0.15000000000000568,
          "durationTicks": 192,
          "midi": 57,
          "name": "A3",
          "ticks": 231552,
          "time": 177.81287000000003,
          "velocity": 0.905511811023622
        },
        {
          "duration": 0.15000000000000568,
          "durationTicks": 192,
          "midi": 50,
          "name": "D3",
          "ticks": 231744,
          "time": 177.96287000000004,
          "velocity": 0.905511811023622
        },
        {
          "duration": 0.15000000000000568,
          "durationTicks": 192,
          "midi": 57,
          "name": "A3",
          "ticks": 231744,
          "time": 177.96287000000004,
          "velocity": 0.905511811023622
        },
        {
          "duration": 0.29999999999998295,
          "durationTicks": 384,
          "midi": 50,
          "name": "D3",
          "ticks": 231936,
          "time": 178.11287000000004,
          "velocity": 0.905511811023622
        },
        {
          "duration": 0.29999999999998295,
          "durationTicks": 384,
          "midi": 57,
          "name": "A3",
          "ticks": 231936,
          "time": 178.11287000000004,
          "velocity": 0.905511811023622
        },
        {
          "duration": 0.15000000000000568,
          "durationTicks": 192,
          "midi": 60,
          "name": "C4",
          "ticks": 236160,
          "time": 181.41287000000003,
          "velocity": 0.905511811023622
        },
        {
          "duration": 0.15000000000000568,
          "durationTicks": 192,
          "midi": 60,
          "name": "C4",
          "ticks": 236160,
          "time": 181.41287000000003,
          "velocity": 0.905511811023622
        },
        {
          "duration": 0.15000000000000568,
          "durationTicks": 192,
          "midi": 60,
          "name": "C4",
          "ticks": 236352,
          "time": 181.56287000000003,
          "velocity": 0.905511811023622
        },
        {
          "duration": 0.15000000000000568,
          "durationTicks": 192,
          "midi": 60,
          "name": "C4",
          "ticks": 236352,
          "time": 181.56287000000003,
          "velocity": 0.905511811023622
        },
        {
          "duration": 0.29999999999998295,
          "durationTicks": 384,
          "midi": 60,
          "name": "C4",
          "ticks": 236544,
          "time": 181.71287000000004,
          "velocity": 0.905511811023622
        },
        {
          "duration": 0.29999999999998295,
          "durationTicks": 384,
          "midi": 60,
          "name": "C4",
          "ticks": 236544,
          "time": 181.71287000000004,
          "velocity": 0.905511811023622
        },
        {
          "duration": 0.14999999999997726,
          "durationTicks": 192,
          "midi": 54,
          "name": "F#3",
          "ticks": 237696,
          "time": 182.61287000000004,
          "velocity": 0.905511811023622
        },
        {
          "duration": 0.14999999999997726,
          "durationTicks": 192,
          "midi": 57,
          "name": "A3",
          "ticks": 237696,
          "time": 182.61287000000004,
          "velocity": 0.905511811023622
        },
        {
          "duration": 0.15000000000000568,
          "durationTicks": 192,
          "midi": 54,
          "name": "F#3",
          "ticks": 237888,
          "time": 182.76287000000002,
          "velocity": 0.905511811023622
        },
        {
          "duration": 0.15000000000000568,
          "durationTicks": 192,
          "midi": 57,
          "name": "A3",
          "ticks": 237888,
          "time": 182.76287000000002,
          "velocity": 0.905511811023622
        },
        {
          "duration": 0.30000000000001137,
          "durationTicks": 384,
          "midi": 55,
          "name": "G3",
          "ticks": 238080,
          "time": 182.91287000000003,
          "velocity": 0.905511811023622
        },
        {
          "duration": 0.30000000000001137,
          "durationTicks": 384,
          "midi": 59,
          "name": "B3",
          "ticks": 238080,
          "time": 182.91287000000003,
          "velocity": 0.905511811023622
        },
        {
          "duration": 0.15000000000000568,
          "durationTicks": 192,
          "midi": 59,
          "name": "B3",
          "ticks": 242304,
          "time": 186.21287000000004,
          "velocity": 0.905511811023622
        },
        {
          "duration": 0.15000000000000568,
          "durationTicks": 192,
          "midi": 59,
          "name": "B3",
          "ticks": 242304,
          "time": 186.21287000000004,
          "velocity": 0.905511811023622
        },
        {
          "duration": 0.14999999999997726,
          "durationTicks": 192,
          "midi": 59,
          "name": "B3",
          "ticks": 242496,
          "time": 186.36287000000004,
          "velocity": 0.905511811023622
        },
        {
          "duration": 0.14999999999997726,
          "durationTicks": 192,
          "midi": 59,
          "name": "B3",
          "ticks": 242496,
          "time": 186.36287000000004,
          "velocity": 0.905511811023622
        },
        {
          "duration": 0.30000000000001137,
          "durationTicks": 384,
          "midi": 59,
          "name": "B3",
          "ticks": 242688,
          "time": 186.51287000000002,
          "velocity": 0.905511811023622
        },
        {
          "duration": 0.30000000000001137,
          "durationTicks": 384,
          "midi": 59,
          "name": "B3",
          "ticks": 242688,
          "time": 186.51287000000002,
          "velocity": 0.905511811023622
        },
        {
          "duration": 0.15000000000000568,
          "durationTicks": 192,
          "midi": 59,
          "name": "B3",
          "ticks": 243840,
          "time": 187.41287000000003,
          "velocity": 0.905511811023622
        },
        {
          "duration": 0.15000000000000568,
          "durationTicks": 192,
          "midi": 62,
          "name": "D4",
          "ticks": 243840,
          "time": 187.41287000000003,
          "velocity": 0.905511811023622
        },
        {
          "duration": 0.15000000000000568,
          "durationTicks": 192,
          "midi": 59,
          "name": "B3",
          "ticks": 244032,
          "time": 187.56287000000003,
          "velocity": 0.905511811023622
        },
        {
          "duration": 0.15000000000000568,
          "durationTicks": 192,
          "midi": 62,
          "name": "D4",
          "ticks": 244032,
          "time": 187.56287000000003,
          "velocity": 0.905511811023622
        },
        {
          "duration": 0.15000000000000568,
          "durationTicks": 192,
          "midi": 60,
          "name": "C4",
          "ticks": 244224,
          "time": 187.71287000000004,
          "velocity": 0.905511811023622
        },
        {
          "duration": 0.15000000000000568,
          "durationTicks": 192,
          "midi": 64,
          "name": "E4",
          "ticks": 244224,
          "time": 187.71287000000004,
          "velocity": 0.905511811023622
        },
        {
          "duration": 0.14999999999997726,
          "durationTicks": 192,
          "midi": 60,
          "name": "C4",
          "ticks": 244416,
          "time": 187.86287000000004,
          "velocity": 0.968503937007874
        },
        {
          "duration": 0.14999999999997726,
          "durationTicks": 192,
          "midi": 72,
          "name": "C5",
          "ticks": 244416,
          "time": 187.86287000000004,
          "velocity": 0.968503937007874
        },
        {
          "duration": 0.15000000000000568,
          "durationTicks": 192,
          "midi": 60,
          "name": "C4",
          "ticks": 244608,
          "time": 188.01287000000002,
          "velocity": 0.968503937007874
        },
        {
          "duration": 0.15000000000000568,
          "durationTicks": 192,
          "midi": 72,
          "name": "C5",
          "ticks": 244608,
          "time": 188.01287000000002,
          "velocity": 0.968503937007874
        },
        {
          "duration": 0.15000000000000568,
          "durationTicks": 192,
          "midi": 60,
          "name": "C4",
          "ticks": 244800,
          "time": 188.16287000000003,
          "velocity": 0.968503937007874
        },
        {
          "duration": 0.15000000000000568,
          "durationTicks": 192,
          "midi": 72,
          "name": "C5",
          "ticks": 244800,
          "time": 188.16287000000003,
          "velocity": 0.968503937007874
        },
        {
          "duration": 0.5999999999999943,
          "durationTicks": 768,
          "midi": 53,
          "name": "F3",
          "ticks": 244992,
          "time": 188.31287000000003,
          "velocity": 0.968503937007874
        },
        {
          "duration": 0.5999999999999943,
          "durationTicks": 768,
          "midi": 65,
          "name": "F4",
          "ticks": 244992,
          "time": 188.31287000000003,
          "velocity": 0.968503937007874
        },
        {
          "duration": 0.5999999999999943,
          "durationTicks": 768,
          "midi": 55,
          "name": "G3",
          "ticks": 245760,
          "time": 188.91287000000003,
          "velocity": 0.968503937007874
        },
        {
          "duration": 0.5999999999999943,
          "durationTicks": 768,
          "midi": 67,
          "name": "G4",
          "ticks": 245760,
          "time": 188.91287000000003,
          "velocity": 0.968503937007874
        },
        {
          "duration": 0.5999999999999943,
          "durationTicks": 768,
          "midi": 53,
          "name": "F3",
          "ticks": 248064,
          "time": 190.71287000000004,
          "velocity": 0.968503937007874
        },
        {
          "duration": 0.5999999999999943,
          "durationTicks": 768,
          "midi": 65,
          "name": "F4",
          "ticks": 248064,
          "time": 190.71287000000004,
          "velocity": 0.968503937007874
        },
        {
          "duration": 0.5999999999999943,
          "durationTicks": 768,
          "midi": 55,
          "name": "G3",
          "ticks": 248832,
          "time": 191.31287000000003,
          "velocity": 0.968503937007874
        },
        {
          "duration": 0.5999999999999943,
          "durationTicks": 768,
          "midi": 67,
          "name": "G4",
          "ticks": 248832,
          "time": 191.31287000000003,
          "velocity": 0.968503937007874
        },
        {
          "duration": 0.5999999999999943,
          "durationTicks": 768,
          "midi": 56,
          "name": "G#3",
          "ticks": 251136,
          "time": 193.11287000000004,
          "velocity": 0.968503937007874
        },
        {
          "duration": 0.5999999999999943,
          "durationTicks": 768,
          "midi": 60,
          "name": "C4",
          "ticks": 251136,
          "time": 193.11287000000004,
          "velocity": 0.968503937007874
        },
        {
          "duration": 0.5999999999999943,
          "durationTicks": 768,
          "midi": 54,
          "name": "F#3",
          "ticks": 251904,
          "time": 193.71287000000004,
          "velocity": 0.968503937007874
        },
        {
          "duration": 0.5999999999999943,
          "durationTicks": 768,
          "midi": 61,
          "name": "C#4",
          "ticks": 251904,
          "time": 193.71287000000004,
          "velocity": 0.968503937007874
        },
        {
          "duration": 0.6000000000000227,
          "durationTicks": 768,
          "midi": 57,
          "name": "A3",
          "ticks": 254208,
          "time": 195.51287000000002,
          "velocity": 0.968503937007874
        },
        {
          "duration": 0.6000000000000227,
          "durationTicks": 768,
          "midi": 63,
          "name": "D#4",
          "ticks": 254208,
          "time": 195.51287000000002,
          "velocity": 0.968503937007874
        },
        {
          "duration": 0.5999999999999943,
          "durationTicks": 768,
          "midi": 58,
          "name": "A#3",
          "ticks": 254976,
          "time": 196.11287000000004,
          "velocity": 0.968503937007874
        },
        {
          "duration": 0.5999999999999943,
          "durationTicks": 768,
          "midi": 61,
          "name": "C#4",
          "ticks": 254976,
          "time": 196.11287000000004,
          "velocity": 0.968503937007874
        },
        {
          "duration": 0.5999999999999943,
          "durationTicks": 768,
          "midi": 59,
          "name": "B3",
          "ticks": 256512,
          "time": 197.31287000000003,
          "velocity": 0.905511811023622
        },
        {
          "duration": 0.5999999999999943,
          "durationTicks": 768,
          "midi": 59,
          "name": "B3",
          "ticks": 256512,
          "time": 197.31287000000003,
          "velocity": 0.905511811023622
        },
        {
          "duration": 0.6122399999999857,
          "durationTicks": 768,
          "midi": 56,
          "name": "G#3",
          "ticks": 258048,
          "time": 198.52511000000004,
          "velocity": 0.8582677165354331
        },
        {
          "duration": 0.6122399999999857,
          "durationTicks": 768,
          "midi": 61,
          "name": "C#4",
          "ticks": 258048,
          "time": 198.52511000000004,
          "velocity": 0.8582677165354331
        },
        {
          "duration": 0.6122399999999857,
          "durationTicks": 768,
          "midi": 57,
          "name": "A3",
          "ticks": 259584,
          "time": 199.74959000000004,
          "velocity": 0.7952755905511811
        },
        {
          "duration": 0.6122399999999857,
          "durationTicks": 768,
          "midi": 61,
          "name": "C#4",
          "ticks": 259584,
          "time": 199.74959000000004,
          "velocity": 0.7952755905511811
        },
        {
          "duration": 0.6122399999999857,
          "durationTicks": 768,
          "midi": 57,
          "name": "A3",
          "ticks": 261120,
          "time": 200.97407000000004,
          "velocity": 0.7165354330708661
        },
        {
          "duration": 0.6122399999999857,
          "durationTicks": 768,
          "midi": 61,
          "name": "C#4",
          "ticks": 261120,
          "time": 200.97407000000004,
          "velocity": 0.7165354330708661
        },
        {
          "duration": 0.6122399999999857,
          "durationTicks": 768,
          "midi": 57,
          "name": "A3",
          "ticks": 262656,
          "time": 202.19855000000004,
          "velocity": 0.7165354330708661
        },
        {
          "duration": 0.6122399999999857,
          "durationTicks": 768,
          "midi": 61,
          "name": "C#4",
          "ticks": 262656,
          "time": 202.19855000000004,
          "velocity": 0.7165354330708661
        },
        {
          "duration": 0.6122399999999857,
          "durationTicks": 768,
          "midi": 57,
          "name": "A3",
          "ticks": 264192,
          "time": 203.42303000000004,
          "velocity": 0.6141732283464567
        },
        {
          "duration": 0.6122399999999857,
          "durationTicks": 768,
          "midi": 62,
          "name": "D4",
          "ticks": 264192,
          "time": 203.42303000000004,
          "velocity": 0.6141732283464567
        },
        {
          "duration": 0.6122399999999857,
          "durationTicks": 768,
          "midi": 57,
          "name": "A3",
          "ticks": 265728,
          "time": 204.64751000000004,
          "velocity": 0.6141732283464567
        },
        {
          "duration": 0.6122399999999857,
          "durationTicks": 768,
          "midi": 62,
          "name": "D4",
          "ticks": 265728,
          "time": 204.64751000000004,
          "velocity": 0.6141732283464567
        },
        {
          "duration": 0.6122399999999857,
          "durationTicks": 768,
          "midi": 57,
          "name": "A3",
          "ticks": 267264,
          "time": 205.87199000000004,
          "velocity": 0.6141732283464567
        },
        {
          "duration": 0.6122399999999857,
          "durationTicks": 768,
          "midi": 62,
          "name": "D4",
          "ticks": 267264,
          "time": 205.87199000000004,
          "velocity": 0.6141732283464567
        },
        {
          "duration": 0.6122399999999857,
          "durationTicks": 768,
          "midi": 57,
          "name": "A3",
          "ticks": 268800,
          "time": 207.09647000000004,
          "velocity": 0.6141732283464567
        },
        {
          "duration": 0.6122399999999857,
          "durationTicks": 768,
          "midi": 62,
          "name": "D4",
          "ticks": 268800,
          "time": 207.09647000000004,
          "velocity": 0.6141732283464567
        },
        {
          "duration": 0.1530599999999822,
          "durationTicks": 192,
          "midi": 62,
          "name": "D4",
          "ticks": 269760,
          "time": 207.86177000000004,
          "velocity": 0.968503937007874
        },
        {
          "duration": 0.1530599999999822,
          "durationTicks": 192,
          "midi": 62,
          "name": "D4",
          "ticks": 269760,
          "time": 207.86177000000004,
          "velocity": 0.968503937007874
        },
        {
          "duration": 0.15306000000001063,
          "durationTicks": 192,
          "midi": 62,
          "name": "D4",
          "ticks": 269952,
          "time": 208.01483000000002,
          "velocity": 0.968503937007874
        },
        {
          "duration": 0.15306000000001063,
          "durationTicks": 192,
          "midi": 62,
          "name": "D4",
          "ticks": 269952,
          "time": 208.01483000000002,
          "velocity": 0.968503937007874
        },
        {
          "duration": 0.15306000000001063,
          "durationTicks": 192,
          "midi": 62,
          "name": "D4",
          "ticks": 270144,
          "time": 208.16789000000003,
          "velocity": 0.968503937007874
        },
        {
          "duration": 0.15306000000001063,
          "durationTicks": 192,
          "midi": 62,
          "name": "D4",
          "ticks": 270144,
          "time": 208.16789000000003,
          "velocity": 0.968503937007874
        },
        {
          "duration": 0.6122399999999857,
          "durationTicks": 768,
          "midi": 59,
          "name": "B3",
          "ticks": 270336,
          "time": 208.32095000000004,
          "velocity": 0.968503937007874
        },
        {
          "duration": 0.6122399999999857,
          "durationTicks": 768,
          "midi": 59,
          "name": "B3",
          "ticks": 270336,
          "time": 208.32095000000004,
          "velocity": 0.968503937007874
        },
        {
          "duration": 0.6122400000000141,
          "durationTicks": 768,
          "midi": 60,
          "name": "C4",
          "ticks": 271104,
          "time": 208.93319000000002,
          "velocity": 0.968503937007874
        },
        {
          "duration": 0.6122400000000141,
          "durationTicks": 768,
          "midi": 60,
          "name": "C4",
          "ticks": 271104,
          "time": 208.93319000000002,
          "velocity": 0.968503937007874
        },
        {
          "duration": 1.2244799999999998,
          "durationTicks": 1536,
          "midi": 57,
          "name": "A3",
          "ticks": 271872,
          "time": 209.54543000000004,
          "velocity": 0.968503937007874
        },
        {
          "duration": 1.2244799999999998,
          "durationTicks": 1536,
          "midi": 57,
          "name": "A3",
          "ticks": 271872,
          "time": 209.54543000000004,
          "velocity": 0.968503937007874
        },
        {
          "duration": 0.6122399999999857,
          "durationTicks": 768,
          "midi": 56,
          "name": "G#3",
          "ticks": 273408,
          "time": 210.76991000000004,
          "velocity": 0.6141732283464567
        },
        {
          "duration": 0.6122399999999857,
          "durationTicks": 768,
          "midi": 62,
          "name": "D4",
          "ticks": 273408,
          "time": 210.76991000000004,
          "velocity": 0.6141732283464567
        },
        {
          "duration": 0.6122399999999857,
          "durationTicks": 768,
          "midi": 56,
          "name": "G#3",
          "ticks": 274944,
          "time": 211.99439000000004,
          "velocity": 0.6141732283464567
        },
        {
          "duration": 0.6122399999999857,
          "durationTicks": 768,
          "midi": 62,
          "name": "D4",
          "ticks": 274944,
          "time": 211.99439000000004,
          "velocity": 0.6141732283464567
        },
        {
          "duration": 0.6122399999999857,
          "durationTicks": 768,
          "midi": 56,
          "name": "G#3",
          "ticks": 276480,
          "time": 213.21887000000004,
          "velocity": 0.6141732283464567
        },
        {
          "duration": 0.6122399999999857,
          "durationTicks": 768,
          "midi": 62,
          "name": "D4",
          "ticks": 276480,
          "time": 213.21887000000004,
          "velocity": 0.6141732283464567
        },
        {
          "duration": 0.6122399999999857,
          "durationTicks": 768,
          "midi": 56,
          "name": "G#3",
          "ticks": 278016,
          "time": 214.44335000000004,
          "velocity": 0.6141732283464567
        },
        {
          "duration": 0.6122399999999857,
          "durationTicks": 768,
          "midi": 62,
          "name": "D4",
          "ticks": 278016,
          "time": 214.44335000000004,
          "velocity": 0.6141732283464567
        },
        {
          "duration": 0.1415049999999951,
          "durationTicks": 192,
          "midi": 56,
          "name": "G#3",
          "ticks": 279744,
          "time": 215.76311500000003,
          "velocity": 0.968503937007874
        },
        {
          "duration": 0.1415049999999951,
          "durationTicks": 192,
          "midi": 68,
          "name": "G#4",
          "ticks": 279744,
          "time": 215.76311500000003,
          "velocity": 0.968503937007874
        },
        {
          "duration": 0.1415049999999951,
          "durationTicks": 192,
          "midi": 56,
          "name": "G#3",
          "ticks": 279936,
          "time": 215.90462000000002,
          "velocity": 0.968503937007874
        },
        {
          "duration": 0.1415049999999951,
          "durationTicks": 192,
          "midi": 68,
          "name": "G#4",
          "ticks": 279936,
          "time": 215.90462000000002,
          "velocity": 0.968503937007874
        },
        {
          "duration": 0.1415049999999951,
          "durationTicks": 192,
          "midi": 56,
          "name": "G#3",
          "ticks": 280128,
          "time": 216.04612500000002,
          "velocity": 0.968503937007874
        },
        {
          "duration": 0.1415049999999951,
          "durationTicks": 192,
          "midi": 68,
          "name": "G#4",
          "ticks": 280128,
          "time": 216.04612500000002,
          "velocity": 0.968503937007874
        },
        {
          "duration": 0.707525000000004,
          "durationTicks": 960,
          "midi": 53,
          "name": "F3",
          "ticks": 280320,
          "time": 216.18763,
          "velocity": 0.968503937007874
        },
        {
          "duration": 0.707525000000004,
          "durationTicks": 960,
          "midi": 65,
          "name": "F4",
          "ticks": 280320,
          "time": 216.18763,
          "velocity": 0.968503937007874
        },
        {
          "duration": 0.1415049999999951,
          "durationTicks": 192,
          "midi": 56,
          "name": "G#3",
          "ticks": 281280,
          "time": 216.89515500000002,
          "velocity": 0.968503937007874
        },
        {
          "duration": 0.1415049999999951,
          "durationTicks": 192,
          "midi": 68,
          "name": "G#4",
          "ticks": 281280,
          "time": 216.89515500000002,
          "velocity": 0.968503937007874
        },
        {
          "duration": 0.14150500000002353,
          "durationTicks": 192,
          "midi": 56,
          "name": "G#3",
          "ticks": 281472,
          "time": 217.03666,
          "velocity": 0.968503937007874
        },
        {
          "duration": 0.14150500000002353,
          "durationTicks": 192,
          "midi": 68,
          "name": "G#4",
          "ticks": 281472,
          "time": 217.03666,
          "velocity": 0.968503937007874
        },
        {
          "duration": 0.1415049999999951,
          "durationTicks": 192,
          "midi": 56,
          "name": "G#3",
          "ticks": 281664,
          "time": 217.17816500000004,
          "velocity": 0.968503937007874
        },
        {
          "duration": 0.1415049999999951,
          "durationTicks": 192,
          "midi": 68,
          "name": "G#4",
          "ticks": 281664,
          "time": 217.17816500000004,
          "velocity": 0.968503937007874
        },
        {
          "duration": 0.707525000000004,
          "durationTicks": 960,
          "midi": 53,
          "name": "F3",
          "ticks": 281856,
          "time": 217.31967000000003,
          "velocity": 0.968503937007874
        },
        {
          "duration": 0.707525000000004,
          "durationTicks": 960,
          "midi": 65,
          "name": "F4",
          "ticks": 281856,
          "time": 217.31967000000003,
          "velocity": 0.968503937007874
        },
        {
          "duration": 0.1415049999999951,
          "durationTicks": 192,
          "midi": 56,
          "name": "G#3",
          "ticks": 282816,
          "time": 218.02719500000003,
          "velocity": 0.968503937007874
        },
        {
          "duration": 0.1415049999999951,
          "durationTicks": 192,
          "midi": 68,
          "name": "G#4",
          "ticks": 282816,
          "time": 218.02719500000003,
          "velocity": 0.968503937007874
        },
        {
          "duration": 0.1415049999999951,
          "durationTicks": 192,
          "midi": 56,
          "name": "G#3",
          "ticks": 283008,
          "time": 218.16870000000003,
          "velocity": 0.968503937007874
        },
        {
          "duration": 0.1415049999999951,
          "durationTicks": 192,
          "midi": 68,
          "name": "G#4",
          "ticks": 283008,
          "time": 218.16870000000003,
          "velocity": 0.968503937007874
        },
        {
          "duration": 0.1415049999999951,
          "durationTicks": 192,
          "midi": 56,
          "name": "G#3",
          "ticks": 283200,
          "time": 218.31020500000002,
          "velocity": 0.968503937007874
        },
        {
          "duration": 0.1415049999999951,
          "durationTicks": 192,
          "midi": 68,
          "name": "G#4",
          "ticks": 283200,
          "time": 218.31020500000002,
          "velocity": 0.968503937007874
        },
        {
          "duration": 0.1415049999999951,
          "durationTicks": 192,
          "midi": 53,
          "name": "F3",
          "ticks": 283392,
          "time": 218.45171000000002,
          "velocity": 0.968503937007874
        },
        {
          "duration": 0.1415049999999951,
          "durationTicks": 192,
          "midi": 65,
          "name": "F4",
          "ticks": 283392,
          "time": 218.45171000000002,
          "velocity": 0.968503937007874
        },
        {
          "duration": 0.1415049999999951,
          "durationTicks": 192,
          "midi": 56,
          "name": "G#3",
          "ticks": 283584,
          "time": 218.59321500000001,
          "velocity": 0.968503937007874
        },
        {
          "duration": 0.1415049999999951,
          "durationTicks": 192,
          "midi": 68,
          "name": "G#4",
          "ticks": 283584,
          "time": 218.59321500000001,
          "velocity": 0.968503937007874
        },
        {
          "duration": 0.14150500000002353,
          "durationTicks": 192,
          "midi": 56,
          "name": "G#3",
          "ticks": 283776,
          "time": 218.73472,
          "velocity": 0.968503937007874
        },
        {
          "duration": 0.14150500000002353,
          "durationTicks": 192,
          "midi": 68,
          "name": "G#4",
          "ticks": 283776,
          "time": 218.73472,
          "velocity": 0.968503937007874
        },
        {
          "duration": 0.1415049999999951,
          "durationTicks": 192,
          "midi": 56,
          "name": "G#3",
          "ticks": 283968,
          "time": 218.87622500000003,
          "velocity": 0.968503937007874
        },
        {
          "duration": 0.1415049999999951,
          "durationTicks": 192,
          "midi": 68,
          "name": "G#4",
          "ticks": 283968,
          "time": 218.87622500000003,
          "velocity": 0.968503937007874
        },
        {
          "duration": 0.1415049999999951,
          "durationTicks": 192,
          "midi": 53,
          "name": "F3",
          "ticks": 284160,
          "time": 219.01773000000003,
          "velocity": 0.968503937007874
        },
        {
          "duration": 0.1415049999999951,
          "durationTicks": 192,
          "midi": 65,
          "name": "F4",
          "ticks": 284160,
          "time": 219.01773000000003,
          "velocity": 0.968503937007874
        },
        {
          "duration": 0.1415049999999951,
          "durationTicks": 192,
          "midi": 56,
          "name": "G#3",
          "ticks": 284352,
          "time": 219.15923500000002,
          "velocity": 0.968503937007874
        },
        {
          "duration": 0.1415049999999951,
          "durationTicks": 192,
          "midi": 68,
          "name": "G#4",
          "ticks": 284352,
          "time": 219.15923500000002,
          "velocity": 0.968503937007874
        },
        {
          "duration": 0.1415049999999951,
          "durationTicks": 192,
          "midi": 56,
          "name": "G#3",
          "ticks": 284544,
          "time": 219.30074000000002,
          "velocity": 0.968503937007874
        },
        {
          "duration": 0.1415049999999951,
          "durationTicks": 192,
          "midi": 68,
          "name": "G#4",
          "ticks": 284544,
          "time": 219.30074000000002,
          "velocity": 0.968503937007874
        },
        {
          "duration": 0.1415049999999951,
          "durationTicks": 192,
          "midi": 56,
          "name": "G#3",
          "ticks": 284736,
          "time": 219.442245,
          "velocity": 0.968503937007874
        },
        {
          "duration": 0.1415049999999951,
          "durationTicks": 192,
          "midi": 68,
          "name": "G#4",
          "ticks": 284736,
          "time": 219.442245,
          "velocity": 0.968503937007874
        },
        {
          "duration": 0.14150500000002353,
          "durationTicks": 192,
          "midi": 53,
          "name": "F3",
          "ticks": 284928,
          "time": 219.58375,
          "velocity": 0.968503937007874
        },
        {
          "duration": 0.14150500000002353,
          "durationTicks": 192,
          "midi": 65,
          "name": "F4",
          "ticks": 284928,
          "time": 219.58375,
          "velocity": 0.968503937007874
        },
        {
          "duration": 0.1415049999999951,
          "durationTicks": 192,
          "midi": 55,
          "name": "G3",
          "ticks": 285120,
          "time": 219.72525500000003,
          "velocity": 0.968503937007874
        },
        {
          "duration": 0.1415049999999951,
          "durationTicks": 192,
          "midi": 67,
          "name": "G4",
          "ticks": 285120,
          "time": 219.72525500000003,
          "velocity": 0.968503937007874
        },
        {
          "duration": 0.1415049999999951,
          "durationTicks": 192,
          "midi": 55,
          "name": "G3",
          "ticks": 285312,
          "time": 219.86676000000003,
          "velocity": 0.968503937007874
        },
        {
          "duration": 0.1415049999999951,
          "durationTicks": 192,
          "midi": 67,
          "name": "G4",
          "ticks": 285312,
          "time": 219.86676000000003,
          "velocity": 0.968503937007874
        },
        {
          "duration": 0.1415049999999951,
          "durationTicks": 192,
          "midi": 55,
          "name": "G3",
          "ticks": 285504,
          "time": 220.00826500000002,
          "velocity": 0.968503937007874
        },
        {
          "duration": 0.1415049999999951,
          "durationTicks": 192,
          "midi": 67,
          "name": "G4",
          "ticks": 285504,
          "time": 220.00826500000002,
          "velocity": 0.968503937007874
        },
        {
          "duration": 0.75,
          "durationTicks": 768,
          "midi": 51,
          "name": "D#3",
          "ticks": 285696,
          "time": 220.14977000000002,
          "velocity": 0.968503937007874
        },
        {
          "duration": 0.75,
          "durationTicks": 768,
          "midi": 63,
          "name": "D#4",
          "ticks": 285696,
          "time": 220.14977000000002,
          "velocity": 0.968503937007874
        },
        {
          "duration": 0.1415049999999951,
          "durationTicks": 192,
          "midi": 53,
          "name": "F3",
          "ticks": 286656,
          "time": 221.041275,
          "velocity": 0.968503937007874
        },
        {
          "duration": 0.1415049999999951,
          "durationTicks": 192,
          "midi": 65,
          "name": "F4",
          "ticks": 286656,
          "time": 221.041275,
          "velocity": 0.968503937007874
        },
        {
          "duration": 0.14150500000002353,
          "durationTicks": 192,
          "midi": 53,
          "name": "F3",
          "ticks": 286848,
          "time": 221.18278,
          "velocity": 0.968503937007874
        },
        {
          "duration": 0.14150500000002353,
          "durationTicks": 192,
          "midi": 65,
          "name": "F4",
          "ticks": 286848,
          "time": 221.18278,
          "velocity": 0.968503937007874
        },
        {
          "duration": 0.1415049999999951,
          "durationTicks": 192,
          "midi": 53,
          "name": "F3",
          "ticks": 287040,
          "time": 221.32428500000003,
          "velocity": 0.968503937007874
        },
        {
          "duration": 0.1415049999999951,
          "durationTicks": 192,
          "midi": 65,
          "name": "F4",
          "ticks": 287040,
          "time": 221.32428500000003,
          "velocity": 0.968503937007874
        },
        {
          "duration": 1.766019999999969,
          "durationTicks": 1536,
          "midi": 50,
          "name": "D3",
          "ticks": 287232,
          "time": 221.46579000000003,
          "velocity": 0.968503937007874
        },
        {
          "duration": 1.766019999999969,
          "durationTicks": 1536,
          "midi": 62,
          "name": "D4",
          "ticks": 287232,
          "time": 221.46579000000003,
          "velocity": 0.968503937007874
        },
        {
          "duration": 1.1320399999999893,
          "durationTicks": 1536,
          "midi": 51,
          "name": "D#3",
          "ticks": 291072,
          "time": 224.92987,
          "velocity": 0.7165354330708661
        },
        {
          "duration": 1.1320399999999893,
          "durationTicks": 1536,
          "midi": 55,
          "name": "G3",
          "ticks": 291072,
          "time": 224.92987,
          "velocity": 0.7165354330708661
        },
        {
          "duration": 0.28301000000001864,
          "durationTicks": 384,
          "midi": 50,
          "name": "D3",
          "ticks": 292608,
          "time": 226.06190999999998,
          "velocity": 0.7165354330708661
        },
        {
          "duration": 0.28301000000001864,
          "durationTicks": 384,
          "midi": 55,
          "name": "G3",
          "ticks": 292608,
          "time": 226.06190999999998,
          "velocity": 0.7165354330708661
        },
        {
          "duration": 1.1320399999999893,
          "durationTicks": 1536,
          "midi": 50,
          "name": "D3",
          "ticks": 294144,
          "time": 227.19395,
          "velocity": 0.7165354330708661
        },
        {
          "duration": 1.1320399999999893,
          "durationTicks": 1536,
          "midi": 55,
          "name": "G3",
          "ticks": 294144,
          "time": 227.19395,
          "velocity": 0.7165354330708661
        },
        {
          "duration": 0.28301000000001864,
          "durationTicks": 384,
          "midi": 50,
          "name": "D3",
          "ticks": 295680,
          "time": 228.32599,
          "velocity": 0.7165354330708661
        },
        {
          "duration": 0.28301000000001864,
          "durationTicks": 384,
          "midi": 55,
          "name": "G3",
          "ticks": 295680,
          "time": 228.32599,
          "velocity": 0.7165354330708661
        },
        {
          "duration": 0.5660199999999804,
          "durationTicks": 768,
          "midi": 48,
          "name": "C3",
          "ticks": 299520,
          "time": 231.15609,
          "velocity": 0.7165354330708661
        },
        {
          "duration": 0.5660199999999804,
          "durationTicks": 768,
          "midi": 54,
          "name": "F#3",
          "ticks": 299520,
          "time": 231.15609,
          "velocity": 0.7165354330708661
        },
        {
          "duration": 0.28301000000001864,
          "durationTicks": 384,
          "midi": 47,
          "name": "B2",
          "ticks": 300288,
          "time": 231.72211,
          "velocity": 0.905511811023622
        },
        {
          "duration": 0.28301000000001864,
          "durationTicks": 384,
          "midi": 55,
          "name": "G3",
          "ticks": 300288,
          "time": 231.72211,
          "velocity": 0.905511811023622
        },
        {
          "duration": 0.27777000000000385,
          "durationTicks": 384,
          "midi": 60,
          "name": "C4",
          "ticks": 310272,
          "time": 239.71339,
          "velocity": 0.905511811023622
        },
        {
          "duration": 0.27777000000000385,
          "durationTicks": 384,
          "midi": 60,
          "name": "C4",
          "ticks": 310272,
          "time": 239.71339,
          "velocity": 0.905511811023622
        },
        {
          "duration": 0.27521999999999025,
          "durationTicks": 384,
          "midi": 53,
          "name": "F3",
          "ticks": 314112,
          "time": 242.49108999999999,
          "velocity": 0.905511811023622
        },
        {
          "duration": 0.27521999999999025,
          "durationTicks": 384,
          "midi": 56,
          "name": "G#3",
          "ticks": 314112,
          "time": 242.49108999999999,
          "velocity": 0.905511811023622
        },
        {
          "duration": 0.27521999999999025,
          "durationTicks": 384,
          "midi": 52,
          "name": "E3",
          "ticks": 314880,
          "time": 243.04153,
          "velocity": 0.905511811023622
        },
        {
          "duration": 0.27521999999999025,
          "durationTicks": 384,
          "midi": 55,
          "name": "G3",
          "ticks": 314880,
          "time": 243.04153,
          "velocity": 0.905511811023622
        },
        {
          "duration": 0.27522000000001867,
          "durationTicks": 384,
          "midi": 53,
          "name": "F3",
          "ticks": 315648,
          "time": 243.59196999999998,
          "velocity": 0.905511811023622
        },
        {
          "duration": 0.27522000000001867,
          "durationTicks": 384,
          "midi": 56,
          "name": "G#3",
          "ticks": 315648,
          "time": 243.59196999999998,
          "velocity": 0.905511811023622
        },
        {
          "duration": 0.27521999999999025,
          "durationTicks": 384,
          "midi": 55,
          "name": "G3",
          "ticks": 316416,
          "time": 244.14240999999998,
          "velocity": 0.905511811023622
        },
        {
          "duration": 0.27521999999999025,
          "durationTicks": 384,
          "midi": 58,
          "name": "A#3",
          "ticks": 316416,
          "time": 244.14240999999998,
          "velocity": 0.905511811023622
        },
        {
          "duration": 0.27521999999999025,
          "durationTicks": 384,
          "midi": 53,
          "name": "F3",
          "ticks": 317184,
          "time": 244.69285,
          "velocity": 0.905511811023622
        },
        {
          "duration": 0.27521999999999025,
          "durationTicks": 384,
          "midi": 56,
          "name": "G#3",
          "ticks": 317184,
          "time": 244.69285,
          "velocity": 0.905511811023622
        },
        {
          "duration": 0.27522000000001867,
          "durationTicks": 384,
          "midi": 50,
          "name": "D3",
          "ticks": 317952,
          "time": 245.24328999999997,
          "velocity": 0.905511811023622
        },
        {
          "duration": 0.27522000000001867,
          "durationTicks": 384,
          "midi": 53,
          "name": "F3",
          "ticks": 317952,
          "time": 245.24328999999997,
          "velocity": 0.905511811023622
        },
        {
          "duration": 2.181759999999997,
          "durationTicks": 3072,
          "midi": 51,
          "name": "D#3",
          "ticks": 318720,
          "time": 245.79372999999998,
          "velocity": 0.905511811023622
        },
        {
          "duration": 2.181759999999997,
          "durationTicks": 3072,
          "midi": 55,
          "name": "G3",
          "ticks": 318720,
          "time": 245.79372999999998,
          "velocity": 0.905511811023622
        },
        {
          "duration": 1.9090400000000045,
          "durationTicks": 2688,
          "midi": 50,
          "name": "D3",
          "ticks": 321792,
          "time": 247.97548999999998,
          "velocity": 0.905511811023622
        },
        {
          "duration": 1.9090400000000045,
          "durationTicks": 2688,
          "midi": 53,
          "name": "F3",
          "ticks": 321792,
          "time": 247.97548999999998,
          "velocity": 0.905511811023622
        },
        {
          "duration": 0.2727199999999925,
          "durationTicks": 384,
          "midi": 48,
          "name": "C3",
          "ticks": 324480,
          "time": 249.88452999999998,
          "velocity": 0.905511811023622
        },
        {
          "duration": 0.2727199999999925,
          "durationTicks": 384,
          "midi": 51,
          "name": "D#3",
          "ticks": 324480,
          "time": 249.88452999999998,
          "velocity": 0.905511811023622
        },
        {
          "duration": 2.181759999999997,
          "durationTicks": 3072,
          "midi": 54,
          "name": "F#3",
          "ticks": 324864,
          "time": 250.15724999999998,
          "velocity": 0.968503937007874
        },
        {
          "duration": 2.181759999999997,
          "durationTicks": 3072,
          "midi": 63,
          "name": "D#4",
          "ticks": 324864,
          "time": 250.15724999999998,
          "velocity": 0.968503937007874
        },
        {
          "duration": 0.2941099999999892,
          "durationTicks": 384,
          "midi": 57,
          "name": "A3",
          "ticks": 327936,
          "time": 252.33900999999997,
          "velocity": 0.968503937007874
        },
        {
          "duration": 0.2941099999999892,
          "durationTicks": 384,
          "midi": 63,
          "name": "D#4",
          "ticks": 327936,
          "time": 252.33900999999997,
          "velocity": 0.968503937007874
        },
        {
          "duration": 0.2941099999999892,
          "durationTicks": 384,
          "midi": 59,
          "name": "B3",
          "ticks": 329472,
          "time": 253.51545,
          "velocity": 0.968503937007874
        },
        {
          "duration": 0.2941099999999892,
          "durationTicks": 384,
          "midi": 62,
          "name": "D4",
          "ticks": 329472,
          "time": 253.51545,
          "velocity": 0.968503937007874
        },
        {
          "duration": 0.28301000000004706,
          "durationTicks": 384,
          "midi": 58,
          "name": "A#3",
          "ticks": 347136,
          "time": 266.93190999999996,
          "velocity": 0.7165354330708661
        },
        {
          "duration": 0.28301000000004706,
          "durationTicks": 384,
          "midi": 58,
          "name": "A#3",
          "ticks": 347136,
          "time": 266.93190999999996,
          "velocity": 0.7165354330708661
        },
        {
          "duration": 0.2830099999999902,
          "durationTicks": 384,
          "midi": 60,
          "name": "C4",
          "ticks": 347520,
          "time": 267.21492,
          "velocity": 0.7165354330708661
        },
        {
          "duration": 0.2830099999999902,
          "durationTicks": 384,
          "midi": 60,
          "name": "C4",
          "ticks": 347520,
          "time": 267.21492,
          "velocity": 0.7165354330708661
        },
        {
          "duration": 0.2830099999999902,
          "durationTicks": 384,
          "midi": 58,
          "name": "A#3",
          "ticks": 347904,
          "time": 267.49793,
          "velocity": 0.7165354330708661
        },
        {
          "duration": 0.2830099999999902,
          "durationTicks": 384,
          "midi": 58,
          "name": "A#3",
          "ticks": 347904,
          "time": 267.49793,
          "velocity": 0.7165354330708661
        },
        {
          "duration": 0.2830099999999902,
          "durationTicks": 384,
          "midi": 57,
          "name": "A3",
          "ticks": 348288,
          "time": 267.78094,
          "velocity": 0.7165354330708661
        },
        {
          "duration": 0.2830099999999902,
          "durationTicks": 384,
          "midi": 57,
          "name": "A3",
          "ticks": 348288,
          "time": 267.78094,
          "velocity": 0.7165354330708661
        },
        {
          "duration": 0.2830099999999902,
          "durationTicks": 384,
          "midi": 60,
          "name": "C4",
          "ticks": 350208,
          "time": 269.19599,
          "velocity": 0.7165354330708661
        },
        {
          "duration": 0.2830099999999902,
          "durationTicks": 384,
          "midi": 60,
          "name": "C4",
          "ticks": 350208,
          "time": 269.19599,
          "velocity": 0.7165354330708661
        },
        {
          "duration": 0.2830099999999902,
          "durationTicks": 384,
          "midi": 62,
          "name": "D4",
          "ticks": 350592,
          "time": 269.479,
          "velocity": 0.7165354330708661
        },
        {
          "duration": 0.2830099999999902,
          "durationTicks": 384,
          "midi": 62,
          "name": "D4",
          "ticks": 350592,
          "time": 269.479,
          "velocity": 0.7165354330708661
        },
        {
          "duration": 0.2830099999999902,
          "durationTicks": 384,
          "midi": 60,
          "name": "C4",
          "ticks": 350976,
          "time": 269.76201,
          "velocity": 0.7165354330708661
        },
        {
          "duration": 0.2830099999999902,
          "durationTicks": 384,
          "midi": 60,
          "name": "C4",
          "ticks": 350976,
          "time": 269.76201,
          "velocity": 0.7165354330708661
        },
        {
          "duration": 0.2830099999999902,
          "durationTicks": 384,
          "midi": 59,
          "name": "B3",
          "ticks": 351360,
          "time": 270.04501999999997,
          "velocity": 0.7165354330708661
        },
        {
          "duration": 0.2830099999999902,
          "durationTicks": 384,
          "midi": 59,
          "name": "B3",
          "ticks": 351360,
          "time": 270.04501999999997,
          "velocity": 0.7165354330708661
        },
        {
          "duration": 0.2830099999999902,
          "durationTicks": 384,
          "midi": 56,
          "name": "G#3",
          "ticks": 355584,
          "time": 273.15812999999997,
          "velocity": 0.7165354330708661
        },
        {
          "duration": 0.2830099999999902,
          "durationTicks": 384,
          "midi": 68,
          "name": "G#4",
          "ticks": 355584,
          "time": 273.15812999999997,
          "velocity": 0.7165354330708661
        },
        {
          "duration": 0.2830099999999902,
          "durationTicks": 384,
          "midi": 55,
          "name": "G3",
          "ticks": 355968,
          "time": 273.44113999999996,
          "velocity": 0.7165354330708661
        },
        {
          "duration": 0.2830099999999902,
          "durationTicks": 384,
          "midi": 67,
          "name": "G4",
          "ticks": 355968,
          "time": 273.44113999999996,
          "velocity": 0.7165354330708661
        },
        {
          "duration": 0.28301000000004706,
          "durationTicks": 384,
          "midi": 53,
          "name": "F3",
          "ticks": 356352,
          "time": 273.72414999999995,
          "velocity": 0.7165354330708661
        },
        {
          "duration": 0.28301000000004706,
          "durationTicks": 384,
          "midi": 65,
          "name": "F4",
          "ticks": 356352,
          "time": 273.72414999999995,
          "velocity": 0.7165354330708661
        },
        {
          "duration": 0.2830099999999902,
          "durationTicks": 384,
          "midi": 55,
          "name": "G3",
          "ticks": 356736,
          "time": 274.00716,
          "velocity": 0.7165354330708661
        },
        {
          "duration": 0.2830099999999902,
          "durationTicks": 384,
          "midi": 67,
          "name": "G4",
          "ticks": 356736,
          "time": 274.00716,
          "velocity": 0.7165354330708661
        },
        {
          "duration": 0.2830099999999902,
          "durationTicks": 384,
          "midi": 56,
          "name": "G#3",
          "ticks": 357120,
          "time": 274.29017,
          "velocity": 0.7165354330708661
        },
        {
          "duration": 0.2830099999999902,
          "durationTicks": 384,
          "midi": 68,
          "name": "G#4",
          "ticks": 357120,
          "time": 274.29017,
          "velocity": 0.7165354330708661
        },
        {
          "duration": 0.2830099999999902,
          "durationTicks": 384,
          "midi": 55,
          "name": "G3",
          "ticks": 357504,
          "time": 274.57318,
          "velocity": 0.7165354330708661
        },
        {
          "duration": 0.2830099999999902,
          "durationTicks": 384,
          "midi": 67,
          "name": "G4",
          "ticks": 357504,
          "time": 274.57318,
          "velocity": 0.7165354330708661
        },
        {
          "duration": 0.2830099999999902,
          "durationTicks": 384,
          "midi": 54,
          "name": "F#3",
          "ticks": 357888,
          "time": 274.85618999999997,
          "velocity": 0.7952755905511811
        },
        {
          "duration": 0.2830099999999902,
          "durationTicks": 384,
          "midi": 66,
          "name": "F#4",
          "ticks": 357888,
          "time": 274.85618999999997,
          "velocity": 0.7952755905511811
        },
        {
          "duration": 0.2830099999999902,
          "durationTicks": 384,
          "midi": 55,
          "name": "G3",
          "ticks": 358272,
          "time": 275.13919999999996,
          "velocity": 0.7952755905511811
        },
        {
          "duration": 0.2830099999999902,
          "durationTicks": 384,
          "midi": 67,
          "name": "G4",
          "ticks": 358272,
          "time": 275.13919999999996,
          "velocity": 0.7952755905511811
        },
        {
          "duration": 0.28301000000004706,
          "durationTicks": 384,
          "midi": 57,
          "name": "A3",
          "ticks": 358656,
          "time": 275.42220999999995,
          "velocity": 0.7952755905511811
        },
        {
          "duration": 0.28301000000004706,
          "durationTicks": 384,
          "midi": 69,
          "name": "A4",
          "ticks": 358656,
          "time": 275.42220999999995,
          "velocity": 0.7952755905511811
        },
        {
          "duration": 0.2830099999999902,
          "durationTicks": 384,
          "midi": 55,
          "name": "G3",
          "ticks": 359040,
          "time": 275.70522,
          "velocity": 0.7952755905511811
        },
        {
          "duration": 0.2830099999999902,
          "durationTicks": 384,
          "midi": 67,
          "name": "G4",
          "ticks": 359040,
          "time": 275.70522,
          "velocity": 0.7952755905511811
        },
        {
          "duration": 0.2830099999999902,
          "durationTicks": 384,
          "midi": 54,
          "name": "F#3",
          "ticks": 359424,
          "time": 275.98823,
          "velocity": 0.7952755905511811
        },
        {
          "duration": 0.2830099999999902,
          "durationTicks": 384,
          "midi": 66,
          "name": "F#4",
          "ticks": 359424,
          "time": 275.98823,
          "velocity": 0.7952755905511811
        },
        {
          "duration": 0.2830099999999902,
          "durationTicks": 384,
          "midi": 55,
          "name": "G3",
          "ticks": 359808,
          "time": 276.27124,
          "velocity": 0.7952755905511811
        },
        {
          "duration": 0.2830099999999902,
          "durationTicks": 384,
          "midi": 67,
          "name": "G4",
          "ticks": 359808,
          "time": 276.27124,
          "velocity": 0.7952755905511811
        },
        {
          "duration": 0.2777699999999754,
          "durationTicks": 384,
          "midi": 57,
          "name": "A3",
          "ticks": 360192,
          "time": 276.55424999999997,
          "velocity": 0.8582677165354331
        },
        {
          "duration": 0.2777699999999754,
          "durationTicks": 384,
          "midi": 69,
          "name": "A4",
          "ticks": 360192,
          "time": 276.55424999999997,
          "velocity": 0.8582677165354331
        },
        {
          "duration": 0.27777000000003227,
          "durationTicks": 384,
          "midi": 55,
          "name": "G3",
          "ticks": 360576,
          "time": 276.83201999999994,
          "velocity": 0.8582677165354331
        },
        {
          "duration": 0.27777000000003227,
          "durationTicks": 384,
          "midi": 67,
          "name": "G4",
          "ticks": 360576,
          "time": 276.83201999999994,
          "velocity": 0.8582677165354331
        },
        {
          "duration": 0.2777699999999754,
          "durationTicks": 384,
          "midi": 54,
          "name": "F#3",
          "ticks": 360960,
          "time": 277.10979,
          "velocity": 0.8582677165354331
        },
        {
          "duration": 0.2777699999999754,
          "durationTicks": 384,
          "midi": 66,
          "name": "F#4",
          "ticks": 360960,
          "time": 277.10979,
          "velocity": 0.8582677165354331
        },
        {
          "duration": 0.27777000000003227,
          "durationTicks": 384,
          "midi": 55,
          "name": "G3",
          "ticks": 361344,
          "time": 277.38755999999995,
          "velocity": 0.8582677165354331
        },
        {
          "duration": 0.27777000000003227,
          "durationTicks": 384,
          "midi": 67,
          "name": "G4",
          "ticks": 361344,
          "time": 277.38755999999995,
          "velocity": 0.8582677165354331
        },
        {
          "duration": 0.2777699999999754,
          "durationTicks": 384,
          "midi": 54,
          "name": "F#3",
          "ticks": 361728,
          "time": 277.66533,
          "velocity": 0.905511811023622
        },
        {
          "duration": 0.2777699999999754,
          "durationTicks": 384,
          "midi": 66,
          "name": "F#4",
          "ticks": 361728,
          "time": 277.66533,
          "velocity": 0.905511811023622
        },
        {
          "duration": 0.27777000000003227,
          "durationTicks": 384,
          "midi": 55,
          "name": "G3",
          "ticks": 362112,
          "time": 277.94309999999996,
          "velocity": 0.905511811023622
        },
        {
          "duration": 0.27777000000003227,
          "durationTicks": 384,
          "midi": 67,
          "name": "G4",
          "ticks": 362112,
          "time": 277.94309999999996,
          "velocity": 0.905511811023622
        },
        {
          "duration": 0.2777699999999754,
          "durationTicks": 384,
          "midi": 54,
          "name": "F#3",
          "ticks": 362496,
          "time": 278.22087,
          "velocity": 0.905511811023622
        },
        {
          "duration": 0.2777699999999754,
          "durationTicks": 384,
          "midi": 66,
          "name": "F#4",
          "ticks": 362496,
          "time": 278.22087,
          "velocity": 0.905511811023622
        },
        {
          "duration": 0.2777699999999754,
          "durationTicks": 384,
          "midi": 55,
          "name": "G3",
          "ticks": 362880,
          "time": 278.49863999999997,
          "velocity": 0.905511811023622
        },
        {
          "duration": 0.2777699999999754,
          "durationTicks": 384,
          "midi": 67,
          "name": "G4",
          "ticks": 362880,
          "time": 278.49863999999997,
          "velocity": 0.905511811023622
        },
        {
          "duration": 0.83331000000004,
          "durationTicks": 1152,
          "midi": 65,
          "name": "F4",
          "ticks": 363264,
          "time": 278.77640999999994,
          "velocity": 0.968503937007874
        },
        {
          "duration": 0.83331000000004,
          "durationTicks": 1152,
          "midi": 67,
          "name": "G4",
          "ticks": 363264,
          "time": 278.77640999999994,
          "velocity": 0.968503937007874
        },
        {
          "duration": 0.2777699999999754,
          "durationTicks": 384,
          "midi": 62,
          "name": "D4",
          "ticks": 364416,
          "time": 279.60972,
          "velocity": 0.968503937007874
        },
        {
          "duration": 0.2777699999999754,
          "durationTicks": 384,
          "midi": 67,
          "name": "G4",
          "ticks": 364416,
          "time": 279.60972,
          "velocity": 0.968503937007874
        },
        {
          "duration": 0.27777000000003227,
          "durationTicks": 384,
          "midi": 64,
          "name": "E4",
          "ticks": 364800,
          "time": 279.88748999999996,
          "velocity": 0.968503937007874
        },
        {
          "duration": 0.27777000000003227,
          "durationTicks": 384,
          "midi": 67,
          "name": "G4",
          "ticks": 364800,
          "time": 279.88748999999996,
          "velocity": 0.968503937007874
        },
        {
          "duration": 0.2777699999999754,
          "durationTicks": 384,
          "midi": 59,
          "name": "B3",
          "ticks": 365568,
          "time": 280.44302999999996,
          "velocity": 0.968503937007874
        },
        {
          "duration": 0.2777699999999754,
          "durationTicks": 384,
          "midi": 65,
          "name": "F4",
          "ticks": 365568,
          "time": 280.44302999999996,
          "velocity": 0.968503937007874
        },
        {
          "duration": 0.2777699999999754,
          "durationTicks": 384,
          "midi": 60,
          "name": "C4",
          "ticks": 366336,
          "time": 280.99857,
          "velocity": 0.968503937007874
        },
        {
          "duration": 0.2777699999999754,
          "durationTicks": 384,
          "midi": 64,
          "name": "E4",
          "ticks": 366336,
          "time": 280.99857,
          "velocity": 0.968503937007874
        },
        {
          "duration": 0.2777699999999754,
          "durationTicks": 384,
          "midi": 60,
          "name": "C4",
          "ticks": 367104,
          "time": 281.55411,
          "velocity": 0.968503937007874
        },
        {
          "duration": 0.2777699999999754,
          "durationTicks": 384,
          "midi": 62,
          "name": "D4",
          "ticks": 367104,
          "time": 281.55411,
          "velocity": 0.968503937007874
        },
        {
          "duration": 0.2777699999999754,
          "durationTicks": 384,
          "midi": 60,
          "name": "C4",
          "ticks": 367872,
          "time": 282.10965,
          "velocity": 0.968503937007874
        },
        {
          "duration": 0.2777699999999754,
          "durationTicks": 384,
          "midi": 64,
          "name": "E4",
          "ticks": 367872,
          "time": 282.10965,
          "velocity": 0.968503937007874
        },
        {
          "duration": 0.2777699999999754,
          "durationTicks": 384,
          "midi": 59,
          "name": "B3",
          "ticks": 368640,
          "time": 282.66519,
          "velocity": 0.968503937007874
        },
        {
          "duration": 0.2777699999999754,
          "durationTicks": 384,
          "midi": 62,
          "name": "D4",
          "ticks": 368640,
          "time": 282.66519,
          "velocity": 0.968503937007874
        },
        {
          "duration": 1.1110800000000154,
          "durationTicks": 1536,
          "midi": 62,
          "name": "D4",
          "ticks": 369408,
          "time": 283.22072999999995,
          "velocity": 0.968503937007874
        },
        {
          "duration": 1.1110800000000154,
          "durationTicks": 1536,
          "midi": 65,
          "name": "F4",
          "ticks": 369408,
          "time": 283.22072999999995,
          "velocity": 0.968503937007874
        },
        {
          "duration": 0.27777000000003227,
          "durationTicks": 384,
          "midi": 60,
          "name": "C4",
          "ticks": 370944,
          "time": 284.33180999999996,
          "velocity": 0.968503937007874
        },
        {
          "duration": 0.27777000000003227,
          "durationTicks": 384,
          "midi": 64,
          "name": "E4",
          "ticks": 370944,
          "time": 284.33180999999996,
          "velocity": 0.968503937007874
        },
        {
          "duration": 0.2777699999999754,
          "durationTicks": 384,
          "midi": 60,
          "name": "C4",
          "ticks": 371328,
          "time": 284.60958,
          "velocity": 0.968503937007874
        },
        {
          "duration": 0.2777699999999754,
          "durationTicks": 384,
          "midi": 64,
          "name": "E4",
          "ticks": 371328,
          "time": 284.60958,
          "velocity": 0.968503937007874
        },
        {
          "duration": 0.27777000000003227,
          "durationTicks": 384,
          "midi": 59,
          "name": "B3",
          "ticks": 372096,
          "time": 285.16511999999994,
          "velocity": 0.968503937007874
        },
        {
          "duration": 0.27777000000003227,
          "durationTicks": 384,
          "midi": 62,
          "name": "D4",
          "ticks": 372096,
          "time": 285.16511999999994,
          "velocity": 0.968503937007874
        },
        {
          "duration": 0.27777000000003227,
          "durationTicks": 384,
          "midi": 60,
          "name": "C4",
          "ticks": 372864,
          "time": 285.72065999999995,
          "velocity": 0.968503937007874
        },
        {
          "duration": 0.27777000000003227,
          "durationTicks": 384,
          "midi": 64,
          "name": "E4",
          "ticks": 372864,
          "time": 285.72065999999995,
          "velocity": 0.968503937007874
        },
        {
          "duration": 0.27777000000003227,
          "durationTicks": 384,
          "midi": 60,
          "name": "C4",
          "ticks": 373632,
          "time": 286.27619999999996,
          "velocity": 0.968503937007874
        },
        {
          "duration": 0.27777000000003227,
          "durationTicks": 384,
          "midi": 62,
          "name": "D4",
          "ticks": 373632,
          "time": 286.27619999999996,
          "velocity": 0.968503937007874
        },
        {
          "duration": 0.2777699999999754,
          "durationTicks": 384,
          "midi": 60,
          "name": "C4",
          "ticks": 374400,
          "time": 286.83173999999997,
          "velocity": 0.968503937007874
        },
        {
          "duration": 0.2777699999999754,
          "durationTicks": 384,
          "midi": 64,
          "name": "E4",
          "ticks": 374400,
          "time": 286.83173999999997,
          "velocity": 0.968503937007874
        },
        {
          "duration": 0.2777699999999754,
          "durationTicks": 384,
          "midi": 59,
          "name": "B3",
          "ticks": 375168,
          "time": 287.38728,
          "velocity": 0.968503937007874
        },
        {
          "duration": 0.2777699999999754,
          "durationTicks": 384,
          "midi": 62,
          "name": "D4",
          "ticks": 375168,
          "time": 287.38728,
          "velocity": 0.968503937007874
        },
        {
          "duration": 0.13888500000001613,
          "durationTicks": 192,
          "midi": 52,
          "name": "E3",
          "ticks": 375552,
          "time": 287.66504999999995,
          "velocity": 0.968503937007874
        },
        {
          "duration": 0.13888500000001613,
          "durationTicks": 192,
          "midi": 60,
          "name": "C4",
          "ticks": 375552,
          "time": 287.66504999999995,
          "velocity": 0.968503937007874
        },
        {
          "duration": 0.13888500000001613,
          "durationTicks": 192,
          "midi": 52,
          "name": "E3",
          "ticks": 375744,
          "time": 287.80393499999997,
          "velocity": 0.968503937007874
        },
        {
          "duration": 0.13888500000001613,
          "durationTicks": 192,
          "midi": 64,
          "name": "E4",
          "ticks": 375744,
          "time": 287.80393499999997,
          "velocity": 0.968503937007874
        },
        {
          "duration": 0.1388849999999593,
          "durationTicks": 192,
          "midi": 52,
          "name": "E3",
          "ticks": 375936,
          "time": 287.94282,
          "velocity": 0.968503937007874
        },
        {
          "duration": 0.1388849999999593,
          "durationTicks": 192,
          "midi": 64,
          "name": "E4",
          "ticks": 375936,
          "time": 287.94282,
          "velocity": 0.968503937007874
        },
        {
          "duration": 0.13888500000001613,
          "durationTicks": 192,
          "midi": 52,
          "name": "E3",
          "ticks": 376128,
          "time": 288.08170499999994,
          "velocity": 0.968503937007874
        },
        {
          "duration": 0.13888500000001613,
          "durationTicks": 192,
          "midi": 64,
          "name": "E4",
          "ticks": 376128,
          "time": 288.08170499999994,
          "velocity": 0.968503937007874
        },
        {
          "duration": 0.13888500000001613,
          "durationTicks": 192,
          "midi": 48,
          "name": "C3",
          "ticks": 376320,
          "time": 288.22058999999996,
          "velocity": 0.968503937007874
        },
        {
          "duration": 0.13888500000001613,
          "durationTicks": 192,
          "midi": 60,
          "name": "C4",
          "ticks": 376320,
          "time": 288.22058999999996,
          "velocity": 0.968503937007874
        },
        {
          "duration": 0.13888500000001613,
          "durationTicks": 192,
          "midi": 55,
          "name": "G3",
          "ticks": 376512,
          "time": 288.359475,
          "velocity": 0.968503937007874
        },
        {
          "duration": 0.13888500000001613,
          "durationTicks": 192,
          "midi": 67,
          "name": "G4",
          "ticks": 376512,
          "time": 288.359475,
          "velocity": 0.968503937007874
        },
        {
          "duration": 0.1388849999999593,
          "durationTicks": 192,
          "midi": 55,
          "name": "G3",
          "ticks": 376704,
          "time": 288.49836,
          "velocity": 0.968503937007874
        },
        {
          "duration": 0.1388849999999593,
          "durationTicks": 192,
          "midi": 67,
          "name": "G4",
          "ticks": 376704,
          "time": 288.49836,
          "velocity": 0.968503937007874
        },
        {
          "duration": 0.13888500000001613,
          "durationTicks": 192,
          "midi": 55,
          "name": "G3",
          "ticks": 376896,
          "time": 288.63724499999995,
          "velocity": 0.968503937007874
        },
        {
          "duration": 0.13888500000001613,
          "durationTicks": 192,
          "midi": 67,
          "name": "G4",
          "ticks": 376896,
          "time": 288.63724499999995,
          "velocity": 0.968503937007874
        },
        {
          "duration": 0.13888500000001613,
          "durationTicks": 192,
          "midi": 52,
          "name": "E3",
          "ticks": 377088,
          "time": 288.77612999999997,
          "velocity": 0.968503937007874
        },
        {
          "duration": 0.13888500000001613,
          "durationTicks": 192,
          "midi": 64,
          "name": "E4",
          "ticks": 377088,
          "time": 288.77612999999997,
          "velocity": 0.968503937007874
        },
        {
          "duration": 0.1388849999999593,
          "durationTicks": 192,
          "midi": 48,
          "name": "C3",
          "ticks": 377280,
          "time": 288.915015,
          "velocity": 0.968503937007874
        },
        {
          "duration": 0.1388849999999593,
          "durationTicks": 192,
          "midi": 60,
          "name": "C4",
          "ticks": 377280,
          "time": 288.915015,
          "velocity": 0.968503937007874
        },
        {
          "duration": 0.13888500000001613,
          "durationTicks": 192,
          "midi": 48,
          "name": "C3",
          "ticks": 377472,
          "time": 289.05389999999994,
          "velocity": 0.968503937007874
        },
        {
          "duration": 0.13888500000001613,
          "durationTicks": 192,
          "midi": 60,
          "name": "C4",
          "ticks": 377472,
          "time": 289.05389999999994,
          "velocity": 0.968503937007874
        },
        {
          "duration": 0.13888500000001613,
          "durationTicks": 192,
          "midi": 48,
          "name": "C3",
          "ticks": 377664,
          "time": 289.19278499999996,
          "velocity": 0.968503937007874
        },
        {
          "duration": 0.13888500000001613,
          "durationTicks": 192,
          "midi": 60,
          "name": "C4",
          "ticks": 377664,
          "time": 289.19278499999996,
          "velocity": 0.968503937007874
        },
        {
          "duration": 0.694424999999967,
          "durationTicks": 960,
          "midi": 43,
          "name": "G2",
          "ticks": 377856,
          "time": 289.33167,
          "velocity": 0.968503937007874
        },
        {
          "duration": 0.694424999999967,
          "durationTicks": 960,
          "midi": 55,
          "name": "G3",
          "ticks": 377856,
          "time": 289.33167,
          "velocity": 0.968503937007874
        },
        {
          "duration": 0.13888500000001613,
          "durationTicks": 192,
          "midi": 52,
          "name": "E3",
          "ticks": 378816,
          "time": 290.02609499999994,
          "velocity": 0.968503937007874
        },
        {
          "duration": 0.13888500000001613,
          "durationTicks": 192,
          "midi": 64,
          "name": "E4",
          "ticks": 378816,
          "time": 290.02609499999994,
          "velocity": 0.968503937007874
        },
        {
          "duration": 0.13888500000001613,
          "durationTicks": 192,
          "midi": 52,
          "name": "E3",
          "ticks": 379008,
          "time": 290.16497999999996,
          "velocity": 0.968503937007874
        },
        {
          "duration": 0.13888500000001613,
          "durationTicks": 192,
          "midi": 64,
          "name": "E4",
          "ticks": 379008,
          "time": 290.16497999999996,
          "velocity": 0.968503937007874
        },
        {
          "duration": 0.13888500000001613,
          "durationTicks": 192,
          "midi": 52,
          "name": "E3",
          "ticks": 379200,
          "time": 290.303865,
          "velocity": 0.968503937007874
        },
        {
          "duration": 0.13888500000001613,
          "durationTicks": 192,
          "midi": 64,
          "name": "E4",
          "ticks": 379200,
          "time": 290.303865,
          "velocity": 0.968503937007874
        },
        {
          "duration": 0.1388849999999593,
          "durationTicks": 192,
          "midi": 48,
          "name": "C3",
          "ticks": 379392,
          "time": 290.44275,
          "velocity": 0.968503937007874
        },
        {
          "duration": 0.1388849999999593,
          "durationTicks": 192,
          "midi": 60,
          "name": "C4",
          "ticks": 379392,
          "time": 290.44275,
          "velocity": 0.968503937007874
        },
        {
          "duration": 0.13888500000001613,
          "durationTicks": 192,
          "midi": 55,
          "name": "G3",
          "ticks": 379584,
          "time": 290.58163499999995,
          "velocity": 0.968503937007874
        },
        {
          "duration": 0.13888500000001613,
          "durationTicks": 192,
          "midi": 67,
          "name": "G4",
          "ticks": 379584,
          "time": 290.58163499999995,
          "velocity": 0.968503937007874
        },
        {
          "duration": 0.13888500000001613,
          "durationTicks": 192,
          "midi": 55,
          "name": "G3",
          "ticks": 379776,
          "time": 290.72051999999996,
          "velocity": 0.968503937007874
        },
        {
          "duration": 0.13888500000001613,
          "durationTicks": 192,
          "midi": 67,
          "name": "G4",
          "ticks": 379776,
          "time": 290.72051999999996,
          "velocity": 0.968503937007874
        },
        {
          "duration": 0.13888500000001613,
          "durationTicks": 192,
          "midi": 55,
          "name": "G3",
          "ticks": 379968,
          "time": 290.859405,
          "velocity": 0.968503937007874
        },
        {
          "duration": 0.13888500000001613,
          "durationTicks": 192,
          "midi": 67,
          "name": "G4",
          "ticks": 379968,
          "time": 290.859405,
          "velocity": 0.968503937007874
        },
        {
          "duration": 0.1388849999999593,
          "durationTicks": 192,
          "midi": 52,
          "name": "E3",
          "ticks": 380160,
          "time": 290.99829,
          "velocity": 0.968503937007874
        },
        {
          "duration": 0.1388849999999593,
          "durationTicks": 192,
          "midi": 64,
          "name": "E4",
          "ticks": 380160,
          "time": 290.99829,
          "velocity": 0.968503937007874
        },
        {
          "duration": 0.13888500000001613,
          "durationTicks": 192,
          "midi": 48,
          "name": "C3",
          "ticks": 380352,
          "time": 291.13717499999996,
          "velocity": 0.968503937007874
        },
        {
          "duration": 0.13888500000001613,
          "durationTicks": 192,
          "midi": 60,
          "name": "C4",
          "ticks": 380352,
          "time": 291.13717499999996,
          "velocity": 0.968503937007874
        },
        {
          "duration": 0.13888500000001613,
          "durationTicks": 192,
          "midi": 48,
          "name": "C3",
          "ticks": 380544,
          "time": 291.27606,
          "velocity": 0.968503937007874
        },
        {
          "duration": 0.13888500000001613,
          "durationTicks": 192,
          "midi": 60,
          "name": "C4",
          "ticks": 380544,
          "time": 291.27606,
          "velocity": 0.968503937007874
        },
        {
          "duration": 0.1388849999999593,
          "durationTicks": 192,
          "midi": 48,
          "name": "C3",
          "ticks": 380736,
          "time": 291.414945,
          "velocity": 0.968503937007874
        },
        {
          "duration": 0.1388849999999593,
          "durationTicks": 192,
          "midi": 60,
          "name": "C4",
          "ticks": 380736,
          "time": 291.414945,
          "velocity": 0.968503937007874
        },
        {
          "duration": 0.13888500000001613,
          "durationTicks": 192,
          "midi": 43,
          "name": "G2",
          "ticks": 380928,
          "time": 291.55382999999995,
          "velocity": 0.968503937007874
        },
        {
          "duration": 0.13888500000001613,
          "durationTicks": 192,
          "midi": 55,
          "name": "G3",
          "ticks": 380928,
          "time": 291.55382999999995,
          "velocity": 0.968503937007874
        },
        {
          "duration": 0.13888500000001613,
          "durationTicks": 192,
          "midi": 55,
          "name": "G3",
          "ticks": 381120,
          "time": 291.69271499999996,
          "velocity": 0.968503937007874
        },
        {
          "duration": 0.13888500000001613,
          "durationTicks": 192,
          "midi": 59,
          "name": "B3",
          "ticks": 381120,
          "time": 291.69271499999996,
          "velocity": 0.968503937007874
        },
        {
          "duration": 0.1388849999999593,
          "durationTicks": 192,
          "midi": 55,
          "name": "G3",
          "ticks": 381312,
          "time": 291.8316,
          "velocity": 0.968503937007874
        },
        {
          "duration": 0.1388849999999593,
          "durationTicks": 192,
          "midi": 59,
          "name": "B3",
          "ticks": 381312,
          "time": 291.8316,
          "velocity": 0.968503937007874
        },
        {
          "duration": 0.13888500000001613,
          "durationTicks": 192,
          "midi": 55,
          "name": "G3",
          "ticks": 381504,
          "time": 291.97048499999994,
          "velocity": 0.968503937007874
        },
        {
          "duration": 0.13888500000001613,
          "durationTicks": 192,
          "midi": 59,
          "name": "B3",
          "ticks": 381504,
          "time": 291.97048499999994,
          "velocity": 0.968503937007874
        },
        {
          "duration": 0.27777000000003227,
          "durationTicks": 384,
          "midi": 55,
          "name": "G3",
          "ticks": 381696,
          "time": 292.10936999999996,
          "velocity": 0.968503937007874
        },
        {
          "duration": 0.27777000000003227,
          "durationTicks": 384,
          "midi": 60,
          "name": "C4",
          "ticks": 381696,
          "time": 292.10936999999996,
          "velocity": 0.968503937007874
        },
        {
          "duration": 0.13888500000001613,
          "durationTicks": 192,
          "midi": 55,
          "name": "G3",
          "ticks": 382656,
          "time": 292.803795,
          "velocity": 0.968503937007874
        },
        {
          "duration": 0.13888500000001613,
          "durationTicks": 192,
          "midi": 59,
          "name": "B3",
          "ticks": 382656,
          "time": 292.803795,
          "velocity": 0.968503937007874
        },
        {
          "duration": 0.1388849999999593,
          "durationTicks": 192,
          "midi": 55,
          "name": "G3",
          "ticks": 382848,
          "time": 292.94268,
          "velocity": 0.968503937007874
        },
        {
          "duration": 0.1388849999999593,
          "durationTicks": 192,
          "midi": 59,
          "name": "B3",
          "ticks": 382848,
          "time": 292.94268,
          "velocity": 0.968503937007874
        },
        {
          "duration": 0.13888500000001613,
          "durationTicks": 192,
          "midi": 55,
          "name": "G3",
          "ticks": 383040,
          "time": 293.08156499999996,
          "velocity": 0.968503937007874
        },
        {
          "duration": 0.13888500000001613,
          "durationTicks": 192,
          "midi": 59,
          "name": "B3",
          "ticks": 383040,
          "time": 293.08156499999996,
          "velocity": 0.968503937007874
        },
        {
          "duration": 0.2777699999999754,
          "durationTicks": 384,
          "midi": 55,
          "name": "G3",
          "ticks": 383232,
          "time": 293.22044999999997,
          "velocity": 0.968503937007874
        },
        {
          "duration": 0.2777699999999754,
          "durationTicks": 384,
          "midi": 60,
          "name": "C4",
          "ticks": 383232,
          "time": 293.22044999999997,
          "velocity": 0.968503937007874
        },
        {
          "duration": 0.1388849999999593,
          "durationTicks": 192,
          "midi": 59,
          "name": "B3",
          "ticks": 384192,
          "time": 293.914875,
          "velocity": 0.968503937007874
        },
        {
          "duration": 0.1388849999999593,
          "durationTicks": 192,
          "midi": 62,
          "name": "D4",
          "ticks": 384192,
          "time": 293.914875,
          "velocity": 0.968503937007874
        },
        {
          "duration": 0.13888500000001613,
          "durationTicks": 192,
          "midi": 59,
          "name": "B3",
          "ticks": 384384,
          "time": 294.05375999999995,
          "velocity": 0.968503937007874
        },
        {
          "duration": 0.13888500000001613,
          "durationTicks": 192,
          "midi": 62,
          "name": "D4",
          "ticks": 384384,
          "time": 294.05375999999995,
          "velocity": 0.968503937007874
        },
        {
          "duration": 0.13888500000001613,
          "durationTicks": 192,
          "midi": 59,
          "name": "B3",
          "ticks": 384576,
          "time": 294.19264499999997,
          "velocity": 0.968503937007874
        },
        {
          "duration": 0.13888500000001613,
          "durationTicks": 192,
          "midi": 62,
          "name": "D4",
          "ticks": 384576,
          "time": 294.19264499999997,
          "velocity": 0.968503937007874
        },
        {
          "duration": 0.1388849999999593,
          "durationTicks": 192,
          "midi": 60,
          "name": "C4",
          "ticks": 384768,
          "time": 294.33153,
          "velocity": 0.968503937007874
        },
        {
          "duration": 0.1388849999999593,
          "durationTicks": 192,
          "midi": 64,
          "name": "E4",
          "ticks": 384768,
          "time": 294.33153,
          "velocity": 0.968503937007874
        },
        {
          "duration": 0.13888500000001613,
          "durationTicks": 192,
          "midi": 48,
          "name": "C3",
          "ticks": 384960,
          "time": 294.47041499999995,
          "velocity": 0.968503937007874
        },
        {
          "duration": 0.13888500000001613,
          "durationTicks": 192,
          "midi": 60,
          "name": "C4",
          "ticks": 384960,
          "time": 294.47041499999995,
          "velocity": 0.968503937007874
        },
        {
          "duration": 0.13888500000001613,
          "durationTicks": 192,
          "midi": 48,
          "name": "C3",
          "ticks": 385152,
          "time": 294.60929999999996,
          "velocity": 0.968503937007874
        },
        {
          "duration": 0.13888500000001613,
          "durationTicks": 192,
          "midi": 60,
          "name": "C4",
          "ticks": 385152,
          "time": 294.60929999999996,
          "velocity": 0.968503937007874
        },
        {
          "duration": 0.13888500000001613,
          "durationTicks": 192,
          "midi": 48,
          "name": "C3",
          "ticks": 385344,
          "time": 294.748185,
          "velocity": 0.968503937007874
        },
        {
          "duration": 0.13888500000001613,
          "durationTicks": 192,
          "midi": 60,
          "name": "C4",
          "ticks": 385344,
          "time": 294.748185,
          "velocity": 0.968503937007874
        },
        {
          "duration": 0.694424999999967,
          "durationTicks": 960,
          "midi": 48,
          "name": "C3",
          "ticks": 385536,
          "time": 294.88707,
          "velocity": 0.968503937007874
        },
        {
          "duration": 0.694424999999967,
          "durationTicks": 960,
          "midi": 60,
          "name": "C4",
          "ticks": 385536,
          "time": 294.88707,
          "velocity": 0.968503937007874
        },
        {
          "duration": 0.13888500000001613,
          "durationTicks": 192,
          "midi": 48,
          "name": "C3",
          "ticks": 386496,
          "time": 295.58149499999996,
          "velocity": 0.968503937007874
        },
        {
          "duration": 0.13888500000001613,
          "durationTicks": 192,
          "midi": 60,
          "name": "C4",
          "ticks": 386496,
          "time": 295.58149499999996,
          "velocity": 0.968503937007874
        },
        {
          "duration": 0.13888500000001613,
          "durationTicks": 192,
          "midi": 48,
          "name": "C3",
          "ticks": 386688,
          "time": 295.72038,
          "velocity": 0.968503937007874
        },
        {
          "duration": 0.13888500000001613,
          "durationTicks": 192,
          "midi": 60,
          "name": "C4",
          "ticks": 386688,
          "time": 295.72038,
          "velocity": 0.968503937007874
        },
        {
          "duration": 0.1388849999999593,
          "durationTicks": 192,
          "midi": 48,
          "name": "C3",
          "ticks": 386880,
          "time": 295.859265,
          "velocity": 0.968503937007874
        },
        {
          "duration": 0.1388849999999593,
          "durationTicks": 192,
          "midi": 60,
          "name": "C4",
          "ticks": 386880,
          "time": 295.859265,
          "velocity": 0.968503937007874
        },
        {
          "duration": 0.6944250000000238,
          "durationTicks": 960,
          "midi": 48,
          "name": "C3",
          "ticks": 387072,
          "time": 295.99814999999995,
          "velocity": 0.968503937007874
        },
        {
          "duration": 0.6944250000000238,
          "durationTicks": 960,
          "midi": 60,
          "name": "C4",
          "ticks": 387072,
          "time": 295.99814999999995,
          "velocity": 0.968503937007874
        },
        {
          "duration": 0.13888500000001613,
          "durationTicks": 192,
          "midi": 48,
          "name": "C3",
          "ticks": 388032,
          "time": 296.692575,
          "velocity": 0.968503937007874
        },
        {
          "duration": 0.13888500000001613,
          "durationTicks": 192,
          "midi": 60,
          "name": "C4",
          "ticks": 388032,
          "time": 296.692575,
          "velocity": 0.968503937007874
        },
        {
          "duration": 0.1388849999999593,
          "durationTicks": 192,
          "midi": 48,
          "name": "C3",
          "ticks": 388224,
          "time": 296.83146,
          "velocity": 0.968503937007874
        },
        {
          "duration": 0.1388849999999593,
          "durationTicks": 192,
          "midi": 60,
          "name": "C4",
          "ticks": 388224,
          "time": 296.83146,
          "velocity": 0.968503937007874
        },
        {
          "duration": 0.13888500000001613,
          "durationTicks": 192,
          "midi": 48,
          "name": "C3",
          "ticks": 388416,
          "time": 296.97034499999995,
          "velocity": 0.968503937007874
        },
        {
          "duration": 0.13888500000001613,
          "durationTicks": 192,
          "midi": 60,
          "name": "C4",
          "ticks": 388416,
          "time": 296.97034499999995,
          "velocity": 0.968503937007874
        },
        {
          "duration": 0.6944250000000238,
          "durationTicks": 960,
          "midi": 48,
          "name": "C3",
          "ticks": 388608,
          "time": 297.10922999999997,
          "velocity": 0.968503937007874
        },
        {
          "duration": 0.6944250000000238,
          "durationTicks": 960,
          "midi": 60,
          "name": "C4",
          "ticks": 388608,
          "time": 297.10922999999997,
          "velocity": 0.968503937007874
        },
        {
          "duration": 0.1388849999999593,
          "durationTicks": 192,
          "midi": 48,
          "name": "C3",
          "ticks": 389568,
          "time": 297.803655,
          "velocity": 0.968503937007874
        },
        {
          "duration": 0.1388849999999593,
          "durationTicks": 192,
          "midi": 60,
          "name": "C4",
          "ticks": 389568,
          "time": 297.803655,
          "velocity": 0.968503937007874
        },
        {
          "duration": 0.13888500000001613,
          "durationTicks": 192,
          "midi": 48,
          "name": "C3",
          "ticks": 389760,
          "time": 297.94253999999995,
          "velocity": 0.968503937007874
        },
        {
          "duration": 0.13888500000001613,
          "durationTicks": 192,
          "midi": 60,
          "name": "C4",
          "ticks": 389760,
          "time": 297.94253999999995,
          "velocity": 0.968503937007874
        },
        {
          "duration": 0.13888500000001613,
          "durationTicks": 192,
          "midi": 48,
          "name": "C3",
          "ticks": 389952,
          "time": 298.08142499999997,
          "velocity": 0.968503937007874
        },
        {
          "duration": 0.13888500000001613,
          "durationTicks": 192,
          "midi": 60,
          "name": "C4",
          "ticks": 389952,
          "time": 298.08142499999997,
          "velocity": 0.968503937007874
        },
        {
          "duration": 0.5555400000000077,
          "durationTicks": 768,
          "midi": 48,
          "name": "C3",
          "ticks": 390144,
          "time": 298.22031,
          "velocity": 0.968503937007874
        },
        {
          "duration": 0.5555400000000077,
          "durationTicks": 768,
          "midi": 60,
          "name": "C4",
          "ticks": 390144,
          "time": 298.22031,
          "velocity": 0.968503937007874
        },
        {
          "duration": 2.222159999999974,
          "durationTicks": 3072,
          "midi": 56,
          "name": "G#3",
          "ticks": 390912,
          "time": 298.77585,
          "velocity": 0.968503937007874
        },
        {
          "duration": 2.222159999999974,
          "durationTicks": 3072,
          "midi": 61,
          "name": "C#4",
          "ticks": 390912,
          "time": 298.77585,
          "velocity": 0.968503937007874
        },
        {
          "duration": 0.2777699999999754,
          "durationTicks": 384,
          "midi": 56,
          "name": "G#3",
          "ticks": 393984,
          "time": 300.99800999999997,
          "velocity": 0.968503937007874
        },
        {
          "duration": 0.2777699999999754,
          "durationTicks": 384,
          "midi": 61,
          "name": "C#4",
          "ticks": 393984,
          "time": 300.99800999999997,
          "velocity": 0.968503937007874
        },
        {
          "duration": 0.1388849999999593,
          "durationTicks": 192,
          "midi": 53,
          "name": "F3",
          "ticks": 394944,
          "time": 301.692435,
          "velocity": 0.7165354330708661
        },
        {
          "duration": 0.1388849999999593,
          "durationTicks": 192,
          "midi": 53,
          "name": "F3",
          "ticks": 394944,
          "time": 301.692435,
          "velocity": 0.7165354330708661
        },
        {
          "duration": 0.13888500000001613,
          "durationTicks": 192,
          "midi": 53,
          "name": "F3",
          "ticks": 395136,
          "time": 301.83131999999995,
          "velocity": 0.7165354330708661
        },
        {
          "duration": 0.13888500000001613,
          "durationTicks": 192,
          "midi": 53,
          "name": "F3",
          "ticks": 395136,
          "time": 301.83131999999995,
          "velocity": 0.7165354330708661
        },
        {
          "duration": 0.13888500000001613,
          "durationTicks": 192,
          "midi": 53,
          "name": "F3",
          "ticks": 395328,
          "time": 301.97020499999996,
          "velocity": 0.7165354330708661
        },
        {
          "duration": 0.13888500000001613,
          "durationTicks": 192,
          "midi": 53,
          "name": "F3",
          "ticks": 395328,
          "time": 301.97020499999996,
          "velocity": 0.7165354330708661
        },
        {
          "duration": 0.2777699999999754,
          "durationTicks": 384,
          "midi": 56,
          "name": "G#3",
          "ticks": 395520,
          "time": 302.10909,
          "velocity": 0.7165354330708661
        },
        {
          "duration": 0.2777699999999754,
          "durationTicks": 384,
          "midi": 56,
          "name": "G#3",
          "ticks": 395520,
          "time": 302.10909,
          "velocity": 0.7165354330708661
        },
        {
          "duration": 0.13888500000001613,
          "durationTicks": 192,
          "midi": 57,
          "name": "A3",
          "ticks": 397248,
          "time": 303.35905499999996,
          "velocity": 0.968503937007874
        },
        {
          "duration": 0.13888500000001613,
          "durationTicks": 192,
          "midi": 60,
          "name": "C4",
          "ticks": 397248,
          "time": 303.35905499999996,
          "velocity": 0.968503937007874
        },
        {
          "duration": 0.13888500000001613,
          "durationTicks": 192,
          "midi": 57,
          "name": "A3",
          "ticks": 397440,
          "time": 303.49793999999997,
          "velocity": 0.968503937007874
        },
        {
          "duration": 0.13888500000001613,
          "durationTicks": 192,
          "midi": 60,
          "name": "C4",
          "ticks": 397440,
          "time": 303.49793999999997,
          "velocity": 0.968503937007874
        },
        {
          "duration": 0.1388849999999593,
          "durationTicks": 192,
          "midi": 57,
          "name": "A3",
          "ticks": 397632,
          "time": 303.636825,
          "velocity": 0.968503937007874
        },
        {
          "duration": 0.1388849999999593,
          "durationTicks": 192,
          "midi": 60,
          "name": "C4",
          "ticks": 397632,
          "time": 303.636825,
          "velocity": 0.968503937007874
        },
        {
          "duration": 2.2221600000000308,
          "durationTicks": 3072,
          "midi": 57,
          "name": "A3",
          "ticks": 397824,
          "time": 303.77570999999995,
          "velocity": 0.968503937007874
        },
        {
          "duration": 2.2221600000000308,
          "durationTicks": 3072,
          "midi": 60,
          "name": "C4",
          "ticks": 397824,
          "time": 303.77570999999995,
          "velocity": 0.968503937007874
        },
        {
          "duration": 0.2777699999999754,
          "durationTicks": 384,
          "midi": 57,
          "name": "A3",
          "ticks": 400896,
          "time": 305.99787,
          "velocity": 0.968503937007874
        },
        {
          "duration": 0.2777699999999754,
          "durationTicks": 384,
          "midi": 60,
          "name": "C4",
          "ticks": 400896,
          "time": 305.99787,
          "velocity": 0.968503937007874
        },
        {
          "duration": 0.13888500000001613,
          "durationTicks": 192,
          "midi": 48,
          "name": "C3",
          "ticks": 401856,
          "time": 306.69229499999994,
          "velocity": 0.968503937007874
        },
        {
          "duration": 0.13888500000001613,
          "durationTicks": 192,
          "midi": 60,
          "name": "C4",
          "ticks": 401856,
          "time": 306.69229499999994,
          "velocity": 0.968503937007874
        },
        {
          "duration": 0.13888500000001613,
          "durationTicks": 192,
          "midi": 48,
          "name": "C3",
          "ticks": 402048,
          "time": 306.83117999999996,
          "velocity": 0.968503937007874
        },
        {
          "duration": 0.13888500000001613,
          "durationTicks": 192,
          "midi": 60,
          "name": "C4",
          "ticks": 402048,
          "time": 306.83117999999996,
          "velocity": 0.968503937007874
        },
        {
          "duration": 0.13888500000001613,
          "durationTicks": 192,
          "midi": 48,
          "name": "C3",
          "ticks": 402240,
          "time": 306.970065,
          "velocity": 0.968503937007874
        },
        {
          "duration": 0.13888500000001613,
          "durationTicks": 192,
          "midi": 60,
          "name": "C4",
          "ticks": 402240,
          "time": 306.970065,
          "velocity": 0.968503937007874
        },
        {
          "duration": 0.2777699999999754,
          "durationTicks": 384,
          "midi": 51,
          "name": "D#3",
          "ticks": 402432,
          "time": 307.10895,
          "velocity": 0.968503937007874
        },
        {
          "duration": 0.2777699999999754,
          "durationTicks": 384,
          "midi": 63,
          "name": "D#4",
          "ticks": 402432,
          "time": 307.10895,
          "velocity": 0.968503937007874
        },
        {
          "duration": 1.1110800000000154,
          "durationTicks": 1536,
          "midi": 59,
          "name": "B3",
          "ticks": 405504,
          "time": 309.33110999999997,
          "velocity": 0.905511811023622
        },
        {
          "duration": 0.8333099999999831,
          "durationTicks": 1152,
          "midi": 68,
          "name": "G#4",
          "ticks": 405504,
          "time": 309.33110999999997,
          "velocity": 0.905511811023622
        },
        {
          "duration": 0.27777000000003227,
          "durationTicks": 384,
          "midi": 67,
          "name": "G4",
          "ticks": 406656,
          "time": 310.16441999999995,
          "velocity": 0.905511811023622
        },
        {
          "duration": 1.1110799999999585,
          "durationTicks": 1536,
          "midi": 59,
          "name": "B3",
          "ticks": 408576,
          "time": 311.55327,
          "velocity": 0.905511811023622
        },
        {
          "duration": 0.8333099999999831,
          "durationTicks": 1152,
          "midi": 68,
          "name": "G#4",
          "ticks": 408576,
          "time": 311.55327,
          "velocity": 0.905511811023622
        },
        {
          "duration": 0.2777699999999754,
          "durationTicks": 384,
          "midi": 67,
          "name": "G4",
          "ticks": 409728,
          "time": 312.38658,
          "velocity": 0.905511811023622
        },
        {
          "duration": 0.2777699999999754,
          "durationTicks": 384,
          "midi": 63,
          "name": "D#4",
          "ticks": 411648,
          "time": 313.77543,
          "velocity": 0.905511811023622
        },
        {
          "duration": 0.2777699999999754,
          "durationTicks": 384,
          "midi": 63,
          "name": "D#4",
          "ticks": 411648,
          "time": 313.77543,
          "velocity": 0.905511811023622
        },
        {
          "duration": 0.27777000000003227,
          "durationTicks": 384,
          "midi": 65,
          "name": "F4",
          "ticks": 412032,
          "time": 314.05319999999995,
          "velocity": 0.905511811023622
        },
        {
          "duration": 0.27777000000003227,
          "durationTicks": 384,
          "midi": 65,
          "name": "F4",
          "ticks": 412032,
          "time": 314.05319999999995,
          "velocity": 0.905511811023622
        },
        {
          "duration": 0.2777699999999754,
          "durationTicks": 384,
          "midi": 62,
          "name": "D4",
          "ticks": 412416,
          "time": 314.33097,
          "velocity": 0.905511811023622
        },
        {
          "duration": 0.2777699999999754,
          "durationTicks": 384,
          "midi": 62,
          "name": "D4",
          "ticks": 412416,
          "time": 314.33097,
          "velocity": 0.905511811023622
        },
        {
          "duration": 0.27777000000003227,
          "durationTicks": 384,
          "midi": 63,
          "name": "D#4",
          "ticks": 412800,
          "time": 314.60873999999995,
          "velocity": 0.905511811023622
        },
        {
          "duration": 0.27777000000003227,
          "durationTicks": 384,
          "midi": 63,
          "name": "D#4",
          "ticks": 412800,
          "time": 314.60873999999995,
          "velocity": 0.905511811023622
        },
        {
          "duration": 0.2777699999999754,
          "durationTicks": 384,
          "midi": 60,
          "name": "C4",
          "ticks": 413184,
          "time": 314.88651,
          "velocity": 0.905511811023622
        },
        {
          "duration": 0.2777699999999754,
          "durationTicks": 384,
          "midi": 60,
          "name": "C4",
          "ticks": 413184,
          "time": 314.88651,
          "velocity": 0.905511811023622
        },
        {
          "duration": 0.27777000000003227,
          "durationTicks": 384,
          "midi": 62,
          "name": "D4",
          "ticks": 413568,
          "time": 315.16427999999996,
          "velocity": 0.905511811023622
        },
        {
          "duration": 0.27777000000003227,
          "durationTicks": 384,
          "midi": 62,
          "name": "D4",
          "ticks": 413568,
          "time": 315.16427999999996,
          "velocity": 0.905511811023622
        },
        {
          "duration": 0.2777699999999754,
          "durationTicks": 384,
          "midi": 58,
          "name": "A#3",
          "ticks": 413952,
          "time": 315.44205,
          "velocity": 0.905511811023622
        },
        {
          "duration": 0.2777699999999754,
          "durationTicks": 384,
          "midi": 58,
          "name": "A#3",
          "ticks": 413952,
          "time": 315.44205,
          "velocity": 0.905511811023622
        },
        {
          "duration": 0.2777699999999754,
          "durationTicks": 384,
          "midi": 60,
          "name": "C4",
          "ticks": 414336,
          "time": 315.71981999999997,
          "velocity": 0.905511811023622
        },
        {
          "duration": 0.2777699999999754,
          "durationTicks": 384,
          "midi": 60,
          "name": "C4",
          "ticks": 414336,
          "time": 315.71981999999997,
          "velocity": 0.905511811023622
        },
        {
          "duration": 0.27777000000003227,
          "durationTicks": 384,
          "midi": 56,
          "name": "G#3",
          "ticks": 414720,
          "time": 315.99758999999995,
          "velocity": 0.905511811023622
        },
        {
          "duration": 0.27777000000003227,
          "durationTicks": 384,
          "midi": 56,
          "name": "G#3",
          "ticks": 414720,
          "time": 315.99758999999995,
          "velocity": 0.905511811023622
        },
        {
          "duration": 0.2777699999999754,
          "durationTicks": 384,
          "midi": 58,
          "name": "A#3",
          "ticks": 415104,
          "time": 316.27536,
          "velocity": 0.905511811023622
        },
        {
          "duration": 0.2777699999999754,
          "durationTicks": 384,
          "midi": 58,
          "name": "A#3",
          "ticks": 415104,
          "time": 316.27536,
          "velocity": 0.905511811023622
        },
        {
          "duration": 0.27777000000003227,
          "durationTicks": 384,
          "midi": 55,
          "name": "G3",
          "ticks": 415488,
          "time": 316.55312999999995,
          "velocity": 0.905511811023622
        },
        {
          "duration": 0.27777000000003227,
          "durationTicks": 384,
          "midi": 55,
          "name": "G3",
          "ticks": 415488,
          "time": 316.55312999999995,
          "velocity": 0.905511811023622
        },
        {
          "duration": 0.2777699999999754,
          "durationTicks": 384,
          "midi": 56,
          "name": "G#3",
          "ticks": 415872,
          "time": 316.8309,
          "velocity": 0.905511811023622
        },
        {
          "duration": 0.2777699999999754,
          "durationTicks": 384,
          "midi": 56,
          "name": "G#3",
          "ticks": 415872,
          "time": 316.8309,
          "velocity": 0.905511811023622
        },
        {
          "duration": 0.27777000000003227,
          "durationTicks": 384,
          "midi": 53,
          "name": "F3",
          "ticks": 416256,
          "time": 317.10866999999996,
          "velocity": 0.905511811023622
        },
        {
          "duration": 0.27777000000003227,
          "durationTicks": 384,
          "midi": 53,
          "name": "F3",
          "ticks": 416256,
          "time": 317.10866999999996,
          "velocity": 0.905511811023622
        },
        {
          "duration": 0.2777699999999754,
          "durationTicks": 384,
          "midi": 51,
          "name": "D#3",
          "ticks": 416640,
          "time": 317.38644,
          "velocity": 0.905511811023622
        },
        {
          "duration": 0.2777699999999754,
          "durationTicks": 384,
          "midi": 55,
          "name": "G3",
          "ticks": 416640,
          "time": 317.38644,
          "velocity": 0.905511811023622
        },
        {
          "duration": 0.2777699999999754,
          "durationTicks": 384,
          "midi": 50,
          "name": "D3",
          "ticks": 417024,
          "time": 317.66420999999997,
          "velocity": 0.905511811023622
        },
        {
          "duration": 0.2777699999999754,
          "durationTicks": 384,
          "midi": 55,
          "name": "G3",
          "ticks": 417024,
          "time": 317.66420999999997,
          "velocity": 0.905511811023622
        },
        {
          "duration": 0.27777000000003227,
          "durationTicks": 384,
          "midi": 51,
          "name": "D#3",
          "ticks": 417408,
          "time": 317.94197999999994,
          "velocity": 0.905511811023622
        },
        {
          "duration": 0.27777000000003227,
          "durationTicks": 384,
          "midi": 55,
          "name": "G3",
          "ticks": 417408,
          "time": 317.94197999999994,
          "velocity": 0.905511811023622
        },
        {
          "duration": 0.2777699999999754,
          "durationTicks": 384,
          "midi": 53,
          "name": "F3",
          "ticks": 417792,
          "time": 318.21975,
          "velocity": 0.905511811023622
        },
        {
          "duration": 0.2777699999999754,
          "durationTicks": 384,
          "midi": 55,
          "name": "G3",
          "ticks": 417792,
          "time": 318.21975,
          "velocity": 0.905511811023622
        },
        {
          "duration": 0.27777000000003227,
          "durationTicks": 384,
          "midi": 51,
          "name": "D#3",
          "ticks": 418176,
          "time": 318.49751999999995,
          "velocity": 0.905511811023622
        },
        {
          "duration": 0.27777000000003227,
          "durationTicks": 384,
          "midi": 55,
          "name": "G3",
          "ticks": 418176,
          "time": 318.49751999999995,
          "velocity": 0.905511811023622
        },
        {
          "duration": 0.2777699999999754,
          "durationTicks": 384,
          "midi": 53,
          "name": "F3",
          "ticks": 418560,
          "time": 318.77529,
          "velocity": 0.905511811023622
        },
        {
          "duration": 0.2777699999999754,
          "durationTicks": 384,
          "midi": 55,
          "name": "G3",
          "ticks": 418560,
          "time": 318.77529,
          "velocity": 0.905511811023622
        },
        {
          "duration": 0.27777000000003227,
          "durationTicks": 384,
          "midi": 55,
          "name": "G3",
          "ticks": 418944,
          "time": 319.05305999999996,
          "velocity": 0.905511811023622
        },
        {
          "duration": 0.27777000000003227,
          "durationTicks": 384,
          "midi": 60,
          "name": "C4",
          "ticks": 418944,
          "time": 319.05305999999996,
          "velocity": 0.905511811023622
        },
        {
          "duration": 0.2777699999999754,
          "durationTicks": 384,
          "midi": 56,
          "name": "G#3",
          "ticks": 419328,
          "time": 319.33083,
          "velocity": 0.905511811023622
        },
        {
          "duration": 0.2777699999999754,
          "durationTicks": 384,
          "midi": 60,
          "name": "C4",
          "ticks": 419328,
          "time": 319.33083,
          "velocity": 0.905511811023622
        },
        {
          "duration": 0.2777699999999754,
          "durationTicks": 384,
          "midi": 55,
          "name": "G3",
          "ticks": 419712,
          "time": 319.60859999999997,
          "velocity": 0.905511811023622
        },
        {
          "duration": 0.2777699999999754,
          "durationTicks": 384,
          "midi": 60,
          "name": "C4",
          "ticks": 419712,
          "time": 319.60859999999997,
          "velocity": 0.905511811023622
        },
        {
          "duration": 0.27777000000003227,
          "durationTicks": 384,
          "midi": 56,
          "name": "G#3",
          "ticks": 420096,
          "time": 319.88636999999994,
          "velocity": 0.905511811023622
        },
        {
          "duration": 0.27777000000003227,
          "durationTicks": 384,
          "midi": 60,
          "name": "C4",
          "ticks": 420096,
          "time": 319.88636999999994,
          "velocity": 0.905511811023622
        },
        {
          "duration": 0.2777699999999754,
          "durationTicks": 384,
          "midi": 47,
          "name": "B2",
          "ticks": 420480,
          "time": 320.16414,
          "velocity": 0.905511811023622
        },
        {
          "duration": 0.2777699999999754,
          "durationTicks": 384,
          "midi": 59,
          "name": "B3",
          "ticks": 420480,
          "time": 320.16414,
          "velocity": 0.905511811023622
        },
        {
          "duration": 0.27777000000003227,
          "durationTicks": 384,
          "midi": 48,
          "name": "C3",
          "ticks": 420864,
          "time": 320.44190999999995,
          "velocity": 0.905511811023622
        },
        {
          "duration": 0.27777000000003227,
          "durationTicks": 384,
          "midi": 60,
          "name": "C4",
          "ticks": 420864,
          "time": 320.44190999999995,
          "velocity": 0.905511811023622
        },
        {
          "duration": 0.2777699999999754,
          "durationTicks": 384,
          "midi": 47,
          "name": "B2",
          "ticks": 421248,
          "time": 320.71968,
          "velocity": 0.905511811023622
        },
        {
          "duration": 0.2777699999999754,
          "durationTicks": 384,
          "midi": 59,
          "name": "B3",
          "ticks": 421248,
          "time": 320.71968,
          "velocity": 0.905511811023622
        },
        {
          "duration": 0.27777000000003227,
          "durationTicks": 384,
          "midi": 48,
          "name": "C3",
          "ticks": 421632,
          "time": 320.99744999999996,
          "velocity": 0.905511811023622
        },
        {
          "duration": 0.27777000000003227,
          "durationTicks": 384,
          "midi": 60,
          "name": "C4",
          "ticks": 421632,
          "time": 320.99744999999996,
          "velocity": 0.905511811023622
        },
        {
          "duration": 0.2777699999999754,
          "durationTicks": 384,
          "midi": 50,
          "name": "D3",
          "ticks": 422016,
          "time": 321.27522,
          "velocity": 0.905511811023622
        },
        {
          "duration": 0.2777699999999754,
          "durationTicks": 384,
          "midi": 62,
          "name": "D4",
          "ticks": 422016,
          "time": 321.27522,
          "velocity": 0.905511811023622
        },
        {
          "duration": 1.1110800000000154,
          "durationTicks": 1536,
          "midi": 51,
          "name": "D#3",
          "ticks": 422400,
          "time": 321.55298999999997,
          "velocity": 0.905511811023622
        },
        {
          "duration": 1.1110800000000154,
          "durationTicks": 1536,
          "midi": 60,
          "name": "C4",
          "ticks": 422400,
          "time": 321.55298999999997,
          "velocity": 0.905511811023622
        },
        {
          "duration": 1.1110799999999585,
          "durationTicks": 1536,
          "midi": 53,
          "name": "F3",
          "ticks": 423936,
          "time": 322.66407,
          "velocity": 0.905511811023622
        },
        {
          "duration": 1.1110799999999585,
          "durationTicks": 1536,
          "midi": 60,
          "name": "C4",
          "ticks": 423936,
          "time": 322.66407,
          "velocity": 0.905511811023622
        },
        {
          "duration": 1.1110800000000154,
          "durationTicks": 1536,
          "midi": 55,
          "name": "G3",
          "ticks": 425472,
          "time": 323.77514999999994,
          "velocity": 0.905511811023622
        },
        {
          "duration": 1.1110800000000154,
          "durationTicks": 1536,
          "midi": 60,
          "name": "C4",
          "ticks": 425472,
          "time": 323.77514999999994,
          "velocity": 0.905511811023622
        },
        {
          "duration": 0.5555400000000077,
          "durationTicks": 768,
          "midi": 56,
          "name": "G#3",
          "ticks": 427008,
          "time": 324.88622999999995,
          "velocity": 0.905511811023622
        },
        {
          "duration": 1.1110800000000154,
          "durationTicks": 1536,
          "midi": 60,
          "name": "C4",
          "ticks": 427008,
          "time": 324.88622999999995,
          "velocity": 0.905511811023622
        },
        {
          "duration": 0.5555400000000077,
          "durationTicks": 768,
          "midi": 53,
          "name": "F3",
          "ticks": 427776,
          "time": 325.44176999999996,
          "velocity": 0.905511811023622
        },
        {
          "duration": 0.5555400000000077,
          "durationTicks": 768,
          "midi": 53,
          "name": "F3",
          "ticks": 428544,
          "time": 325.99730999999997,
          "velocity": 0.905511811023622
        },
        {
          "duration": 0.5555400000000077,
          "durationTicks": 768,
          "midi": 59,
          "name": "B3",
          "ticks": 428544,
          "time": 325.99730999999997,
          "velocity": 0.905511811023622
        },
        {
          "duration": 0.5555400000000077,
          "durationTicks": 768,
          "midi": 55,
          "name": "G3",
          "ticks": 429312,
          "time": 326.55285,
          "velocity": 0.905511811023622
        },
        {
          "duration": 0.5555400000000077,
          "durationTicks": 768,
          "midi": 59,
          "name": "B3",
          "ticks": 429312,
          "time": 326.55285,
          "velocity": 0.905511811023622
        },
        {
          "duration": 0.2777699999999754,
          "durationTicks": 384,
          "midi": 55,
          "name": "G3",
          "ticks": 430080,
          "time": 327.10839,
          "velocity": 0.905511811023622
        },
        {
          "duration": 0.2777699999999754,
          "durationTicks": 384,
          "midi": 60,
          "name": "C4",
          "ticks": 430080,
          "time": 327.10839,
          "velocity": 0.905511811023622
        },
        {
          "duration": 0.2777699999999754,
          "durationTicks": 384,
          "midi": 56,
          "name": "G#3",
          "ticks": 430848,
          "time": 327.66393,
          "velocity": 0.905511811023622
        },
        {
          "duration": 0.2777699999999754,
          "durationTicks": 384,
          "midi": 60,
          "name": "C4",
          "ticks": 430848,
          "time": 327.66393,
          "velocity": 0.905511811023622
        },
        {
          "duration": 0.2777699999999754,
          "durationTicks": 384,
          "midi": 56,
          "name": "G#3",
          "ticks": 431616,
          "time": 328.21947,
          "velocity": 0.905511811023622
        },
        {
          "duration": 0.2777699999999754,
          "durationTicks": 384,
          "midi": 60,
          "name": "C4",
          "ticks": 431616,
          "time": 328.21947,
          "velocity": 0.905511811023622
        },
        {
          "duration": 0.27777000000003227,
          "durationTicks": 384,
          "midi": 60,
          "name": "C4",
          "ticks": 432384,
          "time": 328.77500999999995,
          "velocity": 0.905511811023622
        },
        {
          "duration": 0.27777000000003227,
          "durationTicks": 384,
          "midi": 62,
          "name": "D4",
          "ticks": 432384,
          "time": 328.77500999999995,
          "velocity": 0.905511811023622
        },
        {
          "duration": 0.27777000000003227,
          "durationTicks": 384,
          "midi": 60,
          "name": "C4",
          "ticks": 433152,
          "time": 329.33054999999996,
          "velocity": 0.905511811023622
        },
        {
          "duration": 0.27777000000003227,
          "durationTicks": 384,
          "midi": 62,
          "name": "D4",
          "ticks": 433152,
          "time": 329.33054999999996,
          "velocity": 0.905511811023622
        },
        {
          "duration": 0.27777000000003227,
          "durationTicks": 384,
          "midi": 59,
          "name": "B3",
          "ticks": 433920,
          "time": 329.88608999999997,
          "velocity": 0.905511811023622
        },
        {
          "duration": 0.27777000000003227,
          "durationTicks": 384,
          "midi": 62,
          "name": "D4",
          "ticks": 433920,
          "time": 329.88608999999997,
          "velocity": 0.905511811023622
        },
        {
          "duration": 0.5555400000000077,
          "durationTicks": 768,
          "midi": 60,
          "name": "C4",
          "ticks": 434688,
          "time": 330.44163,
          "velocity": 0.968503937007874
        },
        {
          "duration": 0.5555400000000077,
          "durationTicks": 768,
          "midi": 60,
          "name": "C4",
          "ticks": 434688,
          "time": 330.44163,
          "velocity": 0.968503937007874
        },
        {
          "duration": 0.2777699999999754,
          "durationTicks": 384,
          "midi": 62,
          "name": "D4",
          "ticks": 435456,
          "time": 330.99717,
          "velocity": 0.968503937007874
        },
        {
          "duration": 0.2777699999999754,
          "durationTicks": 384,
          "midi": 62,
          "name": "D4",
          "ticks": 435456,
          "time": 330.99717,
          "velocity": 0.968503937007874
        },
        {
          "duration": 0.27777000000003227,
          "durationTicks": 384,
          "midi": 63,
          "name": "D#4",
          "ticks": 435840,
          "time": 331.27493999999996,
          "velocity": 0.968503937007874
        },
        {
          "duration": 0.27777000000003227,
          "durationTicks": 384,
          "midi": 63,
          "name": "D#4",
          "ticks": 435840,
          "time": 331.27493999999996,
          "velocity": 0.968503937007874
        },
        {
          "duration": 0.2777699999999754,
          "durationTicks": 384,
          "midi": 65,
          "name": "F4",
          "ticks": 436224,
          "time": 331.55271,
          "velocity": 0.968503937007874
        },
        {
          "duration": 0.2777699999999754,
          "durationTicks": 384,
          "midi": 65,
          "name": "F4",
          "ticks": 436224,
          "time": 331.55271,
          "velocity": 0.968503937007874
        },
        {
          "duration": 0.27777000000003227,
          "durationTicks": 384,
          "midi": 62,
          "name": "D4",
          "ticks": 436608,
          "time": 331.83047999999997,
          "velocity": 0.968503937007874
        },
        {
          "duration": 0.27777000000003227,
          "durationTicks": 384,
          "midi": 62,
          "name": "D4",
          "ticks": 436608,
          "time": 331.83047999999997,
          "velocity": 0.968503937007874
        },
        {
          "duration": 0.27777000000003227,
          "durationTicks": 384,
          "midi": 65,
          "name": "F4",
          "ticks": 438528,
          "time": 333.21932999999996,
          "velocity": 0.968503937007874
        },
        {
          "duration": 0.27777000000003227,
          "durationTicks": 384,
          "midi": 65,
          "name": "F4",
          "ticks": 438528,
          "time": 333.21932999999996,
          "velocity": 0.968503937007874
        },
        {
          "duration": 0.2777699999999754,
          "durationTicks": 384,
          "midi": 67,
          "name": "G4",
          "ticks": 438912,
          "time": 333.4971,
          "velocity": 0.968503937007874
        },
        {
          "duration": 0.2777699999999754,
          "durationTicks": 384,
          "midi": 67,
          "name": "G4",
          "ticks": 438912,
          "time": 333.4971,
          "velocity": 0.968503937007874
        },
        {
          "duration": 0.27777000000003227,
          "durationTicks": 384,
          "midi": 68,
          "name": "G#4",
          "ticks": 439296,
          "time": 333.77486999999996,
          "velocity": 0.968503937007874
        },
        {
          "duration": 0.27777000000003227,
          "durationTicks": 384,
          "midi": 68,
          "name": "G#4",
          "ticks": 439296,
          "time": 333.77486999999996,
          "velocity": 0.968503937007874
        },
        {
          "duration": 0.2777699999999754,
          "durationTicks": 384,
          "midi": 65,
          "name": "F4",
          "ticks": 439680,
          "time": 334.05264,
          "velocity": 0.968503937007874
        },
        {
          "duration": 0.2777699999999754,
          "durationTicks": 384,
          "midi": 65,
          "name": "F4",
          "ticks": 439680,
          "time": 334.05264,
          "velocity": 0.968503937007874
        },
        {
          "duration": 0.2777699999999754,
          "durationTicks": 384,
          "midi": 57,
          "name": "A3",
          "ticks": 441600,
          "time": 335.44149,
          "velocity": 0.968503937007874
        },
        {
          "duration": 0.2777699999999754,
          "durationTicks": 384,
          "midi": 60,
          "name": "C4",
          "ticks": 441600,
          "time": 335.44149,
          "velocity": 0.968503937007874
        },
        {
          "duration": 0.27777000000003227,
          "durationTicks": 384,
          "midi": 59,
          "name": "B3",
          "ticks": 441984,
          "time": 335.71925999999996,
          "velocity": 0.968503937007874
        },
        {
          "duration": 0.27777000000003227,
          "durationTicks": 384,
          "midi": 62,
          "name": "D4",
          "ticks": 441984,
          "time": 335.71925999999996,
          "velocity": 0.968503937007874
        },
        {
          "duration": 0.2777699999999754,
          "durationTicks": 384,
          "midi": 60,
          "name": "C4",
          "ticks": 442368,
          "time": 335.99703,
          "velocity": 0.968503937007874
        },
        {
          "duration": 0.2777699999999754,
          "durationTicks": 384,
          "midi": 63,
          "name": "D#4",
          "ticks": 442368,
          "time": 335.99703,
          "velocity": 0.968503937007874
        },
        {
          "duration": 0.2777699999999754,
          "durationTicks": 384,
          "midi": 55,
          "name": "G3",
          "ticks": 442752,
          "time": 336.27479999999997,
          "velocity": 0.968503937007874
        },
        {
          "duration": 0.2777699999999754,
          "durationTicks": 384,
          "midi": 60,
          "name": "C4",
          "ticks": 442752,
          "time": 336.27479999999997,
          "velocity": 0.968503937007874
        },
        {
          "duration": 0.27777000000003227,
          "durationTicks": 384,
          "midi": 57,
          "name": "A3",
          "ticks": 444672,
          "time": 337.66364999999996,
          "velocity": 0.968503937007874
        },
        {
          "duration": 0.27777000000003227,
          "durationTicks": 384,
          "midi": 60,
          "name": "C4",
          "ticks": 444672,
          "time": 337.66364999999996,
          "velocity": 0.968503937007874
        },
        {
          "duration": 0.2777699999999754,
          "durationTicks": 384,
          "midi": 59,
          "name": "B3",
          "ticks": 445056,
          "time": 337.94142,
          "velocity": 0.968503937007874
        },
        {
          "duration": 0.2777699999999754,
          "durationTicks": 384,
          "midi": 62,
          "name": "D4",
          "ticks": 445056,
          "time": 337.94142,
          "velocity": 0.968503937007874
        },
        {
          "duration": 0.2777699999999754,
          "durationTicks": 384,
          "midi": 60,
          "name": "C4",
          "ticks": 445440,
          "time": 338.21918999999997,
          "velocity": 0.968503937007874
        },
        {
          "duration": 0.2777699999999754,
          "durationTicks": 384,
          "midi": 63,
          "name": "D#4",
          "ticks": 445440,
          "time": 338.21918999999997,
          "velocity": 0.968503937007874
        },
        {
          "duration": 0.27777000000003227,
          "durationTicks": 384,
          "midi": 58,
          "name": "A#3",
          "ticks": 445824,
          "time": 338.49695999999994,
          "velocity": 0.968503937007874
        },
        {
          "duration": 0.27777000000003227,
          "durationTicks": 384,
          "midi": 62,
          "name": "D4",
          "ticks": 445824,
          "time": 338.49695999999994,
          "velocity": 0.968503937007874
        },
        {
          "duration": 0.2777699999999754,
          "durationTicks": 384,
          "midi": 56,
          "name": "G#3",
          "ticks": 446208,
          "time": 338.77473,
          "velocity": 0.968503937007874
        },
        {
          "duration": 0.2777699999999754,
          "durationTicks": 384,
          "midi": 60,
          "name": "C4",
          "ticks": 446208,
          "time": 338.77473,
          "velocity": 0.968503937007874
        },
        {
          "duration": 0.27777000000003227,
          "durationTicks": 384,
          "midi": 55,
          "name": "G3",
          "ticks": 446592,
          "time": 339.05249999999995,
          "velocity": 0.968503937007874
        },
        {
          "duration": 0.27777000000003227,
          "durationTicks": 384,
          "midi": 58,
          "name": "A#3",
          "ticks": 446592,
          "time": 339.05249999999995,
          "velocity": 0.968503937007874
        },
        {
          "duration": 0.2777699999999754,
          "durationTicks": 384,
          "midi": 53,
          "name": "F3",
          "ticks": 446976,
          "time": 339.33027,
          "velocity": 0.968503937007874
        },
        {
          "duration": 0.2777699999999754,
          "durationTicks": 384,
          "midi": 56,
          "name": "G#3",
          "ticks": 446976,
          "time": 339.33027,
          "velocity": 0.968503937007874
        },
        {
          "duration": 0.27777000000003227,
          "durationTicks": 384,
          "midi": 51,
          "name": "D#3",
          "ticks": 447360,
          "time": 339.60803999999996,
          "velocity": 0.968503937007874
        },
        {
          "duration": 0.27777000000003227,
          "durationTicks": 384,
          "midi": 55,
          "name": "G3",
          "ticks": 447360,
          "time": 339.60803999999996,
          "velocity": 0.968503937007874
        },
        {
          "duration": 0.27777000000003227,
          "durationTicks": 384,
          "midi": 48,
          "name": "C3",
          "ticks": 448512,
          "time": 340.44134999999994,
          "velocity": 0.968503937007874
        },
        {
          "duration": 0.27777000000003227,
          "durationTicks": 384,
          "midi": 60,
          "name": "C4",
          "ticks": 448512,
          "time": 340.44134999999994,
          "velocity": 0.968503937007874
        },
        {
          "duration": 0.2777699999999754,
          "durationTicks": 384,
          "midi": 48,
          "name": "C3",
          "ticks": 448896,
          "time": 340.71912,
          "velocity": 0.968503937007874
        },
        {
          "duration": 0.2777699999999754,
          "durationTicks": 384,
          "midi": 60,
          "name": "C4",
          "ticks": 448896,
          "time": 340.71912,
          "velocity": 0.968503937007874
        },
        {
          "duration": 0.27777000000003227,
          "durationTicks": 384,
          "midi": 65,
          "name": "F4",
          "ticks": 449280,
          "time": 340.99688999999995,
          "velocity": 0.968503937007874
        },
        {
          "duration": 0.27777000000003227,
          "durationTicks": 384,
          "midi": 68,
          "name": "G#4",
          "ticks": 449280,
          "time": 340.99688999999995,
          "velocity": 0.968503937007874
        },
        {
          "duration": 0.2777699999999754,
          "durationTicks": 384,
          "midi": 63,
          "name": "D#4",
          "ticks": 449664,
          "time": 341.27466,
          "velocity": 0.968503937007874
        },
        {
          "duration": 0.2777699999999754,
          "durationTicks": 384,
          "midi": 67,
          "name": "G4",
          "ticks": 449664,
          "time": 341.27466,
          "velocity": 0.968503937007874
        },
        {
          "duration": 0.2777699999999754,
          "durationTicks": 384,
          "midi": 60,
          "name": "C4",
          "ticks": 450432,
          "time": 341.8302,
          "velocity": 0.968503937007874
        },
        {
          "duration": 0.2777699999999754,
          "durationTicks": 384,
          "midi": 63,
          "name": "D#4",
          "ticks": 450432,
          "time": 341.8302,
          "velocity": 0.968503937007874
        },
        {
          "duration": 0.27777000000003227,
          "durationTicks": 384,
          "midi": 59,
          "name": "B3",
          "ticks": 451200,
          "time": 342.38573999999994,
          "velocity": 0.968503937007874
        },
        {
          "duration": 0.27777000000003227,
          "durationTicks": 384,
          "midi": 67,
          "name": "G4",
          "ticks": 451200,
          "time": 342.38573999999994,
          "velocity": 0.968503937007874
        },
        {
          "duration": 0.27777000000003227,
          "durationTicks": 384,
          "midi": 48,
          "name": "C3",
          "ticks": 453888,
          "time": 344.33012999999994,
          "velocity": 0.968503937007874
        },
        {
          "duration": 0.27777000000003227,
          "durationTicks": 384,
          "midi": 60,
          "name": "C4",
          "ticks": 453888,
          "time": 344.33012999999994,
          "velocity": 0.968503937007874
        },
        {
          "duration": 0.27777000000003227,
          "durationTicks": 384,
          "midi": 48,
          "name": "C3",
          "ticks": 454272,
          "time": 344.6079,
          "velocity": 0.968503937007874
        },
        {
          "duration": 0.27777000000003227,
          "durationTicks": 384,
          "midi": 60,
          "name": "C4",
          "ticks": 454272,
          "time": 344.6079,
          "velocity": 0.968503937007874
        },
        {
          "duration": 0.27777000000003227,
          "durationTicks": 384,
          "midi": 53,
          "name": "F3",
          "ticks": 455424,
          "time": 345.44120999999996,
          "velocity": 0.968503937007874
        },
        {
          "duration": 0.27777000000003227,
          "durationTicks": 384,
          "midi": 56,
          "name": "G#3",
          "ticks": 455424,
          "time": 345.44120999999996,
          "velocity": 0.968503937007874
        },
        {
          "duration": 0.2777699999999754,
          "durationTicks": 384,
          "midi": 51,
          "name": "D#3",
          "ticks": 455808,
          "time": 345.71898,
          "velocity": 0.968503937007874
        },
        {
          "duration": 0.2777699999999754,
          "durationTicks": 384,
          "midi": 55,
          "name": "G3",
          "ticks": 455808,
          "time": 345.71898,
          "velocity": 0.968503937007874
        },
        {
          "duration": 0.27777000000003227,
          "durationTicks": 384,
          "midi": 63,
          "name": "D#4",
          "ticks": 456576,
          "time": 346.27451999999994,
          "velocity": 0.968503937007874
        },
        {
          "duration": 0.27777000000003227,
          "durationTicks": 384,
          "midi": 67,
          "name": "G4",
          "ticks": 456576,
          "time": 346.27451999999994,
          "velocity": 0.968503937007874
        },
        {
          "duration": 0.2777699999999754,
          "durationTicks": 384,
          "midi": 62,
          "name": "D4",
          "ticks": 457344,
          "time": 346.83006,
          "velocity": 0.968503937007874
        },
        {
          "duration": 0.2777699999999754,
          "durationTicks": 384,
          "midi": 67,
          "name": "G4",
          "ticks": 457344,
          "time": 346.83006,
          "velocity": 0.968503937007874
        },
        {
          "duration": 0.2777699999999754,
          "durationTicks": 384,
          "midi": 60,
          "name": "C4",
          "ticks": 457728,
          "time": 347.10783,
          "velocity": 0.968503937007874
        },
        {
          "duration": 0.2777699999999754,
          "durationTicks": 384,
          "midi": 60,
          "name": "C4",
          "ticks": 457728,
          "time": 347.10783,
          "velocity": 0.968503937007874
        },
        {
          "duration": 0.13888500000001613,
          "durationTicks": 192,
          "midi": 59,
          "name": "B3",
          "ticks": 458688,
          "time": 347.80225499999995,
          "velocity": 0.968503937007874
        },
        {
          "duration": 0.13888500000001613,
          "durationTicks": 192,
          "midi": 62,
          "name": "D4",
          "ticks": 458688,
          "time": 347.80225499999995,
          "velocity": 0.968503937007874
        },
        {
          "duration": 0.13888500000001613,
          "durationTicks": 192,
          "midi": 59,
          "name": "B3",
          "ticks": 458880,
          "time": 347.94113999999996,
          "velocity": 0.968503937007874
        },
        {
          "duration": 0.13888500000001613,
          "durationTicks": 192,
          "midi": 62,
          "name": "D4",
          "ticks": 458880,
          "time": 347.94113999999996,
          "velocity": 0.968503937007874
        },
        {
          "duration": 0.1388849999999593,
          "durationTicks": 192,
          "midi": 59,
          "name": "B3",
          "ticks": 459072,
          "time": 348.080025,
          "velocity": 0.968503937007874
        },
        {
          "duration": 0.1388849999999593,
          "durationTicks": 192,
          "midi": 62,
          "name": "D4",
          "ticks": 459072,
          "time": 348.080025,
          "velocity": 0.968503937007874
        },
        {
          "duration": 0.83331000000004,
          "durationTicks": 1152,
          "midi": 59,
          "name": "B3",
          "ticks": 459264,
          "time": 348.21890999999994,
          "velocity": 0.968503937007874
        },
        {
          "duration": 0.83331000000004,
          "durationTicks": 1152,
          "midi": 62,
          "name": "D4",
          "ticks": 459264,
          "time": 348.21890999999994,
          "velocity": 0.968503937007874
        },
        {
          "duration": 0.2777699999999754,
          "durationTicks": 384,
          "midi": 60,
          "name": "C4",
          "ticks": 460416,
          "time": 349.05222,
          "velocity": 0.968503937007874
        },
        {
          "duration": 0.2777699999999754,
          "durationTicks": 384,
          "midi": 63,
          "name": "D#4",
          "ticks": 460416,
          "time": 349.05222,
          "velocity": 0.968503937007874
        },
        {
          "duration": 0.27777000000003227,
          "durationTicks": 384,
          "midi": 62,
          "name": "D4",
          "ticks": 460800,
          "time": 349.32998999999995,
          "velocity": 0.968503937007874
        },
        {
          "duration": 0.27777000000003227,
          "durationTicks": 384,
          "midi": 65,
          "name": "F4",
          "ticks": 460800,
          "time": 349.32998999999995,
          "velocity": 0.968503937007874
        },
        {
          "duration": 0.2777699999999754,
          "durationTicks": 384,
          "midi": 59,
          "name": "B3",
          "ticks": 461184,
          "time": 349.60776,
          "velocity": 0.968503937007874
        },
        {
          "duration": 0.2777699999999754,
          "durationTicks": 384,
          "midi": 62,
          "name": "D4",
          "ticks": 461184,
          "time": 349.60776,
          "velocity": 0.968503937007874
        },
        {
          "duration": 0.27777000000003227,
          "durationTicks": 384,
          "midi": 60,
          "name": "C4",
          "ticks": 461568,
          "time": 349.88552999999996,
          "velocity": 0.968503937007874
        },
        {
          "duration": 0.27777000000003227,
          "durationTicks": 384,
          "midi": 63,
          "name": "D#4",
          "ticks": 461568,
          "time": 349.88552999999996,
          "velocity": 0.968503937007874
        },
        {
          "duration": 0.2777699999999754,
          "durationTicks": 384,
          "midi": 62,
          "name": "D4",
          "ticks": 461952,
          "time": 350.1633,
          "velocity": 0.968503937007874
        },
        {
          "duration": 0.2777699999999754,
          "durationTicks": 384,
          "midi": 65,
          "name": "F4",
          "ticks": 461952,
          "time": 350.1633,
          "velocity": 0.968503937007874
        },
        {
          "duration": 0.27777000000003227,
          "durationTicks": 384,
          "midi": 60,
          "name": "C4",
          "ticks": 462336,
          "time": 350.44106999999997,
          "velocity": 0.968503937007874
        },
        {
          "duration": 0.27777000000003227,
          "durationTicks": 384,
          "midi": 63,
          "name": "D#4",
          "ticks": 462336,
          "time": 350.44106999999997,
          "velocity": 0.968503937007874
        },
        {
          "duration": 0.1388849999999593,
          "durationTicks": 192,
          "midi": 55,
          "name": "G3",
          "ticks": 463296,
          "time": 351.135495,
          "velocity": 0.968503937007874
        },
        {
          "duration": 0.1388849999999593,
          "durationTicks": 192,
          "midi": 67,
          "name": "G4",
          "ticks": 463296,
          "time": 351.135495,
          "velocity": 0.968503937007874
        },
        {
          "duration": 0.13888500000001613,
          "durationTicks": 192,
          "midi": 55,
          "name": "G3",
          "ticks": 463488,
          "time": 351.27437999999995,
          "velocity": 0.968503937007874
        },
        {
          "duration": 0.13888500000001613,
          "durationTicks": 192,
          "midi": 67,
          "name": "G4",
          "ticks": 463488,
          "time": 351.27437999999995,
          "velocity": 0.968503937007874
        },
        {
          "duration": 0.13888500000001613,
          "durationTicks": 192,
          "midi": 55,
          "name": "G3",
          "ticks": 463680,
          "time": 351.41326499999997,
          "velocity": 0.968503937007874
        },
        {
          "duration": 0.13888500000001613,
          "durationTicks": 192,
          "midi": 67,
          "name": "G4",
          "ticks": 463680,
          "time": 351.41326499999997,
          "velocity": 0.968503937007874
        },
        {
          "duration": 0.1388849999999593,
          "durationTicks": 192,
          "midi": 55,
          "name": "G3",
          "ticks": 463872,
          "time": 351.55215,
          "velocity": 0.968503937007874
        },
        {
          "duration": 0.1388849999999593,
          "durationTicks": 192,
          "midi": 67,
          "name": "G4",
          "ticks": 463872,
          "time": 351.55215,
          "velocity": 0.968503937007874
        },
        {
          "duration": 0.13888500000001613,
          "durationTicks": 192,
          "midi": 55,
          "name": "G3",
          "ticks": 464064,
          "time": 351.69103499999994,
          "velocity": 0.968503937007874
        },
        {
          "duration": 0.13888500000001613,
          "durationTicks": 192,
          "midi": 67,
          "name": "G4",
          "ticks": 464064,
          "time": 351.69103499999994,
          "velocity": 0.968503937007874
        },
        {
          "duration": 0.13888500000001613,
          "durationTicks": 192,
          "midi": 55,
          "name": "G3",
          "ticks": 464256,
          "time": 351.82991999999996,
          "velocity": 0.968503937007874
        },
        {
          "duration": 0.13888500000001613,
          "durationTicks": 192,
          "midi": 67,
          "name": "G4",
          "ticks": 464256,
          "time": 351.82991999999996,
          "velocity": 0.968503937007874
        },
        {
          "duration": 0.13888500000001613,
          "durationTicks": 192,
          "midi": 55,
          "name": "G3",
          "ticks": 464448,
          "time": 351.968805,
          "velocity": 0.968503937007874
        },
        {
          "duration": 0.13888500000001613,
          "durationTicks": 192,
          "midi": 67,
          "name": "G4",
          "ticks": 464448,
          "time": 351.968805,
          "velocity": 0.968503937007874
        },
        {
          "duration": 0.13888500000001613,
          "durationTicks": 192,
          "midi": 55,
          "name": "G3",
          "ticks": 464640,
          "time": 352.10769,
          "velocity": 0.968503937007874
        },
        {
          "duration": 0.13888500000001613,
          "durationTicks": 192,
          "midi": 67,
          "name": "G4",
          "ticks": 464640,
          "time": 352.10769,
          "velocity": 0.968503937007874
        },
        {
          "duration": 0.1388849999999593,
          "durationTicks": 192,
          "midi": 55,
          "name": "G3",
          "ticks": 464832,
          "time": 352.246575,
          "velocity": 0.968503937007874
        },
        {
          "duration": 0.1388849999999593,
          "durationTicks": 192,
          "midi": 67,
          "name": "G4",
          "ticks": 464832,
          "time": 352.246575,
          "velocity": 0.968503937007874
        },
        {
          "duration": 0.13888500000001613,
          "durationTicks": 192,
          "midi": 55,
          "name": "G3",
          "ticks": 465024,
          "time": 352.38545999999997,
          "velocity": 0.968503937007874
        },
        {
          "duration": 0.13888500000001613,
          "durationTicks": 192,
          "midi": 67,
          "name": "G4",
          "ticks": 465024,
          "time": 352.38545999999997,
          "velocity": 0.968503937007874
        },
        {
          "duration": 0.13888500000001613,
          "durationTicks": 192,
          "midi": 55,
          "name": "G3",
          "ticks": 465216,
          "time": 352.524345,
          "velocity": 0.968503937007874
        },
        {
          "duration": 0.13888500000001613,
          "durationTicks": 192,
          "midi": 67,
          "name": "G4",
          "ticks": 465216,
          "time": 352.524345,
          "velocity": 0.968503937007874
        },
        {
          "duration": 1.0908999999999764,
          "durationTicks": 768,
          "midi": 51,
          "name": "D#3",
          "ticks": 465408,
          "time": 352.66323,
          "velocity": 0.968503937007874
        },
        {
          "duration": 1.0908999999999764,
          "durationTicks": 768,
          "midi": 63,
          "name": "D#4",
          "ticks": 465408,
          "time": 352.66323,
          "velocity": 0.968503937007874
        },
        {
          "duration": 0.1388849999999593,
          "durationTicks": 192,
          "midi": 53,
          "name": "F3",
          "ticks": 466368,
          "time": 353.893015,
          "velocity": 0.968503937007874
        },
        {
          "duration": 0.1388849999999593,
          "durationTicks": 192,
          "midi": 65,
          "name": "F4",
          "ticks": 466368,
          "time": 353.893015,
          "velocity": 0.968503937007874
        },
        {
          "duration": 0.13888500000001613,
          "durationTicks": 192,
          "midi": 53,
          "name": "F3",
          "ticks": 466560,
          "time": 354.03189999999995,
          "velocity": 0.968503937007874
        },
        {
          "duration": 0.13888500000001613,
          "durationTicks": 192,
          "midi": 65,
          "name": "F4",
          "ticks": 466560,
          "time": 354.03189999999995,
          "velocity": 0.968503937007874
        },
        {
          "duration": 0.13888500000001613,
          "durationTicks": 192,
          "midi": 53,
          "name": "F3",
          "ticks": 466752,
          "time": 354.17078499999997,
          "velocity": 0.968503937007874
        },
        {
          "duration": 0.13888500000001613,
          "durationTicks": 192,
          "midi": 65,
          "name": "F4",
          "ticks": 466752,
          "time": 354.17078499999997,
          "velocity": 0.968503937007874
        },
        {
          "duration": 1.7555399999999963,
          "durationTicks": 1536,
          "midi": 50,
          "name": "D3",
          "ticks": 466944,
          "time": 354.30967,
          "velocity": 0.968503937007874
        },
        {
          "duration": 1.7555399999999963,
          "durationTicks": 1536,
          "midi": 62,
          "name": "D4",
          "ticks": 466944,
          "time": 354.30967,
          "velocity": 0.968503937007874
        },
        {
          "duration": 0.2830099999999902,
          "durationTicks": 384,
          "midi": 56,
          "name": "G#3",
          "ticks": 469632,
          "time": 356.91424,
          "velocity": 0.7165354330708661
        },
        {
          "duration": 0.2830099999999902,
          "durationTicks": 384,
          "midi": 56,
          "name": "G#3",
          "ticks": 469632,
          "time": 356.91424,
          "velocity": 0.7165354330708661
        },
        {
          "duration": 0.2830099999999902,
          "durationTicks": 384,
          "midi": 55,
          "name": "G3",
          "ticks": 470016,
          "time": 357.19725,
          "velocity": 0.7165354330708661
        },
        {
          "duration": 0.2830099999999902,
          "durationTicks": 384,
          "midi": 55,
          "name": "G3",
          "ticks": 470016,
          "time": 357.19725,
          "velocity": 0.7165354330708661
        },
        {
          "duration": 0.2830099999999902,
          "durationTicks": 384,
          "midi": 63,
          "name": "D#4",
          "ticks": 470400,
          "time": 357.48026,
          "velocity": 0.7165354330708661
        },
        {
          "duration": 0.2830099999999902,
          "durationTicks": 384,
          "midi": 63,
          "name": "D#4",
          "ticks": 470400,
          "time": 357.48026,
          "velocity": 0.7165354330708661
        },
        {
          "duration": 0.8490300000000275,
          "durationTicks": 1152,
          "midi": 60,
          "name": "C4",
          "ticks": 470784,
          "time": 357.76327,
          "velocity": 0.7165354330708661
        },
        {
          "duration": 0.8490300000000275,
          "durationTicks": 1152,
          "midi": 60,
          "name": "C4",
          "ticks": 470784,
          "time": 357.76327,
          "velocity": 0.7165354330708661
        },
        {
          "duration": 0.2830099999999902,
          "durationTicks": 384,
          "midi": 56,
          "name": "G#3",
          "ticks": 472704,
          "time": 359.17832,
          "velocity": 0.7165354330708661
        },
        {
          "duration": 0.2830099999999902,
          "durationTicks": 384,
          "midi": 56,
          "name": "G#3",
          "ticks": 472704,
          "time": 359.17832,
          "velocity": 0.7165354330708661
        },
        {
          "duration": 0.2830099999999902,
          "durationTicks": 384,
          "midi": 55,
          "name": "G3",
          "ticks": 473088,
          "time": 359.46133,
          "velocity": 0.7165354330708661
        },
        {
          "duration": 0.2830099999999902,
          "durationTicks": 384,
          "midi": 55,
          "name": "G3",
          "ticks": 473088,
          "time": 359.46133,
          "velocity": 0.7165354330708661
        },
        {
          "duration": 0.2830099999999902,
          "durationTicks": 384,
          "midi": 63,
          "name": "D#4",
          "ticks": 473472,
          "time": 359.74433999999997,
          "velocity": 0.7165354330708661
        },
        {
          "duration": 0.2830099999999902,
          "durationTicks": 384,
          "midi": 63,
          "name": "D#4",
          "ticks": 473472,
          "time": 359.74433999999997,
          "velocity": 0.7165354330708661
        },
        {
          "duration": 0.7075250000000324,
          "durationTicks": 960,
          "midi": 60,
          "name": "C4",
          "ticks": 473856,
          "time": 360.02734999999996,
          "velocity": 0.7165354330708661
        },
        {
          "duration": 0.7075250000000324,
          "durationTicks": 960,
          "midi": 60,
          "name": "C4",
          "ticks": 473856,
          "time": 360.02734999999996,
          "velocity": 0.7165354330708661
        },
        {
          "duration": 0.1415049999999951,
          "durationTicks": 192,
          "midi": 59,
          "name": "B3",
          "ticks": 474816,
          "time": 360.734875,
          "velocity": 0.968503937007874
        },
        {
          "duration": 0.1415049999999951,
          "durationTicks": 192,
          "midi": 62,
          "name": "D4",
          "ticks": 474816,
          "time": 360.734875,
          "velocity": 0.968503937007874
        },
        {
          "duration": 0.1415049999999951,
          "durationTicks": 192,
          "midi": 59,
          "name": "B3",
          "ticks": 475008,
          "time": 360.87638,
          "velocity": 0.968503937007874
        },
        {
          "duration": 0.1415049999999951,
          "durationTicks": 192,
          "midi": 62,
          "name": "D4",
          "ticks": 475008,
          "time": 360.87638,
          "velocity": 0.968503937007874
        },
        {
          "duration": 0.1415049999999951,
          "durationTicks": 192,
          "midi": 59,
          "name": "B3",
          "ticks": 475200,
          "time": 361.017885,
          "velocity": 0.968503937007874
        },
        {
          "duration": 0.1415049999999951,
          "durationTicks": 192,
          "midi": 62,
          "name": "D4",
          "ticks": 475200,
          "time": 361.017885,
          "velocity": 0.968503937007874
        },
        {
          "duration": 0.2830099999999902,
          "durationTicks": 384,
          "midi": 60,
          "name": "C4",
          "ticks": 475392,
          "time": 361.15939,
          "velocity": 0.968503937007874
        },
        {
          "duration": 0.2830099999999902,
          "durationTicks": 384,
          "midi": 63,
          "name": "D#4",
          "ticks": 475392,
          "time": 361.15939,
          "velocity": 0.968503937007874
        },
        {
          "duration": 0.1415049999999951,
          "durationTicks": 192,
          "midi": 59,
          "name": "B3",
          "ticks": 476352,
          "time": 361.866915,
          "velocity": 0.968503937007874
        },
        {
          "duration": 0.1415049999999951,
          "durationTicks": 192,
          "midi": 62,
          "name": "D4",
          "ticks": 476352,
          "time": 361.866915,
          "velocity": 0.968503937007874
        },
        {
          "duration": 0.1415049999999951,
          "durationTicks": 192,
          "midi": 59,
          "name": "B3",
          "ticks": 476544,
          "time": 362.00842,
          "velocity": 0.968503937007874
        },
        {
          "duration": 0.1415049999999951,
          "durationTicks": 192,
          "midi": 62,
          "name": "D4",
          "ticks": 476544,
          "time": 362.00842,
          "velocity": 0.968503937007874
        },
        {
          "duration": 0.1415049999999951,
          "durationTicks": 192,
          "midi": 59,
          "name": "B3",
          "ticks": 476736,
          "time": 362.149925,
          "velocity": 0.968503937007874
        },
        {
          "duration": 0.1415049999999951,
          "durationTicks": 192,
          "midi": 62,
          "name": "D4",
          "ticks": 476736,
          "time": 362.149925,
          "velocity": 0.968503937007874
        },
        {
          "duration": 0.2830099999999902,
          "durationTicks": 384,
          "midi": 60,
          "name": "C4",
          "ticks": 476928,
          "time": 362.29143,
          "velocity": 0.968503937007874
        },
        {
          "duration": 0.2830099999999902,
          "durationTicks": 384,
          "midi": 63,
          "name": "D#4",
          "ticks": 476928,
          "time": 362.29143,
          "velocity": 0.968503937007874
        },
        {
          "duration": 0.1415049999999951,
          "durationTicks": 192,
          "midi": 59,
          "name": "B3",
          "ticks": 477888,
          "time": 362.99895499999997,
          "velocity": 0.968503937007874
        },
        {
          "duration": 0.1415049999999951,
          "durationTicks": 192,
          "midi": 62,
          "name": "D4",
          "ticks": 477888,
          "time": 362.99895499999997,
          "velocity": 0.968503937007874
        },
        {
          "duration": 0.1415049999999951,
          "durationTicks": 192,
          "midi": 59,
          "name": "B3",
          "ticks": 478080,
          "time": 363.14045999999996,
          "velocity": 0.968503937007874
        },
        {
          "duration": 0.1415049999999951,
          "durationTicks": 192,
          "midi": 62,
          "name": "D4",
          "ticks": 478080,
          "time": 363.14045999999996,
          "velocity": 0.968503937007874
        },
        {
          "duration": 0.1415049999999951,
          "durationTicks": 192,
          "midi": 59,
          "name": "B3",
          "ticks": 478272,
          "time": 363.28196499999996,
          "velocity": 0.968503937007874
        },
        {
          "duration": 0.1415049999999951,
          "durationTicks": 192,
          "midi": 62,
          "name": "D4",
          "ticks": 478272,
          "time": 363.28196499999996,
          "velocity": 0.968503937007874
        },
        {
          "duration": 0.28301000000004706,
          "durationTicks": 384,
          "midi": 60,
          "name": "C4",
          "ticks": 478464,
          "time": 363.42346999999995,
          "velocity": 0.968503937007874
        },
        {
          "duration": 0.28301000000004706,
          "durationTicks": 384,
          "midi": 63,
          "name": "D#4",
          "ticks": 478464,
          "time": 363.42346999999995,
          "velocity": 0.968503937007874
        },
        {
          "duration": 0.2830099999999902,
          "durationTicks": 384,
          "midi": 59,
          "name": "B3",
          "ticks": 478848,
          "time": 363.70648,
          "velocity": 0.968503937007874
        },
        {
          "duration": 0.2830099999999902,
          "durationTicks": 384,
          "midi": 62,
          "name": "D4",
          "ticks": 478848,
          "time": 363.70648,
          "velocity": 0.968503937007874
        },
        {
          "duration": 0.2830099999999902,
          "durationTicks": 384,
          "midi": 60,
          "name": "C4",
          "ticks": 479232,
          "time": 363.98949,
          "velocity": 0.968503937007874
        },
        {
          "duration": 0.2830099999999902,
          "durationTicks": 384,
          "midi": 63,
          "name": "D#4",
          "ticks": 479232,
          "time": 363.98949,
          "velocity": 0.968503937007874
        },
        {
          "duration": 0.2830099999999902,
          "durationTicks": 384,
          "midi": 59,
          "name": "B3",
          "ticks": 479616,
          "time": 364.2725,
          "velocity": 0.968503937007874
        },
        {
          "duration": 0.2830099999999902,
          "durationTicks": 384,
          "midi": 62,
          "name": "D4",
          "ticks": 479616,
          "time": 364.2725,
          "velocity": 0.968503937007874
        },
        {
          "duration": 0.2830099999999902,
          "durationTicks": 384,
          "midi": 60,
          "name": "C4",
          "ticks": 480000,
          "time": 364.55550999999997,
          "velocity": 0.968503937007874
        },
        {
          "duration": 0.2830099999999902,
          "durationTicks": 384,
          "midi": 63,
          "name": "D#4",
          "ticks": 480000,
          "time": 364.55550999999997,
          "velocity": 0.968503937007874
        },
        {
          "duration": 0.28301000000004706,
          "durationTicks": 384,
          "midi": 59,
          "name": "B3",
          "ticks": 480384,
          "time": 364.83851999999996,
          "velocity": 0.968503937007874
        },
        {
          "duration": 0.28301000000004706,
          "durationTicks": 384,
          "midi": 62,
          "name": "D4",
          "ticks": 480384,
          "time": 364.83851999999996,
          "velocity": 0.968503937007874
        },
        {
          "duration": 0.2830099999999902,
          "durationTicks": 384,
          "midi": 60,
          "name": "C4",
          "ticks": 480768,
          "time": 365.12153,
          "velocity": 0.968503937007874
        },
        {
          "duration": 0.2830099999999902,
          "durationTicks": 384,
          "midi": 63,
          "name": "D#4",
          "ticks": 480768,
          "time": 365.12153,
          "velocity": 0.968503937007874
        },
        {
          "duration": 0.2830099999999902,
          "durationTicks": 384,
          "midi": 59,
          "name": "B3",
          "ticks": 481152,
          "time": 365.40454,
          "velocity": 0.968503937007874
        },
        {
          "duration": 0.2830099999999902,
          "durationTicks": 384,
          "midi": 62,
          "name": "D4",
          "ticks": 481152,
          "time": 365.40454,
          "velocity": 0.968503937007874
        },
        {
          "duration": 0.2830099999999902,
          "durationTicks": 384,
          "midi": 60,
          "name": "C4",
          "ticks": 481536,
          "time": 365.68755,
          "velocity": 0.968503937007874
        },
        {
          "duration": 0.2830099999999902,
          "durationTicks": 384,
          "midi": 63,
          "name": "D#4",
          "ticks": 481536,
          "time": 365.68755,
          "velocity": 0.968503937007874
        },
        {
          "duration": 0.2830099999999902,
          "durationTicks": 384,
          "midi": 59,
          "name": "B3",
          "ticks": 482304,
          "time": 366.25356999999997,
          "velocity": 0.968503937007874
        },
        {
          "duration": 0.2830099999999902,
          "durationTicks": 384,
          "midi": 62,
          "name": "D4",
          "ticks": 482304,
          "time": 366.25356999999997,
          "velocity": 0.968503937007874
        },
        {
          "duration": 0.2830099999999902,
          "durationTicks": 384,
          "midi": 60,
          "name": "C4",
          "ticks": 483072,
          "time": 366.81959,
          "velocity": 0.968503937007874
        },
        {
          "duration": 0.2830099999999902,
          "durationTicks": 384,
          "midi": 60,
          "name": "C4",
          "ticks": 483072,
          "time": 366.81959,
          "velocity": 0.968503937007874
        }
      ],
      "endOfTrackTicks": 484608
    },
    {
      "channel": 3,
      "controlChanges": {},
      "pitchBends": [],
      "instrument": {
        "family": "reed",
        "number": 70,
        "name": "bassoon"
      },
      "name": "BASSOON",
      "notes": [
        {
          "duration": 2.3076799999999995,
          "durationTicks": 3072,
          "midi": 60,
          "name": "C4",
          "ticks": 4608,
          "time": 4.57692,
          "velocity": 0.7165354330708661
        },
        {
          "duration": 2.3076799999999995,
          "durationTicks": 3072,
          "midi": 60,
          "name": "C4",
          "ticks": 4608,
          "time": 4.57692,
          "velocity": 0.7165354330708661
        },
        {
          "duration": 2.3076800000000004,
          "durationTicks": 3072,
          "midi": 59,
          "name": "B3",
          "ticks": 7680,
          "time": 6.8846,
          "velocity": 0.7165354330708661
        },
        {
          "duration": 2.3076800000000004,
          "durationTicks": 3072,
          "midi": 59,
          "name": "B3",
          "ticks": 7680,
          "time": 6.8846,
          "velocity": 0.7165354330708661
        },
        {
          "duration": 0.5769199999999994,
          "durationTicks": 768,
          "midi": 60,
          "name": "C4",
          "ticks": 10752,
          "time": 9.19228,
          "velocity": 0.7165354330708661
        },
        {
          "duration": 0.5769199999999994,
          "durationTicks": 768,
          "midi": 60,
          "name": "C4",
          "ticks": 10752,
          "time": 9.19228,
          "velocity": 0.7165354330708661
        },
        {
          "duration": 0.5769199999999994,
          "durationTicks": 768,
          "midi": 59,
          "name": "B3",
          "ticks": 11520,
          "time": 9.7692,
          "velocity": 0.7165354330708661
        },
        {
          "duration": 0.5769199999999994,
          "durationTicks": 768,
          "midi": 59,
          "name": "B3",
          "ticks": 11520,
          "time": 9.7692,
          "velocity": 0.7165354330708661
        },
        {
          "duration": 0.5769200000000012,
          "durationTicks": 768,
          "midi": 60,
          "name": "C4",
          "ticks": 12288,
          "time": 10.346119999999999,
          "velocity": 0.7165354330708661
        },
        {
          "duration": 0.5769200000000012,
          "durationTicks": 768,
          "midi": 60,
          "name": "C4",
          "ticks": 12288,
          "time": 10.346119999999999,
          "velocity": 0.7165354330708661
        },
        {
          "duration": 0.1442300000000003,
          "durationTicks": 192,
          "midi": 59,
          "name": "B3",
          "ticks": 13056,
          "time": 10.92304,
          "velocity": 0.7165354330708661
        },
        {
          "duration": 0.1442300000000003,
          "durationTicks": 192,
          "midi": 59,
          "name": "B3",
          "ticks": 13056,
          "time": 10.92304,
          "velocity": 0.7165354330708661
        },
        {
          "duration": 0.1442300000000003,
          "durationTicks": 192,
          "midi": 59,
          "name": "B3",
          "ticks": 13248,
          "time": 11.06727,
          "velocity": 0.7165354330708661
        },
        {
          "duration": 0.1442300000000003,
          "durationTicks": 192,
          "midi": 59,
          "name": "B3",
          "ticks": 13248,
          "time": 11.06727,
          "velocity": 0.7165354330708661
        },
        {
          "duration": 0.14422999999999853,
          "durationTicks": 192,
          "midi": 59,
          "name": "B3",
          "ticks": 13440,
          "time": 11.211500000000001,
          "velocity": 0.7952755905511811
        },
        {
          "duration": 0.14422999999999853,
          "durationTicks": 192,
          "midi": 59,
          "name": "B3",
          "ticks": 13440,
          "time": 11.211500000000001,
          "velocity": 0.7952755905511811
        },
        {
          "duration": 0.1442300000000003,
          "durationTicks": 192,
          "midi": 59,
          "name": "B3",
          "ticks": 13632,
          "time": 11.35573,
          "velocity": 0.8582677165354331
        },
        {
          "duration": 0.1442300000000003,
          "durationTicks": 192,
          "midi": 59,
          "name": "B3",
          "ticks": 13632,
          "time": 11.35573,
          "velocity": 0.8582677165354331
        },
        {
          "duration": 0.28845999999999883,
          "durationTicks": 384,
          "midi": 60,
          "name": "C4",
          "ticks": 13824,
          "time": 11.49996,
          "velocity": 0.905511811023622
        },
        {
          "duration": 0.28845999999999883,
          "durationTicks": 384,
          "midi": 60,
          "name": "C4",
          "ticks": 13824,
          "time": 11.49996,
          "velocity": 0.905511811023622
        },
        {
          "duration": 0.2884600000000006,
          "durationTicks": 384,
          "midi": 44,
          "name": "G#2",
          "ticks": 14592,
          "time": 12.07688,
          "velocity": 0.905511811023622
        },
        {
          "duration": 0.2884600000000006,
          "durationTicks": 384,
          "midi": 44,
          "name": "G#2",
          "ticks": 14592,
          "time": 12.07688,
          "velocity": 0.905511811023622
        },
        {
          "duration": 0.28845999999999883,
          "durationTicks": 384,
          "midi": 43,
          "name": "G2",
          "ticks": 15360,
          "time": 12.6538,
          "velocity": 0.905511811023622
        },
        {
          "duration": 0.28845999999999883,
          "durationTicks": 384,
          "midi": 43,
          "name": "G2",
          "ticks": 15360,
          "time": 12.6538,
          "velocity": 0.905511811023622
        },
        {
          "duration": 0.14285499999999907,
          "durationTicks": 192,
          "midi": 44,
          "name": "G#2",
          "ticks": 16320,
          "time": 14.751775,
          "velocity": 0.968503937007874
        },
        {
          "duration": 0.14285499999999907,
          "durationTicks": 192,
          "midi": 44,
          "name": "G#2",
          "ticks": 16320,
          "time": 14.751775,
          "velocity": 0.968503937007874
        },
        {
          "duration": 0.14285500000000084,
          "durationTicks": 192,
          "midi": 44,
          "name": "G#2",
          "ticks": 16512,
          "time": 14.89463,
          "velocity": 0.968503937007874
        },
        {
          "duration": 0.14285500000000084,
          "durationTicks": 192,
          "midi": 44,
          "name": "G#2",
          "ticks": 16512,
          "time": 14.89463,
          "velocity": 0.968503937007874
        },
        {
          "duration": 0.14285499999999907,
          "durationTicks": 192,
          "midi": 44,
          "name": "G#2",
          "ticks": 16704,
          "time": 15.037485,
          "velocity": 0.968503937007874
        },
        {
          "duration": 0.14285499999999907,
          "durationTicks": 192,
          "midi": 44,
          "name": "G#2",
          "ticks": 16704,
          "time": 15.037485,
          "velocity": 0.968503937007874
        },
        {
          "duration": 1.9047399999999985,
          "durationTicks": 1536,
          "midi": 41,
          "name": "F2",
          "ticks": 16896,
          "time": 15.18034,
          "velocity": 0.968503937007874
        },
        {
          "duration": 1.9047399999999985,
          "durationTicks": 1536,
          "midi": 41,
          "name": "F2",
          "ticks": 16896,
          "time": 15.18034,
          "velocity": 0.968503937007874
        },
        {
          "duration": 0.8490299999999991,
          "durationTicks": 1152,
          "midi": 63,
          "name": "D#4",
          "ticks": 26880,
          "time": 23.3707,
          "velocity": 0.968503937007874
        },
        {
          "duration": 0.8490299999999991,
          "durationTicks": 1152,
          "midi": 67,
          "name": "G4",
          "ticks": 26880,
          "time": 23.3707,
          "velocity": 0.968503937007874
        },
        {
          "duration": 0.28301000000000087,
          "durationTicks": 384,
          "midi": 59,
          "name": "B3",
          "ticks": 28416,
          "time": 24.50274,
          "velocity": 0.968503937007874
        },
        {
          "duration": 0.28301000000000087,
          "durationTicks": 384,
          "midi": 59,
          "name": "B3",
          "ticks": 28416,
          "time": 24.50274,
          "velocity": 0.968503937007874
        },
        {
          "duration": 0.28301000000000087,
          "durationTicks": 384,
          "midi": 48,
          "name": "C3",
          "ticks": 29184,
          "time": 25.068759999999997,
          "velocity": 0.968503937007874
        },
        {
          "duration": 0.28301000000000087,
          "durationTicks": 384,
          "midi": 58,
          "name": "A#3",
          "ticks": 29184,
          "time": 25.068759999999997,
          "velocity": 0.968503937007874
        },
        {
          "duration": 0.28037000000000134,
          "durationTicks": 384,
          "midi": 48,
          "name": "C3",
          "ticks": 29952,
          "time": 25.63478,
          "velocity": 0.968503937007874
        },
        {
          "duration": 0.28037000000000134,
          "durationTicks": 384,
          "midi": 56,
          "name": "G#3",
          "ticks": 29952,
          "time": 25.63478,
          "velocity": 0.968503937007874
        },
        {
          "duration": 0.28037000000000134,
          "durationTicks": 384,
          "midi": 48,
          "name": "C3",
          "ticks": 30720,
          "time": 26.19552,
          "velocity": 0.968503937007874
        },
        {
          "duration": 0.28037000000000134,
          "durationTicks": 384,
          "midi": 52,
          "name": "E3",
          "ticks": 30720,
          "time": 26.19552,
          "velocity": 0.968503937007874
        },
        {
          "duration": 0.28037000000000134,
          "durationTicks": 384,
          "midi": 48,
          "name": "C3",
          "ticks": 31488,
          "time": 26.756259999999997,
          "velocity": 0.968503937007874
        },
        {
          "duration": 0.28037000000000134,
          "durationTicks": 384,
          "midi": 53,
          "name": "F3",
          "ticks": 31488,
          "time": 26.756259999999997,
          "velocity": 0.968503937007874
        },
        {
          "duration": 0.2803699999999978,
          "durationTicks": 384,
          "midi": 48,
          "name": "C3",
          "ticks": 32256,
          "time": 27.317,
          "velocity": 0.968503937007874
        },
        {
          "duration": 0.2803699999999978,
          "durationTicks": 384,
          "midi": 60,
          "name": "C4",
          "ticks": 32256,
          "time": 27.317,
          "velocity": 0.968503937007874
        },
        {
          "duration": 2.222159999999999,
          "durationTicks": 3072,
          "midi": 48,
          "name": "C3",
          "ticks": 33024,
          "time": 27.87774,
          "velocity": 0.905511811023622
        },
        {
          "duration": 2.222159999999999,
          "durationTicks": 3072,
          "midi": 51,
          "name": "D#3",
          "ticks": 33024,
          "time": 27.87774,
          "velocity": 0.905511811023622
        },
        {
          "duration": 1.9443899999999985,
          "durationTicks": 2688,
          "midi": 47,
          "name": "B2",
          "ticks": 36096,
          "time": 30.099899999999998,
          "velocity": 0.905511811023622
        },
        {
          "duration": 1.9443899999999985,
          "durationTicks": 2688,
          "midi": 50,
          "name": "D3",
          "ticks": 36096,
          "time": 30.099899999999998,
          "velocity": 0.905511811023622
        },
        {
          "duration": 0.27777000000000385,
          "durationTicks": 384,
          "midi": 48,
          "name": "C3",
          "ticks": 38784,
          "time": 32.04429,
          "velocity": 0.905511811023622
        },
        {
          "duration": 0.27777000000000385,
          "durationTicks": 384,
          "midi": 51,
          "name": "D#3",
          "ticks": 38784,
          "time": 32.04429,
          "velocity": 0.905511811023622
        },
        {
          "duration": 2.2221599999999953,
          "durationTicks": 3072,
          "midi": 51,
          "name": "D#3",
          "ticks": 39168,
          "time": 32.32206,
          "velocity": 0.968503937007874
        },
        {
          "duration": 2.2221599999999953,
          "durationTicks": 3072,
          "midi": 57,
          "name": "A3",
          "ticks": 39168,
          "time": 32.32206,
          "velocity": 0.968503937007874
        },
        {
          "duration": 0.27777000000000385,
          "durationTicks": 384,
          "midi": 51,
          "name": "D#3",
          "ticks": 42240,
          "time": 34.544219999999996,
          "velocity": 0.968503937007874
        },
        {
          "duration": 0.27777000000000385,
          "durationTicks": 384,
          "midi": 57,
          "name": "A3",
          "ticks": 42240,
          "time": 34.544219999999996,
          "velocity": 0.968503937007874
        },
        {
          "duration": 0.27777000000000385,
          "durationTicks": 384,
          "midi": 50,
          "name": "D3",
          "ticks": 43776,
          "time": 35.6553,
          "velocity": 0.968503937007874
        },
        {
          "duration": 0.27777000000000385,
          "durationTicks": 384,
          "midi": 53,
          "name": "F3",
          "ticks": 43776,
          "time": 35.6553,
          "velocity": 0.968503937007874
        },
        {
          "duration": 0.5769200000000012,
          "durationTicks": 768,
          "midi": 55,
          "name": "G3",
          "ticks": 50688,
          "time": 40.8262,
          "velocity": 0.7165354330708661
        },
        {
          "duration": 0.5769200000000012,
          "durationTicks": 768,
          "midi": 58,
          "name": "A#3",
          "ticks": 50688,
          "time": 40.8262,
          "velocity": 0.7165354330708661
        },
        {
          "duration": 0.5660200000000017,
          "durationTicks": 768,
          "midi": 53,
          "name": "F3",
          "ticks": 51456,
          "time": 41.40312,
          "velocity": 0.7165354330708661
        },
        {
          "duration": 0.5660200000000017,
          "durationTicks": 768,
          "midi": 56,
          "name": "G#3",
          "ticks": 51456,
          "time": 41.40312,
          "velocity": 0.7165354330708661
        },
        {
          "duration": 0.5660200000000017,
          "durationTicks": 768,
          "midi": 46,
          "name": "A#2",
          "ticks": 52224,
          "time": 41.96914,
          "velocity": 0.7165354330708661
        },
        {
          "duration": 0.5660200000000017,
          "durationTicks": 768,
          "midi": 53,
          "name": "F3",
          "ticks": 52224,
          "time": 41.96914,
          "velocity": 0.7165354330708661
        },
        {
          "duration": 0.5660199999999946,
          "durationTicks": 768,
          "midi": 51,
          "name": "D#3",
          "ticks": 52992,
          "time": 42.535160000000005,
          "velocity": 0.7165354330708661
        },
        {
          "duration": 0.5660199999999946,
          "durationTicks": 768,
          "midi": 55,
          "name": "G3",
          "ticks": 52992,
          "time": 42.535160000000005,
          "velocity": 0.7165354330708661
        },
        {
          "duration": 0.5660200000000017,
          "durationTicks": 768,
          "midi": 55,
          "name": "G3",
          "ticks": 53760,
          "time": 43.10118,
          "velocity": 0.7165354330708661
        },
        {
          "duration": 0.5660200000000017,
          "durationTicks": 768,
          "midi": 58,
          "name": "A#3",
          "ticks": 53760,
          "time": 43.10118,
          "velocity": 0.7165354330708661
        },
        {
          "duration": 0.5555400000000006,
          "durationTicks": 768,
          "midi": 53,
          "name": "F3",
          "ticks": 54528,
          "time": 43.6672,
          "velocity": 0.7165354330708661
        },
        {
          "duration": 0.5555400000000006,
          "durationTicks": 768,
          "midi": 56,
          "name": "G#3",
          "ticks": 54528,
          "time": 43.6672,
          "velocity": 0.7165354330708661
        },
        {
          "duration": 0.5555400000000006,
          "durationTicks": 768,
          "midi": 46,
          "name": "A#2",
          "ticks": 55296,
          "time": 44.22274,
          "velocity": 0.7165354330708661
        },
        {
          "duration": 0.5555400000000006,
          "durationTicks": 768,
          "midi": 53,
          "name": "F3",
          "ticks": 55296,
          "time": 44.22274,
          "velocity": 0.7165354330708661
        },
        {
          "duration": 0.5555400000000006,
          "durationTicks": 768,
          "midi": 51,
          "name": "D#3",
          "ticks": 56064,
          "time": 44.77828,
          "velocity": 0.7165354330708661
        },
        {
          "duration": 0.5555400000000006,
          "durationTicks": 768,
          "midi": 55,
          "name": "G3",
          "ticks": 56064,
          "time": 44.77828,
          "velocity": 0.7165354330708661
        },
        {
          "duration": 0.5555400000000006,
          "durationTicks": 768,
          "midi": 55,
          "name": "G3",
          "ticks": 56832,
          "time": 45.33382,
          "velocity": 0.7165354330708661
        },
        {
          "duration": 0.5555400000000006,
          "durationTicks": 768,
          "midi": 58,
          "name": "A#3",
          "ticks": 56832,
          "time": 45.33382,
          "velocity": 0.7165354330708661
        },
        {
          "duration": 0.5555400000000006,
          "durationTicks": 768,
          "midi": 52,
          "name": "E3",
          "ticks": 57600,
          "time": 45.88936,
          "velocity": 0.7165354330708661
        },
        {
          "duration": 0.5555400000000006,
          "durationTicks": 768,
          "midi": 55,
          "name": "G3",
          "ticks": 57600,
          "time": 45.88936,
          "velocity": 0.7165354330708661
        },
        {
          "duration": 0.5555399999999935,
          "durationTicks": 768,
          "midi": 48,
          "name": "C3",
          "ticks": 58368,
          "time": 46.444900000000004,
          "velocity": 0.7165354330708661
        },
        {
          "duration": 0.5555399999999935,
          "durationTicks": 768,
          "midi": 52,
          "name": "E3",
          "ticks": 58368,
          "time": 46.444900000000004,
          "velocity": 0.7165354330708661
        },
        {
          "duration": 0.5555400000000006,
          "durationTicks": 768,
          "midi": 53,
          "name": "F3",
          "ticks": 59136,
          "time": 47.00044,
          "velocity": 0.7165354330708661
        },
        {
          "duration": 0.5555400000000006,
          "durationTicks": 768,
          "midi": 56,
          "name": "G#3",
          "ticks": 59136,
          "time": 47.00044,
          "velocity": 0.7165354330708661
        },
        {
          "duration": 0.5555400000000006,
          "durationTicks": 768,
          "midi": 56,
          "name": "G#3",
          "ticks": 59904,
          "time": 47.55598,
          "velocity": 0.7165354330708661
        },
        {
          "duration": 0.5555400000000006,
          "durationTicks": 768,
          "midi": 61,
          "name": "C#4",
          "ticks": 59904,
          "time": 47.55598,
          "velocity": 0.7165354330708661
        },
        {
          "duration": 0.5555400000000006,
          "durationTicks": 768,
          "midi": 55,
          "name": "G3",
          "ticks": 60672,
          "time": 48.11152,
          "velocity": 0.7165354330708661
        },
        {
          "duration": 0.5555400000000006,
          "durationTicks": 768,
          "midi": 58,
          "name": "A#3",
          "ticks": 60672,
          "time": 48.11152,
          "velocity": 0.7165354330708661
        },
        {
          "duration": 0.5555400000000006,
          "durationTicks": 768,
          "midi": 51,
          "name": "D#3",
          "ticks": 61440,
          "time": 48.66706,
          "velocity": 0.7165354330708661
        },
        {
          "duration": 0.5555400000000006,
          "durationTicks": 768,
          "midi": 55,
          "name": "G3",
          "ticks": 61440,
          "time": 48.66706,
          "velocity": 0.7165354330708661
        },
        {
          "duration": 0.5555400000000006,
          "durationTicks": 768,
          "midi": 56,
          "name": "G#3",
          "ticks": 62208,
          "time": 49.2226,
          "velocity": 0.7165354330708661
        },
        {
          "duration": 0.5555400000000006,
          "durationTicks": 768,
          "midi": 60,
          "name": "C4",
          "ticks": 62208,
          "time": 49.2226,
          "velocity": 0.7165354330708661
        },
        {
          "duration": 0.5555400000000006,
          "durationTicks": 768,
          "midi": 44,
          "name": "G#2",
          "ticks": 62976,
          "time": 49.77814,
          "velocity": 0.7165354330708661
        },
        {
          "duration": 0.5555400000000006,
          "durationTicks": 768,
          "midi": 56,
          "name": "G#3",
          "ticks": 62976,
          "time": 49.77814,
          "velocity": 0.7165354330708661
        },
        {
          "duration": 1.1110800000000012,
          "durationTicks": 1536,
          "midi": 45,
          "name": "A2",
          "ticks": 63744,
          "time": 50.33368,
          "velocity": 0.7165354330708661
        },
        {
          "duration": 1.1110800000000012,
          "durationTicks": 1536,
          "midi": 57,
          "name": "A3",
          "ticks": 63744,
          "time": 50.33368,
          "velocity": 0.7165354330708661
        },
        {
          "duration": 1.1110800000000012,
          "durationTicks": 1536,
          "midi": 46,
          "name": "A#2",
          "ticks": 65280,
          "time": 51.44476,
          "velocity": 0.7165354330708661
        },
        {
          "duration": 1.1110800000000012,
          "durationTicks": 1536,
          "midi": 58,
          "name": "A#3",
          "ticks": 65280,
          "time": 51.44476,
          "velocity": 0.7165354330708661
        },
        {
          "duration": 1.1110800000000012,
          "durationTicks": 1536,
          "midi": 47,
          "name": "B2",
          "ticks": 66816,
          "time": 52.55584,
          "velocity": 0.7165354330708661
        },
        {
          "duration": 1.1110800000000012,
          "durationTicks": 1536,
          "midi": 59,
          "name": "B3",
          "ticks": 66816,
          "time": 52.55584,
          "velocity": 0.7165354330708661
        },
        {
          "duration": 1.388849999999998,
          "durationTicks": 1920,
          "midi": 48,
          "name": "C3",
          "ticks": 68352,
          "time": 53.666920000000005,
          "velocity": 0.7165354330708661
        },
        {
          "duration": 1.388849999999998,
          "durationTicks": 1920,
          "midi": 60,
          "name": "C4",
          "ticks": 68352,
          "time": 53.666920000000005,
          "velocity": 0.7165354330708661
        },
        {
          "duration": 0.27776999999999674,
          "durationTicks": 384,
          "midi": 48,
          "name": "C3",
          "ticks": 70272,
          "time": 55.05577,
          "velocity": 0.8582677165354331
        },
        {
          "duration": 0.27776999999999674,
          "durationTicks": 384,
          "midi": 60,
          "name": "C4",
          "ticks": 70272,
          "time": 55.05577,
          "velocity": 0.8582677165354331
        },
        {
          "duration": 0.27777000000000385,
          "durationTicks": 384,
          "midi": 48,
          "name": "C3",
          "ticks": 70656,
          "time": 55.33354,
          "velocity": 0.905511811023622
        },
        {
          "duration": 0.27777000000000385,
          "durationTicks": 384,
          "midi": 60,
          "name": "C4",
          "ticks": 70656,
          "time": 55.33354,
          "velocity": 0.905511811023622
        },
        {
          "duration": 0.27776999999999674,
          "durationTicks": 384,
          "midi": 48,
          "name": "C3",
          "ticks": 71040,
          "time": 55.61131,
          "velocity": 0.905511811023622
        },
        {
          "duration": 0.27776999999999674,
          "durationTicks": 384,
          "midi": 60,
          "name": "C4",
          "ticks": 71040,
          "time": 55.61131,
          "velocity": 0.905511811023622
        },
        {
          "duration": 0.8333100000000044,
          "durationTicks": 1152,
          "midi": 50,
          "name": "D3",
          "ticks": 71424,
          "time": 55.88908,
          "velocity": 0.968503937007874
        },
        {
          "duration": 0.8333100000000044,
          "durationTicks": 1152,
          "midi": 62,
          "name": "D4",
          "ticks": 71424,
          "time": 55.88908,
          "velocity": 0.968503937007874
        },
        {
          "duration": 0.27776999999999674,
          "durationTicks": 384,
          "midi": 50,
          "name": "D3",
          "ticks": 72576,
          "time": 56.722390000000004,
          "velocity": 0.968503937007874
        },
        {
          "duration": 0.27776999999999674,
          "durationTicks": 384,
          "midi": 53,
          "name": "F3",
          "ticks": 72576,
          "time": 56.722390000000004,
          "velocity": 0.968503937007874
        },
        {
          "duration": 0.27776999999999674,
          "durationTicks": 384,
          "midi": 51,
          "name": "D#3",
          "ticks": 72960,
          "time": 57.00016,
          "velocity": 0.968503937007874
        },
        {
          "duration": 0.27776999999999674,
          "durationTicks": 384,
          "midi": 55,
          "name": "G3",
          "ticks": 72960,
          "time": 57.00016,
          "velocity": 0.968503937007874
        },
        {
          "duration": 0.27777000000000385,
          "durationTicks": 384,
          "midi": 53,
          "name": "F3",
          "ticks": 73728,
          "time": 57.5557,
          "velocity": 0.968503937007874
        },
        {
          "duration": 0.27777000000000385,
          "durationTicks": 384,
          "midi": 56,
          "name": "G#3",
          "ticks": 73728,
          "time": 57.5557,
          "velocity": 0.968503937007874
        },
        {
          "duration": 0.27776999999999674,
          "durationTicks": 384,
          "midi": 55,
          "name": "G3",
          "ticks": 74496,
          "time": 58.11124,
          "velocity": 0.968503937007874
        },
        {
          "duration": 0.27776999999999674,
          "durationTicks": 384,
          "midi": 58,
          "name": "A#3",
          "ticks": 74496,
          "time": 58.11124,
          "velocity": 0.968503937007874
        },
        {
          "duration": 0.27776999999999674,
          "durationTicks": 384,
          "midi": 56,
          "name": "G#3",
          "ticks": 75264,
          "time": 58.66678,
          "velocity": 0.968503937007874
        },
        {
          "duration": 0.27776999999999674,
          "durationTicks": 384,
          "midi": 60,
          "name": "C4",
          "ticks": 75264,
          "time": 58.66678,
          "velocity": 0.968503937007874
        },
        {
          "duration": 0.27776999999999674,
          "durationTicks": 384,
          "midi": 58,
          "name": "A#3",
          "ticks": 76032,
          "time": 59.22232,
          "velocity": 0.968503937007874
        },
        {
          "duration": 0.27776999999999674,
          "durationTicks": 384,
          "midi": 58,
          "name": "A#3",
          "ticks": 76032,
          "time": 59.22232,
          "velocity": 0.968503937007874
        },
        {
          "duration": 0.27776999999999674,
          "durationTicks": 384,
          "midi": 46,
          "name": "A#2",
          "ticks": 76800,
          "time": 59.777860000000004,
          "velocity": 0.968503937007874
        },
        {
          "duration": 0.27776999999999674,
          "durationTicks": 384,
          "midi": 46,
          "name": "A#2",
          "ticks": 76800,
          "time": 59.777860000000004,
          "velocity": 0.968503937007874
        },
        {
          "duration": 0.8333100000000044,
          "durationTicks": 1152,
          "midi": 65,
          "name": "F4",
          "ticks": 77568,
          "time": 60.3334,
          "velocity": 0.968503937007874
        },
        {
          "duration": 0.8333100000000044,
          "durationTicks": 1152,
          "midi": 68,
          "name": "G#4",
          "ticks": 77568,
          "time": 60.3334,
          "velocity": 0.968503937007874
        },
        {
          "duration": 0.27776999999999674,
          "durationTicks": 384,
          "midi": 58,
          "name": "A#3",
          "ticks": 78720,
          "time": 61.16671,
          "velocity": 0.968503937007874
        },
        {
          "duration": 0.27776999999999674,
          "durationTicks": 384,
          "midi": 65,
          "name": "F4",
          "ticks": 78720,
          "time": 61.16671,
          "velocity": 0.968503937007874
        },
        {
          "duration": 0.27777000000000385,
          "durationTicks": 384,
          "midi": 63,
          "name": "D#4",
          "ticks": 79104,
          "time": 61.44448,
          "velocity": 0.968503937007874
        },
        {
          "duration": 0.27777000000000385,
          "durationTicks": 384,
          "midi": 67,
          "name": "G4",
          "ticks": 79104,
          "time": 61.44448,
          "velocity": 0.968503937007874
        },
        {
          "duration": 0.27777000000000385,
          "durationTicks": 384,
          "midi": 63,
          "name": "D#4",
          "ticks": 79488,
          "time": 61.72225,
          "velocity": 0.968503937007874
        },
        {
          "duration": 0.27777000000000385,
          "durationTicks": 384,
          "midi": 67,
          "name": "G4",
          "ticks": 79488,
          "time": 61.72225,
          "velocity": 0.968503937007874
        },
        {
          "duration": 0.27776999999999674,
          "durationTicks": 384,
          "midi": 58,
          "name": "A#3",
          "ticks": 80256,
          "time": 62.27779,
          "velocity": 0.968503937007874
        },
        {
          "duration": 0.27776999999999674,
          "durationTicks": 384,
          "midi": 65,
          "name": "F4",
          "ticks": 80256,
          "time": 62.27779,
          "velocity": 0.968503937007874
        },
        {
          "duration": 0.27777000000000385,
          "durationTicks": 384,
          "midi": 58,
          "name": "A#3",
          "ticks": 81024,
          "time": 62.833330000000004,
          "velocity": 0.968503937007874
        },
        {
          "duration": 0.27777000000000385,
          "durationTicks": 384,
          "midi": 63,
          "name": "D#4",
          "ticks": 81024,
          "time": 62.833330000000004,
          "velocity": 0.968503937007874
        },
        {
          "duration": 0.27777000000000385,
          "durationTicks": 384,
          "midi": 56,
          "name": "G#3",
          "ticks": 81792,
          "time": 63.38887,
          "velocity": 0.968503937007874
        },
        {
          "duration": 0.27777000000000385,
          "durationTicks": 384,
          "midi": 60,
          "name": "C4",
          "ticks": 81792,
          "time": 63.38887,
          "velocity": 0.968503937007874
        },
        {
          "duration": 0.27777000000000385,
          "durationTicks": 384,
          "midi": 55,
          "name": "G3",
          "ticks": 82560,
          "time": 63.944410000000005,
          "velocity": 0.968503937007874
        },
        {
          "duration": 0.27777000000000385,
          "durationTicks": 384,
          "midi": 58,
          "name": "A#3",
          "ticks": 82560,
          "time": 63.944410000000005,
          "velocity": 0.968503937007874
        },
        {
          "duration": 0.27777000000000385,
          "durationTicks": 384,
          "midi": 46,
          "name": "A#2",
          "ticks": 83328,
          "time": 64.49995,
          "velocity": 0.968503937007874
        },
        {
          "duration": 0.27777000000000385,
          "durationTicks": 384,
          "midi": 58,
          "name": "A#3",
          "ticks": 83328,
          "time": 64.49995,
          "velocity": 0.968503937007874
        },
        {
          "duration": 0.13888500000000192,
          "durationTicks": 192,
          "midi": 51,
          "name": "D#3",
          "ticks": 83712,
          "time": 64.77772,
          "velocity": 0.968503937007874
        },
        {
          "duration": 0.13888500000000192,
          "durationTicks": 192,
          "midi": 63,
          "name": "D#4",
          "ticks": 83712,
          "time": 64.77772,
          "velocity": 0.968503937007874
        },
        {
          "duration": 0.13888500000000192,
          "durationTicks": 192,
          "midi": 67,
          "name": "G4",
          "ticks": 83904,
          "time": 64.916605,
          "velocity": 0.968503937007874
        },
        {
          "duration": 0.13888500000000192,
          "durationTicks": 192,
          "midi": 67,
          "name": "G4",
          "ticks": 83904,
          "time": 64.916605,
          "velocity": 0.968503937007874
        },
        {
          "duration": 0.13888500000000192,
          "durationTicks": 192,
          "midi": 67,
          "name": "G4",
          "ticks": 84096,
          "time": 65.05549,
          "velocity": 0.968503937007874
        },
        {
          "duration": 0.13888500000000192,
          "durationTicks": 192,
          "midi": 67,
          "name": "G4",
          "ticks": 84096,
          "time": 65.05549,
          "velocity": 0.968503937007874
        },
        {
          "duration": 0.1388849999999877,
          "durationTicks": 192,
          "midi": 67,
          "name": "G4",
          "ticks": 84288,
          "time": 65.19437500000001,
          "velocity": 0.968503937007874
        },
        {
          "duration": 0.1388849999999877,
          "durationTicks": 192,
          "midi": 67,
          "name": "G4",
          "ticks": 84288,
          "time": 65.19437500000001,
          "velocity": 0.968503937007874
        },
        {
          "duration": 0.13888500000000192,
          "durationTicks": 192,
          "midi": 63,
          "name": "D#4",
          "ticks": 84480,
          "time": 65.33326,
          "velocity": 0.968503937007874
        },
        {
          "duration": 0.13888500000000192,
          "durationTicks": 192,
          "midi": 63,
          "name": "D#4",
          "ticks": 84480,
          "time": 65.33326,
          "velocity": 0.968503937007874
        },
        {
          "duration": 0.13888500000000192,
          "durationTicks": 192,
          "midi": 58,
          "name": "A#3",
          "ticks": 84672,
          "time": 65.472145,
          "velocity": 0.968503937007874
        },
        {
          "duration": 0.13888500000000192,
          "durationTicks": 192,
          "midi": 58,
          "name": "A#3",
          "ticks": 84672,
          "time": 65.472145,
          "velocity": 0.968503937007874
        },
        {
          "duration": 0.13888500000000192,
          "durationTicks": 192,
          "midi": 58,
          "name": "A#3",
          "ticks": 84864,
          "time": 65.61103,
          "velocity": 0.968503937007874
        },
        {
          "duration": 0.13888500000000192,
          "durationTicks": 192,
          "midi": 58,
          "name": "A#3",
          "ticks": 84864,
          "time": 65.61103,
          "velocity": 0.968503937007874
        },
        {
          "duration": 0.13888500000000192,
          "durationTicks": 192,
          "midi": 58,
          "name": "A#3",
          "ticks": 85056,
          "time": 65.749915,
          "velocity": 0.968503937007874
        },
        {
          "duration": 0.13888500000000192,
          "durationTicks": 192,
          "midi": 58,
          "name": "A#3",
          "ticks": 85056,
          "time": 65.749915,
          "velocity": 0.968503937007874
        },
        {
          "duration": 0.13888500000000192,
          "durationTicks": 192,
          "midi": 55,
          "name": "G3",
          "ticks": 85248,
          "time": 65.8888,
          "velocity": 0.968503937007874
        },
        {
          "duration": 0.13888500000000192,
          "durationTicks": 192,
          "midi": 55,
          "name": "G3",
          "ticks": 85248,
          "time": 65.8888,
          "velocity": 0.968503937007874
        },
        {
          "duration": 0.13888500000000192,
          "durationTicks": 192,
          "midi": 51,
          "name": "D#3",
          "ticks": 85440,
          "time": 66.027685,
          "velocity": 0.968503937007874
        },
        {
          "duration": 0.13888500000000192,
          "durationTicks": 192,
          "midi": 51,
          "name": "D#3",
          "ticks": 85440,
          "time": 66.027685,
          "velocity": 0.968503937007874
        },
        {
          "duration": 0.1388849999999877,
          "durationTicks": 192,
          "midi": 51,
          "name": "D#3",
          "ticks": 85632,
          "time": 66.16657000000001,
          "velocity": 0.968503937007874
        },
        {
          "duration": 0.1388849999999877,
          "durationTicks": 192,
          "midi": 51,
          "name": "D#3",
          "ticks": 85632,
          "time": 66.16657000000001,
          "velocity": 0.968503937007874
        },
        {
          "duration": 0.13888500000001613,
          "durationTicks": 192,
          "midi": 51,
          "name": "D#3",
          "ticks": 85824,
          "time": 66.305455,
          "velocity": 0.968503937007874
        },
        {
          "duration": 0.13888500000001613,
          "durationTicks": 192,
          "midi": 51,
          "name": "D#3",
          "ticks": 85824,
          "time": 66.305455,
          "velocity": 0.968503937007874
        },
        {
          "duration": 0.6944249999999954,
          "durationTicks": 960,
          "midi": 46,
          "name": "A#2",
          "ticks": 86016,
          "time": 66.44434000000001,
          "velocity": 0.968503937007874
        },
        {
          "duration": 0.6944249999999954,
          "durationTicks": 960,
          "midi": 46,
          "name": "A#2",
          "ticks": 86016,
          "time": 66.44434000000001,
          "velocity": 0.968503937007874
        },
        {
          "duration": 0.1388849999999877,
          "durationTicks": 192,
          "midi": 67,
          "name": "G4",
          "ticks": 86976,
          "time": 67.138765,
          "velocity": 0.968503937007874
        },
        {
          "duration": 0.1388849999999877,
          "durationTicks": 192,
          "midi": 67,
          "name": "G4",
          "ticks": 86976,
          "time": 67.138765,
          "velocity": 0.968503937007874
        },
        {
          "duration": 0.13888500000001613,
          "durationTicks": 192,
          "midi": 67,
          "name": "G4",
          "ticks": 87168,
          "time": 67.27765,
          "velocity": 0.968503937007874
        },
        {
          "duration": 0.13888500000001613,
          "durationTicks": 192,
          "midi": 67,
          "name": "G4",
          "ticks": 87168,
          "time": 67.27765,
          "velocity": 0.968503937007874
        },
        {
          "duration": 0.1388849999999877,
          "durationTicks": 192,
          "midi": 67,
          "name": "G4",
          "ticks": 87360,
          "time": 67.41653500000001,
          "velocity": 0.968503937007874
        },
        {
          "duration": 0.1388849999999877,
          "durationTicks": 192,
          "midi": 67,
          "name": "G4",
          "ticks": 87360,
          "time": 67.41653500000001,
          "velocity": 0.968503937007874
        },
        {
          "duration": 0.13888500000000192,
          "durationTicks": 192,
          "midi": 63,
          "name": "D#4",
          "ticks": 87552,
          "time": 67.55542,
          "velocity": 0.968503937007874
        },
        {
          "duration": 0.13888500000000192,
          "durationTicks": 192,
          "midi": 63,
          "name": "D#4",
          "ticks": 87552,
          "time": 67.55542,
          "velocity": 0.968503937007874
        },
        {
          "duration": 0.13888500000000192,
          "durationTicks": 192,
          "midi": 58,
          "name": "A#3",
          "ticks": 87744,
          "time": 67.694305,
          "velocity": 0.968503937007874
        },
        {
          "duration": 0.13888500000000192,
          "durationTicks": 192,
          "midi": 58,
          "name": "A#3",
          "ticks": 87744,
          "time": 67.694305,
          "velocity": 0.968503937007874
        },
        {
          "duration": 0.13888500000000192,
          "durationTicks": 192,
          "midi": 58,
          "name": "A#3",
          "ticks": 87936,
          "time": 67.83319,
          "velocity": 0.968503937007874
        },
        {
          "duration": 0.13888500000000192,
          "durationTicks": 192,
          "midi": 58,
          "name": "A#3",
          "ticks": 87936,
          "time": 67.83319,
          "velocity": 0.968503937007874
        },
        {
          "duration": 0.13888500000000192,
          "durationTicks": 192,
          "midi": 58,
          "name": "A#3",
          "ticks": 88128,
          "time": 67.972075,
          "velocity": 0.968503937007874
        },
        {
          "duration": 0.13888500000000192,
          "durationTicks": 192,
          "midi": 58,
          "name": "A#3",
          "ticks": 88128,
          "time": 67.972075,
          "velocity": 0.968503937007874
        },
        {
          "duration": 0.13888500000000192,
          "durationTicks": 192,
          "midi": 55,
          "name": "G3",
          "ticks": 88320,
          "time": 68.11096,
          "velocity": 0.968503937007874
        },
        {
          "duration": 0.13888500000000192,
          "durationTicks": 192,
          "midi": 55,
          "name": "G3",
          "ticks": 88320,
          "time": 68.11096,
          "velocity": 0.968503937007874
        },
        {
          "duration": 0.13888500000000192,
          "durationTicks": 192,
          "midi": 51,
          "name": "D#3",
          "ticks": 88512,
          "time": 68.24984500000001,
          "velocity": 0.968503937007874
        },
        {
          "duration": 0.13888500000000192,
          "durationTicks": 192,
          "midi": 51,
          "name": "D#3",
          "ticks": 88512,
          "time": 68.24984500000001,
          "velocity": 0.968503937007874
        },
        {
          "duration": 0.1388849999999877,
          "durationTicks": 192,
          "midi": 51,
          "name": "D#3",
          "ticks": 88704,
          "time": 68.38873000000001,
          "velocity": 0.968503937007874
        },
        {
          "duration": 0.1388849999999877,
          "durationTicks": 192,
          "midi": 51,
          "name": "D#3",
          "ticks": 88704,
          "time": 68.38873000000001,
          "velocity": 0.968503937007874
        },
        {
          "duration": 0.13888500000000192,
          "durationTicks": 192,
          "midi": 51,
          "name": "D#3",
          "ticks": 88896,
          "time": 68.527615,
          "velocity": 0.968503937007874
        },
        {
          "duration": 0.13888500000000192,
          "durationTicks": 192,
          "midi": 51,
          "name": "D#3",
          "ticks": 88896,
          "time": 68.527615,
          "velocity": 0.968503937007874
        },
        {
          "duration": 0.8333099999999973,
          "durationTicks": 1152,
          "midi": 46,
          "name": "A#2",
          "ticks": 89088,
          "time": 68.6665,
          "velocity": 0.968503937007874
        },
        {
          "duration": 0.8333099999999973,
          "durationTicks": 1152,
          "midi": 46,
          "name": "A#2",
          "ticks": 89088,
          "time": 68.6665,
          "velocity": 0.968503937007874
        },
        {
          "duration": 0.13888500000000192,
          "durationTicks": 192,
          "midi": 58,
          "name": "A#3",
          "ticks": 90816,
          "time": 69.916465,
          "velocity": 0.968503937007874
        },
        {
          "duration": 0.13888500000000192,
          "durationTicks": 192,
          "midi": 62,
          "name": "D4",
          "ticks": 90816,
          "time": 69.916465,
          "velocity": 0.968503937007874
        },
        {
          "duration": 0.13888500000000192,
          "durationTicks": 192,
          "midi": 58,
          "name": "A#3",
          "ticks": 91008,
          "time": 70.05535,
          "velocity": 0.968503937007874
        },
        {
          "duration": 0.13888500000000192,
          "durationTicks": 192,
          "midi": 62,
          "name": "D4",
          "ticks": 91008,
          "time": 70.05535,
          "velocity": 0.968503937007874
        },
        {
          "duration": 0.13888500000000192,
          "durationTicks": 192,
          "midi": 58,
          "name": "A#3",
          "ticks": 91200,
          "time": 70.194235,
          "velocity": 0.968503937007874
        },
        {
          "duration": 0.13888500000000192,
          "durationTicks": 192,
          "midi": 62,
          "name": "D4",
          "ticks": 91200,
          "time": 70.194235,
          "velocity": 0.968503937007874
        },
        {
          "duration": 0.27776999999998964,
          "durationTicks": 384,
          "midi": 58,
          "name": "A#3",
          "ticks": 91392,
          "time": 70.33312000000001,
          "velocity": 0.968503937007874
        },
        {
          "duration": 0.27776999999998964,
          "durationTicks": 384,
          "midi": 63,
          "name": "D#4",
          "ticks": 91392,
          "time": 70.33312000000001,
          "velocity": 0.968503937007874
        },
        {
          "duration": 0.13888500000000192,
          "durationTicks": 192,
          "midi": 46,
          "name": "A#2",
          "ticks": 92352,
          "time": 71.027545,
          "velocity": 0.968503937007874
        },
        {
          "duration": 0.13888500000000192,
          "durationTicks": 192,
          "midi": 46,
          "name": "A#2",
          "ticks": 92352,
          "time": 71.027545,
          "velocity": 0.968503937007874
        },
        {
          "duration": 0.13888500000000192,
          "durationTicks": 192,
          "midi": 46,
          "name": "A#2",
          "ticks": 92544,
          "time": 71.16643,
          "velocity": 0.968503937007874
        },
        {
          "duration": 0.13888500000000192,
          "durationTicks": 192,
          "midi": 46,
          "name": "A#2",
          "ticks": 92544,
          "time": 71.16643,
          "velocity": 0.968503937007874
        },
        {
          "duration": 0.1388849999999877,
          "durationTicks": 192,
          "midi": 46,
          "name": "A#2",
          "ticks": 92736,
          "time": 71.30531500000001,
          "velocity": 0.968503937007874
        },
        {
          "duration": 0.1388849999999877,
          "durationTicks": 192,
          "midi": 46,
          "name": "A#2",
          "ticks": 92736,
          "time": 71.30531500000001,
          "velocity": 0.968503937007874
        },
        {
          "duration": 0.27777000000000385,
          "durationTicks": 384,
          "midi": 51,
          "name": "D#3",
          "ticks": 92928,
          "time": 71.4442,
          "velocity": 0.968503937007874
        },
        {
          "duration": 0.27777000000000385,
          "durationTicks": 384,
          "midi": 51,
          "name": "D#3",
          "ticks": 92928,
          "time": 71.4442,
          "velocity": 0.968503937007874
        },
        {
          "duration": 2.264080000000007,
          "durationTicks": 3072,
          "midi": 60,
          "name": "C4",
          "ticks": 99840,
          "time": 77.67684,
          "velocity": 0.7165354330708661
        },
        {
          "duration": 2.264080000000007,
          "durationTicks": 3072,
          "midi": 60,
          "name": "C4",
          "ticks": 99840,
          "time": 77.67684,
          "velocity": 0.7165354330708661
        },
        {
          "duration": 2.2640799999999928,
          "durationTicks": 3072,
          "midi": 59,
          "name": "B3",
          "ticks": 102912,
          "time": 79.94092,
          "velocity": 0.7165354330708661
        },
        {
          "duration": 2.2640799999999928,
          "durationTicks": 3072,
          "midi": 59,
          "name": "B3",
          "ticks": 102912,
          "time": 79.94092,
          "velocity": 0.7165354330708661
        },
        {
          "duration": 0.5660200000000088,
          "durationTicks": 768,
          "midi": 60,
          "name": "C4",
          "ticks": 105984,
          "time": 82.205,
          "velocity": 0.7165354330708661
        },
        {
          "duration": 0.5660200000000088,
          "durationTicks": 768,
          "midi": 60,
          "name": "C4",
          "ticks": 105984,
          "time": 82.205,
          "velocity": 0.7165354330708661
        },
        {
          "duration": 0.5660199999999946,
          "durationTicks": 768,
          "midi": 59,
          "name": "B3",
          "ticks": 106752,
          "time": 82.77102000000001,
          "velocity": 0.7165354330708661
        },
        {
          "duration": 0.5660199999999946,
          "durationTicks": 768,
          "midi": 59,
          "name": "B3",
          "ticks": 106752,
          "time": 82.77102000000001,
          "velocity": 0.7165354330708661
        },
        {
          "duration": 0.5660200000000088,
          "durationTicks": 768,
          "midi": 60,
          "name": "C4",
          "ticks": 107520,
          "time": 83.33704,
          "velocity": 0.7165354330708661
        },
        {
          "duration": 0.5660200000000088,
          "durationTicks": 768,
          "midi": 60,
          "name": "C4",
          "ticks": 107520,
          "time": 83.33704,
          "velocity": 0.7165354330708661
        },
        {
          "duration": 0.1415049999999951,
          "durationTicks": 192,
          "midi": 59,
          "name": "B3",
          "ticks": 108288,
          "time": 83.90306000000001,
          "velocity": 0.7165354330708661
        },
        {
          "duration": 0.1415049999999951,
          "durationTicks": 192,
          "midi": 59,
          "name": "B3",
          "ticks": 108288,
          "time": 83.90306000000001,
          "velocity": 0.7165354330708661
        },
        {
          "duration": 0.1415049999999951,
          "durationTicks": 192,
          "midi": 59,
          "name": "B3",
          "ticks": 108480,
          "time": 84.044565,
          "velocity": 0.7165354330708661
        },
        {
          "duration": 0.1415049999999951,
          "durationTicks": 192,
          "midi": 59,
          "name": "B3",
          "ticks": 108480,
          "time": 84.044565,
          "velocity": 0.7165354330708661
        },
        {
          "duration": 0.1415049999999951,
          "durationTicks": 192,
          "midi": 59,
          "name": "B3",
          "ticks": 108672,
          "time": 84.18607,
          "velocity": 0.7952755905511811
        },
        {
          "duration": 0.1415049999999951,
          "durationTicks": 192,
          "midi": 59,
          "name": "B3",
          "ticks": 108672,
          "time": 84.18607,
          "velocity": 0.7952755905511811
        },
        {
          "duration": 0.14150500000000932,
          "durationTicks": 192,
          "midi": 59,
          "name": "B3",
          "ticks": 108864,
          "time": 84.327575,
          "velocity": 0.8582677165354331
        },
        {
          "duration": 0.14150500000000932,
          "durationTicks": 192,
          "midi": 59,
          "name": "B3",
          "ticks": 108864,
          "time": 84.327575,
          "velocity": 0.8582677165354331
        },
        {
          "duration": 0.2830100000000044,
          "durationTicks": 384,
          "midi": 60,
          "name": "C4",
          "ticks": 109056,
          "time": 84.46908,
          "velocity": 0.905511811023622
        },
        {
          "duration": 0.2830100000000044,
          "durationTicks": 384,
          "midi": 60,
          "name": "C4",
          "ticks": 109056,
          "time": 84.46908,
          "velocity": 0.905511811023622
        },
        {
          "duration": 0.2830100000000044,
          "durationTicks": 384,
          "midi": 44,
          "name": "G#2",
          "ticks": 109824,
          "time": 85.0351,
          "velocity": 0.905511811023622
        },
        {
          "duration": 0.2830100000000044,
          "durationTicks": 384,
          "midi": 44,
          "name": "G#2",
          "ticks": 109824,
          "time": 85.0351,
          "velocity": 0.905511811023622
        },
        {
          "duration": 0.2830099999999902,
          "durationTicks": 384,
          "midi": 43,
          "name": "G2",
          "ticks": 110592,
          "time": 85.60112000000001,
          "velocity": 0.905511811023622
        },
        {
          "duration": 0.2830099999999902,
          "durationTicks": 384,
          "midi": 43,
          "name": "G2",
          "ticks": 110592,
          "time": 85.60112000000001,
          "velocity": 0.905511811023622
        },
        {
          "duration": 0.1428549999999973,
          "durationTicks": 192,
          "midi": 44,
          "name": "G#2",
          "ticks": 111552,
          "time": 87.226985,
          "velocity": 0.968503937007874
        },
        {
          "duration": 0.1428549999999973,
          "durationTicks": 192,
          "midi": 44,
          "name": "G#2",
          "ticks": 111552,
          "time": 87.226985,
          "velocity": 0.968503937007874
        },
        {
          "duration": 0.1428550000000115,
          "durationTicks": 192,
          "midi": 44,
          "name": "G#2",
          "ticks": 111744,
          "time": 87.36984,
          "velocity": 0.968503937007874
        },
        {
          "duration": 0.1428550000000115,
          "durationTicks": 192,
          "midi": 44,
          "name": "G#2",
          "ticks": 111744,
          "time": 87.36984,
          "velocity": 0.968503937007874
        },
        {
          "duration": 0.1428549999999973,
          "durationTicks": 192,
          "midi": 44,
          "name": "G#2",
          "ticks": 111936,
          "time": 87.51269500000001,
          "velocity": 0.968503937007874
        },
        {
          "duration": 0.1428549999999973,
          "durationTicks": 192,
          "midi": 44,
          "name": "G#2",
          "ticks": 111936,
          "time": 87.51269500000001,
          "velocity": 0.968503937007874
        },
        {
          "duration": 1.9047400000000039,
          "durationTicks": 1536,
          "midi": 41,
          "name": "F2",
          "ticks": 112128,
          "time": 87.65555,
          "velocity": 0.968503937007874
        },
        {
          "duration": 1.9047400000000039,
          "durationTicks": 1536,
          "midi": 41,
          "name": "F2",
          "ticks": 112128,
          "time": 87.65555,
          "velocity": 0.968503937007874
        },
        {
          "duration": 0.8490299999999991,
          "durationTicks": 1152,
          "midi": 63,
          "name": "D#4",
          "ticks": 122112,
          "time": 95.84591,
          "velocity": 0.968503937007874
        },
        {
          "duration": 0.8490299999999991,
          "durationTicks": 1152,
          "midi": 67,
          "name": "G4",
          "ticks": 122112,
          "time": 95.84591,
          "velocity": 0.968503937007874
        },
        {
          "duration": 0.2830099999999902,
          "durationTicks": 384,
          "midi": 59,
          "name": "B3",
          "ticks": 123648,
          "time": 96.97795,
          "velocity": 0.968503937007874
        },
        {
          "duration": 0.2830099999999902,
          "durationTicks": 384,
          "midi": 59,
          "name": "B3",
          "ticks": 123648,
          "time": 96.97795,
          "velocity": 0.968503937007874
        },
        {
          "duration": 0.2830100000000044,
          "durationTicks": 384,
          "midi": 48,
          "name": "C3",
          "ticks": 124416,
          "time": 97.54397,
          "velocity": 0.968503937007874
        },
        {
          "duration": 0.2830100000000044,
          "durationTicks": 384,
          "midi": 58,
          "name": "A#3",
          "ticks": 124416,
          "time": 97.54397,
          "velocity": 0.968503937007874
        },
        {
          "duration": 0.2803700000000049,
          "durationTicks": 384,
          "midi": 48,
          "name": "C3",
          "ticks": 125184,
          "time": 98.10999000000001,
          "velocity": 0.968503937007874
        },
        {
          "duration": 0.2803700000000049,
          "durationTicks": 384,
          "midi": 56,
          "name": "G#3",
          "ticks": 125184,
          "time": 98.10999000000001,
          "velocity": 0.968503937007874
        },
        {
          "duration": 0.2803700000000049,
          "durationTicks": 384,
          "midi": 48,
          "name": "C3",
          "ticks": 125952,
          "time": 98.67073,
          "velocity": 0.968503937007874
        },
        {
          "duration": 0.2803700000000049,
          "durationTicks": 384,
          "midi": 52,
          "name": "E3",
          "ticks": 125952,
          "time": 98.67073,
          "velocity": 0.968503937007874
        },
        {
          "duration": 0.2803699999999907,
          "durationTicks": 384,
          "midi": 48,
          "name": "C3",
          "ticks": 126720,
          "time": 99.23147000000002,
          "velocity": 0.968503937007874
        },
        {
          "duration": 0.2803699999999907,
          "durationTicks": 384,
          "midi": 53,
          "name": "F3",
          "ticks": 126720,
          "time": 99.23147000000002,
          "velocity": 0.968503937007874
        },
        {
          "duration": 0.2803700000000049,
          "durationTicks": 384,
          "midi": 48,
          "name": "C3",
          "ticks": 127488,
          "time": 99.79221000000001,
          "velocity": 0.968503937007874
        },
        {
          "duration": 0.2803700000000049,
          "durationTicks": 384,
          "midi": 60,
          "name": "C4",
          "ticks": 127488,
          "time": 99.79221000000001,
          "velocity": 0.968503937007874
        },
        {
          "duration": 2.2221600000000024,
          "durationTicks": 3072,
          "midi": 48,
          "name": "C3",
          "ticks": 128256,
          "time": 100.35295,
          "velocity": 0.905511811023622
        },
        {
          "duration": 2.2221600000000024,
          "durationTicks": 3072,
          "midi": 51,
          "name": "D#3",
          "ticks": 128256,
          "time": 100.35295,
          "velocity": 0.905511811023622
        },
        {
          "duration": 1.9443899999999985,
          "durationTicks": 2688,
          "midi": 47,
          "name": "B2",
          "ticks": 131328,
          "time": 102.57511000000001,
          "velocity": 0.905511811023622
        },
        {
          "duration": 1.9443899999999985,
          "durationTicks": 2688,
          "midi": 50,
          "name": "D3",
          "ticks": 131328,
          "time": 102.57511000000001,
          "velocity": 0.905511811023622
        },
        {
          "duration": 0.27777000000000385,
          "durationTicks": 384,
          "midi": 48,
          "name": "C3",
          "ticks": 134016,
          "time": 104.51950000000001,
          "velocity": 0.905511811023622
        },
        {
          "duration": 0.27777000000000385,
          "durationTicks": 384,
          "midi": 51,
          "name": "D#3",
          "ticks": 134016,
          "time": 104.51950000000001,
          "velocity": 0.905511811023622
        },
        {
          "duration": 2.222159999999988,
          "durationTicks": 3072,
          "midi": 51,
          "name": "D#3",
          "ticks": 134400,
          "time": 104.79727000000001,
          "velocity": 0.968503937007874
        },
        {
          "duration": 2.222159999999988,
          "durationTicks": 3072,
          "midi": 57,
          "name": "A3",
          "ticks": 134400,
          "time": 104.79727000000001,
          "velocity": 0.968503937007874
        },
        {
          "duration": 0.27777000000000385,
          "durationTicks": 384,
          "midi": 51,
          "name": "D#3",
          "ticks": 137472,
          "time": 107.01943,
          "velocity": 0.968503937007874
        },
        {
          "duration": 0.27777000000000385,
          "durationTicks": 384,
          "midi": 57,
          "name": "A3",
          "ticks": 137472,
          "time": 107.01943,
          "velocity": 0.968503937007874
        },
        {
          "duration": 0.27777000000000385,
          "durationTicks": 384,
          "midi": 50,
          "name": "D3",
          "ticks": 139008,
          "time": 108.13051,
          "velocity": 0.968503937007874
        },
        {
          "duration": 0.27777000000000385,
          "durationTicks": 384,
          "midi": 53,
          "name": "F3",
          "ticks": 139008,
          "time": 108.13051,
          "velocity": 0.968503937007874
        },
        {
          "duration": 0.5769200000000012,
          "durationTicks": 768,
          "midi": 55,
          "name": "G3",
          "ticks": 145920,
          "time": 113.30141,
          "velocity": 0.7165354330708661
        },
        {
          "duration": 0.5769200000000012,
          "durationTicks": 768,
          "midi": 58,
          "name": "A#3",
          "ticks": 145920,
          "time": 113.30141,
          "velocity": 0.7165354330708661
        },
        {
          "duration": 0.5660199999999946,
          "durationTicks": 768,
          "midi": 53,
          "name": "F3",
          "ticks": 146688,
          "time": 113.87833,
          "velocity": 0.7165354330708661
        },
        {
          "duration": 0.5660199999999946,
          "durationTicks": 768,
          "midi": 56,
          "name": "G#3",
          "ticks": 146688,
          "time": 113.87833,
          "velocity": 0.7165354330708661
        },
        {
          "duration": 0.5660200000000088,
          "durationTicks": 768,
          "midi": 46,
          "name": "A#2",
          "ticks": 147456,
          "time": 114.44435,
          "velocity": 0.7165354330708661
        },
        {
          "duration": 0.5660200000000088,
          "durationTicks": 768,
          "midi": 53,
          "name": "F3",
          "ticks": 147456,
          "time": 114.44435,
          "velocity": 0.7165354330708661
        },
        {
          "duration": 0.5660199999999946,
          "durationTicks": 768,
          "midi": 51,
          "name": "D#3",
          "ticks": 148224,
          "time": 115.01037000000001,
          "velocity": 0.7165354330708661
        },
        {
          "duration": 0.5660199999999946,
          "durationTicks": 768,
          "midi": 55,
          "name": "G3",
          "ticks": 148224,
          "time": 115.01037000000001,
          "velocity": 0.7165354330708661
        },
        {
          "duration": 0.5660200000000088,
          "durationTicks": 768,
          "midi": 55,
          "name": "G3",
          "ticks": 148992,
          "time": 115.57639,
          "velocity": 0.7165354330708661
        },
        {
          "duration": 0.5660200000000088,
          "durationTicks": 768,
          "midi": 58,
          "name": "A#3",
          "ticks": 148992,
          "time": 115.57639,
          "velocity": 0.7165354330708661
        },
        {
          "duration": 0.5555399999999935,
          "durationTicks": 768,
          "midi": 53,
          "name": "F3",
          "ticks": 149760,
          "time": 116.14241000000001,
          "velocity": 0.7165354330708661
        },
        {
          "duration": 0.5555399999999935,
          "durationTicks": 768,
          "midi": 56,
          "name": "G#3",
          "ticks": 149760,
          "time": 116.14241000000001,
          "velocity": 0.7165354330708661
        },
        {
          "duration": 0.5555400000000077,
          "durationTicks": 768,
          "midi": 46,
          "name": "A#2",
          "ticks": 150528,
          "time": 116.69795,
          "velocity": 0.7165354330708661
        },
        {
          "duration": 0.5555400000000077,
          "durationTicks": 768,
          "midi": 53,
          "name": "F3",
          "ticks": 150528,
          "time": 116.69795,
          "velocity": 0.7165354330708661
        },
        {
          "duration": 0.5555399999999935,
          "durationTicks": 768,
          "midi": 51,
          "name": "D#3",
          "ticks": 151296,
          "time": 117.25349000000001,
          "velocity": 0.7165354330708661
        },
        {
          "duration": 0.5555399999999935,
          "durationTicks": 768,
          "midi": 55,
          "name": "G3",
          "ticks": 151296,
          "time": 117.25349000000001,
          "velocity": 0.7165354330708661
        },
        {
          "duration": 0.5555400000000077,
          "durationTicks": 768,
          "midi": 55,
          "name": "G3",
          "ticks": 152064,
          "time": 117.80903,
          "velocity": 0.7165354330708661
        },
        {
          "duration": 0.5555400000000077,
          "durationTicks": 768,
          "midi": 58,
          "name": "A#3",
          "ticks": 152064,
          "time": 117.80903,
          "velocity": 0.7165354330708661
        },
        {
          "duration": 0.5555399999999935,
          "durationTicks": 768,
          "midi": 52,
          "name": "E3",
          "ticks": 152832,
          "time": 118.36457000000001,
          "velocity": 0.7165354330708661
        },
        {
          "duration": 0.5555399999999935,
          "durationTicks": 768,
          "midi": 55,
          "name": "G3",
          "ticks": 152832,
          "time": 118.36457000000001,
          "velocity": 0.7165354330708661
        },
        {
          "duration": 0.5555400000000077,
          "durationTicks": 768,
          "midi": 48,
          "name": "C3",
          "ticks": 153600,
          "time": 118.92011000000001,
          "velocity": 0.7165354330708661
        },
        {
          "duration": 0.5555400000000077,
          "durationTicks": 768,
          "midi": 52,
          "name": "E3",
          "ticks": 153600,
          "time": 118.92011000000001,
          "velocity": 0.7165354330708661
        },
        {
          "duration": 0.5555399999999935,
          "durationTicks": 768,
          "midi": 53,
          "name": "F3",
          "ticks": 154368,
          "time": 119.47565000000002,
          "velocity": 0.7165354330708661
        },
        {
          "duration": 0.5555399999999935,
          "durationTicks": 768,
          "midi": 56,
          "name": "G#3",
          "ticks": 154368,
          "time": 119.47565000000002,
          "velocity": 0.7165354330708661
        },
        {
          "duration": 0.5555400000000077,
          "durationTicks": 768,
          "midi": 56,
          "name": "G#3",
          "ticks": 155136,
          "time": 120.03119000000001,
          "velocity": 0.7165354330708661
        },
        {
          "duration": 0.5555400000000077,
          "durationTicks": 768,
          "midi": 61,
          "name": "C#4",
          "ticks": 155136,
          "time": 120.03119000000001,
          "velocity": 0.7165354330708661
        },
        {
          "duration": 0.5555399999999935,
          "durationTicks": 768,
          "midi": 55,
          "name": "G3",
          "ticks": 155904,
          "time": 120.58673000000002,
          "velocity": 0.7165354330708661
        },
        {
          "duration": 0.5555399999999935,
          "durationTicks": 768,
          "midi": 58,
          "name": "A#3",
          "ticks": 155904,
          "time": 120.58673000000002,
          "velocity": 0.7165354330708661
        },
        {
          "duration": 0.5555400000000077,
          "durationTicks": 768,
          "midi": 51,
          "name": "D#3",
          "ticks": 156672,
          "time": 121.14227000000001,
          "velocity": 0.7165354330708661
        },
        {
          "duration": 0.5555400000000077,
          "durationTicks": 768,
          "midi": 55,
          "name": "G3",
          "ticks": 156672,
          "time": 121.14227000000001,
          "velocity": 0.7165354330708661
        },
        {
          "duration": 0.5555399999999935,
          "durationTicks": 768,
          "midi": 56,
          "name": "G#3",
          "ticks": 157440,
          "time": 121.69781000000002,
          "velocity": 0.7165354330708661
        },
        {
          "duration": 0.5555399999999935,
          "durationTicks": 768,
          "midi": 60,
          "name": "C4",
          "ticks": 157440,
          "time": 121.69781000000002,
          "velocity": 0.7165354330708661
        },
        {
          "duration": 0.5555400000000077,
          "durationTicks": 768,
          "midi": 44,
          "name": "G#2",
          "ticks": 158208,
          "time": 122.25335000000001,
          "velocity": 0.7165354330708661
        },
        {
          "duration": 0.5555400000000077,
          "durationTicks": 768,
          "midi": 56,
          "name": "G#3",
          "ticks": 158208,
          "time": 122.25335000000001,
          "velocity": 0.7165354330708661
        },
        {
          "duration": 1.111079999999987,
          "durationTicks": 1536,
          "midi": 45,
          "name": "A2",
          "ticks": 158976,
          "time": 122.80889000000002,
          "velocity": 0.7165354330708661
        },
        {
          "duration": 1.111079999999987,
          "durationTicks": 1536,
          "midi": 57,
          "name": "A3",
          "ticks": 158976,
          "time": 122.80889000000002,
          "velocity": 0.7165354330708661
        },
        {
          "duration": 1.1110800000000012,
          "durationTicks": 1536,
          "midi": 46,
          "name": "A#2",
          "ticks": 160512,
          "time": 123.91997,
          "velocity": 0.7165354330708661
        },
        {
          "duration": 1.1110800000000012,
          "durationTicks": 1536,
          "midi": 58,
          "name": "A#3",
          "ticks": 160512,
          "time": 123.91997,
          "velocity": 0.7165354330708661
        },
        {
          "duration": 1.1110800000000012,
          "durationTicks": 1536,
          "midi": 47,
          "name": "B2",
          "ticks": 162048,
          "time": 125.03105000000001,
          "velocity": 0.7165354330708661
        },
        {
          "duration": 1.1110800000000012,
          "durationTicks": 1536,
          "midi": 59,
          "name": "B3",
          "ticks": 162048,
          "time": 125.03105000000001,
          "velocity": 0.7165354330708661
        },
        {
          "duration": 1.388850000000005,
          "durationTicks": 1920,
          "midi": 48,
          "name": "C3",
          "ticks": 163584,
          "time": 126.14213000000001,
          "velocity": 0.7165354330708661
        },
        {
          "duration": 1.388850000000005,
          "durationTicks": 1920,
          "midi": 60,
          "name": "C4",
          "ticks": 163584,
          "time": 126.14213000000001,
          "velocity": 0.7165354330708661
        },
        {
          "duration": 0.27777000000000385,
          "durationTicks": 384,
          "midi": 48,
          "name": "C3",
          "ticks": 165504,
          "time": 127.53098000000001,
          "velocity": 0.8582677165354331
        },
        {
          "duration": 0.27777000000000385,
          "durationTicks": 384,
          "midi": 60,
          "name": "C4",
          "ticks": 165504,
          "time": 127.53098000000001,
          "velocity": 0.8582677165354331
        },
        {
          "duration": 0.27776999999998964,
          "durationTicks": 384,
          "midi": 48,
          "name": "C3",
          "ticks": 165888,
          "time": 127.80875000000002,
          "velocity": 0.905511811023622
        },
        {
          "duration": 0.27776999999998964,
          "durationTicks": 384,
          "midi": 60,
          "name": "C4",
          "ticks": 165888,
          "time": 127.80875000000002,
          "velocity": 0.905511811023622
        },
        {
          "duration": 0.27777000000000385,
          "durationTicks": 384,
          "midi": 48,
          "name": "C3",
          "ticks": 166272,
          "time": 128.08652,
          "velocity": 0.905511811023622
        },
        {
          "duration": 0.27777000000000385,
          "durationTicks": 384,
          "midi": 60,
          "name": "C4",
          "ticks": 166272,
          "time": 128.08652,
          "velocity": 0.905511811023622
        },
        {
          "duration": 0.8333100000000115,
          "durationTicks": 1152,
          "midi": 50,
          "name": "D3",
          "ticks": 166656,
          "time": 128.36429,
          "velocity": 0.968503937007874
        },
        {
          "duration": 0.8333100000000115,
          "durationTicks": 1152,
          "midi": 62,
          "name": "D4",
          "ticks": 166656,
          "time": 128.36429,
          "velocity": 0.968503937007874
        },
        {
          "duration": 0.2777699999999754,
          "durationTicks": 384,
          "midi": 50,
          "name": "D3",
          "ticks": 167808,
          "time": 129.19760000000002,
          "velocity": 0.968503937007874
        },
        {
          "duration": 0.2777699999999754,
          "durationTicks": 384,
          "midi": 53,
          "name": "F3",
          "ticks": 167808,
          "time": 129.19760000000002,
          "velocity": 0.968503937007874
        },
        {
          "duration": 0.27777000000000385,
          "durationTicks": 384,
          "midi": 51,
          "name": "D#3",
          "ticks": 168192,
          "time": 129.47537,
          "velocity": 0.968503937007874
        },
        {
          "duration": 0.27777000000000385,
          "durationTicks": 384,
          "midi": 55,
          "name": "G3",
          "ticks": 168192,
          "time": 129.47537,
          "velocity": 0.968503937007874
        },
        {
          "duration": 0.27777000000000385,
          "durationTicks": 384,
          "midi": 53,
          "name": "F3",
          "ticks": 168960,
          "time": 130.03091,
          "velocity": 0.968503937007874
        },
        {
          "duration": 0.27777000000000385,
          "durationTicks": 384,
          "midi": 56,
          "name": "G#3",
          "ticks": 168960,
          "time": 130.03091,
          "velocity": 0.968503937007874
        },
        {
          "duration": 0.27777000000000385,
          "durationTicks": 384,
          "midi": 55,
          "name": "G3",
          "ticks": 169728,
          "time": 130.58645,
          "velocity": 0.968503937007874
        },
        {
          "duration": 0.27777000000000385,
          "durationTicks": 384,
          "midi": 58,
          "name": "A#3",
          "ticks": 169728,
          "time": 130.58645,
          "velocity": 0.968503937007874
        },
        {
          "duration": 0.27777000000000385,
          "durationTicks": 384,
          "midi": 56,
          "name": "G#3",
          "ticks": 170496,
          "time": 131.14199000000002,
          "velocity": 0.968503937007874
        },
        {
          "duration": 0.27777000000000385,
          "durationTicks": 384,
          "midi": 60,
          "name": "C4",
          "ticks": 170496,
          "time": 131.14199000000002,
          "velocity": 0.968503937007874
        },
        {
          "duration": 0.27777000000000385,
          "durationTicks": 384,
          "midi": 58,
          "name": "A#3",
          "ticks": 171264,
          "time": 131.69753,
          "velocity": 0.968503937007874
        },
        {
          "duration": 0.27777000000000385,
          "durationTicks": 384,
          "midi": 58,
          "name": "A#3",
          "ticks": 171264,
          "time": 131.69753,
          "velocity": 0.968503937007874
        },
        {
          "duration": 0.27777000000000385,
          "durationTicks": 384,
          "midi": 46,
          "name": "A#2",
          "ticks": 172032,
          "time": 132.25307,
          "velocity": 0.968503937007874
        },
        {
          "duration": 0.27777000000000385,
          "durationTicks": 384,
          "midi": 46,
          "name": "A#2",
          "ticks": 172032,
          "time": 132.25307,
          "velocity": 0.968503937007874
        },
        {
          "duration": 0.8333100000000115,
          "durationTicks": 1152,
          "midi": 65,
          "name": "F4",
          "ticks": 172800,
          "time": 132.80861000000002,
          "velocity": 0.968503937007874
        },
        {
          "duration": 0.8333100000000115,
          "durationTicks": 1152,
          "midi": 68,
          "name": "G#4",
          "ticks": 172800,
          "time": 132.80861000000002,
          "velocity": 0.968503937007874
        },
        {
          "duration": 0.2777699999999754,
          "durationTicks": 384,
          "midi": 58,
          "name": "A#3",
          "ticks": 173952,
          "time": 133.64192000000003,
          "velocity": 0.968503937007874
        },
        {
          "duration": 0.2777699999999754,
          "durationTicks": 384,
          "midi": 65,
          "name": "F4",
          "ticks": 173952,
          "time": 133.64192000000003,
          "velocity": 0.968503937007874
        },
        {
          "duration": 0.27777000000000385,
          "durationTicks": 384,
          "midi": 63,
          "name": "D#4",
          "ticks": 174336,
          "time": 133.91969,
          "velocity": 0.968503937007874
        },
        {
          "duration": 0.27777000000000385,
          "durationTicks": 384,
          "midi": 67,
          "name": "G4",
          "ticks": 174336,
          "time": 133.91969,
          "velocity": 0.968503937007874
        },
        {
          "duration": 0.27777000000000385,
          "durationTicks": 384,
          "midi": 63,
          "name": "D#4",
          "ticks": 174720,
          "time": 134.19746,
          "velocity": 0.968503937007874
        },
        {
          "duration": 0.27777000000000385,
          "durationTicks": 384,
          "midi": 67,
          "name": "G4",
          "ticks": 174720,
          "time": 134.19746,
          "velocity": 0.968503937007874
        },
        {
          "duration": 0.27777000000000385,
          "durationTicks": 384,
          "midi": 58,
          "name": "A#3",
          "ticks": 175488,
          "time": 134.75300000000001,
          "velocity": 0.968503937007874
        },
        {
          "duration": 0.27777000000000385,
          "durationTicks": 384,
          "midi": 65,
          "name": "F4",
          "ticks": 175488,
          "time": 134.75300000000001,
          "velocity": 0.968503937007874
        },
        {
          "duration": 0.27777000000000385,
          "durationTicks": 384,
          "midi": 58,
          "name": "A#3",
          "ticks": 176256,
          "time": 135.30854000000002,
          "velocity": 0.968503937007874
        },
        {
          "duration": 0.27777000000000385,
          "durationTicks": 384,
          "midi": 63,
          "name": "D#4",
          "ticks": 176256,
          "time": 135.30854000000002,
          "velocity": 0.968503937007874
        },
        {
          "duration": 0.27777000000000385,
          "durationTicks": 384,
          "midi": 56,
          "name": "G#3",
          "ticks": 177024,
          "time": 135.86408,
          "velocity": 0.968503937007874
        },
        {
          "duration": 0.27777000000000385,
          "durationTicks": 384,
          "midi": 60,
          "name": "C4",
          "ticks": 177024,
          "time": 135.86408,
          "velocity": 0.968503937007874
        },
        {
          "duration": 0.27777000000000385,
          "durationTicks": 384,
          "midi": 55,
          "name": "G3",
          "ticks": 177792,
          "time": 136.41962,
          "velocity": 0.968503937007874
        },
        {
          "duration": 0.27777000000000385,
          "durationTicks": 384,
          "midi": 58,
          "name": "A#3",
          "ticks": 177792,
          "time": 136.41962,
          "velocity": 0.968503937007874
        },
        {
          "duration": 0.27777000000000385,
          "durationTicks": 384,
          "midi": 46,
          "name": "A#2",
          "ticks": 178560,
          "time": 136.97516000000002,
          "velocity": 0.968503937007874
        },
        {
          "duration": 0.27777000000000385,
          "durationTicks": 384,
          "midi": 58,
          "name": "A#3",
          "ticks": 178560,
          "time": 136.97516000000002,
          "velocity": 0.968503937007874
        },
        {
          "duration": 0.1388849999999877,
          "durationTicks": 192,
          "midi": 51,
          "name": "D#3",
          "ticks": 178944,
          "time": 137.25293000000002,
          "velocity": 0.968503937007874
        },
        {
          "duration": 0.1388849999999877,
          "durationTicks": 192,
          "midi": 63,
          "name": "D#4",
          "ticks": 178944,
          "time": 137.25293000000002,
          "velocity": 0.968503937007874
        },
        {
          "duration": 0.13888500000001613,
          "durationTicks": 192,
          "midi": 67,
          "name": "G4",
          "ticks": 179136,
          "time": 137.391815,
          "velocity": 0.968503937007874
        },
        {
          "duration": 0.13888500000001613,
          "durationTicks": 192,
          "midi": 67,
          "name": "G4",
          "ticks": 179136,
          "time": 137.391815,
          "velocity": 0.968503937007874
        },
        {
          "duration": 0.1388849999999877,
          "durationTicks": 192,
          "midi": 67,
          "name": "G4",
          "ticks": 179328,
          "time": 137.53070000000002,
          "velocity": 0.968503937007874
        },
        {
          "duration": 0.1388849999999877,
          "durationTicks": 192,
          "midi": 67,
          "name": "G4",
          "ticks": 179328,
          "time": 137.53070000000002,
          "velocity": 0.968503937007874
        },
        {
          "duration": 0.1388849999999877,
          "durationTicks": 192,
          "midi": 67,
          "name": "G4",
          "ticks": 179520,
          "time": 137.669585,
          "velocity": 0.968503937007874
        },
        {
          "duration": 0.1388849999999877,
          "durationTicks": 192,
          "midi": 67,
          "name": "G4",
          "ticks": 179520,
          "time": 137.669585,
          "velocity": 0.968503937007874
        },
        {
          "duration": 0.13888500000001613,
          "durationTicks": 192,
          "midi": 63,
          "name": "D#4",
          "ticks": 179712,
          "time": 137.80847,
          "velocity": 0.968503937007874
        },
        {
          "duration": 0.13888500000001613,
          "durationTicks": 192,
          "midi": 63,
          "name": "D#4",
          "ticks": 179712,
          "time": 137.80847,
          "velocity": 0.968503937007874
        },
        {
          "duration": 0.1388849999999877,
          "durationTicks": 192,
          "midi": 58,
          "name": "A#3",
          "ticks": 179904,
          "time": 137.94735500000002,
          "velocity": 0.968503937007874
        },
        {
          "duration": 0.1388849999999877,
          "durationTicks": 192,
          "midi": 58,
          "name": "A#3",
          "ticks": 179904,
          "time": 137.94735500000002,
          "velocity": 0.968503937007874
        },
        {
          "duration": 0.13888500000001613,
          "durationTicks": 192,
          "midi": 58,
          "name": "A#3",
          "ticks": 180096,
          "time": 138.08624,
          "velocity": 0.968503937007874
        },
        {
          "duration": 0.13888500000001613,
          "durationTicks": 192,
          "midi": 58,
          "name": "A#3",
          "ticks": 180096,
          "time": 138.08624,
          "velocity": 0.968503937007874
        },
        {
          "duration": 0.1388849999999877,
          "durationTicks": 192,
          "midi": 58,
          "name": "A#3",
          "ticks": 180288,
          "time": 138.22512500000002,
          "velocity": 0.968503937007874
        },
        {
          "duration": 0.1388849999999877,
          "durationTicks": 192,
          "midi": 58,
          "name": "A#3",
          "ticks": 180288,
          "time": 138.22512500000002,
          "velocity": 0.968503937007874
        },
        {
          "duration": 0.13888500000001613,
          "durationTicks": 192,
          "midi": 55,
          "name": "G3",
          "ticks": 180480,
          "time": 138.36401,
          "velocity": 0.968503937007874
        },
        {
          "duration": 0.13888500000001613,
          "durationTicks": 192,
          "midi": 55,
          "name": "G3",
          "ticks": 180480,
          "time": 138.36401,
          "velocity": 0.968503937007874
        },
        {
          "duration": 0.1388849999999877,
          "durationTicks": 192,
          "midi": 51,
          "name": "D#3",
          "ticks": 180672,
          "time": 138.50289500000002,
          "velocity": 0.968503937007874
        },
        {
          "duration": 0.1388849999999877,
          "durationTicks": 192,
          "midi": 51,
          "name": "D#3",
          "ticks": 180672,
          "time": 138.50289500000002,
          "velocity": 0.968503937007874
        },
        {
          "duration": 0.1388849999999877,
          "durationTicks": 192,
          "midi": 51,
          "name": "D#3",
          "ticks": 180864,
          "time": 138.64178,
          "velocity": 0.968503937007874
        },
        {
          "duration": 0.1388849999999877,
          "durationTicks": 192,
          "midi": 51,
          "name": "D#3",
          "ticks": 180864,
          "time": 138.64178,
          "velocity": 0.968503937007874
        },
        {
          "duration": 0.13888500000001613,
          "durationTicks": 192,
          "midi": 51,
          "name": "D#3",
          "ticks": 181056,
          "time": 138.780665,
          "velocity": 0.968503937007874
        },
        {
          "duration": 0.13888500000001613,
          "durationTicks": 192,
          "midi": 51,
          "name": "D#3",
          "ticks": 181056,
          "time": 138.780665,
          "velocity": 0.968503937007874
        },
        {
          "duration": 0.6944249999999954,
          "durationTicks": 960,
          "midi": 46,
          "name": "A#2",
          "ticks": 181248,
          "time": 138.91955000000002,
          "velocity": 0.968503937007874
        },
        {
          "duration": 0.6944249999999954,
          "durationTicks": 960,
          "midi": 46,
          "name": "A#2",
          "ticks": 181248,
          "time": 138.91955000000002,
          "velocity": 0.968503937007874
        },
        {
          "duration": 0.1388849999999877,
          "durationTicks": 192,
          "midi": 67,
          "name": "G4",
          "ticks": 182208,
          "time": 139.613975,
          "velocity": 0.968503937007874
        },
        {
          "duration": 0.1388849999999877,
          "durationTicks": 192,
          "midi": 67,
          "name": "G4",
          "ticks": 182208,
          "time": 139.613975,
          "velocity": 0.968503937007874
        },
        {
          "duration": 0.13888500000001613,
          "durationTicks": 192,
          "midi": 67,
          "name": "G4",
          "ticks": 182400,
          "time": 139.75286,
          "velocity": 0.968503937007874
        },
        {
          "duration": 0.13888500000001613,
          "durationTicks": 192,
          "midi": 67,
          "name": "G4",
          "ticks": 182400,
          "time": 139.75286,
          "velocity": 0.968503937007874
        },
        {
          "duration": 0.1388849999999877,
          "durationTicks": 192,
          "midi": 67,
          "name": "G4",
          "ticks": 182592,
          "time": 139.89174500000001,
          "velocity": 0.968503937007874
        },
        {
          "duration": 0.1388849999999877,
          "durationTicks": 192,
          "midi": 67,
          "name": "G4",
          "ticks": 182592,
          "time": 139.89174500000001,
          "velocity": 0.968503937007874
        },
        {
          "duration": 0.13888500000001613,
          "durationTicks": 192,
          "midi": 63,
          "name": "D#4",
          "ticks": 182784,
          "time": 140.03063,
          "velocity": 0.968503937007874
        },
        {
          "duration": 0.13888500000001613,
          "durationTicks": 192,
          "midi": 63,
          "name": "D#4",
          "ticks": 182784,
          "time": 140.03063,
          "velocity": 0.968503937007874
        },
        {
          "duration": 0.1388849999999877,
          "durationTicks": 192,
          "midi": 58,
          "name": "A#3",
          "ticks": 182976,
          "time": 140.16951500000002,
          "velocity": 0.968503937007874
        },
        {
          "duration": 0.1388849999999877,
          "durationTicks": 192,
          "midi": 58,
          "name": "A#3",
          "ticks": 182976,
          "time": 140.16951500000002,
          "velocity": 0.968503937007874
        },
        {
          "duration": 0.13888500000001613,
          "durationTicks": 192,
          "midi": 58,
          "name": "A#3",
          "ticks": 183168,
          "time": 140.3084,
          "velocity": 0.968503937007874
        },
        {
          "duration": 0.13888500000001613,
          "durationTicks": 192,
          "midi": 58,
          "name": "A#3",
          "ticks": 183168,
          "time": 140.3084,
          "velocity": 0.968503937007874
        },
        {
          "duration": 0.1388849999999877,
          "durationTicks": 192,
          "midi": 58,
          "name": "A#3",
          "ticks": 183360,
          "time": 140.44728500000002,
          "velocity": 0.968503937007874
        },
        {
          "duration": 0.1388849999999877,
          "durationTicks": 192,
          "midi": 58,
          "name": "A#3",
          "ticks": 183360,
          "time": 140.44728500000002,
          "velocity": 0.968503937007874
        },
        {
          "duration": 0.13888500000001613,
          "durationTicks": 192,
          "midi": 55,
          "name": "G3",
          "ticks": 183552,
          "time": 140.58617,
          "velocity": 0.968503937007874
        },
        {
          "duration": 0.13888500000001613,
          "durationTicks": 192,
          "midi": 55,
          "name": "G3",
          "ticks": 183552,
          "time": 140.58617,
          "velocity": 0.968503937007874
        },
        {
          "duration": 0.1388849999999877,
          "durationTicks": 192,
          "midi": 51,
          "name": "D#3",
          "ticks": 183744,
          "time": 140.72505500000003,
          "velocity": 0.968503937007874
        },
        {
          "duration": 0.1388849999999877,
          "durationTicks": 192,
          "midi": 51,
          "name": "D#3",
          "ticks": 183744,
          "time": 140.72505500000003,
          "velocity": 0.968503937007874
        },
        {
          "duration": 0.13888500000001613,
          "durationTicks": 192,
          "midi": 51,
          "name": "D#3",
          "ticks": 183936,
          "time": 140.86394,
          "velocity": 0.968503937007874
        },
        {
          "duration": 0.13888500000001613,
          "durationTicks": 192,
          "midi": 51,
          "name": "D#3",
          "ticks": 183936,
          "time": 140.86394,
          "velocity": 0.968503937007874
        },
        {
          "duration": 0.1388849999999877,
          "durationTicks": 192,
          "midi": 51,
          "name": "D#3",
          "ticks": 184128,
          "time": 141.00282500000003,
          "velocity": 0.968503937007874
        },
        {
          "duration": 0.1388849999999877,
          "durationTicks": 192,
          "midi": 51,
          "name": "D#3",
          "ticks": 184128,
          "time": 141.00282500000003,
          "velocity": 0.968503937007874
        },
        {
          "duration": 0.8333100000000115,
          "durationTicks": 1152,
          "midi": 46,
          "name": "A#2",
          "ticks": 184320,
          "time": 141.14171000000002,
          "velocity": 0.968503937007874
        },
        {
          "duration": 0.8333100000000115,
          "durationTicks": 1152,
          "midi": 46,
          "name": "A#2",
          "ticks": 184320,
          "time": 141.14171000000002,
          "velocity": 0.968503937007874
        },
        {
          "duration": 0.1388849999999877,
          "durationTicks": 192,
          "midi": 58,
          "name": "A#3",
          "ticks": 186048,
          "time": 142.39167500000002,
          "velocity": 0.968503937007874
        },
        {
          "duration": 0.1388849999999877,
          "durationTicks": 192,
          "midi": 62,
          "name": "D4",
          "ticks": 186048,
          "time": 142.39167500000002,
          "velocity": 0.968503937007874
        },
        {
          "duration": 0.13888500000001613,
          "durationTicks": 192,
          "midi": 58,
          "name": "A#3",
          "ticks": 186240,
          "time": 142.53056,
          "velocity": 0.968503937007874
        },
        {
          "duration": 0.13888500000001613,
          "durationTicks": 192,
          "midi": 62,
          "name": "D4",
          "ticks": 186240,
          "time": 142.53056,
          "velocity": 0.968503937007874
        },
        {
          "duration": 0.1388849999999877,
          "durationTicks": 192,
          "midi": 58,
          "name": "A#3",
          "ticks": 186432,
          "time": 142.66944500000002,
          "velocity": 0.968503937007874
        },
        {
          "duration": 0.1388849999999877,
          "durationTicks": 192,
          "midi": 62,
          "name": "D4",
          "ticks": 186432,
          "time": 142.66944500000002,
          "velocity": 0.968503937007874
        },
        {
          "duration": 0.27777000000000385,
          "durationTicks": 384,
          "midi": 58,
          "name": "A#3",
          "ticks": 186624,
          "time": 142.80833,
          "velocity": 0.968503937007874
        },
        {
          "duration": 0.27777000000000385,
          "durationTicks": 384,
          "midi": 63,
          "name": "D#4",
          "ticks": 186624,
          "time": 142.80833,
          "velocity": 0.968503937007874
        },
        {
          "duration": 0.13888500000001613,
          "durationTicks": 192,
          "midi": 46,
          "name": "A#2",
          "ticks": 187584,
          "time": 143.502755,
          "velocity": 0.968503937007874
        },
        {
          "duration": 0.13888500000001613,
          "durationTicks": 192,
          "midi": 46,
          "name": "A#2",
          "ticks": 187584,
          "time": 143.502755,
          "velocity": 0.968503937007874
        },
        {
          "duration": 0.1388849999999877,
          "durationTicks": 192,
          "midi": 46,
          "name": "A#2",
          "ticks": 187776,
          "time": 143.64164000000002,
          "velocity": 0.968503937007874
        },
        {
          "duration": 0.1388849999999877,
          "durationTicks": 192,
          "midi": 46,
          "name": "A#2",
          "ticks": 187776,
          "time": 143.64164000000002,
          "velocity": 0.968503937007874
        },
        {
          "duration": 0.13888500000001613,
          "durationTicks": 192,
          "midi": 46,
          "name": "A#2",
          "ticks": 187968,
          "time": 143.780525,
          "velocity": 0.968503937007874
        },
        {
          "duration": 0.13888500000001613,
          "durationTicks": 192,
          "midi": 46,
          "name": "A#2",
          "ticks": 187968,
          "time": 143.780525,
          "velocity": 0.968503937007874
        },
        {
          "duration": 0.2777699999999754,
          "durationTicks": 384,
          "midi": 51,
          "name": "D#3",
          "ticks": 188160,
          "time": 143.91941000000003,
          "velocity": 0.968503937007874
        },
        {
          "duration": 0.2777699999999754,
          "durationTicks": 384,
          "midi": 51,
          "name": "D#3",
          "ticks": 188160,
          "time": 143.91941000000003,
          "velocity": 0.968503937007874
        },
        {
          "duration": 2.126959999999997,
          "durationTicks": 2304,
          "midi": 67,
          "name": "G4",
          "ticks": 191232,
          "time": 146.14157,
          "velocity": 0.968503937007874
        },
        {
          "duration": 2.126959999999997,
          "durationTicks": 2304,
          "midi": 67,
          "name": "G4",
          "ticks": 191232,
          "time": 146.14157,
          "velocity": 0.968503937007874
        },
        {
          "duration": 2.3078800000000115,
          "durationTicks": 3072,
          "midi": 53,
          "name": "F3",
          "ticks": 194304,
          "time": 148.83995000000002,
          "velocity": 0.7165354330708661
        },
        {
          "duration": 2.3078800000000115,
          "durationTicks": 3072,
          "midi": 65,
          "name": "F4",
          "ticks": 194304,
          "time": 148.83995000000002,
          "velocity": 0.7165354330708661
        },
        {
          "duration": 2.3650399999999934,
          "durationTicks": 3072,
          "midi": 52,
          "name": "E3",
          "ticks": 197376,
          "time": 151.14783000000003,
          "velocity": 0.7165354330708661
        },
        {
          "duration": 2.3650399999999934,
          "durationTicks": 3072,
          "midi": 64,
          "name": "E4",
          "ticks": 197376,
          "time": 151.14783000000003,
          "velocity": 0.7165354330708661
        },
        {
          "duration": 0.6000000000000227,
          "durationTicks": 768,
          "midi": 53,
          "name": "F3",
          "ticks": 200448,
          "time": 153.51287000000002,
          "velocity": 0.7165354330708661
        },
        {
          "duration": 0.6000000000000227,
          "durationTicks": 768,
          "midi": 65,
          "name": "F4",
          "ticks": 200448,
          "time": 153.51287000000002,
          "velocity": 0.7165354330708661
        },
        {
          "duration": 0.5999999999999943,
          "durationTicks": 768,
          "midi": 52,
          "name": "E3",
          "ticks": 201216,
          "time": 154.11287000000004,
          "velocity": 0.7165354330708661
        },
        {
          "duration": 0.5999999999999943,
          "durationTicks": 768,
          "midi": 64,
          "name": "E4",
          "ticks": 201216,
          "time": 154.11287000000004,
          "velocity": 0.7165354330708661
        },
        {
          "duration": 0.5999999999999943,
          "durationTicks": 768,
          "midi": 53,
          "name": "F3",
          "ticks": 201984,
          "time": 154.71287000000004,
          "velocity": 0.7165354330708661
        },
        {
          "duration": 0.5999999999999943,
          "durationTicks": 768,
          "midi": 65,
          "name": "F4",
          "ticks": 201984,
          "time": 154.71287000000004,
          "velocity": 0.7165354330708661
        },
        {
          "duration": 0.5999999999999943,
          "durationTicks": 768,
          "midi": 52,
          "name": "E3",
          "ticks": 202752,
          "time": 155.31287000000003,
          "velocity": 0.7165354330708661
        },
        {
          "duration": 0.5999999999999943,
          "durationTicks": 768,
          "midi": 64,
          "name": "E4",
          "ticks": 202752,
          "time": 155.31287000000003,
          "velocity": 0.7165354330708661
        },
        {
          "duration": 0.30000000000001137,
          "durationTicks": 384,
          "midi": 53,
          "name": "F3",
          "ticks": 203520,
          "time": 155.91287000000003,
          "velocity": 0.7165354330708661
        },
        {
          "duration": 0.30000000000001137,
          "durationTicks": 384,
          "midi": 65,
          "name": "F4",
          "ticks": 203520,
          "time": 155.91287000000003,
          "velocity": 0.7165354330708661
        },
        {
          "duration": 0.5999999999999943,
          "durationTicks": 768,
          "midi": 60,
          "name": "C4",
          "ticks": 206592,
          "time": 158.31287000000003,
          "velocity": 0.7165354330708661
        },
        {
          "duration": 0.5999999999999943,
          "durationTicks": 768,
          "midi": 63,
          "name": "D#4",
          "ticks": 206592,
          "time": 158.31287000000003,
          "velocity": 0.7165354330708661
        },
        {
          "duration": 0.5999999999999943,
          "durationTicks": 768,
          "midi": 59,
          "name": "B3",
          "ticks": 207360,
          "time": 158.91287000000003,
          "velocity": 0.7165354330708661
        },
        {
          "duration": 0.5999999999999943,
          "durationTicks": 768,
          "midi": 62,
          "name": "D4",
          "ticks": 207360,
          "time": 158.91287000000003,
          "velocity": 0.7165354330708661
        },
        {
          "duration": 0.6000000000000227,
          "durationTicks": 768,
          "midi": 60,
          "name": "C4",
          "ticks": 208128,
          "time": 159.51287000000002,
          "velocity": 0.7165354330708661
        },
        {
          "duration": 0.6000000000000227,
          "durationTicks": 768,
          "midi": 63,
          "name": "D#4",
          "ticks": 208128,
          "time": 159.51287000000002,
          "velocity": 0.7165354330708661
        },
        {
          "duration": 0.5999999999999943,
          "durationTicks": 768,
          "midi": 59,
          "name": "B3",
          "ticks": 208896,
          "time": 160.11287000000004,
          "velocity": 0.7165354330708661
        },
        {
          "duration": 0.5999999999999943,
          "durationTicks": 768,
          "midi": 62,
          "name": "D4",
          "ticks": 208896,
          "time": 160.11287000000004,
          "velocity": 0.7165354330708661
        },
        {
          "duration": 0.29999999999998295,
          "durationTicks": 384,
          "midi": 60,
          "name": "C4",
          "ticks": 209664,
          "time": 160.71287000000004,
          "velocity": 0.7165354330708661
        },
        {
          "duration": 0.29999999999998295,
          "durationTicks": 384,
          "midi": 63,
          "name": "D#4",
          "ticks": 209664,
          "time": 160.71287000000004,
          "velocity": 0.7165354330708661
        },
        {
          "duration": 0.15000000000000568,
          "durationTicks": 192,
          "midi": 63,
          "name": "D#4",
          "ticks": 210624,
          "time": 161.46287000000004,
          "velocity": 0.7165354330708661
        },
        {
          "duration": 0.15000000000000568,
          "durationTicks": 192,
          "midi": 63,
          "name": "D#4",
          "ticks": 210624,
          "time": 161.46287000000004,
          "velocity": 0.7165354330708661
        },
        {
          "duration": 0.14999999999997726,
          "durationTicks": 192,
          "midi": 63,
          "name": "D#4",
          "ticks": 210816,
          "time": 161.61287000000004,
          "velocity": 0.7165354330708661
        },
        {
          "duration": 0.14999999999997726,
          "durationTicks": 192,
          "midi": 63,
          "name": "D#4",
          "ticks": 210816,
          "time": 161.61287000000004,
          "velocity": 0.7165354330708661
        },
        {
          "duration": 0.15000000000000568,
          "durationTicks": 192,
          "midi": 62,
          "name": "D4",
          "ticks": 211008,
          "time": 161.76287000000002,
          "velocity": 0.7165354330708661
        },
        {
          "duration": 0.15000000000000568,
          "durationTicks": 192,
          "midi": 62,
          "name": "D4",
          "ticks": 211008,
          "time": 161.76287000000002,
          "velocity": 0.7165354330708661
        },
        {
          "duration": 0.15000000000000568,
          "durationTicks": 192,
          "midi": 60,
          "name": "C4",
          "ticks": 211200,
          "time": 161.91287000000003,
          "velocity": 0.7165354330708661
        },
        {
          "duration": 0.15000000000000568,
          "durationTicks": 192,
          "midi": 60,
          "name": "C4",
          "ticks": 211200,
          "time": 161.91287000000003,
          "velocity": 0.7165354330708661
        },
        {
          "duration": 0.15000000000000568,
          "durationTicks": 192,
          "midi": 60,
          "name": "C4",
          "ticks": 211392,
          "time": 162.06287000000003,
          "velocity": 0.7165354330708661
        },
        {
          "duration": 0.15000000000000568,
          "durationTicks": 192,
          "midi": 60,
          "name": "C4",
          "ticks": 211392,
          "time": 162.06287000000003,
          "velocity": 0.7165354330708661
        },
        {
          "duration": 0.15000000000000568,
          "durationTicks": 192,
          "midi": 60,
          "name": "C4",
          "ticks": 211584,
          "time": 162.21287000000004,
          "velocity": 0.7165354330708661
        },
        {
          "duration": 0.15000000000000568,
          "durationTicks": 192,
          "midi": 60,
          "name": "C4",
          "ticks": 211584,
          "time": 162.21287000000004,
          "velocity": 0.7165354330708661
        },
        {
          "duration": 0.14999999999997726,
          "durationTicks": 192,
          "midi": 58,
          "name": "A#3",
          "ticks": 211776,
          "time": 162.36287000000004,
          "velocity": 0.7165354330708661
        },
        {
          "duration": 0.14999999999997726,
          "durationTicks": 192,
          "midi": 58,
          "name": "A#3",
          "ticks": 211776,
          "time": 162.36287000000004,
          "velocity": 0.7165354330708661
        },
        {
          "duration": 0.15000000000000568,
          "durationTicks": 192,
          "midi": 57,
          "name": "A3",
          "ticks": 211968,
          "time": 162.51287000000002,
          "velocity": 0.7165354330708661
        },
        {
          "duration": 0.15000000000000568,
          "durationTicks": 192,
          "midi": 57,
          "name": "A3",
          "ticks": 211968,
          "time": 162.51287000000002,
          "velocity": 0.7165354330708661
        },
        {
          "duration": 0.15000000000000568,
          "durationTicks": 192,
          "midi": 54,
          "name": "F#3",
          "ticks": 212160,
          "time": 162.66287000000003,
          "velocity": 0.7165354330708661
        },
        {
          "duration": 0.15000000000000568,
          "durationTicks": 192,
          "midi": 62,
          "name": "D4",
          "ticks": 212160,
          "time": 162.66287000000003,
          "velocity": 0.7165354330708661
        },
        {
          "duration": 0.15000000000000568,
          "durationTicks": 192,
          "midi": 54,
          "name": "F#3",
          "ticks": 212352,
          "time": 162.81287000000003,
          "velocity": 0.7165354330708661
        },
        {
          "duration": 0.15000000000000568,
          "durationTicks": 192,
          "midi": 62,
          "name": "D4",
          "ticks": 212352,
          "time": 162.81287000000003,
          "velocity": 0.7165354330708661
        },
        {
          "duration": 0.15000000000000568,
          "durationTicks": 192,
          "midi": 57,
          "name": "A3",
          "ticks": 212544,
          "time": 162.96287000000004,
          "velocity": 0.7165354330708661
        },
        {
          "duration": 0.15000000000000568,
          "durationTicks": 192,
          "midi": 60,
          "name": "C4",
          "ticks": 212544,
          "time": 162.96287000000004,
          "velocity": 0.7165354330708661
        },
        {
          "duration": 0.5999999999999943,
          "durationTicks": 768,
          "midi": 55,
          "name": "G3",
          "ticks": 212736,
          "time": 163.11287000000004,
          "velocity": 0.7165354330708661
        },
        {
          "duration": 0.5999999999999943,
          "durationTicks": 768,
          "midi": 58,
          "name": "A#3",
          "ticks": 212736,
          "time": 163.11287000000004,
          "velocity": 0.7165354330708661
        },
        {
          "duration": 0.15000000000000568,
          "durationTicks": 192,
          "midi": 54,
          "name": "F#3",
          "ticks": 213504,
          "time": 163.71287000000004,
          "velocity": 0.7165354330708661
        },
        {
          "duration": 0.15000000000000568,
          "durationTicks": 192,
          "midi": 57,
          "name": "A3",
          "ticks": 213504,
          "time": 163.71287000000004,
          "velocity": 0.7165354330708661
        },
        {
          "duration": 0.14999999999997726,
          "durationTicks": 192,
          "midi": 54,
          "name": "F#3",
          "ticks": 213696,
          "time": 163.86287000000004,
          "velocity": 0.7165354330708661
        },
        {
          "duration": 0.14999999999997726,
          "durationTicks": 192,
          "midi": 62,
          "name": "D4",
          "ticks": 213696,
          "time": 163.86287000000004,
          "velocity": 0.7165354330708661
        },
        {
          "duration": 0.15000000000000568,
          "durationTicks": 192,
          "midi": 54,
          "name": "F#3",
          "ticks": 213888,
          "time": 164.01287000000002,
          "velocity": 0.7165354330708661
        },
        {
          "duration": 0.15000000000000568,
          "durationTicks": 192,
          "midi": 62,
          "name": "D4",
          "ticks": 213888,
          "time": 164.01287000000002,
          "velocity": 0.7165354330708661
        },
        {
          "duration": 0.15000000000000568,
          "durationTicks": 192,
          "midi": 57,
          "name": "A3",
          "ticks": 214080,
          "time": 164.16287000000003,
          "velocity": 0.7165354330708661
        },
        {
          "duration": 0.15000000000000568,
          "durationTicks": 192,
          "midi": 60,
          "name": "C4",
          "ticks": 214080,
          "time": 164.16287000000003,
          "velocity": 0.7165354330708661
        },
        {
          "duration": 0.5999999999999943,
          "durationTicks": 768,
          "midi": 55,
          "name": "G3",
          "ticks": 214272,
          "time": 164.31287000000003,
          "velocity": 0.7165354330708661
        },
        {
          "duration": 0.5999999999999943,
          "durationTicks": 768,
          "midi": 58,
          "name": "A#3",
          "ticks": 214272,
          "time": 164.31287000000003,
          "velocity": 0.7165354330708661
        },
        {
          "duration": 0.5999999999999943,
          "durationTicks": 768,
          "midi": 54,
          "name": "F#3",
          "ticks": 215040,
          "time": 164.91287000000003,
          "velocity": 0.7165354330708661
        },
        {
          "duration": 0.5999999999999943,
          "durationTicks": 768,
          "midi": 57,
          "name": "A3",
          "ticks": 215040,
          "time": 164.91287000000003,
          "velocity": 0.7165354330708661
        },
        {
          "duration": 0.30000000000001137,
          "durationTicks": 384,
          "midi": 55,
          "name": "G3",
          "ticks": 215808,
          "time": 165.51287000000002,
          "velocity": 0.7165354330708661
        },
        {
          "duration": 0.30000000000001137,
          "durationTicks": 384,
          "midi": 58,
          "name": "A#3",
          "ticks": 215808,
          "time": 165.51287000000002,
          "velocity": 0.7165354330708661
        },
        {
          "duration": 0.14999999999997726,
          "durationTicks": 192,
          "midi": 43,
          "name": "G2",
          "ticks": 216576,
          "time": 166.11287000000004,
          "velocity": 0.7165354330708661
        },
        {
          "duration": 0.15000000000000568,
          "durationTicks": 192,
          "midi": 43,
          "name": "G2",
          "ticks": 216768,
          "time": 166.26287000000002,
          "velocity": 0.7165354330708661
        },
        {
          "duration": 0.15000000000000568,
          "durationTicks": 192,
          "midi": 55,
          "name": "G3",
          "ticks": 216768,
          "time": 166.26287000000002,
          "velocity": 0.7165354330708661
        },
        {
          "duration": 0.15000000000000568,
          "durationTicks": 192,
          "midi": 43,
          "name": "G2",
          "ticks": 216960,
          "time": 166.41287000000003,
          "velocity": 0.7165354330708661
        },
        {
          "duration": 0.15000000000000568,
          "durationTicks": 192,
          "midi": 57,
          "name": "A3",
          "ticks": 216960,
          "time": 166.41287000000003,
          "velocity": 0.7165354330708661
        },
        {
          "duration": 0.15000000000000568,
          "durationTicks": 192,
          "midi": 43,
          "name": "G2",
          "ticks": 217152,
          "time": 166.56287000000003,
          "velocity": 0.7165354330708661
        },
        {
          "duration": 0.15000000000000568,
          "durationTicks": 192,
          "midi": 58,
          "name": "A#3",
          "ticks": 217152,
          "time": 166.56287000000003,
          "velocity": 0.7165354330708661
        },
        {
          "duration": 0.75,
          "durationTicks": 960,
          "midi": 45,
          "name": "A2",
          "ticks": 217344,
          "time": 166.71287000000004,
          "velocity": 0.7165354330708661
        },
        {
          "duration": 0.29999999999998295,
          "durationTicks": 384,
          "midi": 60,
          "name": "C4",
          "ticks": 217344,
          "time": 166.71287000000004,
          "velocity": 0.7165354330708661
        },
        {
          "duration": 0.15000000000000568,
          "durationTicks": 192,
          "midi": 45,
          "name": "A2",
          "ticks": 218304,
          "time": 167.46287000000004,
          "velocity": 0.7165354330708661
        },
        {
          "duration": 0.15000000000000568,
          "durationTicks": 192,
          "midi": 54,
          "name": "F#3",
          "ticks": 218304,
          "time": 167.46287000000004,
          "velocity": 0.7165354330708661
        },
        {
          "duration": 0.14999999999997726,
          "durationTicks": 192,
          "midi": 45,
          "name": "A2",
          "ticks": 218496,
          "time": 167.61287000000004,
          "velocity": 0.7165354330708661
        },
        {
          "duration": 0.14999999999997726,
          "durationTicks": 192,
          "midi": 57,
          "name": "A3",
          "ticks": 218496,
          "time": 167.61287000000004,
          "velocity": 0.7165354330708661
        },
        {
          "duration": 0.15000000000000568,
          "durationTicks": 192,
          "midi": 45,
          "name": "A2",
          "ticks": 218688,
          "time": 167.76287000000002,
          "velocity": 0.7165354330708661
        },
        {
          "duration": 0.15000000000000568,
          "durationTicks": 192,
          "midi": 58,
          "name": "A#3",
          "ticks": 218688,
          "time": 167.76287000000002,
          "velocity": 0.7165354330708661
        },
        {
          "duration": 0.75,
          "durationTicks": 960,
          "midi": 45,
          "name": "A2",
          "ticks": 218880,
          "time": 167.91287000000003,
          "velocity": 0.7165354330708661
        },
        {
          "duration": 0.30000000000001137,
          "durationTicks": 384,
          "midi": 60,
          "name": "C4",
          "ticks": 218880,
          "time": 167.91287000000003,
          "velocity": 0.7165354330708661
        },
        {
          "duration": 0.15000000000000568,
          "durationTicks": 192,
          "midi": 45,
          "name": "A2",
          "ticks": 219840,
          "time": 168.66287000000003,
          "velocity": 0.7165354330708661
        },
        {
          "duration": 0.15000000000000568,
          "durationTicks": 192,
          "midi": 57,
          "name": "A3",
          "ticks": 219840,
          "time": 168.66287000000003,
          "velocity": 0.7165354330708661
        },
        {
          "duration": 0.15000000000000568,
          "durationTicks": 192,
          "midi": 45,
          "name": "A2",
          "ticks": 220032,
          "time": 168.81287000000003,
          "velocity": 0.7165354330708661
        },
        {
          "duration": 0.15000000000000568,
          "durationTicks": 192,
          "midi": 58,
          "name": "A#3",
          "ticks": 220032,
          "time": 168.81287000000003,
          "velocity": 0.7165354330708661
        },
        {
          "duration": 0.15000000000000568,
          "durationTicks": 192,
          "midi": 45,
          "name": "A2",
          "ticks": 220224,
          "time": 168.96287000000004,
          "velocity": 0.7165354330708661
        },
        {
          "duration": 0.15000000000000568,
          "durationTicks": 192,
          "midi": 60,
          "name": "C4",
          "ticks": 220224,
          "time": 168.96287000000004,
          "velocity": 0.7165354330708661
        },
        {
          "duration": 0.75,
          "durationTicks": 960,
          "midi": 46,
          "name": "A#2",
          "ticks": 220416,
          "time": 169.11287000000004,
          "velocity": 0.7165354330708661
        },
        {
          "duration": 0.29999999999998295,
          "durationTicks": 384,
          "midi": 62,
          "name": "D4",
          "ticks": 220416,
          "time": 169.11287000000004,
          "velocity": 0.7165354330708661
        },
        {
          "duration": 0.14999999999997726,
          "durationTicks": 192,
          "midi": 46,
          "name": "A#2",
          "ticks": 221376,
          "time": 169.86287000000004,
          "velocity": 0.7165354330708661
        },
        {
          "duration": 0.14999999999997726,
          "durationTicks": 192,
          "midi": 55,
          "name": "G3",
          "ticks": 221376,
          "time": 169.86287000000004,
          "velocity": 0.7165354330708661
        },
        {
          "duration": 0.15000000000000568,
          "durationTicks": 192,
          "midi": 46,
          "name": "A#2",
          "ticks": 221568,
          "time": 170.01287000000002,
          "velocity": 0.7165354330708661
        },
        {
          "duration": 0.15000000000000568,
          "durationTicks": 192,
          "midi": 58,
          "name": "A#3",
          "ticks": 221568,
          "time": 170.01287000000002,
          "velocity": 0.7165354330708661
        },
        {
          "duration": 0.15000000000000568,
          "durationTicks": 192,
          "midi": 46,
          "name": "A#2",
          "ticks": 221760,
          "time": 170.16287000000003,
          "velocity": 0.7165354330708661
        },
        {
          "duration": 0.15000000000000568,
          "durationTicks": 192,
          "midi": 60,
          "name": "C4",
          "ticks": 221760,
          "time": 170.16287000000003,
          "velocity": 0.7165354330708661
        },
        {
          "duration": 0.5999999999999943,
          "durationTicks": 768,
          "midi": 46,
          "name": "A#2",
          "ticks": 221952,
          "time": 170.31287000000003,
          "velocity": 0.7165354330708661
        },
        {
          "duration": 0.30000000000001137,
          "durationTicks": 384,
          "midi": 62,
          "name": "D4",
          "ticks": 221952,
          "time": 170.31287000000003,
          "velocity": 0.7165354330708661
        },
        {
          "duration": 0.15000000000000568,
          "durationTicks": 192,
          "midi": 55,
          "name": "G3",
          "ticks": 222912,
          "time": 171.06287000000003,
          "velocity": 0.7165354330708661
        },
        {
          "duration": 0.15000000000000568,
          "durationTicks": 192,
          "midi": 58,
          "name": "A#3",
          "ticks": 222912,
          "time": 171.06287000000003,
          "velocity": 0.7165354330708661
        },
        {
          "duration": 0.15000000000000568,
          "durationTicks": 192,
          "midi": 57,
          "name": "A3",
          "ticks": 223104,
          "time": 171.21287000000004,
          "velocity": 0.7952755905511811
        },
        {
          "duration": 0.15000000000000568,
          "durationTicks": 192,
          "midi": 60,
          "name": "C4",
          "ticks": 223104,
          "time": 171.21287000000004,
          "velocity": 0.7952755905511811
        },
        {
          "duration": 0.14999999999997726,
          "durationTicks": 192,
          "midi": 58,
          "name": "A#3",
          "ticks": 223296,
          "time": 171.36287000000004,
          "velocity": 0.8582677165354331
        },
        {
          "duration": 0.14999999999997726,
          "durationTicks": 192,
          "midi": 62,
          "name": "D4",
          "ticks": 223296,
          "time": 171.36287000000004,
          "velocity": 0.8582677165354331
        },
        {
          "duration": 1.200000000000017,
          "durationTicks": 1536,
          "midi": 54,
          "name": "F#3",
          "ticks": 223488,
          "time": 171.51287000000002,
          "velocity": 0.905511811023622
        },
        {
          "duration": 1.200000000000017,
          "durationTicks": 1536,
          "midi": 57,
          "name": "A3",
          "ticks": 223488,
          "time": 171.51287000000002,
          "velocity": 0.905511811023622
        },
        {
          "duration": 0.29999999999998295,
          "durationTicks": 384,
          "midi": 54,
          "name": "F#3",
          "ticks": 225024,
          "time": 172.71287000000004,
          "velocity": 0.905511811023622
        },
        {
          "duration": 0.29999999999998295,
          "durationTicks": 384,
          "midi": 57,
          "name": "A3",
          "ticks": 225024,
          "time": 172.71287000000004,
          "velocity": 0.905511811023622
        },
        {
          "duration": 0.15000000000000568,
          "durationTicks": 192,
          "midi": 49,
          "name": "C#3",
          "ticks": 225984,
          "time": 173.46287000000004,
          "velocity": 0.905511811023622
        },
        {
          "duration": 0.15000000000000568,
          "durationTicks": 192,
          "midi": 61,
          "name": "C#4",
          "ticks": 225984,
          "time": 173.46287000000004,
          "velocity": 0.905511811023622
        },
        {
          "duration": 0.14999999999997726,
          "durationTicks": 192,
          "midi": 49,
          "name": "C#3",
          "ticks": 226176,
          "time": 173.61287000000004,
          "velocity": 0.905511811023622
        },
        {
          "duration": 0.14999999999997726,
          "durationTicks": 192,
          "midi": 61,
          "name": "C#4",
          "ticks": 226176,
          "time": 173.61287000000004,
          "velocity": 0.905511811023622
        },
        {
          "duration": 0.15000000000000568,
          "durationTicks": 192,
          "midi": 49,
          "name": "C#3",
          "ticks": 226368,
          "time": 173.76287000000002,
          "velocity": 0.905511811023622
        },
        {
          "duration": 0.15000000000000568,
          "durationTicks": 192,
          "midi": 61,
          "name": "C#4",
          "ticks": 226368,
          "time": 173.76287000000002,
          "velocity": 0.905511811023622
        },
        {
          "duration": 1.200000000000017,
          "durationTicks": 1536,
          "midi": 49,
          "name": "C#3",
          "ticks": 226560,
          "time": 173.91287000000003,
          "velocity": 0.905511811023622
        },
        {
          "duration": 1.200000000000017,
          "durationTicks": 1536,
          "midi": 61,
          "name": "C#4",
          "ticks": 226560,
          "time": 173.91287000000003,
          "velocity": 0.905511811023622
        },
        {
          "duration": 0.29999999999998295,
          "durationTicks": 384,
          "midi": 61,
          "name": "C#4",
          "ticks": 228096,
          "time": 175.11287000000004,
          "velocity": 0.905511811023622
        },
        {
          "duration": 0.29999999999998295,
          "durationTicks": 384,
          "midi": 61,
          "name": "C#4",
          "ticks": 228096,
          "time": 175.11287000000004,
          "velocity": 0.905511811023622
        },
        {
          "duration": 0.14999999999997726,
          "durationTicks": 192,
          "midi": 50,
          "name": "D3",
          "ticks": 229056,
          "time": 175.86287000000004,
          "velocity": 0.905511811023622
        },
        {
          "duration": 0.14999999999997726,
          "durationTicks": 192,
          "midi": 62,
          "name": "D4",
          "ticks": 229056,
          "time": 175.86287000000004,
          "velocity": 0.905511811023622
        },
        {
          "duration": 0.15000000000000568,
          "durationTicks": 192,
          "midi": 50,
          "name": "D3",
          "ticks": 229248,
          "time": 176.01287000000002,
          "velocity": 0.905511811023622
        },
        {
          "duration": 0.15000000000000568,
          "durationTicks": 192,
          "midi": 62,
          "name": "D4",
          "ticks": 229248,
          "time": 176.01287000000002,
          "velocity": 0.905511811023622
        },
        {
          "duration": 0.15000000000000568,
          "durationTicks": 192,
          "midi": 50,
          "name": "D3",
          "ticks": 229440,
          "time": 176.16287000000003,
          "velocity": 0.905511811023622
        },
        {
          "duration": 0.15000000000000568,
          "durationTicks": 192,
          "midi": 62,
          "name": "D4",
          "ticks": 229440,
          "time": 176.16287000000003,
          "velocity": 0.905511811023622
        },
        {
          "duration": 0.30000000000001137,
          "durationTicks": 384,
          "midi": 50,
          "name": "D3",
          "ticks": 229632,
          "time": 176.31287000000003,
          "velocity": 0.905511811023622
        },
        {
          "duration": 0.30000000000001137,
          "durationTicks": 384,
          "midi": 62,
          "name": "D4",
          "ticks": 229632,
          "time": 176.31287000000003,
          "velocity": 0.905511811023622
        },
        {
          "duration": 0.15000000000000568,
          "durationTicks": 192,
          "midi": 52,
          "name": "E3",
          "ticks": 230784,
          "time": 177.21287000000004,
          "velocity": 0.905511811023622
        },
        {
          "duration": 0.15000000000000568,
          "durationTicks": 192,
          "midi": 64,
          "name": "E4",
          "ticks": 230784,
          "time": 177.21287000000004,
          "velocity": 0.905511811023622
        },
        {
          "duration": 0.14999999999997726,
          "durationTicks": 192,
          "midi": 52,
          "name": "E3",
          "ticks": 230976,
          "time": 177.36287000000004,
          "velocity": 0.905511811023622
        },
        {
          "duration": 0.14999999999997726,
          "durationTicks": 192,
          "midi": 64,
          "name": "E4",
          "ticks": 230976,
          "time": 177.36287000000004,
          "velocity": 0.905511811023622
        },
        {
          "duration": 0.30000000000001137,
          "durationTicks": 384,
          "midi": 52,
          "name": "E3",
          "ticks": 231168,
          "time": 177.51287000000002,
          "velocity": 0.905511811023622
        },
        {
          "duration": 0.30000000000001137,
          "durationTicks": 384,
          "midi": 64,
          "name": "E4",
          "ticks": 231168,
          "time": 177.51287000000002,
          "velocity": 0.905511811023622
        },
        {
          "duration": 0.15000000000000568,
          "durationTicks": 192,
          "midi": 54,
          "name": "F#3",
          "ticks": 231552,
          "time": 177.81287000000003,
          "velocity": 0.905511811023622
        },
        {
          "duration": 0.15000000000000568,
          "durationTicks": 192,
          "midi": 66,
          "name": "F#4",
          "ticks": 231552,
          "time": 177.81287000000003,
          "velocity": 0.905511811023622
        },
        {
          "duration": 0.15000000000000568,
          "durationTicks": 192,
          "midi": 54,
          "name": "F#3",
          "ticks": 231744,
          "time": 177.96287000000004,
          "velocity": 0.905511811023622
        },
        {
          "duration": 0.15000000000000568,
          "durationTicks": 192,
          "midi": 66,
          "name": "F#4",
          "ticks": 231744,
          "time": 177.96287000000004,
          "velocity": 0.905511811023622
        },
        {
          "duration": 0.29999999999998295,
          "durationTicks": 384,
          "midi": 54,
          "name": "F#3",
          "ticks": 231936,
          "time": 178.11287000000004,
          "velocity": 0.905511811023622
        },
        {
          "duration": 0.29999999999998295,
          "durationTicks": 384,
          "midi": 66,
          "name": "F#4",
          "ticks": 231936,
          "time": 178.11287000000004,
          "velocity": 0.905511811023622
        },
        {
          "duration": 0.15000000000000568,
          "durationTicks": 192,
          "midi": 66,
          "name": "F#4",
          "ticks": 235392,
          "time": 180.81287000000003,
          "velocity": 0.905511811023622
        },
        {
          "duration": 0.15000000000000568,
          "durationTicks": 192,
          "midi": 66,
          "name": "F#4",
          "ticks": 235392,
          "time": 180.81287000000003,
          "velocity": 0.905511811023622
        },
        {
          "duration": 0.15000000000000568,
          "durationTicks": 192,
          "midi": 66,
          "name": "F#4",
          "ticks": 235584,
          "time": 180.96287000000004,
          "velocity": 0.905511811023622
        },
        {
          "duration": 0.15000000000000568,
          "durationTicks": 192,
          "midi": 66,
          "name": "F#4",
          "ticks": 235584,
          "time": 180.96287000000004,
          "velocity": 0.905511811023622
        },
        {
          "duration": 0.29999999999998295,
          "durationTicks": 384,
          "midi": 66,
          "name": "F#4",
          "ticks": 235776,
          "time": 181.11287000000004,
          "velocity": 0.905511811023622
        },
        {
          "duration": 0.29999999999998295,
          "durationTicks": 384,
          "midi": 66,
          "name": "F#4",
          "ticks": 235776,
          "time": 181.11287000000004,
          "velocity": 0.905511811023622
        },
        {
          "duration": 0.14999999999997726,
          "durationTicks": 192,
          "midi": 50,
          "name": "D3",
          "ticks": 237696,
          "time": 182.61287000000004,
          "velocity": 0.905511811023622
        },
        {
          "duration": 0.14999999999997726,
          "durationTicks": 192,
          "midi": 62,
          "name": "D4",
          "ticks": 237696,
          "time": 182.61287000000004,
          "velocity": 0.905511811023622
        },
        {
          "duration": 0.15000000000000568,
          "durationTicks": 192,
          "midi": 50,
          "name": "D3",
          "ticks": 237888,
          "time": 182.76287000000002,
          "velocity": 0.905511811023622
        },
        {
          "duration": 0.15000000000000568,
          "durationTicks": 192,
          "midi": 62,
          "name": "D4",
          "ticks": 237888,
          "time": 182.76287000000002,
          "velocity": 0.905511811023622
        },
        {
          "duration": 0.30000000000001137,
          "durationTicks": 384,
          "midi": 43,
          "name": "G2",
          "ticks": 238080,
          "time": 182.91287000000003,
          "velocity": 0.905511811023622
        },
        {
          "duration": 0.30000000000001137,
          "durationTicks": 384,
          "midi": 55,
          "name": "G3",
          "ticks": 238080,
          "time": 182.91287000000003,
          "velocity": 0.905511811023622
        },
        {
          "duration": 0.15000000000000568,
          "durationTicks": 192,
          "midi": 59,
          "name": "B3",
          "ticks": 240768,
          "time": 185.01287000000002,
          "velocity": 0.905511811023622
        },
        {
          "duration": 0.15000000000000568,
          "durationTicks": 192,
          "midi": 59,
          "name": "B3",
          "ticks": 240768,
          "time": 185.01287000000002,
          "velocity": 0.905511811023622
        },
        {
          "duration": 0.15000000000000568,
          "durationTicks": 192,
          "midi": 59,
          "name": "B3",
          "ticks": 240960,
          "time": 185.16287000000003,
          "velocity": 0.905511811023622
        },
        {
          "duration": 0.15000000000000568,
          "durationTicks": 192,
          "midi": 59,
          "name": "B3",
          "ticks": 240960,
          "time": 185.16287000000003,
          "velocity": 0.905511811023622
        },
        {
          "duration": 0.30000000000001137,
          "durationTicks": 384,
          "midi": 59,
          "name": "B3",
          "ticks": 241152,
          "time": 185.31287000000003,
          "velocity": 0.905511811023622
        },
        {
          "duration": 0.30000000000001137,
          "durationTicks": 384,
          "midi": 59,
          "name": "B3",
          "ticks": 241152,
          "time": 185.31287000000003,
          "velocity": 0.905511811023622
        },
        {
          "duration": 0.14999999999997726,
          "durationTicks": 192,
          "midi": 60,
          "name": "C4",
          "ticks": 244416,
          "time": 187.86287000000004,
          "velocity": 0.968503937007874
        },
        {
          "duration": 0.14999999999997726,
          "durationTicks": 192,
          "midi": 60,
          "name": "C4",
          "ticks": 244416,
          "time": 187.86287000000004,
          "velocity": 0.968503937007874
        },
        {
          "duration": 0.15000000000000568,
          "durationTicks": 192,
          "midi": 60,
          "name": "C4",
          "ticks": 244608,
          "time": 188.01287000000002,
          "velocity": 0.968503937007874
        },
        {
          "duration": 0.15000000000000568,
          "durationTicks": 192,
          "midi": 60,
          "name": "C4",
          "ticks": 244608,
          "time": 188.01287000000002,
          "velocity": 0.968503937007874
        },
        {
          "duration": 0.15000000000000568,
          "durationTicks": 192,
          "midi": 60,
          "name": "C4",
          "ticks": 244800,
          "time": 188.16287000000003,
          "velocity": 0.968503937007874
        },
        {
          "duration": 0.15000000000000568,
          "durationTicks": 192,
          "midi": 60,
          "name": "C4",
          "ticks": 244800,
          "time": 188.16287000000003,
          "velocity": 0.968503937007874
        },
        {
          "duration": 0.5999999999999943,
          "durationTicks": 768,
          "midi": 56,
          "name": "G#3",
          "ticks": 244992,
          "time": 188.31287000000003,
          "velocity": 0.968503937007874
        },
        {
          "duration": 0.5999999999999943,
          "durationTicks": 768,
          "midi": 60,
          "name": "C4",
          "ticks": 244992,
          "time": 188.31287000000003,
          "velocity": 0.968503937007874
        },
        {
          "duration": 0.5999999999999943,
          "durationTicks": 768,
          "midi": 58,
          "name": "A#3",
          "ticks": 245760,
          "time": 188.91287000000003,
          "velocity": 0.968503937007874
        },
        {
          "duration": 0.5999999999999943,
          "durationTicks": 768,
          "midi": 61,
          "name": "C#4",
          "ticks": 245760,
          "time": 188.91287000000003,
          "velocity": 0.968503937007874
        },
        {
          "duration": 0.5999999999999943,
          "durationTicks": 768,
          "midi": 56,
          "name": "G#3",
          "ticks": 248064,
          "time": 190.71287000000004,
          "velocity": 0.968503937007874
        },
        {
          "duration": 0.5999999999999943,
          "durationTicks": 768,
          "midi": 60,
          "name": "C4",
          "ticks": 248064,
          "time": 190.71287000000004,
          "velocity": 0.968503937007874
        },
        {
          "duration": 0.5999999999999943,
          "durationTicks": 768,
          "midi": 58,
          "name": "A#3",
          "ticks": 248832,
          "time": 191.31287000000003,
          "velocity": 0.968503937007874
        },
        {
          "duration": 0.5999999999999943,
          "durationTicks": 768,
          "midi": 61,
          "name": "C#4",
          "ticks": 248832,
          "time": 191.31287000000003,
          "velocity": 0.968503937007874
        },
        {
          "duration": 0.5999999999999943,
          "durationTicks": 768,
          "midi": 56,
          "name": "G#3",
          "ticks": 251136,
          "time": 193.11287000000004,
          "velocity": 0.968503937007874
        },
        {
          "duration": 0.5999999999999943,
          "durationTicks": 768,
          "midi": 60,
          "name": "C4",
          "ticks": 251136,
          "time": 193.11287000000004,
          "velocity": 0.968503937007874
        },
        {
          "duration": 0.5999999999999943,
          "durationTicks": 768,
          "midi": 58,
          "name": "A#3",
          "ticks": 251904,
          "time": 193.71287000000004,
          "velocity": 0.968503937007874
        },
        {
          "duration": 0.5999999999999943,
          "durationTicks": 768,
          "midi": 61,
          "name": "C#4",
          "ticks": 251904,
          "time": 193.71287000000004,
          "velocity": 0.968503937007874
        },
        {
          "duration": 0.6000000000000227,
          "durationTicks": 768,
          "midi": 60,
          "name": "C4",
          "ticks": 254208,
          "time": 195.51287000000002,
          "velocity": 0.968503937007874
        },
        {
          "duration": 0.6000000000000227,
          "durationTicks": 768,
          "midi": 63,
          "name": "D#4",
          "ticks": 254208,
          "time": 195.51287000000002,
          "velocity": 0.968503937007874
        },
        {
          "duration": 0.5999999999999943,
          "durationTicks": 768,
          "midi": 61,
          "name": "C#4",
          "ticks": 254976,
          "time": 196.11287000000004,
          "velocity": 0.968503937007874
        },
        {
          "duration": 0.5999999999999943,
          "durationTicks": 768,
          "midi": 65,
          "name": "F4",
          "ticks": 254976,
          "time": 196.11287000000004,
          "velocity": 0.968503937007874
        },
        {
          "duration": 0.5999999999999943,
          "durationTicks": 768,
          "midi": 63,
          "name": "D#4",
          "ticks": 256512,
          "time": 197.31287000000003,
          "velocity": 0.905511811023622
        },
        {
          "duration": 0.5999999999999943,
          "durationTicks": 768,
          "midi": 66,
          "name": "F#4",
          "ticks": 256512,
          "time": 197.31287000000003,
          "velocity": 0.905511811023622
        },
        {
          "duration": 0.6122399999999857,
          "durationTicks": 768,
          "midi": 65,
          "name": "F4",
          "ticks": 258048,
          "time": 198.52511000000004,
          "velocity": 0.8582677165354331
        },
        {
          "duration": 0.6122399999999857,
          "durationTicks": 768,
          "midi": 68,
          "name": "G#4",
          "ticks": 258048,
          "time": 198.52511000000004,
          "velocity": 0.8582677165354331
        },
        {
          "duration": 0.6122399999999857,
          "durationTicks": 768,
          "midi": 66,
          "name": "F#4",
          "ticks": 259584,
          "time": 199.74959000000004,
          "velocity": 0.7952755905511811
        },
        {
          "duration": 0.6122399999999857,
          "durationTicks": 768,
          "midi": 69,
          "name": "A4",
          "ticks": 259584,
          "time": 199.74959000000004,
          "velocity": 0.7952755905511811
        },
        {
          "duration": 0.6122399999999857,
          "durationTicks": 768,
          "midi": 66,
          "name": "F#4",
          "ticks": 261120,
          "time": 200.97407000000004,
          "velocity": 0.7165354330708661
        },
        {
          "duration": 0.6122399999999857,
          "durationTicks": 768,
          "midi": 69,
          "name": "A4",
          "ticks": 261120,
          "time": 200.97407000000004,
          "velocity": 0.7165354330708661
        },
        {
          "duration": 0.6122399999999857,
          "durationTicks": 768,
          "midi": 66,
          "name": "F#4",
          "ticks": 262656,
          "time": 202.19855000000004,
          "velocity": 0.7165354330708661
        },
        {
          "duration": 0.6122399999999857,
          "durationTicks": 768,
          "midi": 69,
          "name": "A4",
          "ticks": 262656,
          "time": 202.19855000000004,
          "velocity": 0.7165354330708661
        },
        {
          "duration": 0.6122399999999857,
          "durationTicks": 768,
          "midi": 66,
          "name": "F#4",
          "ticks": 264192,
          "time": 203.42303000000004,
          "velocity": 0.6141732283464567
        },
        {
          "duration": 0.6122399999999857,
          "durationTicks": 768,
          "midi": 69,
          "name": "A4",
          "ticks": 264192,
          "time": 203.42303000000004,
          "velocity": 0.6141732283464567
        },
        {
          "duration": 0.6122399999999857,
          "durationTicks": 768,
          "midi": 66,
          "name": "F#4",
          "ticks": 265728,
          "time": 204.64751000000004,
          "velocity": 0.6141732283464567
        },
        {
          "duration": 0.6122399999999857,
          "durationTicks": 768,
          "midi": 69,
          "name": "A4",
          "ticks": 265728,
          "time": 204.64751000000004,
          "velocity": 0.6141732283464567
        },
        {
          "duration": 0.6122399999999857,
          "durationTicks": 768,
          "midi": 66,
          "name": "F#4",
          "ticks": 267264,
          "time": 205.87199000000004,
          "velocity": 0.6141732283464567
        },
        {
          "duration": 0.6122399999999857,
          "durationTicks": 768,
          "midi": 69,
          "name": "A4",
          "ticks": 267264,
          "time": 205.87199000000004,
          "velocity": 0.6141732283464567
        },
        {
          "duration": 0.6122399999999857,
          "durationTicks": 768,
          "midi": 66,
          "name": "F#4",
          "ticks": 268800,
          "time": 207.09647000000004,
          "velocity": 0.6141732283464567
        },
        {
          "duration": 0.6122399999999857,
          "durationTicks": 768,
          "midi": 69,
          "name": "A4",
          "ticks": 268800,
          "time": 207.09647000000004,
          "velocity": 0.6141732283464567
        },
        {
          "duration": 0.1530599999999822,
          "durationTicks": 192,
          "midi": 50,
          "name": "D3",
          "ticks": 269760,
          "time": 207.86177000000004,
          "velocity": 0.968503937007874
        },
        {
          "duration": 0.1530599999999822,
          "durationTicks": 192,
          "midi": 62,
          "name": "D4",
          "ticks": 269760,
          "time": 207.86177000000004,
          "velocity": 0.968503937007874
        },
        {
          "duration": 0.15306000000001063,
          "durationTicks": 192,
          "midi": 50,
          "name": "D3",
          "ticks": 269952,
          "time": 208.01483000000002,
          "velocity": 0.968503937007874
        },
        {
          "duration": 0.15306000000001063,
          "durationTicks": 192,
          "midi": 62,
          "name": "D4",
          "ticks": 269952,
          "time": 208.01483000000002,
          "velocity": 0.968503937007874
        },
        {
          "duration": 0.15306000000001063,
          "durationTicks": 192,
          "midi": 50,
          "name": "D3",
          "ticks": 270144,
          "time": 208.16789000000003,
          "velocity": 0.968503937007874
        },
        {
          "duration": 0.15306000000001063,
          "durationTicks": 192,
          "midi": 62,
          "name": "D4",
          "ticks": 270144,
          "time": 208.16789000000003,
          "velocity": 0.968503937007874
        },
        {
          "duration": 0.6122399999999857,
          "durationTicks": 768,
          "midi": 47,
          "name": "B2",
          "ticks": 270336,
          "time": 208.32095000000004,
          "velocity": 0.968503937007874
        },
        {
          "duration": 0.6122399999999857,
          "durationTicks": 768,
          "midi": 59,
          "name": "B3",
          "ticks": 270336,
          "time": 208.32095000000004,
          "velocity": 0.968503937007874
        },
        {
          "duration": 0.6122400000000141,
          "durationTicks": 768,
          "midi": 48,
          "name": "C3",
          "ticks": 271104,
          "time": 208.93319000000002,
          "velocity": 0.968503937007874
        },
        {
          "duration": 0.6122400000000141,
          "durationTicks": 768,
          "midi": 60,
          "name": "C4",
          "ticks": 271104,
          "time": 208.93319000000002,
          "velocity": 0.968503937007874
        },
        {
          "duration": 1.2244799999999998,
          "durationTicks": 1536,
          "midi": 45,
          "name": "A2",
          "ticks": 271872,
          "time": 209.54543000000004,
          "velocity": 0.968503937007874
        },
        {
          "duration": 1.2244799999999998,
          "durationTicks": 1536,
          "midi": 57,
          "name": "A3",
          "ticks": 271872,
          "time": 209.54543000000004,
          "velocity": 0.968503937007874
        },
        {
          "duration": 0.6122399999999857,
          "durationTicks": 768,
          "midi": 59,
          "name": "B3",
          "ticks": 273408,
          "time": 210.76991000000004,
          "velocity": 0.6141732283464567
        },
        {
          "duration": 0.6122399999999857,
          "durationTicks": 768,
          "midi": 65,
          "name": "F4",
          "ticks": 273408,
          "time": 210.76991000000004,
          "velocity": 0.6141732283464567
        },
        {
          "duration": 0.6122399999999857,
          "durationTicks": 768,
          "midi": 59,
          "name": "B3",
          "ticks": 274944,
          "time": 211.99439000000004,
          "velocity": 0.6141732283464567
        },
        {
          "duration": 0.6122399999999857,
          "durationTicks": 768,
          "midi": 65,
          "name": "F4",
          "ticks": 274944,
          "time": 211.99439000000004,
          "velocity": 0.6141732283464567
        },
        {
          "duration": 0.6122399999999857,
          "durationTicks": 768,
          "midi": 59,
          "name": "B3",
          "ticks": 276480,
          "time": 213.21887000000004,
          "velocity": 0.6141732283464567
        },
        {
          "duration": 0.6122399999999857,
          "durationTicks": 768,
          "midi": 65,
          "name": "F4",
          "ticks": 276480,
          "time": 213.21887000000004,
          "velocity": 0.6141732283464567
        },
        {
          "duration": 0.6122399999999857,
          "durationTicks": 768,
          "midi": 59,
          "name": "B3",
          "ticks": 278016,
          "time": 214.44335000000004,
          "velocity": 0.6141732283464567
        },
        {
          "duration": 0.6122399999999857,
          "durationTicks": 768,
          "midi": 65,
          "name": "F4",
          "ticks": 278016,
          "time": 214.44335000000004,
          "velocity": 0.6141732283464567
        },
        {
          "duration": 0.1415049999999951,
          "durationTicks": 192,
          "midi": 44,
          "name": "G#2",
          "ticks": 278976,
          "time": 215.19709500000002,
          "velocity": 0.968503937007874
        },
        {
          "duration": 0.1415049999999951,
          "durationTicks": 192,
          "midi": 56,
          "name": "G#3",
          "ticks": 278976,
          "time": 215.19709500000002,
          "velocity": 0.968503937007874
        },
        {
          "duration": 0.14150500000002353,
          "durationTicks": 192,
          "midi": 44,
          "name": "G#2",
          "ticks": 279168,
          "time": 215.3386,
          "velocity": 0.968503937007874
        },
        {
          "duration": 0.14150500000002353,
          "durationTicks": 192,
          "midi": 56,
          "name": "G#3",
          "ticks": 279168,
          "time": 215.3386,
          "velocity": 0.968503937007874
        },
        {
          "duration": 0.1415049999999951,
          "durationTicks": 192,
          "midi": 44,
          "name": "G#2",
          "ticks": 279360,
          "time": 215.48010500000004,
          "velocity": 0.968503937007874
        },
        {
          "duration": 0.1415049999999951,
          "durationTicks": 192,
          "midi": 56,
          "name": "G#3",
          "ticks": 279360,
          "time": 215.48010500000004,
          "velocity": 0.968503937007874
        },
        {
          "duration": 0.707525000000004,
          "durationTicks": 960,
          "midi": 41,
          "name": "F2",
          "ticks": 279552,
          "time": 215.62161000000003,
          "velocity": 0.968503937007874
        },
        {
          "duration": 0.707525000000004,
          "durationTicks": 960,
          "midi": 53,
          "name": "F3",
          "ticks": 279552,
          "time": 215.62161000000003,
          "velocity": 0.968503937007874
        },
        {
          "duration": 0.1415049999999951,
          "durationTicks": 192,
          "midi": 44,
          "name": "G#2",
          "ticks": 280512,
          "time": 216.32913500000004,
          "velocity": 0.968503937007874
        },
        {
          "duration": 0.1415049999999951,
          "durationTicks": 192,
          "midi": 56,
          "name": "G#3",
          "ticks": 280512,
          "time": 216.32913500000004,
          "velocity": 0.968503937007874
        },
        {
          "duration": 0.1415049999999951,
          "durationTicks": 192,
          "midi": 44,
          "name": "G#2",
          "ticks": 280704,
          "time": 216.47064000000003,
          "velocity": 0.968503937007874
        },
        {
          "duration": 0.1415049999999951,
          "durationTicks": 192,
          "midi": 56,
          "name": "G#3",
          "ticks": 280704,
          "time": 216.47064000000003,
          "velocity": 0.968503937007874
        },
        {
          "duration": 0.1415049999999951,
          "durationTicks": 192,
          "midi": 44,
          "name": "G#2",
          "ticks": 280896,
          "time": 216.61214500000003,
          "velocity": 0.968503937007874
        },
        {
          "duration": 0.1415049999999951,
          "durationTicks": 192,
          "midi": 56,
          "name": "G#3",
          "ticks": 280896,
          "time": 216.61214500000003,
          "velocity": 0.968503937007874
        },
        {
          "duration": 0.707525000000004,
          "durationTicks": 960,
          "midi": 41,
          "name": "F2",
          "ticks": 281088,
          "time": 216.75365000000002,
          "velocity": 0.968503937007874
        },
        {
          "duration": 0.707525000000004,
          "durationTicks": 960,
          "midi": 53,
          "name": "F3",
          "ticks": 281088,
          "time": 216.75365000000002,
          "velocity": 0.968503937007874
        },
        {
          "duration": 0.1415049999999951,
          "durationTicks": 192,
          "midi": 44,
          "name": "G#2",
          "ticks": 282048,
          "time": 217.46117500000003,
          "velocity": 0.968503937007874
        },
        {
          "duration": 0.1415049999999951,
          "durationTicks": 192,
          "midi": 56,
          "name": "G#3",
          "ticks": 282048,
          "time": 217.46117500000003,
          "velocity": 0.968503937007874
        },
        {
          "duration": 0.1415049999999951,
          "durationTicks": 192,
          "midi": 44,
          "name": "G#2",
          "ticks": 282240,
          "time": 217.60268000000002,
          "velocity": 0.968503937007874
        },
        {
          "duration": 0.1415049999999951,
          "durationTicks": 192,
          "midi": 56,
          "name": "G#3",
          "ticks": 282240,
          "time": 217.60268000000002,
          "velocity": 0.968503937007874
        },
        {
          "duration": 0.1415049999999951,
          "durationTicks": 192,
          "midi": 44,
          "name": "G#2",
          "ticks": 282432,
          "time": 217.74418500000002,
          "velocity": 0.968503937007874
        },
        {
          "duration": 0.1415049999999951,
          "durationTicks": 192,
          "midi": 56,
          "name": "G#3",
          "ticks": 282432,
          "time": 217.74418500000002,
          "velocity": 0.968503937007874
        },
        {
          "duration": 0.14150500000002353,
          "durationTicks": 192,
          "midi": 41,
          "name": "F2",
          "ticks": 282624,
          "time": 217.88569,
          "velocity": 0.968503937007874
        },
        {
          "duration": 0.14150500000002353,
          "durationTicks": 192,
          "midi": 53,
          "name": "F3",
          "ticks": 282624,
          "time": 217.88569,
          "velocity": 0.968503937007874
        },
        {
          "duration": 0.1415049999999951,
          "durationTicks": 192,
          "midi": 44,
          "name": "G#2",
          "ticks": 282816,
          "time": 218.02719500000003,
          "velocity": 0.968503937007874
        },
        {
          "duration": 0.1415049999999951,
          "durationTicks": 192,
          "midi": 56,
          "name": "G#3",
          "ticks": 282816,
          "time": 218.02719500000003,
          "velocity": 0.968503937007874
        },
        {
          "duration": 0.1415049999999951,
          "durationTicks": 192,
          "midi": 44,
          "name": "G#2",
          "ticks": 283008,
          "time": 218.16870000000003,
          "velocity": 0.968503937007874
        },
        {
          "duration": 0.1415049999999951,
          "durationTicks": 192,
          "midi": 56,
          "name": "G#3",
          "ticks": 283008,
          "time": 218.16870000000003,
          "velocity": 0.968503937007874
        },
        {
          "duration": 0.1415049999999951,
          "durationTicks": 192,
          "midi": 44,
          "name": "G#2",
          "ticks": 283200,
          "time": 218.31020500000002,
          "velocity": 0.968503937007874
        },
        {
          "duration": 0.1415049999999951,
          "durationTicks": 192,
          "midi": 56,
          "name": "G#3",
          "ticks": 283200,
          "time": 218.31020500000002,
          "velocity": 0.968503937007874
        },
        {
          "duration": 0.1415049999999951,
          "durationTicks": 192,
          "midi": 41,
          "name": "F2",
          "ticks": 283392,
          "time": 218.45171000000002,
          "velocity": 0.968503937007874
        },
        {
          "duration": 0.1415049999999951,
          "durationTicks": 192,
          "midi": 53,
          "name": "F3",
          "ticks": 283392,
          "time": 218.45171000000002,
          "velocity": 0.968503937007874
        },
        {
          "duration": 0.1415049999999951,
          "durationTicks": 192,
          "midi": 44,
          "name": "G#2",
          "ticks": 283584,
          "time": 218.59321500000001,
          "velocity": 0.968503937007874
        },
        {
          "duration": 0.1415049999999951,
          "durationTicks": 192,
          "midi": 56,
          "name": "G#3",
          "ticks": 283584,
          "time": 218.59321500000001,
          "velocity": 0.968503937007874
        },
        {
          "duration": 0.14150500000002353,
          "durationTicks": 192,
          "midi": 44,
          "name": "G#2",
          "ticks": 283776,
          "time": 218.73472,
          "velocity": 0.968503937007874
        },
        {
          "duration": 0.14150500000002353,
          "durationTicks": 192,
          "midi": 56,
          "name": "G#3",
          "ticks": 283776,
          "time": 218.73472,
          "velocity": 0.968503937007874
        },
        {
          "duration": 0.1415049999999951,
          "durationTicks": 192,
          "midi": 44,
          "name": "G#2",
          "ticks": 283968,
          "time": 218.87622500000003,
          "velocity": 0.968503937007874
        },
        {
          "duration": 0.1415049999999951,
          "durationTicks": 192,
          "midi": 56,
          "name": "G#3",
          "ticks": 283968,
          "time": 218.87622500000003,
          "velocity": 0.968503937007874
        },
        {
          "duration": 0.1415049999999951,
          "durationTicks": 192,
          "midi": 41,
          "name": "F2",
          "ticks": 284160,
          "time": 219.01773000000003,
          "velocity": 0.968503937007874
        },
        {
          "duration": 0.1415049999999951,
          "durationTicks": 192,
          "midi": 53,
          "name": "F3",
          "ticks": 284160,
          "time": 219.01773000000003,
          "velocity": 0.968503937007874
        },
        {
          "duration": 0.1415049999999951,
          "durationTicks": 192,
          "midi": 44,
          "name": "G#2",
          "ticks": 284352,
          "time": 219.15923500000002,
          "velocity": 0.968503937007874
        },
        {
          "duration": 0.1415049999999951,
          "durationTicks": 192,
          "midi": 56,
          "name": "G#3",
          "ticks": 284352,
          "time": 219.15923500000002,
          "velocity": 0.968503937007874
        },
        {
          "duration": 0.1415049999999951,
          "durationTicks": 192,
          "midi": 44,
          "name": "G#2",
          "ticks": 284544,
          "time": 219.30074000000002,
          "velocity": 0.968503937007874
        },
        {
          "duration": 0.1415049999999951,
          "durationTicks": 192,
          "midi": 56,
          "name": "G#3",
          "ticks": 284544,
          "time": 219.30074000000002,
          "velocity": 0.968503937007874
        },
        {
          "duration": 0.1415049999999951,
          "durationTicks": 192,
          "midi": 44,
          "name": "G#2",
          "ticks": 284736,
          "time": 219.442245,
          "velocity": 0.968503937007874
        },
        {
          "duration": 0.1415049999999951,
          "durationTicks": 192,
          "midi": 56,
          "name": "G#3",
          "ticks": 284736,
          "time": 219.442245,
          "velocity": 0.968503937007874
        },
        {
          "duration": 0.14150500000002353,
          "durationTicks": 192,
          "midi": 41,
          "name": "F2",
          "ticks": 284928,
          "time": 219.58375,
          "velocity": 0.968503937007874
        },
        {
          "duration": 0.14150500000002353,
          "durationTicks": 192,
          "midi": 53,
          "name": "F3",
          "ticks": 284928,
          "time": 219.58375,
          "velocity": 0.968503937007874
        },
        {
          "duration": 0.1415049999999951,
          "durationTicks": 192,
          "midi": 43,
          "name": "G2",
          "ticks": 285120,
          "time": 219.72525500000003,
          "velocity": 0.968503937007874
        },
        {
          "duration": 0.1415049999999951,
          "durationTicks": 192,
          "midi": 55,
          "name": "G3",
          "ticks": 285120,
          "time": 219.72525500000003,
          "velocity": 0.968503937007874
        },
        {
          "duration": 0.1415049999999951,
          "durationTicks": 192,
          "midi": 43,
          "name": "G2",
          "ticks": 285312,
          "time": 219.86676000000003,
          "velocity": 0.968503937007874
        },
        {
          "duration": 0.1415049999999951,
          "durationTicks": 192,
          "midi": 55,
          "name": "G3",
          "ticks": 285312,
          "time": 219.86676000000003,
          "velocity": 0.968503937007874
        },
        {
          "duration": 0.1415049999999951,
          "durationTicks": 192,
          "midi": 43,
          "name": "G2",
          "ticks": 285504,
          "time": 220.00826500000002,
          "velocity": 0.968503937007874
        },
        {
          "duration": 0.1415049999999951,
          "durationTicks": 192,
          "midi": 55,
          "name": "G3",
          "ticks": 285504,
          "time": 220.00826500000002,
          "velocity": 0.968503937007874
        },
        {
          "duration": 0.75,
          "durationTicks": 768,
          "midi": 39,
          "name": "D#2",
          "ticks": 285696,
          "time": 220.14977000000002,
          "velocity": 0.968503937007874
        },
        {
          "duration": 0.75,
          "durationTicks": 768,
          "midi": 51,
          "name": "D#3",
          "ticks": 285696,
          "time": 220.14977000000002,
          "velocity": 0.968503937007874
        },
        {
          "duration": 0.1415049999999951,
          "durationTicks": 192,
          "midi": 41,
          "name": "F2",
          "ticks": 286656,
          "time": 221.041275,
          "velocity": 0.968503937007874
        },
        {
          "duration": 0.1415049999999951,
          "durationTicks": 192,
          "midi": 53,
          "name": "F3",
          "ticks": 286656,
          "time": 221.041275,
          "velocity": 0.968503937007874
        },
        {
          "duration": 0.14150500000002353,
          "durationTicks": 192,
          "midi": 41,
          "name": "F2",
          "ticks": 286848,
          "time": 221.18278,
          "velocity": 0.968503937007874
        },
        {
          "duration": 0.14150500000002353,
          "durationTicks": 192,
          "midi": 53,
          "name": "F3",
          "ticks": 286848,
          "time": 221.18278,
          "velocity": 0.968503937007874
        },
        {
          "duration": 0.1415049999999951,
          "durationTicks": 192,
          "midi": 41,
          "name": "F2",
          "ticks": 287040,
          "time": 221.32428500000003,
          "velocity": 0.968503937007874
        },
        {
          "duration": 0.1415049999999951,
          "durationTicks": 192,
          "midi": 53,
          "name": "F3",
          "ticks": 287040,
          "time": 221.32428500000003,
          "velocity": 0.968503937007874
        },
        {
          "duration": 1.766019999999969,
          "durationTicks": 1536,
          "midi": 38,
          "name": "D2",
          "ticks": 287232,
          "time": 221.46579000000003,
          "velocity": 0.968503937007874
        },
        {
          "duration": 1.766019999999969,
          "durationTicks": 1536,
          "midi": 50,
          "name": "D3",
          "ticks": 287232,
          "time": 221.46579000000003,
          "velocity": 0.968503937007874
        },
        {
          "duration": 1.4150499999999795,
          "durationTicks": 1920,
          "midi": 48,
          "name": "C3",
          "ticks": 289536,
          "time": 223.79783,
          "velocity": 0.7165354330708661
        },
        {
          "duration": 1.4150499999999795,
          "durationTicks": 1920,
          "midi": 60,
          "name": "C4",
          "ticks": 289536,
          "time": 223.79783,
          "velocity": 0.7165354330708661
        },
        {
          "duration": 0.28301000000001864,
          "durationTicks": 384,
          "midi": 48,
          "name": "C3",
          "ticks": 291456,
          "time": 225.21287999999998,
          "velocity": 0.7165354330708661
        },
        {
          "duration": 0.28301000000001864,
          "durationTicks": 384,
          "midi": 60,
          "name": "C4",
          "ticks": 291456,
          "time": 225.21287999999998,
          "velocity": 0.7165354330708661
        },
        {
          "duration": 0.2830099999999902,
          "durationTicks": 384,
          "midi": 51,
          "name": "D#3",
          "ticks": 291840,
          "time": 225.49589,
          "velocity": 0.7165354330708661
        },
        {
          "duration": 0.2830099999999902,
          "durationTicks": 384,
          "midi": 63,
          "name": "D#4",
          "ticks": 291840,
          "time": 225.49589,
          "velocity": 0.7165354330708661
        },
        {
          "duration": 0.2830099999999902,
          "durationTicks": 384,
          "midi": 48,
          "name": "C3",
          "ticks": 292224,
          "time": 225.7789,
          "velocity": 0.7165354330708661
        },
        {
          "duration": 0.2830099999999902,
          "durationTicks": 384,
          "midi": 60,
          "name": "C4",
          "ticks": 292224,
          "time": 225.7789,
          "velocity": 0.7165354330708661
        },
        {
          "duration": 1.415050000000008,
          "durationTicks": 1920,
          "midi": 47,
          "name": "B2",
          "ticks": 292608,
          "time": 226.06190999999998,
          "velocity": 0.7165354330708661
        },
        {
          "duration": 1.415050000000008,
          "durationTicks": 1920,
          "midi": 59,
          "name": "B3",
          "ticks": 292608,
          "time": 226.06190999999998,
          "velocity": 0.7165354330708661
        },
        {
          "duration": 0.28301000000001864,
          "durationTicks": 384,
          "midi": 43,
          "name": "G2",
          "ticks": 294528,
          "time": 227.47696,
          "velocity": 0.7165354330708661
        },
        {
          "duration": 0.28301000000001864,
          "durationTicks": 384,
          "midi": 55,
          "name": "G3",
          "ticks": 294528,
          "time": 227.47696,
          "velocity": 0.7165354330708661
        },
        {
          "duration": 0.2830099999999902,
          "durationTicks": 384,
          "midi": 47,
          "name": "B2",
          "ticks": 294912,
          "time": 227.75997,
          "velocity": 0.7165354330708661
        },
        {
          "duration": 0.2830099999999902,
          "durationTicks": 384,
          "midi": 59,
          "name": "B3",
          "ticks": 294912,
          "time": 227.75997,
          "velocity": 0.7165354330708661
        },
        {
          "duration": 0.2830099999999902,
          "durationTicks": 384,
          "midi": 43,
          "name": "G2",
          "ticks": 295296,
          "time": 228.04298,
          "velocity": 0.7165354330708661
        },
        {
          "duration": 0.2830099999999902,
          "durationTicks": 384,
          "midi": 55,
          "name": "G3",
          "ticks": 295296,
          "time": 228.04298,
          "velocity": 0.7165354330708661
        },
        {
          "duration": 0.5660200000000088,
          "durationTicks": 768,
          "midi": 48,
          "name": "C3",
          "ticks": 295680,
          "time": 228.32599,
          "velocity": 0.7165354330708661
        },
        {
          "duration": 0.5660200000000088,
          "durationTicks": 768,
          "midi": 60,
          "name": "C4",
          "ticks": 295680,
          "time": 228.32599,
          "velocity": 0.7165354330708661
        },
        {
          "duration": 0.5660200000000088,
          "durationTicks": 768,
          "midi": 47,
          "name": "B2",
          "ticks": 296448,
          "time": 228.89201,
          "velocity": 0.7165354330708661
        },
        {
          "duration": 0.5660200000000088,
          "durationTicks": 768,
          "midi": 59,
          "name": "B3",
          "ticks": 296448,
          "time": 228.89201,
          "velocity": 0.7165354330708661
        },
        {
          "duration": 0.5660199999999804,
          "durationTicks": 768,
          "midi": 48,
          "name": "C3",
          "ticks": 297216,
          "time": 229.45803,
          "velocity": 0.7165354330708661
        },
        {
          "duration": 0.5660199999999804,
          "durationTicks": 768,
          "midi": 60,
          "name": "C4",
          "ticks": 297216,
          "time": 229.45803,
          "velocity": 0.7165354330708661
        },
        {
          "duration": 0.5660200000000088,
          "durationTicks": 768,
          "midi": 43,
          "name": "G2",
          "ticks": 297984,
          "time": 230.02405,
          "velocity": 0.7165354330708661
        },
        {
          "duration": 0.5660200000000088,
          "durationTicks": 768,
          "midi": 55,
          "name": "G3",
          "ticks": 297984,
          "time": 230.02405,
          "velocity": 0.7165354330708661
        },
        {
          "duration": 0.5660200000000088,
          "durationTicks": 768,
          "midi": 48,
          "name": "C3",
          "ticks": 298752,
          "time": 230.59007,
          "velocity": 0.7165354330708661
        },
        {
          "duration": 0.5660200000000088,
          "durationTicks": 768,
          "midi": 60,
          "name": "C4",
          "ticks": 298752,
          "time": 230.59007,
          "velocity": 0.7165354330708661
        },
        {
          "duration": 0.5660199999999804,
          "durationTicks": 768,
          "midi": 44,
          "name": "G#2",
          "ticks": 299520,
          "time": 231.15609,
          "velocity": 0.7165354330708661
        },
        {
          "duration": 0.5660199999999804,
          "durationTicks": 768,
          "midi": 56,
          "name": "G#3",
          "ticks": 299520,
          "time": 231.15609,
          "velocity": 0.7165354330708661
        },
        {
          "duration": 0.28301000000001864,
          "durationTicks": 384,
          "midi": 43,
          "name": "G2",
          "ticks": 300288,
          "time": 231.72211,
          "velocity": 0.905511811023622
        },
        {
          "duration": 0.28301000000001864,
          "durationTicks": 384,
          "midi": 55,
          "name": "G3",
          "ticks": 300288,
          "time": 231.72211,
          "velocity": 0.905511811023622
        },
        {
          "duration": 1.6666199999999947,
          "durationTicks": 2304,
          "midi": 62,
          "name": "D4",
          "ticks": 307968,
          "time": 238.04677,
          "velocity": 0.7165354330708661
        },
        {
          "duration": 1.6666199999999947,
          "durationTicks": 2304,
          "midi": 62,
          "name": "D4",
          "ticks": 307968,
          "time": 238.04677,
          "velocity": 0.7165354330708661
        },
        {
          "duration": 0.27777000000000385,
          "durationTicks": 384,
          "midi": 60,
          "name": "C4",
          "ticks": 310272,
          "time": 239.71339,
          "velocity": 0.905511811023622
        },
        {
          "duration": 0.27777000000000385,
          "durationTicks": 384,
          "midi": 60,
          "name": "C4",
          "ticks": 310272,
          "time": 239.71339,
          "velocity": 0.905511811023622
        },
        {
          "duration": 0.1388849999999877,
          "durationTicks": 192,
          "midi": 65,
          "name": "F4",
          "ticks": 311232,
          "time": 240.407815,
          "velocity": 0.905511811023622
        },
        {
          "duration": 0.1388849999999877,
          "durationTicks": 192,
          "midi": 68,
          "name": "G#4",
          "ticks": 311232,
          "time": 240.407815,
          "velocity": 0.905511811023622
        },
        {
          "duration": 0.13888500000001613,
          "durationTicks": 192,
          "midi": 65,
          "name": "F4",
          "ticks": 311424,
          "time": 240.5467,
          "velocity": 0.905511811023622
        },
        {
          "duration": 0.13888500000001613,
          "durationTicks": 192,
          "midi": 68,
          "name": "G#4",
          "ticks": 311424,
          "time": 240.5467,
          "velocity": 0.905511811023622
        },
        {
          "duration": 0.1388849999999877,
          "durationTicks": 192,
          "midi": 65,
          "name": "F4",
          "ticks": 311616,
          "time": 240.685585,
          "velocity": 0.905511811023622
        },
        {
          "duration": 0.1388849999999877,
          "durationTicks": 192,
          "midi": 68,
          "name": "G#4",
          "ticks": 311616,
          "time": 240.685585,
          "velocity": 0.905511811023622
        },
        {
          "duration": 0.27777000000000385,
          "durationTicks": 384,
          "midi": 65,
          "name": "F4",
          "ticks": 311808,
          "time": 240.82447,
          "velocity": 0.905511811023622
        },
        {
          "duration": 0.27777000000000385,
          "durationTicks": 384,
          "midi": 68,
          "name": "G#4",
          "ticks": 311808,
          "time": 240.82447,
          "velocity": 0.905511811023622
        },
        {
          "duration": 0.13888500000001613,
          "durationTicks": 192,
          "midi": 63,
          "name": "D#4",
          "ticks": 312768,
          "time": 241.518895,
          "velocity": 0.905511811023622
        },
        {
          "duration": 0.13888500000001613,
          "durationTicks": 192,
          "midi": 67,
          "name": "G4",
          "ticks": 312768,
          "time": 241.518895,
          "velocity": 0.905511811023622
        },
        {
          "duration": 0.1388849999999877,
          "durationTicks": 192,
          "midi": 63,
          "name": "D#4",
          "ticks": 312960,
          "time": 241.65778,
          "velocity": 0.905511811023622
        },
        {
          "duration": 0.1388849999999877,
          "durationTicks": 192,
          "midi": 67,
          "name": "G4",
          "ticks": 312960,
          "time": 241.65778,
          "velocity": 0.905511811023622
        },
        {
          "duration": 0.13888500000001613,
          "durationTicks": 192,
          "midi": 63,
          "name": "D#4",
          "ticks": 313152,
          "time": 241.796665,
          "velocity": 0.905511811023622
        },
        {
          "duration": 0.13888500000001613,
          "durationTicks": 192,
          "midi": 67,
          "name": "G4",
          "ticks": 313152,
          "time": 241.796665,
          "velocity": 0.905511811023622
        },
        {
          "duration": 0.27777000000000385,
          "durationTicks": 384,
          "midi": 63,
          "name": "D#4",
          "ticks": 313344,
          "time": 241.93555,
          "velocity": 0.905511811023622
        },
        {
          "duration": 0.27777000000000385,
          "durationTicks": 384,
          "midi": 67,
          "name": "G4",
          "ticks": 313344,
          "time": 241.93555,
          "velocity": 0.905511811023622
        },
        {
          "duration": 0.27521999999999025,
          "durationTicks": 384,
          "midi": 59,
          "name": "B3",
          "ticks": 314112,
          "time": 242.49108999999999,
          "velocity": 0.905511811023622
        },
        {
          "duration": 0.27521999999999025,
          "durationTicks": 384,
          "midi": 59,
          "name": "B3",
          "ticks": 314112,
          "time": 242.49108999999999,
          "velocity": 0.905511811023622
        },
        {
          "duration": 0.27521999999999025,
          "durationTicks": 384,
          "midi": 48,
          "name": "C3",
          "ticks": 314880,
          "time": 243.04153,
          "velocity": 0.905511811023622
        },
        {
          "duration": 0.27521999999999025,
          "durationTicks": 384,
          "midi": 58,
          "name": "A#3",
          "ticks": 314880,
          "time": 243.04153,
          "velocity": 0.905511811023622
        },
        {
          "duration": 0.27522000000001867,
          "durationTicks": 384,
          "midi": 48,
          "name": "C3",
          "ticks": 315648,
          "time": 243.59196999999998,
          "velocity": 0.905511811023622
        },
        {
          "duration": 0.27522000000001867,
          "durationTicks": 384,
          "midi": 56,
          "name": "G#3",
          "ticks": 315648,
          "time": 243.59196999999998,
          "velocity": 0.905511811023622
        },
        {
          "duration": 0.27521999999999025,
          "durationTicks": 384,
          "midi": 48,
          "name": "C3",
          "ticks": 316416,
          "time": 244.14240999999998,
          "velocity": 0.905511811023622
        },
        {
          "duration": 0.27521999999999025,
          "durationTicks": 384,
          "midi": 52,
          "name": "E3",
          "ticks": 316416,
          "time": 244.14240999999998,
          "velocity": 0.905511811023622
        },
        {
          "duration": 0.27521999999999025,
          "durationTicks": 384,
          "midi": 48,
          "name": "C3",
          "ticks": 317184,
          "time": 244.69285,
          "velocity": 0.905511811023622
        },
        {
          "duration": 0.27521999999999025,
          "durationTicks": 384,
          "midi": 53,
          "name": "F3",
          "ticks": 317184,
          "time": 244.69285,
          "velocity": 0.905511811023622
        },
        {
          "duration": 0.27522000000001867,
          "durationTicks": 384,
          "midi": 48,
          "name": "C3",
          "ticks": 317952,
          "time": 245.24328999999997,
          "velocity": 0.905511811023622
        },
        {
          "duration": 0.27522000000001867,
          "durationTicks": 384,
          "midi": 60,
          "name": "C4",
          "ticks": 317952,
          "time": 245.24328999999997,
          "velocity": 0.905511811023622
        },
        {
          "duration": 2.181759999999997,
          "durationTicks": 3072,
          "midi": 48,
          "name": "C3",
          "ticks": 318720,
          "time": 245.79372999999998,
          "velocity": 0.905511811023622
        },
        {
          "duration": 2.181759999999997,
          "durationTicks": 3072,
          "midi": 51,
          "name": "D#3",
          "ticks": 318720,
          "time": 245.79372999999998,
          "velocity": 0.905511811023622
        },
        {
          "duration": 1.9090400000000045,
          "durationTicks": 2688,
          "midi": 47,
          "name": "B2",
          "ticks": 321792,
          "time": 247.97548999999998,
          "velocity": 0.905511811023622
        },
        {
          "duration": 1.9090400000000045,
          "durationTicks": 2688,
          "midi": 50,
          "name": "D3",
          "ticks": 321792,
          "time": 247.97548999999998,
          "velocity": 0.905511811023622
        },
        {
          "duration": 0.2727199999999925,
          "durationTicks": 384,
          "midi": 48,
          "name": "C3",
          "ticks": 324480,
          "time": 249.88452999999998,
          "velocity": 0.905511811023622
        },
        {
          "duration": 0.2727199999999925,
          "durationTicks": 384,
          "midi": 51,
          "name": "D#3",
          "ticks": 324480,
          "time": 249.88452999999998,
          "velocity": 0.905511811023622
        },
        {
          "duration": 2.181759999999997,
          "durationTicks": 3072,
          "midi": 60,
          "name": "C4",
          "ticks": 324864,
          "time": 250.15724999999998,
          "velocity": 0.968503937007874
        },
        {
          "duration": 2.181759999999997,
          "durationTicks": 3072,
          "midi": 63,
          "name": "D#4",
          "ticks": 324864,
          "time": 250.15724999999998,
          "velocity": 0.968503937007874
        },
        {
          "duration": 0.2941099999999892,
          "durationTicks": 384,
          "midi": 60,
          "name": "C4",
          "ticks": 327936,
          "time": 252.33900999999997,
          "velocity": 0.968503937007874
        },
        {
          "duration": 0.2941099999999892,
          "durationTicks": 384,
          "midi": 63,
          "name": "D#4",
          "ticks": 327936,
          "time": 252.33900999999997,
          "velocity": 0.968503937007874
        },
        {
          "duration": 0.2941099999999892,
          "durationTicks": 384,
          "midi": 59,
          "name": "B3",
          "ticks": 329472,
          "time": 253.51545,
          "velocity": 0.968503937007874
        },
        {
          "duration": 0.2941099999999892,
          "durationTicks": 384,
          "midi": 62,
          "name": "D4",
          "ticks": 329472,
          "time": 253.51545,
          "velocity": 0.968503937007874
        },
        {
          "duration": 0.14705500000002303,
          "durationTicks": 192,
          "midi": 67,
          "name": "G4",
          "ticks": 330432,
          "time": 254.25072499999996,
          "velocity": 0.968503937007874
        },
        {
          "duration": 0.14705500000002303,
          "durationTicks": 192,
          "midi": 67,
          "name": "G4",
          "ticks": 330432,
          "time": 254.25072499999996,
          "velocity": 0.968503937007874
        },
        {
          "duration": 0.1470549999999946,
          "durationTicks": 192,
          "midi": 67,
          "name": "G4",
          "ticks": 330624,
          "time": 254.39777999999998,
          "velocity": 0.968503937007874
        },
        {
          "duration": 0.1470549999999946,
          "durationTicks": 192,
          "midi": 67,
          "name": "G4",
          "ticks": 330624,
          "time": 254.39777999999998,
          "velocity": 0.968503937007874
        },
        {
          "duration": 0.1470549999999946,
          "durationTicks": 192,
          "midi": 67,
          "name": "G4",
          "ticks": 330816,
          "time": 254.54483499999998,
          "velocity": 0.968503937007874
        },
        {
          "duration": 0.1470549999999946,
          "durationTicks": 192,
          "midi": 67,
          "name": "G4",
          "ticks": 330816,
          "time": 254.54483499999998,
          "velocity": 0.968503937007874
        },
        {
          "duration": 0.5882200000000068,
          "durationTicks": 768,
          "midi": 60,
          "name": "C4",
          "ticks": 331008,
          "time": 254.69188999999997,
          "velocity": 0.968503937007874
        },
        {
          "duration": 0.5882200000000068,
          "durationTicks": 768,
          "midi": 60,
          "name": "C4",
          "ticks": 331008,
          "time": 254.69188999999997,
          "velocity": 0.968503937007874
        },
        {
          "duration": 0.5882200000000068,
          "durationTicks": 768,
          "midi": 62,
          "name": "D4",
          "ticks": 331776,
          "time": 255.28010999999998,
          "velocity": 0.968503937007874
        },
        {
          "duration": 0.5882200000000068,
          "durationTicks": 768,
          "midi": 62,
          "name": "D4",
          "ticks": 331776,
          "time": 255.28010999999998,
          "velocity": 0.968503937007874
        },
        {
          "duration": 2.9410999999999774,
          "durationTicks": 3840,
          "midi": 55,
          "name": "G3",
          "ticks": 332544,
          "time": 255.86833,
          "velocity": 0.7165354330708661
        },
        {
          "duration": 2.9410999999999774,
          "durationTicks": 3840,
          "midi": 55,
          "name": "G3",
          "ticks": 332544,
          "time": 255.86833,
          "velocity": 0.7165354330708661
        },
        {
          "duration": 0.5882200000000353,
          "durationTicks": 768,
          "midi": 64,
          "name": "E4",
          "ticks": 336384,
          "time": 258.80942999999996,
          "velocity": 0.7165354330708661
        },
        {
          "duration": 0.5882200000000353,
          "durationTicks": 768,
          "midi": 67,
          "name": "G4",
          "ticks": 336384,
          "time": 258.80942999999996,
          "velocity": 0.7165354330708661
        },
        {
          "duration": 0.5882199999999784,
          "durationTicks": 768,
          "midi": 62,
          "name": "D4",
          "ticks": 337152,
          "time": 259.39765,
          "velocity": 0.7165354330708661
        },
        {
          "duration": 0.5882199999999784,
          "durationTicks": 768,
          "midi": 65,
          "name": "F4",
          "ticks": 337152,
          "time": 259.39765,
          "velocity": 0.7165354330708661
        },
        {
          "duration": 0.5882199999999784,
          "durationTicks": 768,
          "midi": 55,
          "name": "G3",
          "ticks": 337920,
          "time": 259.98587,
          "velocity": 0.7165354330708661
        },
        {
          "duration": 0.5882199999999784,
          "durationTicks": 768,
          "midi": 62,
          "name": "D4",
          "ticks": 337920,
          "time": 259.98587,
          "velocity": 0.7165354330708661
        },
        {
          "duration": 0.5882200000000353,
          "durationTicks": 768,
          "midi": 60,
          "name": "C4",
          "ticks": 338688,
          "time": 260.57408999999996,
          "velocity": 0.7165354330708661
        },
        {
          "duration": 0.5882200000000353,
          "durationTicks": 768,
          "midi": 64,
          "name": "E4",
          "ticks": 338688,
          "time": 260.57408999999996,
          "velocity": 0.7165354330708661
        },
        {
          "duration": 0.5882199999999784,
          "durationTicks": 768,
          "midi": 52,
          "name": "E3",
          "ticks": 339456,
          "time": 261.16231,
          "velocity": 0.7165354330708661
        },
        {
          "duration": 0.5882199999999784,
          "durationTicks": 768,
          "midi": 55,
          "name": "G3",
          "ticks": 339456,
          "time": 261.16231,
          "velocity": 0.7165354330708661
        },
        {
          "duration": 0.5769199999999728,
          "durationTicks": 768,
          "midi": 50,
          "name": "D3",
          "ticks": 340224,
          "time": 261.75052999999997,
          "velocity": 0.7165354330708661
        },
        {
          "duration": 0.5769199999999728,
          "durationTicks": 768,
          "midi": 53,
          "name": "F3",
          "ticks": 340224,
          "time": 261.75052999999997,
          "velocity": 0.7165354330708661
        },
        {
          "duration": 0.5769200000000296,
          "durationTicks": 768,
          "midi": 43,
          "name": "G2",
          "ticks": 340992,
          "time": 262.32744999999994,
          "velocity": 0.7165354330708661
        },
        {
          "duration": 0.5769200000000296,
          "durationTicks": 768,
          "midi": 50,
          "name": "D3",
          "ticks": 340992,
          "time": 262.32744999999994,
          "velocity": 0.7165354330708661
        },
        {
          "duration": 0.5769199999999728,
          "durationTicks": 768,
          "midi": 48,
          "name": "C3",
          "ticks": 341760,
          "time": 262.90437,
          "velocity": 0.7165354330708661
        },
        {
          "duration": 0.5769199999999728,
          "durationTicks": 768,
          "midi": 52,
          "name": "E3",
          "ticks": 341760,
          "time": 262.90437,
          "velocity": 0.7165354330708661
        },
        {
          "duration": 0.5769200000000296,
          "durationTicks": 768,
          "midi": 64,
          "name": "E4",
          "ticks": 342528,
          "time": 263.48128999999994,
          "velocity": 0.7165354330708661
        },
        {
          "duration": 0.5769200000000296,
          "durationTicks": 768,
          "midi": 67,
          "name": "G4",
          "ticks": 342528,
          "time": 263.48128999999994,
          "velocity": 0.7165354330708661
        },
        {
          "duration": 0.5769199999999728,
          "durationTicks": 768,
          "midi": 62,
          "name": "D4",
          "ticks": 343296,
          "time": 264.05821,
          "velocity": 0.7165354330708661
        },
        {
          "duration": 0.5769199999999728,
          "durationTicks": 768,
          "midi": 65,
          "name": "F4",
          "ticks": 343296,
          "time": 264.05821,
          "velocity": 0.7165354330708661
        },
        {
          "duration": 0.5769200000000296,
          "durationTicks": 768,
          "midi": 55,
          "name": "G3",
          "ticks": 344064,
          "time": 264.63512999999995,
          "velocity": 0.7165354330708661
        },
        {
          "duration": 0.5769200000000296,
          "durationTicks": 768,
          "midi": 62,
          "name": "D4",
          "ticks": 344064,
          "time": 264.63512999999995,
          "velocity": 0.7165354330708661
        },
        {
          "duration": 0.5769199999999728,
          "durationTicks": 768,
          "midi": 60,
          "name": "C4",
          "ticks": 344832,
          "time": 265.21205,
          "velocity": 0.7165354330708661
        },
        {
          "duration": 0.5769199999999728,
          "durationTicks": 768,
          "midi": 64,
          "name": "E4",
          "ticks": 344832,
          "time": 265.21205,
          "velocity": 0.7165354330708661
        },
        {
          "duration": 0.5769200000000296,
          "durationTicks": 768,
          "midi": 55,
          "name": "G3",
          "ticks": 345600,
          "time": 265.78896999999995,
          "velocity": 0.7165354330708661
        },
        {
          "duration": 0.5769200000000296,
          "durationTicks": 768,
          "midi": 58,
          "name": "A#3",
          "ticks": 345600,
          "time": 265.78896999999995,
          "velocity": 0.7165354330708661
        },
        {
          "duration": 0.5660199999999804,
          "durationTicks": 768,
          "midi": 52,
          "name": "E3",
          "ticks": 346368,
          "time": 266.36589,
          "velocity": 0.7165354330708661
        },
        {
          "duration": 0.5660199999999804,
          "durationTicks": 768,
          "midi": 55,
          "name": "G3",
          "ticks": 346368,
          "time": 266.36589,
          "velocity": 0.7165354330708661
        },
        {
          "duration": 0.5660200000000373,
          "durationTicks": 768,
          "midi": 48,
          "name": "C3",
          "ticks": 347136,
          "time": 266.93190999999996,
          "velocity": 0.7165354330708661
        },
        {
          "duration": 0.5660200000000373,
          "durationTicks": 768,
          "midi": 52,
          "name": "E3",
          "ticks": 347136,
          "time": 266.93190999999996,
          "velocity": 0.7165354330708661
        },
        {
          "duration": 0.5660199999999804,
          "durationTicks": 768,
          "midi": 53,
          "name": "F3",
          "ticks": 347904,
          "time": 267.49793,
          "velocity": 0.7165354330708661
        },
        {
          "duration": 0.5660199999999804,
          "durationTicks": 768,
          "midi": 53,
          "name": "F3",
          "ticks": 347904,
          "time": 267.49793,
          "velocity": 0.7165354330708661
        },
        {
          "duration": 0.5660199999999804,
          "durationTicks": 768,
          "midi": 57,
          "name": "A3",
          "ticks": 348672,
          "time": 268.06395,
          "velocity": 0.7165354330708661
        },
        {
          "duration": 0.5660199999999804,
          "durationTicks": 768,
          "midi": 60,
          "name": "C4",
          "ticks": 348672,
          "time": 268.06395,
          "velocity": 0.7165354330708661
        },
        {
          "duration": 0.5660200000000373,
          "durationTicks": 768,
          "midi": 54,
          "name": "F#3",
          "ticks": 349440,
          "time": 268.62996999999996,
          "velocity": 0.7165354330708661
        },
        {
          "duration": 0.5660200000000373,
          "durationTicks": 768,
          "midi": 57,
          "name": "A3",
          "ticks": 349440,
          "time": 268.62996999999996,
          "velocity": 0.7165354330708661
        },
        {
          "duration": 0.5660199999999804,
          "durationTicks": 768,
          "midi": 50,
          "name": "D3",
          "ticks": 350208,
          "time": 269.19599,
          "velocity": 0.7165354330708661
        },
        {
          "duration": 0.5660199999999804,
          "durationTicks": 768,
          "midi": 54,
          "name": "F#3",
          "ticks": 350208,
          "time": 269.19599,
          "velocity": 0.7165354330708661
        },
        {
          "duration": 0.5660199999999804,
          "durationTicks": 768,
          "midi": 55,
          "name": "G3",
          "ticks": 350976,
          "time": 269.76201,
          "velocity": 0.7165354330708661
        },
        {
          "duration": 0.5660199999999804,
          "durationTicks": 768,
          "midi": 55,
          "name": "G3",
          "ticks": 350976,
          "time": 269.76201,
          "velocity": 0.7165354330708661
        },
        {
          "duration": 1.6980599999999981,
          "durationTicks": 2304,
          "midi": 44,
          "name": "G#2",
          "ticks": 351744,
          "time": 270.32802999999996,
          "velocity": 0.7165354330708661
        },
        {
          "duration": 1.6980599999999981,
          "durationTicks": 2304,
          "midi": 56,
          "name": "G#3",
          "ticks": 351744,
          "time": 270.32802999999996,
          "velocity": 0.7165354330708661
        },
        {
          "duration": 1.1320400000000177,
          "durationTicks": 1536,
          "midi": 47,
          "name": "B2",
          "ticks": 354048,
          "time": 272.02608999999995,
          "velocity": 0.7165354330708661
        },
        {
          "duration": 1.1320400000000177,
          "durationTicks": 1536,
          "midi": 59,
          "name": "B3",
          "ticks": 354048,
          "time": 272.02608999999995,
          "velocity": 0.7165354330708661
        },
        {
          "duration": 2.2640799999999786,
          "durationTicks": 3072,
          "midi": 50,
          "name": "D3",
          "ticks": 355584,
          "time": 273.15812999999997,
          "velocity": 0.7165354330708661
        },
        {
          "duration": 2.2640799999999786,
          "durationTicks": 3072,
          "midi": 62,
          "name": "D4",
          "ticks": 355584,
          "time": 273.15812999999997,
          "velocity": 0.7165354330708661
        },
        {
          "duration": 1.1320400000000177,
          "durationTicks": 1536,
          "midi": 50,
          "name": "D3",
          "ticks": 358656,
          "time": 275.42220999999995,
          "velocity": 0.7952755905511811
        },
        {
          "duration": 1.1320400000000177,
          "durationTicks": 1536,
          "midi": 62,
          "name": "D4",
          "ticks": 358656,
          "time": 275.42220999999995,
          "velocity": 0.7952755905511811
        },
        {
          "duration": 2.222159999999974,
          "durationTicks": 3072,
          "midi": 50,
          "name": "D3",
          "ticks": 360192,
          "time": 276.55424999999997,
          "velocity": 0.8582677165354331
        },
        {
          "duration": 2.222159999999974,
          "durationTicks": 3072,
          "midi": 62,
          "name": "D4",
          "ticks": 360192,
          "time": 276.55424999999997,
          "velocity": 0.8582677165354331
        },
        {
          "duration": 0.83331000000004,
          "durationTicks": 1152,
          "midi": 62,
          "name": "D4",
          "ticks": 363264,
          "time": 278.77640999999994,
          "velocity": 0.968503937007874
        },
        {
          "duration": 0.83331000000004,
          "durationTicks": 1152,
          "midi": 65,
          "name": "F4",
          "ticks": 363264,
          "time": 278.77640999999994,
          "velocity": 0.968503937007874
        },
        {
          "duration": 0.2777699999999754,
          "durationTicks": 384,
          "midi": 59,
          "name": "B3",
          "ticks": 364416,
          "time": 279.60972,
          "velocity": 0.968503937007874
        },
        {
          "duration": 0.2777699999999754,
          "durationTicks": 384,
          "midi": 65,
          "name": "F4",
          "ticks": 364416,
          "time": 279.60972,
          "velocity": 0.968503937007874
        },
        {
          "duration": 0.27777000000003227,
          "durationTicks": 384,
          "midi": 60,
          "name": "C4",
          "ticks": 364800,
          "time": 279.88748999999996,
          "velocity": 0.968503937007874
        },
        {
          "duration": 0.27777000000003227,
          "durationTicks": 384,
          "midi": 64,
          "name": "E4",
          "ticks": 364800,
          "time": 279.88748999999996,
          "velocity": 0.968503937007874
        },
        {
          "duration": 0.2777699999999754,
          "durationTicks": 384,
          "midi": 59,
          "name": "B3",
          "ticks": 365568,
          "time": 280.44302999999996,
          "velocity": 0.968503937007874
        },
        {
          "duration": 0.2777699999999754,
          "durationTicks": 384,
          "midi": 65,
          "name": "F4",
          "ticks": 365568,
          "time": 280.44302999999996,
          "velocity": 0.968503937007874
        },
        {
          "duration": 0.2777699999999754,
          "durationTicks": 384,
          "midi": 60,
          "name": "C4",
          "ticks": 366336,
          "time": 280.99857,
          "velocity": 0.968503937007874
        },
        {
          "duration": 0.2777699999999754,
          "durationTicks": 384,
          "midi": 64,
          "name": "E4",
          "ticks": 366336,
          "time": 280.99857,
          "velocity": 0.968503937007874
        },
        {
          "duration": 0.2777699999999754,
          "durationTicks": 384,
          "midi": 53,
          "name": "F3",
          "ticks": 367104,
          "time": 281.55411,
          "velocity": 0.968503937007874
        },
        {
          "duration": 0.2777699999999754,
          "durationTicks": 384,
          "midi": 65,
          "name": "F4",
          "ticks": 367104,
          "time": 281.55411,
          "velocity": 0.968503937007874
        },
        {
          "duration": 0.2777699999999754,
          "durationTicks": 384,
          "midi": 55,
          "name": "G3",
          "ticks": 367872,
          "time": 282.10965,
          "velocity": 0.968503937007874
        },
        {
          "duration": 0.2777699999999754,
          "durationTicks": 384,
          "midi": 67,
          "name": "G4",
          "ticks": 367872,
          "time": 282.10965,
          "velocity": 0.968503937007874
        },
        {
          "duration": 0.2777699999999754,
          "durationTicks": 384,
          "midi": 43,
          "name": "G2",
          "ticks": 368640,
          "time": 282.66519,
          "velocity": 0.968503937007874
        },
        {
          "duration": 0.2777699999999754,
          "durationTicks": 384,
          "midi": 55,
          "name": "G3",
          "ticks": 368640,
          "time": 282.66519,
          "velocity": 0.968503937007874
        },
        {
          "duration": 1.1110800000000154,
          "durationTicks": 1536,
          "midi": 47,
          "name": "B2",
          "ticks": 369408,
          "time": 283.22072999999995,
          "velocity": 0.968503937007874
        },
        {
          "duration": 1.1110800000000154,
          "durationTicks": 1536,
          "midi": 50,
          "name": "D3",
          "ticks": 369408,
          "time": 283.22072999999995,
          "velocity": 0.968503937007874
        },
        {
          "duration": 0.27777000000003227,
          "durationTicks": 384,
          "midi": 48,
          "name": "C3",
          "ticks": 370944,
          "time": 284.33180999999996,
          "velocity": 0.968503937007874
        },
        {
          "duration": 0.27777000000003227,
          "durationTicks": 384,
          "midi": 52,
          "name": "E3",
          "ticks": 370944,
          "time": 284.33180999999996,
          "velocity": 0.968503937007874
        },
        {
          "duration": 0.2777699999999754,
          "durationTicks": 384,
          "midi": 48,
          "name": "C3",
          "ticks": 371328,
          "time": 284.60958,
          "velocity": 0.968503937007874
        },
        {
          "duration": 0.2777699999999754,
          "durationTicks": 384,
          "midi": 52,
          "name": "E3",
          "ticks": 371328,
          "time": 284.60958,
          "velocity": 0.968503937007874
        },
        {
          "duration": 0.27777000000003227,
          "durationTicks": 384,
          "midi": 50,
          "name": "D3",
          "ticks": 372096,
          "time": 285.16511999999994,
          "velocity": 0.968503937007874
        },
        {
          "duration": 0.27777000000003227,
          "durationTicks": 384,
          "midi": 53,
          "name": "F3",
          "ticks": 372096,
          "time": 285.16511999999994,
          "velocity": 0.968503937007874
        },
        {
          "duration": 0.27777000000003227,
          "durationTicks": 384,
          "midi": 52,
          "name": "E3",
          "ticks": 372864,
          "time": 285.72065999999995,
          "velocity": 0.968503937007874
        },
        {
          "duration": 0.27777000000003227,
          "durationTicks": 384,
          "midi": 55,
          "name": "G3",
          "ticks": 372864,
          "time": 285.72065999999995,
          "velocity": 0.968503937007874
        },
        {
          "duration": 0.27777000000003227,
          "durationTicks": 384,
          "midi": 53,
          "name": "F3",
          "ticks": 373632,
          "time": 286.27619999999996,
          "velocity": 0.968503937007874
        },
        {
          "duration": 0.27777000000003227,
          "durationTicks": 384,
          "midi": 57,
          "name": "A3",
          "ticks": 373632,
          "time": 286.27619999999996,
          "velocity": 0.968503937007874
        },
        {
          "duration": 0.2777699999999754,
          "durationTicks": 384,
          "midi": 55,
          "name": "G3",
          "ticks": 374400,
          "time": 286.83173999999997,
          "velocity": 0.968503937007874
        },
        {
          "duration": 0.2777699999999754,
          "durationTicks": 384,
          "midi": 60,
          "name": "C4",
          "ticks": 374400,
          "time": 286.83173999999997,
          "velocity": 0.968503937007874
        },
        {
          "duration": 0.2777699999999754,
          "durationTicks": 384,
          "midi": 55,
          "name": "G3",
          "ticks": 375168,
          "time": 287.38728,
          "velocity": 0.968503937007874
        },
        {
          "duration": 0.2777699999999754,
          "durationTicks": 384,
          "midi": 59,
          "name": "B3",
          "ticks": 375168,
          "time": 287.38728,
          "velocity": 0.968503937007874
        },
        {
          "duration": 0.13888500000001613,
          "durationTicks": 192,
          "midi": 55,
          "name": "G3",
          "ticks": 375552,
          "time": 287.66504999999995,
          "velocity": 0.968503937007874
        },
        {
          "duration": 0.13888500000001613,
          "durationTicks": 192,
          "midi": 60,
          "name": "C4",
          "ticks": 375552,
          "time": 287.66504999999995,
          "velocity": 0.968503937007874
        },
        {
          "duration": 0.13888500000001613,
          "durationTicks": 192,
          "midi": 52,
          "name": "E3",
          "ticks": 375744,
          "time": 287.80393499999997,
          "velocity": 0.968503937007874
        },
        {
          "duration": 0.13888500000001613,
          "durationTicks": 192,
          "midi": 64,
          "name": "E4",
          "ticks": 375744,
          "time": 287.80393499999997,
          "velocity": 0.968503937007874
        },
        {
          "duration": 0.1388849999999593,
          "durationTicks": 192,
          "midi": 52,
          "name": "E3",
          "ticks": 375936,
          "time": 287.94282,
          "velocity": 0.968503937007874
        },
        {
          "duration": 0.1388849999999593,
          "durationTicks": 192,
          "midi": 64,
          "name": "E4",
          "ticks": 375936,
          "time": 287.94282,
          "velocity": 0.968503937007874
        },
        {
          "duration": 0.13888500000001613,
          "durationTicks": 192,
          "midi": 52,
          "name": "E3",
          "ticks": 376128,
          "time": 288.08170499999994,
          "velocity": 0.968503937007874
        },
        {
          "duration": 0.13888500000001613,
          "durationTicks": 192,
          "midi": 64,
          "name": "E4",
          "ticks": 376128,
          "time": 288.08170499999994,
          "velocity": 0.968503937007874
        },
        {
          "duration": 0.13888500000001613,
          "durationTicks": 192,
          "midi": 48,
          "name": "C3",
          "ticks": 376320,
          "time": 288.22058999999996,
          "velocity": 0.968503937007874
        },
        {
          "duration": 0.13888500000001613,
          "durationTicks": 192,
          "midi": 60,
          "name": "C4",
          "ticks": 376320,
          "time": 288.22058999999996,
          "velocity": 0.968503937007874
        },
        {
          "duration": 0.13888500000001613,
          "durationTicks": 192,
          "midi": 55,
          "name": "G3",
          "ticks": 376512,
          "time": 288.359475,
          "velocity": 0.968503937007874
        },
        {
          "duration": 0.13888500000001613,
          "durationTicks": 192,
          "midi": 67,
          "name": "G4",
          "ticks": 376512,
          "time": 288.359475,
          "velocity": 0.968503937007874
        },
        {
          "duration": 0.1388849999999593,
          "durationTicks": 192,
          "midi": 55,
          "name": "G3",
          "ticks": 376704,
          "time": 288.49836,
          "velocity": 0.968503937007874
        },
        {
          "duration": 0.1388849999999593,
          "durationTicks": 192,
          "midi": 67,
          "name": "G4",
          "ticks": 376704,
          "time": 288.49836,
          "velocity": 0.968503937007874
        },
        {
          "duration": 0.13888500000001613,
          "durationTicks": 192,
          "midi": 55,
          "name": "G3",
          "ticks": 376896,
          "time": 288.63724499999995,
          "velocity": 0.968503937007874
        },
        {
          "duration": 0.13888500000001613,
          "durationTicks": 192,
          "midi": 67,
          "name": "G4",
          "ticks": 376896,
          "time": 288.63724499999995,
          "velocity": 0.968503937007874
        },
        {
          "duration": 0.13888500000001613,
          "durationTicks": 192,
          "midi": 52,
          "name": "E3",
          "ticks": 377088,
          "time": 288.77612999999997,
          "velocity": 0.968503937007874
        },
        {
          "duration": 0.13888500000001613,
          "durationTicks": 192,
          "midi": 64,
          "name": "E4",
          "ticks": 377088,
          "time": 288.77612999999997,
          "velocity": 0.968503937007874
        },
        {
          "duration": 0.1388849999999593,
          "durationTicks": 192,
          "midi": 48,
          "name": "C3",
          "ticks": 377280,
          "time": 288.915015,
          "velocity": 0.968503937007874
        },
        {
          "duration": 0.1388849999999593,
          "durationTicks": 192,
          "midi": 60,
          "name": "C4",
          "ticks": 377280,
          "time": 288.915015,
          "velocity": 0.968503937007874
        },
        {
          "duration": 0.13888500000001613,
          "durationTicks": 192,
          "midi": 48,
          "name": "C3",
          "ticks": 377472,
          "time": 289.05389999999994,
          "velocity": 0.968503937007874
        },
        {
          "duration": 0.13888500000001613,
          "durationTicks": 192,
          "midi": 60,
          "name": "C4",
          "ticks": 377472,
          "time": 289.05389999999994,
          "velocity": 0.968503937007874
        },
        {
          "duration": 0.13888500000001613,
          "durationTicks": 192,
          "midi": 48,
          "name": "C3",
          "ticks": 377664,
          "time": 289.19278499999996,
          "velocity": 0.968503937007874
        },
        {
          "duration": 0.13888500000001613,
          "durationTicks": 192,
          "midi": 60,
          "name": "C4",
          "ticks": 377664,
          "time": 289.19278499999996,
          "velocity": 0.968503937007874
        },
        {
          "duration": 0.694424999999967,
          "durationTicks": 960,
          "midi": 43,
          "name": "G2",
          "ticks": 377856,
          "time": 289.33167,
          "velocity": 0.968503937007874
        },
        {
          "duration": 0.694424999999967,
          "durationTicks": 960,
          "midi": 55,
          "name": "G3",
          "ticks": 377856,
          "time": 289.33167,
          "velocity": 0.968503937007874
        },
        {
          "duration": 0.13888500000001613,
          "durationTicks": 192,
          "midi": 64,
          "name": "E4",
          "ticks": 378816,
          "time": 290.02609499999994,
          "velocity": 0.968503937007874
        },
        {
          "duration": 0.13888500000001613,
          "durationTicks": 192,
          "midi": 64,
          "name": "E4",
          "ticks": 378816,
          "time": 290.02609499999994,
          "velocity": 0.968503937007874
        },
        {
          "duration": 0.13888500000001613,
          "durationTicks": 192,
          "midi": 64,
          "name": "E4",
          "ticks": 379008,
          "time": 290.16497999999996,
          "velocity": 0.968503937007874
        },
        {
          "duration": 0.13888500000001613,
          "durationTicks": 192,
          "midi": 64,
          "name": "E4",
          "ticks": 379008,
          "time": 290.16497999999996,
          "velocity": 0.968503937007874
        },
        {
          "duration": 0.13888500000001613,
          "durationTicks": 192,
          "midi": 64,
          "name": "E4",
          "ticks": 379200,
          "time": 290.303865,
          "velocity": 0.968503937007874
        },
        {
          "duration": 0.13888500000001613,
          "durationTicks": 192,
          "midi": 64,
          "name": "E4",
          "ticks": 379200,
          "time": 290.303865,
          "velocity": 0.968503937007874
        },
        {
          "duration": 0.1388849999999593,
          "durationTicks": 192,
          "midi": 60,
          "name": "C4",
          "ticks": 379392,
          "time": 290.44275,
          "velocity": 0.968503937007874
        },
        {
          "duration": 0.1388849999999593,
          "durationTicks": 192,
          "midi": 60,
          "name": "C4",
          "ticks": 379392,
          "time": 290.44275,
          "velocity": 0.968503937007874
        },
        {
          "duration": 0.13888500000001613,
          "durationTicks": 192,
          "midi": 55,
          "name": "G3",
          "ticks": 379584,
          "time": 290.58163499999995,
          "velocity": 0.968503937007874
        },
        {
          "duration": 0.13888500000001613,
          "durationTicks": 192,
          "midi": 67,
          "name": "G4",
          "ticks": 379584,
          "time": 290.58163499999995,
          "velocity": 0.968503937007874
        },
        {
          "duration": 0.13888500000001613,
          "durationTicks": 192,
          "midi": 55,
          "name": "G3",
          "ticks": 379776,
          "time": 290.72051999999996,
          "velocity": 0.968503937007874
        },
        {
          "duration": 0.13888500000001613,
          "durationTicks": 192,
          "midi": 67,
          "name": "G4",
          "ticks": 379776,
          "time": 290.72051999999996,
          "velocity": 0.968503937007874
        },
        {
          "duration": 0.13888500000001613,
          "durationTicks": 192,
          "midi": 55,
          "name": "G3",
          "ticks": 379968,
          "time": 290.859405,
          "velocity": 0.968503937007874
        },
        {
          "duration": 0.13888500000001613,
          "durationTicks": 192,
          "midi": 67,
          "name": "G4",
          "ticks": 379968,
          "time": 290.859405,
          "velocity": 0.968503937007874
        },
        {
          "duration": 0.1388849999999593,
          "durationTicks": 192,
          "midi": 52,
          "name": "E3",
          "ticks": 380160,
          "time": 290.99829,
          "velocity": 0.968503937007874
        },
        {
          "duration": 0.1388849999999593,
          "durationTicks": 192,
          "midi": 64,
          "name": "E4",
          "ticks": 380160,
          "time": 290.99829,
          "velocity": 0.968503937007874
        },
        {
          "duration": 0.13888500000001613,
          "durationTicks": 192,
          "midi": 48,
          "name": "C3",
          "ticks": 380352,
          "time": 291.13717499999996,
          "velocity": 0.968503937007874
        },
        {
          "duration": 0.13888500000001613,
          "durationTicks": 192,
          "midi": 60,
          "name": "C4",
          "ticks": 380352,
          "time": 291.13717499999996,
          "velocity": 0.968503937007874
        },
        {
          "duration": 0.13888500000001613,
          "durationTicks": 192,
          "midi": 48,
          "name": "C3",
          "ticks": 380544,
          "time": 291.27606,
          "velocity": 0.968503937007874
        },
        {
          "duration": 0.13888500000001613,
          "durationTicks": 192,
          "midi": 60,
          "name": "C4",
          "ticks": 380544,
          "time": 291.27606,
          "velocity": 0.968503937007874
        },
        {
          "duration": 0.1388849999999593,
          "durationTicks": 192,
          "midi": 48,
          "name": "C3",
          "ticks": 380736,
          "time": 291.414945,
          "velocity": 0.968503937007874
        },
        {
          "duration": 0.1388849999999593,
          "durationTicks": 192,
          "midi": 60,
          "name": "C4",
          "ticks": 380736,
          "time": 291.414945,
          "velocity": 0.968503937007874
        },
        {
          "duration": 0.13888500000001613,
          "durationTicks": 192,
          "midi": 43,
          "name": "G2",
          "ticks": 380928,
          "time": 291.55382999999995,
          "velocity": 0.968503937007874
        },
        {
          "duration": 0.13888500000001613,
          "durationTicks": 192,
          "midi": 55,
          "name": "G3",
          "ticks": 380928,
          "time": 291.55382999999995,
          "velocity": 0.968503937007874
        },
        {
          "duration": 0.13888500000001613,
          "durationTicks": 192,
          "midi": 59,
          "name": "B3",
          "ticks": 381120,
          "time": 291.69271499999996,
          "velocity": 0.968503937007874
        },
        {
          "duration": 0.13888500000001613,
          "durationTicks": 192,
          "midi": 62,
          "name": "D4",
          "ticks": 381120,
          "time": 291.69271499999996,
          "velocity": 0.968503937007874
        },
        {
          "duration": 0.1388849999999593,
          "durationTicks": 192,
          "midi": 59,
          "name": "B3",
          "ticks": 381312,
          "time": 291.8316,
          "velocity": 0.968503937007874
        },
        {
          "duration": 0.1388849999999593,
          "durationTicks": 192,
          "midi": 62,
          "name": "D4",
          "ticks": 381312,
          "time": 291.8316,
          "velocity": 0.968503937007874
        },
        {
          "duration": 0.13888500000001613,
          "durationTicks": 192,
          "midi": 59,
          "name": "B3",
          "ticks": 381504,
          "time": 291.97048499999994,
          "velocity": 0.968503937007874
        },
        {
          "duration": 0.13888500000001613,
          "durationTicks": 192,
          "midi": 62,
          "name": "D4",
          "ticks": 381504,
          "time": 291.97048499999994,
          "velocity": 0.968503937007874
        },
        {
          "duration": 0.27777000000003227,
          "durationTicks": 384,
          "midi": 60,
          "name": "C4",
          "ticks": 381696,
          "time": 292.10936999999996,
          "velocity": 0.968503937007874
        },
        {
          "duration": 0.27777000000003227,
          "durationTicks": 384,
          "midi": 64,
          "name": "E4",
          "ticks": 381696,
          "time": 292.10936999999996,
          "velocity": 0.968503937007874
        },
        {
          "duration": 0.13888500000001613,
          "durationTicks": 192,
          "midi": 59,
          "name": "B3",
          "ticks": 382656,
          "time": 292.803795,
          "velocity": 0.968503937007874
        },
        {
          "duration": 0.13888500000001613,
          "durationTicks": 192,
          "midi": 62,
          "name": "D4",
          "ticks": 382656,
          "time": 292.803795,
          "velocity": 0.968503937007874
        },
        {
          "duration": 0.1388849999999593,
          "durationTicks": 192,
          "midi": 59,
          "name": "B3",
          "ticks": 382848,
          "time": 292.94268,
          "velocity": 0.968503937007874
        },
        {
          "duration": 0.1388849999999593,
          "durationTicks": 192,
          "midi": 62,
          "name": "D4",
          "ticks": 382848,
          "time": 292.94268,
          "velocity": 0.968503937007874
        },
        {
          "duration": 0.13888500000001613,
          "durationTicks": 192,
          "midi": 59,
          "name": "B3",
          "ticks": 383040,
          "time": 293.08156499999996,
          "velocity": 0.968503937007874
        },
        {
          "duration": 0.13888500000001613,
          "durationTicks": 192,
          "midi": 62,
          "name": "D4",
          "ticks": 383040,
          "time": 293.08156499999996,
          "velocity": 0.968503937007874
        },
        {
          "duration": 0.2777699999999754,
          "durationTicks": 384,
          "midi": 60,
          "name": "C4",
          "ticks": 383232,
          "time": 293.22044999999997,
          "velocity": 0.968503937007874
        },
        {
          "duration": 0.2777699999999754,
          "durationTicks": 384,
          "midi": 64,
          "name": "E4",
          "ticks": 383232,
          "time": 293.22044999999997,
          "velocity": 0.968503937007874
        },
        {
          "duration": 0.1388849999999593,
          "durationTicks": 192,
          "midi": 55,
          "name": "G3",
          "ticks": 384192,
          "time": 293.914875,
          "velocity": 0.968503937007874
        },
        {
          "duration": 0.1388849999999593,
          "durationTicks": 192,
          "midi": 62,
          "name": "D4",
          "ticks": 384192,
          "time": 293.914875,
          "velocity": 0.968503937007874
        },
        {
          "duration": 0.13888500000001613,
          "durationTicks": 192,
          "midi": 55,
          "name": "G3",
          "ticks": 384384,
          "time": 294.05375999999995,
          "velocity": 0.968503937007874
        },
        {
          "duration": 0.13888500000001613,
          "durationTicks": 192,
          "midi": 62,
          "name": "D4",
          "ticks": 384384,
          "time": 294.05375999999995,
          "velocity": 0.968503937007874
        },
        {
          "duration": 0.13888500000001613,
          "durationTicks": 192,
          "midi": 55,
          "name": "G3",
          "ticks": 384576,
          "time": 294.19264499999997,
          "velocity": 0.968503937007874
        },
        {
          "duration": 0.13888500000001613,
          "durationTicks": 192,
          "midi": 62,
          "name": "D4",
          "ticks": 384576,
          "time": 294.19264499999997,
          "velocity": 0.968503937007874
        },
        {
          "duration": 0.1388849999999593,
          "durationTicks": 192,
          "midi": 48,
          "name": "C3",
          "ticks": 384768,
          "time": 294.33153,
          "velocity": 0.968503937007874
        },
        {
          "duration": 0.1388849999999593,
          "durationTicks": 192,
          "midi": 60,
          "name": "C4",
          "ticks": 384768,
          "time": 294.33153,
          "velocity": 0.968503937007874
        },
        {
          "duration": 0.13888500000001613,
          "durationTicks": 192,
          "midi": 48,
          "name": "C3",
          "ticks": 384960,
          "time": 294.47041499999995,
          "velocity": 0.968503937007874
        },
        {
          "duration": 0.13888500000001613,
          "durationTicks": 192,
          "midi": 60,
          "name": "C4",
          "ticks": 384960,
          "time": 294.47041499999995,
          "velocity": 0.968503937007874
        },
        {
          "duration": 0.13888500000001613,
          "durationTicks": 192,
          "midi": 48,
          "name": "C3",
          "ticks": 385152,
          "time": 294.60929999999996,
          "velocity": 0.968503937007874
        },
        {
          "duration": 0.13888500000001613,
          "durationTicks": 192,
          "midi": 60,
          "name": "C4",
          "ticks": 385152,
          "time": 294.60929999999996,
          "velocity": 0.968503937007874
        },
        {
          "duration": 0.13888500000001613,
          "durationTicks": 192,
          "midi": 48,
          "name": "C3",
          "ticks": 385344,
          "time": 294.748185,
          "velocity": 0.968503937007874
        },
        {
          "duration": 0.13888500000001613,
          "durationTicks": 192,
          "midi": 60,
          "name": "C4",
          "ticks": 385344,
          "time": 294.748185,
          "velocity": 0.968503937007874
        },
        {
          "duration": 0.694424999999967,
          "durationTicks": 960,
          "midi": 48,
          "name": "C3",
          "ticks": 385536,
          "time": 294.88707,
          "velocity": 0.968503937007874
        },
        {
          "duration": 0.694424999999967,
          "durationTicks": 960,
          "midi": 60,
          "name": "C4",
          "ticks": 385536,
          "time": 294.88707,
          "velocity": 0.968503937007874
        },
        {
          "duration": 0.13888500000001613,
          "durationTicks": 192,
          "midi": 48,
          "name": "C3",
          "ticks": 386496,
          "time": 295.58149499999996,
          "velocity": 0.968503937007874
        },
        {
          "duration": 0.13888500000001613,
          "durationTicks": 192,
          "midi": 60,
          "name": "C4",
          "ticks": 386496,
          "time": 295.58149499999996,
          "velocity": 0.968503937007874
        },
        {
          "duration": 0.13888500000001613,
          "durationTicks": 192,
          "midi": 48,
          "name": "C3",
          "ticks": 386688,
          "time": 295.72038,
          "velocity": 0.968503937007874
        },
        {
          "duration": 0.13888500000001613,
          "durationTicks": 192,
          "midi": 60,
          "name": "C4",
          "ticks": 386688,
          "time": 295.72038,
          "velocity": 0.968503937007874
        },
        {
          "duration": 0.1388849999999593,
          "durationTicks": 192,
          "midi": 48,
          "name": "C3",
          "ticks": 386880,
          "time": 295.859265,
          "velocity": 0.968503937007874
        },
        {
          "duration": 0.1388849999999593,
          "durationTicks": 192,
          "midi": 60,
          "name": "C4",
          "ticks": 386880,
          "time": 295.859265,
          "velocity": 0.968503937007874
        },
        {
          "duration": 0.6944250000000238,
          "durationTicks": 960,
          "midi": 48,
          "name": "C3",
          "ticks": 387072,
          "time": 295.99814999999995,
          "velocity": 0.968503937007874
        },
        {
          "duration": 0.6944250000000238,
          "durationTicks": 960,
          "midi": 60,
          "name": "C4",
          "ticks": 387072,
          "time": 295.99814999999995,
          "velocity": 0.968503937007874
        },
        {
          "duration": 0.13888500000001613,
          "durationTicks": 192,
          "midi": 48,
          "name": "C3",
          "ticks": 388032,
          "time": 296.692575,
          "velocity": 0.968503937007874
        },
        {
          "duration": 0.13888500000001613,
          "durationTicks": 192,
          "midi": 60,
          "name": "C4",
          "ticks": 388032,
          "time": 296.692575,
          "velocity": 0.968503937007874
        },
        {
          "duration": 0.1388849999999593,
          "durationTicks": 192,
          "midi": 48,
          "name": "C3",
          "ticks": 388224,
          "time": 296.83146,
          "velocity": 0.968503937007874
        },
        {
          "duration": 0.1388849999999593,
          "durationTicks": 192,
          "midi": 60,
          "name": "C4",
          "ticks": 388224,
          "time": 296.83146,
          "velocity": 0.968503937007874
        },
        {
          "duration": 0.13888500000001613,
          "durationTicks": 192,
          "midi": 48,
          "name": "C3",
          "ticks": 388416,
          "time": 296.97034499999995,
          "velocity": 0.968503937007874
        },
        {
          "duration": 0.13888500000001613,
          "durationTicks": 192,
          "midi": 60,
          "name": "C4",
          "ticks": 388416,
          "time": 296.97034499999995,
          "velocity": 0.968503937007874
        },
        {
          "duration": 0.6944250000000238,
          "durationTicks": 960,
          "midi": 48,
          "name": "C3",
          "ticks": 388608,
          "time": 297.10922999999997,
          "velocity": 0.968503937007874
        },
        {
          "duration": 0.6944250000000238,
          "durationTicks": 960,
          "midi": 60,
          "name": "C4",
          "ticks": 388608,
          "time": 297.10922999999997,
          "velocity": 0.968503937007874
        },
        {
          "duration": 0.1388849999999593,
          "durationTicks": 192,
          "midi": 48,
          "name": "C3",
          "ticks": 389568,
          "time": 297.803655,
          "velocity": 0.968503937007874
        },
        {
          "duration": 0.1388849999999593,
          "durationTicks": 192,
          "midi": 60,
          "name": "C4",
          "ticks": 389568,
          "time": 297.803655,
          "velocity": 0.968503937007874
        },
        {
          "duration": 0.13888500000001613,
          "durationTicks": 192,
          "midi": 48,
          "name": "C3",
          "ticks": 389760,
          "time": 297.94253999999995,
          "velocity": 0.968503937007874
        },
        {
          "duration": 0.13888500000001613,
          "durationTicks": 192,
          "midi": 60,
          "name": "C4",
          "ticks": 389760,
          "time": 297.94253999999995,
          "velocity": 0.968503937007874
        },
        {
          "duration": 0.13888500000001613,
          "durationTicks": 192,
          "midi": 48,
          "name": "C3",
          "ticks": 389952,
          "time": 298.08142499999997,
          "velocity": 0.968503937007874
        },
        {
          "duration": 0.13888500000001613,
          "durationTicks": 192,
          "midi": 60,
          "name": "C4",
          "ticks": 389952,
          "time": 298.08142499999997,
          "velocity": 0.968503937007874
        },
        {
          "duration": 0.1388849999999593,
          "durationTicks": 192,
          "midi": 48,
          "name": "C3",
          "ticks": 390144,
          "time": 298.22031,
          "velocity": 0.968503937007874
        },
        {
          "duration": 0.1388849999999593,
          "durationTicks": 192,
          "midi": 60,
          "name": "C4",
          "ticks": 390144,
          "time": 298.22031,
          "velocity": 0.968503937007874
        },
        {
          "duration": 0.13888500000001613,
          "durationTicks": 192,
          "midi": 53,
          "name": "F3",
          "ticks": 390336,
          "time": 298.35919499999994,
          "velocity": 0.968503937007874
        },
        {
          "duration": 0.13888500000001613,
          "durationTicks": 192,
          "midi": 56,
          "name": "G#3",
          "ticks": 390336,
          "time": 298.35919499999994,
          "velocity": 0.968503937007874
        },
        {
          "duration": 0.13888500000001613,
          "durationTicks": 192,
          "midi": 53,
          "name": "F3",
          "ticks": 390528,
          "time": 298.49807999999996,
          "velocity": 0.968503937007874
        },
        {
          "duration": 0.13888500000001613,
          "durationTicks": 192,
          "midi": 56,
          "name": "G#3",
          "ticks": 390528,
          "time": 298.49807999999996,
          "velocity": 0.968503937007874
        },
        {
          "duration": 0.13888500000001613,
          "durationTicks": 192,
          "midi": 53,
          "name": "F3",
          "ticks": 390720,
          "time": 298.636965,
          "velocity": 0.968503937007874
        },
        {
          "duration": 0.13888500000001613,
          "durationTicks": 192,
          "midi": 56,
          "name": "G#3",
          "ticks": 390720,
          "time": 298.636965,
          "velocity": 0.968503937007874
        },
        {
          "duration": 2.222159999999974,
          "durationTicks": 3072,
          "midi": 53,
          "name": "F3",
          "ticks": 390912,
          "time": 298.77585,
          "velocity": 0.968503937007874
        },
        {
          "duration": 2.222159999999974,
          "durationTicks": 3072,
          "midi": 56,
          "name": "G#3",
          "ticks": 390912,
          "time": 298.77585,
          "velocity": 0.968503937007874
        },
        {
          "duration": 0.2777699999999754,
          "durationTicks": 384,
          "midi": 53,
          "name": "F3",
          "ticks": 393984,
          "time": 300.99800999999997,
          "velocity": 0.968503937007874
        },
        {
          "duration": 0.2777699999999754,
          "durationTicks": 384,
          "midi": 56,
          "name": "G#3",
          "ticks": 393984,
          "time": 300.99800999999997,
          "velocity": 0.968503937007874
        },
        {
          "duration": 0.1388849999999593,
          "durationTicks": 192,
          "midi": 65,
          "name": "F4",
          "ticks": 394944,
          "time": 301.692435,
          "velocity": 0.7165354330708661
        },
        {
          "duration": 0.1388849999999593,
          "durationTicks": 192,
          "midi": 65,
          "name": "F4",
          "ticks": 394944,
          "time": 301.692435,
          "velocity": 0.7165354330708661
        },
        {
          "duration": 0.13888500000001613,
          "durationTicks": 192,
          "midi": 65,
          "name": "F4",
          "ticks": 395136,
          "time": 301.83131999999995,
          "velocity": 0.7165354330708661
        },
        {
          "duration": 0.13888500000001613,
          "durationTicks": 192,
          "midi": 65,
          "name": "F4",
          "ticks": 395136,
          "time": 301.83131999999995,
          "velocity": 0.7165354330708661
        },
        {
          "duration": 0.13888500000001613,
          "durationTicks": 192,
          "midi": 65,
          "name": "F4",
          "ticks": 395328,
          "time": 301.97020499999996,
          "velocity": 0.7165354330708661
        },
        {
          "duration": 0.13888500000001613,
          "durationTicks": 192,
          "midi": 65,
          "name": "F4",
          "ticks": 395328,
          "time": 301.97020499999996,
          "velocity": 0.7165354330708661
        },
        {
          "duration": 0.2777699999999754,
          "durationTicks": 384,
          "midi": 68,
          "name": "G#4",
          "ticks": 395520,
          "time": 302.10909,
          "velocity": 0.7165354330708661
        },
        {
          "duration": 0.2777699999999754,
          "durationTicks": 384,
          "midi": 68,
          "name": "G#4",
          "ticks": 395520,
          "time": 302.10909,
          "velocity": 0.7165354330708661
        },
        {
          "duration": 0.13888500000001613,
          "durationTicks": 192,
          "midi": 54,
          "name": "F#3",
          "ticks": 397248,
          "time": 303.35905499999996,
          "velocity": 0.968503937007874
        },
        {
          "duration": 0.13888500000001613,
          "durationTicks": 192,
          "midi": 57,
          "name": "A3",
          "ticks": 397248,
          "time": 303.35905499999996,
          "velocity": 0.968503937007874
        },
        {
          "duration": 0.13888500000001613,
          "durationTicks": 192,
          "midi": 54,
          "name": "F#3",
          "ticks": 397440,
          "time": 303.49793999999997,
          "velocity": 0.968503937007874
        },
        {
          "duration": 0.13888500000001613,
          "durationTicks": 192,
          "midi": 57,
          "name": "A3",
          "ticks": 397440,
          "time": 303.49793999999997,
          "velocity": 0.968503937007874
        },
        {
          "duration": 0.1388849999999593,
          "durationTicks": 192,
          "midi": 54,
          "name": "F#3",
          "ticks": 397632,
          "time": 303.636825,
          "velocity": 0.968503937007874
        },
        {
          "duration": 0.1388849999999593,
          "durationTicks": 192,
          "midi": 57,
          "name": "A3",
          "ticks": 397632,
          "time": 303.636825,
          "velocity": 0.968503937007874
        },
        {
          "duration": 2.2221600000000308,
          "durationTicks": 3072,
          "midi": 54,
          "name": "F#3",
          "ticks": 397824,
          "time": 303.77570999999995,
          "velocity": 0.968503937007874
        },
        {
          "duration": 2.2221600000000308,
          "durationTicks": 3072,
          "midi": 57,
          "name": "A3",
          "ticks": 397824,
          "time": 303.77570999999995,
          "velocity": 0.968503937007874
        },
        {
          "duration": 0.2777699999999754,
          "durationTicks": 384,
          "midi": 54,
          "name": "F#3",
          "ticks": 400896,
          "time": 305.99787,
          "velocity": 0.968503937007874
        },
        {
          "duration": 0.2777699999999754,
          "durationTicks": 384,
          "midi": 57,
          "name": "A3",
          "ticks": 400896,
          "time": 305.99787,
          "velocity": 0.968503937007874
        },
        {
          "duration": 0.13888500000001613,
          "durationTicks": 192,
          "midi": 60,
          "name": "C4",
          "ticks": 401856,
          "time": 306.69229499999994,
          "velocity": 0.968503937007874
        },
        {
          "duration": 0.13888500000001613,
          "durationTicks": 192,
          "midi": 60,
          "name": "C4",
          "ticks": 401856,
          "time": 306.69229499999994,
          "velocity": 0.968503937007874
        },
        {
          "duration": 0.13888500000001613,
          "durationTicks": 192,
          "midi": 60,
          "name": "C4",
          "ticks": 402048,
          "time": 306.83117999999996,
          "velocity": 0.968503937007874
        },
        {
          "duration": 0.13888500000001613,
          "durationTicks": 192,
          "midi": 60,
          "name": "C4",
          "ticks": 402048,
          "time": 306.83117999999996,
          "velocity": 0.968503937007874
        },
        {
          "duration": 0.13888500000001613,
          "durationTicks": 192,
          "midi": 60,
          "name": "C4",
          "ticks": 402240,
          "time": 306.970065,
          "velocity": 0.968503937007874
        },
        {
          "duration": 0.13888500000001613,
          "durationTicks": 192,
          "midi": 60,
          "name": "C4",
          "ticks": 402240,
          "time": 306.970065,
          "velocity": 0.968503937007874
        },
        {
          "duration": 0.2777699999999754,
          "durationTicks": 384,
          "midi": 63,
          "name": "D#4",
          "ticks": 402432,
          "time": 307.10895,
          "velocity": 0.968503937007874
        },
        {
          "duration": 0.2777699999999754,
          "durationTicks": 384,
          "midi": 63,
          "name": "D#4",
          "ticks": 402432,
          "time": 307.10895,
          "velocity": 0.968503937007874
        },
        {
          "duration": 0.13888500000001613,
          "durationTicks": 192,
          "midi": 67,
          "name": "G4",
          "ticks": 403392,
          "time": 307.80337499999996,
          "velocity": 0.905511811023622
        },
        {
          "duration": 0.13888500000001613,
          "durationTicks": 192,
          "midi": 67,
          "name": "G4",
          "ticks": 403392,
          "time": 307.80337499999996,
          "velocity": 0.905511811023622
        },
        {
          "duration": 0.13888500000001613,
          "durationTicks": 192,
          "midi": 67,
          "name": "G4",
          "ticks": 403584,
          "time": 307.94226,
          "velocity": 0.905511811023622
        },
        {
          "duration": 0.13888500000001613,
          "durationTicks": 192,
          "midi": 67,
          "name": "G4",
          "ticks": 403584,
          "time": 307.94226,
          "velocity": 0.905511811023622
        },
        {
          "duration": 0.1388849999999593,
          "durationTicks": 192,
          "midi": 67,
          "name": "G4",
          "ticks": 403776,
          "time": 308.081145,
          "velocity": 0.905511811023622
        },
        {
          "duration": 0.1388849999999593,
          "durationTicks": 192,
          "midi": 67,
          "name": "G4",
          "ticks": 403776,
          "time": 308.081145,
          "velocity": 0.905511811023622
        },
        {
          "duration": 0.5555400000000077,
          "durationTicks": 768,
          "midi": 63,
          "name": "D#4",
          "ticks": 403968,
          "time": 308.22002999999995,
          "velocity": 0.905511811023622
        },
        {
          "duration": 0.5555400000000077,
          "durationTicks": 768,
          "midi": 63,
          "name": "D#4",
          "ticks": 403968,
          "time": 308.22002999999995,
          "velocity": 0.905511811023622
        },
        {
          "duration": 0.5555400000000077,
          "durationTicks": 768,
          "midi": 65,
          "name": "F4",
          "ticks": 404736,
          "time": 308.77556999999996,
          "velocity": 0.905511811023622
        },
        {
          "duration": 0.5555400000000077,
          "durationTicks": 768,
          "midi": 65,
          "name": "F4",
          "ticks": 404736,
          "time": 308.77556999999996,
          "velocity": 0.905511811023622
        },
        {
          "duration": 0.6944250000000238,
          "durationTicks": 960,
          "midi": 62,
          "name": "D4",
          "ticks": 405504,
          "time": 309.33110999999997,
          "velocity": 0.905511811023622
        },
        {
          "duration": 0.6944250000000238,
          "durationTicks": 960,
          "midi": 62,
          "name": "D4",
          "ticks": 405504,
          "time": 309.33110999999997,
          "velocity": 0.905511811023622
        },
        {
          "duration": 0.1388849999999593,
          "durationTicks": 192,
          "midi": 67,
          "name": "G4",
          "ticks": 406464,
          "time": 310.025535,
          "velocity": 0.905511811023622
        },
        {
          "duration": 0.1388849999999593,
          "durationTicks": 192,
          "midi": 67,
          "name": "G4",
          "ticks": 406464,
          "time": 310.025535,
          "velocity": 0.905511811023622
        },
        {
          "duration": 0.13888500000001613,
          "durationTicks": 192,
          "midi": 67,
          "name": "G4",
          "ticks": 406656,
          "time": 310.16441999999995,
          "velocity": 0.905511811023622
        },
        {
          "duration": 0.13888500000001613,
          "durationTicks": 192,
          "midi": 67,
          "name": "G4",
          "ticks": 406656,
          "time": 310.16441999999995,
          "velocity": 0.905511811023622
        },
        {
          "duration": 0.13888500000001613,
          "durationTicks": 192,
          "midi": 67,
          "name": "G4",
          "ticks": 406848,
          "time": 310.30330499999997,
          "velocity": 0.905511811023622
        },
        {
          "duration": 0.13888500000001613,
          "durationTicks": 192,
          "midi": 67,
          "name": "G4",
          "ticks": 406848,
          "time": 310.30330499999997,
          "velocity": 0.905511811023622
        },
        {
          "duration": 0.5555400000000077,
          "durationTicks": 768,
          "midi": 63,
          "name": "D#4",
          "ticks": 407040,
          "time": 310.44219,
          "velocity": 0.905511811023622
        },
        {
          "duration": 0.5555400000000077,
          "durationTicks": 768,
          "midi": 63,
          "name": "D#4",
          "ticks": 407040,
          "time": 310.44219,
          "velocity": 0.905511811023622
        },
        {
          "duration": 0.5555400000000077,
          "durationTicks": 768,
          "midi": 65,
          "name": "F4",
          "ticks": 407808,
          "time": 310.99773,
          "velocity": 0.905511811023622
        },
        {
          "duration": 0.5555400000000077,
          "durationTicks": 768,
          "midi": 65,
          "name": "F4",
          "ticks": 407808,
          "time": 310.99773,
          "velocity": 0.905511811023622
        },
        {
          "duration": 0.694424999999967,
          "durationTicks": 960,
          "midi": 62,
          "name": "D4",
          "ticks": 408576,
          "time": 311.55327,
          "velocity": 0.905511811023622
        },
        {
          "duration": 0.694424999999967,
          "durationTicks": 960,
          "midi": 62,
          "name": "D4",
          "ticks": 408576,
          "time": 311.55327,
          "velocity": 0.905511811023622
        },
        {
          "duration": 0.13888500000001613,
          "durationTicks": 192,
          "midi": 67,
          "name": "G4",
          "ticks": 409536,
          "time": 312.24769499999996,
          "velocity": 0.905511811023622
        },
        {
          "duration": 0.13888500000001613,
          "durationTicks": 192,
          "midi": 67,
          "name": "G4",
          "ticks": 409536,
          "time": 312.24769499999996,
          "velocity": 0.905511811023622
        },
        {
          "duration": 0.1388849999999593,
          "durationTicks": 192,
          "midi": 67,
          "name": "G4",
          "ticks": 409728,
          "time": 312.38658,
          "velocity": 0.905511811023622
        },
        {
          "duration": 0.1388849999999593,
          "durationTicks": 192,
          "midi": 67,
          "name": "G4",
          "ticks": 409728,
          "time": 312.38658,
          "velocity": 0.905511811023622
        },
        {
          "duration": 0.13888500000001613,
          "durationTicks": 192,
          "midi": 67,
          "name": "G4",
          "ticks": 409920,
          "time": 312.52546499999994,
          "velocity": 0.905511811023622
        },
        {
          "duration": 0.13888500000001613,
          "durationTicks": 192,
          "midi": 67,
          "name": "G4",
          "ticks": 409920,
          "time": 312.52546499999994,
          "velocity": 0.905511811023622
        },
        {
          "duration": 0.27777000000003227,
          "durationTicks": 384,
          "midi": 63,
          "name": "D#4",
          "ticks": 410112,
          "time": 312.66434999999996,
          "velocity": 0.905511811023622
        },
        {
          "duration": 0.27777000000003227,
          "durationTicks": 384,
          "midi": 63,
          "name": "D#4",
          "ticks": 410112,
          "time": 312.66434999999996,
          "velocity": 0.905511811023622
        },
        {
          "duration": 0.2777699999999754,
          "durationTicks": 384,
          "midi": 65,
          "name": "F4",
          "ticks": 410496,
          "time": 312.94212,
          "velocity": 0.905511811023622
        },
        {
          "duration": 0.2777699999999754,
          "durationTicks": 384,
          "midi": 65,
          "name": "F4",
          "ticks": 410496,
          "time": 312.94212,
          "velocity": 0.905511811023622
        },
        {
          "duration": 0.27777000000003227,
          "durationTicks": 384,
          "midi": 62,
          "name": "D4",
          "ticks": 410880,
          "time": 313.21988999999996,
          "velocity": 0.905511811023622
        },
        {
          "duration": 0.27777000000003227,
          "durationTicks": 384,
          "midi": 62,
          "name": "D4",
          "ticks": 410880,
          "time": 313.21988999999996,
          "velocity": 0.905511811023622
        },
        {
          "duration": 0.2777699999999754,
          "durationTicks": 384,
          "midi": 63,
          "name": "D#4",
          "ticks": 411264,
          "time": 313.49766,
          "velocity": 0.905511811023622
        },
        {
          "duration": 0.2777699999999754,
          "durationTicks": 384,
          "midi": 63,
          "name": "D#4",
          "ticks": 411264,
          "time": 313.49766,
          "velocity": 0.905511811023622
        },
        {
          "duration": 0.2777699999999754,
          "durationTicks": 384,
          "midi": 60,
          "name": "C4",
          "ticks": 411648,
          "time": 313.77543,
          "velocity": 0.905511811023622
        },
        {
          "duration": 0.2777699999999754,
          "durationTicks": 384,
          "midi": 60,
          "name": "C4",
          "ticks": 411648,
          "time": 313.77543,
          "velocity": 0.905511811023622
        },
        {
          "duration": 0.27777000000003227,
          "durationTicks": 384,
          "midi": 62,
          "name": "D4",
          "ticks": 412032,
          "time": 314.05319999999995,
          "velocity": 0.905511811023622
        },
        {
          "duration": 0.27777000000003227,
          "durationTicks": 384,
          "midi": 62,
          "name": "D4",
          "ticks": 412032,
          "time": 314.05319999999995,
          "velocity": 0.905511811023622
        },
        {
          "duration": 0.2777699999999754,
          "durationTicks": 384,
          "midi": 58,
          "name": "A#3",
          "ticks": 412416,
          "time": 314.33097,
          "velocity": 0.905511811023622
        },
        {
          "duration": 0.2777699999999754,
          "durationTicks": 384,
          "midi": 58,
          "name": "A#3",
          "ticks": 412416,
          "time": 314.33097,
          "velocity": 0.905511811023622
        },
        {
          "duration": 0.27777000000003227,
          "durationTicks": 384,
          "midi": 60,
          "name": "C4",
          "ticks": 412800,
          "time": 314.60873999999995,
          "velocity": 0.905511811023622
        },
        {
          "duration": 0.27777000000003227,
          "durationTicks": 384,
          "midi": 60,
          "name": "C4",
          "ticks": 412800,
          "time": 314.60873999999995,
          "velocity": 0.905511811023622
        },
        {
          "duration": 0.2777699999999754,
          "durationTicks": 384,
          "midi": 56,
          "name": "G#3",
          "ticks": 413184,
          "time": 314.88651,
          "velocity": 0.905511811023622
        },
        {
          "duration": 0.2777699999999754,
          "durationTicks": 384,
          "midi": 56,
          "name": "G#3",
          "ticks": 413184,
          "time": 314.88651,
          "velocity": 0.905511811023622
        },
        {
          "duration": 0.27777000000003227,
          "durationTicks": 384,
          "midi": 58,
          "name": "A#3",
          "ticks": 413568,
          "time": 315.16427999999996,
          "velocity": 0.905511811023622
        },
        {
          "duration": 0.27777000000003227,
          "durationTicks": 384,
          "midi": 58,
          "name": "A#3",
          "ticks": 413568,
          "time": 315.16427999999996,
          "velocity": 0.905511811023622
        },
        {
          "duration": 0.2777699999999754,
          "durationTicks": 384,
          "midi": 55,
          "name": "G3",
          "ticks": 413952,
          "time": 315.44205,
          "velocity": 0.905511811023622
        },
        {
          "duration": 0.2777699999999754,
          "durationTicks": 384,
          "midi": 55,
          "name": "G3",
          "ticks": 413952,
          "time": 315.44205,
          "velocity": 0.905511811023622
        },
        {
          "duration": 0.2777699999999754,
          "durationTicks": 384,
          "midi": 56,
          "name": "G#3",
          "ticks": 414336,
          "time": 315.71981999999997,
          "velocity": 0.905511811023622
        },
        {
          "duration": 0.2777699999999754,
          "durationTicks": 384,
          "midi": 56,
          "name": "G#3",
          "ticks": 414336,
          "time": 315.71981999999997,
          "velocity": 0.905511811023622
        },
        {
          "duration": 0.27777000000003227,
          "durationTicks": 384,
          "midi": 53,
          "name": "F3",
          "ticks": 414720,
          "time": 315.99758999999995,
          "velocity": 0.905511811023622
        },
        {
          "duration": 0.27777000000003227,
          "durationTicks": 384,
          "midi": 53,
          "name": "F3",
          "ticks": 414720,
          "time": 315.99758999999995,
          "velocity": 0.905511811023622
        },
        {
          "duration": 0.2777699999999754,
          "durationTicks": 384,
          "midi": 55,
          "name": "G3",
          "ticks": 415104,
          "time": 316.27536,
          "velocity": 0.905511811023622
        },
        {
          "duration": 0.2777699999999754,
          "durationTicks": 384,
          "midi": 55,
          "name": "G3",
          "ticks": 415104,
          "time": 316.27536,
          "velocity": 0.905511811023622
        },
        {
          "duration": 0.27777000000003227,
          "durationTicks": 384,
          "midi": 51,
          "name": "D#3",
          "ticks": 415488,
          "time": 316.55312999999995,
          "velocity": 0.905511811023622
        },
        {
          "duration": 0.27777000000003227,
          "durationTicks": 384,
          "midi": 51,
          "name": "D#3",
          "ticks": 415488,
          "time": 316.55312999999995,
          "velocity": 0.905511811023622
        },
        {
          "duration": 0.2777699999999754,
          "durationTicks": 384,
          "midi": 53,
          "name": "F3",
          "ticks": 415872,
          "time": 316.8309,
          "velocity": 0.905511811023622
        },
        {
          "duration": 0.2777699999999754,
          "durationTicks": 384,
          "midi": 53,
          "name": "F3",
          "ticks": 415872,
          "time": 316.8309,
          "velocity": 0.905511811023622
        },
        {
          "duration": 0.27777000000003227,
          "durationTicks": 384,
          "midi": 50,
          "name": "D3",
          "ticks": 416256,
          "time": 317.10866999999996,
          "velocity": 0.905511811023622
        },
        {
          "duration": 0.27777000000003227,
          "durationTicks": 384,
          "midi": 50,
          "name": "D3",
          "ticks": 416256,
          "time": 317.10866999999996,
          "velocity": 0.905511811023622
        },
        {
          "duration": 0.2777699999999754,
          "durationTicks": 384,
          "midi": 48,
          "name": "C3",
          "ticks": 416640,
          "time": 317.38644,
          "velocity": 0.905511811023622
        },
        {
          "duration": 0.2777699999999754,
          "durationTicks": 384,
          "midi": 48,
          "name": "C3",
          "ticks": 416640,
          "time": 317.38644,
          "velocity": 0.905511811023622
        },
        {
          "duration": 0.2777699999999754,
          "durationTicks": 384,
          "midi": 47,
          "name": "B2",
          "ticks": 417024,
          "time": 317.66420999999997,
          "velocity": 0.905511811023622
        },
        {
          "duration": 0.2777699999999754,
          "durationTicks": 384,
          "midi": 47,
          "name": "B2",
          "ticks": 417024,
          "time": 317.66420999999997,
          "velocity": 0.905511811023622
        },
        {
          "duration": 0.27777000000003227,
          "durationTicks": 384,
          "midi": 48,
          "name": "C3",
          "ticks": 417408,
          "time": 317.94197999999994,
          "velocity": 0.905511811023622
        },
        {
          "duration": 0.27777000000003227,
          "durationTicks": 384,
          "midi": 48,
          "name": "C3",
          "ticks": 417408,
          "time": 317.94197999999994,
          "velocity": 0.905511811023622
        },
        {
          "duration": 0.2777699999999754,
          "durationTicks": 384,
          "midi": 50,
          "name": "D3",
          "ticks": 417792,
          "time": 318.21975,
          "velocity": 0.905511811023622
        },
        {
          "duration": 0.2777699999999754,
          "durationTicks": 384,
          "midi": 50,
          "name": "D3",
          "ticks": 417792,
          "time": 318.21975,
          "velocity": 0.905511811023622
        },
        {
          "duration": 0.27777000000003227,
          "durationTicks": 384,
          "midi": 48,
          "name": "C3",
          "ticks": 418176,
          "time": 318.49751999999995,
          "velocity": 0.905511811023622
        },
        {
          "duration": 0.27777000000003227,
          "durationTicks": 384,
          "midi": 48,
          "name": "C3",
          "ticks": 418176,
          "time": 318.49751999999995,
          "velocity": 0.905511811023622
        },
        {
          "duration": 0.2777699999999754,
          "durationTicks": 384,
          "midi": 50,
          "name": "D3",
          "ticks": 418560,
          "time": 318.77529,
          "velocity": 0.905511811023622
        },
        {
          "duration": 0.2777699999999754,
          "durationTicks": 384,
          "midi": 50,
          "name": "D3",
          "ticks": 418560,
          "time": 318.77529,
          "velocity": 0.905511811023622
        },
        {
          "duration": 0.27777000000003227,
          "durationTicks": 384,
          "midi": 52,
          "name": "E3",
          "ticks": 418944,
          "time": 319.05305999999996,
          "velocity": 0.905511811023622
        },
        {
          "duration": 0.27777000000003227,
          "durationTicks": 384,
          "midi": 52,
          "name": "E3",
          "ticks": 418944,
          "time": 319.05305999999996,
          "velocity": 0.905511811023622
        },
        {
          "duration": 0.2777699999999754,
          "durationTicks": 384,
          "midi": 53,
          "name": "F3",
          "ticks": 419328,
          "time": 319.33083,
          "velocity": 0.905511811023622
        },
        {
          "duration": 0.2777699999999754,
          "durationTicks": 384,
          "midi": 53,
          "name": "F3",
          "ticks": 419328,
          "time": 319.33083,
          "velocity": 0.905511811023622
        },
        {
          "duration": 0.2777699999999754,
          "durationTicks": 384,
          "midi": 52,
          "name": "E3",
          "ticks": 419712,
          "time": 319.60859999999997,
          "velocity": 0.905511811023622
        },
        {
          "duration": 0.2777699999999754,
          "durationTicks": 384,
          "midi": 52,
          "name": "E3",
          "ticks": 419712,
          "time": 319.60859999999997,
          "velocity": 0.905511811023622
        },
        {
          "duration": 0.27777000000003227,
          "durationTicks": 384,
          "midi": 53,
          "name": "F3",
          "ticks": 420096,
          "time": 319.88636999999994,
          "velocity": 0.905511811023622
        },
        {
          "duration": 0.27777000000003227,
          "durationTicks": 384,
          "midi": 53,
          "name": "F3",
          "ticks": 420096,
          "time": 319.88636999999994,
          "velocity": 0.905511811023622
        },
        {
          "duration": 0.2777699999999754,
          "durationTicks": 384,
          "midi": 55,
          "name": "G3",
          "ticks": 420480,
          "time": 320.16414,
          "velocity": 0.905511811023622
        },
        {
          "duration": 0.2777699999999754,
          "durationTicks": 384,
          "midi": 55,
          "name": "G3",
          "ticks": 420480,
          "time": 320.16414,
          "velocity": 0.905511811023622
        },
        {
          "duration": 0.27777000000003227,
          "durationTicks": 384,
          "midi": 44,
          "name": "G#2",
          "ticks": 420864,
          "time": 320.44190999999995,
          "velocity": 0.905511811023622
        },
        {
          "duration": 0.27777000000003227,
          "durationTicks": 384,
          "midi": 56,
          "name": "G#3",
          "ticks": 420864,
          "time": 320.44190999999995,
          "velocity": 0.905511811023622
        },
        {
          "duration": 0.2777699999999754,
          "durationTicks": 384,
          "midi": 43,
          "name": "G2",
          "ticks": 421248,
          "time": 320.71968,
          "velocity": 0.905511811023622
        },
        {
          "duration": 0.2777699999999754,
          "durationTicks": 384,
          "midi": 55,
          "name": "G3",
          "ticks": 421248,
          "time": 320.71968,
          "velocity": 0.905511811023622
        },
        {
          "duration": 0.27777000000003227,
          "durationTicks": 384,
          "midi": 45,
          "name": "A2",
          "ticks": 421632,
          "time": 320.99744999999996,
          "velocity": 0.905511811023622
        },
        {
          "duration": 0.27777000000003227,
          "durationTicks": 384,
          "midi": 57,
          "name": "A3",
          "ticks": 421632,
          "time": 320.99744999999996,
          "velocity": 0.905511811023622
        },
        {
          "duration": 0.2777699999999754,
          "durationTicks": 384,
          "midi": 47,
          "name": "B2",
          "ticks": 422016,
          "time": 321.27522,
          "velocity": 0.905511811023622
        },
        {
          "duration": 0.2777699999999754,
          "durationTicks": 384,
          "midi": 59,
          "name": "B3",
          "ticks": 422016,
          "time": 321.27522,
          "velocity": 0.905511811023622
        },
        {
          "duration": 1.1110800000000154,
          "durationTicks": 1536,
          "midi": 48,
          "name": "C3",
          "ticks": 422400,
          "time": 321.55298999999997,
          "velocity": 0.905511811023622
        },
        {
          "duration": 1.1110800000000154,
          "durationTicks": 1536,
          "midi": 60,
          "name": "C4",
          "ticks": 422400,
          "time": 321.55298999999997,
          "velocity": 0.905511811023622
        },
        {
          "duration": 1.1110799999999585,
          "durationTicks": 1536,
          "midi": 44,
          "name": "G#2",
          "ticks": 423936,
          "time": 322.66407,
          "velocity": 0.905511811023622
        },
        {
          "duration": 1.1110799999999585,
          "durationTicks": 1536,
          "midi": 56,
          "name": "G#3",
          "ticks": 423936,
          "time": 322.66407,
          "velocity": 0.905511811023622
        },
        {
          "duration": 1.1110800000000154,
          "durationTicks": 1536,
          "midi": 39,
          "name": "D#2",
          "ticks": 425472,
          "time": 323.77514999999994,
          "velocity": 0.905511811023622
        },
        {
          "duration": 1.1110800000000154,
          "durationTicks": 1536,
          "midi": 51,
          "name": "D#3",
          "ticks": 425472,
          "time": 323.77514999999994,
          "velocity": 0.905511811023622
        },
        {
          "duration": 0.5555400000000077,
          "durationTicks": 768,
          "midi": 41,
          "name": "F2",
          "ticks": 427008,
          "time": 324.88622999999995,
          "velocity": 0.905511811023622
        },
        {
          "duration": 0.5555400000000077,
          "durationTicks": 768,
          "midi": 53,
          "name": "F3",
          "ticks": 427008,
          "time": 324.88622999999995,
          "velocity": 0.905511811023622
        },
        {
          "duration": 0.5555400000000077,
          "durationTicks": 768,
          "midi": 39,
          "name": "D#2",
          "ticks": 427776,
          "time": 325.44176999999996,
          "velocity": 0.905511811023622
        },
        {
          "duration": 0.5555400000000077,
          "durationTicks": 768,
          "midi": 51,
          "name": "D#3",
          "ticks": 427776,
          "time": 325.44176999999996,
          "velocity": 0.905511811023622
        },
        {
          "duration": 0.5555400000000077,
          "durationTicks": 768,
          "midi": 38,
          "name": "D2",
          "ticks": 428544,
          "time": 325.99730999999997,
          "velocity": 0.905511811023622
        },
        {
          "duration": 0.5555400000000077,
          "durationTicks": 768,
          "midi": 50,
          "name": "D3",
          "ticks": 428544,
          "time": 325.99730999999997,
          "velocity": 0.905511811023622
        },
        {
          "duration": 0.5555400000000077,
          "durationTicks": 768,
          "midi": 41,
          "name": "F2",
          "ticks": 429312,
          "time": 326.55285,
          "velocity": 0.905511811023622
        },
        {
          "duration": 0.5555400000000077,
          "durationTicks": 768,
          "midi": 53,
          "name": "F3",
          "ticks": 429312,
          "time": 326.55285,
          "velocity": 0.905511811023622
        },
        {
          "duration": 0.2777699999999754,
          "durationTicks": 384,
          "midi": 39,
          "name": "D#2",
          "ticks": 430080,
          "time": 327.10839,
          "velocity": 0.905511811023622
        },
        {
          "duration": 0.2777699999999754,
          "durationTicks": 384,
          "midi": 51,
          "name": "D#3",
          "ticks": 430080,
          "time": 327.10839,
          "velocity": 0.905511811023622
        },
        {
          "duration": 0.2777699999999754,
          "durationTicks": 384,
          "midi": 36,
          "name": "C2",
          "ticks": 430848,
          "time": 327.66393,
          "velocity": 0.905511811023622
        },
        {
          "duration": 0.2777699999999754,
          "durationTicks": 384,
          "midi": 48,
          "name": "C3",
          "ticks": 430848,
          "time": 327.66393,
          "velocity": 0.905511811023622
        },
        {
          "duration": 0.2777699999999754,
          "durationTicks": 384,
          "midi": 41,
          "name": "F2",
          "ticks": 431616,
          "time": 328.21947,
          "velocity": 0.905511811023622
        },
        {
          "duration": 0.2777699999999754,
          "durationTicks": 384,
          "midi": 53,
          "name": "F3",
          "ticks": 431616,
          "time": 328.21947,
          "velocity": 0.905511811023622
        },
        {
          "duration": 0.27777000000003227,
          "durationTicks": 384,
          "midi": 38,
          "name": "D2",
          "ticks": 432384,
          "time": 328.77500999999995,
          "velocity": 0.905511811023622
        },
        {
          "duration": 0.27777000000003227,
          "durationTicks": 384,
          "midi": 50,
          "name": "D3",
          "ticks": 432384,
          "time": 328.77500999999995,
          "velocity": 0.905511811023622
        },
        {
          "duration": 0.27777000000003227,
          "durationTicks": 384,
          "midi": 43,
          "name": "G2",
          "ticks": 433152,
          "time": 329.33054999999996,
          "velocity": 0.905511811023622
        },
        {
          "duration": 0.27777000000003227,
          "durationTicks": 384,
          "midi": 55,
          "name": "G3",
          "ticks": 433152,
          "time": 329.33054999999996,
          "velocity": 0.905511811023622
        },
        {
          "duration": 0.27777000000003227,
          "durationTicks": 384,
          "midi": 43,
          "name": "G2",
          "ticks": 433920,
          "time": 329.88608999999997,
          "velocity": 0.905511811023622
        },
        {
          "duration": 0.27777000000003227,
          "durationTicks": 384,
          "midi": 43,
          "name": "G2",
          "ticks": 433920,
          "time": 329.88608999999997,
          "velocity": 0.905511811023622
        },
        {
          "duration": 0.5555400000000077,
          "durationTicks": 768,
          "midi": 48,
          "name": "C3",
          "ticks": 434688,
          "time": 330.44163,
          "velocity": 0.968503937007874
        },
        {
          "duration": 0.5555400000000077,
          "durationTicks": 768,
          "midi": 60,
          "name": "C4",
          "ticks": 434688,
          "time": 330.44163,
          "velocity": 0.968503937007874
        },
        {
          "duration": 0.2777699999999754,
          "durationTicks": 384,
          "midi": 50,
          "name": "D3",
          "ticks": 435456,
          "time": 330.99717,
          "velocity": 0.968503937007874
        },
        {
          "duration": 0.2777699999999754,
          "durationTicks": 384,
          "midi": 62,
          "name": "D4",
          "ticks": 435456,
          "time": 330.99717,
          "velocity": 0.968503937007874
        },
        {
          "duration": 0.27777000000003227,
          "durationTicks": 384,
          "midi": 51,
          "name": "D#3",
          "ticks": 435840,
          "time": 331.27493999999996,
          "velocity": 0.968503937007874
        },
        {
          "duration": 0.27777000000003227,
          "durationTicks": 384,
          "midi": 63,
          "name": "D#4",
          "ticks": 435840,
          "time": 331.27493999999996,
          "velocity": 0.968503937007874
        },
        {
          "duration": 0.2777699999999754,
          "durationTicks": 384,
          "midi": 53,
          "name": "F3",
          "ticks": 436224,
          "time": 331.55271,
          "velocity": 0.968503937007874
        },
        {
          "duration": 0.2777699999999754,
          "durationTicks": 384,
          "midi": 65,
          "name": "F4",
          "ticks": 436224,
          "time": 331.55271,
          "velocity": 0.968503937007874
        },
        {
          "duration": 0.27777000000003227,
          "durationTicks": 384,
          "midi": 50,
          "name": "D3",
          "ticks": 436608,
          "time": 331.83047999999997,
          "velocity": 0.968503937007874
        },
        {
          "duration": 0.27777000000003227,
          "durationTicks": 384,
          "midi": 62,
          "name": "D4",
          "ticks": 436608,
          "time": 331.83047999999997,
          "velocity": 0.968503937007874
        },
        {
          "duration": 0.27777000000003227,
          "durationTicks": 384,
          "midi": 53,
          "name": "F3",
          "ticks": 438528,
          "time": 333.21932999999996,
          "velocity": 0.968503937007874
        },
        {
          "duration": 0.27777000000003227,
          "durationTicks": 384,
          "midi": 65,
          "name": "F4",
          "ticks": 438528,
          "time": 333.21932999999996,
          "velocity": 0.968503937007874
        },
        {
          "duration": 0.2777699999999754,
          "durationTicks": 384,
          "midi": 55,
          "name": "G3",
          "ticks": 438912,
          "time": 333.4971,
          "velocity": 0.968503937007874
        },
        {
          "duration": 0.2777699999999754,
          "durationTicks": 384,
          "midi": 67,
          "name": "G4",
          "ticks": 438912,
          "time": 333.4971,
          "velocity": 0.968503937007874
        },
        {
          "duration": 0.27777000000003227,
          "durationTicks": 384,
          "midi": 56,
          "name": "G#3",
          "ticks": 439296,
          "time": 333.77486999999996,
          "velocity": 0.968503937007874
        },
        {
          "duration": 0.27777000000003227,
          "durationTicks": 384,
          "midi": 68,
          "name": "G#4",
          "ticks": 439296,
          "time": 333.77486999999996,
          "velocity": 0.968503937007874
        },
        {
          "duration": 0.2777699999999754,
          "durationTicks": 384,
          "midi": 53,
          "name": "F3",
          "ticks": 439680,
          "time": 334.05264,
          "velocity": 0.968503937007874
        },
        {
          "duration": 0.2777699999999754,
          "durationTicks": 384,
          "midi": 65,
          "name": "F4",
          "ticks": 439680,
          "time": 334.05264,
          "velocity": 0.968503937007874
        },
        {
          "duration": 0.2777699999999754,
          "durationTicks": 384,
          "midi": 57,
          "name": "A3",
          "ticks": 441600,
          "time": 335.44149,
          "velocity": 0.968503937007874
        },
        {
          "duration": 0.2777699999999754,
          "durationTicks": 384,
          "midi": 60,
          "name": "C4",
          "ticks": 441600,
          "time": 335.44149,
          "velocity": 0.968503937007874
        },
        {
          "duration": 0.27777000000003227,
          "durationTicks": 384,
          "midi": 59,
          "name": "B3",
          "ticks": 441984,
          "time": 335.71925999999996,
          "velocity": 0.968503937007874
        },
        {
          "duration": 0.27777000000003227,
          "durationTicks": 384,
          "midi": 62,
          "name": "D4",
          "ticks": 441984,
          "time": 335.71925999999996,
          "velocity": 0.968503937007874
        },
        {
          "duration": 0.2777699999999754,
          "durationTicks": 384,
          "midi": 60,
          "name": "C4",
          "ticks": 442368,
          "time": 335.99703,
          "velocity": 0.968503937007874
        },
        {
          "duration": 0.2777699999999754,
          "durationTicks": 384,
          "midi": 63,
          "name": "D#4",
          "ticks": 442368,
          "time": 335.99703,
          "velocity": 0.968503937007874
        },
        {
          "duration": 0.2777699999999754,
          "durationTicks": 384,
          "midi": 55,
          "name": "G3",
          "ticks": 442752,
          "time": 336.27479999999997,
          "velocity": 0.968503937007874
        },
        {
          "duration": 0.2777699999999754,
          "durationTicks": 384,
          "midi": 60,
          "name": "C4",
          "ticks": 442752,
          "time": 336.27479999999997,
          "velocity": 0.968503937007874
        },
        {
          "duration": 0.27777000000003227,
          "durationTicks": 384,
          "midi": 57,
          "name": "A3",
          "ticks": 444672,
          "time": 337.66364999999996,
          "velocity": 0.968503937007874
        },
        {
          "duration": 0.27777000000003227,
          "durationTicks": 384,
          "midi": 60,
          "name": "C4",
          "ticks": 444672,
          "time": 337.66364999999996,
          "velocity": 0.968503937007874
        },
        {
          "duration": 0.2777699999999754,
          "durationTicks": 384,
          "midi": 59,
          "name": "B3",
          "ticks": 445056,
          "time": 337.94142,
          "velocity": 0.968503937007874
        },
        {
          "duration": 0.2777699999999754,
          "durationTicks": 384,
          "midi": 62,
          "name": "D4",
          "ticks": 445056,
          "time": 337.94142,
          "velocity": 0.968503937007874
        },
        {
          "duration": 0.2777699999999754,
          "durationTicks": 384,
          "midi": 60,
          "name": "C4",
          "ticks": 445440,
          "time": 338.21918999999997,
          "velocity": 0.968503937007874
        },
        {
          "duration": 0.2777699999999754,
          "durationTicks": 384,
          "midi": 63,
          "name": "D#4",
          "ticks": 445440,
          "time": 338.21918999999997,
          "velocity": 0.968503937007874
        },
        {
          "duration": 0.27777000000003227,
          "durationTicks": 384,
          "midi": 55,
          "name": "G3",
          "ticks": 445824,
          "time": 338.49695999999994,
          "velocity": 0.968503937007874
        },
        {
          "duration": 0.27777000000003227,
          "durationTicks": 384,
          "midi": 62,
          "name": "D4",
          "ticks": 445824,
          "time": 338.49695999999994,
          "velocity": 0.968503937007874
        },
        {
          "duration": 0.2777699999999754,
          "durationTicks": 384,
          "midi": 56,
          "name": "G#3",
          "ticks": 446208,
          "time": 338.77473,
          "velocity": 0.968503937007874
        },
        {
          "duration": 0.2777699999999754,
          "durationTicks": 384,
          "midi": 60,
          "name": "C4",
          "ticks": 446208,
          "time": 338.77473,
          "velocity": 0.968503937007874
        },
        {
          "duration": 0.27777000000003227,
          "durationTicks": 384,
          "midi": 51,
          "name": "D#3",
          "ticks": 446592,
          "time": 339.05249999999995,
          "velocity": 0.968503937007874
        },
        {
          "duration": 0.27777000000003227,
          "durationTicks": 384,
          "midi": 58,
          "name": "A#3",
          "ticks": 446592,
          "time": 339.05249999999995,
          "velocity": 0.968503937007874
        },
        {
          "duration": 0.2777699999999754,
          "durationTicks": 384,
          "midi": 53,
          "name": "F3",
          "ticks": 446976,
          "time": 339.33027,
          "velocity": 0.968503937007874
        },
        {
          "duration": 0.2777699999999754,
          "durationTicks": 384,
          "midi": 56,
          "name": "G#3",
          "ticks": 446976,
          "time": 339.33027,
          "velocity": 0.968503937007874
        },
        {
          "duration": 0.27777000000003227,
          "durationTicks": 384,
          "midi": 48,
          "name": "C3",
          "ticks": 447360,
          "time": 339.60803999999996,
          "velocity": 0.968503937007874
        },
        {
          "duration": 0.27777000000003227,
          "durationTicks": 384,
          "midi": 55,
          "name": "G3",
          "ticks": 447360,
          "time": 339.60803999999996,
          "velocity": 0.968503937007874
        },
        {
          "duration": 0.27777000000003227,
          "durationTicks": 384,
          "midi": 53,
          "name": "F3",
          "ticks": 448512,
          "time": 340.44134999999994,
          "velocity": 0.968503937007874
        },
        {
          "duration": 0.27777000000003227,
          "durationTicks": 384,
          "midi": 56,
          "name": "G#3",
          "ticks": 448512,
          "time": 340.44134999999994,
          "velocity": 0.968503937007874
        },
        {
          "duration": 0.2777699999999754,
          "durationTicks": 384,
          "midi": 48,
          "name": "C3",
          "ticks": 448896,
          "time": 340.71912,
          "velocity": 0.968503937007874
        },
        {
          "duration": 0.2777699999999754,
          "durationTicks": 384,
          "midi": 55,
          "name": "G3",
          "ticks": 448896,
          "time": 340.71912,
          "velocity": 0.968503937007874
        },
        {
          "duration": 0.27777000000003227,
          "durationTicks": 384,
          "midi": 53,
          "name": "F3",
          "ticks": 449280,
          "time": 340.99688999999995,
          "velocity": 0.968503937007874
        },
        {
          "duration": 0.27777000000003227,
          "durationTicks": 384,
          "midi": 56,
          "name": "G#3",
          "ticks": 449280,
          "time": 340.99688999999995,
          "velocity": 0.968503937007874
        },
        {
          "duration": 0.2777699999999754,
          "durationTicks": 384,
          "midi": 51,
          "name": "D#3",
          "ticks": 449664,
          "time": 341.27466,
          "velocity": 0.968503937007874
        },
        {
          "duration": 0.2777699999999754,
          "durationTicks": 384,
          "midi": 55,
          "name": "G3",
          "ticks": 449664,
          "time": 341.27466,
          "velocity": 0.968503937007874
        },
        {
          "duration": 0.2777699999999754,
          "durationTicks": 384,
          "midi": 60,
          "name": "C4",
          "ticks": 450432,
          "time": 341.8302,
          "velocity": 0.968503937007874
        },
        {
          "duration": 0.2777699999999754,
          "durationTicks": 384,
          "midi": 63,
          "name": "D#4",
          "ticks": 450432,
          "time": 341.8302,
          "velocity": 0.968503937007874
        },
        {
          "duration": 0.27777000000003227,
          "durationTicks": 384,
          "midi": 59,
          "name": "B3",
          "ticks": 451200,
          "time": 342.38573999999994,
          "velocity": 0.968503937007874
        },
        {
          "duration": 0.27777000000003227,
          "durationTicks": 384,
          "midi": 62,
          "name": "D4",
          "ticks": 451200,
          "time": 342.38573999999994,
          "velocity": 0.968503937007874
        },
        {
          "duration": 0.27777000000003227,
          "durationTicks": 384,
          "midi": 53,
          "name": "F3",
          "ticks": 453888,
          "time": 344.33012999999994,
          "velocity": 0.968503937007874
        },
        {
          "duration": 0.27777000000003227,
          "durationTicks": 384,
          "midi": 56,
          "name": "G#3",
          "ticks": 453888,
          "time": 344.33012999999994,
          "velocity": 0.968503937007874
        },
        {
          "duration": 0.27777000000003227,
          "durationTicks": 384,
          "midi": 51,
          "name": "D#3",
          "ticks": 454272,
          "time": 344.6079,
          "velocity": 0.968503937007874
        },
        {
          "duration": 0.27777000000003227,
          "durationTicks": 384,
          "midi": 55,
          "name": "G3",
          "ticks": 454272,
          "time": 344.6079,
          "velocity": 0.968503937007874
        },
        {
          "duration": 0.27777000000003227,
          "durationTicks": 384,
          "midi": 53,
          "name": "F3",
          "ticks": 455424,
          "time": 345.44120999999996,
          "velocity": 0.968503937007874
        },
        {
          "duration": 0.27777000000003227,
          "durationTicks": 384,
          "midi": 56,
          "name": "G#3",
          "ticks": 455424,
          "time": 345.44120999999996,
          "velocity": 0.968503937007874
        },
        {
          "duration": 0.2777699999999754,
          "durationTicks": 384,
          "midi": 51,
          "name": "D#3",
          "ticks": 455808,
          "time": 345.71898,
          "velocity": 0.968503937007874
        },
        {
          "duration": 0.2777699999999754,
          "durationTicks": 384,
          "midi": 55,
          "name": "G3",
          "ticks": 455808,
          "time": 345.71898,
          "velocity": 0.968503937007874
        },
        {
          "duration": 0.27777000000003227,
          "durationTicks": 384,
          "midi": 55,
          "name": "G3",
          "ticks": 456576,
          "time": 346.27451999999994,
          "velocity": 0.968503937007874
        },
        {
          "duration": 0.27777000000003227,
          "durationTicks": 384,
          "midi": 60,
          "name": "C4",
          "ticks": 456576,
          "time": 346.27451999999994,
          "velocity": 0.968503937007874
        },
        {
          "duration": 0.2777699999999754,
          "durationTicks": 384,
          "midi": 55,
          "name": "G3",
          "ticks": 457344,
          "time": 346.83006,
          "velocity": 0.968503937007874
        },
        {
          "duration": 0.2777699999999754,
          "durationTicks": 384,
          "midi": 59,
          "name": "B3",
          "ticks": 457344,
          "time": 346.83006,
          "velocity": 0.968503937007874
        },
        {
          "duration": 0.2777699999999754,
          "durationTicks": 384,
          "midi": 48,
          "name": "C3",
          "ticks": 457728,
          "time": 347.10783,
          "velocity": 0.968503937007874
        },
        {
          "duration": 0.2777699999999754,
          "durationTicks": 384,
          "midi": 60,
          "name": "C4",
          "ticks": 457728,
          "time": 347.10783,
          "velocity": 0.968503937007874
        },
        {
          "duration": 0.13888500000001613,
          "durationTicks": 192,
          "midi": 62,
          "name": "D4",
          "ticks": 458688,
          "time": 347.80225499999995,
          "velocity": 0.968503937007874
        },
        {
          "duration": 0.13888500000001613,
          "durationTicks": 192,
          "midi": 65,
          "name": "F4",
          "ticks": 458688,
          "time": 347.80225499999995,
          "velocity": 0.968503937007874
        },
        {
          "duration": 0.13888500000001613,
          "durationTicks": 192,
          "midi": 62,
          "name": "D4",
          "ticks": 458880,
          "time": 347.94113999999996,
          "velocity": 0.968503937007874
        },
        {
          "duration": 0.13888500000001613,
          "durationTicks": 192,
          "midi": 65,
          "name": "F4",
          "ticks": 458880,
          "time": 347.94113999999996,
          "velocity": 0.968503937007874
        },
        {
          "duration": 0.1388849999999593,
          "durationTicks": 192,
          "midi": 62,
          "name": "D4",
          "ticks": 459072,
          "time": 348.080025,
          "velocity": 0.968503937007874
        },
        {
          "duration": 0.1388849999999593,
          "durationTicks": 192,
          "midi": 65,
          "name": "F4",
          "ticks": 459072,
          "time": 348.080025,
          "velocity": 0.968503937007874
        },
        {
          "duration": 0.83331000000004,
          "durationTicks": 1152,
          "midi": 62,
          "name": "D4",
          "ticks": 459264,
          "time": 348.21890999999994,
          "velocity": 0.968503937007874
        },
        {
          "duration": 0.83331000000004,
          "durationTicks": 1152,
          "midi": 65,
          "name": "F4",
          "ticks": 459264,
          "time": 348.21890999999994,
          "velocity": 0.968503937007874
        },
        {
          "duration": 0.2777699999999754,
          "durationTicks": 384,
          "midi": 60,
          "name": "C4",
          "ticks": 460416,
          "time": 349.05222,
          "velocity": 0.968503937007874
        },
        {
          "duration": 0.2777699999999754,
          "durationTicks": 384,
          "midi": 63,
          "name": "D#4",
          "ticks": 460416,
          "time": 349.05222,
          "velocity": 0.968503937007874
        },
        {
          "duration": 0.27777000000003227,
          "durationTicks": 384,
          "midi": 59,
          "name": "B3",
          "ticks": 460800,
          "time": 349.32998999999995,
          "velocity": 0.968503937007874
        },
        {
          "duration": 0.27777000000003227,
          "durationTicks": 384,
          "midi": 62,
          "name": "D4",
          "ticks": 460800,
          "time": 349.32998999999995,
          "velocity": 0.968503937007874
        },
        {
          "duration": 0.2777699999999754,
          "durationTicks": 384,
          "midi": 62,
          "name": "D4",
          "ticks": 461184,
          "time": 349.60776,
          "velocity": 0.968503937007874
        },
        {
          "duration": 0.2777699999999754,
          "durationTicks": 384,
          "midi": 65,
          "name": "F4",
          "ticks": 461184,
          "time": 349.60776,
          "velocity": 0.968503937007874
        },
        {
          "duration": 0.27777000000003227,
          "durationTicks": 384,
          "midi": 60,
          "name": "C4",
          "ticks": 461568,
          "time": 349.88552999999996,
          "velocity": 0.968503937007874
        },
        {
          "duration": 0.27777000000003227,
          "durationTicks": 384,
          "midi": 63,
          "name": "D#4",
          "ticks": 461568,
          "time": 349.88552999999996,
          "velocity": 0.968503937007874
        },
        {
          "duration": 0.2777699999999754,
          "durationTicks": 384,
          "midi": 59,
          "name": "B3",
          "ticks": 461952,
          "time": 350.1633,
          "velocity": 0.968503937007874
        },
        {
          "duration": 0.2777699999999754,
          "durationTicks": 384,
          "midi": 62,
          "name": "D4",
          "ticks": 461952,
          "time": 350.1633,
          "velocity": 0.968503937007874
        },
        {
          "duration": 0.27777000000003227,
          "durationTicks": 384,
          "midi": 60,
          "name": "C4",
          "ticks": 462336,
          "time": 350.44106999999997,
          "velocity": 0.968503937007874
        },
        {
          "duration": 0.27777000000003227,
          "durationTicks": 384,
          "midi": 63,
          "name": "D#4",
          "ticks": 462336,
          "time": 350.44106999999997,
          "velocity": 0.968503937007874
        },
        {
          "duration": 0.1388849999999593,
          "durationTicks": 192,
          "midi": 43,
          "name": "G2",
          "ticks": 463296,
          "time": 351.135495,
          "velocity": 0.968503937007874
        },
        {
          "duration": 0.1388849999999593,
          "durationTicks": 192,
          "midi": 55,
          "name": "G3",
          "ticks": 463296,
          "time": 351.135495,
          "velocity": 0.968503937007874
        },
        {
          "duration": 0.13888500000001613,
          "durationTicks": 192,
          "midi": 43,
          "name": "G2",
          "ticks": 463488,
          "time": 351.27437999999995,
          "velocity": 0.968503937007874
        },
        {
          "duration": 0.13888500000001613,
          "durationTicks": 192,
          "midi": 55,
          "name": "G3",
          "ticks": 463488,
          "time": 351.27437999999995,
          "velocity": 0.968503937007874
        },
        {
          "duration": 0.13888500000001613,
          "durationTicks": 192,
          "midi": 43,
          "name": "G2",
          "ticks": 463680,
          "time": 351.41326499999997,
          "velocity": 0.968503937007874
        },
        {
          "duration": 0.13888500000001613,
          "durationTicks": 192,
          "midi": 55,
          "name": "G3",
          "ticks": 463680,
          "time": 351.41326499999997,
          "velocity": 0.968503937007874
        },
        {
          "duration": 0.1388849999999593,
          "durationTicks": 192,
          "midi": 43,
          "name": "G2",
          "ticks": 463872,
          "time": 351.55215,
          "velocity": 0.968503937007874
        },
        {
          "duration": 0.1388849999999593,
          "durationTicks": 192,
          "midi": 55,
          "name": "G3",
          "ticks": 463872,
          "time": 351.55215,
          "velocity": 0.968503937007874
        },
        {
          "duration": 0.13888500000001613,
          "durationTicks": 192,
          "midi": 43,
          "name": "G2",
          "ticks": 464064,
          "time": 351.69103499999994,
          "velocity": 0.968503937007874
        },
        {
          "duration": 0.13888500000001613,
          "durationTicks": 192,
          "midi": 55,
          "name": "G3",
          "ticks": 464064,
          "time": 351.69103499999994,
          "velocity": 0.968503937007874
        },
        {
          "duration": 0.13888500000001613,
          "durationTicks": 192,
          "midi": 43,
          "name": "G2",
          "ticks": 464256,
          "time": 351.82991999999996,
          "velocity": 0.968503937007874
        },
        {
          "duration": 0.13888500000001613,
          "durationTicks": 192,
          "midi": 55,
          "name": "G3",
          "ticks": 464256,
          "time": 351.82991999999996,
          "velocity": 0.968503937007874
        },
        {
          "duration": 0.13888500000001613,
          "durationTicks": 192,
          "midi": 43,
          "name": "G2",
          "ticks": 464448,
          "time": 351.968805,
          "velocity": 0.968503937007874
        },
        {
          "duration": 0.13888500000001613,
          "durationTicks": 192,
          "midi": 55,
          "name": "G3",
          "ticks": 464448,
          "time": 351.968805,
          "velocity": 0.968503937007874
        },
        {
          "duration": 0.13888500000001613,
          "durationTicks": 192,
          "midi": 43,
          "name": "G2",
          "ticks": 464640,
          "time": 352.10769,
          "velocity": 0.968503937007874
        },
        {
          "duration": 0.13888500000001613,
          "durationTicks": 192,
          "midi": 55,
          "name": "G3",
          "ticks": 464640,
          "time": 352.10769,
          "velocity": 0.968503937007874
        },
        {
          "duration": 0.1388849999999593,
          "durationTicks": 192,
          "midi": 43,
          "name": "G2",
          "ticks": 464832,
          "time": 352.246575,
          "velocity": 0.968503937007874
        },
        {
          "duration": 0.1388849999999593,
          "durationTicks": 192,
          "midi": 55,
          "name": "G3",
          "ticks": 464832,
          "time": 352.246575,
          "velocity": 0.968503937007874
        },
        {
          "duration": 0.13888500000001613,
          "durationTicks": 192,
          "midi": 43,
          "name": "G2",
          "ticks": 465024,
          "time": 352.38545999999997,
          "velocity": 0.968503937007874
        },
        {
          "duration": 0.13888500000001613,
          "durationTicks": 192,
          "midi": 55,
          "name": "G3",
          "ticks": 465024,
          "time": 352.38545999999997,
          "velocity": 0.968503937007874
        },
        {
          "duration": 0.13888500000001613,
          "durationTicks": 192,
          "midi": 43,
          "name": "G2",
          "ticks": 465216,
          "time": 352.524345,
          "velocity": 0.968503937007874
        },
        {
          "duration": 0.13888500000001613,
          "durationTicks": 192,
          "midi": 55,
          "name": "G3",
          "ticks": 465216,
          "time": 352.524345,
          "velocity": 0.968503937007874
        },
        {
          "duration": 1.0908999999999764,
          "durationTicks": 768,
          "midi": 39,
          "name": "D#2",
          "ticks": 465408,
          "time": 352.66323,
          "velocity": 0.968503937007874
        },
        {
          "duration": 1.0908999999999764,
          "durationTicks": 768,
          "midi": 51,
          "name": "D#3",
          "ticks": 465408,
          "time": 352.66323,
          "velocity": 0.968503937007874
        },
        {
          "duration": 0.1388849999999593,
          "durationTicks": 192,
          "midi": 41,
          "name": "F2",
          "ticks": 466368,
          "time": 353.893015,
          "velocity": 0.968503937007874
        },
        {
          "duration": 0.1388849999999593,
          "durationTicks": 192,
          "midi": 53,
          "name": "F3",
          "ticks": 466368,
          "time": 353.893015,
          "velocity": 0.968503937007874
        },
        {
          "duration": 0.13888500000001613,
          "durationTicks": 192,
          "midi": 41,
          "name": "F2",
          "ticks": 466560,
          "time": 354.03189999999995,
          "velocity": 0.968503937007874
        },
        {
          "duration": 0.13888500000001613,
          "durationTicks": 192,
          "midi": 53,
          "name": "F3",
          "ticks": 466560,
          "time": 354.03189999999995,
          "velocity": 0.968503937007874
        },
        {
          "duration": 0.13888500000001613,
          "durationTicks": 192,
          "midi": 41,
          "name": "F2",
          "ticks": 466752,
          "time": 354.17078499999997,
          "velocity": 0.968503937007874
        },
        {
          "duration": 0.13888500000001613,
          "durationTicks": 192,
          "midi": 53,
          "name": "F3",
          "ticks": 466752,
          "time": 354.17078499999997,
          "velocity": 0.968503937007874
        },
        {
          "duration": 1.7555399999999963,
          "durationTicks": 1536,
          "midi": 38,
          "name": "D2",
          "ticks": 466944,
          "time": 354.30967,
          "velocity": 0.968503937007874
        },
        {
          "duration": 1.7555399999999963,
          "durationTicks": 1536,
          "midi": 50,
          "name": "D3",
          "ticks": 466944,
          "time": 354.30967,
          "velocity": 0.968503937007874
        },
        {
          "duration": 0.2830099999999902,
          "durationTicks": 384,
          "midi": 67,
          "name": "G4",
          "ticks": 468864,
          "time": 356.34821999999997,
          "velocity": 0.7165354330708661
        },
        {
          "duration": 0.2830099999999902,
          "durationTicks": 384,
          "midi": 67,
          "name": "G4",
          "ticks": 468864,
          "time": 356.34821999999997,
          "velocity": 0.7165354330708661
        },
        {
          "duration": 1.9810700000000452,
          "durationTicks": 2688,
          "midi": 63,
          "name": "D#4",
          "ticks": 469248,
          "time": 356.63122999999996,
          "velocity": 0.7165354330708661
        },
        {
          "duration": 1.9810700000000452,
          "durationTicks": 2688,
          "midi": 63,
          "name": "D#4",
          "ticks": 469248,
          "time": 356.63122999999996,
          "velocity": 0.7165354330708661
        },
        {
          "duration": 0.2830099999999902,
          "durationTicks": 384,
          "midi": 67,
          "name": "G4",
          "ticks": 471936,
          "time": 358.6123,
          "velocity": 0.7165354330708661
        },
        {
          "duration": 0.2830099999999902,
          "durationTicks": 384,
          "midi": 67,
          "name": "G4",
          "ticks": 471936,
          "time": 358.6123,
          "velocity": 0.7165354330708661
        },
        {
          "duration": 1.8395649999999932,
          "durationTicks": 2496,
          "midi": 63,
          "name": "D#4",
          "ticks": 472320,
          "time": 358.89531,
          "velocity": 0.7165354330708661
        },
        {
          "duration": 1.8395649999999932,
          "durationTicks": 2496,
          "midi": 63,
          "name": "D#4",
          "ticks": 472320,
          "time": 358.89531,
          "velocity": 0.7165354330708661
        },
        {
          "duration": 0.1415049999999951,
          "durationTicks": 192,
          "midi": 59,
          "name": "B3",
          "ticks": 474816,
          "time": 360.734875,
          "velocity": 0.968503937007874
        },
        {
          "duration": 0.1415049999999951,
          "durationTicks": 192,
          "midi": 62,
          "name": "D4",
          "ticks": 474816,
          "time": 360.734875,
          "velocity": 0.968503937007874
        },
        {
          "duration": 0.1415049999999951,
          "durationTicks": 192,
          "midi": 59,
          "name": "B3",
          "ticks": 475008,
          "time": 360.87638,
          "velocity": 0.968503937007874
        },
        {
          "duration": 0.1415049999999951,
          "durationTicks": 192,
          "midi": 62,
          "name": "D4",
          "ticks": 475008,
          "time": 360.87638,
          "velocity": 0.968503937007874
        },
        {
          "duration": 0.1415049999999951,
          "durationTicks": 192,
          "midi": 59,
          "name": "B3",
          "ticks": 475200,
          "time": 361.017885,
          "velocity": 0.968503937007874
        },
        {
          "duration": 0.1415049999999951,
          "durationTicks": 192,
          "midi": 62,
          "name": "D4",
          "ticks": 475200,
          "time": 361.017885,
          "velocity": 0.968503937007874
        },
        {
          "duration": 0.2830099999999902,
          "durationTicks": 384,
          "midi": 60,
          "name": "C4",
          "ticks": 475392,
          "time": 361.15939,
          "velocity": 0.968503937007874
        },
        {
          "duration": 0.2830099999999902,
          "durationTicks": 384,
          "midi": 63,
          "name": "D#4",
          "ticks": 475392,
          "time": 361.15939,
          "velocity": 0.968503937007874
        },
        {
          "duration": 0.1415049999999951,
          "durationTicks": 192,
          "midi": 59,
          "name": "B3",
          "ticks": 476352,
          "time": 361.866915,
          "velocity": 0.968503937007874
        },
        {
          "duration": 0.1415049999999951,
          "durationTicks": 192,
          "midi": 62,
          "name": "D4",
          "ticks": 476352,
          "time": 361.866915,
          "velocity": 0.968503937007874
        },
        {
          "duration": 0.1415049999999951,
          "durationTicks": 192,
          "midi": 59,
          "name": "B3",
          "ticks": 476544,
          "time": 362.00842,
          "velocity": 0.968503937007874
        },
        {
          "duration": 0.1415049999999951,
          "durationTicks": 192,
          "midi": 62,
          "name": "D4",
          "ticks": 476544,
          "time": 362.00842,
          "velocity": 0.968503937007874
        },
        {
          "duration": 0.1415049999999951,
          "durationTicks": 192,
          "midi": 59,
          "name": "B3",
          "ticks": 476736,
          "time": 362.149925,
          "velocity": 0.968503937007874
        },
        {
          "duration": 0.1415049999999951,
          "durationTicks": 192,
          "midi": 62,
          "name": "D4",
          "ticks": 476736,
          "time": 362.149925,
          "velocity": 0.968503937007874
        },
        {
          "duration": 0.2830099999999902,
          "durationTicks": 384,
          "midi": 60,
          "name": "C4",
          "ticks": 476928,
          "time": 362.29143,
          "velocity": 0.968503937007874
        },
        {
          "duration": 0.2830099999999902,
          "durationTicks": 384,
          "midi": 63,
          "name": "D#4",
          "ticks": 476928,
          "time": 362.29143,
          "velocity": 0.968503937007874
        },
        {
          "duration": 0.1415049999999951,
          "durationTicks": 192,
          "midi": 59,
          "name": "B3",
          "ticks": 477888,
          "time": 362.99895499999997,
          "velocity": 0.968503937007874
        },
        {
          "duration": 0.1415049999999951,
          "durationTicks": 192,
          "midi": 62,
          "name": "D4",
          "ticks": 477888,
          "time": 362.99895499999997,
          "velocity": 0.968503937007874
        },
        {
          "duration": 0.1415049999999951,
          "durationTicks": 192,
          "midi": 59,
          "name": "B3",
          "ticks": 478080,
          "time": 363.14045999999996,
          "velocity": 0.968503937007874
        },
        {
          "duration": 0.1415049999999951,
          "durationTicks": 192,
          "midi": 62,
          "name": "D4",
          "ticks": 478080,
          "time": 363.14045999999996,
          "velocity": 0.968503937007874
        },
        {
          "duration": 0.1415049999999951,
          "durationTicks": 192,
          "midi": 59,
          "name": "B3",
          "ticks": 478272,
          "time": 363.28196499999996,
          "velocity": 0.968503937007874
        },
        {
          "duration": 0.1415049999999951,
          "durationTicks": 192,
          "midi": 62,
          "name": "D4",
          "ticks": 478272,
          "time": 363.28196499999996,
          "velocity": 0.968503937007874
        },
        {
          "duration": 0.28301000000004706,
          "durationTicks": 384,
          "midi": 60,
          "name": "C4",
          "ticks": 478464,
          "time": 363.42346999999995,
          "velocity": 0.968503937007874
        },
        {
          "duration": 0.28301000000004706,
          "durationTicks": 384,
          "midi": 63,
          "name": "D#4",
          "ticks": 478464,
          "time": 363.42346999999995,
          "velocity": 0.968503937007874
        },
        {
          "duration": 0.2830099999999902,
          "durationTicks": 384,
          "midi": 59,
          "name": "B3",
          "ticks": 478848,
          "time": 363.70648,
          "velocity": 0.968503937007874
        },
        {
          "duration": 0.2830099999999902,
          "durationTicks": 384,
          "midi": 62,
          "name": "D4",
          "ticks": 478848,
          "time": 363.70648,
          "velocity": 0.968503937007874
        },
        {
          "duration": 0.2830099999999902,
          "durationTicks": 384,
          "midi": 60,
          "name": "C4",
          "ticks": 479232,
          "time": 363.98949,
          "velocity": 0.968503937007874
        },
        {
          "duration": 0.2830099999999902,
          "durationTicks": 384,
          "midi": 63,
          "name": "D#4",
          "ticks": 479232,
          "time": 363.98949,
          "velocity": 0.968503937007874
        },
        {
          "duration": 0.2830099999999902,
          "durationTicks": 384,
          "midi": 59,
          "name": "B3",
          "ticks": 479616,
          "time": 364.2725,
          "velocity": 0.968503937007874
        },
        {
          "duration": 0.2830099999999902,
          "durationTicks": 384,
          "midi": 62,
          "name": "D4",
          "ticks": 479616,
          "time": 364.2725,
          "velocity": 0.968503937007874
        },
        {
          "duration": 0.2830099999999902,
          "durationTicks": 384,
          "midi": 60,
          "name": "C4",
          "ticks": 480000,
          "time": 364.55550999999997,
          "velocity": 0.968503937007874
        },
        {
          "duration": 0.2830099999999902,
          "durationTicks": 384,
          "midi": 63,
          "name": "D#4",
          "ticks": 480000,
          "time": 364.55550999999997,
          "velocity": 0.968503937007874
        },
        {
          "duration": 0.28301000000004706,
          "durationTicks": 384,
          "midi": 59,
          "name": "B3",
          "ticks": 480384,
          "time": 364.83851999999996,
          "velocity": 0.968503937007874
        },
        {
          "duration": 0.28301000000004706,
          "durationTicks": 384,
          "midi": 62,
          "name": "D4",
          "ticks": 480384,
          "time": 364.83851999999996,
          "velocity": 0.968503937007874
        },
        {
          "duration": 0.2830099999999902,
          "durationTicks": 384,
          "midi": 60,
          "name": "C4",
          "ticks": 480768,
          "time": 365.12153,
          "velocity": 0.968503937007874
        },
        {
          "duration": 0.2830099999999902,
          "durationTicks": 384,
          "midi": 63,
          "name": "D#4",
          "ticks": 480768,
          "time": 365.12153,
          "velocity": 0.968503937007874
        },
        {
          "duration": 0.2830099999999902,
          "durationTicks": 384,
          "midi": 59,
          "name": "B3",
          "ticks": 481152,
          "time": 365.40454,
          "velocity": 0.968503937007874
        },
        {
          "duration": 0.2830099999999902,
          "durationTicks": 384,
          "midi": 62,
          "name": "D4",
          "ticks": 481152,
          "time": 365.40454,
          "velocity": 0.968503937007874
        },
        {
          "duration": 0.2830099999999902,
          "durationTicks": 384,
          "midi": 60,
          "name": "C4",
          "ticks": 481536,
          "time": 365.68755,
          "velocity": 0.968503937007874
        },
        {
          "duration": 0.2830099999999902,
          "durationTicks": 384,
          "midi": 63,
          "name": "D#4",
          "ticks": 481536,
          "time": 365.68755,
          "velocity": 0.968503937007874
        },
        {
          "duration": 0.2830099999999902,
          "durationTicks": 384,
          "midi": 55,
          "name": "G3",
          "ticks": 482304,
          "time": 366.25356999999997,
          "velocity": 0.968503937007874
        },
        {
          "duration": 0.2830099999999902,
          "durationTicks": 384,
          "midi": 59,
          "name": "B3",
          "ticks": 482304,
          "time": 366.25356999999997,
          "velocity": 0.968503937007874
        },
        {
          "duration": 0.2830099999999902,
          "durationTicks": 384,
          "midi": 48,
          "name": "C3",
          "ticks": 483072,
          "time": 366.81959,
          "velocity": 0.968503937007874
        },
        {
          "duration": 0.2830099999999902,
          "durationTicks": 384,
          "midi": 60,
          "name": "C4",
          "ticks": 483072,
          "time": 366.81959,
          "velocity": 0.968503937007874
        }
      ],
      "endOfTrackTicks": 484608
    },
    {
      "channel": 4,
      "controlChanges": {},
      "pitchBends": [],
      "instrument": {
        "family": "brass",
        "number": 60,
        "name": "french horn"
      },
      "name": "FR.HORN",
      "notes": [
        {
          "duration": 0.1442300000000003,
          "durationTicks": 192,
          "midi": 79,
          "name": "G5",
          "ticks": 13248,
          "time": 11.06727,
          "velocity": 0.7165354330708661
        },
        {
          "duration": 0.1442300000000003,
          "durationTicks": 192,
          "midi": 79,
          "name": "G5",
          "ticks": 13248,
          "time": 11.06727,
          "velocity": 0.7165354330708661
        },
        {
          "duration": 0.14422999999999853,
          "durationTicks": 192,
          "midi": 79,
          "name": "G5",
          "ticks": 13440,
          "time": 11.211500000000001,
          "velocity": 0.7952755905511811
        },
        {
          "duration": 0.14422999999999853,
          "durationTicks": 192,
          "midi": 79,
          "name": "G5",
          "ticks": 13440,
          "time": 11.211500000000001,
          "velocity": 0.7952755905511811
        },
        {
          "duration": 0.1442300000000003,
          "durationTicks": 192,
          "midi": 79,
          "name": "G5",
          "ticks": 13632,
          "time": 11.35573,
          "velocity": 0.8582677165354331
        },
        {
          "duration": 0.1442300000000003,
          "durationTicks": 192,
          "midi": 79,
          "name": "G5",
          "ticks": 13632,
          "time": 11.35573,
          "velocity": 0.8582677165354331
        },
        {
          "duration": 0.28845999999999883,
          "durationTicks": 384,
          "midi": 79,
          "name": "G5",
          "ticks": 13824,
          "time": 11.49996,
          "velocity": 0.905511811023622
        },
        {
          "duration": 0.28845999999999883,
          "durationTicks": 384,
          "midi": 79,
          "name": "G5",
          "ticks": 13824,
          "time": 11.49996,
          "velocity": 0.905511811023622
        },
        {
          "duration": 0.2884600000000006,
          "durationTicks": 384,
          "midi": 63,
          "name": "D#4",
          "ticks": 14592,
          "time": 12.07688,
          "velocity": 0.905511811023622
        },
        {
          "duration": 0.2884600000000006,
          "durationTicks": 384,
          "midi": 75,
          "name": "D#5",
          "ticks": 14592,
          "time": 12.07688,
          "velocity": 0.905511811023622
        },
        {
          "duration": 0.28845999999999883,
          "durationTicks": 384,
          "midi": 67,
          "name": "G4",
          "ticks": 15360,
          "time": 12.6538,
          "velocity": 0.905511811023622
        },
        {
          "duration": 0.28845999999999883,
          "durationTicks": 384,
          "midi": 79,
          "name": "G5",
          "ticks": 15360,
          "time": 12.6538,
          "velocity": 0.905511811023622
        },
        {
          "duration": 0.14285499999999907,
          "durationTicks": 192,
          "midi": 80,
          "name": "G#5",
          "ticks": 16320,
          "time": 14.751775,
          "velocity": 0.968503937007874
        },
        {
          "duration": 0.14285499999999907,
          "durationTicks": 192,
          "midi": 80,
          "name": "G#5",
          "ticks": 16320,
          "time": 14.751775,
          "velocity": 0.968503937007874
        },
        {
          "duration": 0.14285500000000084,
          "durationTicks": 192,
          "midi": 80,
          "name": "G#5",
          "ticks": 16512,
          "time": 14.89463,
          "velocity": 0.968503937007874
        },
        {
          "duration": 0.14285500000000084,
          "durationTicks": 192,
          "midi": 80,
          "name": "G#5",
          "ticks": 16512,
          "time": 14.89463,
          "velocity": 0.968503937007874
        },
        {
          "duration": 0.14285499999999907,
          "durationTicks": 192,
          "midi": 80,
          "name": "G#5",
          "ticks": 16704,
          "time": 15.037485,
          "velocity": 0.968503937007874
        },
        {
          "duration": 0.14285499999999907,
          "durationTicks": 192,
          "midi": 80,
          "name": "G#5",
          "ticks": 16704,
          "time": 15.037485,
          "velocity": 0.968503937007874
        },
        {
          "duration": 1.9047399999999985,
          "durationTicks": 1536,
          "midi": 77,
          "name": "F5",
          "ticks": 16896,
          "time": 15.18034,
          "velocity": 0.968503937007874
        },
        {
          "duration": 1.9047399999999985,
          "durationTicks": 1536,
          "midi": 77,
          "name": "F5",
          "ticks": 16896,
          "time": 15.18034,
          "velocity": 0.968503937007874
        },
        {
          "duration": 0.14285500000000084,
          "durationTicks": 192,
          "midi": 67,
          "name": "G4",
          "ticks": 24000,
          "time": 21.227874999999997,
          "velocity": 0.7165354330708661
        },
        {
          "duration": 0.14285500000000084,
          "durationTicks": 192,
          "midi": 79,
          "name": "G5",
          "ticks": 24000,
          "time": 21.227874999999997,
          "velocity": 0.7165354330708661
        },
        {
          "duration": 0.14285500000000084,
          "durationTicks": 192,
          "midi": 67,
          "name": "G4",
          "ticks": 24192,
          "time": 21.37073,
          "velocity": 0.7165354330708661
        },
        {
          "duration": 0.14285500000000084,
          "durationTicks": 192,
          "midi": 79,
          "name": "G5",
          "ticks": 24192,
          "time": 21.37073,
          "velocity": 0.7165354330708661
        },
        {
          "duration": 0.1428549999999973,
          "durationTicks": 192,
          "midi": 67,
          "name": "G4",
          "ticks": 24384,
          "time": 21.513585,
          "velocity": 0.7165354330708661
        },
        {
          "duration": 0.1428549999999973,
          "durationTicks": 192,
          "midi": 79,
          "name": "G5",
          "ticks": 24384,
          "time": 21.513585,
          "velocity": 0.7165354330708661
        },
        {
          "duration": 0.2857100000000017,
          "durationTicks": 384,
          "midi": 67,
          "name": "G4",
          "ticks": 24576,
          "time": 21.656439999999996,
          "velocity": 0.7165354330708661
        },
        {
          "duration": 0.2857100000000017,
          "durationTicks": 384,
          "midi": 79,
          "name": "G5",
          "ticks": 24576,
          "time": 21.656439999999996,
          "velocity": 0.7165354330708661
        },
        {
          "duration": 0.857129999999998,
          "durationTicks": 1152,
          "midi": 77,
          "name": "F5",
          "ticks": 25344,
          "time": 22.22786,
          "velocity": 0.7165354330708661
        },
        {
          "duration": 0.857129999999998,
          "durationTicks": 1152,
          "midi": 80,
          "name": "G#5",
          "ticks": 25344,
          "time": 22.22786,
          "velocity": 0.7165354330708661
        },
        {
          "duration": 0.2803699999999978,
          "durationTicks": 384,
          "midi": 77,
          "name": "F5",
          "ticks": 32256,
          "time": 27.317,
          "velocity": 0.905511811023622
        },
        {
          "duration": 0.2803699999999978,
          "durationTicks": 384,
          "midi": 80,
          "name": "G#5",
          "ticks": 32256,
          "time": 27.317,
          "velocity": 0.905511811023622
        },
        {
          "duration": 2.222159999999999,
          "durationTicks": 3072,
          "midi": 75,
          "name": "D#5",
          "ticks": 33024,
          "time": 27.87774,
          "velocity": 0.905511811023622
        },
        {
          "duration": 2.222159999999999,
          "durationTicks": 3072,
          "midi": 79,
          "name": "G5",
          "ticks": 33024,
          "time": 27.87774,
          "velocity": 0.905511811023622
        },
        {
          "duration": 1.9443899999999985,
          "durationTicks": 2688,
          "midi": 77,
          "name": "F5",
          "ticks": 36096,
          "time": 30.099899999999998,
          "velocity": 0.905511811023622
        },
        {
          "duration": 1.9443899999999985,
          "durationTicks": 2688,
          "midi": 79,
          "name": "G5",
          "ticks": 36096,
          "time": 30.099899999999998,
          "velocity": 0.905511811023622
        },
        {
          "duration": 0.27777000000000385,
          "durationTicks": 384,
          "midi": 75,
          "name": "D#5",
          "ticks": 38784,
          "time": 32.04429,
          "velocity": 0.905511811023622
        },
        {
          "duration": 0.27777000000000385,
          "durationTicks": 384,
          "midi": 79,
          "name": "G5",
          "ticks": 38784,
          "time": 32.04429,
          "velocity": 0.905511811023622
        },
        {
          "duration": 2.2221599999999953,
          "durationTicks": 3072,
          "midi": 75,
          "name": "D#5",
          "ticks": 39168,
          "time": 32.32206,
          "velocity": 0.968503937007874
        },
        {
          "duration": 2.2221599999999953,
          "durationTicks": 3072,
          "midi": 78,
          "name": "F#5",
          "ticks": 39168,
          "time": 32.32206,
          "velocity": 0.968503937007874
        },
        {
          "duration": 0.27777000000000385,
          "durationTicks": 384,
          "midi": 75,
          "name": "D#5",
          "ticks": 42240,
          "time": 34.544219999999996,
          "velocity": 0.968503937007874
        },
        {
          "duration": 0.27777000000000385,
          "durationTicks": 384,
          "midi": 78,
          "name": "F#5",
          "ticks": 42240,
          "time": 34.544219999999996,
          "velocity": 0.968503937007874
        },
        {
          "duration": 0.27777000000000385,
          "durationTicks": 384,
          "midi": 70,
          "name": "A#4",
          "ticks": 43776,
          "time": 35.6553,
          "velocity": 0.968503937007874
        },
        {
          "duration": 0.27777000000000385,
          "durationTicks": 384,
          "midi": 77,
          "name": "F5",
          "ticks": 43776,
          "time": 35.6553,
          "velocity": 0.968503937007874
        },
        {
          "duration": 0.1442300000000003,
          "durationTicks": 192,
          "midi": 82,
          "name": "A#5",
          "ticks": 44736,
          "time": 36.35507,
          "velocity": 0.968503937007874
        },
        {
          "duration": 0.1442300000000003,
          "durationTicks": 192,
          "midi": 82,
          "name": "A#5",
          "ticks": 44736,
          "time": 36.35507,
          "velocity": 0.968503937007874
        },
        {
          "duration": 0.1442300000000003,
          "durationTicks": 192,
          "midi": 82,
          "name": "A#5",
          "ticks": 44928,
          "time": 36.4993,
          "velocity": 0.968503937007874
        },
        {
          "duration": 0.1442300000000003,
          "durationTicks": 192,
          "midi": 82,
          "name": "A#5",
          "ticks": 44928,
          "time": 36.4993,
          "velocity": 0.968503937007874
        },
        {
          "duration": 0.1442300000000003,
          "durationTicks": 192,
          "midi": 82,
          "name": "A#5",
          "ticks": 45120,
          "time": 36.64353,
          "velocity": 0.968503937007874
        },
        {
          "duration": 0.1442300000000003,
          "durationTicks": 192,
          "midi": 82,
          "name": "A#5",
          "ticks": 45120,
          "time": 36.64353,
          "velocity": 0.968503937007874
        },
        {
          "duration": 0.5769200000000012,
          "durationTicks": 768,
          "midi": 75,
          "name": "D#5",
          "ticks": 45312,
          "time": 36.78776,
          "velocity": 0.968503937007874
        },
        {
          "duration": 0.5769200000000012,
          "durationTicks": 768,
          "midi": 75,
          "name": "D#5",
          "ticks": 45312,
          "time": 36.78776,
          "velocity": 0.968503937007874
        },
        {
          "duration": 0.5769199999999941,
          "durationTicks": 768,
          "midi": 77,
          "name": "F5",
          "ticks": 46080,
          "time": 37.36468,
          "velocity": 0.968503937007874
        },
        {
          "duration": 0.5769199999999941,
          "durationTicks": 768,
          "midi": 77,
          "name": "F5",
          "ticks": 46080,
          "time": 37.36468,
          "velocity": 0.968503937007874
        },
        {
          "duration": 1.1538400000000024,
          "durationTicks": 1536,
          "midi": 70,
          "name": "A#4",
          "ticks": 46848,
          "time": 37.941599999999994,
          "velocity": 0.968503937007874
        },
        {
          "duration": 1.1538400000000024,
          "durationTicks": 1536,
          "midi": 70,
          "name": "A#4",
          "ticks": 46848,
          "time": 37.941599999999994,
          "velocity": 0.968503937007874
        },
        {
          "duration": 2.8737000000000066,
          "durationTicks": 3840,
          "midi": 70,
          "name": "A#4",
          "ticks": 48384,
          "time": 39.095439999999996,
          "velocity": 0.7165354330708661
        },
        {
          "duration": 2.8737000000000066,
          "durationTicks": 3840,
          "midi": 70,
          "name": "A#4",
          "ticks": 48384,
          "time": 39.095439999999996,
          "velocity": 0.7165354330708661
        },
        {
          "duration": 2.8091399999999993,
          "durationTicks": 3840,
          "midi": 70,
          "name": "A#4",
          "ticks": 52224,
          "time": 41.96914,
          "velocity": 0.7165354330708661
        },
        {
          "duration": 2.8091399999999993,
          "durationTicks": 3840,
          "midi": 70,
          "name": "A#4",
          "ticks": 52224,
          "time": 41.96914,
          "velocity": 0.7165354330708661
        },
        {
          "duration": 0.5555400000000006,
          "durationTicks": 768,
          "midi": 70,
          "name": "A#4",
          "ticks": 56064,
          "time": 44.77828,
          "velocity": 0.7165354330708661
        },
        {
          "duration": 0.5555400000000006,
          "durationTicks": 768,
          "midi": 70,
          "name": "A#4",
          "ticks": 56064,
          "time": 44.77828,
          "velocity": 0.7165354330708661
        },
        {
          "duration": 2.777700000000003,
          "durationTicks": 3840,
          "midi": 63,
          "name": "D#4",
          "ticks": 62976,
          "time": 49.77814,
          "velocity": 0.7165354330708661
        },
        {
          "duration": 2.777700000000003,
          "durationTicks": 3840,
          "midi": 75,
          "name": "D#5",
          "ticks": 62976,
          "time": 49.77814,
          "velocity": 0.7165354330708661
        },
        {
          "duration": 2.499929999999999,
          "durationTicks": 3456,
          "midi": 63,
          "name": "D#4",
          "ticks": 66816,
          "time": 52.55584,
          "velocity": 0.7165354330708661
        },
        {
          "duration": 2.499929999999999,
          "durationTicks": 3456,
          "midi": 75,
          "name": "D#5",
          "ticks": 66816,
          "time": 52.55584,
          "velocity": 0.7165354330708661
        },
        {
          "duration": 0.27776999999999674,
          "durationTicks": 384,
          "midi": 63,
          "name": "D#4",
          "ticks": 70272,
          "time": 55.05577,
          "velocity": 0.8582677165354331
        },
        {
          "duration": 0.27776999999999674,
          "durationTicks": 384,
          "midi": 75,
          "name": "D#5",
          "ticks": 70272,
          "time": 55.05577,
          "velocity": 0.8582677165354331
        },
        {
          "duration": 0.27777000000000385,
          "durationTicks": 384,
          "midi": 63,
          "name": "D#4",
          "ticks": 70656,
          "time": 55.33354,
          "velocity": 0.905511811023622
        },
        {
          "duration": 0.27777000000000385,
          "durationTicks": 384,
          "midi": 75,
          "name": "D#5",
          "ticks": 70656,
          "time": 55.33354,
          "velocity": 0.905511811023622
        },
        {
          "duration": 0.27776999999999674,
          "durationTicks": 384,
          "midi": 63,
          "name": "D#4",
          "ticks": 71040,
          "time": 55.61131,
          "velocity": 0.905511811023622
        },
        {
          "duration": 0.27776999999999674,
          "durationTicks": 384,
          "midi": 75,
          "name": "D#5",
          "ticks": 71040,
          "time": 55.61131,
          "velocity": 0.905511811023622
        },
        {
          "duration": 0.8333100000000044,
          "durationTicks": 1152,
          "midi": 70,
          "name": "A#4",
          "ticks": 71424,
          "time": 55.88908,
          "velocity": 0.968503937007874
        },
        {
          "duration": 0.8333100000000044,
          "durationTicks": 1152,
          "midi": 77,
          "name": "F5",
          "ticks": 71424,
          "time": 55.88908,
          "velocity": 0.968503937007874
        },
        {
          "duration": 0.27776999999999674,
          "durationTicks": 384,
          "midi": 58,
          "name": "A#3",
          "ticks": 72576,
          "time": 56.722390000000004,
          "velocity": 0.968503937007874
        },
        {
          "duration": 0.27776999999999674,
          "durationTicks": 384,
          "midi": 70,
          "name": "A#4",
          "ticks": 72576,
          "time": 56.722390000000004,
          "velocity": 0.968503937007874
        },
        {
          "duration": 0.27776999999999674,
          "durationTicks": 384,
          "midi": 58,
          "name": "A#3",
          "ticks": 72960,
          "time": 57.00016,
          "velocity": 0.968503937007874
        },
        {
          "duration": 0.27776999999999674,
          "durationTicks": 384,
          "midi": 70,
          "name": "A#4",
          "ticks": 72960,
          "time": 57.00016,
          "velocity": 0.968503937007874
        },
        {
          "duration": 0.27777000000000385,
          "durationTicks": 384,
          "midi": 58,
          "name": "A#3",
          "ticks": 73728,
          "time": 57.5557,
          "velocity": 0.968503937007874
        },
        {
          "duration": 0.27777000000000385,
          "durationTicks": 384,
          "midi": 70,
          "name": "A#4",
          "ticks": 73728,
          "time": 57.5557,
          "velocity": 0.968503937007874
        },
        {
          "duration": 0.27776999999999674,
          "durationTicks": 384,
          "midi": 58,
          "name": "A#3",
          "ticks": 74496,
          "time": 58.11124,
          "velocity": 0.968503937007874
        },
        {
          "duration": 0.27776999999999674,
          "durationTicks": 384,
          "midi": 70,
          "name": "A#4",
          "ticks": 74496,
          "time": 58.11124,
          "velocity": 0.968503937007874
        },
        {
          "duration": 0.27776999999999674,
          "durationTicks": 384,
          "midi": 63,
          "name": "D#4",
          "ticks": 75264,
          "time": 58.66678,
          "velocity": 0.968503937007874
        },
        {
          "duration": 0.27776999999999674,
          "durationTicks": 384,
          "midi": 75,
          "name": "D#5",
          "ticks": 75264,
          "time": 58.66678,
          "velocity": 0.968503937007874
        },
        {
          "duration": 0.27776999999999674,
          "durationTicks": 384,
          "midi": 75,
          "name": "D#5",
          "ticks": 76032,
          "time": 59.22232,
          "velocity": 0.968503937007874
        },
        {
          "duration": 0.27776999999999674,
          "durationTicks": 384,
          "midi": 79,
          "name": "G5",
          "ticks": 76032,
          "time": 59.22232,
          "velocity": 0.968503937007874
        },
        {
          "duration": 0.27776999999999674,
          "durationTicks": 384,
          "midi": 70,
          "name": "A#4",
          "ticks": 76800,
          "time": 59.777860000000004,
          "velocity": 0.968503937007874
        },
        {
          "duration": 0.27776999999999674,
          "durationTicks": 384,
          "midi": 77,
          "name": "F5",
          "ticks": 76800,
          "time": 59.777860000000004,
          "velocity": 0.968503937007874
        },
        {
          "duration": 1.6666200000000018,
          "durationTicks": 2304,
          "midi": 58,
          "name": "A#3",
          "ticks": 77184,
          "time": 60.05563,
          "velocity": 0.968503937007874
        },
        {
          "duration": 1.6666200000000018,
          "durationTicks": 2304,
          "midi": 70,
          "name": "A#4",
          "ticks": 77184,
          "time": 60.05563,
          "velocity": 0.968503937007874
        },
        {
          "duration": 0.27777000000000385,
          "durationTicks": 384,
          "midi": 58,
          "name": "A#3",
          "ticks": 79488,
          "time": 61.72225,
          "velocity": 0.968503937007874
        },
        {
          "duration": 0.27777000000000385,
          "durationTicks": 384,
          "midi": 70,
          "name": "A#4",
          "ticks": 79488,
          "time": 61.72225,
          "velocity": 0.968503937007874
        },
        {
          "duration": 0.27776999999999674,
          "durationTicks": 384,
          "midi": 58,
          "name": "A#3",
          "ticks": 80256,
          "time": 62.27779,
          "velocity": 0.968503937007874
        },
        {
          "duration": 0.27776999999999674,
          "durationTicks": 384,
          "midi": 70,
          "name": "A#4",
          "ticks": 80256,
          "time": 62.27779,
          "velocity": 0.968503937007874
        },
        {
          "duration": 0.27777000000000385,
          "durationTicks": 384,
          "midi": 63,
          "name": "D#4",
          "ticks": 81024,
          "time": 62.833330000000004,
          "velocity": 0.968503937007874
        },
        {
          "duration": 0.27777000000000385,
          "durationTicks": 384,
          "midi": 75,
          "name": "D#5",
          "ticks": 81024,
          "time": 62.833330000000004,
          "velocity": 0.968503937007874
        },
        {
          "duration": 0.27777000000000385,
          "durationTicks": 384,
          "midi": 63,
          "name": "D#4",
          "ticks": 81792,
          "time": 63.38887,
          "velocity": 0.968503937007874
        },
        {
          "duration": 0.27777000000000385,
          "durationTicks": 384,
          "midi": 75,
          "name": "D#5",
          "ticks": 81792,
          "time": 63.38887,
          "velocity": 0.968503937007874
        },
        {
          "duration": 0.27777000000000385,
          "durationTicks": 384,
          "midi": 63,
          "name": "D#4",
          "ticks": 82560,
          "time": 63.944410000000005,
          "velocity": 0.968503937007874
        },
        {
          "duration": 0.27777000000000385,
          "durationTicks": 384,
          "midi": 75,
          "name": "D#5",
          "ticks": 82560,
          "time": 63.944410000000005,
          "velocity": 0.968503937007874
        },
        {
          "duration": 0.27777000000000385,
          "durationTicks": 384,
          "midi": 58,
          "name": "A#3",
          "ticks": 83328,
          "time": 64.49995,
          "velocity": 0.968503937007874
        },
        {
          "duration": 0.27777000000000385,
          "durationTicks": 384,
          "midi": 70,
          "name": "A#4",
          "ticks": 83328,
          "time": 64.49995,
          "velocity": 0.968503937007874
        },
        {
          "duration": 0.27777000000000385,
          "durationTicks": 384,
          "midi": 63,
          "name": "D#4",
          "ticks": 83712,
          "time": 64.77772,
          "velocity": 0.968503937007874
        },
        {
          "duration": 0.27777000000000385,
          "durationTicks": 384,
          "midi": 75,
          "name": "D#5",
          "ticks": 83712,
          "time": 64.77772,
          "velocity": 0.968503937007874
        },
        {
          "duration": 0.13888500000000192,
          "durationTicks": 192,
          "midi": 70,
          "name": "A#4",
          "ticks": 84672,
          "time": 65.472145,
          "velocity": 0.968503937007874
        },
        {
          "duration": 0.13888500000000192,
          "durationTicks": 192,
          "midi": 82,
          "name": "A#5",
          "ticks": 84672,
          "time": 65.472145,
          "velocity": 0.968503937007874
        },
        {
          "duration": 0.13888500000000192,
          "durationTicks": 192,
          "midi": 70,
          "name": "A#4",
          "ticks": 84864,
          "time": 65.61103,
          "velocity": 0.968503937007874
        },
        {
          "duration": 0.13888500000000192,
          "durationTicks": 192,
          "midi": 82,
          "name": "A#5",
          "ticks": 84864,
          "time": 65.61103,
          "velocity": 0.968503937007874
        },
        {
          "duration": 0.13888500000000192,
          "durationTicks": 192,
          "midi": 70,
          "name": "A#4",
          "ticks": 85056,
          "time": 65.749915,
          "velocity": 0.968503937007874
        },
        {
          "duration": 0.13888500000000192,
          "durationTicks": 192,
          "midi": 82,
          "name": "A#5",
          "ticks": 85056,
          "time": 65.749915,
          "velocity": 0.968503937007874
        },
        {
          "duration": 0.13888500000000192,
          "durationTicks": 192,
          "midi": 67,
          "name": "G4",
          "ticks": 85248,
          "time": 65.8888,
          "velocity": 0.968503937007874
        },
        {
          "duration": 0.13888500000000192,
          "durationTicks": 192,
          "midi": 79,
          "name": "G5",
          "ticks": 85248,
          "time": 65.8888,
          "velocity": 0.968503937007874
        },
        {
          "duration": 0.13888500000000192,
          "durationTicks": 192,
          "midi": 63,
          "name": "D#4",
          "ticks": 85440,
          "time": 66.027685,
          "velocity": 0.968503937007874
        },
        {
          "duration": 0.13888500000000192,
          "durationTicks": 192,
          "midi": 75,
          "name": "D#5",
          "ticks": 85440,
          "time": 66.027685,
          "velocity": 0.968503937007874
        },
        {
          "duration": 0.1388849999999877,
          "durationTicks": 192,
          "midi": 63,
          "name": "D#4",
          "ticks": 85632,
          "time": 66.16657000000001,
          "velocity": 0.968503937007874
        },
        {
          "duration": 0.1388849999999877,
          "durationTicks": 192,
          "midi": 75,
          "name": "D#5",
          "ticks": 85632,
          "time": 66.16657000000001,
          "velocity": 0.968503937007874
        },
        {
          "duration": 0.13888500000001613,
          "durationTicks": 192,
          "midi": 63,
          "name": "D#4",
          "ticks": 85824,
          "time": 66.305455,
          "velocity": 0.968503937007874
        },
        {
          "duration": 0.13888500000001613,
          "durationTicks": 192,
          "midi": 75,
          "name": "D#5",
          "ticks": 85824,
          "time": 66.305455,
          "velocity": 0.968503937007874
        },
        {
          "duration": 0.8333099999999831,
          "durationTicks": 1152,
          "midi": 58,
          "name": "A#3",
          "ticks": 86016,
          "time": 66.44434000000001,
          "velocity": 0.968503937007874
        },
        {
          "duration": 0.8333099999999831,
          "durationTicks": 1152,
          "midi": 70,
          "name": "A#4",
          "ticks": 86016,
          "time": 66.44434000000001,
          "velocity": 0.968503937007874
        },
        {
          "duration": 0.13888500000000192,
          "durationTicks": 192,
          "midi": 70,
          "name": "A#4",
          "ticks": 87744,
          "time": 67.694305,
          "velocity": 0.968503937007874
        },
        {
          "duration": 0.13888500000000192,
          "durationTicks": 192,
          "midi": 82,
          "name": "A#5",
          "ticks": 87744,
          "time": 67.694305,
          "velocity": 0.968503937007874
        },
        {
          "duration": 0.13888500000000192,
          "durationTicks": 192,
          "midi": 70,
          "name": "A#4",
          "ticks": 87936,
          "time": 67.83319,
          "velocity": 0.968503937007874
        },
        {
          "duration": 0.13888500000000192,
          "durationTicks": 192,
          "midi": 82,
          "name": "A#5",
          "ticks": 87936,
          "time": 67.83319,
          "velocity": 0.968503937007874
        },
        {
          "duration": 0.13888500000000192,
          "durationTicks": 192,
          "midi": 70,
          "name": "A#4",
          "ticks": 88128,
          "time": 67.972075,
          "velocity": 0.968503937007874
        },
        {
          "duration": 0.13888500000000192,
          "durationTicks": 192,
          "midi": 82,
          "name": "A#5",
          "ticks": 88128,
          "time": 67.972075,
          "velocity": 0.968503937007874
        },
        {
          "duration": 0.13888500000000192,
          "durationTicks": 192,
          "midi": 67,
          "name": "G4",
          "ticks": 88320,
          "time": 68.11096,
          "velocity": 0.968503937007874
        },
        {
          "duration": 0.13888500000000192,
          "durationTicks": 192,
          "midi": 79,
          "name": "G5",
          "ticks": 88320,
          "time": 68.11096,
          "velocity": 0.968503937007874
        },
        {
          "duration": 0.13888500000000192,
          "durationTicks": 192,
          "midi": 63,
          "name": "D#4",
          "ticks": 88512,
          "time": 68.24984500000001,
          "velocity": 0.968503937007874
        },
        {
          "duration": 0.13888500000000192,
          "durationTicks": 192,
          "midi": 75,
          "name": "D#5",
          "ticks": 88512,
          "time": 68.24984500000001,
          "velocity": 0.968503937007874
        },
        {
          "duration": 0.1388849999999877,
          "durationTicks": 192,
          "midi": 63,
          "name": "D#4",
          "ticks": 88704,
          "time": 68.38873000000001,
          "velocity": 0.968503937007874
        },
        {
          "duration": 0.1388849999999877,
          "durationTicks": 192,
          "midi": 75,
          "name": "D#5",
          "ticks": 88704,
          "time": 68.38873000000001,
          "velocity": 0.968503937007874
        },
        {
          "duration": 0.13888500000000192,
          "durationTicks": 192,
          "midi": 63,
          "name": "D#4",
          "ticks": 88896,
          "time": 68.527615,
          "velocity": 0.968503937007874
        },
        {
          "duration": 0.13888500000000192,
          "durationTicks": 192,
          "midi": 75,
          "name": "D#5",
          "ticks": 88896,
          "time": 68.527615,
          "velocity": 0.968503937007874
        },
        {
          "duration": 0.8333099999999973,
          "durationTicks": 1152,
          "midi": 58,
          "name": "A#3",
          "ticks": 89088,
          "time": 68.6665,
          "velocity": 0.968503937007874
        },
        {
          "duration": 0.8333099999999973,
          "durationTicks": 1152,
          "midi": 70,
          "name": "A#4",
          "ticks": 89088,
          "time": 68.6665,
          "velocity": 0.968503937007874
        },
        {
          "duration": 0.13888500000000192,
          "durationTicks": 192,
          "midi": 58,
          "name": "A#3",
          "ticks": 90816,
          "time": 69.916465,
          "velocity": 0.968503937007874
        },
        {
          "duration": 0.13888500000000192,
          "durationTicks": 192,
          "midi": 70,
          "name": "A#4",
          "ticks": 90816,
          "time": 69.916465,
          "velocity": 0.968503937007874
        },
        {
          "duration": 0.13888500000000192,
          "durationTicks": 192,
          "midi": 58,
          "name": "A#3",
          "ticks": 91008,
          "time": 70.05535,
          "velocity": 0.968503937007874
        },
        {
          "duration": 0.13888500000000192,
          "durationTicks": 192,
          "midi": 70,
          "name": "A#4",
          "ticks": 91008,
          "time": 70.05535,
          "velocity": 0.968503937007874
        },
        {
          "duration": 0.13888500000000192,
          "durationTicks": 192,
          "midi": 58,
          "name": "A#3",
          "ticks": 91200,
          "time": 70.194235,
          "velocity": 0.968503937007874
        },
        {
          "duration": 0.13888500000000192,
          "durationTicks": 192,
          "midi": 70,
          "name": "A#4",
          "ticks": 91200,
          "time": 70.194235,
          "velocity": 0.968503937007874
        },
        {
          "duration": 0.27776999999998964,
          "durationTicks": 384,
          "midi": 63,
          "name": "D#4",
          "ticks": 91392,
          "time": 70.33312000000001,
          "velocity": 0.968503937007874
        },
        {
          "duration": 0.27776999999998964,
          "durationTicks": 384,
          "midi": 75,
          "name": "D#5",
          "ticks": 91392,
          "time": 70.33312000000001,
          "velocity": 0.968503937007874
        },
        {
          "duration": 0.13888500000000192,
          "durationTicks": 192,
          "midi": 70,
          "name": "A#4",
          "ticks": 92352,
          "time": 71.027545,
          "velocity": 0.968503937007874
        },
        {
          "duration": 0.13888500000000192,
          "durationTicks": 192,
          "midi": 77,
          "name": "F5",
          "ticks": 92352,
          "time": 71.027545,
          "velocity": 0.968503937007874
        },
        {
          "duration": 0.13888500000000192,
          "durationTicks": 192,
          "midi": 70,
          "name": "A#4",
          "ticks": 92544,
          "time": 71.16643,
          "velocity": 0.968503937007874
        },
        {
          "duration": 0.13888500000000192,
          "durationTicks": 192,
          "midi": 77,
          "name": "F5",
          "ticks": 92544,
          "time": 71.16643,
          "velocity": 0.968503937007874
        },
        {
          "duration": 0.1388849999999877,
          "durationTicks": 192,
          "midi": 70,
          "name": "A#4",
          "ticks": 92736,
          "time": 71.30531500000001,
          "velocity": 0.968503937007874
        },
        {
          "duration": 0.1388849999999877,
          "durationTicks": 192,
          "midi": 77,
          "name": "F5",
          "ticks": 92736,
          "time": 71.30531500000001,
          "velocity": 0.968503937007874
        },
        {
          "duration": 0.27777000000000385,
          "durationTicks": 384,
          "midi": 63,
          "name": "D#4",
          "ticks": 92928,
          "time": 71.4442,
          "velocity": 0.968503937007874
        },
        {
          "duration": 0.27777000000000385,
          "durationTicks": 384,
          "midi": 75,
          "name": "D#5",
          "ticks": 92928,
          "time": 71.4442,
          "velocity": 0.968503937007874
        },
        {
          "duration": 0.1415049999999951,
          "durationTicks": 192,
          "midi": 79,
          "name": "G5",
          "ticks": 108480,
          "time": 84.044565,
          "velocity": 0.7165354330708661
        },
        {
          "duration": 0.1415049999999951,
          "durationTicks": 192,
          "midi": 79,
          "name": "G5",
          "ticks": 108480,
          "time": 84.044565,
          "velocity": 0.7165354330708661
        },
        {
          "duration": 0.1415049999999951,
          "durationTicks": 192,
          "midi": 79,
          "name": "G5",
          "ticks": 108672,
          "time": 84.18607,
          "velocity": 0.7952755905511811
        },
        {
          "duration": 0.1415049999999951,
          "durationTicks": 192,
          "midi": 79,
          "name": "G5",
          "ticks": 108672,
          "time": 84.18607,
          "velocity": 0.7952755905511811
        },
        {
          "duration": 0.14150500000000932,
          "durationTicks": 192,
          "midi": 79,
          "name": "G5",
          "ticks": 108864,
          "time": 84.327575,
          "velocity": 0.8582677165354331
        },
        {
          "duration": 0.14150500000000932,
          "durationTicks": 192,
          "midi": 79,
          "name": "G5",
          "ticks": 108864,
          "time": 84.327575,
          "velocity": 0.8582677165354331
        },
        {
          "duration": 0.2830100000000044,
          "durationTicks": 384,
          "midi": 79,
          "name": "G5",
          "ticks": 109056,
          "time": 84.46908,
          "velocity": 0.905511811023622
        },
        {
          "duration": 0.2830100000000044,
          "durationTicks": 384,
          "midi": 79,
          "name": "G5",
          "ticks": 109056,
          "time": 84.46908,
          "velocity": 0.905511811023622
        },
        {
          "duration": 0.2830100000000044,
          "durationTicks": 384,
          "midi": 63,
          "name": "D#4",
          "ticks": 109824,
          "time": 85.0351,
          "velocity": 0.905511811023622
        },
        {
          "duration": 0.2830100000000044,
          "durationTicks": 384,
          "midi": 75,
          "name": "D#5",
          "ticks": 109824,
          "time": 85.0351,
          "velocity": 0.905511811023622
        },
        {
          "duration": 0.2830099999999902,
          "durationTicks": 384,
          "midi": 67,
          "name": "G4",
          "ticks": 110592,
          "time": 85.60112000000001,
          "velocity": 0.905511811023622
        },
        {
          "duration": 0.2830099999999902,
          "durationTicks": 384,
          "midi": 79,
          "name": "G5",
          "ticks": 110592,
          "time": 85.60112000000001,
          "velocity": 0.905511811023622
        },
        {
          "duration": 0.1428549999999973,
          "durationTicks": 192,
          "midi": 80,
          "name": "G#5",
          "ticks": 111552,
          "time": 87.226985,
          "velocity": 0.968503937007874
        },
        {
          "duration": 0.1428549999999973,
          "durationTicks": 192,
          "midi": 80,
          "name": "G#5",
          "ticks": 111552,
          "time": 87.226985,
          "velocity": 0.968503937007874
        },
        {
          "duration": 0.1428550000000115,
          "durationTicks": 192,
          "midi": 80,
          "name": "G#5",
          "ticks": 111744,
          "time": 87.36984,
          "velocity": 0.968503937007874
        },
        {
          "duration": 0.1428550000000115,
          "durationTicks": 192,
          "midi": 80,
          "name": "G#5",
          "ticks": 111744,
          "time": 87.36984,
          "velocity": 0.968503937007874
        },
        {
          "duration": 0.1428549999999973,
          "durationTicks": 192,
          "midi": 80,
          "name": "G#5",
          "ticks": 111936,
          "time": 87.51269500000001,
          "velocity": 0.968503937007874
        },
        {
          "duration": 0.1428549999999973,
          "durationTicks": 192,
          "midi": 80,
          "name": "G#5",
          "ticks": 111936,
          "time": 87.51269500000001,
          "velocity": 0.968503937007874
        },
        {
          "duration": 1.9047400000000039,
          "durationTicks": 1536,
          "midi": 77,
          "name": "F5",
          "ticks": 112128,
          "time": 87.65555,
          "velocity": 0.968503937007874
        },
        {
          "duration": 1.9047400000000039,
          "durationTicks": 1536,
          "midi": 77,
          "name": "F5",
          "ticks": 112128,
          "time": 87.65555,
          "velocity": 0.968503937007874
        },
        {
          "duration": 0.1428549999999973,
          "durationTicks": 192,
          "midi": 67,
          "name": "G4",
          "ticks": 119232,
          "time": 93.70308500000002,
          "velocity": 0.7165354330708661
        },
        {
          "duration": 0.1428549999999973,
          "durationTicks": 192,
          "midi": 79,
          "name": "G5",
          "ticks": 119232,
          "time": 93.70308500000002,
          "velocity": 0.7165354330708661
        },
        {
          "duration": 0.1428549999999973,
          "durationTicks": 192,
          "midi": 67,
          "name": "G4",
          "ticks": 119424,
          "time": 93.84594000000001,
          "velocity": 0.7165354330708661
        },
        {
          "duration": 0.1428549999999973,
          "durationTicks": 192,
          "midi": 79,
          "name": "G5",
          "ticks": 119424,
          "time": 93.84594000000001,
          "velocity": 0.7165354330708661
        },
        {
          "duration": 0.1428549999999973,
          "durationTicks": 192,
          "midi": 67,
          "name": "G4",
          "ticks": 119616,
          "time": 93.98879500000001,
          "velocity": 0.7165354330708661
        },
        {
          "duration": 0.1428549999999973,
          "durationTicks": 192,
          "midi": 79,
          "name": "G5",
          "ticks": 119616,
          "time": 93.98879500000001,
          "velocity": 0.7165354330708661
        },
        {
          "duration": 0.2857099999999946,
          "durationTicks": 384,
          "midi": 67,
          "name": "G4",
          "ticks": 119808,
          "time": 94.13165000000001,
          "velocity": 0.7165354330708661
        },
        {
          "duration": 0.2857099999999946,
          "durationTicks": 384,
          "midi": 79,
          "name": "G5",
          "ticks": 119808,
          "time": 94.13165000000001,
          "velocity": 0.7165354330708661
        },
        {
          "duration": 0.857129999999998,
          "durationTicks": 1152,
          "midi": 77,
          "name": "F5",
          "ticks": 120576,
          "time": 94.70307000000001,
          "velocity": 0.7165354330708661
        },
        {
          "duration": 0.857129999999998,
          "durationTicks": 1152,
          "midi": 80,
          "name": "G#5",
          "ticks": 120576,
          "time": 94.70307000000001,
          "velocity": 0.7165354330708661
        },
        {
          "duration": 0.2803700000000049,
          "durationTicks": 384,
          "midi": 77,
          "name": "F5",
          "ticks": 127488,
          "time": 99.79221000000001,
          "velocity": 0.905511811023622
        },
        {
          "duration": 0.2803700000000049,
          "durationTicks": 384,
          "midi": 80,
          "name": "G#5",
          "ticks": 127488,
          "time": 99.79221000000001,
          "velocity": 0.905511811023622
        },
        {
          "duration": 2.2221600000000024,
          "durationTicks": 3072,
          "midi": 75,
          "name": "D#5",
          "ticks": 128256,
          "time": 100.35295,
          "velocity": 0.905511811023622
        },
        {
          "duration": 2.2221600000000024,
          "durationTicks": 3072,
          "midi": 79,
          "name": "G5",
          "ticks": 128256,
          "time": 100.35295,
          "velocity": 0.905511811023622
        },
        {
          "duration": 1.9443899999999985,
          "durationTicks": 2688,
          "midi": 77,
          "name": "F5",
          "ticks": 131328,
          "time": 102.57511000000001,
          "velocity": 0.905511811023622
        },
        {
          "duration": 1.9443899999999985,
          "durationTicks": 2688,
          "midi": 79,
          "name": "G5",
          "ticks": 131328,
          "time": 102.57511000000001,
          "velocity": 0.905511811023622
        },
        {
          "duration": 0.27777000000000385,
          "durationTicks": 384,
          "midi": 75,
          "name": "D#5",
          "ticks": 134016,
          "time": 104.51950000000001,
          "velocity": 0.905511811023622
        },
        {
          "duration": 0.27777000000000385,
          "durationTicks": 384,
          "midi": 79,
          "name": "G5",
          "ticks": 134016,
          "time": 104.51950000000001,
          "velocity": 0.905511811023622
        },
        {
          "duration": 2.222159999999988,
          "durationTicks": 3072,
          "midi": 75,
          "name": "D#5",
          "ticks": 134400,
          "time": 104.79727000000001,
          "velocity": 0.968503937007874
        },
        {
          "duration": 2.222159999999988,
          "durationTicks": 3072,
          "midi": 78,
          "name": "F#5",
          "ticks": 134400,
          "time": 104.79727000000001,
          "velocity": 0.968503937007874
        },
        {
          "duration": 0.27777000000000385,
          "durationTicks": 384,
          "midi": 75,
          "name": "D#5",
          "ticks": 137472,
          "time": 107.01943,
          "velocity": 0.968503937007874
        },
        {
          "duration": 0.27777000000000385,
          "durationTicks": 384,
          "midi": 78,
          "name": "F#5",
          "ticks": 137472,
          "time": 107.01943,
          "velocity": 0.968503937007874
        },
        {
          "duration": 0.27777000000000385,
          "durationTicks": 384,
          "midi": 70,
          "name": "A#4",
          "ticks": 139008,
          "time": 108.13051,
          "velocity": 0.968503937007874
        },
        {
          "duration": 0.27777000000000385,
          "durationTicks": 384,
          "midi": 77,
          "name": "F5",
          "ticks": 139008,
          "time": 108.13051,
          "velocity": 0.968503937007874
        },
        {
          "duration": 0.1442300000000074,
          "durationTicks": 192,
          "midi": 82,
          "name": "A#5",
          "ticks": 139968,
          "time": 108.83028,
          "velocity": 0.968503937007874
        },
        {
          "duration": 0.1442300000000074,
          "durationTicks": 192,
          "midi": 82,
          "name": "A#5",
          "ticks": 139968,
          "time": 108.83028,
          "velocity": 0.968503937007874
        },
        {
          "duration": 0.1442299999999932,
          "durationTicks": 192,
          "midi": 82,
          "name": "A#5",
          "ticks": 140160,
          "time": 108.97451000000001,
          "velocity": 0.968503937007874
        },
        {
          "duration": 0.1442299999999932,
          "durationTicks": 192,
          "midi": 82,
          "name": "A#5",
          "ticks": 140160,
          "time": 108.97451000000001,
          "velocity": 0.968503937007874
        },
        {
          "duration": 0.1442300000000074,
          "durationTicks": 192,
          "midi": 82,
          "name": "A#5",
          "ticks": 140352,
          "time": 109.11874,
          "velocity": 0.968503937007874
        },
        {
          "duration": 0.1442300000000074,
          "durationTicks": 192,
          "midi": 82,
          "name": "A#5",
          "ticks": 140352,
          "time": 109.11874,
          "velocity": 0.968503937007874
        },
        {
          "duration": 0.5769200000000012,
          "durationTicks": 768,
          "midi": 75,
          "name": "D#5",
          "ticks": 140544,
          "time": 109.26297000000001,
          "velocity": 0.968503937007874
        },
        {
          "duration": 0.5769200000000012,
          "durationTicks": 768,
          "midi": 75,
          "name": "D#5",
          "ticks": 140544,
          "time": 109.26297000000001,
          "velocity": 0.968503937007874
        },
        {
          "duration": 0.5769200000000012,
          "durationTicks": 768,
          "midi": 77,
          "name": "F5",
          "ticks": 141312,
          "time": 109.83989000000001,
          "velocity": 0.968503937007874
        },
        {
          "duration": 0.5769200000000012,
          "durationTicks": 768,
          "midi": 77,
          "name": "F5",
          "ticks": 141312,
          "time": 109.83989000000001,
          "velocity": 0.968503937007874
        },
        {
          "duration": 1.1538400000000024,
          "durationTicks": 1536,
          "midi": 70,
          "name": "A#4",
          "ticks": 142080,
          "time": 110.41681000000001,
          "velocity": 0.968503937007874
        },
        {
          "duration": 1.1538400000000024,
          "durationTicks": 1536,
          "midi": 70,
          "name": "A#4",
          "ticks": 142080,
          "time": 110.41681000000001,
          "velocity": 0.968503937007874
        },
        {
          "duration": 2.8736999999999853,
          "durationTicks": 3840,
          "midi": 70,
          "name": "A#4",
          "ticks": 143616,
          "time": 111.57065000000001,
          "velocity": 0.7165354330708661
        },
        {
          "duration": 2.8736999999999853,
          "durationTicks": 3840,
          "midi": 70,
          "name": "A#4",
          "ticks": 143616,
          "time": 111.57065000000001,
          "velocity": 0.7165354330708661
        },
        {
          "duration": 2.8091400000000135,
          "durationTicks": 3840,
          "midi": 70,
          "name": "A#4",
          "ticks": 147456,
          "time": 114.44435,
          "velocity": 0.7165354330708661
        },
        {
          "duration": 2.8091400000000135,
          "durationTicks": 3840,
          "midi": 70,
          "name": "A#4",
          "ticks": 147456,
          "time": 114.44435,
          "velocity": 0.7165354330708661
        },
        {
          "duration": 0.5555399999999935,
          "durationTicks": 768,
          "midi": 70,
          "name": "A#4",
          "ticks": 151296,
          "time": 117.25349000000001,
          "velocity": 0.7165354330708661
        },
        {
          "duration": 0.5555399999999935,
          "durationTicks": 768,
          "midi": 70,
          "name": "A#4",
          "ticks": 151296,
          "time": 117.25349000000001,
          "velocity": 0.7165354330708661
        },
        {
          "duration": 2.777699999999996,
          "durationTicks": 3840,
          "midi": 63,
          "name": "D#4",
          "ticks": 158208,
          "time": 122.25335000000001,
          "velocity": 0.7165354330708661
        },
        {
          "duration": 2.777699999999996,
          "durationTicks": 3840,
          "midi": 75,
          "name": "D#5",
          "ticks": 158208,
          "time": 122.25335000000001,
          "velocity": 0.7165354330708661
        },
        {
          "duration": 2.499930000000006,
          "durationTicks": 3456,
          "midi": 63,
          "name": "D#4",
          "ticks": 162048,
          "time": 125.03105000000001,
          "velocity": 0.7165354330708661
        },
        {
          "duration": 2.499930000000006,
          "durationTicks": 3456,
          "midi": 75,
          "name": "D#5",
          "ticks": 162048,
          "time": 125.03105000000001,
          "velocity": 0.7165354330708661
        },
        {
          "duration": 0.27777000000000385,
          "durationTicks": 384,
          "midi": 63,
          "name": "D#4",
          "ticks": 165504,
          "time": 127.53098000000001,
          "velocity": 0.8582677165354331
        },
        {
          "duration": 0.27777000000000385,
          "durationTicks": 384,
          "midi": 75,
          "name": "D#5",
          "ticks": 165504,
          "time": 127.53098000000001,
          "velocity": 0.8582677165354331
        },
        {
          "duration": 0.27776999999998964,
          "durationTicks": 384,
          "midi": 63,
          "name": "D#4",
          "ticks": 165888,
          "time": 127.80875000000002,
          "velocity": 0.905511811023622
        },
        {
          "duration": 0.27776999999998964,
          "durationTicks": 384,
          "midi": 75,
          "name": "D#5",
          "ticks": 165888,
          "time": 127.80875000000002,
          "velocity": 0.905511811023622
        },
        {
          "duration": 0.27777000000000385,
          "durationTicks": 384,
          "midi": 63,
          "name": "D#4",
          "ticks": 166272,
          "time": 128.08652,
          "velocity": 0.905511811023622
        },
        {
          "duration": 0.27777000000000385,
          "durationTicks": 384,
          "midi": 75,
          "name": "D#5",
          "ticks": 166272,
          "time": 128.08652,
          "velocity": 0.905511811023622
        },
        {
          "duration": 0.8333100000000115,
          "durationTicks": 1152,
          "midi": 70,
          "name": "A#4",
          "ticks": 166656,
          "time": 128.36429,
          "velocity": 0.968503937007874
        },
        {
          "duration": 0.8333100000000115,
          "durationTicks": 1152,
          "midi": 77,
          "name": "F5",
          "ticks": 166656,
          "time": 128.36429,
          "velocity": 0.968503937007874
        },
        {
          "duration": 0.2777699999999754,
          "durationTicks": 384,
          "midi": 58,
          "name": "A#3",
          "ticks": 167808,
          "time": 129.19760000000002,
          "velocity": 0.968503937007874
        },
        {
          "duration": 0.2777699999999754,
          "durationTicks": 384,
          "midi": 70,
          "name": "A#4",
          "ticks": 167808,
          "time": 129.19760000000002,
          "velocity": 0.968503937007874
        },
        {
          "duration": 0.27777000000000385,
          "durationTicks": 384,
          "midi": 58,
          "name": "A#3",
          "ticks": 168192,
          "time": 129.47537,
          "velocity": 0.968503937007874
        },
        {
          "duration": 0.27777000000000385,
          "durationTicks": 384,
          "midi": 70,
          "name": "A#4",
          "ticks": 168192,
          "time": 129.47537,
          "velocity": 0.968503937007874
        },
        {
          "duration": 0.27777000000000385,
          "durationTicks": 384,
          "midi": 58,
          "name": "A#3",
          "ticks": 168960,
          "time": 130.03091,
          "velocity": 0.968503937007874
        },
        {
          "duration": 0.27777000000000385,
          "durationTicks": 384,
          "midi": 70,
          "name": "A#4",
          "ticks": 168960,
          "time": 130.03091,
          "velocity": 0.968503937007874
        },
        {
          "duration": 0.27777000000000385,
          "durationTicks": 384,
          "midi": 58,
          "name": "A#3",
          "ticks": 169728,
          "time": 130.58645,
          "velocity": 0.968503937007874
        },
        {
          "duration": 0.27777000000000385,
          "durationTicks": 384,
          "midi": 70,
          "name": "A#4",
          "ticks": 169728,
          "time": 130.58645,
          "velocity": 0.968503937007874
        },
        {
          "duration": 0.27777000000000385,
          "durationTicks": 384,
          "midi": 63,
          "name": "D#4",
          "ticks": 170496,
          "time": 131.14199000000002,
          "velocity": 0.968503937007874
        },
        {
          "duration": 0.27777000000000385,
          "durationTicks": 384,
          "midi": 75,
          "name": "D#5",
          "ticks": 170496,
          "time": 131.14199000000002,
          "velocity": 0.968503937007874
        },
        {
          "duration": 0.27777000000000385,
          "durationTicks": 384,
          "midi": 75,
          "name": "D#5",
          "ticks": 171264,
          "time": 131.69753,
          "velocity": 0.968503937007874
        },
        {
          "duration": 0.27777000000000385,
          "durationTicks": 384,
          "midi": 79,
          "name": "G5",
          "ticks": 171264,
          "time": 131.69753,
          "velocity": 0.968503937007874
        },
        {
          "duration": 0.27777000000000385,
          "durationTicks": 384,
          "midi": 70,
          "name": "A#4",
          "ticks": 172032,
          "time": 132.25307,
          "velocity": 0.968503937007874
        },
        {
          "duration": 0.27777000000000385,
          "durationTicks": 384,
          "midi": 77,
          "name": "F5",
          "ticks": 172032,
          "time": 132.25307,
          "velocity": 0.968503937007874
        },
        {
          "duration": 1.6666199999999947,
          "durationTicks": 2304,
          "midi": 58,
          "name": "A#3",
          "ticks": 172416,
          "time": 132.53084,
          "velocity": 0.968503937007874
        },
        {
          "duration": 1.6666199999999947,
          "durationTicks": 2304,
          "midi": 70,
          "name": "A#4",
          "ticks": 172416,
          "time": 132.53084,
          "velocity": 0.968503937007874
        },
        {
          "duration": 0.27777000000000385,
          "durationTicks": 384,
          "midi": 58,
          "name": "A#3",
          "ticks": 174720,
          "time": 134.19746,
          "velocity": 0.968503937007874
        },
        {
          "duration": 0.27777000000000385,
          "durationTicks": 384,
          "midi": 70,
          "name": "A#4",
          "ticks": 174720,
          "time": 134.19746,
          "velocity": 0.968503937007874
        },
        {
          "duration": 0.27777000000000385,
          "durationTicks": 384,
          "midi": 58,
          "name": "A#3",
          "ticks": 175488,
          "time": 134.75300000000001,
          "velocity": 0.968503937007874
        },
        {
          "duration": 0.27777000000000385,
          "durationTicks": 384,
          "midi": 70,
          "name": "A#4",
          "ticks": 175488,
          "time": 134.75300000000001,
          "velocity": 0.968503937007874
        },
        {
          "duration": 0.27777000000000385,
          "durationTicks": 384,
          "midi": 63,
          "name": "D#4",
          "ticks": 176256,
          "time": 135.30854000000002,
          "velocity": 0.968503937007874
        },
        {
          "duration": 0.27777000000000385,
          "durationTicks": 384,
          "midi": 75,
          "name": "D#5",
          "ticks": 176256,
          "time": 135.30854000000002,
          "velocity": 0.968503937007874
        },
        {
          "duration": 0.27777000000000385,
          "durationTicks": 384,
          "midi": 63,
          "name": "D#4",
          "ticks": 177024,
          "time": 135.86408,
          "velocity": 0.968503937007874
        },
        {
          "duration": 0.27777000000000385,
          "durationTicks": 384,
          "midi": 75,
          "name": "D#5",
          "ticks": 177024,
          "time": 135.86408,
          "velocity": 0.968503937007874
        },
        {
          "duration": 0.27777000000000385,
          "durationTicks": 384,
          "midi": 63,
          "name": "D#4",
          "ticks": 177792,
          "time": 136.41962,
          "velocity": 0.968503937007874
        },
        {
          "duration": 0.27777000000000385,
          "durationTicks": 384,
          "midi": 75,
          "name": "D#5",
          "ticks": 177792,
          "time": 136.41962,
          "velocity": 0.968503937007874
        },
        {
          "duration": 0.27777000000000385,
          "durationTicks": 384,
          "midi": 58,
          "name": "A#3",
          "ticks": 178560,
          "time": 136.97516000000002,
          "velocity": 0.968503937007874
        },
        {
          "duration": 0.27777000000000385,
          "durationTicks": 384,
          "midi": 70,
          "name": "A#4",
          "ticks": 178560,
          "time": 136.97516000000002,
          "velocity": 0.968503937007874
        },
        {
          "duration": 0.27777000000000385,
          "durationTicks": 384,
          "midi": 63,
          "name": "D#4",
          "ticks": 178944,
          "time": 137.25293000000002,
          "velocity": 0.968503937007874
        },
        {
          "duration": 0.27777000000000385,
          "durationTicks": 384,
          "midi": 75,
          "name": "D#5",
          "ticks": 178944,
          "time": 137.25293000000002,
          "velocity": 0.968503937007874
        },
        {
          "duration": 0.1388849999999877,
          "durationTicks": 192,
          "midi": 70,
          "name": "A#4",
          "ticks": 179904,
          "time": 137.94735500000002,
          "velocity": 0.968503937007874
        },
        {
          "duration": 0.1388849999999877,
          "durationTicks": 192,
          "midi": 82,
          "name": "A#5",
          "ticks": 179904,
          "time": 137.94735500000002,
          "velocity": 0.968503937007874
        },
        {
          "duration": 0.13888500000001613,
          "durationTicks": 192,
          "midi": 70,
          "name": "A#4",
          "ticks": 180096,
          "time": 138.08624,
          "velocity": 0.968503937007874
        },
        {
          "duration": 0.13888500000001613,
          "durationTicks": 192,
          "midi": 82,
          "name": "A#5",
          "ticks": 180096,
          "time": 138.08624,
          "velocity": 0.968503937007874
        },
        {
          "duration": 0.1388849999999877,
          "durationTicks": 192,
          "midi": 70,
          "name": "A#4",
          "ticks": 180288,
          "time": 138.22512500000002,
          "velocity": 0.968503937007874
        },
        {
          "duration": 0.1388849999999877,
          "durationTicks": 192,
          "midi": 82,
          "name": "A#5",
          "ticks": 180288,
          "time": 138.22512500000002,
          "velocity": 0.968503937007874
        },
        {
          "duration": 0.13888500000001613,
          "durationTicks": 192,
          "midi": 67,
          "name": "G4",
          "ticks": 180480,
          "time": 138.36401,
          "velocity": 0.968503937007874
        },
        {
          "duration": 0.13888500000001613,
          "durationTicks": 192,
          "midi": 79,
          "name": "G5",
          "ticks": 180480,
          "time": 138.36401,
          "velocity": 0.968503937007874
        },
        {
          "duration": 0.1388849999999877,
          "durationTicks": 192,
          "midi": 63,
          "name": "D#4",
          "ticks": 180672,
          "time": 138.50289500000002,
          "velocity": 0.968503937007874
        },
        {
          "duration": 0.1388849999999877,
          "durationTicks": 192,
          "midi": 75,
          "name": "D#5",
          "ticks": 180672,
          "time": 138.50289500000002,
          "velocity": 0.968503937007874
        },
        {
          "duration": 0.1388849999999877,
          "durationTicks": 192,
          "midi": 63,
          "name": "D#4",
          "ticks": 180864,
          "time": 138.64178,
          "velocity": 0.968503937007874
        },
        {
          "duration": 0.1388849999999877,
          "durationTicks": 192,
          "midi": 75,
          "name": "D#5",
          "ticks": 180864,
          "time": 138.64178,
          "velocity": 0.968503937007874
        },
        {
          "duration": 0.13888500000001613,
          "durationTicks": 192,
          "midi": 63,
          "name": "D#4",
          "ticks": 181056,
          "time": 138.780665,
          "velocity": 0.968503937007874
        },
        {
          "duration": 0.13888500000001613,
          "durationTicks": 192,
          "midi": 75,
          "name": "D#5",
          "ticks": 181056,
          "time": 138.780665,
          "velocity": 0.968503937007874
        },
        {
          "duration": 0.8333099999999831,
          "durationTicks": 1152,
          "midi": 58,
          "name": "A#3",
          "ticks": 181248,
          "time": 138.91955000000002,
          "velocity": 0.968503937007874
        },
        {
          "duration": 0.8333099999999831,
          "durationTicks": 1152,
          "midi": 70,
          "name": "A#4",
          "ticks": 181248,
          "time": 138.91955000000002,
          "velocity": 0.968503937007874
        },
        {
          "duration": 0.1388849999999877,
          "durationTicks": 192,
          "midi": 70,
          "name": "A#4",
          "ticks": 182976,
          "time": 140.16951500000002,
          "velocity": 0.968503937007874
        },
        {
          "duration": 0.1388849999999877,
          "durationTicks": 192,
          "midi": 82,
          "name": "A#5",
          "ticks": 182976,
          "time": 140.16951500000002,
          "velocity": 0.968503937007874
        },
        {
          "duration": 0.13888500000001613,
          "durationTicks": 192,
          "midi": 70,
          "name": "A#4",
          "ticks": 183168,
          "time": 140.3084,
          "velocity": 0.968503937007874
        },
        {
          "duration": 0.13888500000001613,
          "durationTicks": 192,
          "midi": 82,
          "name": "A#5",
          "ticks": 183168,
          "time": 140.3084,
          "velocity": 0.968503937007874
        },
        {
          "duration": 0.1388849999999877,
          "durationTicks": 192,
          "midi": 70,
          "name": "A#4",
          "ticks": 183360,
          "time": 140.44728500000002,
          "velocity": 0.968503937007874
        },
        {
          "duration": 0.1388849999999877,
          "durationTicks": 192,
          "midi": 82,
          "name": "A#5",
          "ticks": 183360,
          "time": 140.44728500000002,
          "velocity": 0.968503937007874
        },
        {
          "duration": 0.13888500000001613,
          "durationTicks": 192,
          "midi": 67,
          "name": "G4",
          "ticks": 183552,
          "time": 140.58617,
          "velocity": 0.968503937007874
        },
        {
          "duration": 0.13888500000001613,
          "durationTicks": 192,
          "midi": 79,
          "name": "G5",
          "ticks": 183552,
          "time": 140.58617,
          "velocity": 0.968503937007874
        },
        {
          "duration": 0.1388849999999877,
          "durationTicks": 192,
          "midi": 63,
          "name": "D#4",
          "ticks": 183744,
          "time": 140.72505500000003,
          "velocity": 0.968503937007874
        },
        {
          "duration": 0.1388849999999877,
          "durationTicks": 192,
          "midi": 75,
          "name": "D#5",
          "ticks": 183744,
          "time": 140.72505500000003,
          "velocity": 0.968503937007874
        },
        {
          "duration": 0.13888500000001613,
          "durationTicks": 192,
          "midi": 63,
          "name": "D#4",
          "ticks": 183936,
          "time": 140.86394,
          "velocity": 0.968503937007874
        },
        {
          "duration": 0.13888500000001613,
          "durationTicks": 192,
          "midi": 75,
          "name": "D#5",
          "ticks": 183936,
          "time": 140.86394,
          "velocity": 0.968503937007874
        },
        {
          "duration": 0.1388849999999877,
          "durationTicks": 192,
          "midi": 63,
          "name": "D#4",
          "ticks": 184128,
          "time": 141.00282500000003,
          "velocity": 0.968503937007874
        },
        {
          "duration": 0.1388849999999877,
          "durationTicks": 192,
          "midi": 75,
          "name": "D#5",
          "ticks": 184128,
          "time": 141.00282500000003,
          "velocity": 0.968503937007874
        },
        {
          "duration": 0.8333100000000115,
          "durationTicks": 1152,
          "midi": 58,
          "name": "A#3",
          "ticks": 184320,
          "time": 141.14171000000002,
          "velocity": 0.968503937007874
        },
        {
          "duration": 0.8333100000000115,
          "durationTicks": 1152,
          "midi": 70,
          "name": "A#4",
          "ticks": 184320,
          "time": 141.14171000000002,
          "velocity": 0.968503937007874
        },
        {
          "duration": 0.1388849999999877,
          "durationTicks": 192,
          "midi": 58,
          "name": "A#3",
          "ticks": 186048,
          "time": 142.39167500000002,
          "velocity": 0.968503937007874
        },
        {
          "duration": 0.1388849999999877,
          "durationTicks": 192,
          "midi": 70,
          "name": "A#4",
          "ticks": 186048,
          "time": 142.39167500000002,
          "velocity": 0.968503937007874
        },
        {
          "duration": 0.13888500000001613,
          "durationTicks": 192,
          "midi": 58,
          "name": "A#3",
          "ticks": 186240,
          "time": 142.53056,
          "velocity": 0.968503937007874
        },
        {
          "duration": 0.13888500000001613,
          "durationTicks": 192,
          "midi": 70,
          "name": "A#4",
          "ticks": 186240,
          "time": 142.53056,
          "velocity": 0.968503937007874
        },
        {
          "duration": 0.1388849999999877,
          "durationTicks": 192,
          "midi": 58,
          "name": "A#3",
          "ticks": 186432,
          "time": 142.66944500000002,
          "velocity": 0.968503937007874
        },
        {
          "duration": 0.1388849999999877,
          "durationTicks": 192,
          "midi": 70,
          "name": "A#4",
          "ticks": 186432,
          "time": 142.66944500000002,
          "velocity": 0.968503937007874
        },
        {
          "duration": 0.27777000000000385,
          "durationTicks": 384,
          "midi": 63,
          "name": "D#4",
          "ticks": 186624,
          "time": 142.80833,
          "velocity": 0.968503937007874
        },
        {
          "duration": 0.27777000000000385,
          "durationTicks": 384,
          "midi": 75,
          "name": "D#5",
          "ticks": 186624,
          "time": 142.80833,
          "velocity": 0.968503937007874
        },
        {
          "duration": 0.13888500000001613,
          "durationTicks": 192,
          "midi": 70,
          "name": "A#4",
          "ticks": 187584,
          "time": 143.502755,
          "velocity": 0.968503937007874
        },
        {
          "duration": 0.13888500000001613,
          "durationTicks": 192,
          "midi": 77,
          "name": "F5",
          "ticks": 187584,
          "time": 143.502755,
          "velocity": 0.968503937007874
        },
        {
          "duration": 0.1388849999999877,
          "durationTicks": 192,
          "midi": 70,
          "name": "A#4",
          "ticks": 187776,
          "time": 143.64164000000002,
          "velocity": 0.968503937007874
        },
        {
          "duration": 0.1388849999999877,
          "durationTicks": 192,
          "midi": 77,
          "name": "F5",
          "ticks": 187776,
          "time": 143.64164000000002,
          "velocity": 0.968503937007874
        },
        {
          "duration": 0.13888500000001613,
          "durationTicks": 192,
          "midi": 70,
          "name": "A#4",
          "ticks": 187968,
          "time": 143.780525,
          "velocity": 0.968503937007874
        },
        {
          "duration": 0.13888500000001613,
          "durationTicks": 192,
          "midi": 77,
          "name": "F5",
          "ticks": 187968,
          "time": 143.780525,
          "velocity": 0.968503937007874
        },
        {
          "duration": 0.2777699999999754,
          "durationTicks": 384,
          "midi": 63,
          "name": "D#4",
          "ticks": 188160,
          "time": 143.91941000000003,
          "velocity": 0.968503937007874
        },
        {
          "duration": 0.2777699999999754,
          "durationTicks": 384,
          "midi": 75,
          "name": "D#5",
          "ticks": 188160,
          "time": 143.91941000000003,
          "velocity": 0.968503937007874
        },
        {
          "duration": 0.13888500000001613,
          "durationTicks": 192,
          "midi": 82,
          "name": "A#5",
          "ticks": 190656,
          "time": 145.724915,
          "velocity": 0.968503937007874
        },
        {
          "duration": 0.13888500000001613,
          "durationTicks": 192,
          "midi": 82,
          "name": "A#5",
          "ticks": 190656,
          "time": 145.724915,
          "velocity": 0.968503937007874
        },
        {
          "duration": 0.1388849999999877,
          "durationTicks": 192,
          "midi": 82,
          "name": "A#5",
          "ticks": 190848,
          "time": 145.86380000000003,
          "velocity": 0.968503937007874
        },
        {
          "duration": 0.1388849999999877,
          "durationTicks": 192,
          "midi": 82,
          "name": "A#5",
          "ticks": 190848,
          "time": 145.86380000000003,
          "velocity": 0.968503937007874
        },
        {
          "duration": 0.1388849999999877,
          "durationTicks": 192,
          "midi": 82,
          "name": "A#5",
          "ticks": 191040,
          "time": 146.002685,
          "velocity": 0.968503937007874
        },
        {
          "duration": 0.1388849999999877,
          "durationTicks": 192,
          "midi": 82,
          "name": "A#5",
          "ticks": 191040,
          "time": 146.002685,
          "velocity": 0.968503937007874
        },
        {
          "duration": 2.126959999999997,
          "durationTicks": 2304,
          "midi": 79,
          "name": "G5",
          "ticks": 191232,
          "time": 146.14157,
          "velocity": 0.968503937007874
        },
        {
          "duration": 2.126959999999997,
          "durationTicks": 2304,
          "midi": 79,
          "name": "G5",
          "ticks": 191232,
          "time": 146.14157,
          "velocity": 0.968503937007874
        },
        {
          "duration": 0.30000000000001137,
          "durationTicks": 384,
          "midi": 75,
          "name": "D#5",
          "ticks": 204672,
          "time": 156.81287000000003,
          "velocity": 0.6141732283464567
        },
        {
          "duration": 0.30000000000001137,
          "durationTicks": 384,
          "midi": 75,
          "name": "D#5",
          "ticks": 204672,
          "time": 156.81287000000003,
          "velocity": 0.6141732283464567
        },
        {
          "duration": 0.29999999999998295,
          "durationTicks": 384,
          "midi": 77,
          "name": "F5",
          "ticks": 205056,
          "time": 157.11287000000004,
          "velocity": 0.6141732283464567
        },
        {
          "duration": 0.29999999999998295,
          "durationTicks": 384,
          "midi": 77,
          "name": "F5",
          "ticks": 205056,
          "time": 157.11287000000004,
          "velocity": 0.6141732283464567
        },
        {
          "duration": 0.30000000000001137,
          "durationTicks": 384,
          "midi": 78,
          "name": "F#5",
          "ticks": 205440,
          "time": 157.41287000000003,
          "velocity": 0.6141732283464567
        },
        {
          "duration": 0.30000000000001137,
          "durationTicks": 384,
          "midi": 78,
          "name": "F#5",
          "ticks": 205440,
          "time": 157.41287000000003,
          "velocity": 0.6141732283464567
        },
        {
          "duration": 1.799999999999983,
          "durationTicks": 2304,
          "midi": 67,
          "name": "G4",
          "ticks": 205824,
          "time": 157.71287000000004,
          "velocity": 0.7165354330708661
        },
        {
          "duration": 1.799999999999983,
          "durationTicks": 2304,
          "midi": 79,
          "name": "G5",
          "ticks": 205824,
          "time": 157.71287000000004,
          "velocity": 0.7165354330708661
        },
        {
          "duration": 1.5,
          "durationTicks": 1920,
          "midi": 67,
          "name": "G4",
          "ticks": 208128,
          "time": 159.51287000000002,
          "velocity": 0.7165354330708661
        },
        {
          "duration": 1.5,
          "durationTicks": 1920,
          "midi": 79,
          "name": "G5",
          "ticks": 208128,
          "time": 159.51287000000002,
          "velocity": 0.7165354330708661
        },
        {
          "duration": 0.15000000000000568,
          "durationTicks": 192,
          "midi": 67,
          "name": "G4",
          "ticks": 216000,
          "time": 165.66287000000003,
          "velocity": 0.7165354330708661
        },
        {
          "duration": 0.15000000000000568,
          "durationTicks": 192,
          "midi": 79,
          "name": "G5",
          "ticks": 216000,
          "time": 165.66287000000003,
          "velocity": 0.7165354330708661
        },
        {
          "duration": 0.15000000000000568,
          "durationTicks": 192,
          "midi": 67,
          "name": "G4",
          "ticks": 216192,
          "time": 165.81287000000003,
          "velocity": 0.7165354330708661
        },
        {
          "duration": 0.15000000000000568,
          "durationTicks": 192,
          "midi": 79,
          "name": "G5",
          "ticks": 216192,
          "time": 165.81287000000003,
          "velocity": 0.7165354330708661
        },
        {
          "duration": 0.15000000000000568,
          "durationTicks": 192,
          "midi": 67,
          "name": "G4",
          "ticks": 216384,
          "time": 165.96287000000004,
          "velocity": 0.7165354330708661
        },
        {
          "duration": 0.15000000000000568,
          "durationTicks": 192,
          "midi": 79,
          "name": "G5",
          "ticks": 216384,
          "time": 165.96287000000004,
          "velocity": 0.7165354330708661
        },
        {
          "duration": 0.29999999999998295,
          "durationTicks": 384,
          "midi": 67,
          "name": "G4",
          "ticks": 216576,
          "time": 166.11287000000004,
          "velocity": 0.7165354330708661
        },
        {
          "duration": 0.29999999999998295,
          "durationTicks": 384,
          "midi": 79,
          "name": "G5",
          "ticks": 216576,
          "time": 166.11287000000004,
          "velocity": 0.7165354330708661
        },
        {
          "duration": 0.14999999999997726,
          "durationTicks": 192,
          "midi": 63,
          "name": "D#4",
          "ticks": 217536,
          "time": 166.86287000000004,
          "velocity": 0.7165354330708661
        },
        {
          "duration": 0.14999999999997726,
          "durationTicks": 192,
          "midi": 75,
          "name": "D#5",
          "ticks": 217536,
          "time": 166.86287000000004,
          "velocity": 0.7165354330708661
        },
        {
          "duration": 0.15000000000000568,
          "durationTicks": 192,
          "midi": 63,
          "name": "D#4",
          "ticks": 217728,
          "time": 167.01287000000002,
          "velocity": 0.7165354330708661
        },
        {
          "duration": 0.15000000000000568,
          "durationTicks": 192,
          "midi": 75,
          "name": "D#5",
          "ticks": 217728,
          "time": 167.01287000000002,
          "velocity": 0.7165354330708661
        },
        {
          "duration": 0.15000000000000568,
          "durationTicks": 192,
          "midi": 63,
          "name": "D#4",
          "ticks": 217920,
          "time": 167.16287000000003,
          "velocity": 0.7165354330708661
        },
        {
          "duration": 0.15000000000000568,
          "durationTicks": 192,
          "midi": 75,
          "name": "D#5",
          "ticks": 217920,
          "time": 167.16287000000003,
          "velocity": 0.7165354330708661
        },
        {
          "duration": 0.30000000000001137,
          "durationTicks": 384,
          "midi": 63,
          "name": "D#4",
          "ticks": 218112,
          "time": 167.31287000000003,
          "velocity": 0.7165354330708661
        },
        {
          "duration": 0.30000000000001137,
          "durationTicks": 384,
          "midi": 75,
          "name": "D#5",
          "ticks": 218112,
          "time": 167.31287000000003,
          "velocity": 0.7165354330708661
        },
        {
          "duration": 0.15000000000000568,
          "durationTicks": 192,
          "midi": 63,
          "name": "D#4",
          "ticks": 219072,
          "time": 168.06287000000003,
          "velocity": 0.7165354330708661
        },
        {
          "duration": 0.15000000000000568,
          "durationTicks": 192,
          "midi": 75,
          "name": "D#5",
          "ticks": 219072,
          "time": 168.06287000000003,
          "velocity": 0.7165354330708661
        },
        {
          "duration": 0.15000000000000568,
          "durationTicks": 192,
          "midi": 63,
          "name": "D#4",
          "ticks": 219264,
          "time": 168.21287000000004,
          "velocity": 0.7165354330708661
        },
        {
          "duration": 0.15000000000000568,
          "durationTicks": 192,
          "midi": 75,
          "name": "D#5",
          "ticks": 219264,
          "time": 168.21287000000004,
          "velocity": 0.7165354330708661
        },
        {
          "duration": 0.14999999999997726,
          "durationTicks": 192,
          "midi": 63,
          "name": "D#4",
          "ticks": 219456,
          "time": 168.36287000000004,
          "velocity": 0.7165354330708661
        },
        {
          "duration": 0.14999999999997726,
          "durationTicks": 192,
          "midi": 75,
          "name": "D#5",
          "ticks": 219456,
          "time": 168.36287000000004,
          "velocity": 0.7165354330708661
        },
        {
          "duration": 0.30000000000001137,
          "durationTicks": 384,
          "midi": 63,
          "name": "D#4",
          "ticks": 219648,
          "time": 168.51287000000002,
          "velocity": 0.7165354330708661
        },
        {
          "duration": 0.30000000000001137,
          "durationTicks": 384,
          "midi": 75,
          "name": "D#5",
          "ticks": 219648,
          "time": 168.51287000000002,
          "velocity": 0.7165354330708661
        },
        {
          "duration": 0.15000000000000568,
          "durationTicks": 192,
          "midi": 67,
          "name": "G4",
          "ticks": 220608,
          "time": 169.26287000000002,
          "velocity": 0.7165354330708661
        },
        {
          "duration": 0.15000000000000568,
          "durationTicks": 192,
          "midi": 79,
          "name": "G5",
          "ticks": 220608,
          "time": 169.26287000000002,
          "velocity": 0.7165354330708661
        },
        {
          "duration": 0.15000000000000568,
          "durationTicks": 192,
          "midi": 67,
          "name": "G4",
          "ticks": 220800,
          "time": 169.41287000000003,
          "velocity": 0.7165354330708661
        },
        {
          "duration": 0.15000000000000568,
          "durationTicks": 192,
          "midi": 79,
          "name": "G5",
          "ticks": 220800,
          "time": 169.41287000000003,
          "velocity": 0.7165354330708661
        },
        {
          "duration": 0.15000000000000568,
          "durationTicks": 192,
          "midi": 67,
          "name": "G4",
          "ticks": 220992,
          "time": 169.56287000000003,
          "velocity": 0.7165354330708661
        },
        {
          "duration": 0.15000000000000568,
          "durationTicks": 192,
          "midi": 79,
          "name": "G5",
          "ticks": 220992,
          "time": 169.56287000000003,
          "velocity": 0.7165354330708661
        },
        {
          "duration": 0.29999999999998295,
          "durationTicks": 384,
          "midi": 67,
          "name": "G4",
          "ticks": 221184,
          "time": 169.71287000000004,
          "velocity": 0.7165354330708661
        },
        {
          "duration": 0.29999999999998295,
          "durationTicks": 384,
          "midi": 79,
          "name": "G5",
          "ticks": 221184,
          "time": 169.71287000000004,
          "velocity": 0.7165354330708661
        },
        {
          "duration": 0.15000000000000568,
          "durationTicks": 192,
          "midi": 67,
          "name": "G4",
          "ticks": 222144,
          "time": 170.46287000000004,
          "velocity": 0.7165354330708661
        },
        {
          "duration": 0.15000000000000568,
          "durationTicks": 192,
          "midi": 79,
          "name": "G5",
          "ticks": 222144,
          "time": 170.46287000000004,
          "velocity": 0.7165354330708661
        },
        {
          "duration": 0.14999999999997726,
          "durationTicks": 192,
          "midi": 67,
          "name": "G4",
          "ticks": 222336,
          "time": 170.61287000000004,
          "velocity": 0.7165354330708661
        },
        {
          "duration": 0.14999999999997726,
          "durationTicks": 192,
          "midi": 79,
          "name": "G5",
          "ticks": 222336,
          "time": 170.61287000000004,
          "velocity": 0.7165354330708661
        },
        {
          "duration": 0.15000000000000568,
          "durationTicks": 192,
          "midi": 67,
          "name": "G4",
          "ticks": 222528,
          "time": 170.76287000000002,
          "velocity": 0.7165354330708661
        },
        {
          "duration": 0.15000000000000568,
          "durationTicks": 192,
          "midi": 79,
          "name": "G5",
          "ticks": 222528,
          "time": 170.76287000000002,
          "velocity": 0.7165354330708661
        },
        {
          "duration": 0.30000000000001137,
          "durationTicks": 384,
          "midi": 67,
          "name": "G4",
          "ticks": 222720,
          "time": 170.91287000000003,
          "velocity": 0.7165354330708661
        },
        {
          "duration": 0.30000000000001137,
          "durationTicks": 384,
          "midi": 79,
          "name": "G5",
          "ticks": 222720,
          "time": 170.91287000000003,
          "velocity": 0.7165354330708661
        },
        {
          "duration": 0.29999999999998295,
          "durationTicks": 384,
          "midi": 67,
          "name": "G4",
          "ticks": 223104,
          "time": 171.21287000000004,
          "velocity": 0.7165354330708661
        },
        {
          "duration": 0.29999999999998295,
          "durationTicks": 384,
          "midi": 79,
          "name": "G5",
          "ticks": 223104,
          "time": 171.21287000000004,
          "velocity": 0.7165354330708661
        },
        {
          "duration": 1.200000000000017,
          "durationTicks": 1536,
          "midi": 63,
          "name": "D#4",
          "ticks": 223488,
          "time": 171.51287000000002,
          "velocity": 0.905511811023622
        },
        {
          "duration": 1.200000000000017,
          "durationTicks": 1536,
          "midi": 75,
          "name": "D#5",
          "ticks": 223488,
          "time": 171.51287000000002,
          "velocity": 0.905511811023622
        },
        {
          "duration": 0.29999999999998295,
          "durationTicks": 384,
          "midi": 63,
          "name": "D#4",
          "ticks": 225024,
          "time": 172.71287000000004,
          "velocity": 0.905511811023622
        },
        {
          "duration": 0.29999999999998295,
          "durationTicks": 384,
          "midi": 75,
          "name": "D#5",
          "ticks": 225024,
          "time": 172.71287000000004,
          "velocity": 0.905511811023622
        },
        {
          "duration": 0.15000000000000568,
          "durationTicks": 192,
          "midi": 67,
          "name": "G4",
          "ticks": 225984,
          "time": 173.46287000000004,
          "velocity": 0.905511811023622
        },
        {
          "duration": 0.15000000000000568,
          "durationTicks": 192,
          "midi": 79,
          "name": "G5",
          "ticks": 225984,
          "time": 173.46287000000004,
          "velocity": 0.905511811023622
        },
        {
          "duration": 0.14999999999997726,
          "durationTicks": 192,
          "midi": 67,
          "name": "G4",
          "ticks": 226176,
          "time": 173.61287000000004,
          "velocity": 0.905511811023622
        },
        {
          "duration": 0.14999999999997726,
          "durationTicks": 192,
          "midi": 79,
          "name": "G5",
          "ticks": 226176,
          "time": 173.61287000000004,
          "velocity": 0.905511811023622
        },
        {
          "duration": 0.15000000000000568,
          "durationTicks": 192,
          "midi": 67,
          "name": "G4",
          "ticks": 226368,
          "time": 173.76287000000002,
          "velocity": 0.905511811023622
        },
        {
          "duration": 0.15000000000000568,
          "durationTicks": 192,
          "midi": 79,
          "name": "G5",
          "ticks": 226368,
          "time": 173.76287000000002,
          "velocity": 0.905511811023622
        },
        {
          "duration": 1.200000000000017,
          "durationTicks": 1536,
          "midi": 67,
          "name": "G4",
          "ticks": 226560,
          "time": 173.91287000000003,
          "velocity": 0.905511811023622
        },
        {
          "duration": 1.200000000000017,
          "durationTicks": 1536,
          "midi": 79,
          "name": "G5",
          "ticks": 226560,
          "time": 173.91287000000003,
          "velocity": 0.905511811023622
        },
        {
          "duration": 0.29999999999998295,
          "durationTicks": 384,
          "midi": 67,
          "name": "G4",
          "ticks": 228096,
          "time": 175.11287000000004,
          "velocity": 0.905511811023622
        },
        {
          "duration": 0.29999999999998295,
          "durationTicks": 384,
          "midi": 79,
          "name": "G5",
          "ticks": 228096,
          "time": 175.11287000000004,
          "velocity": 0.905511811023622
        },
        {
          "duration": 0.14999999999997726,
          "durationTicks": 192,
          "midi": 67,
          "name": "G4",
          "ticks": 229056,
          "time": 175.86287000000004,
          "velocity": 0.905511811023622
        },
        {
          "duration": 0.14999999999997726,
          "durationTicks": 192,
          "midi": 79,
          "name": "G5",
          "ticks": 229056,
          "time": 175.86287000000004,
          "velocity": 0.905511811023622
        },
        {
          "duration": 0.15000000000000568,
          "durationTicks": 192,
          "midi": 67,
          "name": "G4",
          "ticks": 229248,
          "time": 176.01287000000002,
          "velocity": 0.905511811023622
        },
        {
          "duration": 0.15000000000000568,
          "durationTicks": 192,
          "midi": 79,
          "name": "G5",
          "ticks": 229248,
          "time": 176.01287000000002,
          "velocity": 0.905511811023622
        },
        {
          "duration": 0.15000000000000568,
          "durationTicks": 192,
          "midi": 67,
          "name": "G4",
          "ticks": 229440,
          "time": 176.16287000000003,
          "velocity": 0.905511811023622
        },
        {
          "duration": 0.15000000000000568,
          "durationTicks": 192,
          "midi": 79,
          "name": "G5",
          "ticks": 229440,
          "time": 176.16287000000003,
          "velocity": 0.905511811023622
        },
        {
          "duration": 0.30000000000001137,
          "durationTicks": 384,
          "midi": 67,
          "name": "G4",
          "ticks": 229632,
          "time": 176.31287000000003,
          "velocity": 0.905511811023622
        },
        {
          "duration": 0.30000000000001137,
          "durationTicks": 384,
          "midi": 79,
          "name": "G5",
          "ticks": 229632,
          "time": 176.31287000000003,
          "velocity": 0.905511811023622
        },
        {
          "duration": 0.14999999999997726,
          "durationTicks": 192,
          "midi": 77,
          "name": "F5",
          "ticks": 241536,
          "time": 185.61287000000004,
          "velocity": 0.905511811023622
        },
        {
          "duration": 0.14999999999997726,
          "durationTicks": 192,
          "midi": 77,
          "name": "F5",
          "ticks": 241536,
          "time": 185.61287000000004,
          "velocity": 0.905511811023622
        },
        {
          "duration": 0.15000000000000568,
          "durationTicks": 192,
          "midi": 77,
          "name": "F5",
          "ticks": 241728,
          "time": 185.76287000000002,
          "velocity": 0.905511811023622
        },
        {
          "duration": 0.15000000000000568,
          "durationTicks": 192,
          "midi": 77,
          "name": "F5",
          "ticks": 241728,
          "time": 185.76287000000002,
          "velocity": 0.905511811023622
        },
        {
          "duration": 0.30000000000001137,
          "durationTicks": 384,
          "midi": 77,
          "name": "F5",
          "ticks": 241920,
          "time": 185.91287000000003,
          "velocity": 0.905511811023622
        },
        {
          "duration": 0.30000000000001137,
          "durationTicks": 384,
          "midi": 77,
          "name": "F5",
          "ticks": 241920,
          "time": 185.91287000000003,
          "velocity": 0.905511811023622
        },
        {
          "duration": 0.15000000000000568,
          "durationTicks": 192,
          "midi": 79,
          "name": "G5",
          "ticks": 243840,
          "time": 187.41287000000003,
          "velocity": 0.905511811023622
        },
        {
          "duration": 0.15000000000000568,
          "durationTicks": 192,
          "midi": 79,
          "name": "G5",
          "ticks": 243840,
          "time": 187.41287000000003,
          "velocity": 0.905511811023622
        },
        {
          "duration": 0.15000000000000568,
          "durationTicks": 192,
          "midi": 79,
          "name": "G5",
          "ticks": 244032,
          "time": 187.56287000000003,
          "velocity": 0.905511811023622
        },
        {
          "duration": 0.15000000000000568,
          "durationTicks": 192,
          "midi": 79,
          "name": "G5",
          "ticks": 244032,
          "time": 187.56287000000003,
          "velocity": 0.905511811023622
        },
        {
          "duration": 0.29999999999998295,
          "durationTicks": 384,
          "midi": 79,
          "name": "G5",
          "ticks": 244224,
          "time": 187.71287000000004,
          "velocity": 0.905511811023622
        },
        {
          "duration": 0.29999999999998295,
          "durationTicks": 384,
          "midi": 79,
          "name": "G5",
          "ticks": 244224,
          "time": 187.71287000000004,
          "velocity": 0.905511811023622
        },
        {
          "duration": 0.5999999999999943,
          "durationTicks": 768,
          "midi": 77,
          "name": "F5",
          "ticks": 244992,
          "time": 188.31287000000003,
          "velocity": 0.905511811023622
        },
        {
          "duration": 0.5999999999999943,
          "durationTicks": 768,
          "midi": 77,
          "name": "F5",
          "ticks": 244992,
          "time": 188.31287000000003,
          "velocity": 0.905511811023622
        },
        {
          "duration": 0.5999999999999943,
          "durationTicks": 768,
          "midi": 79,
          "name": "G5",
          "ticks": 245760,
          "time": 188.91287000000003,
          "velocity": 0.905511811023622
        },
        {
          "duration": 0.5999999999999943,
          "durationTicks": 768,
          "midi": 79,
          "name": "G5",
          "ticks": 245760,
          "time": 188.91287000000003,
          "velocity": 0.905511811023622
        },
        {
          "duration": 0.5999999999999943,
          "durationTicks": 768,
          "midi": 77,
          "name": "F5",
          "ticks": 248064,
          "time": 190.71287000000004,
          "velocity": 0.905511811023622
        },
        {
          "duration": 0.5999999999999943,
          "durationTicks": 768,
          "midi": 77,
          "name": "F5",
          "ticks": 248064,
          "time": 190.71287000000004,
          "velocity": 0.905511811023622
        },
        {
          "duration": 0.5999999999999943,
          "durationTicks": 768,
          "midi": 79,
          "name": "G5",
          "ticks": 248832,
          "time": 191.31287000000003,
          "velocity": 0.905511811023622
        },
        {
          "duration": 0.5999999999999943,
          "durationTicks": 768,
          "midi": 79,
          "name": "G5",
          "ticks": 248832,
          "time": 191.31287000000003,
          "velocity": 0.905511811023622
        },
        {
          "duration": 0.5999999999999943,
          "durationTicks": 768,
          "midi": 77,
          "name": "F5",
          "ticks": 251136,
          "time": 193.11287000000004,
          "velocity": 0.905511811023622
        },
        {
          "duration": 0.5999999999999943,
          "durationTicks": 768,
          "midi": 77,
          "name": "F5",
          "ticks": 251136,
          "time": 193.11287000000004,
          "velocity": 0.905511811023622
        },
        {
          "duration": 0.5999999999999943,
          "durationTicks": 768,
          "midi": 78,
          "name": "F#5",
          "ticks": 251904,
          "time": 193.71287000000004,
          "velocity": 0.905511811023622
        },
        {
          "duration": 0.5999999999999943,
          "durationTicks": 768,
          "midi": 78,
          "name": "F#5",
          "ticks": 251904,
          "time": 193.71287000000004,
          "velocity": 0.905511811023622
        },
        {
          "duration": 0.6000000000000227,
          "durationTicks": 768,
          "midi": 77,
          "name": "F5",
          "ticks": 254208,
          "time": 195.51287000000002,
          "velocity": 0.905511811023622
        },
        {
          "duration": 0.6000000000000227,
          "durationTicks": 768,
          "midi": 77,
          "name": "F5",
          "ticks": 254208,
          "time": 195.51287000000002,
          "velocity": 0.905511811023622
        },
        {
          "duration": 0.5999999999999943,
          "durationTicks": 768,
          "midi": 77,
          "name": "F5",
          "ticks": 254976,
          "time": 196.11287000000004,
          "velocity": 0.905511811023622
        },
        {
          "duration": 0.5999999999999943,
          "durationTicks": 768,
          "midi": 77,
          "name": "F5",
          "ticks": 254976,
          "time": 196.11287000000004,
          "velocity": 0.905511811023622
        },
        {
          "duration": 0.6122400000000141,
          "durationTicks": 768,
          "midi": 77,
          "name": "F5",
          "ticks": 274176,
          "time": 211.38215000000002,
          "velocity": 0.6141732283464567
        },
        {
          "duration": 0.6122400000000141,
          "durationTicks": 768,
          "midi": 80,
          "name": "G#5",
          "ticks": 274176,
          "time": 211.38215000000002,
          "velocity": 0.6141732283464567
        },
        {
          "duration": 0.6122400000000141,
          "durationTicks": 768,
          "midi": 77,
          "name": "F5",
          "ticks": 275712,
          "time": 212.60663000000002,
          "velocity": 0.6141732283464567
        },
        {
          "duration": 0.6122400000000141,
          "durationTicks": 768,
          "midi": 80,
          "name": "G#5",
          "ticks": 275712,
          "time": 212.60663000000002,
          "velocity": 0.6141732283464567
        },
        {
          "duration": 0.6122400000000141,
          "durationTicks": 768,
          "midi": 77,
          "name": "F5",
          "ticks": 277248,
          "time": 213.83111000000002,
          "velocity": 0.6141732283464567
        },
        {
          "duration": 0.6122400000000141,
          "durationTicks": 768,
          "midi": 80,
          "name": "G#5",
          "ticks": 277248,
          "time": 213.83111000000002,
          "velocity": 0.6141732283464567
        },
        {
          "duration": 0.1415049999999951,
          "durationTicks": 192,
          "midi": 80,
          "name": "G#5",
          "ticks": 278976,
          "time": 215.19709500000002,
          "velocity": 0.968503937007874
        },
        {
          "duration": 0.1415049999999951,
          "durationTicks": 192,
          "midi": 80,
          "name": "G#5",
          "ticks": 278976,
          "time": 215.19709500000002,
          "velocity": 0.968503937007874
        },
        {
          "duration": 0.14150500000002353,
          "durationTicks": 192,
          "midi": 80,
          "name": "G#5",
          "ticks": 279168,
          "time": 215.3386,
          "velocity": 0.968503937007874
        },
        {
          "duration": 0.14150500000002353,
          "durationTicks": 192,
          "midi": 80,
          "name": "G#5",
          "ticks": 279168,
          "time": 215.3386,
          "velocity": 0.968503937007874
        },
        {
          "duration": 0.1415049999999951,
          "durationTicks": 192,
          "midi": 80,
          "name": "G#5",
          "ticks": 279360,
          "time": 215.48010500000004,
          "velocity": 0.968503937007874
        },
        {
          "duration": 0.1415049999999951,
          "durationTicks": 192,
          "midi": 80,
          "name": "G#5",
          "ticks": 279360,
          "time": 215.48010500000004,
          "velocity": 0.968503937007874
        },
        {
          "duration": 0.707525000000004,
          "durationTicks": 960,
          "midi": 77,
          "name": "F5",
          "ticks": 279552,
          "time": 215.62161000000003,
          "velocity": 0.968503937007874
        },
        {
          "duration": 0.707525000000004,
          "durationTicks": 960,
          "midi": 77,
          "name": "F5",
          "ticks": 279552,
          "time": 215.62161000000003,
          "velocity": 0.968503937007874
        },
        {
          "duration": 0.1415049999999951,
          "durationTicks": 192,
          "midi": 80,
          "name": "G#5",
          "ticks": 280512,
          "time": 216.32913500000004,
          "velocity": 0.968503937007874
        },
        {
          "duration": 0.1415049999999951,
          "durationTicks": 192,
          "midi": 80,
          "name": "G#5",
          "ticks": 280512,
          "time": 216.32913500000004,
          "velocity": 0.968503937007874
        },
        {
          "duration": 0.1415049999999951,
          "durationTicks": 192,
          "midi": 80,
          "name": "G#5",
          "ticks": 280704,
          "time": 216.47064000000003,
          "velocity": 0.968503937007874
        },
        {
          "duration": 0.1415049999999951,
          "durationTicks": 192,
          "midi": 80,
          "name": "G#5",
          "ticks": 280704,
          "time": 216.47064000000003,
          "velocity": 0.968503937007874
        },
        {
          "duration": 0.1415049999999951,
          "durationTicks": 192,
          "midi": 80,
          "name": "G#5",
          "ticks": 280896,
          "time": 216.61214500000003,
          "velocity": 0.968503937007874
        },
        {
          "duration": 0.1415049999999951,
          "durationTicks": 192,
          "midi": 80,
          "name": "G#5",
          "ticks": 280896,
          "time": 216.61214500000003,
          "velocity": 0.968503937007874
        },
        {
          "duration": 0.707525000000004,
          "durationTicks": 960,
          "midi": 77,
          "name": "F5",
          "ticks": 281088,
          "time": 216.75365000000002,
          "velocity": 0.968503937007874
        },
        {
          "duration": 0.707525000000004,
          "durationTicks": 960,
          "midi": 77,
          "name": "F5",
          "ticks": 281088,
          "time": 216.75365000000002,
          "velocity": 0.968503937007874
        },
        {
          "duration": 0.1415049999999951,
          "durationTicks": 192,
          "midi": 80,
          "name": "G#5",
          "ticks": 282048,
          "time": 217.46117500000003,
          "velocity": 0.968503937007874
        },
        {
          "duration": 0.1415049999999951,
          "durationTicks": 192,
          "midi": 80,
          "name": "G#5",
          "ticks": 282048,
          "time": 217.46117500000003,
          "velocity": 0.968503937007874
        },
        {
          "duration": 0.1415049999999951,
          "durationTicks": 192,
          "midi": 80,
          "name": "G#5",
          "ticks": 282240,
          "time": 217.60268000000002,
          "velocity": 0.968503937007874
        },
        {
          "duration": 0.1415049999999951,
          "durationTicks": 192,
          "midi": 80,
          "name": "G#5",
          "ticks": 282240,
          "time": 217.60268000000002,
          "velocity": 0.968503937007874
        },
        {
          "duration": 0.1415049999999951,
          "durationTicks": 192,
          "midi": 80,
          "name": "G#5",
          "ticks": 282432,
          "time": 217.74418500000002,
          "velocity": 0.968503937007874
        },
        {
          "duration": 0.1415049999999951,
          "durationTicks": 192,
          "midi": 80,
          "name": "G#5",
          "ticks": 282432,
          "time": 217.74418500000002,
          "velocity": 0.968503937007874
        },
        {
          "duration": 0.28301000000001864,
          "durationTicks": 384,
          "midi": 77,
          "name": "F5",
          "ticks": 282624,
          "time": 217.88569,
          "velocity": 0.968503937007874
        },
        {
          "duration": 0.28301000000001864,
          "durationTicks": 384,
          "midi": 77,
          "name": "F5",
          "ticks": 282624,
          "time": 217.88569,
          "velocity": 0.968503937007874
        },
        {
          "duration": 0.2830099999999902,
          "durationTicks": 384,
          "midi": 80,
          "name": "G#5",
          "ticks": 283008,
          "time": 218.16870000000003,
          "velocity": 0.968503937007874
        },
        {
          "duration": 0.2830099999999902,
          "durationTicks": 384,
          "midi": 80,
          "name": "G#5",
          "ticks": 283008,
          "time": 218.16870000000003,
          "velocity": 0.968503937007874
        },
        {
          "duration": 0.2830099999999902,
          "durationTicks": 384,
          "midi": 77,
          "name": "F5",
          "ticks": 283392,
          "time": 218.45171000000002,
          "velocity": 0.968503937007874
        },
        {
          "duration": 0.2830099999999902,
          "durationTicks": 384,
          "midi": 77,
          "name": "F5",
          "ticks": 283392,
          "time": 218.45171000000002,
          "velocity": 0.968503937007874
        },
        {
          "duration": 0.28301000000001864,
          "durationTicks": 384,
          "midi": 80,
          "name": "G#5",
          "ticks": 283776,
          "time": 218.73472,
          "velocity": 0.968503937007874
        },
        {
          "duration": 0.28301000000001864,
          "durationTicks": 384,
          "midi": 80,
          "name": "G#5",
          "ticks": 283776,
          "time": 218.73472,
          "velocity": 0.968503937007874
        },
        {
          "duration": 0.2830099999999902,
          "durationTicks": 384,
          "midi": 77,
          "name": "F5",
          "ticks": 284160,
          "time": 219.01773000000003,
          "velocity": 0.968503937007874
        },
        {
          "duration": 0.2830099999999902,
          "durationTicks": 384,
          "midi": 77,
          "name": "F5",
          "ticks": 284160,
          "time": 219.01773000000003,
          "velocity": 0.968503937007874
        },
        {
          "duration": 0.2830099999999902,
          "durationTicks": 384,
          "midi": 80,
          "name": "G#5",
          "ticks": 284544,
          "time": 219.30074000000002,
          "velocity": 0.968503937007874
        },
        {
          "duration": 0.2830099999999902,
          "durationTicks": 384,
          "midi": 80,
          "name": "G#5",
          "ticks": 284544,
          "time": 219.30074000000002,
          "velocity": 0.968503937007874
        },
        {
          "duration": 0.14150500000002353,
          "durationTicks": 192,
          "midi": 77,
          "name": "F5",
          "ticks": 284928,
          "time": 219.58375,
          "velocity": 0.968503937007874
        },
        {
          "duration": 0.14150500000002353,
          "durationTicks": 192,
          "midi": 77,
          "name": "F5",
          "ticks": 284928,
          "time": 219.58375,
          "velocity": 0.968503937007874
        },
        {
          "duration": 0.1415049999999951,
          "durationTicks": 192,
          "midi": 79,
          "name": "G5",
          "ticks": 285120,
          "time": 219.72525500000003,
          "velocity": 0.968503937007874
        },
        {
          "duration": 0.1415049999999951,
          "durationTicks": 192,
          "midi": 79,
          "name": "G5",
          "ticks": 285120,
          "time": 219.72525500000003,
          "velocity": 0.968503937007874
        },
        {
          "duration": 0.1415049999999951,
          "durationTicks": 192,
          "midi": 79,
          "name": "G5",
          "ticks": 285312,
          "time": 219.86676000000003,
          "velocity": 0.968503937007874
        },
        {
          "duration": 0.1415049999999951,
          "durationTicks": 192,
          "midi": 79,
          "name": "G5",
          "ticks": 285312,
          "time": 219.86676000000003,
          "velocity": 0.968503937007874
        },
        {
          "duration": 0.1415049999999951,
          "durationTicks": 192,
          "midi": 79,
          "name": "G5",
          "ticks": 285504,
          "time": 220.00826500000002,
          "velocity": 0.968503937007874
        },
        {
          "duration": 0.1415049999999951,
          "durationTicks": 192,
          "midi": 79,
          "name": "G5",
          "ticks": 285504,
          "time": 220.00826500000002,
          "velocity": 0.968503937007874
        },
        {
          "duration": 0.75,
          "durationTicks": 768,
          "midi": 75,
          "name": "D#5",
          "ticks": 285696,
          "time": 220.14977000000002,
          "velocity": 0.968503937007874
        },
        {
          "duration": 0.75,
          "durationTicks": 768,
          "midi": 75,
          "name": "D#5",
          "ticks": 285696,
          "time": 220.14977000000002,
          "velocity": 0.968503937007874
        },
        {
          "duration": 0.1415049999999951,
          "durationTicks": 192,
          "midi": 67,
          "name": "G4",
          "ticks": 286656,
          "time": 221.041275,
          "velocity": 0.968503937007874
        },
        {
          "duration": 0.1415049999999951,
          "durationTicks": 192,
          "midi": 79,
          "name": "G5",
          "ticks": 286656,
          "time": 221.041275,
          "velocity": 0.968503937007874
        },
        {
          "duration": 0.14150500000002353,
          "durationTicks": 192,
          "midi": 67,
          "name": "G4",
          "ticks": 286848,
          "time": 221.18278,
          "velocity": 0.968503937007874
        },
        {
          "duration": 0.14150500000002353,
          "durationTicks": 192,
          "midi": 79,
          "name": "G5",
          "ticks": 286848,
          "time": 221.18278,
          "velocity": 0.968503937007874
        },
        {
          "duration": 0.1415049999999951,
          "durationTicks": 192,
          "midi": 67,
          "name": "G4",
          "ticks": 287040,
          "time": 221.32428500000003,
          "velocity": 0.968503937007874
        },
        {
          "duration": 0.1415049999999951,
          "durationTicks": 192,
          "midi": 79,
          "name": "G5",
          "ticks": 287040,
          "time": 221.32428500000003,
          "velocity": 0.968503937007874
        },
        {
          "duration": 1.766019999999969,
          "durationTicks": 1536,
          "midi": 67,
          "name": "G4",
          "ticks": 287232,
          "time": 221.46579000000003,
          "velocity": 0.968503937007874
        },
        {
          "duration": 1.766019999999969,
          "durationTicks": 1536,
          "midi": 79,
          "name": "G5",
          "ticks": 287232,
          "time": 221.46579000000003,
          "velocity": 0.968503937007874
        },
        {
          "duration": 1.6666199999999947,
          "durationTicks": 2304,
          "midi": 77,
          "name": "F5",
          "ticks": 307968,
          "time": 238.04677,
          "velocity": 0.7165354330708661
        },
        {
          "duration": 1.6666199999999947,
          "durationTicks": 2304,
          "midi": 77,
          "name": "F5",
          "ticks": 307968,
          "time": 238.04677,
          "velocity": 0.7165354330708661
        },
        {
          "duration": 0.27777000000000385,
          "durationTicks": 384,
          "midi": 75,
          "name": "D#5",
          "ticks": 310272,
          "time": 239.71339,
          "velocity": 0.905511811023622
        },
        {
          "duration": 0.27777000000000385,
          "durationTicks": 384,
          "midi": 75,
          "name": "D#5",
          "ticks": 310272,
          "time": 239.71339,
          "velocity": 0.905511811023622
        },
        {
          "duration": 0.1388849999999877,
          "durationTicks": 192,
          "midi": 77,
          "name": "F5",
          "ticks": 311232,
          "time": 240.407815,
          "velocity": 0.905511811023622
        },
        {
          "duration": 0.1388849999999877,
          "durationTicks": 192,
          "midi": 80,
          "name": "G#5",
          "ticks": 311232,
          "time": 240.407815,
          "velocity": 0.905511811023622
        },
        {
          "duration": 0.13888500000001613,
          "durationTicks": 192,
          "midi": 77,
          "name": "F5",
          "ticks": 311424,
          "time": 240.5467,
          "velocity": 0.905511811023622
        },
        {
          "duration": 0.13888500000001613,
          "durationTicks": 192,
          "midi": 80,
          "name": "G#5",
          "ticks": 311424,
          "time": 240.5467,
          "velocity": 0.905511811023622
        },
        {
          "duration": 0.1388849999999877,
          "durationTicks": 192,
          "midi": 77,
          "name": "F5",
          "ticks": 311616,
          "time": 240.685585,
          "velocity": 0.905511811023622
        },
        {
          "duration": 0.1388849999999877,
          "durationTicks": 192,
          "midi": 80,
          "name": "G#5",
          "ticks": 311616,
          "time": 240.685585,
          "velocity": 0.905511811023622
        },
        {
          "duration": 0.27777000000000385,
          "durationTicks": 384,
          "midi": 77,
          "name": "F5",
          "ticks": 311808,
          "time": 240.82447,
          "velocity": 0.905511811023622
        },
        {
          "duration": 0.27777000000000385,
          "durationTicks": 384,
          "midi": 80,
          "name": "G#5",
          "ticks": 311808,
          "time": 240.82447,
          "velocity": 0.905511811023622
        },
        {
          "duration": 0.13888500000001613,
          "durationTicks": 192,
          "midi": 75,
          "name": "D#5",
          "ticks": 312768,
          "time": 241.518895,
          "velocity": 0.905511811023622
        },
        {
          "duration": 0.13888500000001613,
          "durationTicks": 192,
          "midi": 79,
          "name": "G5",
          "ticks": 312768,
          "time": 241.518895,
          "velocity": 0.905511811023622
        },
        {
          "duration": 0.1388849999999877,
          "durationTicks": 192,
          "midi": 75,
          "name": "D#5",
          "ticks": 312960,
          "time": 241.65778,
          "velocity": 0.905511811023622
        },
        {
          "duration": 0.1388849999999877,
          "durationTicks": 192,
          "midi": 79,
          "name": "G5",
          "ticks": 312960,
          "time": 241.65778,
          "velocity": 0.905511811023622
        },
        {
          "duration": 0.13888500000001613,
          "durationTicks": 192,
          "midi": 75,
          "name": "D#5",
          "ticks": 313152,
          "time": 241.796665,
          "velocity": 0.905511811023622
        },
        {
          "duration": 0.13888500000001613,
          "durationTicks": 192,
          "midi": 79,
          "name": "G5",
          "ticks": 313152,
          "time": 241.796665,
          "velocity": 0.905511811023622
        },
        {
          "duration": 0.27777000000000385,
          "durationTicks": 384,
          "midi": 75,
          "name": "D#5",
          "ticks": 313344,
          "time": 241.93555,
          "velocity": 0.905511811023622
        },
        {
          "duration": 0.27777000000000385,
          "durationTicks": 384,
          "midi": 79,
          "name": "G5",
          "ticks": 313344,
          "time": 241.93555,
          "velocity": 0.905511811023622
        },
        {
          "duration": 0.27522000000001867,
          "durationTicks": 384,
          "midi": 77,
          "name": "F5",
          "ticks": 317952,
          "time": 245.24328999999997,
          "velocity": 0.905511811023622
        },
        {
          "duration": 0.27522000000001867,
          "durationTicks": 384,
          "midi": 80,
          "name": "G#5",
          "ticks": 317952,
          "time": 245.24328999999997,
          "velocity": 0.905511811023622
        },
        {
          "duration": 2.181759999999997,
          "durationTicks": 3072,
          "midi": 75,
          "name": "D#5",
          "ticks": 318720,
          "time": 245.79372999999998,
          "velocity": 0.905511811023622
        },
        {
          "duration": 2.181759999999997,
          "durationTicks": 3072,
          "midi": 79,
          "name": "G5",
          "ticks": 318720,
          "time": 245.79372999999998,
          "velocity": 0.905511811023622
        },
        {
          "duration": 1.9090400000000045,
          "durationTicks": 2688,
          "midi": 77,
          "name": "F5",
          "ticks": 321792,
          "time": 247.97548999999998,
          "velocity": 0.905511811023622
        },
        {
          "duration": 1.9090400000000045,
          "durationTicks": 2688,
          "midi": 79,
          "name": "G5",
          "ticks": 321792,
          "time": 247.97548999999998,
          "velocity": 0.905511811023622
        },
        {
          "duration": 0.2727199999999925,
          "durationTicks": 384,
          "midi": 75,
          "name": "D#5",
          "ticks": 324480,
          "time": 249.88452999999998,
          "velocity": 0.905511811023622
        },
        {
          "duration": 0.2727199999999925,
          "durationTicks": 384,
          "midi": 79,
          "name": "G5",
          "ticks": 324480,
          "time": 249.88452999999998,
          "velocity": 0.905511811023622
        },
        {
          "duration": 2.181759999999997,
          "durationTicks": 3072,
          "midi": 63,
          "name": "D#4",
          "ticks": 324864,
          "time": 250.15724999999998,
          "velocity": 0.968503937007874
        },
        {
          "duration": 2.181759999999997,
          "durationTicks": 3072,
          "midi": 75,
          "name": "D#5",
          "ticks": 324864,
          "time": 250.15724999999998,
          "velocity": 0.968503937007874
        },
        {
          "duration": 0.2941099999999892,
          "durationTicks": 384,
          "midi": 63,
          "name": "D#4",
          "ticks": 327936,
          "time": 252.33900999999997,
          "velocity": 0.968503937007874
        },
        {
          "duration": 0.2941099999999892,
          "durationTicks": 384,
          "midi": 75,
          "name": "D#5",
          "ticks": 327936,
          "time": 252.33900999999997,
          "velocity": 0.968503937007874
        },
        {
          "duration": 0.2941099999999892,
          "durationTicks": 384,
          "midi": 67,
          "name": "G4",
          "ticks": 329472,
          "time": 253.51545,
          "velocity": 0.968503937007874
        },
        {
          "duration": 0.2941099999999892,
          "durationTicks": 384,
          "midi": 79,
          "name": "G5",
          "ticks": 329472,
          "time": 253.51545,
          "velocity": 0.968503937007874
        },
        {
          "duration": 2.9410999999999774,
          "durationTicks": 3840,
          "midi": 67,
          "name": "G4",
          "ticks": 332544,
          "time": 255.86833,
          "velocity": 0.7165354330708661
        },
        {
          "duration": 2.9410999999999774,
          "durationTicks": 3840,
          "midi": 67,
          "name": "G4",
          "ticks": 332544,
          "time": 255.86833,
          "velocity": 0.7165354330708661
        },
        {
          "duration": 2.941100000000006,
          "durationTicks": 3840,
          "midi": 67,
          "name": "G4",
          "ticks": 336384,
          "time": 258.80942999999996,
          "velocity": 0.7165354330708661
        },
        {
          "duration": 2.941100000000006,
          "durationTicks": 3840,
          "midi": 67,
          "name": "G4",
          "ticks": 336384,
          "time": 258.80942999999996,
          "velocity": 0.7165354330708661
        },
        {
          "duration": 2.8845999999999776,
          "durationTicks": 3840,
          "midi": 67,
          "name": "G4",
          "ticks": 340224,
          "time": 261.75052999999997,
          "velocity": 0.7165354330708661
        },
        {
          "duration": 2.8845999999999776,
          "durationTicks": 3840,
          "midi": 67,
          "name": "G4",
          "ticks": 340224,
          "time": 261.75052999999997,
          "velocity": 0.7165354330708661
        },
        {
          "duration": 0.5769200000000296,
          "durationTicks": 768,
          "midi": 67,
          "name": "G4",
          "ticks": 344064,
          "time": 264.63512999999995,
          "velocity": 0.7165354330708661
        },
        {
          "duration": 0.5769200000000296,
          "durationTicks": 768,
          "midi": 67,
          "name": "G4",
          "ticks": 344064,
          "time": 264.63512999999995,
          "velocity": 0.7165354330708661
        },
        {
          "duration": 0.27777000000003227,
          "durationTicks": 384,
          "midi": 77,
          "name": "F5",
          "ticks": 360576,
          "time": 276.83201999999994,
          "velocity": 0.7952755905511811
        },
        {
          "duration": 0.27777000000003227,
          "durationTicks": 384,
          "midi": 77,
          "name": "F5",
          "ticks": 360576,
          "time": 276.83201999999994,
          "velocity": 0.7952755905511811
        },
        {
          "duration": 0.27777000000003227,
          "durationTicks": 384,
          "midi": 77,
          "name": "F5",
          "ticks": 361344,
          "time": 277.38755999999995,
          "velocity": 0.8582677165354331
        },
        {
          "duration": 0.27777000000003227,
          "durationTicks": 384,
          "midi": 77,
          "name": "F5",
          "ticks": 361344,
          "time": 277.38755999999995,
          "velocity": 0.8582677165354331
        },
        {
          "duration": 0.27777000000003227,
          "durationTicks": 384,
          "midi": 77,
          "name": "F5",
          "ticks": 362112,
          "time": 277.94309999999996,
          "velocity": 0.905511811023622
        },
        {
          "duration": 0.27777000000003227,
          "durationTicks": 384,
          "midi": 77,
          "name": "F5",
          "ticks": 362112,
          "time": 277.94309999999996,
          "velocity": 0.905511811023622
        },
        {
          "duration": 0.2777699999999754,
          "durationTicks": 384,
          "midi": 77,
          "name": "F5",
          "ticks": 362880,
          "time": 278.49863999999997,
          "velocity": 0.905511811023622
        },
        {
          "duration": 0.2777699999999754,
          "durationTicks": 384,
          "midi": 77,
          "name": "F5",
          "ticks": 362880,
          "time": 278.49863999999997,
          "velocity": 0.905511811023622
        },
        {
          "duration": 0.83331000000004,
          "durationTicks": 1152,
          "midi": 79,
          "name": "G5",
          "ticks": 363264,
          "time": 278.77640999999994,
          "velocity": 0.968503937007874
        },
        {
          "duration": 0.83331000000004,
          "durationTicks": 1152,
          "midi": 79,
          "name": "G5",
          "ticks": 363264,
          "time": 278.77640999999994,
          "velocity": 0.968503937007874
        },
        {
          "duration": 0.2777699999999754,
          "durationTicks": 384,
          "midi": 79,
          "name": "G5",
          "ticks": 364416,
          "time": 279.60972,
          "velocity": 0.968503937007874
        },
        {
          "duration": 0.2777699999999754,
          "durationTicks": 384,
          "midi": 79,
          "name": "G5",
          "ticks": 364416,
          "time": 279.60972,
          "velocity": 0.968503937007874
        },
        {
          "duration": 0.27777000000003227,
          "durationTicks": 384,
          "midi": 79,
          "name": "G5",
          "ticks": 364800,
          "time": 279.88748999999996,
          "velocity": 0.968503937007874
        },
        {
          "duration": 0.27777000000003227,
          "durationTicks": 384,
          "midi": 79,
          "name": "G5",
          "ticks": 364800,
          "time": 279.88748999999996,
          "velocity": 0.968503937007874
        },
        {
          "duration": 0.2777699999999754,
          "durationTicks": 384,
          "midi": 77,
          "name": "F5",
          "ticks": 365568,
          "time": 280.44302999999996,
          "velocity": 0.968503937007874
        },
        {
          "duration": 0.2777699999999754,
          "durationTicks": 384,
          "midi": 79,
          "name": "G5",
          "ticks": 365568,
          "time": 280.44302999999996,
          "velocity": 0.968503937007874
        },
        {
          "duration": 0.2777699999999754,
          "durationTicks": 384,
          "midi": 79,
          "name": "G5",
          "ticks": 366336,
          "time": 280.99857,
          "velocity": 0.968503937007874
        },
        {
          "duration": 0.2777699999999754,
          "durationTicks": 384,
          "midi": 79,
          "name": "G5",
          "ticks": 366336,
          "time": 280.99857,
          "velocity": 0.968503937007874
        },
        {
          "duration": 0.2777699999999754,
          "durationTicks": 384,
          "midi": 77,
          "name": "F5",
          "ticks": 367104,
          "time": 281.55411,
          "velocity": 0.968503937007874
        },
        {
          "duration": 0.2777699999999754,
          "durationTicks": 384,
          "midi": 77,
          "name": "F5",
          "ticks": 367104,
          "time": 281.55411,
          "velocity": 0.968503937007874
        },
        {
          "duration": 0.2777699999999754,
          "durationTicks": 384,
          "midi": 79,
          "name": "G5",
          "ticks": 367872,
          "time": 282.10965,
          "velocity": 0.968503937007874
        },
        {
          "duration": 0.2777699999999754,
          "durationTicks": 384,
          "midi": 79,
          "name": "G5",
          "ticks": 367872,
          "time": 282.10965,
          "velocity": 0.968503937007874
        },
        {
          "duration": 0.2777699999999754,
          "durationTicks": 384,
          "midi": 79,
          "name": "G5",
          "ticks": 368640,
          "time": 282.66519,
          "velocity": 0.968503937007874
        },
        {
          "duration": 0.2777699999999754,
          "durationTicks": 384,
          "midi": 79,
          "name": "G5",
          "ticks": 368640,
          "time": 282.66519,
          "velocity": 0.968503937007874
        },
        {
          "duration": 1.1110800000000154,
          "durationTicks": 1536,
          "midi": 67,
          "name": "G4",
          "ticks": 369408,
          "time": 283.22072999999995,
          "velocity": 0.968503937007874
        },
        {
          "duration": 1.1110800000000154,
          "durationTicks": 1536,
          "midi": 79,
          "name": "G5",
          "ticks": 369408,
          "time": 283.22072999999995,
          "velocity": 0.968503937007874
        },
        {
          "duration": 0.27777000000003227,
          "durationTicks": 384,
          "midi": 67,
          "name": "G4",
          "ticks": 370944,
          "time": 284.33180999999996,
          "velocity": 0.968503937007874
        },
        {
          "duration": 0.27777000000003227,
          "durationTicks": 384,
          "midi": 79,
          "name": "G5",
          "ticks": 370944,
          "time": 284.33180999999996,
          "velocity": 0.968503937007874
        },
        {
          "duration": 0.2777699999999754,
          "durationTicks": 384,
          "midi": 67,
          "name": "G4",
          "ticks": 371328,
          "time": 284.60958,
          "velocity": 0.968503937007874
        },
        {
          "duration": 0.2777699999999754,
          "durationTicks": 384,
          "midi": 79,
          "name": "G5",
          "ticks": 371328,
          "time": 284.60958,
          "velocity": 0.968503937007874
        },
        {
          "duration": 0.27777000000003227,
          "durationTicks": 384,
          "midi": 67,
          "name": "G4",
          "ticks": 372096,
          "time": 285.16511999999994,
          "velocity": 0.968503937007874
        },
        {
          "duration": 0.27777000000003227,
          "durationTicks": 384,
          "midi": 79,
          "name": "G5",
          "ticks": 372096,
          "time": 285.16511999999994,
          "velocity": 0.968503937007874
        },
        {
          "duration": 0.27777000000003227,
          "durationTicks": 384,
          "midi": 67,
          "name": "G4",
          "ticks": 372864,
          "time": 285.72065999999995,
          "velocity": 0.968503937007874
        },
        {
          "duration": 0.27777000000003227,
          "durationTicks": 384,
          "midi": 79,
          "name": "G5",
          "ticks": 372864,
          "time": 285.72065999999995,
          "velocity": 0.968503937007874
        },
        {
          "duration": 0.27777000000003227,
          "durationTicks": 384,
          "midi": 77,
          "name": "F5",
          "ticks": 373632,
          "time": 286.27619999999996,
          "velocity": 0.968503937007874
        },
        {
          "duration": 0.27777000000003227,
          "durationTicks": 384,
          "midi": 77,
          "name": "F5",
          "ticks": 373632,
          "time": 286.27619999999996,
          "velocity": 0.968503937007874
        },
        {
          "duration": 0.2777699999999754,
          "durationTicks": 384,
          "midi": 79,
          "name": "G5",
          "ticks": 374400,
          "time": 286.83173999999997,
          "velocity": 0.968503937007874
        },
        {
          "duration": 0.2777699999999754,
          "durationTicks": 384,
          "midi": 79,
          "name": "G5",
          "ticks": 374400,
          "time": 286.83173999999997,
          "velocity": 0.968503937007874
        },
        {
          "duration": 0.2777699999999754,
          "durationTicks": 384,
          "midi": 79,
          "name": "G5",
          "ticks": 375168,
          "time": 287.38728,
          "velocity": 0.968503937007874
        },
        {
          "duration": 0.2777699999999754,
          "durationTicks": 384,
          "midi": 79,
          "name": "G5",
          "ticks": 375168,
          "time": 287.38728,
          "velocity": 0.968503937007874
        },
        {
          "duration": 0.27777000000003227,
          "durationTicks": 384,
          "midi": 79,
          "name": "G5",
          "ticks": 375552,
          "time": 287.66504999999995,
          "velocity": 0.968503937007874
        },
        {
          "duration": 0.27777000000003227,
          "durationTicks": 384,
          "midi": 79,
          "name": "G5",
          "ticks": 375552,
          "time": 287.66504999999995,
          "velocity": 0.968503937007874
        },
        {
          "duration": 0.1388849999999593,
          "durationTicks": 192,
          "midi": 79,
          "name": "G5",
          "ticks": 378048,
          "time": 289.470555,
          "velocity": 0.968503937007874
        },
        {
          "duration": 0.1388849999999593,
          "durationTicks": 192,
          "midi": 79,
          "name": "G5",
          "ticks": 378048,
          "time": 289.470555,
          "velocity": 0.968503937007874
        },
        {
          "duration": 0.13888500000001613,
          "durationTicks": 192,
          "midi": 79,
          "name": "G5",
          "ticks": 378240,
          "time": 289.60943999999995,
          "velocity": 0.968503937007874
        },
        {
          "duration": 0.13888500000001613,
          "durationTicks": 192,
          "midi": 79,
          "name": "G5",
          "ticks": 378240,
          "time": 289.60943999999995,
          "velocity": 0.968503937007874
        },
        {
          "duration": 0.13888500000001613,
          "durationTicks": 192,
          "midi": 79,
          "name": "G5",
          "ticks": 378432,
          "time": 289.74832499999997,
          "velocity": 0.968503937007874
        },
        {
          "duration": 0.13888500000001613,
          "durationTicks": 192,
          "midi": 79,
          "name": "G5",
          "ticks": 378432,
          "time": 289.74832499999997,
          "velocity": 0.968503937007874
        },
        {
          "duration": 0.2777699999999754,
          "durationTicks": 384,
          "midi": 79,
          "name": "G5",
          "ticks": 378624,
          "time": 289.88721,
          "velocity": 0.968503937007874
        },
        {
          "duration": 0.2777699999999754,
          "durationTicks": 384,
          "midi": 79,
          "name": "G5",
          "ticks": 378624,
          "time": 289.88721,
          "velocity": 0.968503937007874
        },
        {
          "duration": 0.13888500000001613,
          "durationTicks": 192,
          "midi": 79,
          "name": "G5",
          "ticks": 381120,
          "time": 291.69271499999996,
          "velocity": 0.968503937007874
        },
        {
          "duration": 0.13888500000001613,
          "durationTicks": 192,
          "midi": 79,
          "name": "G5",
          "ticks": 381120,
          "time": 291.69271499999996,
          "velocity": 0.968503937007874
        },
        {
          "duration": 0.1388849999999593,
          "durationTicks": 192,
          "midi": 79,
          "name": "G5",
          "ticks": 381312,
          "time": 291.8316,
          "velocity": 0.968503937007874
        },
        {
          "duration": 0.1388849999999593,
          "durationTicks": 192,
          "midi": 79,
          "name": "G5",
          "ticks": 381312,
          "time": 291.8316,
          "velocity": 0.968503937007874
        },
        {
          "duration": 0.13888500000001613,
          "durationTicks": 192,
          "midi": 79,
          "name": "G5",
          "ticks": 381504,
          "time": 291.97048499999994,
          "velocity": 0.968503937007874
        },
        {
          "duration": 0.13888500000001613,
          "durationTicks": 192,
          "midi": 79,
          "name": "G5",
          "ticks": 381504,
          "time": 291.97048499999994,
          "velocity": 0.968503937007874
        },
        {
          "duration": 0.27777000000003227,
          "durationTicks": 384,
          "midi": 79,
          "name": "G5",
          "ticks": 381696,
          "time": 292.10936999999996,
          "velocity": 0.968503937007874
        },
        {
          "duration": 0.27777000000003227,
          "durationTicks": 384,
          "midi": 79,
          "name": "G5",
          "ticks": 381696,
          "time": 292.10936999999996,
          "velocity": 0.968503937007874
        },
        {
          "duration": 0.13888500000001613,
          "durationTicks": 192,
          "midi": 67,
          "name": "G4",
          "ticks": 382656,
          "time": 292.803795,
          "velocity": 0.968503937007874
        },
        {
          "duration": 0.13888500000001613,
          "durationTicks": 192,
          "midi": 79,
          "name": "G5",
          "ticks": 382656,
          "time": 292.803795,
          "velocity": 0.968503937007874
        },
        {
          "duration": 0.1388849999999593,
          "durationTicks": 192,
          "midi": 67,
          "name": "G4",
          "ticks": 382848,
          "time": 292.94268,
          "velocity": 0.968503937007874
        },
        {
          "duration": 0.1388849999999593,
          "durationTicks": 192,
          "midi": 79,
          "name": "G5",
          "ticks": 382848,
          "time": 292.94268,
          "velocity": 0.968503937007874
        },
        {
          "duration": 0.13888500000001613,
          "durationTicks": 192,
          "midi": 67,
          "name": "G4",
          "ticks": 383040,
          "time": 293.08156499999996,
          "velocity": 0.968503937007874
        },
        {
          "duration": 0.13888500000001613,
          "durationTicks": 192,
          "midi": 79,
          "name": "G5",
          "ticks": 383040,
          "time": 293.08156499999996,
          "velocity": 0.968503937007874
        },
        {
          "duration": 0.2777699999999754,
          "durationTicks": 384,
          "midi": 67,
          "name": "G4",
          "ticks": 383232,
          "time": 293.22044999999997,
          "velocity": 0.968503937007874
        },
        {
          "duration": 0.2777699999999754,
          "durationTicks": 384,
          "midi": 79,
          "name": "G5",
          "ticks": 383232,
          "time": 293.22044999999997,
          "velocity": 0.968503937007874
        },
        {
          "duration": 0.1388849999999593,
          "durationTicks": 192,
          "midi": 67,
          "name": "G4",
          "ticks": 384192,
          "time": 293.914875,
          "velocity": 0.968503937007874
        },
        {
          "duration": 0.1388849999999593,
          "durationTicks": 192,
          "midi": 79,
          "name": "G5",
          "ticks": 384192,
          "time": 293.914875,
          "velocity": 0.968503937007874
        },
        {
          "duration": 0.13888500000001613,
          "durationTicks": 192,
          "midi": 67,
          "name": "G4",
          "ticks": 384384,
          "time": 294.05375999999995,
          "velocity": 0.968503937007874
        },
        {
          "duration": 0.13888500000001613,
          "durationTicks": 192,
          "midi": 79,
          "name": "G5",
          "ticks": 384384,
          "time": 294.05375999999995,
          "velocity": 0.968503937007874
        },
        {
          "duration": 0.13888500000001613,
          "durationTicks": 192,
          "midi": 67,
          "name": "G4",
          "ticks": 384576,
          "time": 294.19264499999997,
          "velocity": 0.968503937007874
        },
        {
          "duration": 0.13888500000001613,
          "durationTicks": 192,
          "midi": 79,
          "name": "G5",
          "ticks": 384576,
          "time": 294.19264499999997,
          "velocity": 0.968503937007874
        },
        {
          "duration": 0.2777699999999754,
          "durationTicks": 384,
          "midi": 79,
          "name": "G5",
          "ticks": 384768,
          "time": 294.33153,
          "velocity": 0.968503937007874
        },
        {
          "duration": 0.2777699999999754,
          "durationTicks": 384,
          "midi": 79,
          "name": "G5",
          "ticks": 384768,
          "time": 294.33153,
          "velocity": 0.968503937007874
        },
        {
          "duration": 0.27777000000003227,
          "durationTicks": 384,
          "midi": 77,
          "name": "F5",
          "ticks": 386304,
          "time": 295.44260999999995,
          "velocity": 0.968503937007874
        },
        {
          "duration": 0.27777000000003227,
          "durationTicks": 384,
          "midi": 77,
          "name": "F5",
          "ticks": 386304,
          "time": 295.44260999999995,
          "velocity": 0.968503937007874
        },
        {
          "duration": 0.27777000000003227,
          "durationTicks": 384,
          "midi": 79,
          "name": "G5",
          "ticks": 387840,
          "time": 296.55368999999996,
          "velocity": 0.968503937007874
        },
        {
          "duration": 0.27777000000003227,
          "durationTicks": 384,
          "midi": 79,
          "name": "G5",
          "ticks": 387840,
          "time": 296.55368999999996,
          "velocity": 0.968503937007874
        },
        {
          "duration": 0.2777699999999754,
          "durationTicks": 384,
          "midi": 80,
          "name": "G#5",
          "ticks": 389376,
          "time": 297.66477,
          "velocity": 0.968503937007874
        },
        {
          "duration": 0.2777699999999754,
          "durationTicks": 384,
          "midi": 80,
          "name": "G#5",
          "ticks": 389376,
          "time": 297.66477,
          "velocity": 0.968503937007874
        },
        {
          "duration": 2.222159999999974,
          "durationTicks": 3072,
          "midi": 77,
          "name": "F5",
          "ticks": 390912,
          "time": 298.77585,
          "velocity": 0.968503937007874
        },
        {
          "duration": 2.222159999999974,
          "durationTicks": 3072,
          "midi": 80,
          "name": "G#5",
          "ticks": 390912,
          "time": 298.77585,
          "velocity": 0.968503937007874
        },
        {
          "duration": 0.2777699999999754,
          "durationTicks": 384,
          "midi": 77,
          "name": "F5",
          "ticks": 393984,
          "time": 300.99800999999997,
          "velocity": 0.968503937007874
        },
        {
          "duration": 0.2777699999999754,
          "durationTicks": 384,
          "midi": 80,
          "name": "G#5",
          "ticks": 393984,
          "time": 300.99800999999997,
          "velocity": 0.968503937007874
        },
        {
          "duration": 0.1388849999999593,
          "durationTicks": 192,
          "midi": 77,
          "name": "F5",
          "ticks": 394944,
          "time": 301.692435,
          "velocity": 0.7165354330708661
        },
        {
          "duration": 0.1388849999999593,
          "durationTicks": 192,
          "midi": 77,
          "name": "F5",
          "ticks": 394944,
          "time": 301.692435,
          "velocity": 0.7165354330708661
        },
        {
          "duration": 0.13888500000001613,
          "durationTicks": 192,
          "midi": 77,
          "name": "F5",
          "ticks": 395136,
          "time": 301.83131999999995,
          "velocity": 0.7165354330708661
        },
        {
          "duration": 0.13888500000001613,
          "durationTicks": 192,
          "midi": 77,
          "name": "F5",
          "ticks": 395136,
          "time": 301.83131999999995,
          "velocity": 0.7165354330708661
        },
        {
          "duration": 0.13888500000001613,
          "durationTicks": 192,
          "midi": 77,
          "name": "F5",
          "ticks": 395328,
          "time": 301.97020499999996,
          "velocity": 0.7165354330708661
        },
        {
          "duration": 0.13888500000001613,
          "durationTicks": 192,
          "midi": 77,
          "name": "F5",
          "ticks": 395328,
          "time": 301.97020499999996,
          "velocity": 0.7165354330708661
        },
        {
          "duration": 0.2777699999999754,
          "durationTicks": 384,
          "midi": 80,
          "name": "G#5",
          "ticks": 395520,
          "time": 302.10909,
          "velocity": 0.7165354330708661
        },
        {
          "duration": 0.2777699999999754,
          "durationTicks": 384,
          "midi": 80,
          "name": "G#5",
          "ticks": 395520,
          "time": 302.10909,
          "velocity": 0.7165354330708661
        },
        {
          "duration": 0.13888500000001613,
          "durationTicks": 192,
          "midi": 75,
          "name": "D#5",
          "ticks": 397248,
          "time": 303.35905499999996,
          "velocity": 0.968503937007874
        },
        {
          "duration": 0.13888500000001613,
          "durationTicks": 192,
          "midi": 75,
          "name": "D#5",
          "ticks": 397248,
          "time": 303.35905499999996,
          "velocity": 0.968503937007874
        },
        {
          "duration": 0.13888500000001613,
          "durationTicks": 192,
          "midi": 75,
          "name": "D#5",
          "ticks": 397440,
          "time": 303.49793999999997,
          "velocity": 0.968503937007874
        },
        {
          "duration": 0.13888500000001613,
          "durationTicks": 192,
          "midi": 75,
          "name": "D#5",
          "ticks": 397440,
          "time": 303.49793999999997,
          "velocity": 0.968503937007874
        },
        {
          "duration": 0.1388849999999593,
          "durationTicks": 192,
          "midi": 75,
          "name": "D#5",
          "ticks": 397632,
          "time": 303.636825,
          "velocity": 0.968503937007874
        },
        {
          "duration": 0.1388849999999593,
          "durationTicks": 192,
          "midi": 75,
          "name": "D#5",
          "ticks": 397632,
          "time": 303.636825,
          "velocity": 0.968503937007874
        },
        {
          "duration": 2.2221600000000308,
          "durationTicks": 3072,
          "midi": 75,
          "name": "D#5",
          "ticks": 397824,
          "time": 303.77570999999995,
          "velocity": 0.968503937007874
        },
        {
          "duration": 2.2221600000000308,
          "durationTicks": 3072,
          "midi": 75,
          "name": "D#5",
          "ticks": 397824,
          "time": 303.77570999999995,
          "velocity": 0.968503937007874
        },
        {
          "duration": 0.2777699999999754,
          "durationTicks": 384,
          "midi": 75,
          "name": "D#5",
          "ticks": 400896,
          "time": 305.99787,
          "velocity": 0.968503937007874
        },
        {
          "duration": 0.2777699999999754,
          "durationTicks": 384,
          "midi": 75,
          "name": "D#5",
          "ticks": 400896,
          "time": 305.99787,
          "velocity": 0.968503937007874
        },
        {
          "duration": 1.1110800000000154,
          "durationTicks": 1536,
          "midi": 77,
          "name": "F5",
          "ticks": 405504,
          "time": 309.33110999999997,
          "velocity": 0.905511811023622
        },
        {
          "duration": 0.8333099999999831,
          "durationTicks": 1152,
          "midi": 80,
          "name": "G#5",
          "ticks": 405504,
          "time": 309.33110999999997,
          "velocity": 0.905511811023622
        },
        {
          "duration": 0.27777000000003227,
          "durationTicks": 384,
          "midi": 79,
          "name": "G5",
          "ticks": 406656,
          "time": 310.16441999999995,
          "velocity": 0.905511811023622
        },
        {
          "duration": 1.1110799999999585,
          "durationTicks": 1536,
          "midi": 77,
          "name": "F5",
          "ticks": 408576,
          "time": 311.55327,
          "velocity": 0.905511811023622
        },
        {
          "duration": 0.8333099999999831,
          "durationTicks": 1152,
          "midi": 80,
          "name": "G#5",
          "ticks": 408576,
          "time": 311.55327,
          "velocity": 0.905511811023622
        },
        {
          "duration": 0.2777699999999754,
          "durationTicks": 384,
          "midi": 79,
          "name": "G5",
          "ticks": 409728,
          "time": 312.38658,
          "velocity": 0.905511811023622
        },
        {
          "duration": 0.27777000000003227,
          "durationTicks": 384,
          "midi": 80,
          "name": "G#5",
          "ticks": 414720,
          "time": 315.99758999999995,
          "velocity": 0.905511811023622
        },
        {
          "duration": 0.27777000000003227,
          "durationTicks": 384,
          "midi": 80,
          "name": "G#5",
          "ticks": 414720,
          "time": 315.99758999999995,
          "velocity": 0.905511811023622
        },
        {
          "duration": 0.2777699999999754,
          "durationTicks": 384,
          "midi": 82,
          "name": "A#5",
          "ticks": 415104,
          "time": 316.27536,
          "velocity": 0.905511811023622
        },
        {
          "duration": 0.2777699999999754,
          "durationTicks": 384,
          "midi": 82,
          "name": "A#5",
          "ticks": 415104,
          "time": 316.27536,
          "velocity": 0.905511811023622
        },
        {
          "duration": 0.27777000000003227,
          "durationTicks": 384,
          "midi": 79,
          "name": "G5",
          "ticks": 415488,
          "time": 316.55312999999995,
          "velocity": 0.905511811023622
        },
        {
          "duration": 0.27777000000003227,
          "durationTicks": 384,
          "midi": 79,
          "name": "G5",
          "ticks": 415488,
          "time": 316.55312999999995,
          "velocity": 0.905511811023622
        },
        {
          "duration": 0.2777699999999754,
          "durationTicks": 384,
          "midi": 80,
          "name": "G#5",
          "ticks": 415872,
          "time": 316.8309,
          "velocity": 0.905511811023622
        },
        {
          "duration": 0.2777699999999754,
          "durationTicks": 384,
          "midi": 80,
          "name": "G#5",
          "ticks": 415872,
          "time": 316.8309,
          "velocity": 0.905511811023622
        },
        {
          "duration": 0.27777000000003227,
          "durationTicks": 384,
          "midi": 77,
          "name": "F5",
          "ticks": 416256,
          "time": 317.10866999999996,
          "velocity": 0.905511811023622
        },
        {
          "duration": 0.27777000000003227,
          "durationTicks": 384,
          "midi": 77,
          "name": "F5",
          "ticks": 416256,
          "time": 317.10866999999996,
          "velocity": 0.905511811023622
        },
        {
          "duration": 0.27777000000003227,
          "durationTicks": 384,
          "midi": 75,
          "name": "D#5",
          "ticks": 417408,
          "time": 317.94197999999994,
          "velocity": 0.905511811023622
        },
        {
          "duration": 0.27777000000003227,
          "durationTicks": 384,
          "midi": 75,
          "name": "D#5",
          "ticks": 417408,
          "time": 317.94197999999994,
          "velocity": 0.905511811023622
        },
        {
          "duration": 0.2777699999999754,
          "durationTicks": 384,
          "midi": 77,
          "name": "F5",
          "ticks": 417792,
          "time": 318.21975,
          "velocity": 0.905511811023622
        },
        {
          "duration": 0.2777699999999754,
          "durationTicks": 384,
          "midi": 77,
          "name": "F5",
          "ticks": 417792,
          "time": 318.21975,
          "velocity": 0.905511811023622
        },
        {
          "duration": 0.27777000000003227,
          "durationTicks": 384,
          "midi": 79,
          "name": "G5",
          "ticks": 418944,
          "time": 319.05305999999996,
          "velocity": 0.905511811023622
        },
        {
          "duration": 0.27777000000003227,
          "durationTicks": 384,
          "midi": 79,
          "name": "G5",
          "ticks": 418944,
          "time": 319.05305999999996,
          "velocity": 0.905511811023622
        },
        {
          "duration": 0.2777699999999754,
          "durationTicks": 384,
          "midi": 80,
          "name": "G#5",
          "ticks": 419328,
          "time": 319.33083,
          "velocity": 0.905511811023622
        },
        {
          "duration": 0.2777699999999754,
          "durationTicks": 384,
          "midi": 80,
          "name": "G#5",
          "ticks": 419328,
          "time": 319.33083,
          "velocity": 0.905511811023622
        },
        {
          "duration": 0.2777699999999754,
          "durationTicks": 384,
          "midi": 79,
          "name": "G5",
          "ticks": 419712,
          "time": 319.60859999999997,
          "velocity": 0.905511811023622
        },
        {
          "duration": 0.2777699999999754,
          "durationTicks": 384,
          "midi": 79,
          "name": "G5",
          "ticks": 419712,
          "time": 319.60859999999997,
          "velocity": 0.905511811023622
        },
        {
          "duration": 0.27777000000003227,
          "durationTicks": 384,
          "midi": 80,
          "name": "G#5",
          "ticks": 420096,
          "time": 319.88636999999994,
          "velocity": 0.905511811023622
        },
        {
          "duration": 0.27777000000003227,
          "durationTicks": 384,
          "midi": 80,
          "name": "G#5",
          "ticks": 420096,
          "time": 319.88636999999994,
          "velocity": 0.905511811023622
        },
        {
          "duration": 0.2777699999999754,
          "durationTicks": 384,
          "midi": 79,
          "name": "G5",
          "ticks": 420480,
          "time": 320.16414,
          "velocity": 0.905511811023622
        },
        {
          "duration": 0.2777699999999754,
          "durationTicks": 384,
          "midi": 79,
          "name": "G5",
          "ticks": 420480,
          "time": 320.16414,
          "velocity": 0.905511811023622
        },
        {
          "duration": 0.2777699999999754,
          "durationTicks": 384,
          "midi": 79,
          "name": "G5",
          "ticks": 421248,
          "time": 320.71968,
          "velocity": 0.905511811023622
        },
        {
          "duration": 0.2777699999999754,
          "durationTicks": 384,
          "midi": 79,
          "name": "G5",
          "ticks": 421248,
          "time": 320.71968,
          "velocity": 0.905511811023622
        },
        {
          "duration": 0.27777000000003227,
          "durationTicks": 384,
          "midi": 77,
          "name": "F5",
          "ticks": 421632,
          "time": 320.99744999999996,
          "velocity": 0.905511811023622
        },
        {
          "duration": 0.27777000000003227,
          "durationTicks": 384,
          "midi": 79,
          "name": "G5",
          "ticks": 421632,
          "time": 320.99744999999996,
          "velocity": 0.905511811023622
        },
        {
          "duration": 0.2777699999999754,
          "durationTicks": 384,
          "midi": 77,
          "name": "F5",
          "ticks": 422016,
          "time": 321.27522,
          "velocity": 0.905511811023622
        },
        {
          "duration": 0.2777699999999754,
          "durationTicks": 384,
          "midi": 79,
          "name": "G5",
          "ticks": 422016,
          "time": 321.27522,
          "velocity": 0.905511811023622
        },
        {
          "duration": 1.1110800000000154,
          "durationTicks": 1536,
          "midi": 75,
          "name": "D#5",
          "ticks": 422400,
          "time": 321.55298999999997,
          "velocity": 0.905511811023622
        },
        {
          "duration": 1.1110800000000154,
          "durationTicks": 1536,
          "midi": 75,
          "name": "D#5",
          "ticks": 422400,
          "time": 321.55298999999997,
          "velocity": 0.905511811023622
        },
        {
          "duration": 1.1110799999999585,
          "durationTicks": 1536,
          "midi": 77,
          "name": "F5",
          "ticks": 423936,
          "time": 322.66407,
          "velocity": 0.905511811023622
        },
        {
          "duration": 1.1110799999999585,
          "durationTicks": 1536,
          "midi": 77,
          "name": "F5",
          "ticks": 423936,
          "time": 322.66407,
          "velocity": 0.905511811023622
        },
        {
          "duration": 1.1110800000000154,
          "durationTicks": 1536,
          "midi": 79,
          "name": "G5",
          "ticks": 425472,
          "time": 323.77514999999994,
          "velocity": 0.905511811023622
        },
        {
          "duration": 1.1110800000000154,
          "durationTicks": 1536,
          "midi": 79,
          "name": "G5",
          "ticks": 425472,
          "time": 323.77514999999994,
          "velocity": 0.905511811023622
        },
        {
          "duration": 0.5555400000000077,
          "durationTicks": 768,
          "midi": 80,
          "name": "G#5",
          "ticks": 427008,
          "time": 324.88622999999995,
          "velocity": 0.905511811023622
        },
        {
          "duration": 0.5555400000000077,
          "durationTicks": 768,
          "midi": 80,
          "name": "G#5",
          "ticks": 427008,
          "time": 324.88622999999995,
          "velocity": 0.905511811023622
        },
        {
          "duration": 0.27777000000003227,
          "durationTicks": 384,
          "midi": 77,
          "name": "F5",
          "ticks": 427776,
          "time": 325.44176999999996,
          "velocity": 0.905511811023622
        },
        {
          "duration": 0.27777000000003227,
          "durationTicks": 384,
          "midi": 77,
          "name": "F5",
          "ticks": 427776,
          "time": 325.44176999999996,
          "velocity": 0.905511811023622
        },
        {
          "duration": 0.2777699999999754,
          "durationTicks": 384,
          "midi": 77,
          "name": "F5",
          "ticks": 428160,
          "time": 325.71954,
          "velocity": 0.905511811023622
        },
        {
          "duration": 0.2777699999999754,
          "durationTicks": 384,
          "midi": 77,
          "name": "F5",
          "ticks": 428160,
          "time": 325.71954,
          "velocity": 0.905511811023622
        },
        {
          "duration": 0.5555400000000077,
          "durationTicks": 768,
          "midi": 77,
          "name": "F5",
          "ticks": 428544,
          "time": 325.99730999999997,
          "velocity": 0.905511811023622
        },
        {
          "duration": 0.5555400000000077,
          "durationTicks": 768,
          "midi": 77,
          "name": "F5",
          "ticks": 428544,
          "time": 325.99730999999997,
          "velocity": 0.905511811023622
        },
        {
          "duration": 0.5555400000000077,
          "durationTicks": 768,
          "midi": 79,
          "name": "G5",
          "ticks": 429312,
          "time": 326.55285,
          "velocity": 0.905511811023622
        },
        {
          "duration": 0.5555400000000077,
          "durationTicks": 768,
          "midi": 79,
          "name": "G5",
          "ticks": 429312,
          "time": 326.55285,
          "velocity": 0.905511811023622
        },
        {
          "duration": 0.2777699999999754,
          "durationTicks": 384,
          "midi": 79,
          "name": "G5",
          "ticks": 430080,
          "time": 327.10839,
          "velocity": 0.905511811023622
        },
        {
          "duration": 0.2777699999999754,
          "durationTicks": 384,
          "midi": 79,
          "name": "G5",
          "ticks": 430080,
          "time": 327.10839,
          "velocity": 0.905511811023622
        },
        {
          "duration": 0.2777699999999754,
          "durationTicks": 384,
          "midi": 80,
          "name": "G#5",
          "ticks": 430848,
          "time": 327.66393,
          "velocity": 0.905511811023622
        },
        {
          "duration": 0.2777699999999754,
          "durationTicks": 384,
          "midi": 80,
          "name": "G#5",
          "ticks": 430848,
          "time": 327.66393,
          "velocity": 0.905511811023622
        },
        {
          "duration": 0.2777699999999754,
          "durationTicks": 384,
          "midi": 77,
          "name": "F5",
          "ticks": 431616,
          "time": 328.21947,
          "velocity": 0.905511811023622
        },
        {
          "duration": 0.2777699999999754,
          "durationTicks": 384,
          "midi": 80,
          "name": "G#5",
          "ticks": 431616,
          "time": 328.21947,
          "velocity": 0.905511811023622
        },
        {
          "duration": 0.27777000000003227,
          "durationTicks": 384,
          "midi": 77,
          "name": "F5",
          "ticks": 432384,
          "time": 328.77500999999995,
          "velocity": 0.905511811023622
        },
        {
          "duration": 0.27777000000003227,
          "durationTicks": 384,
          "midi": 80,
          "name": "G#5",
          "ticks": 432384,
          "time": 328.77500999999995,
          "velocity": 0.905511811023622
        },
        {
          "duration": 0.27777000000003227,
          "durationTicks": 384,
          "midi": 79,
          "name": "G5",
          "ticks": 433152,
          "time": 329.33054999999996,
          "velocity": 0.905511811023622
        },
        {
          "duration": 0.27777000000003227,
          "durationTicks": 384,
          "midi": 79,
          "name": "G5",
          "ticks": 433152,
          "time": 329.33054999999996,
          "velocity": 0.905511811023622
        },
        {
          "duration": 0.27777000000003227,
          "durationTicks": 384,
          "midi": 79,
          "name": "G5",
          "ticks": 433920,
          "time": 329.88608999999997,
          "velocity": 0.905511811023622
        },
        {
          "duration": 0.27777000000003227,
          "durationTicks": 384,
          "midi": 79,
          "name": "G5",
          "ticks": 433920,
          "time": 329.88608999999997,
          "velocity": 0.905511811023622
        },
        {
          "duration": 0.2777699999999754,
          "durationTicks": 384,
          "midi": 79,
          "name": "G5",
          "ticks": 441600,
          "time": 335.44149,
          "velocity": 0.905511811023622
        },
        {
          "duration": 0.2777699999999754,
          "durationTicks": 384,
          "midi": 79,
          "name": "G5",
          "ticks": 441600,
          "time": 335.44149,
          "velocity": 0.905511811023622
        },
        {
          "duration": 0.27777000000003227,
          "durationTicks": 384,
          "midi": 79,
          "name": "G5",
          "ticks": 441984,
          "time": 335.71925999999996,
          "velocity": 0.905511811023622
        },
        {
          "duration": 0.27777000000003227,
          "durationTicks": 384,
          "midi": 79,
          "name": "G5",
          "ticks": 441984,
          "time": 335.71925999999996,
          "velocity": 0.905511811023622
        },
        {
          "duration": 0.5555399999999509,
          "durationTicks": 768,
          "midi": 79,
          "name": "G5",
          "ticks": 442368,
          "time": 335.99703,
          "velocity": 0.905511811023622
        },
        {
          "duration": 0.5555399999999509,
          "durationTicks": 768,
          "midi": 79,
          "name": "G5",
          "ticks": 442368,
          "time": 335.99703,
          "velocity": 0.905511811023622
        },
        {
          "duration": 0.27777000000003227,
          "durationTicks": 384,
          "midi": 79,
          "name": "G5",
          "ticks": 444672,
          "time": 337.66364999999996,
          "velocity": 0.905511811023622
        },
        {
          "duration": 0.27777000000003227,
          "durationTicks": 384,
          "midi": 79,
          "name": "G5",
          "ticks": 444672,
          "time": 337.66364999999996,
          "velocity": 0.905511811023622
        },
        {
          "duration": 0.2777699999999754,
          "durationTicks": 384,
          "midi": 79,
          "name": "G5",
          "ticks": 445056,
          "time": 337.94142,
          "velocity": 0.905511811023622
        },
        {
          "duration": 0.2777699999999754,
          "durationTicks": 384,
          "midi": 79,
          "name": "G5",
          "ticks": 445056,
          "time": 337.94142,
          "velocity": 0.905511811023622
        },
        {
          "duration": 0.5555400000000077,
          "durationTicks": 768,
          "midi": 79,
          "name": "G5",
          "ticks": 445440,
          "time": 338.21918999999997,
          "velocity": 0.905511811023622
        },
        {
          "duration": 0.5555400000000077,
          "durationTicks": 768,
          "midi": 79,
          "name": "G5",
          "ticks": 445440,
          "time": 338.21918999999997,
          "velocity": 0.905511811023622
        },
        {
          "duration": 0.2777699999999754,
          "durationTicks": 384,
          "midi": 75,
          "name": "D#5",
          "ticks": 446208,
          "time": 338.77473,
          "velocity": 0.905511811023622
        },
        {
          "duration": 0.2777699999999754,
          "durationTicks": 384,
          "midi": 75,
          "name": "D#5",
          "ticks": 446208,
          "time": 338.77473,
          "velocity": 0.905511811023622
        },
        {
          "duration": 0.27777000000003227,
          "durationTicks": 384,
          "midi": 75,
          "name": "D#5",
          "ticks": 446592,
          "time": 339.05249999999995,
          "velocity": 0.905511811023622
        },
        {
          "duration": 0.27777000000003227,
          "durationTicks": 384,
          "midi": 75,
          "name": "D#5",
          "ticks": 446592,
          "time": 339.05249999999995,
          "velocity": 0.905511811023622
        },
        {
          "duration": 0.2777699999999754,
          "durationTicks": 384,
          "midi": 77,
          "name": "F5",
          "ticks": 446976,
          "time": 339.33027,
          "velocity": 0.905511811023622
        },
        {
          "duration": 0.2777699999999754,
          "durationTicks": 384,
          "midi": 77,
          "name": "F5",
          "ticks": 446976,
          "time": 339.33027,
          "velocity": 0.905511811023622
        },
        {
          "duration": 0.27777000000003227,
          "durationTicks": 384,
          "midi": 63,
          "name": "D#4",
          "ticks": 447360,
          "time": 339.60803999999996,
          "velocity": 0.905511811023622
        },
        {
          "duration": 0.27777000000003227,
          "durationTicks": 384,
          "midi": 75,
          "name": "D#5",
          "ticks": 447360,
          "time": 339.60803999999996,
          "velocity": 0.905511811023622
        },
        {
          "duration": 0.27777000000003227,
          "durationTicks": 384,
          "midi": 77,
          "name": "F5",
          "ticks": 448512,
          "time": 340.44134999999994,
          "velocity": 0.905511811023622
        },
        {
          "duration": 0.27777000000003227,
          "durationTicks": 384,
          "midi": 80,
          "name": "G#5",
          "ticks": 448512,
          "time": 340.44134999999994,
          "velocity": 0.905511811023622
        },
        {
          "duration": 0.2777699999999754,
          "durationTicks": 384,
          "midi": 75,
          "name": "D#5",
          "ticks": 448896,
          "time": 340.71912,
          "velocity": 0.905511811023622
        },
        {
          "duration": 0.2777699999999754,
          "durationTicks": 384,
          "midi": 79,
          "name": "G5",
          "ticks": 448896,
          "time": 340.71912,
          "velocity": 0.905511811023622
        },
        {
          "duration": 0.27777000000003227,
          "durationTicks": 384,
          "midi": 77,
          "name": "F5",
          "ticks": 449280,
          "time": 340.99688999999995,
          "velocity": 0.905511811023622
        },
        {
          "duration": 0.27777000000003227,
          "durationTicks": 384,
          "midi": 80,
          "name": "G#5",
          "ticks": 449280,
          "time": 340.99688999999995,
          "velocity": 0.905511811023622
        },
        {
          "duration": 0.2777699999999754,
          "durationTicks": 384,
          "midi": 75,
          "name": "D#5",
          "ticks": 449664,
          "time": 341.27466,
          "velocity": 0.905511811023622
        },
        {
          "duration": 0.2777699999999754,
          "durationTicks": 384,
          "midi": 79,
          "name": "G5",
          "ticks": 449664,
          "time": 341.27466,
          "velocity": 0.905511811023622
        },
        {
          "duration": 0.2777699999999754,
          "durationTicks": 384,
          "midi": 75,
          "name": "D#5",
          "ticks": 450432,
          "time": 341.8302,
          "velocity": 0.905511811023622
        },
        {
          "duration": 0.2777699999999754,
          "durationTicks": 384,
          "midi": 75,
          "name": "D#5",
          "ticks": 450432,
          "time": 341.8302,
          "velocity": 0.905511811023622
        },
        {
          "duration": 0.27777000000003227,
          "durationTicks": 384,
          "midi": 79,
          "name": "G5",
          "ticks": 451200,
          "time": 342.38573999999994,
          "velocity": 0.905511811023622
        },
        {
          "duration": 0.27777000000003227,
          "durationTicks": 384,
          "midi": 79,
          "name": "G5",
          "ticks": 451200,
          "time": 342.38573999999994,
          "velocity": 0.905511811023622
        },
        {
          "duration": 0.2777699999999754,
          "durationTicks": 384,
          "midi": 77,
          "name": "F5",
          "ticks": 453120,
          "time": 343.77459,
          "velocity": 0.905511811023622
        },
        {
          "duration": 0.2777699999999754,
          "durationTicks": 384,
          "midi": 80,
          "name": "G#5",
          "ticks": 453120,
          "time": 343.77459,
          "velocity": 0.905511811023622
        },
        {
          "duration": 0.2777699999999754,
          "durationTicks": 384,
          "midi": 75,
          "name": "D#5",
          "ticks": 453504,
          "time": 344.05235999999996,
          "velocity": 0.905511811023622
        },
        {
          "duration": 0.2777699999999754,
          "durationTicks": 384,
          "midi": 79,
          "name": "G5",
          "ticks": 453504,
          "time": 344.05235999999996,
          "velocity": 0.905511811023622
        },
        {
          "duration": 0.27777000000003227,
          "durationTicks": 384,
          "midi": 77,
          "name": "F5",
          "ticks": 453888,
          "time": 344.33012999999994,
          "velocity": 0.905511811023622
        },
        {
          "duration": 0.27777000000003227,
          "durationTicks": 384,
          "midi": 80,
          "name": "G#5",
          "ticks": 453888,
          "time": 344.33012999999994,
          "velocity": 0.905511811023622
        },
        {
          "duration": 0.27777000000003227,
          "durationTicks": 384,
          "midi": 75,
          "name": "D#5",
          "ticks": 454272,
          "time": 344.6079,
          "velocity": 0.905511811023622
        },
        {
          "duration": 0.27777000000003227,
          "durationTicks": 384,
          "midi": 79,
          "name": "G5",
          "ticks": 454272,
          "time": 344.6079,
          "velocity": 0.905511811023622
        },
        {
          "duration": 0.2777699999999754,
          "durationTicks": 384,
          "midi": 77,
          "name": "F5",
          "ticks": 454656,
          "time": 344.88567,
          "velocity": 0.905511811023622
        },
        {
          "duration": 0.2777699999999754,
          "durationTicks": 384,
          "midi": 80,
          "name": "G#5",
          "ticks": 454656,
          "time": 344.88567,
          "velocity": 0.905511811023622
        },
        {
          "duration": 0.2777699999999754,
          "durationTicks": 384,
          "midi": 75,
          "name": "D#5",
          "ticks": 455040,
          "time": 345.16344,
          "velocity": 0.905511811023622
        },
        {
          "duration": 0.2777699999999754,
          "durationTicks": 384,
          "midi": 79,
          "name": "G5",
          "ticks": 455040,
          "time": 345.16344,
          "velocity": 0.905511811023622
        },
        {
          "duration": 0.27777000000003227,
          "durationTicks": 384,
          "midi": 77,
          "name": "F5",
          "ticks": 455424,
          "time": 345.44120999999996,
          "velocity": 0.905511811023622
        },
        {
          "duration": 0.27777000000003227,
          "durationTicks": 384,
          "midi": 80,
          "name": "G#5",
          "ticks": 455424,
          "time": 345.44120999999996,
          "velocity": 0.905511811023622
        },
        {
          "duration": 0.2777699999999754,
          "durationTicks": 384,
          "midi": 75,
          "name": "D#5",
          "ticks": 455808,
          "time": 345.71898,
          "velocity": 0.905511811023622
        },
        {
          "duration": 0.2777699999999754,
          "durationTicks": 384,
          "midi": 79,
          "name": "G5",
          "ticks": 455808,
          "time": 345.71898,
          "velocity": 0.905511811023622
        },
        {
          "duration": 0.27777000000003227,
          "durationTicks": 384,
          "midi": 79,
          "name": "G5",
          "ticks": 456576,
          "time": 346.27451999999994,
          "velocity": 0.905511811023622
        },
        {
          "duration": 0.27777000000003227,
          "durationTicks": 384,
          "midi": 79,
          "name": "G5",
          "ticks": 456576,
          "time": 346.27451999999994,
          "velocity": 0.905511811023622
        },
        {
          "duration": 0.2777699999999754,
          "durationTicks": 384,
          "midi": 79,
          "name": "G5",
          "ticks": 457344,
          "time": 346.83006,
          "velocity": 0.905511811023622
        },
        {
          "duration": 0.2777699999999754,
          "durationTicks": 384,
          "midi": 79,
          "name": "G5",
          "ticks": 457344,
          "time": 346.83006,
          "velocity": 0.905511811023622
        },
        {
          "duration": 0.2777699999999754,
          "durationTicks": 384,
          "midi": 75,
          "name": "D#5",
          "ticks": 457728,
          "time": 347.10783,
          "velocity": 0.905511811023622
        },
        {
          "duration": 0.2777699999999754,
          "durationTicks": 384,
          "midi": 79,
          "name": "G5",
          "ticks": 457728,
          "time": 347.10783,
          "velocity": 0.905511811023622
        },
        {
          "duration": 0.2777699999999754,
          "durationTicks": 384,
          "midi": 77,
          "name": "F5",
          "ticks": 461184,
          "time": 349.60776,
          "velocity": 0.905511811023622
        },
        {
          "duration": 0.2777699999999754,
          "durationTicks": 384,
          "midi": 79,
          "name": "G5",
          "ticks": 461184,
          "time": 349.60776,
          "velocity": 0.905511811023622
        },
        {
          "duration": 0.27777000000003227,
          "durationTicks": 384,
          "midi": 75,
          "name": "D#5",
          "ticks": 461568,
          "time": 349.88552999999996,
          "velocity": 0.905511811023622
        },
        {
          "duration": 0.27777000000003227,
          "durationTicks": 384,
          "midi": 79,
          "name": "G5",
          "ticks": 461568,
          "time": 349.88552999999996,
          "velocity": 0.905511811023622
        },
        {
          "duration": 0.2777699999999754,
          "durationTicks": 384,
          "midi": 77,
          "name": "F5",
          "ticks": 461952,
          "time": 350.1633,
          "velocity": 0.905511811023622
        },
        {
          "duration": 0.2777699999999754,
          "durationTicks": 384,
          "midi": 79,
          "name": "G5",
          "ticks": 461952,
          "time": 350.1633,
          "velocity": 0.905511811023622
        },
        {
          "duration": 0.27777000000003227,
          "durationTicks": 384,
          "midi": 75,
          "name": "D#5",
          "ticks": 462336,
          "time": 350.44106999999997,
          "velocity": 0.905511811023622
        },
        {
          "duration": 0.27777000000003227,
          "durationTicks": 384,
          "midi": 75,
          "name": "D#5",
          "ticks": 462336,
          "time": 350.44106999999997,
          "velocity": 0.905511811023622
        },
        {
          "duration": 0.1388849999999593,
          "durationTicks": 192,
          "midi": 79,
          "name": "G5",
          "ticks": 463296,
          "time": 351.135495,
          "velocity": 0.905511811023622
        },
        {
          "duration": 0.1388849999999593,
          "durationTicks": 192,
          "midi": 79,
          "name": "G5",
          "ticks": 463296,
          "time": 351.135495,
          "velocity": 0.905511811023622
        },
        {
          "duration": 0.13888500000001613,
          "durationTicks": 192,
          "midi": 79,
          "name": "G5",
          "ticks": 463488,
          "time": 351.27437999999995,
          "velocity": 0.905511811023622
        },
        {
          "duration": 0.13888500000001613,
          "durationTicks": 192,
          "midi": 79,
          "name": "G5",
          "ticks": 463488,
          "time": 351.27437999999995,
          "velocity": 0.905511811023622
        },
        {
          "duration": 0.13888500000001613,
          "durationTicks": 192,
          "midi": 79,
          "name": "G5",
          "ticks": 463680,
          "time": 351.41326499999997,
          "velocity": 0.905511811023622
        },
        {
          "duration": 0.13888500000001613,
          "durationTicks": 192,
          "midi": 79,
          "name": "G5",
          "ticks": 463680,
          "time": 351.41326499999997,
          "velocity": 0.905511811023622
        },
        {
          "duration": 0.1388849999999593,
          "durationTicks": 192,
          "midi": 79,
          "name": "G5",
          "ticks": 463872,
          "time": 351.55215,
          "velocity": 0.905511811023622
        },
        {
          "duration": 0.1388849999999593,
          "durationTicks": 192,
          "midi": 79,
          "name": "G5",
          "ticks": 463872,
          "time": 351.55215,
          "velocity": 0.905511811023622
        },
        {
          "duration": 0.13888500000001613,
          "durationTicks": 192,
          "midi": 79,
          "name": "G5",
          "ticks": 464064,
          "time": 351.69103499999994,
          "velocity": 0.905511811023622
        },
        {
          "duration": 0.13888500000001613,
          "durationTicks": 192,
          "midi": 79,
          "name": "G5",
          "ticks": 464064,
          "time": 351.69103499999994,
          "velocity": 0.905511811023622
        },
        {
          "duration": 0.13888500000001613,
          "durationTicks": 192,
          "midi": 79,
          "name": "G5",
          "ticks": 464256,
          "time": 351.82991999999996,
          "velocity": 0.905511811023622
        },
        {
          "duration": 0.13888500000001613,
          "durationTicks": 192,
          "midi": 79,
          "name": "G5",
          "ticks": 464256,
          "time": 351.82991999999996,
          "velocity": 0.905511811023622
        },
        {
          "duration": 0.13888500000001613,
          "durationTicks": 192,
          "midi": 79,
          "name": "G5",
          "ticks": 464448,
          "time": 351.968805,
          "velocity": 0.905511811023622
        },
        {
          "duration": 0.13888500000001613,
          "durationTicks": 192,
          "midi": 79,
          "name": "G5",
          "ticks": 464448,
          "time": 351.968805,
          "velocity": 0.905511811023622
        },
        {
          "duration": 0.13888500000001613,
          "durationTicks": 192,
          "midi": 79,
          "name": "G5",
          "ticks": 464640,
          "time": 352.10769,
          "velocity": 0.905511811023622
        },
        {
          "duration": 0.13888500000001613,
          "durationTicks": 192,
          "midi": 79,
          "name": "G5",
          "ticks": 464640,
          "time": 352.10769,
          "velocity": 0.905511811023622
        },
        {
          "duration": 0.1388849999999593,
          "durationTicks": 192,
          "midi": 79,
          "name": "G5",
          "ticks": 464832,
          "time": 352.246575,
          "velocity": 0.905511811023622
        },
        {
          "duration": 0.1388849999999593,
          "durationTicks": 192,
          "midi": 79,
          "name": "G5",
          "ticks": 464832,
          "time": 352.246575,
          "velocity": 0.905511811023622
        },
        {
          "duration": 0.13888500000001613,
          "durationTicks": 192,
          "midi": 79,
          "name": "G5",
          "ticks": 465024,
          "time": 352.38545999999997,
          "velocity": 0.905511811023622
        },
        {
          "duration": 0.13888500000001613,
          "durationTicks": 192,
          "midi": 79,
          "name": "G5",
          "ticks": 465024,
          "time": 352.38545999999997,
          "velocity": 0.905511811023622
        },
        {
          "duration": 0.13888500000001613,
          "durationTicks": 192,
          "midi": 79,
          "name": "G5",
          "ticks": 465216,
          "time": 352.524345,
          "velocity": 0.905511811023622
        },
        {
          "duration": 0.13888500000001613,
          "durationTicks": 192,
          "midi": 79,
          "name": "G5",
          "ticks": 465216,
          "time": 352.524345,
          "velocity": 0.905511811023622
        },
        {
          "duration": 1.0908999999999764,
          "durationTicks": 768,
          "midi": 75,
          "name": "D#5",
          "ticks": 465408,
          "time": 352.66323,
          "velocity": 0.968503937007874
        },
        {
          "duration": 1.0908999999999764,
          "durationTicks": 768,
          "midi": 75,
          "name": "D#5",
          "ticks": 465408,
          "time": 352.66323,
          "velocity": 0.968503937007874
        },
        {
          "duration": 0.1388849999999593,
          "durationTicks": 192,
          "midi": 79,
          "name": "G5",
          "ticks": 466368,
          "time": 353.893015,
          "velocity": 0.968503937007874
        },
        {
          "duration": 0.1388849999999593,
          "durationTicks": 192,
          "midi": 79,
          "name": "G5",
          "ticks": 466368,
          "time": 353.893015,
          "velocity": 0.968503937007874
        },
        {
          "duration": 0.13888500000001613,
          "durationTicks": 192,
          "midi": 79,
          "name": "G5",
          "ticks": 466560,
          "time": 354.03189999999995,
          "velocity": 0.968503937007874
        },
        {
          "duration": 0.13888500000001613,
          "durationTicks": 192,
          "midi": 79,
          "name": "G5",
          "ticks": 466560,
          "time": 354.03189999999995,
          "velocity": 0.968503937007874
        },
        {
          "duration": 0.13888500000001613,
          "durationTicks": 192,
          "midi": 79,
          "name": "G5",
          "ticks": 466752,
          "time": 354.17078499999997,
          "velocity": 0.968503937007874
        },
        {
          "duration": 0.13888500000001613,
          "durationTicks": 192,
          "midi": 79,
          "name": "G5",
          "ticks": 466752,
          "time": 354.17078499999997,
          "velocity": 0.968503937007874
        },
        {
          "duration": 1.7555399999999963,
          "durationTicks": 1536,
          "midi": 79,
          "name": "G5",
          "ticks": 466944,
          "time": 354.30967,
          "velocity": 0.968503937007874
        },
        {
          "duration": 1.7555399999999963,
          "durationTicks": 1536,
          "midi": 79,
          "name": "G5",
          "ticks": 466944,
          "time": 354.30967,
          "velocity": 0.968503937007874
        },
        {
          "duration": 0.1415049999999951,
          "durationTicks": 192,
          "midi": 79,
          "name": "G5",
          "ticks": 474816,
          "time": 360.734875,
          "velocity": 0.968503937007874
        },
        {
          "duration": 0.1415049999999951,
          "durationTicks": 192,
          "midi": 79,
          "name": "G5",
          "ticks": 474816,
          "time": 360.734875,
          "velocity": 0.968503937007874
        },
        {
          "duration": 0.1415049999999951,
          "durationTicks": 192,
          "midi": 79,
          "name": "G5",
          "ticks": 475008,
          "time": 360.87638,
          "velocity": 0.968503937007874
        },
        {
          "duration": 0.1415049999999951,
          "durationTicks": 192,
          "midi": 79,
          "name": "G5",
          "ticks": 475008,
          "time": 360.87638,
          "velocity": 0.968503937007874
        },
        {
          "duration": 0.1415049999999951,
          "durationTicks": 192,
          "midi": 79,
          "name": "G5",
          "ticks": 475200,
          "time": 361.017885,
          "velocity": 0.968503937007874
        },
        {
          "duration": 0.1415049999999951,
          "durationTicks": 192,
          "midi": 79,
          "name": "G5",
          "ticks": 475200,
          "time": 361.017885,
          "velocity": 0.968503937007874
        },
        {
          "duration": 0.2830099999999902,
          "durationTicks": 384,
          "midi": 79,
          "name": "G5",
          "ticks": 475392,
          "time": 361.15939,
          "velocity": 0.968503937007874
        },
        {
          "duration": 0.2830099999999902,
          "durationTicks": 384,
          "midi": 79,
          "name": "G5",
          "ticks": 475392,
          "time": 361.15939,
          "velocity": 0.968503937007874
        },
        {
          "duration": 0.1415049999999951,
          "durationTicks": 192,
          "midi": 79,
          "name": "G5",
          "ticks": 476352,
          "time": 361.866915,
          "velocity": 0.968503937007874
        },
        {
          "duration": 0.1415049999999951,
          "durationTicks": 192,
          "midi": 79,
          "name": "G5",
          "ticks": 476352,
          "time": 361.866915,
          "velocity": 0.968503937007874
        },
        {
          "duration": 0.1415049999999951,
          "durationTicks": 192,
          "midi": 79,
          "name": "G5",
          "ticks": 476544,
          "time": 362.00842,
          "velocity": 0.968503937007874
        },
        {
          "duration": 0.1415049999999951,
          "durationTicks": 192,
          "midi": 79,
          "name": "G5",
          "ticks": 476544,
          "time": 362.00842,
          "velocity": 0.968503937007874
        },
        {
          "duration": 0.1415049999999951,
          "durationTicks": 192,
          "midi": 79,
          "name": "G5",
          "ticks": 476736,
          "time": 362.149925,
          "velocity": 0.968503937007874
        },
        {
          "duration": 0.1415049999999951,
          "durationTicks": 192,
          "midi": 79,
          "name": "G5",
          "ticks": 476736,
          "time": 362.149925,
          "velocity": 0.968503937007874
        },
        {
          "duration": 0.2830099999999902,
          "durationTicks": 384,
          "midi": 79,
          "name": "G5",
          "ticks": 476928,
          "time": 362.29143,
          "velocity": 0.968503937007874
        },
        {
          "duration": 0.2830099999999902,
          "durationTicks": 384,
          "midi": 79,
          "name": "G5",
          "ticks": 476928,
          "time": 362.29143,
          "velocity": 0.968503937007874
        },
        {
          "duration": 0.1415049999999951,
          "durationTicks": 192,
          "midi": 79,
          "name": "G5",
          "ticks": 477888,
          "time": 362.99895499999997,
          "velocity": 0.968503937007874
        },
        {
          "duration": 0.1415049999999951,
          "durationTicks": 192,
          "midi": 79,
          "name": "G5",
          "ticks": 477888,
          "time": 362.99895499999997,
          "velocity": 0.968503937007874
        },
        {
          "duration": 0.1415049999999951,
          "durationTicks": 192,
          "midi": 79,
          "name": "G5",
          "ticks": 478080,
          "time": 363.14045999999996,
          "velocity": 0.968503937007874
        },
        {
          "duration": 0.1415049999999951,
          "durationTicks": 192,
          "midi": 79,
          "name": "G5",
          "ticks": 478080,
          "time": 363.14045999999996,
          "velocity": 0.968503937007874
        },
        {
          "duration": 0.1415049999999951,
          "durationTicks": 192,
          "midi": 79,
          "name": "G5",
          "ticks": 478272,
          "time": 363.28196499999996,
          "velocity": 0.968503937007874
        },
        {
          "duration": 0.1415049999999951,
          "durationTicks": 192,
          "midi": 79,
          "name": "G5",
          "ticks": 478272,
          "time": 363.28196499999996,
          "velocity": 0.968503937007874
        },
        {
          "duration": 0.28301000000004706,
          "durationTicks": 384,
          "midi": 79,
          "name": "G5",
          "ticks": 478464,
          "time": 363.42346999999995,
          "velocity": 0.968503937007874
        },
        {
          "duration": 0.28301000000004706,
          "durationTicks": 384,
          "midi": 79,
          "name": "G5",
          "ticks": 478464,
          "time": 363.42346999999995,
          "velocity": 0.968503937007874
        },
        {
          "duration": 0.2830099999999902,
          "durationTicks": 384,
          "midi": 79,
          "name": "G5",
          "ticks": 478848,
          "time": 363.70648,
          "velocity": 0.968503937007874
        },
        {
          "duration": 0.2830099999999902,
          "durationTicks": 384,
          "midi": 79,
          "name": "G5",
          "ticks": 478848,
          "time": 363.70648,
          "velocity": 0.968503937007874
        },
        {
          "duration": 0.2830099999999902,
          "durationTicks": 384,
          "midi": 79,
          "name": "G5",
          "ticks": 479232,
          "time": 363.98949,
          "velocity": 0.968503937007874
        },
        {
          "duration": 0.2830099999999902,
          "durationTicks": 384,
          "midi": 79,
          "name": "G5",
          "ticks": 479232,
          "time": 363.98949,
          "velocity": 0.968503937007874
        },
        {
          "duration": 0.2830099999999902,
          "durationTicks": 384,
          "midi": 79,
          "name": "G5",
          "ticks": 479616,
          "time": 364.2725,
          "velocity": 0.968503937007874
        },
        {
          "duration": 0.2830099999999902,
          "durationTicks": 384,
          "midi": 79,
          "name": "G5",
          "ticks": 479616,
          "time": 364.2725,
          "velocity": 0.968503937007874
        },
        {
          "duration": 0.2830099999999902,
          "durationTicks": 384,
          "midi": 79,
          "name": "G5",
          "ticks": 480000,
          "time": 364.55550999999997,
          "velocity": 0.968503937007874
        },
        {
          "duration": 0.2830099999999902,
          "durationTicks": 384,
          "midi": 79,
          "name": "G5",
          "ticks": 480000,
          "time": 364.55550999999997,
          "velocity": 0.968503937007874
        },
        {
          "duration": 0.28301000000004706,
          "durationTicks": 384,
          "midi": 79,
          "name": "G5",
          "ticks": 480384,
          "time": 364.83851999999996,
          "velocity": 0.968503937007874
        },
        {
          "duration": 0.28301000000004706,
          "durationTicks": 384,
          "midi": 79,
          "name": "G5",
          "ticks": 480384,
          "time": 364.83851999999996,
          "velocity": 0.968503937007874
        },
        {
          "duration": 0.2830099999999902,
          "durationTicks": 384,
          "midi": 79,
          "name": "G5",
          "ticks": 480768,
          "time": 365.12153,
          "velocity": 0.968503937007874
        },
        {
          "duration": 0.2830099999999902,
          "durationTicks": 384,
          "midi": 79,
          "name": "G5",
          "ticks": 480768,
          "time": 365.12153,
          "velocity": 0.968503937007874
        },
        {
          "duration": 0.2830099999999902,
          "durationTicks": 384,
          "midi": 79,
          "name": "G5",
          "ticks": 481152,
          "time": 365.40454,
          "velocity": 0.968503937007874
        },
        {
          "duration": 0.2830099999999902,
          "durationTicks": 384,
          "midi": 79,
          "name": "G5",
          "ticks": 481152,
          "time": 365.40454,
          "velocity": 0.968503937007874
        },
        {
          "duration": 0.2830099999999902,
          "durationTicks": 384,
          "midi": 79,
          "name": "G5",
          "ticks": 481536,
          "time": 365.68755,
          "velocity": 0.968503937007874
        },
        {
          "duration": 0.2830099999999902,
          "durationTicks": 384,
          "midi": 79,
          "name": "G5",
          "ticks": 481536,
          "time": 365.68755,
          "velocity": 0.968503937007874
        },
        {
          "duration": 0.2830099999999902,
          "durationTicks": 384,
          "midi": 79,
          "name": "G5",
          "ticks": 482304,
          "time": 366.25356999999997,
          "velocity": 0.968503937007874
        },
        {
          "duration": 0.2830099999999902,
          "durationTicks": 384,
          "midi": 79,
          "name": "G5",
          "ticks": 482304,
          "time": 366.25356999999997,
          "velocity": 0.968503937007874
        },
        {
          "duration": 0.2830099999999902,
          "durationTicks": 384,
          "midi": 79,
          "name": "G5",
          "ticks": 483072,
          "time": 366.81959,
          "velocity": 0.968503937007874
        },
        {
          "duration": 0.2830099999999902,
          "durationTicks": 384,
          "midi": 79,
          "name": "G5",
          "ticks": 483072,
          "time": 366.81959,
          "velocity": 0.968503937007874
        }
      ],
      "endOfTrackTicks": 484608
    },
    {
      "channel": 5,
      "controlChanges": {},
      "pitchBends": [],
      "instrument": {
        "family": "brass",
        "number": 56,
        "name": "trumpet"
      },
      "name": "TRUMPET",
      "notes": [
        {
          "duration": 0.1442300000000003,
          "durationTicks": 192,
          "midi": 55,
          "name": "G3",
          "ticks": 13248,
          "time": 11.06727,
          "velocity": 0.7165354330708661
        },
        {
          "duration": 0.1442300000000003,
          "durationTicks": 192,
          "midi": 67,
          "name": "G4",
          "ticks": 13248,
          "time": 11.06727,
          "velocity": 0.7165354330708661
        },
        {
          "duration": 0.14422999999999853,
          "durationTicks": 192,
          "midi": 55,
          "name": "G3",
          "ticks": 13440,
          "time": 11.211500000000001,
          "velocity": 0.7952755905511811
        },
        {
          "duration": 0.14422999999999853,
          "durationTicks": 192,
          "midi": 67,
          "name": "G4",
          "ticks": 13440,
          "time": 11.211500000000001,
          "velocity": 0.7952755905511811
        },
        {
          "duration": 0.1442300000000003,
          "durationTicks": 192,
          "midi": 55,
          "name": "G3",
          "ticks": 13632,
          "time": 11.35573,
          "velocity": 0.8582677165354331
        },
        {
          "duration": 0.1442300000000003,
          "durationTicks": 192,
          "midi": 67,
          "name": "G4",
          "ticks": 13632,
          "time": 11.35573,
          "velocity": 0.8582677165354331
        },
        {
          "duration": 0.28845999999999883,
          "durationTicks": 384,
          "midi": 60,
          "name": "C4",
          "ticks": 13824,
          "time": 11.49996,
          "velocity": 0.905511811023622
        },
        {
          "duration": 0.28845999999999883,
          "durationTicks": 384,
          "midi": 72,
          "name": "C5",
          "ticks": 13824,
          "time": 11.49996,
          "velocity": 0.905511811023622
        },
        {
          "duration": 0.2884600000000006,
          "durationTicks": 384,
          "midi": 60,
          "name": "C4",
          "ticks": 14592,
          "time": 12.07688,
          "velocity": 0.905511811023622
        },
        {
          "duration": 0.2884600000000006,
          "durationTicks": 384,
          "midi": 72,
          "name": "C5",
          "ticks": 14592,
          "time": 12.07688,
          "velocity": 0.905511811023622
        },
        {
          "duration": 0.28845999999999883,
          "durationTicks": 384,
          "midi": 55,
          "name": "G3",
          "ticks": 15360,
          "time": 12.6538,
          "velocity": 0.905511811023622
        },
        {
          "duration": 0.28845999999999883,
          "durationTicks": 384,
          "midi": 67,
          "name": "G4",
          "ticks": 15360,
          "time": 12.6538,
          "velocity": 0.905511811023622
        },
        {
          "duration": 0.2803699999999978,
          "durationTicks": 384,
          "midi": 60,
          "name": "C4",
          "ticks": 32256,
          "time": 27.317,
          "velocity": 0.905511811023622
        },
        {
          "duration": 0.2803699999999978,
          "durationTicks": 384,
          "midi": 72,
          "name": "C5",
          "ticks": 32256,
          "time": 27.317,
          "velocity": 0.905511811023622
        },
        {
          "duration": 0.2777700000000003,
          "durationTicks": 384,
          "midi": 60,
          "name": "C4",
          "ticks": 33024,
          "time": 27.87774,
          "velocity": 0.905511811023622
        },
        {
          "duration": 0.2777700000000003,
          "durationTicks": 384,
          "midi": 72,
          "name": "C5",
          "ticks": 33024,
          "time": 27.87774,
          "velocity": 0.905511811023622
        },
        {
          "duration": 0.13888500000000192,
          "durationTicks": 192,
          "midi": 60,
          "name": "C4",
          "ticks": 35712,
          "time": 29.822129999999998,
          "velocity": 0.905511811023622
        },
        {
          "duration": 0.13888500000000192,
          "durationTicks": 192,
          "midi": 72,
          "name": "C5",
          "ticks": 35712,
          "time": 29.822129999999998,
          "velocity": 0.905511811023622
        },
        {
          "duration": 0.13888499999999837,
          "durationTicks": 192,
          "midi": 60,
          "name": "C4",
          "ticks": 35904,
          "time": 29.961015,
          "velocity": 0.905511811023622
        },
        {
          "duration": 0.13888499999999837,
          "durationTicks": 192,
          "midi": 72,
          "name": "C5",
          "ticks": 35904,
          "time": 29.961015,
          "velocity": 0.905511811023622
        },
        {
          "duration": 0.2777700000000003,
          "durationTicks": 384,
          "midi": 55,
          "name": "G3",
          "ticks": 36096,
          "time": 30.099899999999998,
          "velocity": 0.905511811023622
        },
        {
          "duration": 0.2777700000000003,
          "durationTicks": 384,
          "midi": 67,
          "name": "G4",
          "ticks": 36096,
          "time": 30.099899999999998,
          "velocity": 0.905511811023622
        },
        {
          "duration": 0.13888500000000192,
          "durationTicks": 192,
          "midi": 60,
          "name": "C4",
          "ticks": 38784,
          "time": 32.04429,
          "velocity": 0.905511811023622
        },
        {
          "duration": 0.13888500000000192,
          "durationTicks": 192,
          "midi": 72,
          "name": "C5",
          "ticks": 38784,
          "time": 32.04429,
          "velocity": 0.905511811023622
        },
        {
          "duration": 0.13888500000000192,
          "durationTicks": 192,
          "midi": 60,
          "name": "C4",
          "ticks": 38976,
          "time": 32.183175,
          "velocity": 0.905511811023622
        },
        {
          "duration": 0.13888500000000192,
          "durationTicks": 192,
          "midi": 72,
          "name": "C5",
          "ticks": 38976,
          "time": 32.183175,
          "velocity": 0.905511811023622
        },
        {
          "duration": 2.2221599999999953,
          "durationTicks": 3072,
          "midi": 60,
          "name": "C4",
          "ticks": 39168,
          "time": 32.32206,
          "velocity": 0.968503937007874
        },
        {
          "duration": 2.2221599999999953,
          "durationTicks": 3072,
          "midi": 72,
          "name": "C5",
          "ticks": 39168,
          "time": 32.32206,
          "velocity": 0.968503937007874
        },
        {
          "duration": 0.27777000000000385,
          "durationTicks": 384,
          "midi": 60,
          "name": "C4",
          "ticks": 42240,
          "time": 34.544219999999996,
          "velocity": 0.968503937007874
        },
        {
          "duration": 0.27777000000000385,
          "durationTicks": 384,
          "midi": 72,
          "name": "C5",
          "ticks": 42240,
          "time": 34.544219999999996,
          "velocity": 0.968503937007874
        },
        {
          "duration": 0.8333100000000044,
          "durationTicks": 1152,
          "midi": 77,
          "name": "F5",
          "ticks": 71424,
          "time": 55.88908,
          "velocity": 0.968503937007874
        },
        {
          "duration": 0.8333100000000044,
          "durationTicks": 1152,
          "midi": 77,
          "name": "F5",
          "ticks": 71424,
          "time": 55.88908,
          "velocity": 0.968503937007874
        },
        {
          "duration": 0.27776999999999674,
          "durationTicks": 384,
          "midi": 55,
          "name": "G3",
          "ticks": 74496,
          "time": 58.11124,
          "velocity": 0.905511811023622
        },
        {
          "duration": 0.27776999999999674,
          "durationTicks": 384,
          "midi": 67,
          "name": "G4",
          "ticks": 74496,
          "time": 58.11124,
          "velocity": 0.905511811023622
        },
        {
          "duration": 0.27776999999999674,
          "durationTicks": 384,
          "midi": 60,
          "name": "C4",
          "ticks": 75264,
          "time": 58.66678,
          "velocity": 0.905511811023622
        },
        {
          "duration": 0.27776999999999674,
          "durationTicks": 384,
          "midi": 72,
          "name": "C5",
          "ticks": 75264,
          "time": 58.66678,
          "velocity": 0.905511811023622
        },
        {
          "duration": 1.1110800000000012,
          "durationTicks": 1536,
          "midi": 77,
          "name": "F5",
          "ticks": 77568,
          "time": 60.3334,
          "velocity": 0.968503937007874
        },
        {
          "duration": 1.1110800000000012,
          "durationTicks": 1536,
          "midi": 77,
          "name": "F5",
          "ticks": 77568,
          "time": 60.3334,
          "velocity": 0.968503937007874
        },
        {
          "duration": 0.27777000000000385,
          "durationTicks": 384,
          "midi": 79,
          "name": "G5",
          "ticks": 79104,
          "time": 61.44448,
          "velocity": 0.968503937007874
        },
        {
          "duration": 0.27777000000000385,
          "durationTicks": 384,
          "midi": 79,
          "name": "G5",
          "ticks": 79104,
          "time": 61.44448,
          "velocity": 0.968503937007874
        },
        {
          "duration": 0.27777000000000385,
          "durationTicks": 384,
          "midi": 67,
          "name": "G4",
          "ticks": 79488,
          "time": 61.72225,
          "velocity": 0.968503937007874
        },
        {
          "duration": 0.27777000000000385,
          "durationTicks": 384,
          "midi": 79,
          "name": "G5",
          "ticks": 79488,
          "time": 61.72225,
          "velocity": 0.968503937007874
        },
        {
          "duration": 0.27777000000000385,
          "durationTicks": 384,
          "midi": 55,
          "name": "G3",
          "ticks": 81024,
          "time": 62.833330000000004,
          "velocity": 0.968503937007874
        },
        {
          "duration": 0.27777000000000385,
          "durationTicks": 384,
          "midi": 67,
          "name": "G4",
          "ticks": 81024,
          "time": 62.833330000000004,
          "velocity": 0.968503937007874
        },
        {
          "duration": 0.27777000000000385,
          "durationTicks": 384,
          "midi": 60,
          "name": "C4",
          "ticks": 81792,
          "time": 63.38887,
          "velocity": 0.968503937007874
        },
        {
          "duration": 0.27777000000000385,
          "durationTicks": 384,
          "midi": 72,
          "name": "C5",
          "ticks": 81792,
          "time": 63.38887,
          "velocity": 0.968503937007874
        },
        {
          "duration": 0.1415049999999951,
          "durationTicks": 192,
          "midi": 55,
          "name": "G3",
          "ticks": 108480,
          "time": 84.044565,
          "velocity": 0.7165354330708661
        },
        {
          "duration": 0.1415049999999951,
          "durationTicks": 192,
          "midi": 67,
          "name": "G4",
          "ticks": 108480,
          "time": 84.044565,
          "velocity": 0.7165354330708661
        },
        {
          "duration": 0.1415049999999951,
          "durationTicks": 192,
          "midi": 55,
          "name": "G3",
          "ticks": 108672,
          "time": 84.18607,
          "velocity": 0.7952755905511811
        },
        {
          "duration": 0.1415049999999951,
          "durationTicks": 192,
          "midi": 67,
          "name": "G4",
          "ticks": 108672,
          "time": 84.18607,
          "velocity": 0.7952755905511811
        },
        {
          "duration": 0.14150500000000932,
          "durationTicks": 192,
          "midi": 55,
          "name": "G3",
          "ticks": 108864,
          "time": 84.327575,
          "velocity": 0.8582677165354331
        },
        {
          "duration": 0.14150500000000932,
          "durationTicks": 192,
          "midi": 67,
          "name": "G4",
          "ticks": 108864,
          "time": 84.327575,
          "velocity": 0.8582677165354331
        },
        {
          "duration": 0.2830100000000044,
          "durationTicks": 384,
          "midi": 60,
          "name": "C4",
          "ticks": 109056,
          "time": 84.46908,
          "velocity": 0.905511811023622
        },
        {
          "duration": 0.2830100000000044,
          "durationTicks": 384,
          "midi": 72,
          "name": "C5",
          "ticks": 109056,
          "time": 84.46908,
          "velocity": 0.905511811023622
        },
        {
          "duration": 0.2830100000000044,
          "durationTicks": 384,
          "midi": 60,
          "name": "C4",
          "ticks": 109824,
          "time": 85.0351,
          "velocity": 0.905511811023622
        },
        {
          "duration": 0.2830100000000044,
          "durationTicks": 384,
          "midi": 72,
          "name": "C5",
          "ticks": 109824,
          "time": 85.0351,
          "velocity": 0.905511811023622
        },
        {
          "duration": 0.2830099999999902,
          "durationTicks": 384,
          "midi": 55,
          "name": "G3",
          "ticks": 110592,
          "time": 85.60112000000001,
          "velocity": 0.905511811023622
        },
        {
          "duration": 0.2830099999999902,
          "durationTicks": 384,
          "midi": 67,
          "name": "G4",
          "ticks": 110592,
          "time": 85.60112000000001,
          "velocity": 0.905511811023622
        },
        {
          "duration": 0.2803700000000049,
          "durationTicks": 384,
          "midi": 60,
          "name": "C4",
          "ticks": 127488,
          "time": 99.79221000000001,
          "velocity": 0.905511811023622
        },
        {
          "duration": 0.2803700000000049,
          "durationTicks": 384,
          "midi": 72,
          "name": "C5",
          "ticks": 127488,
          "time": 99.79221000000001,
          "velocity": 0.905511811023622
        },
        {
          "duration": 0.27777000000000385,
          "durationTicks": 384,
          "midi": 60,
          "name": "C4",
          "ticks": 128256,
          "time": 100.35295,
          "velocity": 0.905511811023622
        },
        {
          "duration": 0.27777000000000385,
          "durationTicks": 384,
          "midi": 72,
          "name": "C5",
          "ticks": 128256,
          "time": 100.35295,
          "velocity": 0.905511811023622
        },
        {
          "duration": 0.13888500000000192,
          "durationTicks": 192,
          "midi": 60,
          "name": "C4",
          "ticks": 130944,
          "time": 102.29734,
          "velocity": 0.905511811023622
        },
        {
          "duration": 0.13888500000000192,
          "durationTicks": 192,
          "midi": 72,
          "name": "C5",
          "ticks": 130944,
          "time": 102.29734,
          "velocity": 0.905511811023622
        },
        {
          "duration": 0.13888500000000192,
          "durationTicks": 192,
          "midi": 60,
          "name": "C4",
          "ticks": 131136,
          "time": 102.43622500000001,
          "velocity": 0.905511811023622
        },
        {
          "duration": 0.13888500000000192,
          "durationTicks": 192,
          "midi": 72,
          "name": "C5",
          "ticks": 131136,
          "time": 102.43622500000001,
          "velocity": 0.905511811023622
        },
        {
          "duration": 0.27777000000000385,
          "durationTicks": 384,
          "midi": 55,
          "name": "G3",
          "ticks": 131328,
          "time": 102.57511000000001,
          "velocity": 0.905511811023622
        },
        {
          "duration": 0.27777000000000385,
          "durationTicks": 384,
          "midi": 67,
          "name": "G4",
          "ticks": 131328,
          "time": 102.57511000000001,
          "velocity": 0.905511811023622
        },
        {
          "duration": 0.13888500000000192,
          "durationTicks": 192,
          "midi": 60,
          "name": "C4",
          "ticks": 134016,
          "time": 104.51950000000001,
          "velocity": 0.905511811023622
        },
        {
          "duration": 0.13888500000000192,
          "durationTicks": 192,
          "midi": 72,
          "name": "C5",
          "ticks": 134016,
          "time": 104.51950000000001,
          "velocity": 0.905511811023622
        },
        {
          "duration": 0.13888500000000192,
          "durationTicks": 192,
          "midi": 60,
          "name": "C4",
          "ticks": 134208,
          "time": 104.65838500000001,
          "velocity": 0.905511811023622
        },
        {
          "duration": 0.13888500000000192,
          "durationTicks": 192,
          "midi": 72,
          "name": "C5",
          "ticks": 134208,
          "time": 104.65838500000001,
          "velocity": 0.905511811023622
        },
        {
          "duration": 2.222159999999988,
          "durationTicks": 3072,
          "midi": 60,
          "name": "C4",
          "ticks": 134400,
          "time": 104.79727000000001,
          "velocity": 0.968503937007874
        },
        {
          "duration": 2.222159999999988,
          "durationTicks": 3072,
          "midi": 72,
          "name": "C5",
          "ticks": 134400,
          "time": 104.79727000000001,
          "velocity": 0.968503937007874
        },
        {
          "duration": 0.27777000000000385,
          "durationTicks": 384,
          "midi": 60,
          "name": "C4",
          "ticks": 137472,
          "time": 107.01943,
          "velocity": 0.968503937007874
        },
        {
          "duration": 0.27777000000000385,
          "durationTicks": 384,
          "midi": 72,
          "name": "C5",
          "ticks": 137472,
          "time": 107.01943,
          "velocity": 0.968503937007874
        },
        {
          "duration": 0.8333100000000115,
          "durationTicks": 1152,
          "midi": 77,
          "name": "F5",
          "ticks": 166656,
          "time": 128.36429,
          "velocity": 0.968503937007874
        },
        {
          "duration": 0.8333100000000115,
          "durationTicks": 1152,
          "midi": 77,
          "name": "F5",
          "ticks": 166656,
          "time": 128.36429,
          "velocity": 0.968503937007874
        },
        {
          "duration": 0.27777000000000385,
          "durationTicks": 384,
          "midi": 55,
          "name": "G3",
          "ticks": 169728,
          "time": 130.58645,
          "velocity": 0.905511811023622
        },
        {
          "duration": 0.27777000000000385,
          "durationTicks": 384,
          "midi": 67,
          "name": "G4",
          "ticks": 169728,
          "time": 130.58645,
          "velocity": 0.905511811023622
        },
        {
          "duration": 0.27777000000000385,
          "durationTicks": 384,
          "midi": 60,
          "name": "C4",
          "ticks": 170496,
          "time": 131.14199000000002,
          "velocity": 0.905511811023622
        },
        {
          "duration": 0.27777000000000385,
          "durationTicks": 384,
          "midi": 72,
          "name": "C5",
          "ticks": 170496,
          "time": 131.14199000000002,
          "velocity": 0.905511811023622
        },
        {
          "duration": 1.111079999999987,
          "durationTicks": 1536,
          "midi": 77,
          "name": "F5",
          "ticks": 172800,
          "time": 132.80861000000002,
          "velocity": 0.968503937007874
        },
        {
          "duration": 1.111079999999987,
          "durationTicks": 1536,
          "midi": 77,
          "name": "F5",
          "ticks": 172800,
          "time": 132.80861000000002,
          "velocity": 0.968503937007874
        },
        {
          "duration": 0.27777000000000385,
          "durationTicks": 384,
          "midi": 79,
          "name": "G5",
          "ticks": 174336,
          "time": 133.91969,
          "velocity": 0.968503937007874
        },
        {
          "duration": 0.27777000000000385,
          "durationTicks": 384,
          "midi": 79,
          "name": "G5",
          "ticks": 174336,
          "time": 133.91969,
          "velocity": 0.968503937007874
        },
        {
          "duration": 0.27777000000000385,
          "durationTicks": 384,
          "midi": 67,
          "name": "G4",
          "ticks": 174720,
          "time": 134.19746,
          "velocity": 0.968503937007874
        },
        {
          "duration": 0.27777000000000385,
          "durationTicks": 384,
          "midi": 79,
          "name": "G5",
          "ticks": 174720,
          "time": 134.19746,
          "velocity": 0.968503937007874
        },
        {
          "duration": 0.27777000000000385,
          "durationTicks": 384,
          "midi": 55,
          "name": "G3",
          "ticks": 176256,
          "time": 135.30854000000002,
          "velocity": 0.968503937007874
        },
        {
          "duration": 0.27777000000000385,
          "durationTicks": 384,
          "midi": 67,
          "name": "G4",
          "ticks": 176256,
          "time": 135.30854000000002,
          "velocity": 0.968503937007874
        },
        {
          "duration": 0.27777000000000385,
          "durationTicks": 384,
          "midi": 60,
          "name": "C4",
          "ticks": 177024,
          "time": 135.86408,
          "velocity": 0.968503937007874
        },
        {
          "duration": 0.27777000000000385,
          "durationTicks": 384,
          "midi": 72,
          "name": "C5",
          "ticks": 177024,
          "time": 135.86408,
          "velocity": 0.968503937007874
        },
        {
          "duration": 0.30000000000001137,
          "durationTicks": 384,
          "midi": 55,
          "name": "G3",
          "ticks": 215808,
          "time": 165.51287000000002,
          "velocity": 0.6141732283464567
        },
        {
          "duration": 0.30000000000001137,
          "durationTicks": 384,
          "midi": 67,
          "name": "G4",
          "ticks": 215808,
          "time": 165.51287000000002,
          "velocity": 0.6141732283464567
        },
        {
          "duration": 0.29999999999998295,
          "durationTicks": 384,
          "midi": 60,
          "name": "C4",
          "ticks": 217344,
          "time": 166.71287000000004,
          "velocity": 0.6141732283464567
        },
        {
          "duration": 0.29999999999998295,
          "durationTicks": 384,
          "midi": 60,
          "name": "C4",
          "ticks": 217344,
          "time": 166.71287000000004,
          "velocity": 0.6141732283464567
        },
        {
          "duration": 0.30000000000001137,
          "durationTicks": 384,
          "midi": 60,
          "name": "C4",
          "ticks": 218880,
          "time": 167.91287000000003,
          "velocity": 0.6141732283464567
        },
        {
          "duration": 0.30000000000001137,
          "durationTicks": 384,
          "midi": 60,
          "name": "C4",
          "ticks": 218880,
          "time": 167.91287000000003,
          "velocity": 0.6141732283464567
        },
        {
          "duration": 0.29999999999998295,
          "durationTicks": 384,
          "midi": 55,
          "name": "G3",
          "ticks": 220416,
          "time": 169.11287000000004,
          "velocity": 0.6141732283464567
        },
        {
          "duration": 0.29999999999998295,
          "durationTicks": 384,
          "midi": 67,
          "name": "G4",
          "ticks": 220416,
          "time": 169.11287000000004,
          "velocity": 0.6141732283464567
        },
        {
          "duration": 0.30000000000001137,
          "durationTicks": 384,
          "midi": 55,
          "name": "G3",
          "ticks": 221952,
          "time": 170.31287000000003,
          "velocity": 0.6141732283464567
        },
        {
          "duration": 0.30000000000001137,
          "durationTicks": 384,
          "midi": 67,
          "name": "G4",
          "ticks": 221952,
          "time": 170.31287000000003,
          "velocity": 0.6141732283464567
        },
        {
          "duration": 1.200000000000017,
          "durationTicks": 1536,
          "midi": 72,
          "name": "C5",
          "ticks": 223488,
          "time": 171.51287000000002,
          "velocity": 0.905511811023622
        },
        {
          "duration": 1.200000000000017,
          "durationTicks": 1536,
          "midi": 72,
          "name": "C5",
          "ticks": 223488,
          "time": 171.51287000000002,
          "velocity": 0.905511811023622
        },
        {
          "duration": 0.29999999999998295,
          "durationTicks": 384,
          "midi": 60,
          "name": "C4",
          "ticks": 225024,
          "time": 172.71287000000004,
          "velocity": 0.905511811023622
        },
        {
          "duration": 0.29999999999998295,
          "durationTicks": 384,
          "midi": 72,
          "name": "C5",
          "ticks": 225024,
          "time": 172.71287000000004,
          "velocity": 0.905511811023622
        },
        {
          "duration": 0.15000000000000568,
          "durationTicks": 192,
          "midi": 64,
          "name": "E4",
          "ticks": 225984,
          "time": 173.46287000000004,
          "velocity": 0.905511811023622
        },
        {
          "duration": 0.15000000000000568,
          "durationTicks": 192,
          "midi": 76,
          "name": "E5",
          "ticks": 225984,
          "time": 173.46287000000004,
          "velocity": 0.905511811023622
        },
        {
          "duration": 0.14999999999997726,
          "durationTicks": 192,
          "midi": 64,
          "name": "E4",
          "ticks": 226176,
          "time": 173.61287000000004,
          "velocity": 0.905511811023622
        },
        {
          "duration": 0.14999999999997726,
          "durationTicks": 192,
          "midi": 76,
          "name": "E5",
          "ticks": 226176,
          "time": 173.61287000000004,
          "velocity": 0.905511811023622
        },
        {
          "duration": 0.15000000000000568,
          "durationTicks": 192,
          "midi": 64,
          "name": "E4",
          "ticks": 226368,
          "time": 173.76287000000002,
          "velocity": 0.905511811023622
        },
        {
          "duration": 0.15000000000000568,
          "durationTicks": 192,
          "midi": 76,
          "name": "E5",
          "ticks": 226368,
          "time": 173.76287000000002,
          "velocity": 0.905511811023622
        },
        {
          "duration": 1.200000000000017,
          "durationTicks": 1536,
          "midi": 64,
          "name": "E4",
          "ticks": 226560,
          "time": 173.91287000000003,
          "velocity": 0.905511811023622
        },
        {
          "duration": 1.200000000000017,
          "durationTicks": 1536,
          "midi": 76,
          "name": "E5",
          "ticks": 226560,
          "time": 173.91287000000003,
          "velocity": 0.905511811023622
        },
        {
          "duration": 0.29999999999998295,
          "durationTicks": 384,
          "midi": 64,
          "name": "E4",
          "ticks": 228096,
          "time": 175.11287000000004,
          "velocity": 0.905511811023622
        },
        {
          "duration": 0.29999999999998295,
          "durationTicks": 384,
          "midi": 76,
          "name": "E5",
          "ticks": 228096,
          "time": 175.11287000000004,
          "velocity": 0.905511811023622
        },
        {
          "duration": 0.14999999999997726,
          "durationTicks": 192,
          "midi": 67,
          "name": "G4",
          "ticks": 229056,
          "time": 175.86287000000004,
          "velocity": 0.905511811023622
        },
        {
          "duration": 0.14999999999997726,
          "durationTicks": 192,
          "midi": 79,
          "name": "G5",
          "ticks": 229056,
          "time": 175.86287000000004,
          "velocity": 0.905511811023622
        },
        {
          "duration": 0.15000000000000568,
          "durationTicks": 192,
          "midi": 67,
          "name": "G4",
          "ticks": 229248,
          "time": 176.01287000000002,
          "velocity": 0.905511811023622
        },
        {
          "duration": 0.15000000000000568,
          "durationTicks": 192,
          "midi": 79,
          "name": "G5",
          "ticks": 229248,
          "time": 176.01287000000002,
          "velocity": 0.905511811023622
        },
        {
          "duration": 0.15000000000000568,
          "durationTicks": 192,
          "midi": 67,
          "name": "G4",
          "ticks": 229440,
          "time": 176.16287000000003,
          "velocity": 0.905511811023622
        },
        {
          "duration": 0.15000000000000568,
          "durationTicks": 192,
          "midi": 79,
          "name": "G5",
          "ticks": 229440,
          "time": 176.16287000000003,
          "velocity": 0.905511811023622
        },
        {
          "duration": 0.30000000000001137,
          "durationTicks": 384,
          "midi": 67,
          "name": "G4",
          "ticks": 229632,
          "time": 176.31287000000003,
          "velocity": 0.905511811023622
        },
        {
          "duration": 0.30000000000001137,
          "durationTicks": 384,
          "midi": 79,
          "name": "G5",
          "ticks": 229632,
          "time": 176.31287000000003,
          "velocity": 0.905511811023622
        },
        {
          "duration": 0.15000000000000568,
          "durationTicks": 192,
          "midi": 67,
          "name": "G4",
          "ticks": 230784,
          "time": 177.21287000000004,
          "velocity": 0.905511811023622
        },
        {
          "duration": 0.15000000000000568,
          "durationTicks": 192,
          "midi": 79,
          "name": "G5",
          "ticks": 230784,
          "time": 177.21287000000004,
          "velocity": 0.905511811023622
        },
        {
          "duration": 0.14999999999997726,
          "durationTicks": 192,
          "midi": 67,
          "name": "G4",
          "ticks": 230976,
          "time": 177.36287000000004,
          "velocity": 0.905511811023622
        },
        {
          "duration": 0.14999999999997726,
          "durationTicks": 192,
          "midi": 79,
          "name": "G5",
          "ticks": 230976,
          "time": 177.36287000000004,
          "velocity": 0.905511811023622
        },
        {
          "duration": 0.30000000000001137,
          "durationTicks": 384,
          "midi": 67,
          "name": "G4",
          "ticks": 231168,
          "time": 177.51287000000002,
          "velocity": 0.905511811023622
        },
        {
          "duration": 0.30000000000001137,
          "durationTicks": 384,
          "midi": 79,
          "name": "G5",
          "ticks": 231168,
          "time": 177.51287000000002,
          "velocity": 0.905511811023622
        },
        {
          "duration": 0.29999999999998295,
          "durationTicks": 384,
          "midi": 74,
          "name": "D5",
          "ticks": 231936,
          "time": 178.11287000000004,
          "velocity": 0.905511811023622
        },
        {
          "duration": 0.29999999999998295,
          "durationTicks": 384,
          "midi": 74,
          "name": "D5",
          "ticks": 231936,
          "time": 178.11287000000004,
          "velocity": 0.905511811023622
        },
        {
          "duration": 0.15000000000000568,
          "durationTicks": 192,
          "midi": 60,
          "name": "C4",
          "ticks": 234624,
          "time": 180.21287000000004,
          "velocity": 0.905511811023622
        },
        {
          "duration": 0.15000000000000568,
          "durationTicks": 192,
          "midi": 60,
          "name": "C4",
          "ticks": 234624,
          "time": 180.21287000000004,
          "velocity": 0.905511811023622
        },
        {
          "duration": 0.14999999999997726,
          "durationTicks": 192,
          "midi": 60,
          "name": "C4",
          "ticks": 234816,
          "time": 180.36287000000004,
          "velocity": 0.905511811023622
        },
        {
          "duration": 0.14999999999997726,
          "durationTicks": 192,
          "midi": 60,
          "name": "C4",
          "ticks": 234816,
          "time": 180.36287000000004,
          "velocity": 0.905511811023622
        },
        {
          "duration": 0.30000000000001137,
          "durationTicks": 384,
          "midi": 60,
          "name": "C4",
          "ticks": 235008,
          "time": 180.51287000000002,
          "velocity": 0.905511811023622
        },
        {
          "duration": 0.30000000000001137,
          "durationTicks": 384,
          "midi": 60,
          "name": "C4",
          "ticks": 235008,
          "time": 180.51287000000002,
          "velocity": 0.905511811023622
        },
        {
          "duration": 0.14999999999997726,
          "durationTicks": 192,
          "midi": 74,
          "name": "D5",
          "ticks": 237696,
          "time": 182.61287000000004,
          "velocity": 0.905511811023622
        },
        {
          "duration": 0.14999999999997726,
          "durationTicks": 192,
          "midi": 74,
          "name": "D5",
          "ticks": 237696,
          "time": 182.61287000000004,
          "velocity": 0.905511811023622
        },
        {
          "duration": 0.15000000000000568,
          "durationTicks": 192,
          "midi": 74,
          "name": "D5",
          "ticks": 237888,
          "time": 182.76287000000002,
          "velocity": 0.905511811023622
        },
        {
          "duration": 0.15000000000000568,
          "durationTicks": 192,
          "midi": 74,
          "name": "D5",
          "ticks": 237888,
          "time": 182.76287000000002,
          "velocity": 0.905511811023622
        },
        {
          "duration": 0.30000000000001137,
          "durationTicks": 384,
          "midi": 67,
          "name": "G4",
          "ticks": 238080,
          "time": 182.91287000000003,
          "velocity": 0.905511811023622
        },
        {
          "duration": 0.30000000000001137,
          "durationTicks": 384,
          "midi": 74,
          "name": "D5",
          "ticks": 238080,
          "time": 182.91287000000003,
          "velocity": 0.905511811023622
        },
        {
          "duration": 0.15000000000000568,
          "durationTicks": 192,
          "midi": 55,
          "name": "G3",
          "ticks": 243840,
          "time": 187.41287000000003,
          "velocity": 0.905511811023622
        },
        {
          "duration": 0.15000000000000568,
          "durationTicks": 192,
          "midi": 67,
          "name": "G4",
          "ticks": 243840,
          "time": 187.41287000000003,
          "velocity": 0.905511811023622
        },
        {
          "duration": 0.15000000000000568,
          "durationTicks": 192,
          "midi": 55,
          "name": "G3",
          "ticks": 244032,
          "time": 187.56287000000003,
          "velocity": 0.905511811023622
        },
        {
          "duration": 0.15000000000000568,
          "durationTicks": 192,
          "midi": 67,
          "name": "G4",
          "ticks": 244032,
          "time": 187.56287000000003,
          "velocity": 0.905511811023622
        },
        {
          "duration": 0.29999999999998295,
          "durationTicks": 384,
          "midi": 60,
          "name": "C4",
          "ticks": 244224,
          "time": 187.71287000000004,
          "velocity": 0.905511811023622
        },
        {
          "duration": 0.29999999999998295,
          "durationTicks": 384,
          "midi": 72,
          "name": "C5",
          "ticks": 244224,
          "time": 187.71287000000004,
          "velocity": 0.905511811023622
        },
        {
          "duration": 0.5999999999999943,
          "durationTicks": 768,
          "midi": 60,
          "name": "C4",
          "ticks": 244992,
          "time": 188.31287000000003,
          "velocity": 0.905511811023622
        },
        {
          "duration": 0.5999999999999943,
          "durationTicks": 768,
          "midi": 60,
          "name": "C4",
          "ticks": 244992,
          "time": 188.31287000000003,
          "velocity": 0.905511811023622
        },
        {
          "duration": 0.5999999999999943,
          "durationTicks": 768,
          "midi": 60,
          "name": "C4",
          "ticks": 245760,
          "time": 188.91287000000003,
          "velocity": 0.905511811023622
        },
        {
          "duration": 0.5999999999999943,
          "durationTicks": 768,
          "midi": 60,
          "name": "C4",
          "ticks": 245760,
          "time": 188.91287000000003,
          "velocity": 0.905511811023622
        },
        {
          "duration": 0.5999999999999943,
          "durationTicks": 768,
          "midi": 60,
          "name": "C4",
          "ticks": 248064,
          "time": 190.71287000000004,
          "velocity": 0.905511811023622
        },
        {
          "duration": 0.5999999999999943,
          "durationTicks": 768,
          "midi": 60,
          "name": "C4",
          "ticks": 248064,
          "time": 190.71287000000004,
          "velocity": 0.905511811023622
        },
        {
          "duration": 0.5999999999999943,
          "durationTicks": 768,
          "midi": 60,
          "name": "C4",
          "ticks": 248832,
          "time": 191.31287000000003,
          "velocity": 0.905511811023622
        },
        {
          "duration": 0.5999999999999943,
          "durationTicks": 768,
          "midi": 60,
          "name": "C4",
          "ticks": 248832,
          "time": 191.31287000000003,
          "velocity": 0.905511811023622
        },
        {
          "duration": 0.1530599999999822,
          "durationTicks": 192,
          "midi": 74,
          "name": "D5",
          "ticks": 269760,
          "time": 207.86177000000004,
          "velocity": 0.968503937007874
        },
        {
          "duration": 0.1530599999999822,
          "durationTicks": 192,
          "midi": 74,
          "name": "D5",
          "ticks": 269760,
          "time": 207.86177000000004,
          "velocity": 0.968503937007874
        },
        {
          "duration": 0.15306000000001063,
          "durationTicks": 192,
          "midi": 74,
          "name": "D5",
          "ticks": 269952,
          "time": 208.01483000000002,
          "velocity": 0.968503937007874
        },
        {
          "duration": 0.15306000000001063,
          "durationTicks": 192,
          "midi": 74,
          "name": "D5",
          "ticks": 269952,
          "time": 208.01483000000002,
          "velocity": 0.968503937007874
        },
        {
          "duration": 0.15306000000001063,
          "durationTicks": 192,
          "midi": 74,
          "name": "D5",
          "ticks": 270144,
          "time": 208.16789000000003,
          "velocity": 0.968503937007874
        },
        {
          "duration": 0.15306000000001063,
          "durationTicks": 192,
          "midi": 74,
          "name": "D5",
          "ticks": 270144,
          "time": 208.16789000000003,
          "velocity": 0.968503937007874
        },
        {
          "duration": 0.6122399999999857,
          "durationTicks": 768,
          "midi": 74,
          "name": "D5",
          "ticks": 270336,
          "time": 208.32095000000004,
          "velocity": 0.968503937007874
        },
        {
          "duration": 0.6122399999999857,
          "durationTicks": 768,
          "midi": 74,
          "name": "D5",
          "ticks": 270336,
          "time": 208.32095000000004,
          "velocity": 0.968503937007874
        },
        {
          "duration": 0.6122400000000141,
          "durationTicks": 768,
          "midi": 74,
          "name": "D5",
          "ticks": 271104,
          "time": 208.93319000000002,
          "velocity": 0.968503937007874
        },
        {
          "duration": 0.6122400000000141,
          "durationTicks": 768,
          "midi": 74,
          "name": "D5",
          "ticks": 271104,
          "time": 208.93319000000002,
          "velocity": 0.968503937007874
        },
        {
          "duration": 1.2244799999999998,
          "durationTicks": 1536,
          "midi": 74,
          "name": "D5",
          "ticks": 271872,
          "time": 209.54543000000004,
          "velocity": 0.968503937007874
        },
        {
          "duration": 1.2244799999999998,
          "durationTicks": 1536,
          "midi": 74,
          "name": "D5",
          "ticks": 271872,
          "time": 209.54543000000004,
          "velocity": 0.968503937007874
        },
        {
          "duration": 0.1415049999999951,
          "durationTicks": 192,
          "midi": 79,
          "name": "G5",
          "ticks": 285120,
          "time": 219.72525500000003,
          "velocity": 0.968503937007874
        },
        {
          "duration": 0.1415049999999951,
          "durationTicks": 192,
          "midi": 79,
          "name": "G5",
          "ticks": 285120,
          "time": 219.72525500000003,
          "velocity": 0.968503937007874
        },
        {
          "duration": 0.1415049999999951,
          "durationTicks": 192,
          "midi": 79,
          "name": "G5",
          "ticks": 285312,
          "time": 219.86676000000003,
          "velocity": 0.968503937007874
        },
        {
          "duration": 0.1415049999999951,
          "durationTicks": 192,
          "midi": 79,
          "name": "G5",
          "ticks": 285312,
          "time": 219.86676000000003,
          "velocity": 0.968503937007874
        },
        {
          "duration": 0.1415049999999951,
          "durationTicks": 192,
          "midi": 79,
          "name": "G5",
          "ticks": 285504,
          "time": 220.00826500000002,
          "velocity": 0.968503937007874
        },
        {
          "duration": 0.1415049999999951,
          "durationTicks": 192,
          "midi": 79,
          "name": "G5",
          "ticks": 285504,
          "time": 220.00826500000002,
          "velocity": 0.968503937007874
        },
        {
          "duration": 0.75,
          "durationTicks": 768,
          "midi": 79,
          "name": "G5",
          "ticks": 285696,
          "time": 220.14977000000002,
          "velocity": 0.968503937007874
        },
        {
          "duration": 0.75,
          "durationTicks": 768,
          "midi": 79,
          "name": "G5",
          "ticks": 285696,
          "time": 220.14977000000002,
          "velocity": 0.968503937007874
        },
        {
          "duration": 0.1415049999999951,
          "durationTicks": 192,
          "midi": 79,
          "name": "G5",
          "ticks": 286656,
          "time": 221.041275,
          "velocity": 0.968503937007874
        },
        {
          "duration": 0.1415049999999951,
          "durationTicks": 192,
          "midi": 79,
          "name": "G5",
          "ticks": 286656,
          "time": 221.041275,
          "velocity": 0.968503937007874
        },
        {
          "duration": 0.14150500000002353,
          "durationTicks": 192,
          "midi": 79,
          "name": "G5",
          "ticks": 286848,
          "time": 221.18278,
          "velocity": 0.968503937007874
        },
        {
          "duration": 0.14150500000002353,
          "durationTicks": 192,
          "midi": 79,
          "name": "G5",
          "ticks": 286848,
          "time": 221.18278,
          "velocity": 0.968503937007874
        },
        {
          "duration": 0.1415049999999951,
          "durationTicks": 192,
          "midi": 79,
          "name": "G5",
          "ticks": 287040,
          "time": 221.32428500000003,
          "velocity": 0.968503937007874
        },
        {
          "duration": 0.1415049999999951,
          "durationTicks": 192,
          "midi": 79,
          "name": "G5",
          "ticks": 287040,
          "time": 221.32428500000003,
          "velocity": 0.968503937007874
        },
        {
          "duration": 1.766019999999969,
          "durationTicks": 1536,
          "midi": 79,
          "name": "G5",
          "ticks": 287232,
          "time": 221.46579000000003,
          "velocity": 0.968503937007874
        },
        {
          "duration": 1.766019999999969,
          "durationTicks": 1536,
          "midi": 79,
          "name": "G5",
          "ticks": 287232,
          "time": 221.46579000000003,
          "velocity": 0.968503937007874
        },
        {
          "duration": 0.2830099999999902,
          "durationTicks": 384,
          "midi": 60,
          "name": "C4",
          "ticks": 299520,
          "time": 231.15609,
          "velocity": 0.7165354330708661
        },
        {
          "duration": 0.2830099999999902,
          "durationTicks": 384,
          "midi": 72,
          "name": "C5",
          "ticks": 299520,
          "time": 231.15609,
          "velocity": 0.7165354330708661
        },
        {
          "duration": 0.28301000000001864,
          "durationTicks": 384,
          "midi": 55,
          "name": "G3",
          "ticks": 300288,
          "time": 231.72211,
          "velocity": 0.905511811023622
        },
        {
          "duration": 0.28301000000001864,
          "durationTicks": 384,
          "midi": 67,
          "name": "G4",
          "ticks": 300288,
          "time": 231.72211,
          "velocity": 0.905511811023622
        },
        {
          "duration": 0.2777699999999754,
          "durationTicks": 384,
          "midi": 60,
          "name": "C4",
          "ticks": 311040,
          "time": 240.26893,
          "velocity": 0.905511811023622
        },
        {
          "duration": 0.2777699999999754,
          "durationTicks": 384,
          "midi": 72,
          "name": "C5",
          "ticks": 311040,
          "time": 240.26893,
          "velocity": 0.905511811023622
        },
        {
          "duration": 0.27777000000000385,
          "durationTicks": 384,
          "midi": 60,
          "name": "C4",
          "ticks": 312576,
          "time": 241.38001,
          "velocity": 0.905511811023622
        },
        {
          "duration": 0.27777000000000385,
          "durationTicks": 384,
          "midi": 72,
          "name": "C5",
          "ticks": 312576,
          "time": 241.38001,
          "velocity": 0.905511811023622
        },
        {
          "duration": 0.27522000000001867,
          "durationTicks": 384,
          "midi": 60,
          "name": "C4",
          "ticks": 317952,
          "time": 245.24328999999997,
          "velocity": 0.905511811023622
        },
        {
          "duration": 0.27522000000001867,
          "durationTicks": 384,
          "midi": 72,
          "name": "C5",
          "ticks": 317952,
          "time": 245.24328999999997,
          "velocity": 0.905511811023622
        },
        {
          "duration": 0.2727199999999925,
          "durationTicks": 384,
          "midi": 60,
          "name": "C4",
          "ticks": 318720,
          "time": 245.79372999999998,
          "velocity": 0.905511811023622
        },
        {
          "duration": 0.2727199999999925,
          "durationTicks": 384,
          "midi": 72,
          "name": "C5",
          "ticks": 318720,
          "time": 245.79372999999998,
          "velocity": 0.905511811023622
        },
        {
          "duration": 0.13635999999999626,
          "durationTicks": 192,
          "midi": 60,
          "name": "C4",
          "ticks": 321408,
          "time": 247.70277,
          "velocity": 0.905511811023622
        },
        {
          "duration": 0.13635999999999626,
          "durationTicks": 192,
          "midi": 72,
          "name": "C5",
          "ticks": 321408,
          "time": 247.70277,
          "velocity": 0.905511811023622
        },
        {
          "duration": 0.13635999999999626,
          "durationTicks": 192,
          "midi": 60,
          "name": "C4",
          "ticks": 321600,
          "time": 247.83912999999998,
          "velocity": 0.905511811023622
        },
        {
          "duration": 0.13635999999999626,
          "durationTicks": 192,
          "midi": 72,
          "name": "C5",
          "ticks": 321600,
          "time": 247.83912999999998,
          "velocity": 0.905511811023622
        },
        {
          "duration": 0.2727199999999925,
          "durationTicks": 384,
          "midi": 55,
          "name": "G3",
          "ticks": 321792,
          "time": 247.97548999999998,
          "velocity": 0.905511811023622
        },
        {
          "duration": 0.2727199999999925,
          "durationTicks": 384,
          "midi": 67,
          "name": "G4",
          "ticks": 321792,
          "time": 247.97548999999998,
          "velocity": 0.905511811023622
        },
        {
          "duration": 0.13635999999999626,
          "durationTicks": 192,
          "midi": 60,
          "name": "C4",
          "ticks": 324480,
          "time": 249.88452999999998,
          "velocity": 0.905511811023622
        },
        {
          "duration": 0.13635999999999626,
          "durationTicks": 192,
          "midi": 72,
          "name": "C5",
          "ticks": 324480,
          "time": 249.88452999999998,
          "velocity": 0.905511811023622
        },
        {
          "duration": 0.13635999999999626,
          "durationTicks": 192,
          "midi": 60,
          "name": "C4",
          "ticks": 324672,
          "time": 250.02088999999998,
          "velocity": 0.905511811023622
        },
        {
          "duration": 0.13635999999999626,
          "durationTicks": 192,
          "midi": 72,
          "name": "C5",
          "ticks": 324672,
          "time": 250.02088999999998,
          "velocity": 0.905511811023622
        },
        {
          "duration": 2.181759999999997,
          "durationTicks": 3072,
          "midi": 60,
          "name": "C4",
          "ticks": 324864,
          "time": 250.15724999999998,
          "velocity": 0.968503937007874
        },
        {
          "duration": 2.181759999999997,
          "durationTicks": 3072,
          "midi": 72,
          "name": "C5",
          "ticks": 324864,
          "time": 250.15724999999998,
          "velocity": 0.968503937007874
        },
        {
          "duration": 0.2941099999999892,
          "durationTicks": 384,
          "midi": 60,
          "name": "C4",
          "ticks": 327936,
          "time": 252.33900999999997,
          "velocity": 0.968503937007874
        },
        {
          "duration": 0.2941099999999892,
          "durationTicks": 384,
          "midi": 72,
          "name": "C5",
          "ticks": 327936,
          "time": 252.33900999999997,
          "velocity": 0.968503937007874
        },
        {
          "duration": 0.2941099999999892,
          "durationTicks": 384,
          "midi": 55,
          "name": "G3",
          "ticks": 329472,
          "time": 253.51545,
          "velocity": 0.968503937007874
        },
        {
          "duration": 0.2941099999999892,
          "durationTicks": 384,
          "midi": 67,
          "name": "G4",
          "ticks": 329472,
          "time": 253.51545,
          "velocity": 0.968503937007874
        },
        {
          "duration": 0.83331000000004,
          "durationTicks": 1152,
          "midi": 67,
          "name": "G4",
          "ticks": 363264,
          "time": 278.77640999999994,
          "velocity": 0.968503937007874
        },
        {
          "duration": 0.83331000000004,
          "durationTicks": 1152,
          "midi": 74,
          "name": "D5",
          "ticks": 363264,
          "time": 278.77640999999994,
          "velocity": 0.968503937007874
        },
        {
          "duration": 0.2777699999999754,
          "durationTicks": 384,
          "midi": 67,
          "name": "G4",
          "ticks": 364416,
          "time": 279.60972,
          "velocity": 0.968503937007874
        },
        {
          "duration": 0.2777699999999754,
          "durationTicks": 384,
          "midi": 74,
          "name": "D5",
          "ticks": 364416,
          "time": 279.60972,
          "velocity": 0.968503937007874
        },
        {
          "duration": 0.27777000000003227,
          "durationTicks": 384,
          "midi": 64,
          "name": "E4",
          "ticks": 364800,
          "time": 279.88748999999996,
          "velocity": 0.968503937007874
        },
        {
          "duration": 0.27777000000003227,
          "durationTicks": 384,
          "midi": 72,
          "name": "C5",
          "ticks": 364800,
          "time": 279.88748999999996,
          "velocity": 0.968503937007874
        },
        {
          "duration": 0.2777699999999754,
          "durationTicks": 384,
          "midi": 55,
          "name": "G3",
          "ticks": 365568,
          "time": 280.44302999999996,
          "velocity": 0.968503937007874
        },
        {
          "duration": 0.2777699999999754,
          "durationTicks": 384,
          "midi": 67,
          "name": "G4",
          "ticks": 365568,
          "time": 280.44302999999996,
          "velocity": 0.968503937007874
        },
        {
          "duration": 0.2777699999999754,
          "durationTicks": 384,
          "midi": 60,
          "name": "C4",
          "ticks": 366336,
          "time": 280.99857,
          "velocity": 0.968503937007874
        },
        {
          "duration": 0.2777699999999754,
          "durationTicks": 384,
          "midi": 72,
          "name": "C5",
          "ticks": 366336,
          "time": 280.99857,
          "velocity": 0.968503937007874
        },
        {
          "duration": 0.2777699999999754,
          "durationTicks": 384,
          "midi": 60,
          "name": "C4",
          "ticks": 367104,
          "time": 281.55411,
          "velocity": 0.968503937007874
        },
        {
          "duration": 0.2777699999999754,
          "durationTicks": 384,
          "midi": 72,
          "name": "C5",
          "ticks": 367104,
          "time": 281.55411,
          "velocity": 0.968503937007874
        },
        {
          "duration": 0.2777699999999754,
          "durationTicks": 384,
          "midi": 60,
          "name": "C4",
          "ticks": 367872,
          "time": 282.10965,
          "velocity": 0.968503937007874
        },
        {
          "duration": 0.2777699999999754,
          "durationTicks": 384,
          "midi": 72,
          "name": "C5",
          "ticks": 367872,
          "time": 282.10965,
          "velocity": 0.968503937007874
        },
        {
          "duration": 0.2777699999999754,
          "durationTicks": 384,
          "midi": 55,
          "name": "G3",
          "ticks": 368640,
          "time": 282.66519,
          "velocity": 0.968503937007874
        },
        {
          "duration": 0.2777699999999754,
          "durationTicks": 384,
          "midi": 67,
          "name": "G4",
          "ticks": 368640,
          "time": 282.66519,
          "velocity": 0.968503937007874
        },
        {
          "duration": 1.1110800000000154,
          "durationTicks": 1536,
          "midi": 67,
          "name": "G4",
          "ticks": 369408,
          "time": 283.22072999999995,
          "velocity": 0.968503937007874
        },
        {
          "duration": 1.1110800000000154,
          "durationTicks": 1536,
          "midi": 74,
          "name": "D5",
          "ticks": 369408,
          "time": 283.22072999999995,
          "velocity": 0.968503937007874
        },
        {
          "duration": 0.27777000000003227,
          "durationTicks": 384,
          "midi": 72,
          "name": "C5",
          "ticks": 370944,
          "time": 284.33180999999996,
          "velocity": 0.968503937007874
        },
        {
          "duration": 0.27777000000003227,
          "durationTicks": 384,
          "midi": 76,
          "name": "E5",
          "ticks": 370944,
          "time": 284.33180999999996,
          "velocity": 0.968503937007874
        },
        {
          "duration": 0.2777699999999754,
          "durationTicks": 384,
          "midi": 60,
          "name": "C4",
          "ticks": 371328,
          "time": 284.60958,
          "velocity": 0.968503937007874
        },
        {
          "duration": 0.2777699999999754,
          "durationTicks": 384,
          "midi": 72,
          "name": "C5",
          "ticks": 371328,
          "time": 284.60958,
          "velocity": 0.968503937007874
        },
        {
          "duration": 0.27777000000003227,
          "durationTicks": 384,
          "midi": 55,
          "name": "G3",
          "ticks": 372096,
          "time": 285.16511999999994,
          "velocity": 0.968503937007874
        },
        {
          "duration": 0.27777000000003227,
          "durationTicks": 384,
          "midi": 67,
          "name": "G4",
          "ticks": 372096,
          "time": 285.16511999999994,
          "velocity": 0.968503937007874
        },
        {
          "duration": 0.27777000000003227,
          "durationTicks": 384,
          "midi": 60,
          "name": "C4",
          "ticks": 372864,
          "time": 285.72065999999995,
          "velocity": 0.968503937007874
        },
        {
          "duration": 0.27777000000003227,
          "durationTicks": 384,
          "midi": 72,
          "name": "C5",
          "ticks": 372864,
          "time": 285.72065999999995,
          "velocity": 0.968503937007874
        },
        {
          "duration": 0.27777000000003227,
          "durationTicks": 384,
          "midi": 60,
          "name": "C4",
          "ticks": 373632,
          "time": 286.27619999999996,
          "velocity": 0.968503937007874
        },
        {
          "duration": 0.27777000000003227,
          "durationTicks": 384,
          "midi": 72,
          "name": "C5",
          "ticks": 373632,
          "time": 286.27619999999996,
          "velocity": 0.968503937007874
        },
        {
          "duration": 0.2777699999999754,
          "durationTicks": 384,
          "midi": 72,
          "name": "C5",
          "ticks": 374400,
          "time": 286.83173999999997,
          "velocity": 0.968503937007874
        },
        {
          "duration": 0.2777699999999754,
          "durationTicks": 384,
          "midi": 76,
          "name": "E5",
          "ticks": 374400,
          "time": 286.83173999999997,
          "velocity": 0.968503937007874
        },
        {
          "duration": 0.2777699999999754,
          "durationTicks": 384,
          "midi": 67,
          "name": "G4",
          "ticks": 375168,
          "time": 287.38728,
          "velocity": 0.968503937007874
        },
        {
          "duration": 0.2777699999999754,
          "durationTicks": 384,
          "midi": 74,
          "name": "D5",
          "ticks": 375168,
          "time": 287.38728,
          "velocity": 0.968503937007874
        },
        {
          "duration": 0.27777000000003227,
          "durationTicks": 384,
          "midi": 64,
          "name": "E4",
          "ticks": 375552,
          "time": 287.66504999999995,
          "velocity": 0.968503937007874
        },
        {
          "duration": 0.27777000000003227,
          "durationTicks": 384,
          "midi": 72,
          "name": "C5",
          "ticks": 375552,
          "time": 287.66504999999995,
          "velocity": 0.968503937007874
        },
        {
          "duration": 0.1388849999999593,
          "durationTicks": 192,
          "midi": 55,
          "name": "G3",
          "ticks": 378048,
          "time": 289.470555,
          "velocity": 0.968503937007874
        },
        {
          "duration": 0.1388849999999593,
          "durationTicks": 192,
          "midi": 67,
          "name": "G4",
          "ticks": 378048,
          "time": 289.470555,
          "velocity": 0.968503937007874
        },
        {
          "duration": 0.13888500000001613,
          "durationTicks": 192,
          "midi": 55,
          "name": "G3",
          "ticks": 378240,
          "time": 289.60943999999995,
          "velocity": 0.968503937007874
        },
        {
          "duration": 0.13888500000001613,
          "durationTicks": 192,
          "midi": 67,
          "name": "G4",
          "ticks": 378240,
          "time": 289.60943999999995,
          "velocity": 0.968503937007874
        },
        {
          "duration": 0.13888500000001613,
          "durationTicks": 192,
          "midi": 55,
          "name": "G3",
          "ticks": 378432,
          "time": 289.74832499999997,
          "velocity": 0.968503937007874
        },
        {
          "duration": 0.13888500000001613,
          "durationTicks": 192,
          "midi": 67,
          "name": "G4",
          "ticks": 378432,
          "time": 289.74832499999997,
          "velocity": 0.968503937007874
        },
        {
          "duration": 0.2777699999999754,
          "durationTicks": 384,
          "midi": 60,
          "name": "C4",
          "ticks": 378624,
          "time": 289.88721,
          "velocity": 0.968503937007874
        },
        {
          "duration": 0.2777699999999754,
          "durationTicks": 384,
          "midi": 72,
          "name": "C5",
          "ticks": 378624,
          "time": 289.88721,
          "velocity": 0.968503937007874
        },
        {
          "duration": 0.13888500000001613,
          "durationTicks": 192,
          "midi": 55,
          "name": "G3",
          "ticks": 381120,
          "time": 291.69271499999996,
          "velocity": 0.968503937007874
        },
        {
          "duration": 0.13888500000001613,
          "durationTicks": 192,
          "midi": 67,
          "name": "G4",
          "ticks": 381120,
          "time": 291.69271499999996,
          "velocity": 0.968503937007874
        },
        {
          "duration": 0.1388849999999593,
          "durationTicks": 192,
          "midi": 55,
          "name": "G3",
          "ticks": 381312,
          "time": 291.8316,
          "velocity": 0.968503937007874
        },
        {
          "duration": 0.1388849999999593,
          "durationTicks": 192,
          "midi": 67,
          "name": "G4",
          "ticks": 381312,
          "time": 291.8316,
          "velocity": 0.968503937007874
        },
        {
          "duration": 0.13888500000001613,
          "durationTicks": 192,
          "midi": 55,
          "name": "G3",
          "ticks": 381504,
          "time": 291.97048499999994,
          "velocity": 0.968503937007874
        },
        {
          "duration": 0.13888500000001613,
          "durationTicks": 192,
          "midi": 67,
          "name": "G4",
          "ticks": 381504,
          "time": 291.97048499999994,
          "velocity": 0.968503937007874
        },
        {
          "duration": 0.27777000000003227,
          "durationTicks": 384,
          "midi": 60,
          "name": "C4",
          "ticks": 381696,
          "time": 292.10936999999996,
          "velocity": 0.968503937007874
        },
        {
          "duration": 0.27777000000003227,
          "durationTicks": 384,
          "midi": 72,
          "name": "C5",
          "ticks": 381696,
          "time": 292.10936999999996,
          "velocity": 0.968503937007874
        },
        {
          "duration": 0.13888500000001613,
          "durationTicks": 192,
          "midi": 55,
          "name": "G3",
          "ticks": 382656,
          "time": 292.803795,
          "velocity": 0.968503937007874
        },
        {
          "duration": 0.13888500000001613,
          "durationTicks": 192,
          "midi": 67,
          "name": "G4",
          "ticks": 382656,
          "time": 292.803795,
          "velocity": 0.968503937007874
        },
        {
          "duration": 0.1388849999999593,
          "durationTicks": 192,
          "midi": 55,
          "name": "G3",
          "ticks": 382848,
          "time": 292.94268,
          "velocity": 0.968503937007874
        },
        {
          "duration": 0.1388849999999593,
          "durationTicks": 192,
          "midi": 67,
          "name": "G4",
          "ticks": 382848,
          "time": 292.94268,
          "velocity": 0.968503937007874
        },
        {
          "duration": 0.13888500000001613,
          "durationTicks": 192,
          "midi": 55,
          "name": "G3",
          "ticks": 383040,
          "time": 293.08156499999996,
          "velocity": 0.968503937007874
        },
        {
          "duration": 0.13888500000001613,
          "durationTicks": 192,
          "midi": 67,
          "name": "G4",
          "ticks": 383040,
          "time": 293.08156499999996,
          "velocity": 0.968503937007874
        },
        {
          "duration": 0.2777699999999754,
          "durationTicks": 384,
          "midi": 60,
          "name": "C4",
          "ticks": 383232,
          "time": 293.22044999999997,
          "velocity": 0.968503937007874
        },
        {
          "duration": 0.2777699999999754,
          "durationTicks": 384,
          "midi": 72,
          "name": "C5",
          "ticks": 383232,
          "time": 293.22044999999997,
          "velocity": 0.968503937007874
        },
        {
          "duration": 0.1388849999999593,
          "durationTicks": 192,
          "midi": 55,
          "name": "G3",
          "ticks": 384192,
          "time": 293.914875,
          "velocity": 0.968503937007874
        },
        {
          "duration": 0.1388849999999593,
          "durationTicks": 192,
          "midi": 67,
          "name": "G4",
          "ticks": 384192,
          "time": 293.914875,
          "velocity": 0.968503937007874
        },
        {
          "duration": 0.13888500000001613,
          "durationTicks": 192,
          "midi": 55,
          "name": "G3",
          "ticks": 384384,
          "time": 294.05375999999995,
          "velocity": 0.968503937007874
        },
        {
          "duration": 0.13888500000001613,
          "durationTicks": 192,
          "midi": 67,
          "name": "G4",
          "ticks": 384384,
          "time": 294.05375999999995,
          "velocity": 0.968503937007874
        },
        {
          "duration": 0.13888500000001613,
          "durationTicks": 192,
          "midi": 55,
          "name": "G3",
          "ticks": 384576,
          "time": 294.19264499999997,
          "velocity": 0.968503937007874
        },
        {
          "duration": 0.13888500000001613,
          "durationTicks": 192,
          "midi": 67,
          "name": "G4",
          "ticks": 384576,
          "time": 294.19264499999997,
          "velocity": 0.968503937007874
        },
        {
          "duration": 0.1388849999999593,
          "durationTicks": 192,
          "midi": 60,
          "name": "C4",
          "ticks": 384768,
          "time": 294.33153,
          "velocity": 0.968503937007874
        },
        {
          "duration": 0.1388849999999593,
          "durationTicks": 192,
          "midi": 72,
          "name": "C5",
          "ticks": 384768,
          "time": 294.33153,
          "velocity": 0.968503937007874
        },
        {
          "duration": 0.13888500000001613,
          "durationTicks": 192,
          "midi": 60,
          "name": "C4",
          "ticks": 384960,
          "time": 294.47041499999995,
          "velocity": 0.968503937007874
        },
        {
          "duration": 0.13888500000001613,
          "durationTicks": 192,
          "midi": 72,
          "name": "C5",
          "ticks": 384960,
          "time": 294.47041499999995,
          "velocity": 0.968503937007874
        },
        {
          "duration": 0.13888500000001613,
          "durationTicks": 192,
          "midi": 60,
          "name": "C4",
          "ticks": 385152,
          "time": 294.60929999999996,
          "velocity": 0.968503937007874
        },
        {
          "duration": 0.13888500000001613,
          "durationTicks": 192,
          "midi": 72,
          "name": "C5",
          "ticks": 385152,
          "time": 294.60929999999996,
          "velocity": 0.968503937007874
        },
        {
          "duration": 0.13888500000001613,
          "durationTicks": 192,
          "midi": 60,
          "name": "C4",
          "ticks": 385344,
          "time": 294.748185,
          "velocity": 0.968503937007874
        },
        {
          "duration": 0.13888500000001613,
          "durationTicks": 192,
          "midi": 72,
          "name": "C5",
          "ticks": 385344,
          "time": 294.748185,
          "velocity": 0.968503937007874
        },
        {
          "duration": 0.694424999999967,
          "durationTicks": 960,
          "midi": 60,
          "name": "C4",
          "ticks": 385536,
          "time": 294.88707,
          "velocity": 0.968503937007874
        },
        {
          "duration": 0.694424999999967,
          "durationTicks": 960,
          "midi": 72,
          "name": "C5",
          "ticks": 385536,
          "time": 294.88707,
          "velocity": 0.968503937007874
        },
        {
          "duration": 0.13888500000001613,
          "durationTicks": 192,
          "midi": 60,
          "name": "C4",
          "ticks": 386496,
          "time": 295.58149499999996,
          "velocity": 0.968503937007874
        },
        {
          "duration": 0.13888500000001613,
          "durationTicks": 192,
          "midi": 72,
          "name": "C5",
          "ticks": 386496,
          "time": 295.58149499999996,
          "velocity": 0.968503937007874
        },
        {
          "duration": 0.13888500000001613,
          "durationTicks": 192,
          "midi": 60,
          "name": "C4",
          "ticks": 386688,
          "time": 295.72038,
          "velocity": 0.968503937007874
        },
        {
          "duration": 0.13888500000001613,
          "durationTicks": 192,
          "midi": 72,
          "name": "C5",
          "ticks": 386688,
          "time": 295.72038,
          "velocity": 0.968503937007874
        },
        {
          "duration": 0.1388849999999593,
          "durationTicks": 192,
          "midi": 60,
          "name": "C4",
          "ticks": 386880,
          "time": 295.859265,
          "velocity": 0.968503937007874
        },
        {
          "duration": 0.1388849999999593,
          "durationTicks": 192,
          "midi": 72,
          "name": "C5",
          "ticks": 386880,
          "time": 295.859265,
          "velocity": 0.968503937007874
        },
        {
          "duration": 0.6944250000000238,
          "durationTicks": 960,
          "midi": 60,
          "name": "C4",
          "ticks": 387072,
          "time": 295.99814999999995,
          "velocity": 0.968503937007874
        },
        {
          "duration": 0.6944250000000238,
          "durationTicks": 960,
          "midi": 72,
          "name": "C5",
          "ticks": 387072,
          "time": 295.99814999999995,
          "velocity": 0.968503937007874
        },
        {
          "duration": 0.13888500000001613,
          "durationTicks": 192,
          "midi": 60,
          "name": "C4",
          "ticks": 388032,
          "time": 296.692575,
          "velocity": 0.968503937007874
        },
        {
          "duration": 0.13888500000001613,
          "durationTicks": 192,
          "midi": 72,
          "name": "C5",
          "ticks": 388032,
          "time": 296.692575,
          "velocity": 0.968503937007874
        },
        {
          "duration": 0.1388849999999593,
          "durationTicks": 192,
          "midi": 60,
          "name": "C4",
          "ticks": 388224,
          "time": 296.83146,
          "velocity": 0.968503937007874
        },
        {
          "duration": 0.1388849999999593,
          "durationTicks": 192,
          "midi": 72,
          "name": "C5",
          "ticks": 388224,
          "time": 296.83146,
          "velocity": 0.968503937007874
        },
        {
          "duration": 0.13888500000001613,
          "durationTicks": 192,
          "midi": 60,
          "name": "C4",
          "ticks": 388416,
          "time": 296.97034499999995,
          "velocity": 0.968503937007874
        },
        {
          "duration": 0.13888500000001613,
          "durationTicks": 192,
          "midi": 72,
          "name": "C5",
          "ticks": 388416,
          "time": 296.97034499999995,
          "velocity": 0.968503937007874
        },
        {
          "duration": 0.6944250000000238,
          "durationTicks": 960,
          "midi": 60,
          "name": "C4",
          "ticks": 388608,
          "time": 297.10922999999997,
          "velocity": 0.968503937007874
        },
        {
          "duration": 0.6944250000000238,
          "durationTicks": 960,
          "midi": 72,
          "name": "C5",
          "ticks": 388608,
          "time": 297.10922999999997,
          "velocity": 0.968503937007874
        },
        {
          "duration": 0.1388849999999593,
          "durationTicks": 192,
          "midi": 60,
          "name": "C4",
          "ticks": 389568,
          "time": 297.803655,
          "velocity": 0.968503937007874
        },
        {
          "duration": 0.1388849999999593,
          "durationTicks": 192,
          "midi": 72,
          "name": "C5",
          "ticks": 389568,
          "time": 297.803655,
          "velocity": 0.968503937007874
        },
        {
          "duration": 0.13888500000001613,
          "durationTicks": 192,
          "midi": 60,
          "name": "C4",
          "ticks": 389760,
          "time": 297.94253999999995,
          "velocity": 0.968503937007874
        },
        {
          "duration": 0.13888500000001613,
          "durationTicks": 192,
          "midi": 72,
          "name": "C5",
          "ticks": 389760,
          "time": 297.94253999999995,
          "velocity": 0.968503937007874
        },
        {
          "duration": 0.13888500000001613,
          "durationTicks": 192,
          "midi": 60,
          "name": "C4",
          "ticks": 389952,
          "time": 298.08142499999997,
          "velocity": 0.968503937007874
        },
        {
          "duration": 0.13888500000001613,
          "durationTicks": 192,
          "midi": 72,
          "name": "C5",
          "ticks": 389952,
          "time": 298.08142499999997,
          "velocity": 0.968503937007874
        },
        {
          "duration": 0.5555400000000077,
          "durationTicks": 768,
          "midi": 60,
          "name": "C4",
          "ticks": 390144,
          "time": 298.22031,
          "velocity": 0.968503937007874
        },
        {
          "duration": 0.5555400000000077,
          "durationTicks": 768,
          "midi": 72,
          "name": "C5",
          "ticks": 390144,
          "time": 298.22031,
          "velocity": 0.968503937007874
        },
        {
          "duration": 0.13888500000001613,
          "durationTicks": 192,
          "midi": 60,
          "name": "C4",
          "ticks": 397248,
          "time": 303.35905499999996,
          "velocity": 0.968503937007874
        },
        {
          "duration": 0.13888500000001613,
          "durationTicks": 192,
          "midi": 72,
          "name": "C5",
          "ticks": 397248,
          "time": 303.35905499999996,
          "velocity": 0.968503937007874
        },
        {
          "duration": 0.13888500000001613,
          "durationTicks": 192,
          "midi": 60,
          "name": "C4",
          "ticks": 397440,
          "time": 303.49793999999997,
          "velocity": 0.968503937007874
        },
        {
          "duration": 0.13888500000001613,
          "durationTicks": 192,
          "midi": 72,
          "name": "C5",
          "ticks": 397440,
          "time": 303.49793999999997,
          "velocity": 0.968503937007874
        },
        {
          "duration": 0.1388849999999593,
          "durationTicks": 192,
          "midi": 60,
          "name": "C4",
          "ticks": 397632,
          "time": 303.636825,
          "velocity": 0.968503937007874
        },
        {
          "duration": 0.1388849999999593,
          "durationTicks": 192,
          "midi": 72,
          "name": "C5",
          "ticks": 397632,
          "time": 303.636825,
          "velocity": 0.968503937007874
        },
        {
          "duration": 2.2221600000000308,
          "durationTicks": 3072,
          "midi": 60,
          "name": "C4",
          "ticks": 397824,
          "time": 303.77570999999995,
          "velocity": 0.968503937007874
        },
        {
          "duration": 2.2221600000000308,
          "durationTicks": 3072,
          "midi": 72,
          "name": "C5",
          "ticks": 397824,
          "time": 303.77570999999995,
          "velocity": 0.968503937007874
        },
        {
          "duration": 0.2777699999999754,
          "durationTicks": 384,
          "midi": 60,
          "name": "C4",
          "ticks": 400896,
          "time": 305.99787,
          "velocity": 0.968503937007874
        },
        {
          "duration": 0.2777699999999754,
          "durationTicks": 384,
          "midi": 72,
          "name": "C5",
          "ticks": 400896,
          "time": 305.99787,
          "velocity": 0.968503937007874
        },
        {
          "duration": 0.13888500000001613,
          "durationTicks": 192,
          "midi": 60,
          "name": "C4",
          "ticks": 401856,
          "time": 306.69229499999994,
          "velocity": 0.968503937007874
        },
        {
          "duration": 0.13888500000001613,
          "durationTicks": 192,
          "midi": 72,
          "name": "C5",
          "ticks": 401856,
          "time": 306.69229499999994,
          "velocity": 0.968503937007874
        },
        {
          "duration": 0.13888500000001613,
          "durationTicks": 192,
          "midi": 60,
          "name": "C4",
          "ticks": 402048,
          "time": 306.83117999999996,
          "velocity": 0.968503937007874
        },
        {
          "duration": 0.13888500000001613,
          "durationTicks": 192,
          "midi": 72,
          "name": "C5",
          "ticks": 402048,
          "time": 306.83117999999996,
          "velocity": 0.968503937007874
        },
        {
          "duration": 0.13888500000001613,
          "durationTicks": 192,
          "midi": 60,
          "name": "C4",
          "ticks": 402240,
          "time": 306.970065,
          "velocity": 0.968503937007874
        },
        {
          "duration": 0.13888500000001613,
          "durationTicks": 192,
          "midi": 72,
          "name": "C5",
          "ticks": 402240,
          "time": 306.970065,
          "velocity": 0.968503937007874
        },
        {
          "duration": 0.2777699999999754,
          "durationTicks": 384,
          "midi": 60,
          "name": "C4",
          "ticks": 402432,
          "time": 307.10895,
          "velocity": 0.968503937007874
        },
        {
          "duration": 0.2777699999999754,
          "durationTicks": 384,
          "midi": 72,
          "name": "C5",
          "ticks": 402432,
          "time": 307.10895,
          "velocity": 0.968503937007874
        },
        {
          "duration": 0.27777000000003227,
          "durationTicks": 384,
          "midi": 55,
          "name": "G3",
          "ticks": 403968,
          "time": 308.22002999999995,
          "velocity": 0.905511811023622
        },
        {
          "duration": 0.27777000000003227,
          "durationTicks": 384,
          "midi": 67,
          "name": "G4",
          "ticks": 403968,
          "time": 308.22002999999995,
          "velocity": 0.905511811023622
        },
        {
          "duration": 0.2777699999999754,
          "durationTicks": 384,
          "midi": 55,
          "name": "G3",
          "ticks": 407040,
          "time": 310.44219,
          "velocity": 0.905511811023622
        },
        {
          "duration": 0.2777699999999754,
          "durationTicks": 384,
          "midi": 67,
          "name": "G4",
          "ticks": 407040,
          "time": 310.44219,
          "velocity": 0.905511811023622
        },
        {
          "duration": 0.2777699999999754,
          "durationTicks": 384,
          "midi": 55,
          "name": "G3",
          "ticks": 416640,
          "time": 317.38644,
          "velocity": 0.905511811023622
        },
        {
          "duration": 0.2777699999999754,
          "durationTicks": 384,
          "midi": 67,
          "name": "G4",
          "ticks": 416640,
          "time": 317.38644,
          "velocity": 0.905511811023622
        },
        {
          "duration": 0.2777699999999754,
          "durationTicks": 384,
          "midi": 55,
          "name": "G3",
          "ticks": 417024,
          "time": 317.66420999999997,
          "velocity": 0.905511811023622
        },
        {
          "duration": 0.2777699999999754,
          "durationTicks": 384,
          "midi": 67,
          "name": "G4",
          "ticks": 417024,
          "time": 317.66420999999997,
          "velocity": 0.905511811023622
        },
        {
          "duration": 0.27777000000003227,
          "durationTicks": 384,
          "midi": 55,
          "name": "G3",
          "ticks": 417408,
          "time": 317.94197999999994,
          "velocity": 0.905511811023622
        },
        {
          "duration": 0.27777000000003227,
          "durationTicks": 384,
          "midi": 67,
          "name": "G4",
          "ticks": 417408,
          "time": 317.94197999999994,
          "velocity": 0.905511811023622
        },
        {
          "duration": 0.2777699999999754,
          "durationTicks": 384,
          "midi": 55,
          "name": "G3",
          "ticks": 417792,
          "time": 318.21975,
          "velocity": 0.905511811023622
        },
        {
          "duration": 0.2777699999999754,
          "durationTicks": 384,
          "midi": 67,
          "name": "G4",
          "ticks": 417792,
          "time": 318.21975,
          "velocity": 0.905511811023622
        },
        {
          "duration": 0.27777000000003227,
          "durationTicks": 384,
          "midi": 55,
          "name": "G3",
          "ticks": 418176,
          "time": 318.49751999999995,
          "velocity": 0.905511811023622
        },
        {
          "duration": 0.27777000000003227,
          "durationTicks": 384,
          "midi": 67,
          "name": "G4",
          "ticks": 418176,
          "time": 318.49751999999995,
          "velocity": 0.905511811023622
        },
        {
          "duration": 0.2777699999999754,
          "durationTicks": 384,
          "midi": 55,
          "name": "G3",
          "ticks": 418560,
          "time": 318.77529,
          "velocity": 0.905511811023622
        },
        {
          "duration": 0.2777699999999754,
          "durationTicks": 384,
          "midi": 67,
          "name": "G4",
          "ticks": 418560,
          "time": 318.77529,
          "velocity": 0.905511811023622
        },
        {
          "duration": 0.27777000000003227,
          "durationTicks": 384,
          "midi": 60,
          "name": "C4",
          "ticks": 418944,
          "time": 319.05305999999996,
          "velocity": 0.905511811023622
        },
        {
          "duration": 0.27777000000003227,
          "durationTicks": 384,
          "midi": 72,
          "name": "C5",
          "ticks": 418944,
          "time": 319.05305999999996,
          "velocity": 0.905511811023622
        },
        {
          "duration": 0.2777699999999754,
          "durationTicks": 384,
          "midi": 60,
          "name": "C4",
          "ticks": 419328,
          "time": 319.33083,
          "velocity": 0.905511811023622
        },
        {
          "duration": 0.2777699999999754,
          "durationTicks": 384,
          "midi": 72,
          "name": "C5",
          "ticks": 419328,
          "time": 319.33083,
          "velocity": 0.905511811023622
        },
        {
          "duration": 0.2777699999999754,
          "durationTicks": 384,
          "midi": 60,
          "name": "C4",
          "ticks": 419712,
          "time": 319.60859999999997,
          "velocity": 0.905511811023622
        },
        {
          "duration": 0.2777699999999754,
          "durationTicks": 384,
          "midi": 72,
          "name": "C5",
          "ticks": 419712,
          "time": 319.60859999999997,
          "velocity": 0.905511811023622
        },
        {
          "duration": 0.27777000000003227,
          "durationTicks": 384,
          "midi": 60,
          "name": "C4",
          "ticks": 420096,
          "time": 319.88636999999994,
          "velocity": 0.905511811023622
        },
        {
          "duration": 0.27777000000003227,
          "durationTicks": 384,
          "midi": 72,
          "name": "C5",
          "ticks": 420096,
          "time": 319.88636999999994,
          "velocity": 0.905511811023622
        },
        {
          "duration": 0.2777699999999754,
          "durationTicks": 384,
          "midi": 55,
          "name": "G3",
          "ticks": 420480,
          "time": 320.16414,
          "velocity": 0.905511811023622
        },
        {
          "duration": 0.2777699999999754,
          "durationTicks": 384,
          "midi": 67,
          "name": "G4",
          "ticks": 420480,
          "time": 320.16414,
          "velocity": 0.905511811023622
        },
        {
          "duration": 0.27777000000003227,
          "durationTicks": 384,
          "midi": 55,
          "name": "G3",
          "ticks": 420864,
          "time": 320.44190999999995,
          "velocity": 0.905511811023622
        },
        {
          "duration": 0.27777000000003227,
          "durationTicks": 384,
          "midi": 67,
          "name": "G4",
          "ticks": 420864,
          "time": 320.44190999999995,
          "velocity": 0.905511811023622
        },
        {
          "duration": 0.2777699999999754,
          "durationTicks": 384,
          "midi": 55,
          "name": "G3",
          "ticks": 421248,
          "time": 320.71968,
          "velocity": 0.905511811023622
        },
        {
          "duration": 0.2777699999999754,
          "durationTicks": 384,
          "midi": 67,
          "name": "G4",
          "ticks": 421248,
          "time": 320.71968,
          "velocity": 0.905511811023622
        },
        {
          "duration": 0.27777000000003227,
          "durationTicks": 384,
          "midi": 55,
          "name": "G3",
          "ticks": 421632,
          "time": 320.99744999999996,
          "velocity": 0.905511811023622
        },
        {
          "duration": 0.27777000000003227,
          "durationTicks": 384,
          "midi": 67,
          "name": "G4",
          "ticks": 421632,
          "time": 320.99744999999996,
          "velocity": 0.905511811023622
        },
        {
          "duration": 0.2777699999999754,
          "durationTicks": 384,
          "midi": 55,
          "name": "G3",
          "ticks": 422016,
          "time": 321.27522,
          "velocity": 0.905511811023622
        },
        {
          "duration": 0.2777699999999754,
          "durationTicks": 384,
          "midi": 67,
          "name": "G4",
          "ticks": 422016,
          "time": 321.27522,
          "velocity": 0.905511811023622
        },
        {
          "duration": 1.1110800000000154,
          "durationTicks": 1536,
          "midi": 60,
          "name": "C4",
          "ticks": 422400,
          "time": 321.55298999999997,
          "velocity": 0.905511811023622
        },
        {
          "duration": 1.1110800000000154,
          "durationTicks": 1536,
          "midi": 72,
          "name": "C5",
          "ticks": 422400,
          "time": 321.55298999999997,
          "velocity": 0.905511811023622
        },
        {
          "duration": 1.1110799999999585,
          "durationTicks": 1536,
          "midi": 60,
          "name": "C4",
          "ticks": 423936,
          "time": 322.66407,
          "velocity": 0.905511811023622
        },
        {
          "duration": 1.1110799999999585,
          "durationTicks": 1536,
          "midi": 72,
          "name": "C5",
          "ticks": 423936,
          "time": 322.66407,
          "velocity": 0.905511811023622
        },
        {
          "duration": 1.1110800000000154,
          "durationTicks": 1536,
          "midi": 60,
          "name": "C4",
          "ticks": 425472,
          "time": 323.77514999999994,
          "velocity": 0.905511811023622
        },
        {
          "duration": 1.1110800000000154,
          "durationTicks": 1536,
          "midi": 72,
          "name": "C5",
          "ticks": 425472,
          "time": 323.77514999999994,
          "velocity": 0.905511811023622
        },
        {
          "duration": 1.1110800000000154,
          "durationTicks": 1536,
          "midi": 60,
          "name": "C4",
          "ticks": 427008,
          "time": 324.88622999999995,
          "velocity": 0.905511811023622
        },
        {
          "duration": 1.1110800000000154,
          "durationTicks": 1536,
          "midi": 72,
          "name": "C5",
          "ticks": 427008,
          "time": 324.88622999999995,
          "velocity": 0.905511811023622
        },
        {
          "duration": 0.5555400000000077,
          "durationTicks": 768,
          "midi": 55,
          "name": "G3",
          "ticks": 428544,
          "time": 325.99730999999997,
          "velocity": 0.905511811023622
        },
        {
          "duration": 0.5555400000000077,
          "durationTicks": 768,
          "midi": 67,
          "name": "G4",
          "ticks": 428544,
          "time": 325.99730999999997,
          "velocity": 0.905511811023622
        },
        {
          "duration": 0.5555400000000077,
          "durationTicks": 768,
          "midi": 55,
          "name": "G3",
          "ticks": 429312,
          "time": 326.55285,
          "velocity": 0.905511811023622
        },
        {
          "duration": 0.5555400000000077,
          "durationTicks": 768,
          "midi": 67,
          "name": "G4",
          "ticks": 429312,
          "time": 326.55285,
          "velocity": 0.905511811023622
        },
        {
          "duration": 0.2777699999999754,
          "durationTicks": 384,
          "midi": 60,
          "name": "C4",
          "ticks": 430080,
          "time": 327.10839,
          "velocity": 0.905511811023622
        },
        {
          "duration": 0.2777699999999754,
          "durationTicks": 384,
          "midi": 72,
          "name": "C5",
          "ticks": 430080,
          "time": 327.10839,
          "velocity": 0.905511811023622
        },
        {
          "duration": 0.2777699999999754,
          "durationTicks": 384,
          "midi": 60,
          "name": "C4",
          "ticks": 430848,
          "time": 327.66393,
          "velocity": 0.905511811023622
        },
        {
          "duration": 0.2777699999999754,
          "durationTicks": 384,
          "midi": 72,
          "name": "C5",
          "ticks": 430848,
          "time": 327.66393,
          "velocity": 0.905511811023622
        },
        {
          "duration": 0.2777699999999754,
          "durationTicks": 384,
          "midi": 60,
          "name": "C4",
          "ticks": 431616,
          "time": 328.21947,
          "velocity": 0.905511811023622
        },
        {
          "duration": 0.2777699999999754,
          "durationTicks": 384,
          "midi": 72,
          "name": "C5",
          "ticks": 431616,
          "time": 328.21947,
          "velocity": 0.905511811023622
        },
        {
          "duration": 0.27777000000003227,
          "durationTicks": 384,
          "midi": 60,
          "name": "C4",
          "ticks": 432384,
          "time": 328.77500999999995,
          "velocity": 0.905511811023622
        },
        {
          "duration": 0.27777000000003227,
          "durationTicks": 384,
          "midi": 72,
          "name": "C5",
          "ticks": 432384,
          "time": 328.77500999999995,
          "velocity": 0.905511811023622
        },
        {
          "duration": 0.27777000000003227,
          "durationTicks": 384,
          "midi": 55,
          "name": "G3",
          "ticks": 433152,
          "time": 329.33054999999996,
          "velocity": 0.905511811023622
        },
        {
          "duration": 0.27777000000003227,
          "durationTicks": 384,
          "midi": 67,
          "name": "G4",
          "ticks": 433152,
          "time": 329.33054999999996,
          "velocity": 0.905511811023622
        },
        {
          "duration": 0.27777000000003227,
          "durationTicks": 384,
          "midi": 55,
          "name": "G3",
          "ticks": 433920,
          "time": 329.88608999999997,
          "velocity": 0.905511811023622
        },
        {
          "duration": 0.27777000000003227,
          "durationTicks": 384,
          "midi": 67,
          "name": "G4",
          "ticks": 433920,
          "time": 329.88608999999997,
          "velocity": 0.905511811023622
        },
        {
          "duration": 0.5555400000000077,
          "durationTicks": 768,
          "midi": 60,
          "name": "C4",
          "ticks": 434688,
          "time": 330.44163,
          "velocity": 0.905511811023622
        },
        {
          "duration": 0.5555400000000077,
          "durationTicks": 768,
          "midi": 72,
          "name": "C5",
          "ticks": 434688,
          "time": 330.44163,
          "velocity": 0.905511811023622
        },
        {
          "duration": 0.2777699999999754,
          "durationTicks": 384,
          "midi": 60,
          "name": "C4",
          "ticks": 435456,
          "time": 330.99717,
          "velocity": 0.905511811023622
        },
        {
          "duration": 0.2777699999999754,
          "durationTicks": 384,
          "midi": 72,
          "name": "C5",
          "ticks": 435456,
          "time": 330.99717,
          "velocity": 0.905511811023622
        },
        {
          "duration": 0.27777000000003227,
          "durationTicks": 384,
          "midi": 60,
          "name": "C4",
          "ticks": 435840,
          "time": 331.27493999999996,
          "velocity": 0.905511811023622
        },
        {
          "duration": 0.27777000000003227,
          "durationTicks": 384,
          "midi": 72,
          "name": "C5",
          "ticks": 435840,
          "time": 331.27493999999996,
          "velocity": 0.905511811023622
        },
        {
          "duration": 0.5555400000000077,
          "durationTicks": 768,
          "midi": 60,
          "name": "C4",
          "ticks": 436224,
          "time": 331.55271,
          "velocity": 0.905511811023622
        },
        {
          "duration": 0.5555400000000077,
          "durationTicks": 768,
          "midi": 72,
          "name": "C5",
          "ticks": 436224,
          "time": 331.55271,
          "velocity": 0.905511811023622
        },
        {
          "duration": 0.2777699999999754,
          "durationTicks": 384,
          "midi": 60,
          "name": "C4",
          "ticks": 436992,
          "time": 332.10825,
          "velocity": 0.905511811023622
        },
        {
          "duration": 0.2777699999999754,
          "durationTicks": 384,
          "midi": 72,
          "name": "C5",
          "ticks": 436992,
          "time": 332.10825,
          "velocity": 0.905511811023622
        },
        {
          "duration": 0.2777699999999754,
          "durationTicks": 384,
          "midi": 60,
          "name": "C4",
          "ticks": 437376,
          "time": 332.38602,
          "velocity": 0.905511811023622
        },
        {
          "duration": 0.2777699999999754,
          "durationTicks": 384,
          "midi": 72,
          "name": "C5",
          "ticks": 437376,
          "time": 332.38602,
          "velocity": 0.905511811023622
        },
        {
          "duration": 0.5555400000000077,
          "durationTicks": 768,
          "midi": 60,
          "name": "C4",
          "ticks": 437760,
          "time": 332.66378999999995,
          "velocity": 0.905511811023622
        },
        {
          "duration": 0.5555400000000077,
          "durationTicks": 768,
          "midi": 72,
          "name": "C5",
          "ticks": 437760,
          "time": 332.66378999999995,
          "velocity": 0.905511811023622
        },
        {
          "duration": 0.27777000000003227,
          "durationTicks": 384,
          "midi": 60,
          "name": "C4",
          "ticks": 438528,
          "time": 333.21932999999996,
          "velocity": 0.905511811023622
        },
        {
          "duration": 0.27777000000003227,
          "durationTicks": 384,
          "midi": 72,
          "name": "C5",
          "ticks": 438528,
          "time": 333.21932999999996,
          "velocity": 0.905511811023622
        },
        {
          "duration": 0.2777699999999754,
          "durationTicks": 384,
          "midi": 60,
          "name": "C4",
          "ticks": 438912,
          "time": 333.4971,
          "velocity": 0.905511811023622
        },
        {
          "duration": 0.2777699999999754,
          "durationTicks": 384,
          "midi": 72,
          "name": "C5",
          "ticks": 438912,
          "time": 333.4971,
          "velocity": 0.905511811023622
        },
        {
          "duration": 0.5555400000000077,
          "durationTicks": 768,
          "midi": 60,
          "name": "C4",
          "ticks": 439296,
          "time": 333.77486999999996,
          "velocity": 0.905511811023622
        },
        {
          "duration": 0.5555400000000077,
          "durationTicks": 768,
          "midi": 72,
          "name": "C5",
          "ticks": 439296,
          "time": 333.77486999999996,
          "velocity": 0.905511811023622
        },
        {
          "duration": 0.2777699999999754,
          "durationTicks": 384,
          "midi": 55,
          "name": "G3",
          "ticks": 440064,
          "time": 334.33041,
          "velocity": 0.905511811023622
        },
        {
          "duration": 0.2777699999999754,
          "durationTicks": 384,
          "midi": 67,
          "name": "G4",
          "ticks": 440064,
          "time": 334.33041,
          "velocity": 0.905511811023622
        },
        {
          "duration": 0.27777000000003227,
          "durationTicks": 384,
          "midi": 55,
          "name": "G3",
          "ticks": 440448,
          "time": 334.60817999999995,
          "velocity": 0.905511811023622
        },
        {
          "duration": 0.27777000000003227,
          "durationTicks": 384,
          "midi": 67,
          "name": "G4",
          "ticks": 440448,
          "time": 334.60817999999995,
          "velocity": 0.905511811023622
        },
        {
          "duration": 0.5555400000000077,
          "durationTicks": 768,
          "midi": 55,
          "name": "G3",
          "ticks": 440832,
          "time": 334.88595,
          "velocity": 0.905511811023622
        },
        {
          "duration": 0.5555400000000077,
          "durationTicks": 768,
          "midi": 67,
          "name": "G4",
          "ticks": 440832,
          "time": 334.88595,
          "velocity": 0.905511811023622
        },
        {
          "duration": 0.2777699999999754,
          "durationTicks": 384,
          "midi": 55,
          "name": "G3",
          "ticks": 441600,
          "time": 335.44149,
          "velocity": 0.905511811023622
        },
        {
          "duration": 0.2777699999999754,
          "durationTicks": 384,
          "midi": 67,
          "name": "G4",
          "ticks": 441600,
          "time": 335.44149,
          "velocity": 0.905511811023622
        },
        {
          "duration": 0.27777000000003227,
          "durationTicks": 384,
          "midi": 55,
          "name": "G3",
          "ticks": 441984,
          "time": 335.71925999999996,
          "velocity": 0.905511811023622
        },
        {
          "duration": 0.27777000000003227,
          "durationTicks": 384,
          "midi": 67,
          "name": "G4",
          "ticks": 441984,
          "time": 335.71925999999996,
          "velocity": 0.905511811023622
        },
        {
          "duration": 0.5555399999999509,
          "durationTicks": 768,
          "midi": 55,
          "name": "G3",
          "ticks": 442368,
          "time": 335.99703,
          "velocity": 0.905511811023622
        },
        {
          "duration": 0.5555399999999509,
          "durationTicks": 768,
          "midi": 67,
          "name": "G4",
          "ticks": 442368,
          "time": 335.99703,
          "velocity": 0.905511811023622
        },
        {
          "duration": 0.27777000000003227,
          "durationTicks": 384,
          "midi": 55,
          "name": "G3",
          "ticks": 443136,
          "time": 336.55256999999995,
          "velocity": 0.905511811023622
        },
        {
          "duration": 0.27777000000003227,
          "durationTicks": 384,
          "midi": 67,
          "name": "G4",
          "ticks": 443136,
          "time": 336.55256999999995,
          "velocity": 0.905511811023622
        },
        {
          "duration": 0.2777699999999754,
          "durationTicks": 384,
          "midi": 55,
          "name": "G3",
          "ticks": 443520,
          "time": 336.83034,
          "velocity": 0.905511811023622
        },
        {
          "duration": 0.2777699999999754,
          "durationTicks": 384,
          "midi": 67,
          "name": "G4",
          "ticks": 443520,
          "time": 336.83034,
          "velocity": 0.905511811023622
        },
        {
          "duration": 0.5555400000000077,
          "durationTicks": 768,
          "midi": 55,
          "name": "G3",
          "ticks": 443904,
          "time": 337.10810999999995,
          "velocity": 0.905511811023622
        },
        {
          "duration": 0.5555400000000077,
          "durationTicks": 768,
          "midi": 67,
          "name": "G4",
          "ticks": 443904,
          "time": 337.10810999999995,
          "velocity": 0.905511811023622
        },
        {
          "duration": 0.27777000000003227,
          "durationTicks": 384,
          "midi": 55,
          "name": "G3",
          "ticks": 444672,
          "time": 337.66364999999996,
          "velocity": 0.905511811023622
        },
        {
          "duration": 0.27777000000003227,
          "durationTicks": 384,
          "midi": 67,
          "name": "G4",
          "ticks": 444672,
          "time": 337.66364999999996,
          "velocity": 0.905511811023622
        },
        {
          "duration": 0.2777699999999754,
          "durationTicks": 384,
          "midi": 55,
          "name": "G3",
          "ticks": 445056,
          "time": 337.94142,
          "velocity": 0.905511811023622
        },
        {
          "duration": 0.2777699999999754,
          "durationTicks": 384,
          "midi": 67,
          "name": "G4",
          "ticks": 445056,
          "time": 337.94142,
          "velocity": 0.905511811023622
        },
        {
          "duration": 0.2777699999999754,
          "durationTicks": 384,
          "midi": 60,
          "name": "C4",
          "ticks": 445440,
          "time": 338.21918999999997,
          "velocity": 0.905511811023622
        },
        {
          "duration": 0.2777699999999754,
          "durationTicks": 384,
          "midi": 67,
          "name": "G4",
          "ticks": 445440,
          "time": 338.21918999999997,
          "velocity": 0.905511811023622
        },
        {
          "duration": 0.2777699999999754,
          "durationTicks": 384,
          "midi": 60,
          "name": "C4",
          "ticks": 447744,
          "time": 339.88581,
          "velocity": 0.905511811023622
        },
        {
          "duration": 0.2777699999999754,
          "durationTicks": 384,
          "midi": 72,
          "name": "C5",
          "ticks": 447744,
          "time": 339.88581,
          "velocity": 0.905511811023622
        },
        {
          "duration": 0.2777699999999754,
          "durationTicks": 384,
          "midi": 60,
          "name": "C4",
          "ticks": 448128,
          "time": 340.16357999999997,
          "velocity": 0.905511811023622
        },
        {
          "duration": 0.2777699999999754,
          "durationTicks": 384,
          "midi": 72,
          "name": "C5",
          "ticks": 448128,
          "time": 340.16357999999997,
          "velocity": 0.905511811023622
        },
        {
          "duration": 0.27777000000003227,
          "durationTicks": 384,
          "midi": 60,
          "name": "C4",
          "ticks": 449280,
          "time": 340.99688999999995,
          "velocity": 0.905511811023622
        },
        {
          "duration": 0.27777000000003227,
          "durationTicks": 384,
          "midi": 72,
          "name": "C5",
          "ticks": 449280,
          "time": 340.99688999999995,
          "velocity": 0.905511811023622
        },
        {
          "duration": 0.2777699999999754,
          "durationTicks": 384,
          "midi": 60,
          "name": "C4",
          "ticks": 449664,
          "time": 341.27466,
          "velocity": 0.905511811023622
        },
        {
          "duration": 0.2777699999999754,
          "durationTicks": 384,
          "midi": 72,
          "name": "C5",
          "ticks": 449664,
          "time": 341.27466,
          "velocity": 0.905511811023622
        },
        {
          "duration": 0.2777699999999754,
          "durationTicks": 384,
          "midi": 55,
          "name": "G3",
          "ticks": 450432,
          "time": 341.8302,
          "velocity": 0.905511811023622
        },
        {
          "duration": 0.2777699999999754,
          "durationTicks": 384,
          "midi": 67,
          "name": "G4",
          "ticks": 450432,
          "time": 341.8302,
          "velocity": 0.905511811023622
        },
        {
          "duration": 0.27777000000003227,
          "durationTicks": 384,
          "midi": 55,
          "name": "G3",
          "ticks": 451200,
          "time": 342.38573999999994,
          "velocity": 0.905511811023622
        },
        {
          "duration": 0.27777000000003227,
          "durationTicks": 384,
          "midi": 67,
          "name": "G4",
          "ticks": 451200,
          "time": 342.38573999999994,
          "velocity": 0.905511811023622
        },
        {
          "duration": 0.2777699999999754,
          "durationTicks": 384,
          "midi": 60,
          "name": "C4",
          "ticks": 453120,
          "time": 343.77459,
          "velocity": 0.905511811023622
        },
        {
          "duration": 0.2777699999999754,
          "durationTicks": 384,
          "midi": 72,
          "name": "C5",
          "ticks": 453120,
          "time": 343.77459,
          "velocity": 0.905511811023622
        },
        {
          "duration": 0.2777699999999754,
          "durationTicks": 384,
          "midi": 60,
          "name": "C4",
          "ticks": 453504,
          "time": 344.05235999999996,
          "velocity": 0.905511811023622
        },
        {
          "duration": 0.2777699999999754,
          "durationTicks": 384,
          "midi": 72,
          "name": "C5",
          "ticks": 453504,
          "time": 344.05235999999996,
          "velocity": 0.905511811023622
        },
        {
          "duration": 0.27777000000003227,
          "durationTicks": 384,
          "midi": 60,
          "name": "C4",
          "ticks": 453888,
          "time": 344.33012999999994,
          "velocity": 0.905511811023622
        },
        {
          "duration": 0.27777000000003227,
          "durationTicks": 384,
          "midi": 72,
          "name": "C5",
          "ticks": 453888,
          "time": 344.33012999999994,
          "velocity": 0.905511811023622
        },
        {
          "duration": 0.27777000000003227,
          "durationTicks": 384,
          "midi": 60,
          "name": "C4",
          "ticks": 454272,
          "time": 344.6079,
          "velocity": 0.905511811023622
        },
        {
          "duration": 0.27777000000003227,
          "durationTicks": 384,
          "midi": 72,
          "name": "C5",
          "ticks": 454272,
          "time": 344.6079,
          "velocity": 0.905511811023622
        },
        {
          "duration": 0.2777699999999754,
          "durationTicks": 384,
          "midi": 60,
          "name": "C4",
          "ticks": 454656,
          "time": 344.88567,
          "velocity": 0.905511811023622
        },
        {
          "duration": 0.2777699999999754,
          "durationTicks": 384,
          "midi": 72,
          "name": "C5",
          "ticks": 454656,
          "time": 344.88567,
          "velocity": 0.905511811023622
        },
        {
          "duration": 0.2777699999999754,
          "durationTicks": 384,
          "midi": 60,
          "name": "C4",
          "ticks": 455040,
          "time": 345.16344,
          "velocity": 0.905511811023622
        },
        {
          "duration": 0.2777699999999754,
          "durationTicks": 384,
          "midi": 72,
          "name": "C5",
          "ticks": 455040,
          "time": 345.16344,
          "velocity": 0.905511811023622
        },
        {
          "duration": 0.27777000000003227,
          "durationTicks": 384,
          "midi": 60,
          "name": "C4",
          "ticks": 455424,
          "time": 345.44120999999996,
          "velocity": 0.905511811023622
        },
        {
          "duration": 0.27777000000003227,
          "durationTicks": 384,
          "midi": 72,
          "name": "C5",
          "ticks": 455424,
          "time": 345.44120999999996,
          "velocity": 0.905511811023622
        },
        {
          "duration": 0.2777699999999754,
          "durationTicks": 384,
          "midi": 60,
          "name": "C4",
          "ticks": 455808,
          "time": 345.71898,
          "velocity": 0.905511811023622
        },
        {
          "duration": 0.2777699999999754,
          "durationTicks": 384,
          "midi": 72,
          "name": "C5",
          "ticks": 455808,
          "time": 345.71898,
          "velocity": 0.905511811023622
        },
        {
          "duration": 0.27777000000003227,
          "durationTicks": 384,
          "midi": 55,
          "name": "G3",
          "ticks": 456576,
          "time": 346.27451999999994,
          "velocity": 0.905511811023622
        },
        {
          "duration": 0.27777000000003227,
          "durationTicks": 384,
          "midi": 67,
          "name": "G4",
          "ticks": 456576,
          "time": 346.27451999999994,
          "velocity": 0.905511811023622
        },
        {
          "duration": 0.2777699999999754,
          "durationTicks": 384,
          "midi": 55,
          "name": "G3",
          "ticks": 457344,
          "time": 346.83006,
          "velocity": 0.905511811023622
        },
        {
          "duration": 0.2777699999999754,
          "durationTicks": 384,
          "midi": 67,
          "name": "G4",
          "ticks": 457344,
          "time": 346.83006,
          "velocity": 0.905511811023622
        },
        {
          "duration": 0.2777699999999754,
          "durationTicks": 384,
          "midi": 60,
          "name": "C4",
          "ticks": 457728,
          "time": 347.10783,
          "velocity": 0.905511811023622
        },
        {
          "duration": 0.2777699999999754,
          "durationTicks": 384,
          "midi": 72,
          "name": "C5",
          "ticks": 457728,
          "time": 347.10783,
          "velocity": 0.905511811023622
        },
        {
          "duration": 0.13888500000001613,
          "durationTicks": 192,
          "midi": 55,
          "name": "G3",
          "ticks": 461760,
          "time": 350.024415,
          "velocity": 0.905511811023622
        },
        {
          "duration": 0.13888500000001613,
          "durationTicks": 192,
          "midi": 67,
          "name": "G4",
          "ticks": 461760,
          "time": 350.024415,
          "velocity": 0.905511811023622
        },
        {
          "duration": 0.1388849999999593,
          "durationTicks": 192,
          "midi": 55,
          "name": "G3",
          "ticks": 461952,
          "time": 350.1633,
          "velocity": 0.905511811023622
        },
        {
          "duration": 0.1388849999999593,
          "durationTicks": 192,
          "midi": 67,
          "name": "G4",
          "ticks": 461952,
          "time": 350.1633,
          "velocity": 0.905511811023622
        },
        {
          "duration": 0.13888500000001613,
          "durationTicks": 192,
          "midi": 55,
          "name": "G3",
          "ticks": 462144,
          "time": 350.30218499999995,
          "velocity": 0.905511811023622
        },
        {
          "duration": 0.13888500000001613,
          "durationTicks": 192,
          "midi": 67,
          "name": "G4",
          "ticks": 462144,
          "time": 350.30218499999995,
          "velocity": 0.905511811023622
        },
        {
          "duration": 0.27777000000003227,
          "durationTicks": 384,
          "midi": 60,
          "name": "C4",
          "ticks": 462336,
          "time": 350.44106999999997,
          "velocity": 0.905511811023622
        },
        {
          "duration": 0.27777000000003227,
          "durationTicks": 384,
          "midi": 72,
          "name": "C5",
          "ticks": 462336,
          "time": 350.44106999999997,
          "velocity": 0.905511811023622
        },
        {
          "duration": 0.1388849999999593,
          "durationTicks": 192,
          "midi": 55,
          "name": "G3",
          "ticks": 464832,
          "time": 352.246575,
          "velocity": 0.905511811023622
        },
        {
          "duration": 0.1388849999999593,
          "durationTicks": 192,
          "midi": 67,
          "name": "G4",
          "ticks": 464832,
          "time": 352.246575,
          "velocity": 0.905511811023622
        },
        {
          "duration": 0.13888500000001613,
          "durationTicks": 192,
          "midi": 55,
          "name": "G3",
          "ticks": 465024,
          "time": 352.38545999999997,
          "velocity": 0.905511811023622
        },
        {
          "duration": 0.13888500000001613,
          "durationTicks": 192,
          "midi": 67,
          "name": "G4",
          "ticks": 465024,
          "time": 352.38545999999997,
          "velocity": 0.905511811023622
        },
        {
          "duration": 0.13888500000001613,
          "durationTicks": 192,
          "midi": 55,
          "name": "G3",
          "ticks": 465216,
          "time": 352.524345,
          "velocity": 0.905511811023622
        },
        {
          "duration": 0.13888500000001613,
          "durationTicks": 192,
          "midi": 67,
          "name": "G4",
          "ticks": 465216,
          "time": 352.524345,
          "velocity": 0.905511811023622
        },
        {
          "duration": 1.0908999999999764,
          "durationTicks": 768,
          "midi": 55,
          "name": "G3",
          "ticks": 465408,
          "time": 352.66323,
          "velocity": 0.968503937007874
        },
        {
          "duration": 1.0908999999999764,
          "durationTicks": 768,
          "midi": 67,
          "name": "G4",
          "ticks": 465408,
          "time": 352.66323,
          "velocity": 0.968503937007874
        },
        {
          "duration": 0.1388849999999593,
          "durationTicks": 192,
          "midi": 55,
          "name": "G3",
          "ticks": 466368,
          "time": 353.893015,
          "velocity": 0.968503937007874
        },
        {
          "duration": 0.1388849999999593,
          "durationTicks": 192,
          "midi": 67,
          "name": "G4",
          "ticks": 466368,
          "time": 353.893015,
          "velocity": 0.968503937007874
        },
        {
          "duration": 0.13888500000001613,
          "durationTicks": 192,
          "midi": 55,
          "name": "G3",
          "ticks": 466560,
          "time": 354.03189999999995,
          "velocity": 0.968503937007874
        },
        {
          "duration": 0.13888500000001613,
          "durationTicks": 192,
          "midi": 67,
          "name": "G4",
          "ticks": 466560,
          "time": 354.03189999999995,
          "velocity": 0.968503937007874
        },
        {
          "duration": 0.13888500000001613,
          "durationTicks": 192,
          "midi": 55,
          "name": "G3",
          "ticks": 466752,
          "time": 354.17078499999997,
          "velocity": 0.968503937007874
        },
        {
          "duration": 0.13888500000001613,
          "durationTicks": 192,
          "midi": 67,
          "name": "G4",
          "ticks": 466752,
          "time": 354.17078499999997,
          "velocity": 0.968503937007874
        },
        {
          "duration": 1.7555399999999963,
          "durationTicks": 1536,
          "midi": 55,
          "name": "G3",
          "ticks": 466944,
          "time": 354.30967,
          "velocity": 0.968503937007874
        },
        {
          "duration": 1.7555399999999963,
          "durationTicks": 1536,
          "midi": 67,
          "name": "G4",
          "ticks": 466944,
          "time": 354.30967,
          "velocity": 0.968503937007874
        },
        {
          "duration": 0.1415049999999951,
          "durationTicks": 192,
          "midi": 55,
          "name": "G3",
          "ticks": 474816,
          "time": 360.734875,
          "velocity": 0.968503937007874
        },
        {
          "duration": 0.1415049999999951,
          "durationTicks": 192,
          "midi": 67,
          "name": "G4",
          "ticks": 474816,
          "time": 360.734875,
          "velocity": 0.968503937007874
        },
        {
          "duration": 0.1415049999999951,
          "durationTicks": 192,
          "midi": 55,
          "name": "G3",
          "ticks": 475008,
          "time": 360.87638,
          "velocity": 0.968503937007874
        },
        {
          "duration": 0.1415049999999951,
          "durationTicks": 192,
          "midi": 67,
          "name": "G4",
          "ticks": 475008,
          "time": 360.87638,
          "velocity": 0.968503937007874
        },
        {
          "duration": 0.1415049999999951,
          "durationTicks": 192,
          "midi": 55,
          "name": "G3",
          "ticks": 475200,
          "time": 361.017885,
          "velocity": 0.968503937007874
        },
        {
          "duration": 0.1415049999999951,
          "durationTicks": 192,
          "midi": 67,
          "name": "G4",
          "ticks": 475200,
          "time": 361.017885,
          "velocity": 0.968503937007874
        },
        {
          "duration": 0.2830099999999902,
          "durationTicks": 384,
          "midi": 60,
          "name": "C4",
          "ticks": 475392,
          "time": 361.15939,
          "velocity": 0.968503937007874
        },
        {
          "duration": 0.2830099999999902,
          "durationTicks": 384,
          "midi": 72,
          "name": "C5",
          "ticks": 475392,
          "time": 361.15939,
          "velocity": 0.968503937007874
        },
        {
          "duration": 0.1415049999999951,
          "durationTicks": 192,
          "midi": 55,
          "name": "G3",
          "ticks": 476352,
          "time": 361.866915,
          "velocity": 0.968503937007874
        },
        {
          "duration": 0.1415049999999951,
          "durationTicks": 192,
          "midi": 67,
          "name": "G4",
          "ticks": 476352,
          "time": 361.866915,
          "velocity": 0.968503937007874
        },
        {
          "duration": 0.1415049999999951,
          "durationTicks": 192,
          "midi": 55,
          "name": "G3",
          "ticks": 476544,
          "time": 362.00842,
          "velocity": 0.968503937007874
        },
        {
          "duration": 0.1415049999999951,
          "durationTicks": 192,
          "midi": 67,
          "name": "G4",
          "ticks": 476544,
          "time": 362.00842,
          "velocity": 0.968503937007874
        },
        {
          "duration": 0.1415049999999951,
          "durationTicks": 192,
          "midi": 55,
          "name": "G3",
          "ticks": 476736,
          "time": 362.149925,
          "velocity": 0.968503937007874
        },
        {
          "duration": 0.1415049999999951,
          "durationTicks": 192,
          "midi": 67,
          "name": "G4",
          "ticks": 476736,
          "time": 362.149925,
          "velocity": 0.968503937007874
        },
        {
          "duration": 0.2830099999999902,
          "durationTicks": 384,
          "midi": 60,
          "name": "C4",
          "ticks": 476928,
          "time": 362.29143,
          "velocity": 0.968503937007874
        },
        {
          "duration": 0.2830099999999902,
          "durationTicks": 384,
          "midi": 72,
          "name": "C5",
          "ticks": 476928,
          "time": 362.29143,
          "velocity": 0.968503937007874
        },
        {
          "duration": 0.1415049999999951,
          "durationTicks": 192,
          "midi": 55,
          "name": "G3",
          "ticks": 477888,
          "time": 362.99895499999997,
          "velocity": 0.968503937007874
        },
        {
          "duration": 0.1415049999999951,
          "durationTicks": 192,
          "midi": 67,
          "name": "G4",
          "ticks": 477888,
          "time": 362.99895499999997,
          "velocity": 0.968503937007874
        },
        {
          "duration": 0.1415049999999951,
          "durationTicks": 192,
          "midi": 55,
          "name": "G3",
          "ticks": 478080,
          "time": 363.14045999999996,
          "velocity": 0.968503937007874
        },
        {
          "duration": 0.1415049999999951,
          "durationTicks": 192,
          "midi": 67,
          "name": "G4",
          "ticks": 478080,
          "time": 363.14045999999996,
          "velocity": 0.968503937007874
        },
        {
          "duration": 0.1415049999999951,
          "durationTicks": 192,
          "midi": 55,
          "name": "G3",
          "ticks": 478272,
          "time": 363.28196499999996,
          "velocity": 0.968503937007874
        },
        {
          "duration": 0.1415049999999951,
          "durationTicks": 192,
          "midi": 67,
          "name": "G4",
          "ticks": 478272,
          "time": 363.28196499999996,
          "velocity": 0.968503937007874
        },
        {
          "duration": 0.28301000000004706,
          "durationTicks": 384,
          "midi": 60,
          "name": "C4",
          "ticks": 478464,
          "time": 363.42346999999995,
          "velocity": 0.968503937007874
        },
        {
          "duration": 0.28301000000004706,
          "durationTicks": 384,
          "midi": 72,
          "name": "C5",
          "ticks": 478464,
          "time": 363.42346999999995,
          "velocity": 0.968503937007874
        },
        {
          "duration": 0.2830099999999902,
          "durationTicks": 384,
          "midi": 55,
          "name": "G3",
          "ticks": 478848,
          "time": 363.70648,
          "velocity": 0.968503937007874
        },
        {
          "duration": 0.2830099999999902,
          "durationTicks": 384,
          "midi": 67,
          "name": "G4",
          "ticks": 478848,
          "time": 363.70648,
          "velocity": 0.968503937007874
        },
        {
          "duration": 0.2830099999999902,
          "durationTicks": 384,
          "midi": 60,
          "name": "C4",
          "ticks": 479232,
          "time": 363.98949,
          "velocity": 0.968503937007874
        },
        {
          "duration": 0.2830099999999902,
          "durationTicks": 384,
          "midi": 72,
          "name": "C5",
          "ticks": 479232,
          "time": 363.98949,
          "velocity": 0.968503937007874
        },
        {
          "duration": 0.2830099999999902,
          "durationTicks": 384,
          "midi": 55,
          "name": "G3",
          "ticks": 479616,
          "time": 364.2725,
          "velocity": 0.968503937007874
        },
        {
          "duration": 0.2830099999999902,
          "durationTicks": 384,
          "midi": 67,
          "name": "G4",
          "ticks": 479616,
          "time": 364.2725,
          "velocity": 0.968503937007874
        },
        {
          "duration": 0.2830099999999902,
          "durationTicks": 384,
          "midi": 60,
          "name": "C4",
          "ticks": 480000,
          "time": 364.55550999999997,
          "velocity": 0.968503937007874
        },
        {
          "duration": 0.2830099999999902,
          "durationTicks": 384,
          "midi": 72,
          "name": "C5",
          "ticks": 480000,
          "time": 364.55550999999997,
          "velocity": 0.968503937007874
        },
        {
          "duration": 0.28301000000004706,
          "durationTicks": 384,
          "midi": 55,
          "name": "G3",
          "ticks": 480384,
          "time": 364.83851999999996,
          "velocity": 0.968503937007874
        },
        {
          "duration": 0.28301000000004706,
          "durationTicks": 384,
          "midi": 67,
          "name": "G4",
          "ticks": 480384,
          "time": 364.83851999999996,
          "velocity": 0.968503937007874
        },
        {
          "duration": 0.2830099999999902,
          "durationTicks": 384,
          "midi": 60,
          "name": "C4",
          "ticks": 480768,
          "time": 365.12153,
          "velocity": 0.968503937007874
        },
        {
          "duration": 0.2830099999999902,
          "durationTicks": 384,
          "midi": 72,
          "name": "C5",
          "ticks": 480768,
          "time": 365.12153,
          "velocity": 0.968503937007874
        },
        {
          "duration": 0.2830099999999902,
          "durationTicks": 384,
          "midi": 55,
          "name": "G3",
          "ticks": 481152,
          "time": 365.40454,
          "velocity": 0.968503937007874
        },
        {
          "duration": 0.2830099999999902,
          "durationTicks": 384,
          "midi": 67,
          "name": "G4",
          "ticks": 481152,
          "time": 365.40454,
          "velocity": 0.968503937007874
        },
        {
          "duration": 0.2830099999999902,
          "durationTicks": 384,
          "midi": 60,
          "name": "C4",
          "ticks": 481536,
          "time": 365.68755,
          "velocity": 0.968503937007874
        },
        {
          "duration": 0.2830099999999902,
          "durationTicks": 384,
          "midi": 72,
          "name": "C5",
          "ticks": 481536,
          "time": 365.68755,
          "velocity": 0.968503937007874
        },
        {
          "duration": 0.2830099999999902,
          "durationTicks": 384,
          "midi": 55,
          "name": "G3",
          "ticks": 482304,
          "time": 366.25356999999997,
          "velocity": 0.968503937007874
        },
        {
          "duration": 0.2830099999999902,
          "durationTicks": 384,
          "midi": 67,
          "name": "G4",
          "ticks": 482304,
          "time": 366.25356999999997,
          "velocity": 0.968503937007874
        },
        {
          "duration": 0.2830099999999902,
          "durationTicks": 384,
          "midi": 60,
          "name": "C4",
          "ticks": 483072,
          "time": 366.81959,
          "velocity": 0.968503937007874
        },
        {
          "duration": 0.2830099999999902,
          "durationTicks": 384,
          "midi": 60,
          "name": "C4",
          "ticks": 483072,
          "time": 366.81959,
          "velocity": 0.968503937007874
        }
      ],
      "endOfTrackTicks": 484608
    },
    {
      "channel": 6,
      "controlChanges": {},
      "pitchBends": [],
      "instrument": {
        "family": "strings",
        "number": 47,
        "name": "timpani"
      },
      "name": "TIMPANI",
      "notes": [
        {
          "duration": 0.1442300000000003,
          "durationTicks": 192,
          "midi": 43,
          "name": "G2",
          "ticks": 13248,
          "time": 11.06727,
          "velocity": 0.7165354330708661
        },
        {
          "duration": 0.14422999999999853,
          "durationTicks": 192,
          "midi": 43,
          "name": "G2",
          "ticks": 13440,
          "time": 11.211500000000001,
          "velocity": 0.7952755905511811
        },
        {
          "duration": 0.1442300000000003,
          "durationTicks": 192,
          "midi": 43,
          "name": "G2",
          "ticks": 13632,
          "time": 11.35573,
          "velocity": 0.8582677165354331
        },
        {
          "duration": 0.28845999999999883,
          "durationTicks": 384,
          "midi": 48,
          "name": "C3",
          "ticks": 13824,
          "time": 11.49996,
          "velocity": 0.905511811023622
        },
        {
          "duration": 0.2884600000000006,
          "durationTicks": 384,
          "midi": 48,
          "name": "C3",
          "ticks": 14592,
          "time": 12.07688,
          "velocity": 0.905511811023622
        },
        {
          "duration": 0.28845999999999883,
          "durationTicks": 384,
          "midi": 43,
          "name": "G2",
          "ticks": 15360,
          "time": 12.6538,
          "velocity": 0.905511811023622
        },
        {
          "duration": 0.2803699999999978,
          "durationTicks": 384,
          "midi": 48,
          "name": "C3",
          "ticks": 32256,
          "time": 27.317,
          "velocity": 0.905511811023622
        },
        {
          "duration": 0.2777700000000003,
          "durationTicks": 384,
          "midi": 48,
          "name": "C3",
          "ticks": 33024,
          "time": 27.87774,
          "velocity": 0.905511811023622
        },
        {
          "duration": 0.13888500000000192,
          "durationTicks": 192,
          "midi": 48,
          "name": "C3",
          "ticks": 35712,
          "time": 29.822129999999998,
          "velocity": 0.905511811023622
        },
        {
          "duration": 0.13888499999999837,
          "durationTicks": 192,
          "midi": 48,
          "name": "C3",
          "ticks": 35904,
          "time": 29.961015,
          "velocity": 0.905511811023622
        },
        {
          "duration": 0.2777700000000003,
          "durationTicks": 384,
          "midi": 43,
          "name": "G2",
          "ticks": 36096,
          "time": 30.099899999999998,
          "velocity": 0.905511811023622
        },
        {
          "duration": 0.13888500000000192,
          "durationTicks": 192,
          "midi": 48,
          "name": "C3",
          "ticks": 38784,
          "time": 32.04429,
          "velocity": 0.905511811023622
        },
        {
          "duration": 0.13888500000000192,
          "durationTicks": 192,
          "midi": 48,
          "name": "C3",
          "ticks": 38976,
          "time": 32.183175,
          "velocity": 0.905511811023622
        },
        {
          "duration": 0.13888500000000192,
          "durationTicks": 192,
          "midi": 48,
          "name": "C3",
          "ticks": 39168,
          "time": 32.32206,
          "velocity": 0.968503937007874
        },
        {
          "duration": 0.13888499999999482,
          "durationTicks": 192,
          "midi": 48,
          "name": "C3",
          "ticks": 39360,
          "time": 32.460945,
          "velocity": 0.968503937007874
        },
        {
          "duration": 0.13888500000000192,
          "durationTicks": 192,
          "midi": 48,
          "name": "C3",
          "ticks": 39552,
          "time": 32.59983,
          "velocity": 0.968503937007874
        },
        {
          "duration": 0.13888500000000192,
          "durationTicks": 192,
          "midi": 48,
          "name": "C3",
          "ticks": 39744,
          "time": 32.738715,
          "velocity": 0.968503937007874
        },
        {
          "duration": 0.13888500000000192,
          "durationTicks": 192,
          "midi": 48,
          "name": "C3",
          "ticks": 39936,
          "time": 32.8776,
          "velocity": 0.968503937007874
        },
        {
          "duration": 0.13888499999999482,
          "durationTicks": 192,
          "midi": 48,
          "name": "C3",
          "ticks": 40128,
          "time": 33.016485,
          "velocity": 0.968503937007874
        },
        {
          "duration": 0.13888500000000192,
          "durationTicks": 192,
          "midi": 48,
          "name": "C3",
          "ticks": 40320,
          "time": 33.15537,
          "velocity": 0.968503937007874
        },
        {
          "duration": 0.13888500000000192,
          "durationTicks": 192,
          "midi": 48,
          "name": "C3",
          "ticks": 40512,
          "time": 33.294255,
          "velocity": 0.968503937007874
        },
        {
          "duration": 0.13888499999999482,
          "durationTicks": 192,
          "midi": 48,
          "name": "C3",
          "ticks": 40704,
          "time": 33.43314,
          "velocity": 0.968503937007874
        },
        {
          "duration": 0.13888500000000192,
          "durationTicks": 192,
          "midi": 48,
          "name": "C3",
          "ticks": 40896,
          "time": 33.572025,
          "velocity": 0.968503937007874
        },
        {
          "duration": 0.13888500000000192,
          "durationTicks": 192,
          "midi": 48,
          "name": "C3",
          "ticks": 41088,
          "time": 33.71091,
          "velocity": 0.968503937007874
        },
        {
          "duration": 0.13888500000000192,
          "durationTicks": 192,
          "midi": 48,
          "name": "C3",
          "ticks": 41280,
          "time": 33.849795,
          "velocity": 0.968503937007874
        },
        {
          "duration": 0.13888499999999482,
          "durationTicks": 192,
          "midi": 48,
          "name": "C3",
          "ticks": 41472,
          "time": 33.98868,
          "velocity": 0.968503937007874
        },
        {
          "duration": 0.13888500000000192,
          "durationTicks": 192,
          "midi": 48,
          "name": "C3",
          "ticks": 41664,
          "time": 34.127565,
          "velocity": 0.968503937007874
        },
        {
          "duration": 0.13888500000000192,
          "durationTicks": 192,
          "midi": 48,
          "name": "C3",
          "ticks": 41856,
          "time": 34.26645,
          "velocity": 0.968503937007874
        },
        {
          "duration": 0.13888499999999482,
          "durationTicks": 192,
          "midi": 48,
          "name": "C3",
          "ticks": 42048,
          "time": 34.405335,
          "velocity": 0.968503937007874
        },
        {
          "duration": 0.27777000000000385,
          "durationTicks": 384,
          "midi": 48,
          "name": "C3",
          "ticks": 42240,
          "time": 34.544219999999996,
          "velocity": 0.968503937007874
        },
        {
          "duration": 0.27776999999999674,
          "durationTicks": 384,
          "midi": 43,
          "name": "G2",
          "ticks": 74496,
          "time": 58.11124,
          "velocity": 0.905511811023622
        },
        {
          "duration": 0.27776999999999674,
          "durationTicks": 384,
          "midi": 48,
          "name": "C3",
          "ticks": 75264,
          "time": 58.66678,
          "velocity": 0.905511811023622
        },
        {
          "duration": 0.27777000000000385,
          "durationTicks": 384,
          "midi": 43,
          "name": "G2",
          "ticks": 79488,
          "time": 61.72225,
          "velocity": 0.905511811023622
        },
        {
          "duration": 0.27777000000000385,
          "durationTicks": 384,
          "midi": 43,
          "name": "G2",
          "ticks": 81024,
          "time": 62.833330000000004,
          "velocity": 0.905511811023622
        },
        {
          "duration": 0.27777000000000385,
          "durationTicks": 384,
          "midi": 48,
          "name": "C3",
          "ticks": 81792,
          "time": 63.38887,
          "velocity": 0.905511811023622
        },
        {
          "duration": 0.1415049999999951,
          "durationTicks": 192,
          "midi": 43,
          "name": "G2",
          "ticks": 108480,
          "time": 84.044565,
          "velocity": 0.7165354330708661
        },
        {
          "duration": 0.1415049999999951,
          "durationTicks": 192,
          "midi": 43,
          "name": "G2",
          "ticks": 108672,
          "time": 84.18607,
          "velocity": 0.7952755905511811
        },
        {
          "duration": 0.14150500000000932,
          "durationTicks": 192,
          "midi": 43,
          "name": "G2",
          "ticks": 108864,
          "time": 84.327575,
          "velocity": 0.8582677165354331
        },
        {
          "duration": 0.2830100000000044,
          "durationTicks": 384,
          "midi": 48,
          "name": "C3",
          "ticks": 109056,
          "time": 84.46908,
          "velocity": 0.905511811023622
        },
        {
          "duration": 0.2830100000000044,
          "durationTicks": 384,
          "midi": 48,
          "name": "C3",
          "ticks": 109824,
          "time": 85.0351,
          "velocity": 0.905511811023622
        },
        {
          "duration": 0.2830099999999902,
          "durationTicks": 384,
          "midi": 43,
          "name": "G2",
          "ticks": 110592,
          "time": 85.60112000000001,
          "velocity": 0.905511811023622
        },
        {
          "duration": 0.2803700000000049,
          "durationTicks": 384,
          "midi": 48,
          "name": "C3",
          "ticks": 127488,
          "time": 99.79221000000001,
          "velocity": 0.905511811023622
        },
        {
          "duration": 0.27777000000000385,
          "durationTicks": 384,
          "midi": 48,
          "name": "C3",
          "ticks": 128256,
          "time": 100.35295,
          "velocity": 0.905511811023622
        },
        {
          "duration": 0.13888500000000192,
          "durationTicks": 192,
          "midi": 48,
          "name": "C3",
          "ticks": 130944,
          "time": 102.29734,
          "velocity": 0.905511811023622
        },
        {
          "duration": 0.13888500000000192,
          "durationTicks": 192,
          "midi": 48,
          "name": "C3",
          "ticks": 131136,
          "time": 102.43622500000001,
          "velocity": 0.905511811023622
        },
        {
          "duration": 0.27777000000000385,
          "durationTicks": 384,
          "midi": 43,
          "name": "G2",
          "ticks": 131328,
          "time": 102.57511000000001,
          "velocity": 0.905511811023622
        },
        {
          "duration": 0.13888500000000192,
          "durationTicks": 192,
          "midi": 48,
          "name": "C3",
          "ticks": 134016,
          "time": 104.51950000000001,
          "velocity": 0.905511811023622
        },
        {
          "duration": 0.13888500000000192,
          "durationTicks": 192,
          "midi": 48,
          "name": "C3",
          "ticks": 134208,
          "time": 104.65838500000001,
          "velocity": 0.905511811023622
        },
        {
          "duration": 0.13888500000000192,
          "durationTicks": 192,
          "midi": 48,
          "name": "C3",
          "ticks": 134400,
          "time": 104.79727000000001,
          "velocity": 0.968503937007874
        },
        {
          "duration": 0.1388849999999877,
          "durationTicks": 192,
          "midi": 48,
          "name": "C3",
          "ticks": 134592,
          "time": 104.93615500000001,
          "velocity": 0.968503937007874
        },
        {
          "duration": 0.13888500000000192,
          "durationTicks": 192,
          "midi": 48,
          "name": "C3",
          "ticks": 134784,
          "time": 105.07504,
          "velocity": 0.968503937007874
        },
        {
          "duration": 0.13888500000000192,
          "durationTicks": 192,
          "midi": 48,
          "name": "C3",
          "ticks": 134976,
          "time": 105.213925,
          "velocity": 0.968503937007874
        },
        {
          "duration": 0.13888500000000192,
          "durationTicks": 192,
          "midi": 48,
          "name": "C3",
          "ticks": 135168,
          "time": 105.35281,
          "velocity": 0.968503937007874
        },
        {
          "duration": 0.13888500000000192,
          "durationTicks": 192,
          "midi": 48,
          "name": "C3",
          "ticks": 135360,
          "time": 105.491695,
          "velocity": 0.968503937007874
        },
        {
          "duration": 0.13888500000000192,
          "durationTicks": 192,
          "midi": 48,
          "name": "C3",
          "ticks": 135552,
          "time": 105.63058000000001,
          "velocity": 0.968503937007874
        },
        {
          "duration": 0.13888500000000192,
          "durationTicks": 192,
          "midi": 48,
          "name": "C3",
          "ticks": 135744,
          "time": 105.76946500000001,
          "velocity": 0.968503937007874
        },
        {
          "duration": 0.1388849999999877,
          "durationTicks": 192,
          "midi": 48,
          "name": "C3",
          "ticks": 135936,
          "time": 105.90835000000001,
          "velocity": 0.968503937007874
        },
        {
          "duration": 0.13888500000000192,
          "durationTicks": 192,
          "midi": 48,
          "name": "C3",
          "ticks": 136128,
          "time": 106.047235,
          "velocity": 0.968503937007874
        },
        {
          "duration": 0.13888500000000192,
          "durationTicks": 192,
          "midi": 48,
          "name": "C3",
          "ticks": 136320,
          "time": 106.18612,
          "velocity": 0.968503937007874
        },
        {
          "duration": 0.13888500000000192,
          "durationTicks": 192,
          "midi": 48,
          "name": "C3",
          "ticks": 136512,
          "time": 106.325005,
          "velocity": 0.968503937007874
        },
        {
          "duration": 0.13888500000000192,
          "durationTicks": 192,
          "midi": 48,
          "name": "C3",
          "ticks": 136704,
          "time": 106.46389,
          "velocity": 0.968503937007874
        },
        {
          "duration": 0.13888500000000192,
          "durationTicks": 192,
          "midi": 48,
          "name": "C3",
          "ticks": 136896,
          "time": 106.60277500000001,
          "velocity": 0.968503937007874
        },
        {
          "duration": 0.13888500000000192,
          "durationTicks": 192,
          "midi": 48,
          "name": "C3",
          "ticks": 137088,
          "time": 106.74166000000001,
          "velocity": 0.968503937007874
        },
        {
          "duration": 0.1388849999999877,
          "durationTicks": 192,
          "midi": 48,
          "name": "C3",
          "ticks": 137280,
          "time": 106.88054500000001,
          "velocity": 0.968503937007874
        },
        {
          "duration": 0.27777000000000385,
          "durationTicks": 384,
          "midi": 48,
          "name": "C3",
          "ticks": 137472,
          "time": 107.01943,
          "velocity": 0.968503937007874
        },
        {
          "duration": 0.27777000000000385,
          "durationTicks": 384,
          "midi": 43,
          "name": "G2",
          "ticks": 169728,
          "time": 130.58645,
          "velocity": 0.905511811023622
        },
        {
          "duration": 0.27777000000000385,
          "durationTicks": 384,
          "midi": 48,
          "name": "C3",
          "ticks": 170496,
          "time": 131.14199000000002,
          "velocity": 0.905511811023622
        },
        {
          "duration": 0.27777000000000385,
          "durationTicks": 384,
          "midi": 43,
          "name": "G2",
          "ticks": 174720,
          "time": 134.19746,
          "velocity": 0.905511811023622
        },
        {
          "duration": 0.27777000000000385,
          "durationTicks": 384,
          "midi": 43,
          "name": "G2",
          "ticks": 176256,
          "time": 135.30854000000002,
          "velocity": 0.905511811023622
        },
        {
          "duration": 0.27777000000000385,
          "durationTicks": 384,
          "midi": 48,
          "name": "C3",
          "ticks": 177024,
          "time": 135.86408,
          "velocity": 0.905511811023622
        },
        {
          "duration": 0.30000000000001137,
          "durationTicks": 384,
          "midi": 43,
          "name": "G2",
          "ticks": 215808,
          "time": 165.51287000000002,
          "velocity": 0.6141732283464567
        },
        {
          "duration": 0.29999999999998295,
          "durationTicks": 384,
          "midi": 48,
          "name": "C3",
          "ticks": 217344,
          "time": 166.71287000000004,
          "velocity": 0.6141732283464567
        },
        {
          "duration": 0.30000000000001137,
          "durationTicks": 384,
          "midi": 48,
          "name": "C3",
          "ticks": 218880,
          "time": 167.91287000000003,
          "velocity": 0.6141732283464567
        },
        {
          "duration": 0.29999999999998295,
          "durationTicks": 384,
          "midi": 43,
          "name": "G2",
          "ticks": 220416,
          "time": 169.11287000000004,
          "velocity": 0.6141732283464567
        },
        {
          "duration": 0.30000000000001137,
          "durationTicks": 384,
          "midi": 43,
          "name": "G2",
          "ticks": 221952,
          "time": 170.31287000000003,
          "velocity": 0.6141732283464567
        },
        {
          "duration": 0.15000000000000568,
          "durationTicks": 192,
          "midi": 48,
          "name": "C3",
          "ticks": 223488,
          "time": 171.51287000000002,
          "velocity": 0.905511811023622
        },
        {
          "duration": 0.15000000000000568,
          "durationTicks": 192,
          "midi": 48,
          "name": "C3",
          "ticks": 223680,
          "time": 171.66287000000003,
          "velocity": 0.905511811023622
        },
        {
          "duration": 0.15000000000000568,
          "durationTicks": 192,
          "midi": 48,
          "name": "C3",
          "ticks": 223872,
          "time": 171.81287000000003,
          "velocity": 0.905511811023622
        },
        {
          "duration": 0.15000000000000568,
          "durationTicks": 192,
          "midi": 48,
          "name": "C3",
          "ticks": 224064,
          "time": 171.96287000000004,
          "velocity": 0.905511811023622
        },
        {
          "duration": 0.14999999999997726,
          "durationTicks": 192,
          "midi": 48,
          "name": "C3",
          "ticks": 224256,
          "time": 172.11287000000004,
          "velocity": 0.905511811023622
        },
        {
          "duration": 0.15000000000000568,
          "durationTicks": 192,
          "midi": 48,
          "name": "C3",
          "ticks": 224448,
          "time": 172.26287000000002,
          "velocity": 0.905511811023622
        },
        {
          "duration": 0.15000000000000568,
          "durationTicks": 192,
          "midi": 48,
          "name": "C3",
          "ticks": 224640,
          "time": 172.41287000000003,
          "velocity": 0.905511811023622
        },
        {
          "duration": 0.15000000000000568,
          "durationTicks": 192,
          "midi": 48,
          "name": "C3",
          "ticks": 224832,
          "time": 172.56287000000003,
          "velocity": 0.905511811023622
        },
        {
          "duration": 0.29999999999998295,
          "durationTicks": 384,
          "midi": 48,
          "name": "C3",
          "ticks": 225024,
          "time": 172.71287000000004,
          "velocity": 0.905511811023622
        },
        {
          "duration": 0.15000000000000568,
          "durationTicks": 192,
          "midi": 43,
          "name": "G2",
          "ticks": 225984,
          "time": 173.46287000000004,
          "velocity": 0.905511811023622
        },
        {
          "duration": 0.14999999999997726,
          "durationTicks": 192,
          "midi": 43,
          "name": "G2",
          "ticks": 226176,
          "time": 173.61287000000004,
          "velocity": 0.905511811023622
        },
        {
          "duration": 0.15000000000000568,
          "durationTicks": 192,
          "midi": 43,
          "name": "G2",
          "ticks": 226368,
          "time": 173.76287000000002,
          "velocity": 0.905511811023622
        },
        {
          "duration": 0.15000000000000568,
          "durationTicks": 192,
          "midi": 43,
          "name": "G2",
          "ticks": 226560,
          "time": 173.91287000000003,
          "velocity": 0.905511811023622
        },
        {
          "duration": 0.15000000000000568,
          "durationTicks": 192,
          "midi": 43,
          "name": "G2",
          "ticks": 226752,
          "time": 174.06287000000003,
          "velocity": 0.905511811023622
        },
        {
          "duration": 0.15000000000000568,
          "durationTicks": 192,
          "midi": 43,
          "name": "G2",
          "ticks": 226944,
          "time": 174.21287000000004,
          "velocity": 0.905511811023622
        },
        {
          "duration": 0.14999999999997726,
          "durationTicks": 192,
          "midi": 43,
          "name": "G2",
          "ticks": 227136,
          "time": 174.36287000000004,
          "velocity": 0.905511811023622
        },
        {
          "duration": 0.15000000000000568,
          "durationTicks": 192,
          "midi": 43,
          "name": "G2",
          "ticks": 227328,
          "time": 174.51287000000002,
          "velocity": 0.905511811023622
        },
        {
          "duration": 0.15000000000000568,
          "durationTicks": 192,
          "midi": 43,
          "name": "G2",
          "ticks": 227520,
          "time": 174.66287000000003,
          "velocity": 0.905511811023622
        },
        {
          "duration": 0.15000000000000568,
          "durationTicks": 192,
          "midi": 43,
          "name": "G2",
          "ticks": 227712,
          "time": 174.81287000000003,
          "velocity": 0.905511811023622
        },
        {
          "duration": 0.15000000000000568,
          "durationTicks": 192,
          "midi": 43,
          "name": "G2",
          "ticks": 227904,
          "time": 174.96287000000004,
          "velocity": 0.905511811023622
        },
        {
          "duration": 0.29999999999998295,
          "durationTicks": 384,
          "midi": 43,
          "name": "G2",
          "ticks": 228096,
          "time": 175.11287000000004,
          "velocity": 0.905511811023622
        },
        {
          "duration": 0.14999999999997726,
          "durationTicks": 192,
          "midi": 43,
          "name": "G2",
          "ticks": 229056,
          "time": 175.86287000000004,
          "velocity": 0.905511811023622
        },
        {
          "duration": 0.15000000000000568,
          "durationTicks": 192,
          "midi": 43,
          "name": "G2",
          "ticks": 229248,
          "time": 176.01287000000002,
          "velocity": 0.905511811023622
        },
        {
          "duration": 0.15000000000000568,
          "durationTicks": 192,
          "midi": 43,
          "name": "G2",
          "ticks": 229440,
          "time": 176.16287000000003,
          "velocity": 0.905511811023622
        },
        {
          "duration": 0.30000000000001137,
          "durationTicks": 384,
          "midi": 43,
          "name": "G2",
          "ticks": 229632,
          "time": 176.31287000000003,
          "velocity": 0.905511811023622
        },
        {
          "duration": 0.15000000000000568,
          "durationTicks": 192,
          "midi": 43,
          "name": "G2",
          "ticks": 230784,
          "time": 177.21287000000004,
          "velocity": 0.905511811023622
        },
        {
          "duration": 0.14999999999997726,
          "durationTicks": 192,
          "midi": 43,
          "name": "G2",
          "ticks": 230976,
          "time": 177.36287000000004,
          "velocity": 0.905511811023622
        },
        {
          "duration": 0.30000000000001137,
          "durationTicks": 384,
          "midi": 43,
          "name": "G2",
          "ticks": 231168,
          "time": 177.51287000000002,
          "velocity": 0.905511811023622
        },
        {
          "duration": 0.30000000000001137,
          "durationTicks": 384,
          "midi": 43,
          "name": "G2",
          "ticks": 238080,
          "time": 182.91287000000003,
          "velocity": 0.905511811023622
        },
        {
          "duration": 0.15000000000000568,
          "durationTicks": 192,
          "midi": 43,
          "name": "G2",
          "ticks": 243840,
          "time": 187.41287000000003,
          "velocity": 0.905511811023622
        },
        {
          "duration": 0.15000000000000568,
          "durationTicks": 192,
          "midi": 43,
          "name": "G2",
          "ticks": 244032,
          "time": 187.56287000000003,
          "velocity": 0.905511811023622
        },
        {
          "duration": 0.29999999999998295,
          "durationTicks": 384,
          "midi": 48,
          "name": "C3",
          "ticks": 244224,
          "time": 187.71287000000004,
          "velocity": 0.905511811023622
        },
        {
          "duration": 0.1415049999999951,
          "durationTicks": 192,
          "midi": 43,
          "name": "G2",
          "ticks": 285120,
          "time": 219.72525500000003,
          "velocity": 0.968503937007874
        },
        {
          "duration": 0.1415049999999951,
          "durationTicks": 192,
          "midi": 43,
          "name": "G2",
          "ticks": 285312,
          "time": 219.86676000000003,
          "velocity": 0.968503937007874
        },
        {
          "duration": 0.1415049999999951,
          "durationTicks": 192,
          "midi": 43,
          "name": "G2",
          "ticks": 285504,
          "time": 220.00826500000002,
          "velocity": 0.968503937007874
        },
        {
          "duration": 0.75,
          "durationTicks": 768,
          "midi": 43,
          "name": "G2",
          "ticks": 285696,
          "time": 220.14977000000002,
          "velocity": 0.968503937007874
        },
        {
          "duration": 0.1415049999999951,
          "durationTicks": 192,
          "midi": 43,
          "name": "G2",
          "ticks": 286656,
          "time": 221.041275,
          "velocity": 0.968503937007874
        },
        {
          "duration": 0.14150500000002353,
          "durationTicks": 192,
          "midi": 43,
          "name": "G2",
          "ticks": 286848,
          "time": 221.18278,
          "velocity": 0.968503937007874
        },
        {
          "duration": 0.1415049999999951,
          "durationTicks": 192,
          "midi": 43,
          "name": "G2",
          "ticks": 287040,
          "time": 221.32428500000003,
          "velocity": 0.968503937007874
        },
        {
          "duration": 0.07075249999999755,
          "durationTicks": 96,
          "midi": 43,
          "name": "G2",
          "ticks": 287232,
          "time": 221.46579000000003,
          "velocity": 0.968503937007874
        },
        {
          "duration": 0.07075249999999755,
          "durationTicks": 96,
          "midi": 43,
          "name": "G2",
          "ticks": 287328,
          "time": 221.53654250000002,
          "velocity": 0.968503937007874
        },
        {
          "duration": 0.07075249999999755,
          "durationTicks": 96,
          "midi": 43,
          "name": "G2",
          "ticks": 287424,
          "time": 221.60729500000002,
          "velocity": 0.968503937007874
        },
        {
          "duration": 0.07075249999999755,
          "durationTicks": 96,
          "midi": 43,
          "name": "G2",
          "ticks": 287520,
          "time": 221.67804750000002,
          "velocity": 0.968503937007874
        },
        {
          "duration": 0.07075249999999755,
          "durationTicks": 96,
          "midi": 43,
          "name": "G2",
          "ticks": 287616,
          "time": 221.74880000000002,
          "velocity": 0.968503937007874
        },
        {
          "duration": 0.07075249999999755,
          "durationTicks": 96,
          "midi": 43,
          "name": "G2",
          "ticks": 287712,
          "time": 221.81955250000001,
          "velocity": 0.968503937007874
        },
        {
          "duration": 0.07075249999999755,
          "durationTicks": 96,
          "midi": 43,
          "name": "G2",
          "ticks": 287808,
          "time": 221.890305,
          "velocity": 0.968503937007874
        },
        {
          "duration": 0.07075249999999755,
          "durationTicks": 96,
          "midi": 43,
          "name": "G2",
          "ticks": 287904,
          "time": 221.9610575,
          "velocity": 0.968503937007874
        },
        {
          "duration": 0.15000000000000568,
          "durationTicks": 96,
          "midi": 43,
          "name": "G2",
          "ticks": 288000,
          "time": 222.03181,
          "velocity": 0.968503937007874
        },
        {
          "duration": 0.15000000000000568,
          "durationTicks": 96,
          "midi": 43,
          "name": "G2",
          "ticks": 288096,
          "time": 222.18181,
          "velocity": 0.968503937007874
        },
        {
          "duration": 0.14999999999997726,
          "durationTicks": 96,
          "midi": 43,
          "name": "G2",
          "ticks": 288192,
          "time": 222.33181000000002,
          "velocity": 0.968503937007874
        },
        {
          "duration": 0.15000000000000568,
          "durationTicks": 96,
          "midi": 43,
          "name": "G2",
          "ticks": 288288,
          "time": 222.48181,
          "velocity": 0.968503937007874
        },
        {
          "duration": 0.15000000000000568,
          "durationTicks": 96,
          "midi": 43,
          "name": "G2",
          "ticks": 288384,
          "time": 222.63181,
          "velocity": 0.968503937007874
        },
        {
          "duration": 0.15000000000000568,
          "durationTicks": 96,
          "midi": 43,
          "name": "G2",
          "ticks": 288480,
          "time": 222.78181,
          "velocity": 0.968503937007874
        },
        {
          "duration": 0.15000000000000568,
          "durationTicks": 96,
          "midi": 43,
          "name": "G2",
          "ticks": 288576,
          "time": 222.93181,
          "velocity": 0.968503937007874
        },
        {
          "duration": 0.14999999999997726,
          "durationTicks": 96,
          "midi": 43,
          "name": "G2",
          "ticks": 288672,
          "time": 223.08181000000002,
          "velocity": 0.968503937007874
        },
        {
          "duration": 0.2830099999999902,
          "durationTicks": 384,
          "midi": 48,
          "name": "C3",
          "ticks": 299520,
          "time": 231.15609,
          "velocity": 0.7165354330708661
        },
        {
          "duration": 0.28301000000001864,
          "durationTicks": 384,
          "midi": 43,
          "name": "G2",
          "ticks": 300288,
          "time": 231.72211,
          "velocity": 0.905511811023622
        },
        {
          "duration": 0.2777699999999754,
          "durationTicks": 384,
          "midi": 48,
          "name": "C3",
          "ticks": 311040,
          "time": 240.26893,
          "velocity": 0.905511811023622
        },
        {
          "duration": 0.27777000000000385,
          "durationTicks": 384,
          "midi": 48,
          "name": "C3",
          "ticks": 312576,
          "time": 241.38001,
          "velocity": 0.905511811023622
        },
        {
          "duration": 0.27522000000001867,
          "durationTicks": 384,
          "midi": 48,
          "name": "C3",
          "ticks": 317952,
          "time": 245.24328999999997,
          "velocity": 0.905511811023622
        },
        {
          "duration": 0.2727199999999925,
          "durationTicks": 384,
          "midi": 48,
          "name": "C3",
          "ticks": 318720,
          "time": 245.79372999999998,
          "velocity": 0.905511811023622
        },
        {
          "duration": 0.13635999999999626,
          "durationTicks": 192,
          "midi": 48,
          "name": "C3",
          "ticks": 321408,
          "time": 247.70277,
          "velocity": 0.905511811023622
        },
        {
          "duration": 0.13635999999999626,
          "durationTicks": 192,
          "midi": 48,
          "name": "C3",
          "ticks": 321600,
          "time": 247.83912999999998,
          "velocity": 0.905511811023622
        },
        {
          "duration": 0.2727199999999925,
          "durationTicks": 384,
          "midi": 43,
          "name": "G2",
          "ticks": 321792,
          "time": 247.97548999999998,
          "velocity": 0.905511811023622
        },
        {
          "duration": 0.13635999999999626,
          "durationTicks": 192,
          "midi": 48,
          "name": "C3",
          "ticks": 324480,
          "time": 249.88452999999998,
          "velocity": 0.905511811023622
        },
        {
          "duration": 0.13635999999999626,
          "durationTicks": 192,
          "midi": 48,
          "name": "C3",
          "ticks": 324672,
          "time": 250.02088999999998,
          "velocity": 0.905511811023622
        },
        {
          "duration": 0.13635999999999626,
          "durationTicks": 192,
          "midi": 48,
          "name": "C3",
          "ticks": 324864,
          "time": 250.15724999999998,
          "velocity": 0.968503937007874
        },
        {
          "duration": 0.13635999999999626,
          "durationTicks": 192,
          "midi": 48,
          "name": "C3",
          "ticks": 325056,
          "time": 250.29360999999997,
          "velocity": 0.968503937007874
        },
        {
          "duration": 0.13636000000002468,
          "durationTicks": 192,
          "midi": 48,
          "name": "C3",
          "ticks": 325248,
          "time": 250.42996999999997,
          "velocity": 0.968503937007874
        },
        {
          "duration": 0.13635999999999626,
          "durationTicks": 192,
          "midi": 48,
          "name": "C3",
          "ticks": 325440,
          "time": 250.56633,
          "velocity": 0.968503937007874
        },
        {
          "duration": 0.13635999999999626,
          "durationTicks": 192,
          "midi": 48,
          "name": "C3",
          "ticks": 325632,
          "time": 250.70269,
          "velocity": 0.968503937007874
        },
        {
          "duration": 0.13635999999999626,
          "durationTicks": 192,
          "midi": 48,
          "name": "C3",
          "ticks": 325824,
          "time": 250.83905,
          "velocity": 0.968503937007874
        },
        {
          "duration": 0.13635999999999626,
          "durationTicks": 192,
          "midi": 48,
          "name": "C3",
          "ticks": 326016,
          "time": 250.97540999999998,
          "velocity": 0.968503937007874
        },
        {
          "duration": 0.13635999999999626,
          "durationTicks": 192,
          "midi": 48,
          "name": "C3",
          "ticks": 326208,
          "time": 251.11176999999998,
          "velocity": 0.968503937007874
        },
        {
          "duration": 0.13635999999999626,
          "durationTicks": 192,
          "midi": 48,
          "name": "C3",
          "ticks": 326400,
          "time": 251.24812999999997,
          "velocity": 0.968503937007874
        },
        {
          "duration": 0.13636000000002468,
          "durationTicks": 192,
          "midi": 48,
          "name": "C3",
          "ticks": 326592,
          "time": 251.38448999999997,
          "velocity": 0.968503937007874
        },
        {
          "duration": 0.13635999999999626,
          "durationTicks": 192,
          "midi": 48,
          "name": "C3",
          "ticks": 326784,
          "time": 251.52085,
          "velocity": 0.968503937007874
        },
        {
          "duration": 0.13635999999999626,
          "durationTicks": 192,
          "midi": 48,
          "name": "C3",
          "ticks": 326976,
          "time": 251.65721,
          "velocity": 0.968503937007874
        },
        {
          "duration": 0.13635999999999626,
          "durationTicks": 192,
          "midi": 48,
          "name": "C3",
          "ticks": 327168,
          "time": 251.79357,
          "velocity": 0.968503937007874
        },
        {
          "duration": 0.13635999999999626,
          "durationTicks": 192,
          "midi": 48,
          "name": "C3",
          "ticks": 327360,
          "time": 251.92992999999998,
          "velocity": 0.968503937007874
        },
        {
          "duration": 0.13635999999999626,
          "durationTicks": 192,
          "midi": 48,
          "name": "C3",
          "ticks": 327552,
          "time": 252.06628999999998,
          "velocity": 0.968503937007874
        },
        {
          "duration": 0.13635999999999626,
          "durationTicks": 192,
          "midi": 48,
          "name": "C3",
          "ticks": 327744,
          "time": 252.20264999999998,
          "velocity": 0.968503937007874
        },
        {
          "duration": 0.2941099999999892,
          "durationTicks": 384,
          "midi": 48,
          "name": "C3",
          "ticks": 327936,
          "time": 252.33900999999997,
          "velocity": 0.968503937007874
        },
        {
          "duration": 0.2941099999999892,
          "durationTicks": 384,
          "midi": 43,
          "name": "G2",
          "ticks": 329472,
          "time": 253.51545,
          "velocity": 0.968503937007874
        },
        {
          "duration": 0.14705499999996618,
          "durationTicks": 192,
          "midi": 43,
          "name": "G2",
          "ticks": 338112,
          "time": 260.132925,
          "velocity": 0.7165354330708661
        },
        {
          "duration": 0.14705500000002303,
          "durationTicks": 192,
          "midi": 43,
          "name": "G2",
          "ticks": 338304,
          "time": 260.27997999999997,
          "velocity": 0.7165354330708661
        },
        {
          "duration": 0.14705499999996618,
          "durationTicks": 192,
          "midi": 43,
          "name": "G2",
          "ticks": 338496,
          "time": 260.427035,
          "velocity": 0.7165354330708661
        },
        {
          "duration": 0.29411000000004606,
          "durationTicks": 384,
          "midi": 48,
          "name": "C3",
          "ticks": 338688,
          "time": 260.57408999999996,
          "velocity": 0.7165354330708661
        },
        {
          "duration": 0.1442299999999932,
          "durationTicks": 192,
          "midi": 43,
          "name": "G2",
          "ticks": 344256,
          "time": 264.77936,
          "velocity": 0.7165354330708661
        },
        {
          "duration": 0.1442299999999932,
          "durationTicks": 192,
          "midi": 43,
          "name": "G2",
          "ticks": 344448,
          "time": 264.92359,
          "velocity": 0.7165354330708661
        },
        {
          "duration": 0.1442299999999932,
          "durationTicks": 192,
          "midi": 43,
          "name": "G2",
          "ticks": 344640,
          "time": 265.06782,
          "velocity": 0.7165354330708661
        },
        {
          "duration": 0.2884599999999864,
          "durationTicks": 384,
          "midi": 48,
          "name": "C3",
          "ticks": 344832,
          "time": 265.21205,
          "velocity": 0.7165354330708661
        },
        {
          "duration": 0.83331000000004,
          "durationTicks": 1152,
          "midi": 43,
          "name": "G2",
          "ticks": 363264,
          "time": 278.77640999999994,
          "velocity": 0.968503937007874
        },
        {
          "duration": 0.2777699999999754,
          "durationTicks": 384,
          "midi": 43,
          "name": "G2",
          "ticks": 364416,
          "time": 279.60972,
          "velocity": 0.968503937007874
        },
        {
          "duration": 0.27777000000003227,
          "durationTicks": 384,
          "midi": 48,
          "name": "C3",
          "ticks": 364800,
          "time": 279.88748999999996,
          "velocity": 0.968503937007874
        },
        {
          "duration": 0.2777699999999754,
          "durationTicks": 384,
          "midi": 43,
          "name": "G2",
          "ticks": 365568,
          "time": 280.44302999999996,
          "velocity": 0.968503937007874
        },
        {
          "duration": 0.2777699999999754,
          "durationTicks": 384,
          "midi": 48,
          "name": "C3",
          "ticks": 366336,
          "time": 280.99857,
          "velocity": 0.968503937007874
        },
        {
          "duration": 0.2777699999999754,
          "durationTicks": 384,
          "midi": 48,
          "name": "C3",
          "ticks": 367104,
          "time": 281.55411,
          "velocity": 0.968503937007874
        },
        {
          "duration": 0.2777699999999754,
          "durationTicks": 384,
          "midi": 43,
          "name": "G2",
          "ticks": 367872,
          "time": 282.10965,
          "velocity": 0.968503937007874
        },
        {
          "duration": 0.2777699999999754,
          "durationTicks": 384,
          "midi": 43,
          "name": "G2",
          "ticks": 368640,
          "time": 282.66519,
          "velocity": 0.968503937007874
        },
        {
          "duration": 1.1110800000000154,
          "durationTicks": 1536,
          "midi": 43,
          "name": "G2",
          "ticks": 369408,
          "time": 283.22072999999995,
          "velocity": 0.968503937007874
        },
        {
          "duration": 0.27777000000003227,
          "durationTicks": 384,
          "midi": 48,
          "name": "C3",
          "ticks": 370944,
          "time": 284.33180999999996,
          "velocity": 0.968503937007874
        },
        {
          "duration": 0.2777699999999754,
          "durationTicks": 384,
          "midi": 48,
          "name": "C3",
          "ticks": 371328,
          "time": 284.60958,
          "velocity": 0.968503937007874
        },
        {
          "duration": 0.27777000000003227,
          "durationTicks": 384,
          "midi": 43,
          "name": "G2",
          "ticks": 372096,
          "time": 285.16511999999994,
          "velocity": 0.968503937007874
        },
        {
          "duration": 0.27777000000003227,
          "durationTicks": 384,
          "midi": 48,
          "name": "C3",
          "ticks": 372864,
          "time": 285.72065999999995,
          "velocity": 0.968503937007874
        },
        {
          "duration": 0.27777000000003227,
          "durationTicks": 384,
          "midi": 48,
          "name": "C3",
          "ticks": 373632,
          "time": 286.27619999999996,
          "velocity": 0.968503937007874
        },
        {
          "duration": 0.2777699999999754,
          "durationTicks": 384,
          "midi": 43,
          "name": "G2",
          "ticks": 374400,
          "time": 286.83173999999997,
          "velocity": 0.968503937007874
        },
        {
          "duration": 0.2777699999999754,
          "durationTicks": 384,
          "midi": 43,
          "name": "G2",
          "ticks": 375168,
          "time": 287.38728,
          "velocity": 0.968503937007874
        },
        {
          "duration": 0.27777000000003227,
          "durationTicks": 384,
          "midi": 48,
          "name": "C3",
          "ticks": 375552,
          "time": 287.66504999999995,
          "velocity": 0.968503937007874
        },
        {
          "duration": 0.1388849999999593,
          "durationTicks": 192,
          "midi": 43,
          "name": "G2",
          "ticks": 378048,
          "time": 289.470555,
          "velocity": 0.968503937007874
        },
        {
          "duration": 0.13888500000001613,
          "durationTicks": 192,
          "midi": 43,
          "name": "G2",
          "ticks": 378240,
          "time": 289.60943999999995,
          "velocity": 0.968503937007874
        },
        {
          "duration": 0.13888500000001613,
          "durationTicks": 192,
          "midi": 43,
          "name": "G2",
          "ticks": 378432,
          "time": 289.74832499999997,
          "velocity": 0.968503937007874
        },
        {
          "duration": 0.2777699999999754,
          "durationTicks": 384,
          "midi": 48,
          "name": "C3",
          "ticks": 378624,
          "time": 289.88721,
          "velocity": 0.968503937007874
        },
        {
          "duration": 0.13888500000001613,
          "durationTicks": 192,
          "midi": 43,
          "name": "G2",
          "ticks": 381120,
          "time": 291.69271499999996,
          "velocity": 0.968503937007874
        },
        {
          "duration": 0.1388849999999593,
          "durationTicks": 192,
          "midi": 43,
          "name": "G2",
          "ticks": 381312,
          "time": 291.8316,
          "velocity": 0.968503937007874
        },
        {
          "duration": 0.13888500000001613,
          "durationTicks": 192,
          "midi": 43,
          "name": "G2",
          "ticks": 381504,
          "time": 291.97048499999994,
          "velocity": 0.968503937007874
        },
        {
          "duration": 0.27777000000003227,
          "durationTicks": 384,
          "midi": 48,
          "name": "C3",
          "ticks": 381696,
          "time": 292.10936999999996,
          "velocity": 0.968503937007874
        },
        {
          "duration": 0.13888500000001613,
          "durationTicks": 192,
          "midi": 43,
          "name": "G2",
          "ticks": 382656,
          "time": 292.803795,
          "velocity": 0.968503937007874
        },
        {
          "duration": 0.1388849999999593,
          "durationTicks": 192,
          "midi": 43,
          "name": "G2",
          "ticks": 382848,
          "time": 292.94268,
          "velocity": 0.968503937007874
        },
        {
          "duration": 0.13888500000001613,
          "durationTicks": 192,
          "midi": 43,
          "name": "G2",
          "ticks": 383040,
          "time": 293.08156499999996,
          "velocity": 0.968503937007874
        },
        {
          "duration": 0.2777699999999754,
          "durationTicks": 384,
          "midi": 48,
          "name": "C3",
          "ticks": 383232,
          "time": 293.22044999999997,
          "velocity": 0.968503937007874
        },
        {
          "duration": 0.1388849999999593,
          "durationTicks": 192,
          "midi": 43,
          "name": "G2",
          "ticks": 384192,
          "time": 293.914875,
          "velocity": 0.968503937007874
        },
        {
          "duration": 0.13888500000001613,
          "durationTicks": 192,
          "midi": 43,
          "name": "G2",
          "ticks": 384384,
          "time": 294.05375999999995,
          "velocity": 0.968503937007874
        },
        {
          "duration": 0.13888500000001613,
          "durationTicks": 192,
          "midi": 43,
          "name": "G2",
          "ticks": 384576,
          "time": 294.19264499999997,
          "velocity": 0.968503937007874
        },
        {
          "duration": 0.1388849999999593,
          "durationTicks": 192,
          "midi": 48,
          "name": "C3",
          "ticks": 384768,
          "time": 294.33153,
          "velocity": 0.968503937007874
        },
        {
          "duration": 0.13888500000001613,
          "durationTicks": 192,
          "midi": 48,
          "name": "C3",
          "ticks": 384960,
          "time": 294.47041499999995,
          "velocity": 0.968503937007874
        },
        {
          "duration": 0.13888500000001613,
          "durationTicks": 192,
          "midi": 48,
          "name": "C3",
          "ticks": 385152,
          "time": 294.60929999999996,
          "velocity": 0.968503937007874
        },
        {
          "duration": 0.13888500000001613,
          "durationTicks": 192,
          "midi": 48,
          "name": "C3",
          "ticks": 385344,
          "time": 294.748185,
          "velocity": 0.968503937007874
        },
        {
          "duration": 0.2777699999999754,
          "durationTicks": 384,
          "midi": 48,
          "name": "C3",
          "ticks": 385536,
          "time": 294.88707,
          "velocity": 0.968503937007874
        },
        {
          "duration": 0.13888500000001613,
          "durationTicks": 192,
          "midi": 48,
          "name": "C3",
          "ticks": 386496,
          "time": 295.58149499999996,
          "velocity": 0.968503937007874
        },
        {
          "duration": 0.13888500000001613,
          "durationTicks": 192,
          "midi": 48,
          "name": "C3",
          "ticks": 386688,
          "time": 295.72038,
          "velocity": 0.968503937007874
        },
        {
          "duration": 0.1388849999999593,
          "durationTicks": 192,
          "midi": 48,
          "name": "C3",
          "ticks": 386880,
          "time": 295.859265,
          "velocity": 0.968503937007874
        },
        {
          "duration": 0.27777000000003227,
          "durationTicks": 384,
          "midi": 48,
          "name": "C3",
          "ticks": 387072,
          "time": 295.99814999999995,
          "velocity": 0.968503937007874
        },
        {
          "duration": 0.13888500000001613,
          "durationTicks": 192,
          "midi": 48,
          "name": "C3",
          "ticks": 388032,
          "time": 296.692575,
          "velocity": 0.968503937007874
        },
        {
          "duration": 0.1388849999999593,
          "durationTicks": 192,
          "midi": 48,
          "name": "C3",
          "ticks": 388224,
          "time": 296.83146,
          "velocity": 0.968503937007874
        },
        {
          "duration": 0.13888500000001613,
          "durationTicks": 192,
          "midi": 48,
          "name": "C3",
          "ticks": 388416,
          "time": 296.97034499999995,
          "velocity": 0.968503937007874
        },
        {
          "duration": 0.2777699999999754,
          "durationTicks": 384,
          "midi": 48,
          "name": "C3",
          "ticks": 388608,
          "time": 297.10922999999997,
          "velocity": 0.968503937007874
        },
        {
          "duration": 0.1388849999999593,
          "durationTicks": 192,
          "midi": 48,
          "name": "C3",
          "ticks": 389568,
          "time": 297.803655,
          "velocity": 0.968503937007874
        },
        {
          "duration": 0.13888500000001613,
          "durationTicks": 192,
          "midi": 48,
          "name": "C3",
          "ticks": 389760,
          "time": 297.94253999999995,
          "velocity": 0.968503937007874
        },
        {
          "duration": 0.13888500000001613,
          "durationTicks": 192,
          "midi": 48,
          "name": "C3",
          "ticks": 389952,
          "time": 298.08142499999997,
          "velocity": 0.968503937007874
        },
        {
          "duration": 0.2777699999999754,
          "durationTicks": 384,
          "midi": 48,
          "name": "C3",
          "ticks": 390144,
          "time": 298.22031,
          "velocity": 0.968503937007874
        },
        {
          "duration": 0.13888500000001613,
          "durationTicks": 192,
          "midi": 48,
          "name": "C3",
          "ticks": 397248,
          "time": 303.35905499999996,
          "velocity": 0.968503937007874
        },
        {
          "duration": 0.13888500000001613,
          "durationTicks": 192,
          "midi": 48,
          "name": "C3",
          "ticks": 397440,
          "time": 303.49793999999997,
          "velocity": 0.968503937007874
        },
        {
          "duration": 0.1388849999999593,
          "durationTicks": 192,
          "midi": 48,
          "name": "C3",
          "ticks": 397632,
          "time": 303.636825,
          "velocity": 0.968503937007874
        },
        {
          "duration": 0.13888500000001613,
          "durationTicks": 192,
          "midi": 48,
          "name": "C3",
          "ticks": 397824,
          "time": 303.77570999999995,
          "velocity": 0.968503937007874
        },
        {
          "duration": 0.13888500000001613,
          "durationTicks": 192,
          "midi": 48,
          "name": "C3",
          "ticks": 398016,
          "time": 303.91459499999996,
          "velocity": 0.968503937007874
        },
        {
          "duration": 0.13888500000001613,
          "durationTicks": 192,
          "midi": 48,
          "name": "C3",
          "ticks": 398208,
          "time": 304.05348,
          "velocity": 0.968503937007874
        },
        {
          "duration": 0.1388849999999593,
          "durationTicks": 192,
          "midi": 48,
          "name": "C3",
          "ticks": 398400,
          "time": 304.192365,
          "velocity": 0.968503937007874
        },
        {
          "duration": 0.13888500000001613,
          "durationTicks": 192,
          "midi": 48,
          "name": "C3",
          "ticks": 398592,
          "time": 304.33124999999995,
          "velocity": 0.968503937007874
        },
        {
          "duration": 0.13888500000001613,
          "durationTicks": 192,
          "midi": 48,
          "name": "C3",
          "ticks": 398784,
          "time": 304.47013499999997,
          "velocity": 0.968503937007874
        },
        {
          "duration": 0.1388849999999593,
          "durationTicks": 192,
          "midi": 48,
          "name": "C3",
          "ticks": 398976,
          "time": 304.60902,
          "velocity": 0.968503937007874
        },
        {
          "duration": 0.13888500000001613,
          "durationTicks": 192,
          "midi": 48,
          "name": "C3",
          "ticks": 399168,
          "time": 304.74790499999995,
          "velocity": 0.968503937007874
        },
        {
          "duration": 0.13888500000001613,
          "durationTicks": 192,
          "midi": 48,
          "name": "C3",
          "ticks": 399360,
          "time": 304.88678999999996,
          "velocity": 0.968503937007874
        },
        {
          "duration": 0.13888500000001613,
          "durationTicks": 192,
          "midi": 48,
          "name": "C3",
          "ticks": 399552,
          "time": 305.025675,
          "velocity": 0.968503937007874
        },
        {
          "duration": 0.1388849999999593,
          "durationTicks": 192,
          "midi": 48,
          "name": "C3",
          "ticks": 399744,
          "time": 305.16456,
          "velocity": 0.968503937007874
        },
        {
          "duration": 0.13888500000001613,
          "durationTicks": 192,
          "midi": 48,
          "name": "C3",
          "ticks": 399936,
          "time": 305.30344499999995,
          "velocity": 0.968503937007874
        },
        {
          "duration": 0.13888500000001613,
          "durationTicks": 192,
          "midi": 48,
          "name": "C3",
          "ticks": 400128,
          "time": 305.44232999999997,
          "velocity": 0.968503937007874
        },
        {
          "duration": 0.1388849999999593,
          "durationTicks": 192,
          "midi": 48,
          "name": "C3",
          "ticks": 400320,
          "time": 305.581215,
          "velocity": 0.968503937007874
        },
        {
          "duration": 0.13888500000001613,
          "durationTicks": 192,
          "midi": 48,
          "name": "C3",
          "ticks": 400512,
          "time": 305.72009999999995,
          "velocity": 0.968503937007874
        },
        {
          "duration": 0.13888500000001613,
          "durationTicks": 192,
          "midi": 48,
          "name": "C3",
          "ticks": 400704,
          "time": 305.85898499999996,
          "velocity": 0.968503937007874
        },
        {
          "duration": 0.2777699999999754,
          "durationTicks": 384,
          "midi": 48,
          "name": "C3",
          "ticks": 400896,
          "time": 305.99787,
          "velocity": 0.968503937007874
        },
        {
          "duration": 0.13888500000001613,
          "durationTicks": 192,
          "midi": 48,
          "name": "C3",
          "ticks": 401856,
          "time": 306.69229499999994,
          "velocity": 0.968503937007874
        },
        {
          "duration": 0.13888500000001613,
          "durationTicks": 192,
          "midi": 48,
          "name": "C3",
          "ticks": 402048,
          "time": 306.83117999999996,
          "velocity": 0.968503937007874
        },
        {
          "duration": 0.13888500000001613,
          "durationTicks": 192,
          "midi": 48,
          "name": "C3",
          "ticks": 402240,
          "time": 306.970065,
          "velocity": 0.968503937007874
        },
        {
          "duration": 0.2777699999999754,
          "durationTicks": 384,
          "midi": 48,
          "name": "C3",
          "ticks": 402432,
          "time": 307.10895,
          "velocity": 0.968503937007874
        },
        {
          "duration": 0.27777000000003227,
          "durationTicks": 384,
          "midi": 43,
          "name": "G2",
          "ticks": 403968,
          "time": 308.22002999999995,
          "velocity": 0.905511811023622
        },
        {
          "duration": 0.2777699999999754,
          "durationTicks": 384,
          "midi": 43,
          "name": "G2",
          "ticks": 407040,
          "time": 310.44219,
          "velocity": 0.905511811023622
        },
        {
          "duration": 0.2777699999999754,
          "durationTicks": 384,
          "midi": 43,
          "name": "G2",
          "ticks": 416640,
          "time": 317.38644,
          "velocity": 0.905511811023622
        },
        {
          "duration": 0.2777699999999754,
          "durationTicks": 384,
          "midi": 43,
          "name": "G2",
          "ticks": 417024,
          "time": 317.66420999999997,
          "velocity": 0.905511811023622
        },
        {
          "duration": 0.27777000000003227,
          "durationTicks": 384,
          "midi": 43,
          "name": "G2",
          "ticks": 417408,
          "time": 317.94197999999994,
          "velocity": 0.905511811023622
        },
        {
          "duration": 0.2777699999999754,
          "durationTicks": 384,
          "midi": 43,
          "name": "G2",
          "ticks": 417792,
          "time": 318.21975,
          "velocity": 0.905511811023622
        },
        {
          "duration": 0.27777000000003227,
          "durationTicks": 384,
          "midi": 43,
          "name": "G2",
          "ticks": 418176,
          "time": 318.49751999999995,
          "velocity": 0.905511811023622
        },
        {
          "duration": 0.2777699999999754,
          "durationTicks": 384,
          "midi": 43,
          "name": "G2",
          "ticks": 418560,
          "time": 318.77529,
          "velocity": 0.905511811023622
        },
        {
          "duration": 0.27777000000003227,
          "durationTicks": 384,
          "midi": 48,
          "name": "C3",
          "ticks": 418944,
          "time": 319.05305999999996,
          "velocity": 0.905511811023622
        },
        {
          "duration": 0.2777699999999754,
          "durationTicks": 384,
          "midi": 48,
          "name": "C3",
          "ticks": 419328,
          "time": 319.33083,
          "velocity": 0.905511811023622
        },
        {
          "duration": 0.2777699999999754,
          "durationTicks": 384,
          "midi": 48,
          "name": "C3",
          "ticks": 419712,
          "time": 319.60859999999997,
          "velocity": 0.905511811023622
        },
        {
          "duration": 0.27777000000003227,
          "durationTicks": 384,
          "midi": 48,
          "name": "C3",
          "ticks": 420096,
          "time": 319.88636999999994,
          "velocity": 0.905511811023622
        },
        {
          "duration": 0.2777699999999754,
          "durationTicks": 384,
          "midi": 43,
          "name": "G2",
          "ticks": 420480,
          "time": 320.16414,
          "velocity": 0.905511811023622
        },
        {
          "duration": 0.27777000000003227,
          "durationTicks": 384,
          "midi": 43,
          "name": "G2",
          "ticks": 420864,
          "time": 320.44190999999995,
          "velocity": 0.905511811023622
        },
        {
          "duration": 0.2777699999999754,
          "durationTicks": 384,
          "midi": 43,
          "name": "G2",
          "ticks": 421248,
          "time": 320.71968,
          "velocity": 0.905511811023622
        },
        {
          "duration": 0.27777000000003227,
          "durationTicks": 384,
          "midi": 43,
          "name": "G2",
          "ticks": 421632,
          "time": 320.99744999999996,
          "velocity": 0.905511811023622
        },
        {
          "duration": 0.2777699999999754,
          "durationTicks": 384,
          "midi": 43,
          "name": "G2",
          "ticks": 422016,
          "time": 321.27522,
          "velocity": 0.905511811023622
        },
        {
          "duration": 0.13888500000001613,
          "durationTicks": 192,
          "midi": 48,
          "name": "C3",
          "ticks": 422400,
          "time": 321.55298999999997,
          "velocity": 0.905511811023622
        },
        {
          "duration": 0.1388849999999593,
          "durationTicks": 192,
          "midi": 48,
          "name": "C3",
          "ticks": 422592,
          "time": 321.691875,
          "velocity": 0.905511811023622
        },
        {
          "duration": 0.13888500000001613,
          "durationTicks": 192,
          "midi": 48,
          "name": "C3",
          "ticks": 422784,
          "time": 321.83075999999994,
          "velocity": 0.905511811023622
        },
        {
          "duration": 0.13888500000001613,
          "durationTicks": 192,
          "midi": 48,
          "name": "C3",
          "ticks": 422976,
          "time": 321.96964499999996,
          "velocity": 0.905511811023622
        },
        {
          "duration": 0.2777699999999754,
          "durationTicks": 384,
          "midi": 48,
          "name": "C3",
          "ticks": 423168,
          "time": 322.10853,
          "velocity": 0.905511811023622
        },
        {
          "duration": 0.13888500000001613,
          "durationTicks": 192,
          "midi": 48,
          "name": "C3",
          "ticks": 423936,
          "time": 322.66407,
          "velocity": 0.905511811023622
        },
        {
          "duration": 0.1388849999999593,
          "durationTicks": 192,
          "midi": 48,
          "name": "C3",
          "ticks": 424128,
          "time": 322.802955,
          "velocity": 0.905511811023622
        },
        {
          "duration": 0.13888500000001613,
          "durationTicks": 192,
          "midi": 48,
          "name": "C3",
          "ticks": 424320,
          "time": 322.94183999999996,
          "velocity": 0.905511811023622
        },
        {
          "duration": 0.13888500000001613,
          "durationTicks": 192,
          "midi": 48,
          "name": "C3",
          "ticks": 424512,
          "time": 323.080725,
          "velocity": 0.905511811023622
        },
        {
          "duration": 0.2777699999999754,
          "durationTicks": 384,
          "midi": 48,
          "name": "C3",
          "ticks": 424704,
          "time": 323.21961,
          "velocity": 0.905511811023622
        },
        {
          "duration": 0.13888500000001613,
          "durationTicks": 192,
          "midi": 48,
          "name": "C3",
          "ticks": 425472,
          "time": 323.77514999999994,
          "velocity": 0.905511811023622
        },
        {
          "duration": 0.13888500000001613,
          "durationTicks": 192,
          "midi": 48,
          "name": "C3",
          "ticks": 425664,
          "time": 323.91403499999996,
          "velocity": 0.905511811023622
        },
        {
          "duration": 0.13888500000001613,
          "durationTicks": 192,
          "midi": 48,
          "name": "C3",
          "ticks": 425856,
          "time": 324.05292,
          "velocity": 0.905511811023622
        },
        {
          "duration": 0.1388849999999593,
          "durationTicks": 192,
          "midi": 48,
          "name": "C3",
          "ticks": 426048,
          "time": 324.191805,
          "velocity": 0.905511811023622
        },
        {
          "duration": 0.27777000000003227,
          "durationTicks": 384,
          "midi": 48,
          "name": "C3",
          "ticks": 426240,
          "time": 324.33068999999995,
          "velocity": 0.905511811023622
        },
        {
          "duration": 0.13888500000001613,
          "durationTicks": 192,
          "midi": 48,
          "name": "C3",
          "ticks": 427008,
          "time": 324.88622999999995,
          "velocity": 0.905511811023622
        },
        {
          "duration": 0.13888500000001613,
          "durationTicks": 192,
          "midi": 48,
          "name": "C3",
          "ticks": 427200,
          "time": 325.02511499999997,
          "velocity": 0.905511811023622
        },
        {
          "duration": 0.1388849999999593,
          "durationTicks": 192,
          "midi": 48,
          "name": "C3",
          "ticks": 427392,
          "time": 325.164,
          "velocity": 0.905511811023622
        },
        {
          "duration": 0.13888500000001613,
          "durationTicks": 192,
          "midi": 48,
          "name": "C3",
          "ticks": 427584,
          "time": 325.30288499999995,
          "velocity": 0.905511811023622
        },
        {
          "duration": 0.27777000000003227,
          "durationTicks": 384,
          "midi": 48,
          "name": "C3",
          "ticks": 427776,
          "time": 325.44176999999996,
          "velocity": 0.905511811023622
        },
        {
          "duration": 0.13888500000001613,
          "durationTicks": 192,
          "midi": 43,
          "name": "G2",
          "ticks": 428544,
          "time": 325.99730999999997,
          "velocity": 0.905511811023622
        },
        {
          "duration": 0.13888500000001613,
          "durationTicks": 192,
          "midi": 43,
          "name": "G2",
          "ticks": 428736,
          "time": 326.136195,
          "velocity": 0.905511811023622
        },
        {
          "duration": 0.1388849999999593,
          "durationTicks": 192,
          "midi": 43,
          "name": "G2",
          "ticks": 428928,
          "time": 326.27508,
          "velocity": 0.905511811023622
        },
        {
          "duration": 0.13888500000001613,
          "durationTicks": 192,
          "midi": 43,
          "name": "G2",
          "ticks": 429120,
          "time": 326.41396499999996,
          "velocity": 0.905511811023622
        },
        {
          "duration": 0.2777699999999754,
          "durationTicks": 384,
          "midi": 43,
          "name": "G2",
          "ticks": 429312,
          "time": 326.55285,
          "velocity": 0.905511811023622
        },
        {
          "duration": 0.2777699999999754,
          "durationTicks": 384,
          "midi": 48,
          "name": "C3",
          "ticks": 430080,
          "time": 327.10839,
          "velocity": 0.905511811023622
        },
        {
          "duration": 0.2777699999999754,
          "durationTicks": 384,
          "midi": 48,
          "name": "C3",
          "ticks": 430848,
          "time": 327.66393,
          "velocity": 0.905511811023622
        },
        {
          "duration": 0.2777699999999754,
          "durationTicks": 384,
          "midi": 48,
          "name": "C3",
          "ticks": 431616,
          "time": 328.21947,
          "velocity": 0.905511811023622
        },
        {
          "duration": 0.27777000000003227,
          "durationTicks": 384,
          "midi": 48,
          "name": "C3",
          "ticks": 432384,
          "time": 328.77500999999995,
          "velocity": 0.905511811023622
        },
        {
          "duration": 0.27777000000003227,
          "durationTicks": 384,
          "midi": 43,
          "name": "G2",
          "ticks": 433152,
          "time": 329.33054999999996,
          "velocity": 0.905511811023622
        },
        {
          "duration": 0.27777000000003227,
          "durationTicks": 384,
          "midi": 43,
          "name": "G2",
          "ticks": 433920,
          "time": 329.88608999999997,
          "velocity": 0.905511811023622
        },
        {
          "duration": 0.2777699999999754,
          "durationTicks": 384,
          "midi": 48,
          "name": "C3",
          "ticks": 434688,
          "time": 330.44163,
          "velocity": 0.905511811023622
        },
        {
          "duration": 0.2777699999999754,
          "durationTicks": 384,
          "midi": 48,
          "name": "C3",
          "ticks": 435456,
          "time": 330.99717,
          "velocity": 0.905511811023622
        },
        {
          "duration": 0.2777699999999754,
          "durationTicks": 384,
          "midi": 48,
          "name": "C3",
          "ticks": 436224,
          "time": 331.55271,
          "velocity": 0.905511811023622
        },
        {
          "duration": 0.2777699999999754,
          "durationTicks": 384,
          "midi": 48,
          "name": "C3",
          "ticks": 436992,
          "time": 332.10825,
          "velocity": 0.905511811023622
        },
        {
          "duration": 0.2777699999999754,
          "durationTicks": 384,
          "midi": 48,
          "name": "C3",
          "ticks": 437376,
          "time": 332.38602,
          "velocity": 0.905511811023622
        },
        {
          "duration": 0.27777000000003227,
          "durationTicks": 384,
          "midi": 48,
          "name": "C3",
          "ticks": 437760,
          "time": 332.66378999999995,
          "velocity": 0.905511811023622
        },
        {
          "duration": 0.27777000000003227,
          "durationTicks": 384,
          "midi": 48,
          "name": "C3",
          "ticks": 438528,
          "time": 333.21932999999996,
          "velocity": 0.905511811023622
        },
        {
          "duration": 0.2777699999999754,
          "durationTicks": 384,
          "midi": 48,
          "name": "C3",
          "ticks": 438912,
          "time": 333.4971,
          "velocity": 0.905511811023622
        },
        {
          "duration": 0.27777000000003227,
          "durationTicks": 384,
          "midi": 48,
          "name": "C3",
          "ticks": 439296,
          "time": 333.77486999999996,
          "velocity": 0.905511811023622
        },
        {
          "duration": 0.2777699999999754,
          "durationTicks": 384,
          "midi": 43,
          "name": "G2",
          "ticks": 440064,
          "time": 334.33041,
          "velocity": 0.905511811023622
        },
        {
          "duration": 0.27777000000003227,
          "durationTicks": 384,
          "midi": 43,
          "name": "G2",
          "ticks": 440448,
          "time": 334.60817999999995,
          "velocity": 0.905511811023622
        },
        {
          "duration": 0.2777699999999754,
          "durationTicks": 384,
          "midi": 43,
          "name": "G2",
          "ticks": 440832,
          "time": 334.88595,
          "velocity": 0.905511811023622
        },
        {
          "duration": 0.27777000000003227,
          "durationTicks": 384,
          "midi": 43,
          "name": "G2",
          "ticks": 443136,
          "time": 336.55256999999995,
          "velocity": 0.905511811023622
        },
        {
          "duration": 0.2777699999999754,
          "durationTicks": 384,
          "midi": 43,
          "name": "G2",
          "ticks": 443520,
          "time": 336.83034,
          "velocity": 0.905511811023622
        },
        {
          "duration": 0.27777000000003227,
          "durationTicks": 384,
          "midi": 43,
          "name": "G2",
          "ticks": 443904,
          "time": 337.10810999999995,
          "velocity": 0.905511811023622
        },
        {
          "duration": 0.2777699999999754,
          "durationTicks": 384,
          "midi": 48,
          "name": "C3",
          "ticks": 447744,
          "time": 339.88581,
          "velocity": 0.905511811023622
        },
        {
          "duration": 0.2777699999999754,
          "durationTicks": 384,
          "midi": 48,
          "name": "C3",
          "ticks": 448128,
          "time": 340.16357999999997,
          "velocity": 0.905511811023622
        },
        {
          "duration": 0.27777000000003227,
          "durationTicks": 384,
          "midi": 48,
          "name": "C3",
          "ticks": 449280,
          "time": 340.99688999999995,
          "velocity": 0.905511811023622
        },
        {
          "duration": 0.2777699999999754,
          "durationTicks": 384,
          "midi": 48,
          "name": "C3",
          "ticks": 449664,
          "time": 341.27466,
          "velocity": 0.905511811023622
        },
        {
          "duration": 0.2777699999999754,
          "durationTicks": 384,
          "midi": 43,
          "name": "G2",
          "ticks": 450432,
          "time": 341.8302,
          "velocity": 0.905511811023622
        },
        {
          "duration": 0.27777000000003227,
          "durationTicks": 384,
          "midi": 43,
          "name": "G2",
          "ticks": 451200,
          "time": 342.38573999999994,
          "velocity": 0.905511811023622
        },
        {
          "duration": 0.2777699999999754,
          "durationTicks": 384,
          "midi": 48,
          "name": "C3",
          "ticks": 453120,
          "time": 343.77459,
          "velocity": 0.905511811023622
        },
        {
          "duration": 0.2777699999999754,
          "durationTicks": 384,
          "midi": 48,
          "name": "C3",
          "ticks": 453504,
          "time": 344.05235999999996,
          "velocity": 0.905511811023622
        },
        {
          "duration": 0.27777000000003227,
          "durationTicks": 384,
          "midi": 48,
          "name": "C3",
          "ticks": 453888,
          "time": 344.33012999999994,
          "velocity": 0.905511811023622
        },
        {
          "duration": 0.27777000000003227,
          "durationTicks": 384,
          "midi": 48,
          "name": "C3",
          "ticks": 454272,
          "time": 344.6079,
          "velocity": 0.905511811023622
        },
        {
          "duration": 0.2777699999999754,
          "durationTicks": 384,
          "midi": 48,
          "name": "C3",
          "ticks": 454656,
          "time": 344.88567,
          "velocity": 0.905511811023622
        },
        {
          "duration": 0.2777699999999754,
          "durationTicks": 384,
          "midi": 48,
          "name": "C3",
          "ticks": 455040,
          "time": 345.16344,
          "velocity": 0.905511811023622
        },
        {
          "duration": 0.27777000000003227,
          "durationTicks": 384,
          "midi": 48,
          "name": "C3",
          "ticks": 455424,
          "time": 345.44120999999996,
          "velocity": 0.905511811023622
        },
        {
          "duration": 0.2777699999999754,
          "durationTicks": 384,
          "midi": 48,
          "name": "C3",
          "ticks": 455808,
          "time": 345.71898,
          "velocity": 0.905511811023622
        },
        {
          "duration": 0.27777000000003227,
          "durationTicks": 384,
          "midi": 43,
          "name": "G2",
          "ticks": 456576,
          "time": 346.27451999999994,
          "velocity": 0.905511811023622
        },
        {
          "duration": 0.2777699999999754,
          "durationTicks": 384,
          "midi": 43,
          "name": "G2",
          "ticks": 457344,
          "time": 346.83006,
          "velocity": 0.905511811023622
        },
        {
          "duration": 0.2777699999999754,
          "durationTicks": 384,
          "midi": 48,
          "name": "C3",
          "ticks": 457728,
          "time": 347.10783,
          "velocity": 0.905511811023622
        },
        {
          "duration": 0.13888500000001613,
          "durationTicks": 192,
          "midi": 43,
          "name": "G2",
          "ticks": 461760,
          "time": 350.024415,
          "velocity": 0.905511811023622
        },
        {
          "duration": 0.1388849999999593,
          "durationTicks": 192,
          "midi": 43,
          "name": "G2",
          "ticks": 461952,
          "time": 350.1633,
          "velocity": 0.905511811023622
        },
        {
          "duration": 0.13888500000001613,
          "durationTicks": 192,
          "midi": 43,
          "name": "G2",
          "ticks": 462144,
          "time": 350.30218499999995,
          "velocity": 0.905511811023622
        },
        {
          "duration": 0.27777000000003227,
          "durationTicks": 384,
          "midi": 48,
          "name": "C3",
          "ticks": 462336,
          "time": 350.44106999999997,
          "velocity": 0.905511811023622
        },
        {
          "duration": 0.1388849999999593,
          "durationTicks": 192,
          "midi": 43,
          "name": "G2",
          "ticks": 464832,
          "time": 352.246575,
          "velocity": 0.905511811023622
        },
        {
          "duration": 0.13888500000001613,
          "durationTicks": 192,
          "midi": 43,
          "name": "G2",
          "ticks": 465024,
          "time": 352.38545999999997,
          "velocity": 0.905511811023622
        },
        {
          "duration": 0.13888500000001613,
          "durationTicks": 192,
          "midi": 43,
          "name": "G2",
          "ticks": 465216,
          "time": 352.524345,
          "velocity": 0.905511811023622
        },
        {
          "duration": 1.0908999999999764,
          "durationTicks": 768,
          "midi": 43,
          "name": "G2",
          "ticks": 465408,
          "time": 352.66323,
          "velocity": 0.968503937007874
        },
        {
          "duration": 0.1388849999999593,
          "durationTicks": 192,
          "midi": 43,
          "name": "G2",
          "ticks": 466368,
          "time": 353.893015,
          "velocity": 0.968503937007874
        },
        {
          "duration": 0.13888500000001613,
          "durationTicks": 192,
          "midi": 43,
          "name": "G2",
          "ticks": 466560,
          "time": 354.03189999999995,
          "velocity": 0.968503937007874
        },
        {
          "duration": 0.13888500000001613,
          "durationTicks": 192,
          "midi": 43,
          "name": "G2",
          "ticks": 466752,
          "time": 354.17078499999997,
          "velocity": 0.968503937007874
        },
        {
          "duration": 0.06944249999997965,
          "durationTicks": 96,
          "midi": 43,
          "name": "G2",
          "ticks": 466944,
          "time": 354.30967,
          "velocity": 0.968503937007874
        },
        {
          "duration": 0.06944250000003649,
          "durationTicks": 96,
          "midi": 43,
          "name": "G2",
          "ticks": 467040,
          "time": 354.37911249999996,
          "velocity": 0.968503937007874
        },
        {
          "duration": 0.06944249999997965,
          "durationTicks": 96,
          "midi": 43,
          "name": "G2",
          "ticks": 467136,
          "time": 354.448555,
          "velocity": 0.968503937007874
        },
        {
          "duration": 0.06944249999997965,
          "durationTicks": 96,
          "midi": 43,
          "name": "G2",
          "ticks": 467232,
          "time": 354.5179975,
          "velocity": 0.968503937007874
        },
        {
          "duration": 0.06944250000003649,
          "durationTicks": 96,
          "midi": 43,
          "name": "G2",
          "ticks": 467328,
          "time": 354.58743999999996,
          "velocity": 0.968503937007874
        },
        {
          "duration": 0.06944249999997965,
          "durationTicks": 96,
          "midi": 43,
          "name": "G2",
          "ticks": 467424,
          "time": 354.6568825,
          "velocity": 0.968503937007874
        },
        {
          "duration": 0.06944249999997965,
          "durationTicks": 96,
          "midi": 43,
          "name": "G2",
          "ticks": 467520,
          "time": 354.726325,
          "velocity": 0.968503937007874
        },
        {
          "duration": 0.06944250000003649,
          "durationTicks": 96,
          "midi": 43,
          "name": "G2",
          "ticks": 467616,
          "time": 354.79576749999995,
          "velocity": 0.968503937007874
        },
        {
          "duration": 0.14999999999997726,
          "durationTicks": 96,
          "midi": 43,
          "name": "G2",
          "ticks": 467712,
          "time": 354.86521,
          "velocity": 0.968503937007874
        },
        {
          "duration": 0.1500000000000341,
          "durationTicks": 96,
          "midi": 43,
          "name": "G2",
          "ticks": 467808,
          "time": 355.01520999999997,
          "velocity": 0.968503937007874
        },
        {
          "duration": 0.14999999999997726,
          "durationTicks": 96,
          "midi": 43,
          "name": "G2",
          "ticks": 467904,
          "time": 355.16521,
          "velocity": 0.968503937007874
        },
        {
          "duration": 0.1500000000000341,
          "durationTicks": 96,
          "midi": 43,
          "name": "G2",
          "ticks": 468000,
          "time": 355.31521,
          "velocity": 0.968503937007874
        },
        {
          "duration": 0.14999999999997726,
          "durationTicks": 96,
          "midi": 43,
          "name": "G2",
          "ticks": 468096,
          "time": 355.46521,
          "velocity": 0.968503937007874
        },
        {
          "duration": 0.14999999999997726,
          "durationTicks": 96,
          "midi": 43,
          "name": "G2",
          "ticks": 468192,
          "time": 355.61521,
          "velocity": 0.968503937007874
        },
        {
          "duration": 0.1500000000000341,
          "durationTicks": 96,
          "midi": 43,
          "name": "G2",
          "ticks": 468288,
          "time": 355.76520999999997,
          "velocity": 0.968503937007874
        },
        {
          "duration": 0.14999999999997726,
          "durationTicks": 96,
          "midi": 43,
          "name": "G2",
          "ticks": 468384,
          "time": 355.91521,
          "velocity": 0.968503937007874
        },
        {
          "duration": 0.1415049999999951,
          "durationTicks": 192,
          "midi": 43,
          "name": "G2",
          "ticks": 474816,
          "time": 360.734875,
          "velocity": 0.968503937007874
        },
        {
          "duration": 0.1415049999999951,
          "durationTicks": 192,
          "midi": 43,
          "name": "G2",
          "ticks": 475008,
          "time": 360.87638,
          "velocity": 0.968503937007874
        },
        {
          "duration": 0.1415049999999951,
          "durationTicks": 192,
          "midi": 43,
          "name": "G2",
          "ticks": 475200,
          "time": 361.017885,
          "velocity": 0.968503937007874
        },
        {
          "duration": 0.2830099999999902,
          "durationTicks": 384,
          "midi": 48,
          "name": "C3",
          "ticks": 475392,
          "time": 361.15939,
          "velocity": 0.968503937007874
        },
        {
          "duration": 0.1415049999999951,
          "durationTicks": 192,
          "midi": 43,
          "name": "G2",
          "ticks": 476352,
          "time": 361.866915,
          "velocity": 0.968503937007874
        },
        {
          "duration": 0.1415049999999951,
          "durationTicks": 192,
          "midi": 43,
          "name": "G2",
          "ticks": 476544,
          "time": 362.00842,
          "velocity": 0.968503937007874
        },
        {
          "duration": 0.1415049999999951,
          "durationTicks": 192,
          "midi": 43,
          "name": "G2",
          "ticks": 476736,
          "time": 362.149925,
          "velocity": 0.968503937007874
        },
        {
          "duration": 0.2830099999999902,
          "durationTicks": 384,
          "midi": 48,
          "name": "C3",
          "ticks": 476928,
          "time": 362.29143,
          "velocity": 0.968503937007874
        },
        {
          "duration": 0.1415049999999951,
          "durationTicks": 192,
          "midi": 43,
          "name": "G2",
          "ticks": 477888,
          "time": 362.99895499999997,
          "velocity": 0.968503937007874
        },
        {
          "duration": 0.1415049999999951,
          "durationTicks": 192,
          "midi": 43,
          "name": "G2",
          "ticks": 478080,
          "time": 363.14045999999996,
          "velocity": 0.968503937007874
        },
        {
          "duration": 0.1415049999999951,
          "durationTicks": 192,
          "midi": 43,
          "name": "G2",
          "ticks": 478272,
          "time": 363.28196499999996,
          "velocity": 0.968503937007874
        },
        {
          "duration": 0.28301000000004706,
          "durationTicks": 384,
          "midi": 48,
          "name": "C3",
          "ticks": 478464,
          "time": 363.42346999999995,
          "velocity": 0.968503937007874
        },
        {
          "duration": 0.2830099999999902,
          "durationTicks": 384,
          "midi": 43,
          "name": "G2",
          "ticks": 478848,
          "time": 363.70648,
          "velocity": 0.968503937007874
        },
        {
          "duration": 0.2830099999999902,
          "durationTicks": 384,
          "midi": 48,
          "name": "C3",
          "ticks": 479232,
          "time": 363.98949,
          "velocity": 0.968503937007874
        },
        {
          "duration": 0.2830099999999902,
          "durationTicks": 384,
          "midi": 43,
          "name": "G2",
          "ticks": 479616,
          "time": 364.2725,
          "velocity": 0.968503937007874
        },
        {
          "duration": 0.2830099999999902,
          "durationTicks": 384,
          "midi": 48,
          "name": "C3",
          "ticks": 480000,
          "time": 364.55550999999997,
          "velocity": 0.968503937007874
        },
        {
          "duration": 0.28301000000004706,
          "durationTicks": 384,
          "midi": 43,
          "name": "G2",
          "ticks": 480384,
          "time": 364.83851999999996,
          "velocity": 0.968503937007874
        },
        {
          "duration": 0.2830099999999902,
          "durationTicks": 384,
          "midi": 48,
          "name": "C3",
          "ticks": 480768,
          "time": 365.12153,
          "velocity": 0.968503937007874
        },
        {
          "duration": 0.2830099999999902,
          "durationTicks": 384,
          "midi": 43,
          "name": "G2",
          "ticks": 481152,
          "time": 365.40454,
          "velocity": 0.968503937007874
        },
        {
          "duration": 0.2830099999999902,
          "durationTicks": 384,
          "midi": 48,
          "name": "C3",
          "ticks": 481536,
          "time": 365.68755,
          "velocity": 0.968503937007874
        },
        {
          "duration": 0.2830099999999902,
          "durationTicks": 384,
          "midi": 43,
          "name": "G2",
          "ticks": 482304,
          "time": 366.25356999999997,
          "velocity": 0.968503937007874
        },
        {
          "duration": 0.2830099999999902,
          "durationTicks": 384,
          "midi": 48,
          "name": "C3",
          "ticks": 483072,
          "time": 366.81959,
          "velocity": 0.968503937007874
        }
      ],
      "endOfTrackTicks": 484608
    },
    {
      "channel": 7,
      "controlChanges": {},
      "pitchBends": [],
      "instrument": {
        "family": "ensemble",
        "number": 48,
        "name": "string ensemble 1"
      },
      "name": "STRINGS",
      "notes": [
        {
          "duration": 0.15,
          "durationTicks": 192,
          "midi": 67,
          "name": "G4",
          "ticks": 192,
          "time": 0.15,
          "velocity": 0.968503937007874
        },
        {
          "duration": 0.15,
          "durationTicks": 192,
          "midi": 67,
          "name": "G4",
          "ticks": 192,
          "time": 0.15,
          "velocity": 0.968503937007874
        },
        {
          "duration": 0.14999999999999997,
          "durationTicks": 192,
          "midi": 67,
          "name": "G4",
          "ticks": 384,
          "time": 0.3,
          "velocity": 0.968503937007874
        },
        {
          "duration": 0.14999999999999997,
          "durationTicks": 192,
          "midi": 67,
          "name": "G4",
          "ticks": 384,
          "time": 0.3,
          "velocity": 0.968503937007874
        },
        {
          "duration": 0.15000000000000002,
          "durationTicks": 192,
          "midi": 67,
          "name": "G4",
          "ticks": 576,
          "time": 0.44999999999999996,
          "velocity": 0.968503937007874
        },
        {
          "duration": 0.15000000000000002,
          "durationTicks": 192,
          "midi": 67,
          "name": "G4",
          "ticks": 576,
          "time": 0.44999999999999996,
          "velocity": 0.968503937007874
        },
        {
          "duration": 1.1999999999999997,
          "durationTicks": 768,
          "midi": 63,
          "name": "D#4",
          "ticks": 768,
          "time": 0.6,
          "velocity": 0.968503937007874
        },
        {
          "duration": 1.1999999999999997,
          "durationTicks": 768,
          "midi": 63,
          "name": "D#4",
          "ticks": 768,
          "time": 0.6,
          "velocity": 0.968503937007874
        },
        {
          "duration": 0.1499999999999999,
          "durationTicks": 192,
          "midi": 65,
          "name": "F4",
          "ticks": 1728,
          "time": 1.9499999999999997,
          "velocity": 0.968503937007874
        },
        {
          "duration": 0.1499999999999999,
          "durationTicks": 192,
          "midi": 65,
          "name": "F4",
          "ticks": 1728,
          "time": 1.9499999999999997,
          "velocity": 0.968503937007874
        },
        {
          "duration": 0.15000000000000036,
          "durationTicks": 192,
          "midi": 65,
          "name": "F4",
          "ticks": 1920,
          "time": 2.0999999999999996,
          "velocity": 0.968503937007874
        },
        {
          "duration": 0.15000000000000036,
          "durationTicks": 192,
          "midi": 65,
          "name": "F4",
          "ticks": 1920,
          "time": 2.0999999999999996,
          "velocity": 0.968503937007874
        },
        {
          "duration": 0.1499999999999999,
          "durationTicks": 192,
          "midi": 65,
          "name": "F4",
          "ticks": 2112,
          "time": 2.25,
          "velocity": 0.968503937007874
        },
        {
          "duration": 0.1499999999999999,
          "durationTicks": 192,
          "midi": 65,
          "name": "F4",
          "ticks": 2112,
          "time": 2.25,
          "velocity": 0.968503937007874
        },
        {
          "duration": 1.6,
          "durationTicks": 1536,
          "midi": 62,
          "name": "D4",
          "ticks": 2304,
          "time": 2.4,
          "velocity": 0.968503937007874
        },
        {
          "duration": 1.6,
          "durationTicks": 1536,
          "midi": 62,
          "name": "D4",
          "ticks": 2304,
          "time": 2.4,
          "velocity": 0.968503937007874
        },
        {
          "duration": 0.14422999999999941,
          "durationTicks": 192,
          "midi": 67,
          "name": "G4",
          "ticks": 4032,
          "time": 4.14423,
          "velocity": 0.7165354330708661
        },
        {
          "duration": 0.1442300000000003,
          "durationTicks": 192,
          "midi": 67,
          "name": "G4",
          "ticks": 4224,
          "time": 4.28846,
          "velocity": 0.7165354330708661
        },
        {
          "duration": 0.1442300000000003,
          "durationTicks": 192,
          "midi": 67,
          "name": "G4",
          "ticks": 4416,
          "time": 4.43269,
          "velocity": 0.7165354330708661
        },
        {
          "duration": 1.8749899999999995,
          "durationTicks": 2496,
          "midi": 63,
          "name": "D#4",
          "ticks": 4608,
          "time": 4.57692,
          "velocity": 0.7165354330708661
        },
        {
          "duration": 0.14422999999999941,
          "durationTicks": 192,
          "midi": 75,
          "name": "D#5",
          "ticks": 5568,
          "time": 5.29807,
          "velocity": 0.7165354330708661
        },
        {
          "duration": 0.1442300000000003,
          "durationTicks": 192,
          "midi": 75,
          "name": "D#5",
          "ticks": 5760,
          "time": 5.4422999999999995,
          "velocity": 0.7165354330708661
        },
        {
          "duration": 0.1442300000000003,
          "durationTicks": 192,
          "midi": 75,
          "name": "D#5",
          "ticks": 5952,
          "time": 5.58653,
          "velocity": 0.7165354330708661
        },
        {
          "duration": 0.86538,
          "durationTicks": 1152,
          "midi": 72,
          "name": "C5",
          "ticks": 6144,
          "time": 5.73076,
          "velocity": 0.7165354330708661
        },
        {
          "duration": 0.1442300000000003,
          "durationTicks": 192,
          "midi": 67,
          "name": "G4",
          "ticks": 7104,
          "time": 6.45191,
          "velocity": 0.7165354330708661
        },
        {
          "duration": 0.1442300000000003,
          "durationTicks": 192,
          "midi": 67,
          "name": "G4",
          "ticks": 7296,
          "time": 6.59614,
          "velocity": 0.7165354330708661
        },
        {
          "duration": 0.14422999999999941,
          "durationTicks": 192,
          "midi": 67,
          "name": "G4",
          "ticks": 7488,
          "time": 6.74037,
          "velocity": 0.7165354330708661
        },
        {
          "duration": 1.1538399999999998,
          "durationTicks": 1536,
          "midi": 62,
          "name": "D4",
          "ticks": 7680,
          "time": 6.8846,
          "velocity": 0.7165354330708661
        },
        {
          "duration": 0.14422999999999941,
          "durationTicks": 192,
          "midi": 77,
          "name": "F5",
          "ticks": 8640,
          "time": 7.6057500000000005,
          "velocity": 0.7165354330708661
        },
        {
          "duration": 0.14422999999999941,
          "durationTicks": 192,
          "midi": 77,
          "name": "F5",
          "ticks": 8832,
          "time": 7.74998,
          "velocity": 0.7165354330708661
        },
        {
          "duration": 0.1442300000000003,
          "durationTicks": 192,
          "midi": 77,
          "name": "F5",
          "ticks": 9024,
          "time": 7.894209999999999,
          "velocity": 0.7165354330708661
        },
        {
          "duration": 1.298070000000001,
          "durationTicks": 1728,
          "midi": 67,
          "name": "G4",
          "ticks": 9216,
          "time": 8.03844,
          "velocity": 0.7165354330708661
        },
        {
          "duration": 0.7211499999999997,
          "durationTicks": 960,
          "midi": 74,
          "name": "D5",
          "ticks": 9216,
          "time": 8.03844,
          "velocity": 0.7165354330708661
        },
        {
          "duration": 0.1442300000000003,
          "durationTicks": 192,
          "midi": 79,
          "name": "G5",
          "ticks": 10176,
          "time": 8.75959,
          "velocity": 0.7165354330708661
        },
        {
          "duration": 0.1442300000000003,
          "durationTicks": 192,
          "midi": 79,
          "name": "G5",
          "ticks": 10368,
          "time": 8.90382,
          "velocity": 0.7165354330708661
        },
        {
          "duration": 0.1442300000000003,
          "durationTicks": 192,
          "midi": 77,
          "name": "F5",
          "ticks": 10560,
          "time": 9.04805,
          "velocity": 0.7165354330708661
        },
        {
          "duration": 0.5769199999999994,
          "durationTicks": 768,
          "midi": 75,
          "name": "D#5",
          "ticks": 10752,
          "time": 9.19228,
          "velocity": 0.7165354330708661
        },
        {
          "duration": 0.1442300000000003,
          "durationTicks": 192,
          "midi": 63,
          "name": "D#4",
          "ticks": 10944,
          "time": 9.33651,
          "velocity": 0.7165354330708661
        },
        {
          "duration": 0.1442300000000003,
          "durationTicks": 192,
          "midi": 63,
          "name": "D#4",
          "ticks": 11136,
          "time": 9.48074,
          "velocity": 0.7165354330708661
        },
        {
          "duration": 0.14422999999999853,
          "durationTicks": 192,
          "midi": 65,
          "name": "F4",
          "ticks": 11328,
          "time": 9.624970000000001,
          "velocity": 0.7165354330708661
        },
        {
          "duration": 0.7211499999999997,
          "durationTicks": 960,
          "midi": 67,
          "name": "G4",
          "ticks": 11520,
          "time": 9.7692,
          "velocity": 0.7165354330708661
        },
        {
          "duration": 0.1442300000000003,
          "durationTicks": 192,
          "midi": 74,
          "name": "D5",
          "ticks": 11520,
          "time": 9.7692,
          "velocity": 0.7165354330708661
        },
        {
          "duration": 0.1442300000000003,
          "durationTicks": 192,
          "midi": 79,
          "name": "G5",
          "ticks": 11712,
          "time": 9.91343,
          "velocity": 0.7165354330708661
        },
        {
          "duration": 0.14422999999999853,
          "durationTicks": 192,
          "midi": 79,
          "name": "G5",
          "ticks": 11904,
          "time": 10.05766,
          "velocity": 0.7165354330708661
        },
        {
          "duration": 0.1442300000000003,
          "durationTicks": 192,
          "midi": 77,
          "name": "F5",
          "ticks": 12096,
          "time": 10.201889999999999,
          "velocity": 0.7165354330708661
        },
        {
          "duration": 0.5769200000000012,
          "durationTicks": 768,
          "midi": 75,
          "name": "D#5",
          "ticks": 12288,
          "time": 10.346119999999999,
          "velocity": 0.7165354330708661
        },
        {
          "duration": 0.1442300000000003,
          "durationTicks": 192,
          "midi": 63,
          "name": "D#4",
          "ticks": 12480,
          "time": 10.49035,
          "velocity": 0.7165354330708661
        },
        {
          "duration": 0.1442300000000003,
          "durationTicks": 192,
          "midi": 63,
          "name": "D#4",
          "ticks": 12672,
          "time": 10.63458,
          "velocity": 0.7165354330708661
        },
        {
          "duration": 0.1442300000000003,
          "durationTicks": 192,
          "midi": 65,
          "name": "F4",
          "ticks": 12864,
          "time": 10.77881,
          "velocity": 0.7165354330708661
        },
        {
          "duration": 0.1442300000000003,
          "durationTicks": 192,
          "midi": 67,
          "name": "G4",
          "ticks": 13056,
          "time": 10.92304,
          "velocity": 0.7165354330708661
        },
        {
          "duration": 0.1442300000000003,
          "durationTicks": 192,
          "midi": 74,
          "name": "D5",
          "ticks": 13056,
          "time": 10.92304,
          "velocity": 0.7165354330708661
        },
        {
          "duration": 0.1442300000000003,
          "durationTicks": 192,
          "midi": 74,
          "name": "D5",
          "ticks": 13248,
          "time": 11.06727,
          "velocity": 0.7165354330708661
        },
        {
          "duration": 0.1442300000000003,
          "durationTicks": 192,
          "midi": 79,
          "name": "G5",
          "ticks": 13248,
          "time": 11.06727,
          "velocity": 0.7165354330708661
        },
        {
          "duration": 0.14422999999999853,
          "durationTicks": 192,
          "midi": 74,
          "name": "D5",
          "ticks": 13440,
          "time": 11.211500000000001,
          "velocity": 0.7952755905511811
        },
        {
          "duration": 0.14422999999999853,
          "durationTicks": 192,
          "midi": 79,
          "name": "G5",
          "ticks": 13440,
          "time": 11.211500000000001,
          "velocity": 0.7952755905511811
        },
        {
          "duration": 0.1442300000000003,
          "durationTicks": 192,
          "midi": 67,
          "name": "G4",
          "ticks": 13632,
          "time": 11.35573,
          "velocity": 0.8582677165354331
        },
        {
          "duration": 0.1442300000000003,
          "durationTicks": 192,
          "midi": 77,
          "name": "F5",
          "ticks": 13632,
          "time": 11.35573,
          "velocity": 0.8582677165354331
        },
        {
          "duration": 0.28845999999999883,
          "durationTicks": 384,
          "midi": 60,
          "name": "C4",
          "ticks": 13824,
          "time": 11.49996,
          "velocity": 0.905511811023622
        },
        {
          "duration": 0.28845999999999883,
          "durationTicks": 384,
          "midi": 67,
          "name": "G4",
          "ticks": 13824,
          "time": 11.49996,
          "velocity": 0.905511811023622
        },
        {
          "duration": 0.28845999999999883,
          "durationTicks": 384,
          "midi": 75,
          "name": "D#5",
          "ticks": 13824,
          "time": 11.49996,
          "velocity": 0.905511811023622
        },
        {
          "duration": 0.28845999999999883,
          "durationTicks": 384,
          "midi": 75,
          "name": "D#5",
          "ticks": 13824,
          "time": 11.49996,
          "velocity": 0.905511811023622
        },
        {
          "duration": 0.2884600000000006,
          "durationTicks": 384,
          "midi": 56,
          "name": "G#3",
          "ticks": 14592,
          "time": 12.07688,
          "velocity": 0.905511811023622
        },
        {
          "duration": 0.2884600000000006,
          "durationTicks": 384,
          "midi": 66,
          "name": "F#4",
          "ticks": 14592,
          "time": 12.07688,
          "velocity": 0.905511811023622
        },
        {
          "duration": 0.2884600000000006,
          "durationTicks": 384,
          "midi": 72,
          "name": "C5",
          "ticks": 14592,
          "time": 12.07688,
          "velocity": 0.905511811023622
        },
        {
          "duration": 0.2884600000000006,
          "durationTicks": 384,
          "midi": 56,
          "name": "G#3",
          "ticks": 14592,
          "time": 12.07688,
          "velocity": 0.905511811023622
        },
        {
          "duration": 0.2884600000000006,
          "durationTicks": 384,
          "midi": 66,
          "name": "F#4",
          "ticks": 14592,
          "time": 12.07688,
          "velocity": 0.905511811023622
        },
        {
          "duration": 0.2884600000000006,
          "durationTicks": 384,
          "midi": 72,
          "name": "C5",
          "ticks": 14592,
          "time": 12.07688,
          "velocity": 0.905511811023622
        },
        {
          "duration": 0.28845999999999883,
          "durationTicks": 384,
          "midi": 55,
          "name": "G3",
          "ticks": 15360,
          "time": 12.6538,
          "velocity": 0.905511811023622
        },
        {
          "duration": 0.28845999999999883,
          "durationTicks": 384,
          "midi": 62,
          "name": "D4",
          "ticks": 15360,
          "time": 12.6538,
          "velocity": 0.905511811023622
        },
        {
          "duration": 0.28845999999999883,
          "durationTicks": 384,
          "midi": 71,
          "name": "B4",
          "ticks": 15360,
          "time": 12.6538,
          "velocity": 0.905511811023622
        },
        {
          "duration": 1.955119999999999,
          "durationTicks": 768,
          "midi": 79,
          "name": "G5",
          "ticks": 15360,
          "time": 12.6538,
          "velocity": 0.968503937007874
        },
        {
          "duration": 0.14285499999999907,
          "durationTicks": 192,
          "midi": 68,
          "name": "G#4",
          "ticks": 16320,
          "time": 14.751775,
          "velocity": 0.968503937007874
        },
        {
          "duration": 0.14285499999999907,
          "durationTicks": 192,
          "midi": 68,
          "name": "G#4",
          "ticks": 16320,
          "time": 14.751775,
          "velocity": 0.968503937007874
        },
        {
          "duration": 0.14285500000000084,
          "durationTicks": 192,
          "midi": 68,
          "name": "G#4",
          "ticks": 16512,
          "time": 14.89463,
          "velocity": 0.968503937007874
        },
        {
          "duration": 0.14285500000000084,
          "durationTicks": 192,
          "midi": 68,
          "name": "G#4",
          "ticks": 16512,
          "time": 14.89463,
          "velocity": 0.968503937007874
        },
        {
          "duration": 0.14285499999999907,
          "durationTicks": 192,
          "midi": 68,
          "name": "G#4",
          "ticks": 16704,
          "time": 15.037485,
          "velocity": 0.968503937007874
        },
        {
          "duration": 0.14285499999999907,
          "durationTicks": 192,
          "midi": 68,
          "name": "G#4",
          "ticks": 16704,
          "time": 15.037485,
          "velocity": 0.968503937007874
        },
        {
          "duration": 1.9047399999999985,
          "durationTicks": 1536,
          "midi": 65,
          "name": "F4",
          "ticks": 16896,
          "time": 15.18034,
          "velocity": 0.968503937007874
        },
        {
          "duration": 1.9047399999999985,
          "durationTicks": 1536,
          "midi": 65,
          "name": "F4",
          "ticks": 16896,
          "time": 15.18034,
          "velocity": 0.968503937007874
        },
        {
          "duration": 0.14285500000000084,
          "durationTicks": 192,
          "midi": 68,
          "name": "G#4",
          "ticks": 18624,
          "time": 17.227935,
          "velocity": 0.7165354330708661
        },
        {
          "duration": 0.1428549999999973,
          "durationTicks": 192,
          "midi": 68,
          "name": "G#4",
          "ticks": 18816,
          "time": 17.37079,
          "velocity": 0.7165354330708661
        },
        {
          "duration": 0.14285500000000084,
          "durationTicks": 192,
          "midi": 68,
          "name": "G#4",
          "ticks": 19008,
          "time": 17.513644999999997,
          "velocity": 0.7165354330708661
        },
        {
          "duration": 1.7142599999999995,
          "durationTicks": 2304,
          "midi": 65,
          "name": "F4",
          "ticks": 19200,
          "time": 17.656499999999998,
          "velocity": 0.7165354330708661
        },
        {
          "duration": 0.14285500000000084,
          "durationTicks": 192,
          "midi": 62,
          "name": "D4",
          "ticks": 19392,
          "time": 17.799355,
          "velocity": 0.7165354330708661
        },
        {
          "duration": 0.1428549999999973,
          "durationTicks": 192,
          "midi": 62,
          "name": "D4",
          "ticks": 19584,
          "time": 17.94221,
          "velocity": 0.7165354330708661
        },
        {
          "duration": 0.14285500000000084,
          "durationTicks": 192,
          "midi": 62,
          "name": "D4",
          "ticks": 19776,
          "time": 18.085064999999997,
          "velocity": 0.7165354330708661
        },
        {
          "duration": 1.1428399999999996,
          "durationTicks": 1536,
          "midi": 59,
          "name": "B3",
          "ticks": 19968,
          "time": 18.227919999999997,
          "velocity": 0.7165354330708661
        },
        {
          "duration": 0.2857100000000017,
          "durationTicks": 384,
          "midi": 60,
          "name": "C4",
          "ticks": 21504,
          "time": 19.370759999999997,
          "velocity": 0.7165354330708661
        },
        {
          "duration": 0.14285500000000084,
          "durationTicks": 192,
          "midi": 63,
          "name": "D#4",
          "ticks": 21504,
          "time": 19.370759999999997,
          "velocity": 0.7165354330708661
        },
        {
          "duration": 0.14285500000000084,
          "durationTicks": 192,
          "midi": 68,
          "name": "G#4",
          "ticks": 21696,
          "time": 19.513614999999998,
          "velocity": 0.7165354330708661
        },
        {
          "duration": 0.1428549999999973,
          "durationTicks": 192,
          "midi": 68,
          "name": "G#4",
          "ticks": 21888,
          "time": 19.65647,
          "velocity": 0.7165354330708661
        },
        {
          "duration": 0.14285500000000084,
          "durationTicks": 192,
          "midi": 68,
          "name": "G#4",
          "ticks": 22080,
          "time": 19.799324999999996,
          "velocity": 0.7165354330708661
        },
        {
          "duration": 1.7142599999999995,
          "durationTicks": 2304,
          "midi": 65,
          "name": "F4",
          "ticks": 22272,
          "time": 19.942179999999997,
          "velocity": 0.7165354330708661
        },
        {
          "duration": 0.14285500000000084,
          "durationTicks": 192,
          "midi": 62,
          "name": "D4",
          "ticks": 22464,
          "time": 20.085034999999998,
          "velocity": 0.7165354330708661
        },
        {
          "duration": 0.14285500000000084,
          "durationTicks": 192,
          "midi": 62,
          "name": "D4",
          "ticks": 22656,
          "time": 20.22789,
          "velocity": 0.7165354330708661
        },
        {
          "duration": 0.1428549999999973,
          "durationTicks": 192,
          "midi": 62,
          "name": "D4",
          "ticks": 22848,
          "time": 20.370745,
          "velocity": 0.7165354330708661
        },
        {
          "duration": 1.1428399999999996,
          "durationTicks": 1536,
          "midi": 59,
          "name": "B3",
          "ticks": 23040,
          "time": 20.513599999999997,
          "velocity": 0.7165354330708661
        },
        {
          "duration": 0.14285500000000084,
          "durationTicks": 192,
          "midi": 60,
          "name": "C4",
          "ticks": 24576,
          "time": 21.656439999999996,
          "velocity": 0.7165354330708661
        },
        {
          "duration": 0.14285500000000084,
          "durationTicks": 192,
          "midi": 63,
          "name": "D#4",
          "ticks": 24576,
          "time": 21.656439999999996,
          "velocity": 0.7165354330708661
        },
        {
          "duration": 0.14285500000000084,
          "durationTicks": 192,
          "midi": 67,
          "name": "G4",
          "ticks": 24768,
          "time": 21.799294999999997,
          "velocity": 0.7165354330708661
        },
        {
          "duration": 0.14285500000000084,
          "durationTicks": 192,
          "midi": 67,
          "name": "G4",
          "ticks": 24768,
          "time": 21.799294999999997,
          "velocity": 0.7165354330708661
        },
        {
          "duration": 0.14285500000000084,
          "durationTicks": 192,
          "midi": 67,
          "name": "G4",
          "ticks": 24960,
          "time": 21.942149999999998,
          "velocity": 0.7165354330708661
        },
        {
          "duration": 0.14285500000000084,
          "durationTicks": 192,
          "midi": 72,
          "name": "C5",
          "ticks": 24960,
          "time": 21.942149999999998,
          "velocity": 0.7165354330708661
        },
        {
          "duration": 0.14285500000000084,
          "durationTicks": 192,
          "midi": 63,
          "name": "D#4",
          "ticks": 25152,
          "time": 22.085005,
          "velocity": 0.7165354330708661
        },
        {
          "duration": 0.14285500000000084,
          "durationTicks": 192,
          "midi": 72,
          "name": "C5",
          "ticks": 25152,
          "time": 22.085005,
          "velocity": 0.7165354330708661
        },
        {
          "duration": 0.7142750000000007,
          "durationTicks": 960,
          "midi": 65,
          "name": "F4",
          "ticks": 25344,
          "time": 22.22786,
          "velocity": 0.7165354330708661
        },
        {
          "duration": 0.5714199999999963,
          "durationTicks": 768,
          "midi": 72,
          "name": "C5",
          "ticks": 25344,
          "time": 22.22786,
          "velocity": 0.7165354330708661
        },
        {
          "duration": 0.1428550000000044,
          "durationTicks": 192,
          "midi": 71,
          "name": "B4",
          "ticks": 26112,
          "time": 22.799279999999996,
          "velocity": 0.7952755905511811
        },
        {
          "duration": 0.1428549999999973,
          "durationTicks": 192,
          "midi": 68,
          "name": "G#4",
          "ticks": 26304,
          "time": 22.942135,
          "velocity": 0.7952755905511811
        },
        {
          "duration": 0.1428549999999973,
          "durationTicks": 192,
          "midi": 71,
          "name": "B4",
          "ticks": 26304,
          "time": 22.942135,
          "velocity": 0.7952755905511811
        },
        {
          "duration": 0.14285500000000084,
          "durationTicks": 192,
          "midi": 68,
          "name": "G#4",
          "ticks": 26496,
          "time": 23.084989999999998,
          "velocity": 0.8582677165354331
        },
        {
          "duration": 0.14285500000000084,
          "durationTicks": 192,
          "midi": 71,
          "name": "B4",
          "ticks": 26496,
          "time": 23.084989999999998,
          "velocity": 0.8582677165354331
        },
        {
          "duration": 0.14285500000000084,
          "durationTicks": 192,
          "midi": 65,
          "name": "F4",
          "ticks": 26688,
          "time": 23.227845,
          "velocity": 0.8582677165354331
        },
        {
          "duration": 0.14285500000000084,
          "durationTicks": 192,
          "midi": 74,
          "name": "D5",
          "ticks": 26688,
          "time": 23.227845,
          "velocity": 0.8582677165354331
        },
        {
          "duration": 0.7075250000000004,
          "durationTicks": 960,
          "midi": 67,
          "name": "G4",
          "ticks": 26880,
          "time": 23.3707,
          "velocity": 0.905511811023622
        },
        {
          "duration": 0.5660200000000017,
          "durationTicks": 768,
          "midi": 74,
          "name": "D5",
          "ticks": 26880,
          "time": 23.3707,
          "velocity": 0.905511811023622
        },
        {
          "duration": 0.14150499999999866,
          "durationTicks": 192,
          "midi": 72,
          "name": "C5",
          "ticks": 27648,
          "time": 23.93672,
          "velocity": 0.968503937007874
        },
        {
          "duration": 0.14150499999999866,
          "durationTicks": 192,
          "midi": 67,
          "name": "G4",
          "ticks": 27840,
          "time": 24.078225,
          "velocity": 0.968503937007874
        },
        {
          "duration": 0.14150499999999866,
          "durationTicks": 192,
          "midi": 72,
          "name": "C5",
          "ticks": 27840,
          "time": 24.078225,
          "velocity": 0.968503937007874
        },
        {
          "duration": 0.1415050000000022,
          "durationTicks": 192,
          "midi": 67,
          "name": "G4",
          "ticks": 28032,
          "time": 24.21973,
          "velocity": 0.968503937007874
        },
        {
          "duration": 0.1415050000000022,
          "durationTicks": 192,
          "midi": 72,
          "name": "C5",
          "ticks": 28032,
          "time": 24.21973,
          "velocity": 0.968503937007874
        },
        {
          "duration": 0.14150499999999866,
          "durationTicks": 192,
          "midi": 63,
          "name": "D#4",
          "ticks": 28224,
          "time": 24.361235,
          "velocity": 0.968503937007874
        },
        {
          "duration": 0.14150499999999866,
          "durationTicks": 192,
          "midi": 75,
          "name": "D#5",
          "ticks": 28224,
          "time": 24.361235,
          "velocity": 0.968503937007874
        },
        {
          "duration": 0.14150499999999866,
          "durationTicks": 192,
          "midi": 68,
          "name": "G#4",
          "ticks": 28416,
          "time": 24.50274,
          "velocity": 0.968503937007874
        },
        {
          "duration": 0.14150499999999866,
          "durationTicks": 192,
          "midi": 75,
          "name": "D#5",
          "ticks": 28416,
          "time": 24.50274,
          "velocity": 0.968503937007874
        },
        {
          "duration": 0.1415050000000022,
          "durationTicks": 192,
          "midi": 68,
          "name": "G#4",
          "ticks": 28608,
          "time": 24.644244999999998,
          "velocity": 0.968503937007874
        },
        {
          "duration": 0.1415050000000022,
          "durationTicks": 192,
          "midi": 74,
          "name": "D5",
          "ticks": 28608,
          "time": 24.644244999999998,
          "velocity": 0.968503937007874
        },
        {
          "duration": 0.14150499999999866,
          "durationTicks": 192,
          "midi": 68,
          "name": "G#4",
          "ticks": 28800,
          "time": 24.78575,
          "velocity": 0.968503937007874
        },
        {
          "duration": 0.14150499999999866,
          "durationTicks": 192,
          "midi": 74,
          "name": "D5",
          "ticks": 28800,
          "time": 24.78575,
          "velocity": 0.968503937007874
        },
        {
          "duration": 0.14150499999999866,
          "durationTicks": 192,
          "midi": 65,
          "name": "F4",
          "ticks": 28992,
          "time": 24.927255,
          "velocity": 0.968503937007874
        },
        {
          "duration": 0.14150499999999866,
          "durationTicks": 192,
          "midi": 77,
          "name": "F5",
          "ticks": 28992,
          "time": 24.927255,
          "velocity": 0.968503937007874
        },
        {
          "duration": 0.1415050000000022,
          "durationTicks": 192,
          "midi": 70,
          "name": "A#4",
          "ticks": 29184,
          "time": 25.068759999999997,
          "velocity": 0.968503937007874
        },
        {
          "duration": 0.1415050000000022,
          "durationTicks": 192,
          "midi": 77,
          "name": "F5",
          "ticks": 29184,
          "time": 25.068759999999997,
          "velocity": 0.968503937007874
        },
        {
          "duration": 0.14150499999999866,
          "durationTicks": 192,
          "midi": 70,
          "name": "A#4",
          "ticks": 29376,
          "time": 25.210265,
          "velocity": 0.968503937007874
        },
        {
          "duration": 0.14150499999999866,
          "durationTicks": 192,
          "midi": 76,
          "name": "E5",
          "ticks": 29376,
          "time": 25.210265,
          "velocity": 0.968503937007874
        },
        {
          "duration": 0.1415050000000022,
          "durationTicks": 192,
          "midi": 70,
          "name": "A#4",
          "ticks": 29568,
          "time": 25.35177,
          "velocity": 0.968503937007874
        },
        {
          "duration": 0.1415050000000022,
          "durationTicks": 192,
          "midi": 76,
          "name": "E5",
          "ticks": 29568,
          "time": 25.35177,
          "velocity": 0.968503937007874
        },
        {
          "duration": 0.14150499999999866,
          "durationTicks": 192,
          "midi": 67,
          "name": "G4",
          "ticks": 29760,
          "time": 25.493275,
          "velocity": 0.968503937007874
        },
        {
          "duration": 0.14150499999999866,
          "durationTicks": 192,
          "midi": 79,
          "name": "G5",
          "ticks": 29760,
          "time": 25.493275,
          "velocity": 0.968503937007874
        },
        {
          "duration": 0.1401849999999989,
          "durationTicks": 192,
          "midi": 72,
          "name": "C5",
          "ticks": 29952,
          "time": 25.63478,
          "velocity": 0.968503937007874
        },
        {
          "duration": 0.1401849999999989,
          "durationTicks": 192,
          "midi": 79,
          "name": "G5",
          "ticks": 29952,
          "time": 25.63478,
          "velocity": 0.968503937007874
        },
        {
          "duration": 0.14018500000000245,
          "durationTicks": 192,
          "midi": 60,
          "name": "C4",
          "ticks": 30144,
          "time": 25.774964999999998,
          "velocity": 0.968503937007874
        },
        {
          "duration": 0.14018500000000245,
          "durationTicks": 192,
          "midi": 77,
          "name": "F5",
          "ticks": 30144,
          "time": 25.774964999999998,
          "velocity": 0.968503937007874
        },
        {
          "duration": 0.1401849999999989,
          "durationTicks": 192,
          "midi": 60,
          "name": "C4",
          "ticks": 30336,
          "time": 25.91515,
          "velocity": 0.968503937007874
        },
        {
          "duration": 0.1401849999999989,
          "durationTicks": 192,
          "midi": 77,
          "name": "F5",
          "ticks": 30336,
          "time": 25.91515,
          "velocity": 0.968503937007874
        },
        {
          "duration": 0.1401849999999989,
          "durationTicks": 192,
          "midi": 56,
          "name": "G#3",
          "ticks": 30528,
          "time": 26.055335,
          "velocity": 0.968503937007874
        },
        {
          "duration": 0.1401849999999989,
          "durationTicks": 192,
          "midi": 80,
          "name": "G#5",
          "ticks": 30528,
          "time": 26.055335,
          "velocity": 0.968503937007874
        },
        {
          "duration": 0.14018500000000245,
          "durationTicks": 192,
          "midi": 64,
          "name": "E4",
          "ticks": 30720,
          "time": 26.19552,
          "velocity": 0.968503937007874
        },
        {
          "duration": 0.14018500000000245,
          "durationTicks": 192,
          "midi": 80,
          "name": "G#5",
          "ticks": 30720,
          "time": 26.19552,
          "velocity": 0.968503937007874
        },
        {
          "duration": 0.1401849999999989,
          "durationTicks": 192,
          "midi": 64,
          "name": "E4",
          "ticks": 30912,
          "time": 26.335705,
          "velocity": 0.968503937007874
        },
        {
          "duration": 0.1401849999999989,
          "durationTicks": 192,
          "midi": 79,
          "name": "G5",
          "ticks": 30912,
          "time": 26.335705,
          "velocity": 0.968503937007874
        },
        {
          "duration": 0.1401849999999989,
          "durationTicks": 192,
          "midi": 64,
          "name": "E4",
          "ticks": 31104,
          "time": 26.47589,
          "velocity": 0.968503937007874
        },
        {
          "duration": 0.1401849999999989,
          "durationTicks": 192,
          "midi": 79,
          "name": "G5",
          "ticks": 31104,
          "time": 26.47589,
          "velocity": 0.968503937007874
        },
        {
          "duration": 0.1401849999999989,
          "durationTicks": 192,
          "midi": 58,
          "name": "A#3",
          "ticks": 31296,
          "time": 26.616075,
          "velocity": 0.968503937007874
        },
        {
          "duration": 0.1401849999999989,
          "durationTicks": 192,
          "midi": 82,
          "name": "A#5",
          "ticks": 31296,
          "time": 26.616075,
          "velocity": 0.968503937007874
        },
        {
          "duration": 0.14018500000000245,
          "durationTicks": 192,
          "midi": 65,
          "name": "F4",
          "ticks": 31488,
          "time": 26.756259999999997,
          "velocity": 0.968503937007874
        },
        {
          "duration": 0.14018500000000245,
          "durationTicks": 192,
          "midi": 82,
          "name": "A#5",
          "ticks": 31488,
          "time": 26.756259999999997,
          "velocity": 0.968503937007874
        },
        {
          "duration": 0.1401849999999989,
          "durationTicks": 192,
          "midi": 65,
          "name": "F4",
          "ticks": 31680,
          "time": 26.896445,
          "velocity": 0.968503937007874
        },
        {
          "duration": 0.1401849999999989,
          "durationTicks": 192,
          "midi": 80,
          "name": "G#5",
          "ticks": 31680,
          "time": 26.896445,
          "velocity": 0.968503937007874
        },
        {
          "duration": 0.1401849999999989,
          "durationTicks": 192,
          "midi": 65,
          "name": "F4",
          "ticks": 31872,
          "time": 27.03663,
          "velocity": 0.968503937007874
        },
        {
          "duration": 0.1401849999999989,
          "durationTicks": 192,
          "midi": 80,
          "name": "G#5",
          "ticks": 31872,
          "time": 27.03663,
          "velocity": 0.968503937007874
        },
        {
          "duration": 0.14018500000000245,
          "durationTicks": 192,
          "midi": 60,
          "name": "C4",
          "ticks": 32064,
          "time": 27.176814999999998,
          "velocity": 0.968503937007874
        },
        {
          "duration": 0.14018500000000245,
          "durationTicks": 192,
          "midi": 84,
          "name": "C6",
          "ticks": 32064,
          "time": 27.176814999999998,
          "velocity": 0.968503937007874
        },
        {
          "duration": 0.1401849999999989,
          "durationTicks": 192,
          "midi": 68,
          "name": "G#4",
          "ticks": 32256,
          "time": 27.317,
          "velocity": 0.968503937007874
        },
        {
          "duration": 0.1401849999999989,
          "durationTicks": 192,
          "midi": 84,
          "name": "C6",
          "ticks": 32256,
          "time": 27.317,
          "velocity": 0.968503937007874
        },
        {
          "duration": 0.1401849999999989,
          "durationTicks": 192,
          "midi": 68,
          "name": "G#4",
          "ticks": 32448,
          "time": 27.457185,
          "velocity": 0.968503937007874
        },
        {
          "duration": 0.1401849999999989,
          "durationTicks": 192,
          "midi": 83,
          "name": "B5",
          "ticks": 32448,
          "time": 27.457185,
          "velocity": 0.968503937007874
        },
        {
          "duration": 0.14018500000000245,
          "durationTicks": 192,
          "midi": 68,
          "name": "G#4",
          "ticks": 32640,
          "time": 27.597369999999998,
          "velocity": 0.968503937007874
        },
        {
          "duration": 0.14018500000000245,
          "durationTicks": 192,
          "midi": 83,
          "name": "B5",
          "ticks": 32640,
          "time": 27.597369999999998,
          "velocity": 0.968503937007874
        },
        {
          "duration": 0.1401849999999989,
          "durationTicks": 192,
          "midi": 65,
          "name": "F4",
          "ticks": 32832,
          "time": 27.737555,
          "velocity": 0.968503937007874
        },
        {
          "duration": 0.1401849999999989,
          "durationTicks": 192,
          "midi": 86,
          "name": "D6",
          "ticks": 32832,
          "time": 27.737555,
          "velocity": 0.968503937007874
        },
        {
          "duration": 0.13888499999999837,
          "durationTicks": 192,
          "midi": 67,
          "name": "G4",
          "ticks": 33024,
          "time": 27.87774,
          "velocity": 0.968503937007874
        },
        {
          "duration": 0.13888499999999837,
          "durationTicks": 192,
          "midi": 84,
          "name": "C6",
          "ticks": 33024,
          "time": 27.87774,
          "velocity": 0.968503937007874
        },
        {
          "duration": 0.13888500000000192,
          "durationTicks": 192,
          "midi": 63,
          "name": "D#4",
          "ticks": 33216,
          "time": 28.016624999999998,
          "velocity": 0.968503937007874
        },
        {
          "duration": 0.13888500000000192,
          "durationTicks": 192,
          "midi": 72,
          "name": "C5",
          "ticks": 33216,
          "time": 28.016624999999998,
          "velocity": 0.968503937007874
        },
        {
          "duration": 0.13888500000000192,
          "durationTicks": 192,
          "midi": 87,
          "name": "D#6",
          "ticks": 33216,
          "time": 28.016624999999998,
          "velocity": 0.968503937007874
        },
        {
          "duration": 0.13888499999999837,
          "durationTicks": 192,
          "midi": 63,
          "name": "D#4",
          "ticks": 33408,
          "time": 28.15551,
          "velocity": 0.968503937007874
        },
        {
          "duration": 0.13888499999999837,
          "durationTicks": 192,
          "midi": 72,
          "name": "C5",
          "ticks": 33408,
          "time": 28.15551,
          "velocity": 0.968503937007874
        },
        {
          "duration": 0.13888499999999837,
          "durationTicks": 192,
          "midi": 87,
          "name": "D#6",
          "ticks": 33408,
          "time": 28.15551,
          "velocity": 0.968503937007874
        },
        {
          "duration": 0.13888500000000192,
          "durationTicks": 192,
          "midi": 63,
          "name": "D#4",
          "ticks": 33600,
          "time": 28.294394999999998,
          "velocity": 0.968503937007874
        },
        {
          "duration": 0.13888500000000192,
          "durationTicks": 192,
          "midi": 72,
          "name": "C5",
          "ticks": 33600,
          "time": 28.294394999999998,
          "velocity": 0.968503937007874
        },
        {
          "duration": 0.13888500000000192,
          "durationTicks": 192,
          "midi": 87,
          "name": "D#6",
          "ticks": 33600,
          "time": 28.294394999999998,
          "velocity": 0.968503937007874
        },
        {
          "duration": 0.13888499999999837,
          "durationTicks": 192,
          "midi": 63,
          "name": "D#4",
          "ticks": 33792,
          "time": 28.43328,
          "velocity": 0.968503937007874
        },
        {
          "duration": 0.13888499999999837,
          "durationTicks": 192,
          "midi": 72,
          "name": "C5",
          "ticks": 33792,
          "time": 28.43328,
          "velocity": 0.968503937007874
        },
        {
          "duration": 0.13888499999999837,
          "durationTicks": 192,
          "midi": 84,
          "name": "C6",
          "ticks": 33792,
          "time": 28.43328,
          "velocity": 0.968503937007874
        },
        {
          "duration": 0.13888500000000192,
          "durationTicks": 192,
          "midi": 63,
          "name": "D#4",
          "ticks": 33984,
          "time": 28.572165,
          "velocity": 0.968503937007874
        },
        {
          "duration": 0.13888500000000192,
          "durationTicks": 192,
          "midi": 72,
          "name": "C5",
          "ticks": 33984,
          "time": 28.572165,
          "velocity": 0.968503937007874
        },
        {
          "duration": 0.13888500000000192,
          "durationTicks": 192,
          "midi": 79,
          "name": "G5",
          "ticks": 33984,
          "time": 28.572165,
          "velocity": 0.968503937007874
        },
        {
          "duration": 0.13888499999999837,
          "durationTicks": 192,
          "midi": 63,
          "name": "D#4",
          "ticks": 34176,
          "time": 28.71105,
          "velocity": 0.968503937007874
        },
        {
          "duration": 0.13888499999999837,
          "durationTicks": 192,
          "midi": 72,
          "name": "C5",
          "ticks": 34176,
          "time": 28.71105,
          "velocity": 0.968503937007874
        },
        {
          "duration": 0.13888499999999837,
          "durationTicks": 192,
          "midi": 79,
          "name": "G5",
          "ticks": 34176,
          "time": 28.71105,
          "velocity": 0.968503937007874
        },
        {
          "duration": 0.13888500000000192,
          "durationTicks": 192,
          "midi": 63,
          "name": "D#4",
          "ticks": 34368,
          "time": 28.849935,
          "velocity": 0.968503937007874
        },
        {
          "duration": 0.13888500000000192,
          "durationTicks": 192,
          "midi": 72,
          "name": "C5",
          "ticks": 34368,
          "time": 28.849935,
          "velocity": 0.968503937007874
        },
        {
          "duration": 0.13888500000000192,
          "durationTicks": 192,
          "midi": 79,
          "name": "G5",
          "ticks": 34368,
          "time": 28.849935,
          "velocity": 0.968503937007874
        },
        {
          "duration": 0.13888499999999837,
          "durationTicks": 192,
          "midi": 63,
          "name": "D#4",
          "ticks": 34560,
          "time": 28.98882,
          "velocity": 0.968503937007874
        },
        {
          "duration": 0.13888499999999837,
          "durationTicks": 192,
          "midi": 72,
          "name": "C5",
          "ticks": 34560,
          "time": 28.98882,
          "velocity": 0.968503937007874
        },
        {
          "duration": 0.13888499999999837,
          "durationTicks": 192,
          "midi": 75,
          "name": "D#5",
          "ticks": 34560,
          "time": 28.98882,
          "velocity": 0.968503937007874
        },
        {
          "duration": 0.13888500000000192,
          "durationTicks": 192,
          "midi": 63,
          "name": "D#4",
          "ticks": 34752,
          "time": 29.127705,
          "velocity": 0.968503937007874
        },
        {
          "duration": 0.13888500000000192,
          "durationTicks": 192,
          "midi": 72,
          "name": "C5",
          "ticks": 34752,
          "time": 29.127705,
          "velocity": 0.968503937007874
        },
        {
          "duration": 0.13888500000000192,
          "durationTicks": 192,
          "midi": 72,
          "name": "C5",
          "ticks": 34752,
          "time": 29.127705,
          "velocity": 0.968503937007874
        },
        {
          "duration": 0.13888499999999837,
          "durationTicks": 192,
          "midi": 63,
          "name": "D#4",
          "ticks": 34944,
          "time": 29.26659,
          "velocity": 0.968503937007874
        },
        {
          "duration": 0.13888499999999837,
          "durationTicks": 192,
          "midi": 72,
          "name": "C5",
          "ticks": 34944,
          "time": 29.26659,
          "velocity": 0.968503937007874
        },
        {
          "duration": 0.13888499999999837,
          "durationTicks": 192,
          "midi": 67,
          "name": "G4",
          "ticks": 34944,
          "time": 29.26659,
          "velocity": 0.968503937007874
        },
        {
          "duration": 0.13888499999999837,
          "durationTicks": 192,
          "midi": 63,
          "name": "D#4",
          "ticks": 35136,
          "time": 29.405475,
          "velocity": 0.968503937007874
        },
        {
          "duration": 0.13888499999999837,
          "durationTicks": 192,
          "midi": 72,
          "name": "C5",
          "ticks": 35136,
          "time": 29.405475,
          "velocity": 0.968503937007874
        },
        {
          "duration": 0.13888499999999837,
          "durationTicks": 192,
          "midi": 67,
          "name": "G4",
          "ticks": 35136,
          "time": 29.405475,
          "velocity": 0.968503937007874
        },
        {
          "duration": 0.13888500000000192,
          "durationTicks": 192,
          "midi": 63,
          "name": "D#4",
          "ticks": 35328,
          "time": 29.544359999999998,
          "velocity": 0.968503937007874
        },
        {
          "duration": 0.13888500000000192,
          "durationTicks": 192,
          "midi": 72,
          "name": "C5",
          "ticks": 35328,
          "time": 29.544359999999998,
          "velocity": 0.968503937007874
        },
        {
          "duration": 0.13888500000000192,
          "durationTicks": 192,
          "midi": 63,
          "name": "D#4",
          "ticks": 35328,
          "time": 29.544359999999998,
          "velocity": 0.968503937007874
        },
        {
          "duration": 0.13888499999999837,
          "durationTicks": 192,
          "midi": 63,
          "name": "D#4",
          "ticks": 35520,
          "time": 29.683245,
          "velocity": 0.968503937007874
        },
        {
          "duration": 0.13888499999999837,
          "durationTicks": 192,
          "midi": 72,
          "name": "C5",
          "ticks": 35520,
          "time": 29.683245,
          "velocity": 0.968503937007874
        },
        {
          "duration": 0.13888499999999837,
          "durationTicks": 192,
          "midi": 60,
          "name": "C4",
          "ticks": 35520,
          "time": 29.683245,
          "velocity": 0.968503937007874
        },
        {
          "duration": 0.13888500000000192,
          "durationTicks": 192,
          "midi": 63,
          "name": "D#4",
          "ticks": 35712,
          "time": 29.822129999999998,
          "velocity": 0.968503937007874
        },
        {
          "duration": 0.13888500000000192,
          "durationTicks": 192,
          "midi": 72,
          "name": "C5",
          "ticks": 35712,
          "time": 29.822129999999998,
          "velocity": 0.968503937007874
        },
        {
          "duration": 0.13888500000000192,
          "durationTicks": 192,
          "midi": 60,
          "name": "C4",
          "ticks": 35712,
          "time": 29.822129999999998,
          "velocity": 0.968503937007874
        },
        {
          "duration": 0.13888499999999837,
          "durationTicks": 192,
          "midi": 63,
          "name": "D#4",
          "ticks": 35904,
          "time": 29.961015,
          "velocity": 0.968503937007874
        },
        {
          "duration": 0.13888499999999837,
          "durationTicks": 192,
          "midi": 72,
          "name": "C5",
          "ticks": 35904,
          "time": 29.961015,
          "velocity": 0.968503937007874
        },
        {
          "duration": 0.13888499999999837,
          "durationTicks": 192,
          "midi": 60,
          "name": "C4",
          "ticks": 35904,
          "time": 29.961015,
          "velocity": 0.968503937007874
        },
        {
          "duration": 0.13888500000000192,
          "durationTicks": 192,
          "midi": 62,
          "name": "D4",
          "ticks": 36096,
          "time": 30.099899999999998,
          "velocity": 0.968503937007874
        },
        {
          "duration": 0.13888500000000192,
          "durationTicks": 192,
          "midi": 71,
          "name": "B4",
          "ticks": 36096,
          "time": 30.099899999999998,
          "velocity": 0.968503937007874
        },
        {
          "duration": 0.13888500000000192,
          "durationTicks": 192,
          "midi": 59,
          "name": "B3",
          "ticks": 36096,
          "time": 30.099899999999998,
          "velocity": 0.968503937007874
        },
        {
          "duration": 0.13888499999999837,
          "durationTicks": 192,
          "midi": 77,
          "name": "F5",
          "ticks": 36288,
          "time": 30.238785,
          "velocity": 0.968503937007874
        },
        {
          "duration": 0.13888499999999837,
          "durationTicks": 192,
          "midi": 89,
          "name": "F6",
          "ticks": 36288,
          "time": 30.238785,
          "velocity": 0.968503937007874
        },
        {
          "duration": 0.13888500000000192,
          "durationTicks": 192,
          "midi": 74,
          "name": "D5",
          "ticks": 36480,
          "time": 30.37767,
          "velocity": 0.968503937007874
        },
        {
          "duration": 0.13888500000000192,
          "durationTicks": 192,
          "midi": 86,
          "name": "D6",
          "ticks": 36480,
          "time": 30.37767,
          "velocity": 0.968503937007874
        },
        {
          "duration": 0.13888499999999837,
          "durationTicks": 192,
          "midi": 74,
          "name": "D5",
          "ticks": 36672,
          "time": 30.516555,
          "velocity": 0.968503937007874
        },
        {
          "duration": 0.13888499999999837,
          "durationTicks": 192,
          "midi": 86,
          "name": "D6",
          "ticks": 36672,
          "time": 30.516555,
          "velocity": 0.968503937007874
        },
        {
          "duration": 0.13888500000000192,
          "durationTicks": 192,
          "midi": 71,
          "name": "B4",
          "ticks": 36864,
          "time": 30.65544,
          "velocity": 0.968503937007874
        },
        {
          "duration": 0.13888500000000192,
          "durationTicks": 192,
          "midi": 83,
          "name": "B5",
          "ticks": 36864,
          "time": 30.65544,
          "velocity": 0.968503937007874
        },
        {
          "duration": 0.13888499999999837,
          "durationTicks": 192,
          "midi": 67,
          "name": "G4",
          "ticks": 37056,
          "time": 30.794325,
          "velocity": 0.968503937007874
        },
        {
          "duration": 0.13888499999999837,
          "durationTicks": 192,
          "midi": 79,
          "name": "G5",
          "ticks": 37056,
          "time": 30.794325,
          "velocity": 0.968503937007874
        },
        {
          "duration": 0.13888500000000192,
          "durationTicks": 192,
          "midi": 65,
          "name": "F4",
          "ticks": 37248,
          "time": 30.93321,
          "velocity": 0.968503937007874
        },
        {
          "duration": 0.13888500000000192,
          "durationTicks": 192,
          "midi": 77,
          "name": "F5",
          "ticks": 37248,
          "time": 30.93321,
          "velocity": 0.968503937007874
        },
        {
          "duration": 0.13888499999999837,
          "durationTicks": 192,
          "midi": 65,
          "name": "F4",
          "ticks": 37440,
          "time": 31.072095,
          "velocity": 0.968503937007874
        },
        {
          "duration": 0.13888499999999837,
          "durationTicks": 192,
          "midi": 77,
          "name": "F5",
          "ticks": 37440,
          "time": 31.072095,
          "velocity": 0.968503937007874
        },
        {
          "duration": 0.13888500000000192,
          "durationTicks": 192,
          "midi": 62,
          "name": "D4",
          "ticks": 37632,
          "time": 31.21098,
          "velocity": 0.968503937007874
        },
        {
          "duration": 0.13888500000000192,
          "durationTicks": 192,
          "midi": 74,
          "name": "D5",
          "ticks": 37632,
          "time": 31.21098,
          "velocity": 0.968503937007874
        },
        {
          "duration": 0.13888499999999837,
          "durationTicks": 192,
          "midi": 59,
          "name": "B3",
          "ticks": 37824,
          "time": 31.349865,
          "velocity": 0.968503937007874
        },
        {
          "duration": 0.13888499999999837,
          "durationTicks": 192,
          "midi": 71,
          "name": "B4",
          "ticks": 37824,
          "time": 31.349865,
          "velocity": 0.968503937007874
        },
        {
          "duration": 0.13888499999999837,
          "durationTicks": 192,
          "midi": 55,
          "name": "G3",
          "ticks": 38016,
          "time": 31.48875,
          "velocity": 0.968503937007874
        },
        {
          "duration": 0.13888499999999837,
          "durationTicks": 192,
          "midi": 67,
          "name": "G4",
          "ticks": 38016,
          "time": 31.48875,
          "velocity": 0.968503937007874
        },
        {
          "duration": 0.13888500000000192,
          "durationTicks": 192,
          "midi": 65,
          "name": "F4",
          "ticks": 38208,
          "time": 31.627634999999998,
          "velocity": 0.968503937007874
        },
        {
          "duration": 0.13888500000000192,
          "durationTicks": 192,
          "midi": 65,
          "name": "F4",
          "ticks": 38208,
          "time": 31.627634999999998,
          "velocity": 0.968503937007874
        },
        {
          "duration": 0.13888499999999837,
          "durationTicks": 192,
          "midi": 62,
          "name": "D4",
          "ticks": 38400,
          "time": 31.76652,
          "velocity": 0.968503937007874
        },
        {
          "duration": 0.13888499999999837,
          "durationTicks": 192,
          "midi": 62,
          "name": "D4",
          "ticks": 38400,
          "time": 31.76652,
          "velocity": 0.968503937007874
        },
        {
          "duration": 0.13888499999999837,
          "durationTicks": 192,
          "midi": 59,
          "name": "B3",
          "ticks": 38592,
          "time": 31.905405,
          "velocity": 0.968503937007874
        },
        {
          "duration": 0.13888499999999837,
          "durationTicks": 192,
          "midi": 59,
          "name": "B3",
          "ticks": 38592,
          "time": 31.905405,
          "velocity": 0.968503937007874
        },
        {
          "duration": 0.13888500000000192,
          "durationTicks": 192,
          "midi": 60,
          "name": "C4",
          "ticks": 38784,
          "time": 32.04429,
          "velocity": 0.968503937007874
        },
        {
          "duration": 0.13888500000000192,
          "durationTicks": 192,
          "midi": 60,
          "name": "C4",
          "ticks": 38784,
          "time": 32.04429,
          "velocity": 0.968503937007874
        },
        {
          "duration": 0.13888500000000192,
          "durationTicks": 192,
          "midi": 60,
          "name": "C4",
          "ticks": 38976,
          "time": 32.183175,
          "velocity": 0.968503937007874
        },
        {
          "duration": 0.13888500000000192,
          "durationTicks": 192,
          "midi": 60,
          "name": "C4",
          "ticks": 38976,
          "time": 32.183175,
          "velocity": 0.968503937007874
        },
        {
          "duration": 0.13888500000000192,
          "durationTicks": 192,
          "midi": 72,
          "name": "C5",
          "ticks": 39168,
          "time": 32.32206,
          "velocity": 0.968503937007874
        },
        {
          "duration": 0.13888500000000192,
          "durationTicks": 192,
          "midi": 60,
          "name": "C4",
          "ticks": 39168,
          "time": 32.32206,
          "velocity": 0.968503937007874
        },
        {
          "duration": 0.13888499999999482,
          "durationTicks": 192,
          "midi": 75,
          "name": "D#5",
          "ticks": 39360,
          "time": 32.460945,
          "velocity": 0.968503937007874
        },
        {
          "duration": 0.13888499999999482,
          "durationTicks": 192,
          "midi": 87,
          "name": "D#6",
          "ticks": 39360,
          "time": 32.460945,
          "velocity": 0.968503937007874
        },
        {
          "duration": 0.13888500000000192,
          "durationTicks": 192,
          "midi": 75,
          "name": "D#5",
          "ticks": 39552,
          "time": 32.59983,
          "velocity": 0.968503937007874
        },
        {
          "duration": 0.13888500000000192,
          "durationTicks": 192,
          "midi": 87,
          "name": "D#6",
          "ticks": 39552,
          "time": 32.59983,
          "velocity": 0.968503937007874
        },
        {
          "duration": 0.13888500000000192,
          "durationTicks": 192,
          "midi": 75,
          "name": "D#5",
          "ticks": 39744,
          "time": 32.738715,
          "velocity": 0.968503937007874
        },
        {
          "duration": 0.13888500000000192,
          "durationTicks": 192,
          "midi": 87,
          "name": "D#6",
          "ticks": 39744,
          "time": 32.738715,
          "velocity": 0.968503937007874
        },
        {
          "duration": 0.13888500000000192,
          "durationTicks": 192,
          "midi": 72,
          "name": "C5",
          "ticks": 39936,
          "time": 32.8776,
          "velocity": 0.968503937007874
        },
        {
          "duration": 0.13888500000000192,
          "durationTicks": 192,
          "midi": 84,
          "name": "C6",
          "ticks": 39936,
          "time": 32.8776,
          "velocity": 0.968503937007874
        },
        {
          "duration": 0.13888499999999482,
          "durationTicks": 192,
          "midi": 69,
          "name": "A4",
          "ticks": 40128,
          "time": 33.016485,
          "velocity": 0.968503937007874
        },
        {
          "duration": 0.13888499999999482,
          "durationTicks": 192,
          "midi": 81,
          "name": "A5",
          "ticks": 40128,
          "time": 33.016485,
          "velocity": 0.968503937007874
        },
        {
          "duration": 0.13888500000000192,
          "durationTicks": 192,
          "midi": 69,
          "name": "A4",
          "ticks": 40320,
          "time": 33.15537,
          "velocity": 0.968503937007874
        },
        {
          "duration": 0.13888500000000192,
          "durationTicks": 192,
          "midi": 81,
          "name": "A5",
          "ticks": 40320,
          "time": 33.15537,
          "velocity": 0.968503937007874
        },
        {
          "duration": 0.13888500000000192,
          "durationTicks": 192,
          "midi": 69,
          "name": "A4",
          "ticks": 40512,
          "time": 33.294255,
          "velocity": 0.968503937007874
        },
        {
          "duration": 0.13888500000000192,
          "durationTicks": 192,
          "midi": 81,
          "name": "A5",
          "ticks": 40512,
          "time": 33.294255,
          "velocity": 0.968503937007874
        },
        {
          "duration": 0.13888499999999482,
          "durationTicks": 192,
          "midi": 66,
          "name": "F#4",
          "ticks": 40704,
          "time": 33.43314,
          "velocity": 0.968503937007874
        },
        {
          "duration": 0.13888499999999482,
          "durationTicks": 192,
          "midi": 78,
          "name": "F#5",
          "ticks": 40704,
          "time": 33.43314,
          "velocity": 0.968503937007874
        },
        {
          "duration": 0.13888500000000192,
          "durationTicks": 192,
          "midi": 63,
          "name": "D#4",
          "ticks": 40896,
          "time": 33.572025,
          "velocity": 0.968503937007874
        },
        {
          "duration": 0.13888500000000192,
          "durationTicks": 192,
          "midi": 75,
          "name": "D#5",
          "ticks": 40896,
          "time": 33.572025,
          "velocity": 0.968503937007874
        },
        {
          "duration": 0.13888500000000192,
          "durationTicks": 192,
          "midi": 63,
          "name": "D#4",
          "ticks": 41088,
          "time": 33.71091,
          "velocity": 0.968503937007874
        },
        {
          "duration": 0.13888500000000192,
          "durationTicks": 192,
          "midi": 75,
          "name": "D#5",
          "ticks": 41088,
          "time": 33.71091,
          "velocity": 0.968503937007874
        },
        {
          "duration": 0.13888500000000192,
          "durationTicks": 192,
          "midi": 63,
          "name": "D#4",
          "ticks": 41280,
          "time": 33.849795,
          "velocity": 0.968503937007874
        },
        {
          "duration": 0.13888500000000192,
          "durationTicks": 192,
          "midi": 75,
          "name": "D#5",
          "ticks": 41280,
          "time": 33.849795,
          "velocity": 0.968503937007874
        },
        {
          "duration": 0.13888499999999482,
          "durationTicks": 192,
          "midi": 60,
          "name": "C4",
          "ticks": 41472,
          "time": 33.98868,
          "velocity": 0.968503937007874
        },
        {
          "duration": 0.13888499999999482,
          "durationTicks": 192,
          "midi": 72,
          "name": "C5",
          "ticks": 41472,
          "time": 33.98868,
          "velocity": 0.968503937007874
        },
        {
          "duration": 0.13888500000000192,
          "durationTicks": 192,
          "midi": 57,
          "name": "A3",
          "ticks": 41664,
          "time": 34.127565,
          "velocity": 0.968503937007874
        },
        {
          "duration": 0.13888500000000192,
          "durationTicks": 192,
          "midi": 69,
          "name": "A4",
          "ticks": 41664,
          "time": 34.127565,
          "velocity": 0.968503937007874
        },
        {
          "duration": 0.13888500000000192,
          "durationTicks": 192,
          "midi": 57,
          "name": "A3",
          "ticks": 41664,
          "time": 34.127565,
          "velocity": 0.968503937007874
        },
        {
          "duration": 0.13888500000000192,
          "durationTicks": 192,
          "midi": 69,
          "name": "A4",
          "ticks": 41664,
          "time": 34.127565,
          "velocity": 0.968503937007874
        },
        {
          "duration": 0.13888500000000192,
          "durationTicks": 192,
          "midi": 57,
          "name": "A3",
          "ticks": 41856,
          "time": 34.26645,
          "velocity": 0.968503937007874
        },
        {
          "duration": 0.13888500000000192,
          "durationTicks": 192,
          "midi": 69,
          "name": "A4",
          "ticks": 41856,
          "time": 34.26645,
          "velocity": 0.968503937007874
        },
        {
          "duration": 0.13888500000000192,
          "durationTicks": 192,
          "midi": 57,
          "name": "A3",
          "ticks": 41856,
          "time": 34.26645,
          "velocity": 0.968503937007874
        },
        {
          "duration": 0.13888500000000192,
          "durationTicks": 192,
          "midi": 69,
          "name": "A4",
          "ticks": 41856,
          "time": 34.26645,
          "velocity": 0.968503937007874
        },
        {
          "duration": 0.13888499999999482,
          "durationTicks": 192,
          "midi": 57,
          "name": "A3",
          "ticks": 42048,
          "time": 34.405335,
          "velocity": 0.968503937007874
        },
        {
          "duration": 0.13888499999999482,
          "durationTicks": 192,
          "midi": 69,
          "name": "A4",
          "ticks": 42048,
          "time": 34.405335,
          "velocity": 0.968503937007874
        },
        {
          "duration": 0.13888499999999482,
          "durationTicks": 192,
          "midi": 57,
          "name": "A3",
          "ticks": 42048,
          "time": 34.405335,
          "velocity": 0.968503937007874
        },
        {
          "duration": 0.13888499999999482,
          "durationTicks": 192,
          "midi": 69,
          "name": "A4",
          "ticks": 42048,
          "time": 34.405335,
          "velocity": 0.968503937007874
        },
        {
          "duration": 0.27777000000000385,
          "durationTicks": 384,
          "midi": 57,
          "name": "A3",
          "ticks": 42240,
          "time": 34.544219999999996,
          "velocity": 0.968503937007874
        },
        {
          "duration": 0.27777000000000385,
          "durationTicks": 384,
          "midi": 69,
          "name": "A4",
          "ticks": 42240,
          "time": 34.544219999999996,
          "velocity": 0.968503937007874
        },
        {
          "duration": 0.27777000000000385,
          "durationTicks": 384,
          "midi": 57,
          "name": "A3",
          "ticks": 42240,
          "time": 34.544219999999996,
          "velocity": 0.968503937007874
        },
        {
          "duration": 0.27777000000000385,
          "durationTicks": 384,
          "midi": 69,
          "name": "A4",
          "ticks": 42240,
          "time": 34.544219999999996,
          "velocity": 0.968503937007874
        },
        {
          "duration": 0.27777000000000385,
          "durationTicks": 384,
          "midi": 58,
          "name": "A#3",
          "ticks": 43776,
          "time": 35.6553,
          "velocity": 0.968503937007874
        },
        {
          "duration": 0.27777000000000385,
          "durationTicks": 384,
          "midi": 65,
          "name": "F4",
          "ticks": 43776,
          "time": 35.6553,
          "velocity": 0.968503937007874
        },
        {
          "duration": 0.27777000000000385,
          "durationTicks": 384,
          "midi": 70,
          "name": "A#4",
          "ticks": 43776,
          "time": 35.6553,
          "velocity": 0.968503937007874
        },
        {
          "duration": 0.27777000000000385,
          "durationTicks": 384,
          "midi": 58,
          "name": "A#3",
          "ticks": 43776,
          "time": 35.6553,
          "velocity": 0.968503937007874
        },
        {
          "duration": 0.27777000000000385,
          "durationTicks": 384,
          "midi": 65,
          "name": "F4",
          "ticks": 43776,
          "time": 35.6553,
          "velocity": 0.968503937007874
        },
        {
          "duration": 0.27777000000000385,
          "durationTicks": 384,
          "midi": 70,
          "name": "A#4",
          "ticks": 43776,
          "time": 35.6553,
          "velocity": 0.968503937007874
        },
        {
          "duration": 0.5769200000000012,
          "durationTicks": 768,
          "midi": 67,
          "name": "G4",
          "ticks": 47616,
          "time": 38.518519999999995,
          "velocity": 0.7165354330708661
        },
        {
          "duration": 0.2884600000000006,
          "durationTicks": 384,
          "midi": 70,
          "name": "A#4",
          "ticks": 47616,
          "time": 38.518519999999995,
          "velocity": 0.7165354330708661
        },
        {
          "duration": 0.2884600000000006,
          "durationTicks": 384,
          "midi": 75,
          "name": "D#5",
          "ticks": 48000,
          "time": 38.806979999999996,
          "velocity": 0.7165354330708661
        },
        {
          "duration": 0.5769200000000012,
          "durationTicks": 768,
          "midi": 68,
          "name": "G#4",
          "ticks": 48384,
          "time": 39.095439999999996,
          "velocity": 0.7165354330708661
        },
        {
          "duration": 0.2884600000000006,
          "durationTicks": 384,
          "midi": 74,
          "name": "D5",
          "ticks": 48384,
          "time": 39.095439999999996,
          "velocity": 0.7165354330708661
        },
        {
          "duration": 0.2884600000000006,
          "durationTicks": 384,
          "midi": 75,
          "name": "D#5",
          "ticks": 48768,
          "time": 39.3839,
          "velocity": 0.7165354330708661
        },
        {
          "duration": 0.5769200000000012,
          "durationTicks": 768,
          "midi": 68,
          "name": "G#4",
          "ticks": 49152,
          "time": 39.67236,
          "velocity": 0.7165354330708661
        },
        {
          "duration": 0.2884600000000006,
          "durationTicks": 384,
          "midi": 77,
          "name": "F5",
          "ticks": 49152,
          "time": 39.67236,
          "velocity": 0.7165354330708661
        },
        {
          "duration": 0.2884600000000006,
          "durationTicks": 384,
          "midi": 72,
          "name": "C5",
          "ticks": 49536,
          "time": 39.96082,
          "velocity": 0.7165354330708661
        },
        {
          "duration": 0.5769200000000012,
          "durationTicks": 768,
          "midi": 67,
          "name": "G4",
          "ticks": 49920,
          "time": 40.24928,
          "velocity": 0.7165354330708661
        },
        {
          "duration": 0.2884600000000006,
          "durationTicks": 384,
          "midi": 72,
          "name": "C5",
          "ticks": 49920,
          "time": 40.24928,
          "velocity": 0.7165354330708661
        },
        {
          "duration": 0.2884600000000006,
          "durationTicks": 384,
          "midi": 70,
          "name": "A#4",
          "ticks": 50304,
          "time": 40.53774,
          "velocity": 0.7165354330708661
        },
        {
          "duration": 0.5769200000000012,
          "durationTicks": 768,
          "midi": 67,
          "name": "G4",
          "ticks": 50688,
          "time": 40.8262,
          "velocity": 0.7165354330708661
        },
        {
          "duration": 0.5660200000000017,
          "durationTicks": 768,
          "midi": 68,
          "name": "G#4",
          "ticks": 51456,
          "time": 41.40312,
          "velocity": 0.7165354330708661
        },
        {
          "duration": 0.5660200000000017,
          "durationTicks": 768,
          "midi": 68,
          "name": "G#4",
          "ticks": 52224,
          "time": 41.96914,
          "velocity": 0.7165354330708661
        },
        {
          "duration": 0.5660199999999946,
          "durationTicks": 768,
          "midi": 67,
          "name": "G4",
          "ticks": 52992,
          "time": 42.535160000000005,
          "velocity": 0.7165354330708661
        },
        {
          "duration": 0.5660200000000017,
          "durationTicks": 768,
          "midi": 67,
          "name": "G4",
          "ticks": 53760,
          "time": 43.10118,
          "velocity": 0.7165354330708661
        },
        {
          "duration": 0.2830100000000044,
          "durationTicks": 384,
          "midi": 70,
          "name": "A#4",
          "ticks": 53760,
          "time": 43.10118,
          "velocity": 0.7165354330708661
        },
        {
          "duration": 0.2830099999999973,
          "durationTicks": 384,
          "midi": 75,
          "name": "D#5",
          "ticks": 54144,
          "time": 43.384190000000004,
          "velocity": 0.7165354330708661
        },
        {
          "duration": 0.5555400000000006,
          "durationTicks": 768,
          "midi": 68,
          "name": "G#4",
          "ticks": 54528,
          "time": 43.6672,
          "velocity": 0.7165354330708661
        },
        {
          "duration": 0.27776999999999674,
          "durationTicks": 384,
          "midi": 74,
          "name": "D5",
          "ticks": 54528,
          "time": 43.6672,
          "velocity": 0.7165354330708661
        },
        {
          "duration": 0.27777000000000385,
          "durationTicks": 384,
          "midi": 75,
          "name": "D#5",
          "ticks": 54912,
          "time": 43.94497,
          "velocity": 0.7165354330708661
        },
        {
          "duration": 0.5555400000000006,
          "durationTicks": 768,
          "midi": 68,
          "name": "G#4",
          "ticks": 55296,
          "time": 44.22274,
          "velocity": 0.7165354330708661
        },
        {
          "duration": 0.27776999999999674,
          "durationTicks": 384,
          "midi": 77,
          "name": "F5",
          "ticks": 55296,
          "time": 44.22274,
          "velocity": 0.7165354330708661
        },
        {
          "duration": 0.27777000000000385,
          "durationTicks": 384,
          "midi": 72,
          "name": "C5",
          "ticks": 55680,
          "time": 44.50051,
          "velocity": 0.7165354330708661
        },
        {
          "duration": 0.5555400000000006,
          "durationTicks": 768,
          "midi": 67,
          "name": "G4",
          "ticks": 56064,
          "time": 44.77828,
          "velocity": 0.7165354330708661
        },
        {
          "duration": 0.27776999999999674,
          "durationTicks": 384,
          "midi": 72,
          "name": "C5",
          "ticks": 56064,
          "time": 44.77828,
          "velocity": 0.7165354330708661
        },
        {
          "duration": 0.27777000000000385,
          "durationTicks": 384,
          "midi": 70,
          "name": "A#4",
          "ticks": 56448,
          "time": 45.05605,
          "velocity": 0.7165354330708661
        },
        {
          "duration": 1.1110800000000012,
          "durationTicks": 1536,
          "midi": 67,
          "name": "G4",
          "ticks": 56832,
          "time": 45.33382,
          "velocity": 0.7165354330708661
        },
        {
          "duration": 0.27776999999999674,
          "durationTicks": 384,
          "midi": 70,
          "name": "A#4",
          "ticks": 56832,
          "time": 45.33382,
          "velocity": 0.7165354330708661
        },
        {
          "duration": 0.27777000000000385,
          "durationTicks": 384,
          "midi": 72,
          "name": "C5",
          "ticks": 57216,
          "time": 45.61159,
          "velocity": 0.7165354330708661
        },
        {
          "duration": 0.27776999999999674,
          "durationTicks": 384,
          "midi": 73,
          "name": "C#5",
          "ticks": 57600,
          "time": 45.88936,
          "velocity": 0.7165354330708661
        },
        {
          "duration": 0.27777000000000385,
          "durationTicks": 384,
          "midi": 72,
          "name": "C5",
          "ticks": 57984,
          "time": 46.16713,
          "velocity": 0.7165354330708661
        },
        {
          "duration": 0.5555399999999935,
          "durationTicks": 768,
          "midi": 67,
          "name": "G4",
          "ticks": 58368,
          "time": 46.444900000000004,
          "velocity": 0.7165354330708661
        },
        {
          "duration": 0.27776999999999674,
          "durationTicks": 384,
          "midi": 70,
          "name": "A#4",
          "ticks": 58368,
          "time": 46.444900000000004,
          "velocity": 0.7165354330708661
        },
        {
          "duration": 0.27776999999999674,
          "durationTicks": 384,
          "midi": 72,
          "name": "C5",
          "ticks": 58752,
          "time": 46.72267,
          "velocity": 0.7165354330708661
        },
        {
          "duration": 0.5555400000000006,
          "durationTicks": 768,
          "midi": 65,
          "name": "F4",
          "ticks": 59136,
          "time": 47.00044,
          "velocity": 0.7165354330708661
        },
        {
          "duration": 0.27777000000000385,
          "durationTicks": 384,
          "midi": 70,
          "name": "A#4",
          "ticks": 59136,
          "time": 47.00044,
          "velocity": 0.7165354330708661
        },
        {
          "duration": 0.27776999999999674,
          "durationTicks": 384,
          "midi": 68,
          "name": "G#4",
          "ticks": 59520,
          "time": 47.27821,
          "velocity": 0.7165354330708661
        },
        {
          "duration": 0.5555400000000006,
          "durationTicks": 768,
          "midi": 68,
          "name": "G#4",
          "ticks": 59904,
          "time": 47.55598,
          "velocity": 0.7165354330708661
        },
        {
          "duration": 0.27777000000000385,
          "durationTicks": 384,
          "midi": 73,
          "name": "C#5",
          "ticks": 59904,
          "time": 47.55598,
          "velocity": 0.7165354330708661
        },
        {
          "duration": 0.27776999999999674,
          "durationTicks": 384,
          "midi": 75,
          "name": "D#5",
          "ticks": 60288,
          "time": 47.83375,
          "velocity": 0.7165354330708661
        },
        {
          "duration": 0.5555400000000006,
          "durationTicks": 768,
          "midi": 70,
          "name": "A#4",
          "ticks": 60672,
          "time": 48.11152,
          "velocity": 0.7165354330708661
        },
        {
          "duration": 0.27777000000000385,
          "durationTicks": 384,
          "midi": 77,
          "name": "F5",
          "ticks": 60672,
          "time": 48.11152,
          "velocity": 0.7165354330708661
        },
        {
          "duration": 0.27776999999999674,
          "durationTicks": 384,
          "midi": 75,
          "name": "D#5",
          "ticks": 61056,
          "time": 48.38929,
          "velocity": 0.7165354330708661
        },
        {
          "duration": 0.5555400000000006,
          "durationTicks": 768,
          "midi": 70,
          "name": "A#4",
          "ticks": 61440,
          "time": 48.66706,
          "velocity": 0.7165354330708661
        },
        {
          "duration": 0.27777000000000385,
          "durationTicks": 384,
          "midi": 73,
          "name": "C#5",
          "ticks": 61440,
          "time": 48.66706,
          "velocity": 0.7165354330708661
        },
        {
          "duration": 0.27776999999999674,
          "durationTicks": 384,
          "midi": 75,
          "name": "D#5",
          "ticks": 61824,
          "time": 48.94483,
          "velocity": 0.7165354330708661
        },
        {
          "duration": 0.5555400000000006,
          "durationTicks": 768,
          "midi": 68,
          "name": "G#4",
          "ticks": 62208,
          "time": 49.2226,
          "velocity": 0.7165354330708661
        },
        {
          "duration": 0.27777000000000385,
          "durationTicks": 384,
          "midi": 73,
          "name": "C#5",
          "ticks": 62208,
          "time": 49.2226,
          "velocity": 0.7165354330708661
        },
        {
          "duration": 0.27776999999999674,
          "durationTicks": 384,
          "midi": 72,
          "name": "C5",
          "ticks": 62592,
          "time": 49.500370000000004,
          "velocity": 0.7165354330708661
        },
        {
          "duration": 0.27777000000000385,
          "durationTicks": 384,
          "midi": 63,
          "name": "D#4",
          "ticks": 62976,
          "time": 49.77814,
          "velocity": 0.7165354330708661
        },
        {
          "duration": 0.27777000000000385,
          "durationTicks": 384,
          "midi": 75,
          "name": "D#5",
          "ticks": 62976,
          "time": 49.77814,
          "velocity": 0.7165354330708661
        },
        {
          "duration": 0.27776999999999674,
          "durationTicks": 384,
          "midi": 65,
          "name": "F4",
          "ticks": 63360,
          "time": 50.055910000000004,
          "velocity": 0.7165354330708661
        },
        {
          "duration": 0.27776999999999674,
          "durationTicks": 384,
          "midi": 77,
          "name": "F5",
          "ticks": 63360,
          "time": 50.055910000000004,
          "velocity": 0.7165354330708661
        },
        {
          "duration": 0.27777000000000385,
          "durationTicks": 384,
          "midi": 66,
          "name": "F#4",
          "ticks": 63744,
          "time": 50.33368,
          "velocity": 0.7165354330708661
        },
        {
          "duration": 0.27777000000000385,
          "durationTicks": 384,
          "midi": 78,
          "name": "F#5",
          "ticks": 63744,
          "time": 50.33368,
          "velocity": 0.7165354330708661
        },
        {
          "duration": 0.27776999999999674,
          "durationTicks": 384,
          "midi": 65,
          "name": "F4",
          "ticks": 64128,
          "time": 50.611450000000005,
          "velocity": 0.7165354330708661
        },
        {
          "duration": 0.27776999999999674,
          "durationTicks": 384,
          "midi": 77,
          "name": "F5",
          "ticks": 64128,
          "time": 50.611450000000005,
          "velocity": 0.7165354330708661
        },
        {
          "duration": 0.27776999999999674,
          "durationTicks": 384,
          "midi": 63,
          "name": "D#4",
          "ticks": 64512,
          "time": 50.88922,
          "velocity": 0.7165354330708661
        },
        {
          "duration": 0.27776999999999674,
          "durationTicks": 384,
          "midi": 75,
          "name": "D#5",
          "ticks": 64512,
          "time": 50.88922,
          "velocity": 0.7165354330708661
        },
        {
          "duration": 0.27777000000000385,
          "durationTicks": 384,
          "midi": 65,
          "name": "F4",
          "ticks": 64896,
          "time": 51.16699,
          "velocity": 0.7165354330708661
        },
        {
          "duration": 0.27777000000000385,
          "durationTicks": 384,
          "midi": 77,
          "name": "F5",
          "ticks": 64896,
          "time": 51.16699,
          "velocity": 0.7165354330708661
        },
        {
          "duration": 0.27776999999999674,
          "durationTicks": 384,
          "midi": 66,
          "name": "F#4",
          "ticks": 65280,
          "time": 51.44476,
          "velocity": 0.7165354330708661
        },
        {
          "duration": 0.27776999999999674,
          "durationTicks": 384,
          "midi": 78,
          "name": "F#5",
          "ticks": 65280,
          "time": 51.44476,
          "velocity": 0.7165354330708661
        },
        {
          "duration": 0.27777000000000385,
          "durationTicks": 384,
          "midi": 65,
          "name": "F4",
          "ticks": 65664,
          "time": 51.72253,
          "velocity": 0.7165354330708661
        },
        {
          "duration": 0.27777000000000385,
          "durationTicks": 384,
          "midi": 77,
          "name": "F5",
          "ticks": 65664,
          "time": 51.72253,
          "velocity": 0.7165354330708661
        },
        {
          "duration": 0.27776999999999674,
          "durationTicks": 384,
          "midi": 63,
          "name": "D#4",
          "ticks": 66048,
          "time": 52.0003,
          "velocity": 0.7165354330708661
        },
        {
          "duration": 0.27776999999999674,
          "durationTicks": 384,
          "midi": 75,
          "name": "D#5",
          "ticks": 66048,
          "time": 52.0003,
          "velocity": 0.7165354330708661
        },
        {
          "duration": 0.27777000000000385,
          "durationTicks": 384,
          "midi": 65,
          "name": "F4",
          "ticks": 66432,
          "time": 52.27807,
          "velocity": 0.7165354330708661
        },
        {
          "duration": 0.27777000000000385,
          "durationTicks": 384,
          "midi": 77,
          "name": "F5",
          "ticks": 66432,
          "time": 52.27807,
          "velocity": 0.7165354330708661
        },
        {
          "duration": 0.27776999999999674,
          "durationTicks": 384,
          "midi": 66,
          "name": "F#4",
          "ticks": 66816,
          "time": 52.55584,
          "velocity": 0.7952755905511811
        },
        {
          "duration": 0.27776999999999674,
          "durationTicks": 384,
          "midi": 78,
          "name": "F#5",
          "ticks": 66816,
          "time": 52.55584,
          "velocity": 0.7952755905511811
        },
        {
          "duration": 0.27777000000000385,
          "durationTicks": 384,
          "midi": 65,
          "name": "F4",
          "ticks": 67200,
          "time": 52.83361,
          "velocity": 0.7952755905511811
        },
        {
          "duration": 0.27777000000000385,
          "durationTicks": 384,
          "midi": 77,
          "name": "F5",
          "ticks": 67200,
          "time": 52.83361,
          "velocity": 0.7952755905511811
        },
        {
          "duration": 0.27776999999999674,
          "durationTicks": 384,
          "midi": 63,
          "name": "D#4",
          "ticks": 67584,
          "time": 53.111380000000004,
          "velocity": 0.7952755905511811
        },
        {
          "duration": 0.27776999999999674,
          "durationTicks": 384,
          "midi": 75,
          "name": "D#5",
          "ticks": 67584,
          "time": 53.111380000000004,
          "velocity": 0.7952755905511811
        },
        {
          "duration": 0.27777000000000385,
          "durationTicks": 384,
          "midi": 65,
          "name": "F4",
          "ticks": 67968,
          "time": 53.38915,
          "velocity": 0.7952755905511811
        },
        {
          "duration": 0.27777000000000385,
          "durationTicks": 384,
          "midi": 77,
          "name": "F5",
          "ticks": 67968,
          "time": 53.38915,
          "velocity": 0.7952755905511811
        },
        {
          "duration": 0.27776999999999674,
          "durationTicks": 384,
          "midi": 66,
          "name": "F#4",
          "ticks": 68352,
          "time": 53.666920000000005,
          "velocity": 0.8582677165354331
        },
        {
          "duration": 0.27776999999999674,
          "durationTicks": 384,
          "midi": 78,
          "name": "F#5",
          "ticks": 68352,
          "time": 53.666920000000005,
          "velocity": 0.8582677165354331
        },
        {
          "duration": 0.27776999999999674,
          "durationTicks": 384,
          "midi": 65,
          "name": "F4",
          "ticks": 68736,
          "time": 53.94469,
          "velocity": 0.8582677165354331
        },
        {
          "duration": 0.27776999999999674,
          "durationTicks": 384,
          "midi": 77,
          "name": "F5",
          "ticks": 68736,
          "time": 53.94469,
          "velocity": 0.8582677165354331
        },
        {
          "duration": 0.27777000000000385,
          "durationTicks": 384,
          "midi": 63,
          "name": "D#4",
          "ticks": 69120,
          "time": 54.22246,
          "velocity": 0.8582677165354331
        },
        {
          "duration": 0.27777000000000385,
          "durationTicks": 384,
          "midi": 75,
          "name": "D#5",
          "ticks": 69120,
          "time": 54.22246,
          "velocity": 0.8582677165354331
        },
        {
          "duration": 0.27777000000000385,
          "durationTicks": 384,
          "midi": 65,
          "name": "F4",
          "ticks": 69504,
          "time": 54.50023,
          "velocity": 0.8582677165354331
        },
        {
          "duration": 0.27777000000000385,
          "durationTicks": 384,
          "midi": 77,
          "name": "F5",
          "ticks": 69504,
          "time": 54.50023,
          "velocity": 0.8582677165354331
        },
        {
          "duration": 0.27776999999999674,
          "durationTicks": 384,
          "midi": 66,
          "name": "F#4",
          "ticks": 69888,
          "time": 54.778000000000006,
          "velocity": 0.905511811023622
        },
        {
          "duration": 0.27776999999999674,
          "durationTicks": 384,
          "midi": 78,
          "name": "F#5",
          "ticks": 69888,
          "time": 54.778000000000006,
          "velocity": 0.905511811023622
        },
        {
          "duration": 0.27776999999999674,
          "durationTicks": 384,
          "midi": 65,
          "name": "F4",
          "ticks": 70272,
          "time": 55.05577,
          "velocity": 0.905511811023622
        },
        {
          "duration": 0.27776999999999674,
          "durationTicks": 384,
          "midi": 77,
          "name": "F5",
          "ticks": 70272,
          "time": 55.05577,
          "velocity": 0.905511811023622
        },
        {
          "duration": 0.27777000000000385,
          "durationTicks": 384,
          "midi": 66,
          "name": "F#4",
          "ticks": 70656,
          "time": 55.33354,
          "velocity": 0.905511811023622
        },
        {
          "duration": 0.27777000000000385,
          "durationTicks": 384,
          "midi": 78,
          "name": "F#5",
          "ticks": 70656,
          "time": 55.33354,
          "velocity": 0.905511811023622
        },
        {
          "duration": 0.27776999999999674,
          "durationTicks": 384,
          "midi": 69,
          "name": "A4",
          "ticks": 71040,
          "time": 55.61131,
          "velocity": 0.905511811023622
        },
        {
          "duration": 0.27776999999999674,
          "durationTicks": 384,
          "midi": 81,
          "name": "A5",
          "ticks": 71040,
          "time": 55.61131,
          "velocity": 0.905511811023622
        },
        {
          "duration": 0.6944250000000025,
          "durationTicks": 960,
          "midi": 70,
          "name": "A#4",
          "ticks": 71424,
          "time": 55.88908,
          "velocity": 0.968503937007874
        },
        {
          "duration": 0.6944250000000025,
          "durationTicks": 960,
          "midi": 82,
          "name": "A#5",
          "ticks": 71424,
          "time": 55.88908,
          "velocity": 0.968503937007874
        },
        {
          "duration": 0.6944250000000025,
          "durationTicks": 960,
          "midi": 70,
          "name": "A#4",
          "ticks": 71424,
          "time": 55.88908,
          "velocity": 0.968503937007874
        },
        {
          "duration": 0.6944250000000025,
          "durationTicks": 960,
          "midi": 82,
          "name": "A#5",
          "ticks": 71424,
          "time": 55.88908,
          "velocity": 0.968503937007874
        },
        {
          "duration": 0.13888500000000192,
          "durationTicks": 192,
          "midi": 84,
          "name": "C6",
          "ticks": 72384,
          "time": 56.583505,
          "velocity": 0.968503937007874
        },
        {
          "duration": 0.13888500000000192,
          "durationTicks": 192,
          "midi": 84,
          "name": "C6",
          "ticks": 72384,
          "time": 56.583505,
          "velocity": 0.968503937007874
        },
        {
          "duration": 0.13888500000000192,
          "durationTicks": 192,
          "midi": 82,
          "name": "A#5",
          "ticks": 72576,
          "time": 56.722390000000004,
          "velocity": 0.968503937007874
        },
        {
          "duration": 0.13888500000000192,
          "durationTicks": 192,
          "midi": 82,
          "name": "A#5",
          "ticks": 72576,
          "time": 56.722390000000004,
          "velocity": 0.968503937007874
        },
        {
          "duration": 0.13888499999999482,
          "durationTicks": 192,
          "midi": 80,
          "name": "G#5",
          "ticks": 72768,
          "time": 56.861275000000006,
          "velocity": 0.968503937007874
        },
        {
          "duration": 0.13888499999999482,
          "durationTicks": 192,
          "midi": 80,
          "name": "G#5",
          "ticks": 72768,
          "time": 56.861275000000006,
          "velocity": 0.968503937007874
        },
        {
          "duration": 0.13888500000000192,
          "durationTicks": 192,
          "midi": 80,
          "name": "G#5",
          "ticks": 72960,
          "time": 57.00016,
          "velocity": 0.968503937007874
        },
        {
          "duration": 0.13888500000000192,
          "durationTicks": 192,
          "midi": 80,
          "name": "G#5",
          "ticks": 72960,
          "time": 57.00016,
          "velocity": 0.968503937007874
        },
        {
          "duration": 0.13888499999999482,
          "durationTicks": 192,
          "midi": 79,
          "name": "G5",
          "ticks": 73152,
          "time": 57.139045,
          "velocity": 0.968503937007874
        },
        {
          "duration": 0.13888499999999482,
          "durationTicks": 192,
          "midi": 79,
          "name": "G5",
          "ticks": 73152,
          "time": 57.139045,
          "velocity": 0.968503937007874
        },
        {
          "duration": 0.13888500000000192,
          "durationTicks": 192,
          "midi": 77,
          "name": "F5",
          "ticks": 73344,
          "time": 57.27793,
          "velocity": 0.968503937007874
        },
        {
          "duration": 0.13888500000000192,
          "durationTicks": 192,
          "midi": 77,
          "name": "F5",
          "ticks": 73344,
          "time": 57.27793,
          "velocity": 0.968503937007874
        },
        {
          "duration": 0.13888500000000192,
          "durationTicks": 192,
          "midi": 75,
          "name": "D#5",
          "ticks": 73536,
          "time": 57.416815,
          "velocity": 0.968503937007874
        },
        {
          "duration": 0.13888500000000192,
          "durationTicks": 192,
          "midi": 75,
          "name": "D#5",
          "ticks": 73536,
          "time": 57.416815,
          "velocity": 0.968503937007874
        },
        {
          "duration": 0.13888500000000192,
          "durationTicks": 192,
          "midi": 75,
          "name": "D#5",
          "ticks": 73728,
          "time": 57.5557,
          "velocity": 0.968503937007874
        },
        {
          "duration": 0.13888500000000192,
          "durationTicks": 192,
          "midi": 75,
          "name": "D#5",
          "ticks": 73728,
          "time": 57.5557,
          "velocity": 0.968503937007874
        },
        {
          "duration": 0.13888500000000192,
          "durationTicks": 192,
          "midi": 74,
          "name": "D5",
          "ticks": 73920,
          "time": 57.694585000000004,
          "velocity": 0.968503937007874
        },
        {
          "duration": 0.13888500000000192,
          "durationTicks": 192,
          "midi": 74,
          "name": "D5",
          "ticks": 73920,
          "time": 57.694585000000004,
          "velocity": 0.968503937007874
        },
        {
          "duration": 0.13888499999999482,
          "durationTicks": 192,
          "midi": 72,
          "name": "C5",
          "ticks": 74112,
          "time": 57.833470000000005,
          "velocity": 0.968503937007874
        },
        {
          "duration": 0.13888499999999482,
          "durationTicks": 192,
          "midi": 72,
          "name": "C5",
          "ticks": 74112,
          "time": 57.833470000000005,
          "velocity": 0.968503937007874
        },
        {
          "duration": 0.13888500000000192,
          "durationTicks": 192,
          "midi": 74,
          "name": "D5",
          "ticks": 74304,
          "time": 57.972355,
          "velocity": 0.968503937007874
        },
        {
          "duration": 0.13888500000000192,
          "durationTicks": 192,
          "midi": 74,
          "name": "D5",
          "ticks": 74304,
          "time": 57.972355,
          "velocity": 0.968503937007874
        },
        {
          "duration": 0.13888500000000192,
          "durationTicks": 192,
          "midi": 77,
          "name": "F5",
          "ticks": 74496,
          "time": 58.11124,
          "velocity": 0.968503937007874
        },
        {
          "duration": 0.13888500000000192,
          "durationTicks": 192,
          "midi": 77,
          "name": "F5",
          "ticks": 74496,
          "time": 58.11124,
          "velocity": 0.968503937007874
        },
        {
          "duration": 0.13888499999999482,
          "durationTicks": 192,
          "midi": 75,
          "name": "D#5",
          "ticks": 74688,
          "time": 58.250125000000004,
          "velocity": 0.968503937007874
        },
        {
          "duration": 0.13888499999999482,
          "durationTicks": 192,
          "midi": 75,
          "name": "D#5",
          "ticks": 74688,
          "time": 58.250125000000004,
          "velocity": 0.968503937007874
        },
        {
          "duration": 0.13888500000000192,
          "durationTicks": 192,
          "midi": 70,
          "name": "A#4",
          "ticks": 74880,
          "time": 58.38901,
          "velocity": 0.968503937007874
        },
        {
          "duration": 0.13888500000000192,
          "durationTicks": 192,
          "midi": 70,
          "name": "A#4",
          "ticks": 74880,
          "time": 58.38901,
          "velocity": 0.968503937007874
        },
        {
          "duration": 0.13888500000000192,
          "durationTicks": 192,
          "midi": 67,
          "name": "G4",
          "ticks": 75072,
          "time": 58.527895,
          "velocity": 0.968503937007874
        },
        {
          "duration": 0.13888500000000192,
          "durationTicks": 192,
          "midi": 67,
          "name": "G4",
          "ticks": 75072,
          "time": 58.527895,
          "velocity": 0.968503937007874
        },
        {
          "duration": 0.13888500000000192,
          "durationTicks": 192,
          "midi": 74,
          "name": "D5",
          "ticks": 75264,
          "time": 58.66678,
          "velocity": 0.968503937007874
        },
        {
          "duration": 0.13888500000000192,
          "durationTicks": 192,
          "midi": 74,
          "name": "D5",
          "ticks": 75264,
          "time": 58.66678,
          "velocity": 0.968503937007874
        },
        {
          "duration": 0.13888499999999482,
          "durationTicks": 192,
          "midi": 72,
          "name": "C5",
          "ticks": 75456,
          "time": 58.805665000000005,
          "velocity": 0.968503937007874
        },
        {
          "duration": 0.13888499999999482,
          "durationTicks": 192,
          "midi": 72,
          "name": "C5",
          "ticks": 75456,
          "time": 58.805665000000005,
          "velocity": 0.968503937007874
        },
        {
          "duration": 0.13888500000000192,
          "durationTicks": 192,
          "midi": 68,
          "name": "G#4",
          "ticks": 75648,
          "time": 58.94455,
          "velocity": 0.968503937007874
        },
        {
          "duration": 0.13888500000000192,
          "durationTicks": 192,
          "midi": 68,
          "name": "G#4",
          "ticks": 75648,
          "time": 58.94455,
          "velocity": 0.968503937007874
        },
        {
          "duration": 0.13888500000000192,
          "durationTicks": 192,
          "midi": 65,
          "name": "F4",
          "ticks": 75840,
          "time": 59.083435,
          "velocity": 0.968503937007874
        },
        {
          "duration": 0.13888500000000192,
          "durationTicks": 192,
          "midi": 65,
          "name": "F4",
          "ticks": 75840,
          "time": 59.083435,
          "velocity": 0.968503937007874
        },
        {
          "duration": 0.13888499999999482,
          "durationTicks": 192,
          "midi": 72,
          "name": "C5",
          "ticks": 76032,
          "time": 59.22232,
          "velocity": 0.968503937007874
        },
        {
          "duration": 0.13888499999999482,
          "durationTicks": 192,
          "midi": 72,
          "name": "C5",
          "ticks": 76032,
          "time": 59.22232,
          "velocity": 0.968503937007874
        },
        {
          "duration": 0.13888500000000192,
          "durationTicks": 192,
          "midi": 70,
          "name": "A#4",
          "ticks": 76224,
          "time": 59.361205,
          "velocity": 0.968503937007874
        },
        {
          "duration": 0.13888500000000192,
          "durationTicks": 192,
          "midi": 70,
          "name": "A#4",
          "ticks": 76224,
          "time": 59.361205,
          "velocity": 0.968503937007874
        },
        {
          "duration": 0.13888500000000192,
          "durationTicks": 192,
          "midi": 67,
          "name": "G4",
          "ticks": 76416,
          "time": 59.50009,
          "velocity": 0.968503937007874
        },
        {
          "duration": 0.13888500000000192,
          "durationTicks": 192,
          "midi": 67,
          "name": "G4",
          "ticks": 76416,
          "time": 59.50009,
          "velocity": 0.968503937007874
        },
        {
          "duration": 0.13888500000000192,
          "durationTicks": 192,
          "midi": 63,
          "name": "D#4",
          "ticks": 76608,
          "time": 59.638975,
          "velocity": 0.968503937007874
        },
        {
          "duration": 0.13888500000000192,
          "durationTicks": 192,
          "midi": 63,
          "name": "D#4",
          "ticks": 76608,
          "time": 59.638975,
          "velocity": 0.968503937007874
        },
        {
          "duration": 0.13888500000000192,
          "durationTicks": 192,
          "midi": 58,
          "name": "A#3",
          "ticks": 76800,
          "time": 59.777860000000004,
          "velocity": 0.968503937007874
        },
        {
          "duration": 0.13888500000000192,
          "durationTicks": 192,
          "midi": 58,
          "name": "A#3",
          "ticks": 76800,
          "time": 59.777860000000004,
          "velocity": 0.968503937007874
        },
        {
          "duration": 0.13888499999999482,
          "durationTicks": 192,
          "midi": 69,
          "name": "A4",
          "ticks": 76992,
          "time": 59.916745000000006,
          "velocity": 0.968503937007874
        },
        {
          "duration": 0.13888499999999482,
          "durationTicks": 192,
          "midi": 81,
          "name": "A5",
          "ticks": 76992,
          "time": 59.916745000000006,
          "velocity": 0.968503937007874
        },
        {
          "duration": 0.13888500000000192,
          "durationTicks": 192,
          "midi": 70,
          "name": "A#4",
          "ticks": 77184,
          "time": 60.05563,
          "velocity": 0.968503937007874
        },
        {
          "duration": 0.13888500000000192,
          "durationTicks": 192,
          "midi": 82,
          "name": "A#5",
          "ticks": 77184,
          "time": 60.05563,
          "velocity": 0.968503937007874
        },
        {
          "duration": 0.13888499999999482,
          "durationTicks": 192,
          "midi": 69,
          "name": "A4",
          "ticks": 77376,
          "time": 60.194515,
          "velocity": 0.968503937007874
        },
        {
          "duration": 0.13888499999999482,
          "durationTicks": 192,
          "midi": 81,
          "name": "A5",
          "ticks": 77376,
          "time": 60.194515,
          "velocity": 0.968503937007874
        },
        {
          "duration": 0.13888500000000192,
          "durationTicks": 192,
          "midi": 70,
          "name": "A#4",
          "ticks": 77568,
          "time": 60.3334,
          "velocity": 0.968503937007874
        },
        {
          "duration": 0.13888500000000192,
          "durationTicks": 192,
          "midi": 82,
          "name": "A#5",
          "ticks": 77568,
          "time": 60.3334,
          "velocity": 0.968503937007874
        },
        {
          "duration": 0.13888500000000192,
          "durationTicks": 192,
          "midi": 69,
          "name": "A4",
          "ticks": 77760,
          "time": 60.472285,
          "velocity": 0.968503937007874
        },
        {
          "duration": 0.13888500000000192,
          "durationTicks": 192,
          "midi": 81,
          "name": "A5",
          "ticks": 77760,
          "time": 60.472285,
          "velocity": 0.968503937007874
        },
        {
          "duration": 0.13888500000000192,
          "durationTicks": 192,
          "midi": 70,
          "name": "A#4",
          "ticks": 77952,
          "time": 60.61117,
          "velocity": 0.968503937007874
        },
        {
          "duration": 0.13888500000000192,
          "durationTicks": 192,
          "midi": 82,
          "name": "A#5",
          "ticks": 77952,
          "time": 60.61117,
          "velocity": 0.968503937007874
        },
        {
          "duration": 0.13888500000000192,
          "durationTicks": 192,
          "midi": 69,
          "name": "A4",
          "ticks": 78144,
          "time": 60.750055,
          "velocity": 0.968503937007874
        },
        {
          "duration": 0.13888500000000192,
          "durationTicks": 192,
          "midi": 81,
          "name": "A5",
          "ticks": 78144,
          "time": 60.750055,
          "velocity": 0.968503937007874
        },
        {
          "duration": 0.13888500000000192,
          "durationTicks": 192,
          "midi": 70,
          "name": "A#4",
          "ticks": 78336,
          "time": 60.888940000000005,
          "velocity": 0.968503937007874
        },
        {
          "duration": 0.13888500000000192,
          "durationTicks": 192,
          "midi": 82,
          "name": "A#5",
          "ticks": 78336,
          "time": 60.888940000000005,
          "velocity": 0.968503937007874
        },
        {
          "duration": 0.13888499999999482,
          "durationTicks": 192,
          "midi": 84,
          "name": "C6",
          "ticks": 78528,
          "time": 61.02782500000001,
          "velocity": 0.968503937007874
        },
        {
          "duration": 0.13888499999999482,
          "durationTicks": 192,
          "midi": 84,
          "name": "C6",
          "ticks": 78528,
          "time": 61.02782500000001,
          "velocity": 0.968503937007874
        },
        {
          "duration": 0.13888500000000192,
          "durationTicks": 192,
          "midi": 82,
          "name": "A#5",
          "ticks": 78720,
          "time": 61.16671,
          "velocity": 0.968503937007874
        },
        {
          "duration": 0.13888500000000192,
          "durationTicks": 192,
          "midi": 82,
          "name": "A#5",
          "ticks": 78720,
          "time": 61.16671,
          "velocity": 0.968503937007874
        },
        {
          "duration": 0.13888499999999482,
          "durationTicks": 192,
          "midi": 80,
          "name": "G#5",
          "ticks": 78912,
          "time": 61.305595000000004,
          "velocity": 0.968503937007874
        },
        {
          "duration": 0.13888499999999482,
          "durationTicks": 192,
          "midi": 80,
          "name": "G#5",
          "ticks": 78912,
          "time": 61.305595000000004,
          "velocity": 0.968503937007874
        },
        {
          "duration": 0.13888500000000192,
          "durationTicks": 192,
          "midi": 80,
          "name": "G#5",
          "ticks": 79104,
          "time": 61.44448,
          "velocity": 0.968503937007874
        },
        {
          "duration": 0.13888500000000192,
          "durationTicks": 192,
          "midi": 80,
          "name": "G#5",
          "ticks": 79104,
          "time": 61.44448,
          "velocity": 0.968503937007874
        },
        {
          "duration": 0.13888500000000192,
          "durationTicks": 192,
          "midi": 79,
          "name": "G5",
          "ticks": 79296,
          "time": 61.583365,
          "velocity": 0.968503937007874
        },
        {
          "duration": 0.13888500000000192,
          "durationTicks": 192,
          "midi": 79,
          "name": "G5",
          "ticks": 79296,
          "time": 61.583365,
          "velocity": 0.968503937007874
        },
        {
          "duration": 0.13888500000000192,
          "durationTicks": 192,
          "midi": 77,
          "name": "F5",
          "ticks": 79488,
          "time": 61.72225,
          "velocity": 0.968503937007874
        },
        {
          "duration": 0.13888500000000192,
          "durationTicks": 192,
          "midi": 77,
          "name": "F5",
          "ticks": 79488,
          "time": 61.72225,
          "velocity": 0.968503937007874
        },
        {
          "duration": 0.13888500000000192,
          "durationTicks": 192,
          "midi": 75,
          "name": "D#5",
          "ticks": 79680,
          "time": 61.861135000000004,
          "velocity": 0.968503937007874
        },
        {
          "duration": 0.13888500000000192,
          "durationTicks": 192,
          "midi": 75,
          "name": "D#5",
          "ticks": 79680,
          "time": 61.861135000000004,
          "velocity": 0.968503937007874
        },
        {
          "duration": 0.13888499999999482,
          "durationTicks": 192,
          "midi": 75,
          "name": "D#5",
          "ticks": 79872,
          "time": 62.000020000000006,
          "velocity": 0.968503937007874
        },
        {
          "duration": 0.13888499999999482,
          "durationTicks": 192,
          "midi": 75,
          "name": "D#5",
          "ticks": 79872,
          "time": 62.000020000000006,
          "velocity": 0.968503937007874
        },
        {
          "duration": 0.13888500000000192,
          "durationTicks": 192,
          "midi": 74,
          "name": "D5",
          "ticks": 80064,
          "time": 62.138905,
          "velocity": 0.968503937007874
        },
        {
          "duration": 0.13888500000000192,
          "durationTicks": 192,
          "midi": 74,
          "name": "D5",
          "ticks": 80064,
          "time": 62.138905,
          "velocity": 0.968503937007874
        },
        {
          "duration": 0.13888499999999482,
          "durationTicks": 192,
          "midi": 72,
          "name": "C5",
          "ticks": 80256,
          "time": 62.27779,
          "velocity": 0.968503937007874
        },
        {
          "duration": 0.13888499999999482,
          "durationTicks": 192,
          "midi": 72,
          "name": "C5",
          "ticks": 80256,
          "time": 62.27779,
          "velocity": 0.968503937007874
        },
        {
          "duration": 0.13888500000000192,
          "durationTicks": 192,
          "midi": 74,
          "name": "D5",
          "ticks": 80448,
          "time": 62.416675,
          "velocity": 0.968503937007874
        },
        {
          "duration": 0.13888500000000192,
          "durationTicks": 192,
          "midi": 74,
          "name": "D5",
          "ticks": 80448,
          "time": 62.416675,
          "velocity": 0.968503937007874
        },
        {
          "duration": 0.13888500000000192,
          "durationTicks": 192,
          "midi": 77,
          "name": "F5",
          "ticks": 80640,
          "time": 62.55556,
          "velocity": 0.968503937007874
        },
        {
          "duration": 0.13888500000000192,
          "durationTicks": 192,
          "midi": 77,
          "name": "F5",
          "ticks": 80640,
          "time": 62.55556,
          "velocity": 0.968503937007874
        },
        {
          "duration": 0.13888500000000192,
          "durationTicks": 192,
          "midi": 75,
          "name": "D#5",
          "ticks": 80832,
          "time": 62.694445,
          "velocity": 0.968503937007874
        },
        {
          "duration": 0.13888500000000192,
          "durationTicks": 192,
          "midi": 75,
          "name": "D#5",
          "ticks": 80832,
          "time": 62.694445,
          "velocity": 0.968503937007874
        },
        {
          "duration": 0.13888500000000192,
          "durationTicks": 192,
          "midi": 70,
          "name": "A#4",
          "ticks": 81024,
          "time": 62.833330000000004,
          "velocity": 0.968503937007874
        },
        {
          "duration": 0.13888500000000192,
          "durationTicks": 192,
          "midi": 70,
          "name": "A#4",
          "ticks": 81024,
          "time": 62.833330000000004,
          "velocity": 0.968503937007874
        },
        {
          "duration": 0.13888500000000192,
          "durationTicks": 192,
          "midi": 67,
          "name": "G4",
          "ticks": 81216,
          "time": 62.972215000000006,
          "velocity": 0.968503937007874
        },
        {
          "duration": 0.13888500000000192,
          "durationTicks": 192,
          "midi": 67,
          "name": "G4",
          "ticks": 81216,
          "time": 62.972215000000006,
          "velocity": 0.968503937007874
        },
        {
          "duration": 0.13888499999999482,
          "durationTicks": 192,
          "midi": 74,
          "name": "D5",
          "ticks": 81408,
          "time": 63.11110000000001,
          "velocity": 0.968503937007874
        },
        {
          "duration": 0.13888499999999482,
          "durationTicks": 192,
          "midi": 74,
          "name": "D5",
          "ticks": 81408,
          "time": 63.11110000000001,
          "velocity": 0.968503937007874
        },
        {
          "duration": 0.13888499999999482,
          "durationTicks": 192,
          "midi": 72,
          "name": "C5",
          "ticks": 81600,
          "time": 63.249985,
          "velocity": 0.968503937007874
        },
        {
          "duration": 0.13888499999999482,
          "durationTicks": 192,
          "midi": 72,
          "name": "C5",
          "ticks": 81600,
          "time": 63.249985,
          "velocity": 0.968503937007874
        },
        {
          "duration": 0.13888500000000192,
          "durationTicks": 192,
          "midi": 68,
          "name": "G#4",
          "ticks": 81792,
          "time": 63.38887,
          "velocity": 0.968503937007874
        },
        {
          "duration": 0.13888500000000192,
          "durationTicks": 192,
          "midi": 68,
          "name": "G#4",
          "ticks": 81792,
          "time": 63.38887,
          "velocity": 0.968503937007874
        },
        {
          "duration": 0.13888500000000192,
          "durationTicks": 192,
          "midi": 65,
          "name": "F4",
          "ticks": 81984,
          "time": 63.527755,
          "velocity": 0.968503937007874
        },
        {
          "duration": 0.13888500000000192,
          "durationTicks": 192,
          "midi": 65,
          "name": "F4",
          "ticks": 81984,
          "time": 63.527755,
          "velocity": 0.968503937007874
        },
        {
          "duration": 0.13888500000000192,
          "durationTicks": 192,
          "midi": 72,
          "name": "C5",
          "ticks": 82176,
          "time": 63.66664,
          "velocity": 0.968503937007874
        },
        {
          "duration": 0.13888500000000192,
          "durationTicks": 192,
          "midi": 72,
          "name": "C5",
          "ticks": 82176,
          "time": 63.66664,
          "velocity": 0.968503937007874
        },
        {
          "duration": 0.13888500000000192,
          "durationTicks": 192,
          "midi": 70,
          "name": "A#4",
          "ticks": 82368,
          "time": 63.805525,
          "velocity": 0.968503937007874
        },
        {
          "duration": 0.13888500000000192,
          "durationTicks": 192,
          "midi": 70,
          "name": "A#4",
          "ticks": 82368,
          "time": 63.805525,
          "velocity": 0.968503937007874
        },
        {
          "duration": 0.13888500000000192,
          "durationTicks": 192,
          "midi": 67,
          "name": "G4",
          "ticks": 82560,
          "time": 63.944410000000005,
          "velocity": 0.968503937007874
        },
        {
          "duration": 0.13888500000000192,
          "durationTicks": 192,
          "midi": 67,
          "name": "G4",
          "ticks": 82560,
          "time": 63.944410000000005,
          "velocity": 0.968503937007874
        },
        {
          "duration": 0.13888500000000192,
          "durationTicks": 192,
          "midi": 63,
          "name": "D#4",
          "ticks": 82752,
          "time": 64.083295,
          "velocity": 0.968503937007874
        },
        {
          "duration": 0.13888500000000192,
          "durationTicks": 192,
          "midi": 63,
          "name": "D#4",
          "ticks": 82752,
          "time": 64.083295,
          "velocity": 0.968503937007874
        },
        {
          "duration": 0.1388849999999877,
          "durationTicks": 192,
          "midi": 58,
          "name": "A#3",
          "ticks": 82944,
          "time": 64.22218000000001,
          "velocity": 0.968503937007874
        },
        {
          "duration": 0.1388849999999877,
          "durationTicks": 192,
          "midi": 58,
          "name": "A#3",
          "ticks": 82944,
          "time": 64.22218000000001,
          "velocity": 0.968503937007874
        },
        {
          "duration": 0.13888500000000192,
          "durationTicks": 192,
          "midi": 70,
          "name": "A#4",
          "ticks": 83136,
          "time": 64.361065,
          "velocity": 0.968503937007874
        },
        {
          "duration": 0.13888500000000192,
          "durationTicks": 192,
          "midi": 70,
          "name": "A#4",
          "ticks": 83136,
          "time": 64.361065,
          "velocity": 0.968503937007874
        },
        {
          "duration": 0.13888500000000192,
          "durationTicks": 192,
          "midi": 82,
          "name": "A#5",
          "ticks": 83328,
          "time": 64.49995,
          "velocity": 0.968503937007874
        },
        {
          "duration": 0.13888500000000192,
          "durationTicks": 192,
          "midi": 82,
          "name": "A#5",
          "ticks": 83328,
          "time": 64.49995,
          "velocity": 0.968503937007874
        },
        {
          "duration": 0.13888500000000192,
          "durationTicks": 192,
          "midi": 82,
          "name": "A#5",
          "ticks": 83520,
          "time": 64.638835,
          "velocity": 0.968503937007874
        },
        {
          "duration": 0.13888500000000192,
          "durationTicks": 192,
          "midi": 82,
          "name": "A#5",
          "ticks": 83520,
          "time": 64.638835,
          "velocity": 0.968503937007874
        },
        {
          "duration": 1.8055049999999966,
          "durationTicks": 2496,
          "midi": 63,
          "name": "D#4",
          "ticks": 83712,
          "time": 64.77772,
          "velocity": 0.968503937007874
        },
        {
          "duration": 1.8055049999999966,
          "durationTicks": 2496,
          "midi": 75,
          "name": "D#5",
          "ticks": 83712,
          "time": 64.77772,
          "velocity": 0.968503937007874
        },
        {
          "duration": 0.13888500000000192,
          "durationTicks": 192,
          "midi": 62,
          "name": "D4",
          "ticks": 86208,
          "time": 66.583225,
          "velocity": 0.968503937007874
        },
        {
          "duration": 0.13888500000000192,
          "durationTicks": 192,
          "midi": 77,
          "name": "F5",
          "ticks": 86208,
          "time": 66.583225,
          "velocity": 0.968503937007874
        },
        {
          "duration": 0.13888500000000192,
          "durationTicks": 192,
          "midi": 62,
          "name": "D4",
          "ticks": 86400,
          "time": 66.72211,
          "velocity": 0.968503937007874
        },
        {
          "duration": 0.13888500000000192,
          "durationTicks": 192,
          "midi": 77,
          "name": "F5",
          "ticks": 86400,
          "time": 66.72211,
          "velocity": 0.968503937007874
        },
        {
          "duration": 0.13888500000000192,
          "durationTicks": 192,
          "midi": 62,
          "name": "D4",
          "ticks": 86592,
          "time": 66.860995,
          "velocity": 0.968503937007874
        },
        {
          "duration": 0.13888500000000192,
          "durationTicks": 192,
          "midi": 77,
          "name": "F5",
          "ticks": 86592,
          "time": 66.860995,
          "velocity": 0.968503937007874
        },
        {
          "duration": 1.8055049999999966,
          "durationTicks": 2496,
          "midi": 63,
          "name": "D#4",
          "ticks": 86784,
          "time": 66.99988,
          "velocity": 0.968503937007874
        },
        {
          "duration": 1.8055049999999966,
          "durationTicks": 2496,
          "midi": 79,
          "name": "G5",
          "ticks": 86784,
          "time": 66.99988,
          "velocity": 0.968503937007874
        },
        {
          "duration": 0.13888500000000192,
          "durationTicks": 192,
          "midi": 65,
          "name": "F4",
          "ticks": 89280,
          "time": 68.805385,
          "velocity": 0.968503937007874
        },
        {
          "duration": 0.13888500000000192,
          "durationTicks": 192,
          "midi": 74,
          "name": "D5",
          "ticks": 89280,
          "time": 68.805385,
          "velocity": 0.968503937007874
        },
        {
          "duration": 0.13888500000000192,
          "durationTicks": 192,
          "midi": 70,
          "name": "A#4",
          "ticks": 89280,
          "time": 68.805385,
          "velocity": 0.968503937007874
        },
        {
          "duration": 0.13888500000000192,
          "durationTicks": 192,
          "midi": 82,
          "name": "A#5",
          "ticks": 89280,
          "time": 68.805385,
          "velocity": 0.968503937007874
        },
        {
          "duration": 0.13888500000000192,
          "durationTicks": 192,
          "midi": 65,
          "name": "F4",
          "ticks": 89472,
          "time": 68.94427,
          "velocity": 0.968503937007874
        },
        {
          "duration": 0.13888500000000192,
          "durationTicks": 192,
          "midi": 74,
          "name": "D5",
          "ticks": 89472,
          "time": 68.94427,
          "velocity": 0.968503937007874
        },
        {
          "duration": 0.13888500000000192,
          "durationTicks": 192,
          "midi": 70,
          "name": "A#4",
          "ticks": 89472,
          "time": 68.94427,
          "velocity": 0.968503937007874
        },
        {
          "duration": 0.13888500000000192,
          "durationTicks": 192,
          "midi": 82,
          "name": "A#5",
          "ticks": 89472,
          "time": 68.94427,
          "velocity": 0.968503937007874
        },
        {
          "duration": 0.13888500000000192,
          "durationTicks": 192,
          "midi": 65,
          "name": "F4",
          "ticks": 89664,
          "time": 69.083155,
          "velocity": 0.968503937007874
        },
        {
          "duration": 0.13888500000000192,
          "durationTicks": 192,
          "midi": 74,
          "name": "D5",
          "ticks": 89664,
          "time": 69.083155,
          "velocity": 0.968503937007874
        },
        {
          "duration": 0.13888500000000192,
          "durationTicks": 192,
          "midi": 70,
          "name": "A#4",
          "ticks": 89664,
          "time": 69.083155,
          "velocity": 0.968503937007874
        },
        {
          "duration": 0.13888500000000192,
          "durationTicks": 192,
          "midi": 82,
          "name": "A#5",
          "ticks": 89664,
          "time": 69.083155,
          "velocity": 0.968503937007874
        },
        {
          "duration": 0.27776999999998964,
          "durationTicks": 384,
          "midi": 67,
          "name": "G4",
          "ticks": 89856,
          "time": 69.22204,
          "velocity": 0.968503937007874
        },
        {
          "duration": 0.27776999999998964,
          "durationTicks": 384,
          "midi": 75,
          "name": "D#5",
          "ticks": 89856,
          "time": 69.22204,
          "velocity": 0.968503937007874
        },
        {
          "duration": 0.27776999999998964,
          "durationTicks": 384,
          "midi": 70,
          "name": "A#4",
          "ticks": 89856,
          "time": 69.22204,
          "velocity": 0.968503937007874
        },
        {
          "duration": 0.27776999999998964,
          "durationTicks": 384,
          "midi": 82,
          "name": "A#5",
          "ticks": 89856,
          "time": 69.22204,
          "velocity": 0.968503937007874
        },
        {
          "duration": 0.13888500000000192,
          "durationTicks": 192,
          "midi": 65,
          "name": "F4",
          "ticks": 90816,
          "time": 69.916465,
          "velocity": 0.968503937007874
        },
        {
          "duration": 0.13888500000000192,
          "durationTicks": 192,
          "midi": 74,
          "name": "D5",
          "ticks": 90816,
          "time": 69.916465,
          "velocity": 0.968503937007874
        },
        {
          "duration": 0.13888500000000192,
          "durationTicks": 192,
          "midi": 70,
          "name": "A#4",
          "ticks": 90816,
          "time": 69.916465,
          "velocity": 0.968503937007874
        },
        {
          "duration": 0.13888500000000192,
          "durationTicks": 192,
          "midi": 82,
          "name": "A#5",
          "ticks": 90816,
          "time": 69.916465,
          "velocity": 0.968503937007874
        },
        {
          "duration": 0.13888500000000192,
          "durationTicks": 192,
          "midi": 65,
          "name": "F4",
          "ticks": 91008,
          "time": 70.05535,
          "velocity": 0.968503937007874
        },
        {
          "duration": 0.13888500000000192,
          "durationTicks": 192,
          "midi": 74,
          "name": "D5",
          "ticks": 91008,
          "time": 70.05535,
          "velocity": 0.968503937007874
        },
        {
          "duration": 0.13888500000000192,
          "durationTicks": 192,
          "midi": 70,
          "name": "A#4",
          "ticks": 91008,
          "time": 70.05535,
          "velocity": 0.968503937007874
        },
        {
          "duration": 0.13888500000000192,
          "durationTicks": 192,
          "midi": 82,
          "name": "A#5",
          "ticks": 91008,
          "time": 70.05535,
          "velocity": 0.968503937007874
        },
        {
          "duration": 0.13888500000000192,
          "durationTicks": 192,
          "midi": 65,
          "name": "F4",
          "ticks": 91200,
          "time": 70.194235,
          "velocity": 0.968503937007874
        },
        {
          "duration": 0.13888500000000192,
          "durationTicks": 192,
          "midi": 74,
          "name": "D5",
          "ticks": 91200,
          "time": 70.194235,
          "velocity": 0.968503937007874
        },
        {
          "duration": 0.13888500000000192,
          "durationTicks": 192,
          "midi": 70,
          "name": "A#4",
          "ticks": 91200,
          "time": 70.194235,
          "velocity": 0.968503937007874
        },
        {
          "duration": 0.13888500000000192,
          "durationTicks": 192,
          "midi": 82,
          "name": "A#5",
          "ticks": 91200,
          "time": 70.194235,
          "velocity": 0.968503937007874
        },
        {
          "duration": 0.27776999999998964,
          "durationTicks": 384,
          "midi": 67,
          "name": "G4",
          "ticks": 91392,
          "time": 70.33312000000001,
          "velocity": 0.968503937007874
        },
        {
          "duration": 0.27776999999998964,
          "durationTicks": 384,
          "midi": 75,
          "name": "D#5",
          "ticks": 91392,
          "time": 70.33312000000001,
          "velocity": 0.968503937007874
        },
        {
          "duration": 0.27776999999998964,
          "durationTicks": 384,
          "midi": 70,
          "name": "A#4",
          "ticks": 91392,
          "time": 70.33312000000001,
          "velocity": 0.968503937007874
        },
        {
          "duration": 0.27776999999998964,
          "durationTicks": 384,
          "midi": 82,
          "name": "A#5",
          "ticks": 91392,
          "time": 70.33312000000001,
          "velocity": 0.968503937007874
        },
        {
          "duration": 0.13888500000000192,
          "durationTicks": 192,
          "midi": 70,
          "name": "A#4",
          "ticks": 92352,
          "time": 71.027545,
          "velocity": 0.968503937007874
        },
        {
          "duration": 0.13888500000000192,
          "durationTicks": 192,
          "midi": 77,
          "name": "F5",
          "ticks": 92352,
          "time": 71.027545,
          "velocity": 0.968503937007874
        },
        {
          "duration": 0.13888500000000192,
          "durationTicks": 192,
          "midi": 77,
          "name": "F5",
          "ticks": 92352,
          "time": 71.027545,
          "velocity": 0.968503937007874
        },
        {
          "duration": 0.13888500000000192,
          "durationTicks": 192,
          "midi": 86,
          "name": "D6",
          "ticks": 92352,
          "time": 71.027545,
          "velocity": 0.968503937007874
        },
        {
          "duration": 0.13888500000000192,
          "durationTicks": 192,
          "midi": 70,
          "name": "A#4",
          "ticks": 92544,
          "time": 71.16643,
          "velocity": 0.968503937007874
        },
        {
          "duration": 0.13888500000000192,
          "durationTicks": 192,
          "midi": 77,
          "name": "F5",
          "ticks": 92544,
          "time": 71.16643,
          "velocity": 0.968503937007874
        },
        {
          "duration": 0.13888500000000192,
          "durationTicks": 192,
          "midi": 77,
          "name": "F5",
          "ticks": 92544,
          "time": 71.16643,
          "velocity": 0.968503937007874
        },
        {
          "duration": 0.13888500000000192,
          "durationTicks": 192,
          "midi": 86,
          "name": "D6",
          "ticks": 92544,
          "time": 71.16643,
          "velocity": 0.968503937007874
        },
        {
          "duration": 0.1388849999999877,
          "durationTicks": 192,
          "midi": 70,
          "name": "A#4",
          "ticks": 92736,
          "time": 71.30531500000001,
          "velocity": 0.968503937007874
        },
        {
          "duration": 0.1388849999999877,
          "durationTicks": 192,
          "midi": 77,
          "name": "F5",
          "ticks": 92736,
          "time": 71.30531500000001,
          "velocity": 0.968503937007874
        },
        {
          "duration": 0.1388849999999877,
          "durationTicks": 192,
          "midi": 77,
          "name": "F5",
          "ticks": 92736,
          "time": 71.30531500000001,
          "velocity": 0.968503937007874
        },
        {
          "duration": 0.1388849999999877,
          "durationTicks": 192,
          "midi": 86,
          "name": "D6",
          "ticks": 92736,
          "time": 71.30531500000001,
          "velocity": 0.968503937007874
        },
        {
          "duration": 0.27777000000000385,
          "durationTicks": 384,
          "midi": 63,
          "name": "D#4",
          "ticks": 92928,
          "time": 71.4442,
          "velocity": 0.968503937007874
        },
        {
          "duration": 0.27777000000000385,
          "durationTicks": 384,
          "midi": 70,
          "name": "A#4",
          "ticks": 92928,
          "time": 71.4442,
          "velocity": 0.968503937007874
        },
        {
          "duration": 0.27777000000000385,
          "durationTicks": 384,
          "midi": 79,
          "name": "G5",
          "ticks": 92928,
          "time": 71.4442,
          "velocity": 0.968503937007874
        },
        {
          "duration": 0.27777000000000385,
          "durationTicks": 384,
          "midi": 79,
          "name": "G5",
          "ticks": 92928,
          "time": 71.4442,
          "velocity": 0.968503937007874
        },
        {
          "duration": 0.27777000000000385,
          "durationTicks": 384,
          "midi": 87,
          "name": "D#6",
          "ticks": 92928,
          "time": 71.4442,
          "velocity": 0.968503937007874
        },
        {
          "duration": 0.14999999999999147,
          "durationTicks": 192,
          "midi": 67,
          "name": "G4",
          "ticks": 95424,
          "time": 73.26082000000001,
          "velocity": 0.968503937007874
        },
        {
          "duration": 0.14999999999999147,
          "durationTicks": 192,
          "midi": 67,
          "name": "G4",
          "ticks": 95424,
          "time": 73.26082000000001,
          "velocity": 0.968503937007874
        },
        {
          "duration": 0.15000000000000568,
          "durationTicks": 192,
          "midi": 67,
          "name": "G4",
          "ticks": 95616,
          "time": 73.41082,
          "velocity": 0.968503937007874
        },
        {
          "duration": 0.15000000000000568,
          "durationTicks": 192,
          "midi": 67,
          "name": "G4",
          "ticks": 95616,
          "time": 73.41082,
          "velocity": 0.968503937007874
        },
        {
          "duration": 0.14999999999999147,
          "durationTicks": 192,
          "midi": 67,
          "name": "G4",
          "ticks": 95808,
          "time": 73.56082,
          "velocity": 0.968503937007874
        },
        {
          "duration": 0.14999999999999147,
          "durationTicks": 192,
          "midi": 67,
          "name": "G4",
          "ticks": 95808,
          "time": 73.56082,
          "velocity": 0.968503937007874
        },
        {
          "duration": 1.2000000000000028,
          "durationTicks": 768,
          "midi": 63,
          "name": "D#4",
          "ticks": 96000,
          "time": 73.71082,
          "velocity": 0.968503937007874
        },
        {
          "duration": 1.2000000000000028,
          "durationTicks": 768,
          "midi": 63,
          "name": "D#4",
          "ticks": 96000,
          "time": 73.71082,
          "velocity": 0.968503937007874
        },
        {
          "duration": 0.14999999999999147,
          "durationTicks": 192,
          "midi": 65,
          "name": "F4",
          "ticks": 96960,
          "time": 75.06082,
          "velocity": 0.968503937007874
        },
        {
          "duration": 0.14999999999999147,
          "durationTicks": 192,
          "midi": 65,
          "name": "F4",
          "ticks": 96960,
          "time": 75.06082,
          "velocity": 0.968503937007874
        },
        {
          "duration": 0.15000000000000568,
          "durationTicks": 192,
          "midi": 65,
          "name": "F4",
          "ticks": 97152,
          "time": 75.21082,
          "velocity": 0.968503937007874
        },
        {
          "duration": 0.15000000000000568,
          "durationTicks": 192,
          "midi": 65,
          "name": "F4",
          "ticks": 97152,
          "time": 75.21082,
          "velocity": 0.968503937007874
        },
        {
          "duration": 0.14999999999999147,
          "durationTicks": 192,
          "midi": 65,
          "name": "F4",
          "ticks": 97344,
          "time": 75.36082,
          "velocity": 0.968503937007874
        },
        {
          "duration": 0.14999999999999147,
          "durationTicks": 192,
          "midi": 65,
          "name": "F4",
          "ticks": 97344,
          "time": 75.36082,
          "velocity": 0.968503937007874
        },
        {
          "duration": 1.6000000000000085,
          "durationTicks": 1536,
          "midi": 62,
          "name": "D4",
          "ticks": 97536,
          "time": 75.51082,
          "velocity": 0.968503937007874
        },
        {
          "duration": 1.6000000000000085,
          "durationTicks": 1536,
          "midi": 62,
          "name": "D4",
          "ticks": 97536,
          "time": 75.51082,
          "velocity": 0.968503937007874
        },
        {
          "duration": 0.14150500000000932,
          "durationTicks": 192,
          "midi": 67,
          "name": "G4",
          "ticks": 99264,
          "time": 77.252325,
          "velocity": 0.7165354330708661
        },
        {
          "duration": 0.1415049999999951,
          "durationTicks": 192,
          "midi": 67,
          "name": "G4",
          "ticks": 99456,
          "time": 77.39383000000001,
          "velocity": 0.7165354330708661
        },
        {
          "duration": 0.1415049999999951,
          "durationTicks": 192,
          "midi": 67,
          "name": "G4",
          "ticks": 99648,
          "time": 77.535335,
          "velocity": 0.7165354330708661
        },
        {
          "duration": 1.8395650000000074,
          "durationTicks": 2496,
          "midi": 63,
          "name": "D#4",
          "ticks": 99840,
          "time": 77.67684,
          "velocity": 0.7165354330708661
        },
        {
          "duration": 0.1415049999999951,
          "durationTicks": 192,
          "midi": 75,
          "name": "D#5",
          "ticks": 100800,
          "time": 78.384365,
          "velocity": 0.7165354330708661
        },
        {
          "duration": 0.14150500000000932,
          "durationTicks": 192,
          "midi": 75,
          "name": "D#5",
          "ticks": 100992,
          "time": 78.52587,
          "velocity": 0.7165354330708661
        },
        {
          "duration": 0.1415049999999951,
          "durationTicks": 192,
          "midi": 75,
          "name": "D#5",
          "ticks": 101184,
          "time": 78.667375,
          "velocity": 0.7165354330708661
        },
        {
          "duration": 0.8490299999999991,
          "durationTicks": 1152,
          "midi": 72,
          "name": "C5",
          "ticks": 101376,
          "time": 78.80888,
          "velocity": 0.7165354330708661
        },
        {
          "duration": 0.1415049999999951,
          "durationTicks": 192,
          "midi": 67,
          "name": "G4",
          "ticks": 102336,
          "time": 79.516405,
          "velocity": 0.7165354330708661
        },
        {
          "duration": 0.14150500000000932,
          "durationTicks": 192,
          "midi": 67,
          "name": "G4",
          "ticks": 102528,
          "time": 79.65791,
          "velocity": 0.7165354330708661
        },
        {
          "duration": 0.1415049999999951,
          "durationTicks": 192,
          "midi": 67,
          "name": "G4",
          "ticks": 102720,
          "time": 79.79941500000001,
          "velocity": 0.7165354330708661
        },
        {
          "duration": 1.1320400000000035,
          "durationTicks": 1536,
          "midi": 62,
          "name": "D4",
          "ticks": 102912,
          "time": 79.94092,
          "velocity": 0.7165354330708661
        },
        {
          "duration": 0.1415049999999951,
          "durationTicks": 192,
          "midi": 77,
          "name": "F5",
          "ticks": 103872,
          "time": 80.64844500000001,
          "velocity": 0.7165354330708661
        },
        {
          "duration": 0.1415049999999951,
          "durationTicks": 192,
          "midi": 77,
          "name": "F5",
          "ticks": 104064,
          "time": 80.78995,
          "velocity": 0.7165354330708661
        },
        {
          "duration": 0.14150500000000932,
          "durationTicks": 192,
          "midi": 77,
          "name": "F5",
          "ticks": 104256,
          "time": 80.931455,
          "velocity": 0.7165354330708661
        },
        {
          "duration": 1.2735449999999986,
          "durationTicks": 1728,
          "midi": 67,
          "name": "G4",
          "ticks": 104448,
          "time": 81.07296000000001,
          "velocity": 0.7165354330708661
        },
        {
          "duration": 0.7075249999999897,
          "durationTicks": 960,
          "midi": 74,
          "name": "D5",
          "ticks": 104448,
          "time": 81.07296000000001,
          "velocity": 0.7165354330708661
        },
        {
          "duration": 0.14150500000000932,
          "durationTicks": 192,
          "midi": 79,
          "name": "G5",
          "ticks": 105408,
          "time": 81.780485,
          "velocity": 0.7165354330708661
        },
        {
          "duration": 0.1415049999999951,
          "durationTicks": 192,
          "midi": 79,
          "name": "G5",
          "ticks": 105600,
          "time": 81.92199000000001,
          "velocity": 0.7165354330708661
        },
        {
          "duration": 0.1415049999999951,
          "durationTicks": 192,
          "midi": 77,
          "name": "F5",
          "ticks": 105792,
          "time": 82.063495,
          "velocity": 0.7165354330708661
        },
        {
          "duration": 0.5660200000000088,
          "durationTicks": 768,
          "midi": 75,
          "name": "D#5",
          "ticks": 105984,
          "time": 82.205,
          "velocity": 0.7165354330708661
        },
        {
          "duration": 0.1415049999999951,
          "durationTicks": 192,
          "midi": 63,
          "name": "D#4",
          "ticks": 106176,
          "time": 82.34650500000001,
          "velocity": 0.7165354330708661
        },
        {
          "duration": 0.1415049999999951,
          "durationTicks": 192,
          "midi": 63,
          "name": "D#4",
          "ticks": 106368,
          "time": 82.48801,
          "velocity": 0.7165354330708661
        },
        {
          "duration": 0.14150500000000932,
          "durationTicks": 192,
          "midi": 65,
          "name": "F4",
          "ticks": 106560,
          "time": 82.629515,
          "velocity": 0.7165354330708661
        },
        {
          "duration": 0.7075249999999897,
          "durationTicks": 960,
          "midi": 67,
          "name": "G4",
          "ticks": 106752,
          "time": 82.77102000000001,
          "velocity": 0.7165354330708661
        },
        {
          "duration": 0.1415049999999951,
          "durationTicks": 192,
          "midi": 74,
          "name": "D5",
          "ticks": 106752,
          "time": 82.77102000000001,
          "velocity": 0.7165354330708661
        },
        {
          "duration": 0.1415049999999951,
          "durationTicks": 192,
          "midi": 79,
          "name": "G5",
          "ticks": 106944,
          "time": 82.912525,
          "velocity": 0.7165354330708661
        },
        {
          "duration": 0.14150500000000932,
          "durationTicks": 192,
          "midi": 79,
          "name": "G5",
          "ticks": 107136,
          "time": 83.05403,
          "velocity": 0.7165354330708661
        },
        {
          "duration": 0.1415049999999951,
          "durationTicks": 192,
          "midi": 77,
          "name": "F5",
          "ticks": 107328,
          "time": 83.195535,
          "velocity": 0.7165354330708661
        },
        {
          "duration": 0.5660200000000088,
          "durationTicks": 768,
          "midi": 75,
          "name": "D#5",
          "ticks": 107520,
          "time": 83.33704,
          "velocity": 0.7165354330708661
        },
        {
          "duration": 0.14150500000000932,
          "durationTicks": 192,
          "midi": 63,
          "name": "D#4",
          "ticks": 107712,
          "time": 83.478545,
          "velocity": 0.7165354330708661
        },
        {
          "duration": 0.1415049999999951,
          "durationTicks": 192,
          "midi": 63,
          "name": "D#4",
          "ticks": 107904,
          "time": 83.62005,
          "velocity": 0.7165354330708661
        },
        {
          "duration": 0.14150500000000932,
          "durationTicks": 192,
          "midi": 65,
          "name": "F4",
          "ticks": 108096,
          "time": 83.761555,
          "velocity": 0.7165354330708661
        },
        {
          "duration": 0.1415049999999951,
          "durationTicks": 192,
          "midi": 67,
          "name": "G4",
          "ticks": 108288,
          "time": 83.90306000000001,
          "velocity": 0.7165354330708661
        },
        {
          "duration": 0.1415049999999951,
          "durationTicks": 192,
          "midi": 74,
          "name": "D5",
          "ticks": 108288,
          "time": 83.90306000000001,
          "velocity": 0.7165354330708661
        },
        {
          "duration": 0.1415049999999951,
          "durationTicks": 192,
          "midi": 74,
          "name": "D5",
          "ticks": 108480,
          "time": 84.044565,
          "velocity": 0.7165354330708661
        },
        {
          "duration": 0.1415049999999951,
          "durationTicks": 192,
          "midi": 79,
          "name": "G5",
          "ticks": 108480,
          "time": 84.044565,
          "velocity": 0.7165354330708661
        },
        {
          "duration": 0.1415049999999951,
          "durationTicks": 192,
          "midi": 74,
          "name": "D5",
          "ticks": 108672,
          "time": 84.18607,
          "velocity": 0.7952755905511811
        },
        {
          "duration": 0.1415049999999951,
          "durationTicks": 192,
          "midi": 79,
          "name": "G5",
          "ticks": 108672,
          "time": 84.18607,
          "velocity": 0.7952755905511811
        },
        {
          "duration": 0.14150500000000932,
          "durationTicks": 192,
          "midi": 67,
          "name": "G4",
          "ticks": 108864,
          "time": 84.327575,
          "velocity": 0.8582677165354331
        },
        {
          "duration": 0.14150500000000932,
          "durationTicks": 192,
          "midi": 77,
          "name": "F5",
          "ticks": 108864,
          "time": 84.327575,
          "velocity": 0.8582677165354331
        },
        {
          "duration": 0.2830100000000044,
          "durationTicks": 384,
          "midi": 60,
          "name": "C4",
          "ticks": 109056,
          "time": 84.46908,
          "velocity": 0.905511811023622
        },
        {
          "duration": 0.2830100000000044,
          "durationTicks": 384,
          "midi": 67,
          "name": "G4",
          "ticks": 109056,
          "time": 84.46908,
          "velocity": 0.905511811023622
        },
        {
          "duration": 0.2830100000000044,
          "durationTicks": 384,
          "midi": 75,
          "name": "D#5",
          "ticks": 109056,
          "time": 84.46908,
          "velocity": 0.905511811023622
        },
        {
          "duration": 0.2830100000000044,
          "durationTicks": 384,
          "midi": 75,
          "name": "D#5",
          "ticks": 109056,
          "time": 84.46908,
          "velocity": 0.905511811023622
        },
        {
          "duration": 0.2830100000000044,
          "durationTicks": 384,
          "midi": 56,
          "name": "G#3",
          "ticks": 109824,
          "time": 85.0351,
          "velocity": 0.905511811023622
        },
        {
          "duration": 0.2830100000000044,
          "durationTicks": 384,
          "midi": 66,
          "name": "F#4",
          "ticks": 109824,
          "time": 85.0351,
          "velocity": 0.905511811023622
        },
        {
          "duration": 0.2830100000000044,
          "durationTicks": 384,
          "midi": 72,
          "name": "C5",
          "ticks": 109824,
          "time": 85.0351,
          "velocity": 0.905511811023622
        },
        {
          "duration": 0.2830100000000044,
          "durationTicks": 384,
          "midi": 56,
          "name": "G#3",
          "ticks": 109824,
          "time": 85.0351,
          "velocity": 0.905511811023622
        },
        {
          "duration": 0.2830100000000044,
          "durationTicks": 384,
          "midi": 66,
          "name": "F#4",
          "ticks": 109824,
          "time": 85.0351,
          "velocity": 0.905511811023622
        },
        {
          "duration": 0.2830100000000044,
          "durationTicks": 384,
          "midi": 72,
          "name": "C5",
          "ticks": 109824,
          "time": 85.0351,
          "velocity": 0.905511811023622
        },
        {
          "duration": 0.2830099999999902,
          "durationTicks": 384,
          "midi": 55,
          "name": "G3",
          "ticks": 110592,
          "time": 85.60112000000001,
          "velocity": 0.905511811023622
        },
        {
          "duration": 0.2830099999999902,
          "durationTicks": 384,
          "midi": 62,
          "name": "D4",
          "ticks": 110592,
          "time": 85.60112000000001,
          "velocity": 0.905511811023622
        },
        {
          "duration": 0.2830099999999902,
          "durationTicks": 384,
          "midi": 71,
          "name": "B4",
          "ticks": 110592,
          "time": 85.60112000000001,
          "velocity": 0.905511811023622
        },
        {
          "duration": 1.483009999999993,
          "durationTicks": 768,
          "midi": 79,
          "name": "G5",
          "ticks": 110592,
          "time": 85.60112000000001,
          "velocity": 0.968503937007874
        },
        {
          "duration": 0.1428549999999973,
          "durationTicks": 192,
          "midi": 68,
          "name": "G#4",
          "ticks": 111552,
          "time": 87.226985,
          "velocity": 0.968503937007874
        },
        {
          "duration": 0.1428549999999973,
          "durationTicks": 192,
          "midi": 68,
          "name": "G#4",
          "ticks": 111552,
          "time": 87.226985,
          "velocity": 0.968503937007874
        },
        {
          "duration": 0.1428550000000115,
          "durationTicks": 192,
          "midi": 68,
          "name": "G#4",
          "ticks": 111744,
          "time": 87.36984,
          "velocity": 0.968503937007874
        },
        {
          "duration": 0.1428550000000115,
          "durationTicks": 192,
          "midi": 68,
          "name": "G#4",
          "ticks": 111744,
          "time": 87.36984,
          "velocity": 0.968503937007874
        },
        {
          "duration": 0.1428549999999973,
          "durationTicks": 192,
          "midi": 68,
          "name": "G#4",
          "ticks": 111936,
          "time": 87.51269500000001,
          "velocity": 0.968503937007874
        },
        {
          "duration": 0.1428549999999973,
          "durationTicks": 192,
          "midi": 68,
          "name": "G#4",
          "ticks": 111936,
          "time": 87.51269500000001,
          "velocity": 0.968503937007874
        },
        {
          "duration": 1.9047400000000039,
          "durationTicks": 1536,
          "midi": 65,
          "name": "F4",
          "ticks": 112128,
          "time": 87.65555,
          "velocity": 0.968503937007874
        },
        {
          "duration": 1.9047400000000039,
          "durationTicks": 1536,
          "midi": 65,
          "name": "F4",
          "ticks": 112128,
          "time": 87.65555,
          "velocity": 0.968503937007874
        },
        {
          "duration": 0.1428549999999973,
          "durationTicks": 192,
          "midi": 68,
          "name": "G#4",
          "ticks": 113856,
          "time": 89.703145,
          "velocity": 0.7165354330708661
        },
        {
          "duration": 0.1428550000000115,
          "durationTicks": 192,
          "midi": 68,
          "name": "G#4",
          "ticks": 114048,
          "time": 89.846,
          "velocity": 0.7165354330708661
        },
        {
          "duration": 0.1428549999999973,
          "durationTicks": 192,
          "midi": 68,
          "name": "G#4",
          "ticks": 114240,
          "time": 89.98885500000002,
          "velocity": 0.7165354330708661
        },
        {
          "duration": 1.714259999999996,
          "durationTicks": 2304,
          "midi": 65,
          "name": "F4",
          "ticks": 114432,
          "time": 90.13171000000001,
          "velocity": 0.7165354330708661
        },
        {
          "duration": 0.1428549999999973,
          "durationTicks": 192,
          "midi": 62,
          "name": "D4",
          "ticks": 114624,
          "time": 90.27456500000001,
          "velocity": 0.7165354330708661
        },
        {
          "duration": 0.1428549999999973,
          "durationTicks": 192,
          "midi": 62,
          "name": "D4",
          "ticks": 114816,
          "time": 90.41742,
          "velocity": 0.7165354330708661
        },
        {
          "duration": 0.1428550000000115,
          "durationTicks": 192,
          "midi": 62,
          "name": "D4",
          "ticks": 115008,
          "time": 90.560275,
          "velocity": 0.7165354330708661
        },
        {
          "duration": 1.1428399999999925,
          "durationTicks": 1536,
          "midi": 59,
          "name": "B3",
          "ticks": 115200,
          "time": 90.70313000000002,
          "velocity": 0.7165354330708661
        },
        {
          "duration": 0.2857099999999946,
          "durationTicks": 384,
          "midi": 60,
          "name": "C4",
          "ticks": 116736,
          "time": 91.84597000000001,
          "velocity": 0.7165354330708661
        },
        {
          "duration": 0.1428549999999973,
          "durationTicks": 192,
          "midi": 63,
          "name": "D#4",
          "ticks": 116736,
          "time": 91.84597000000001,
          "velocity": 0.7165354330708661
        },
        {
          "duration": 0.1428549999999973,
          "durationTicks": 192,
          "midi": 68,
          "name": "G#4",
          "ticks": 116928,
          "time": 91.988825,
          "velocity": 0.7165354330708661
        },
        {
          "duration": 0.1428550000000115,
          "durationTicks": 192,
          "midi": 68,
          "name": "G#4",
          "ticks": 117120,
          "time": 92.13168,
          "velocity": 0.7165354330708661
        },
        {
          "duration": 0.1428549999999973,
          "durationTicks": 192,
          "midi": 68,
          "name": "G#4",
          "ticks": 117312,
          "time": 92.27453500000001,
          "velocity": 0.7165354330708661
        },
        {
          "duration": 1.714259999999996,
          "durationTicks": 2304,
          "midi": 65,
          "name": "F4",
          "ticks": 117504,
          "time": 92.41739000000001,
          "velocity": 0.7165354330708661
        },
        {
          "duration": 0.1428549999999973,
          "durationTicks": 192,
          "midi": 62,
          "name": "D4",
          "ticks": 117696,
          "time": 92.56024500000001,
          "velocity": 0.7165354330708661
        },
        {
          "duration": 0.1428549999999973,
          "durationTicks": 192,
          "midi": 62,
          "name": "D4",
          "ticks": 117888,
          "time": 92.7031,
          "velocity": 0.7165354330708661
        },
        {
          "duration": 0.1428550000000115,
          "durationTicks": 192,
          "midi": 62,
          "name": "D4",
          "ticks": 118080,
          "time": 92.845955,
          "velocity": 0.7165354330708661
        },
        {
          "duration": 1.1428399999999925,
          "durationTicks": 1536,
          "midi": 59,
          "name": "B3",
          "ticks": 118272,
          "time": 92.98881000000002,
          "velocity": 0.7165354330708661
        },
        {
          "duration": 0.1428549999999973,
          "durationTicks": 192,
          "midi": 60,
          "name": "C4",
          "ticks": 119808,
          "time": 94.13165000000001,
          "velocity": 0.7165354330708661
        },
        {
          "duration": 0.1428549999999973,
          "durationTicks": 192,
          "midi": 63,
          "name": "D#4",
          "ticks": 119808,
          "time": 94.13165000000001,
          "velocity": 0.7165354330708661
        },
        {
          "duration": 0.1428549999999973,
          "durationTicks": 192,
          "midi": 67,
          "name": "G4",
          "ticks": 120000,
          "time": 94.274505,
          "velocity": 0.7165354330708661
        },
        {
          "duration": 0.1428549999999973,
          "durationTicks": 192,
          "midi": 67,
          "name": "G4",
          "ticks": 120000,
          "time": 94.274505,
          "velocity": 0.7165354330708661
        },
        {
          "duration": 0.1428550000000115,
          "durationTicks": 192,
          "midi": 67,
          "name": "G4",
          "ticks": 120192,
          "time": 94.41736,
          "velocity": 0.7165354330708661
        },
        {
          "duration": 0.1428550000000115,
          "durationTicks": 192,
          "midi": 72,
          "name": "C5",
          "ticks": 120192,
          "time": 94.41736,
          "velocity": 0.7165354330708661
        },
        {
          "duration": 0.1428549999999973,
          "durationTicks": 192,
          "midi": 63,
          "name": "D#4",
          "ticks": 120384,
          "time": 94.56021500000001,
          "velocity": 0.7165354330708661
        },
        {
          "duration": 0.1428549999999973,
          "durationTicks": 192,
          "midi": 72,
          "name": "C5",
          "ticks": 120384,
          "time": 94.56021500000001,
          "velocity": 0.7165354330708661
        },
        {
          "duration": 0.7142750000000007,
          "durationTicks": 960,
          "midi": 65,
          "name": "F4",
          "ticks": 120576,
          "time": 94.70307000000001,
          "velocity": 0.7165354330708661
        },
        {
          "duration": 0.5714200000000034,
          "durationTicks": 768,
          "midi": 72,
          "name": "C5",
          "ticks": 120576,
          "time": 94.70307000000001,
          "velocity": 0.7165354330708661
        },
        {
          "duration": 0.1428549999999973,
          "durationTicks": 192,
          "midi": 71,
          "name": "B4",
          "ticks": 121344,
          "time": 95.27449000000001,
          "velocity": 0.7952755905511811
        },
        {
          "duration": 0.1428549999999973,
          "durationTicks": 192,
          "midi": 68,
          "name": "G#4",
          "ticks": 121536,
          "time": 95.41734500000001,
          "velocity": 0.7952755905511811
        },
        {
          "duration": 0.1428549999999973,
          "durationTicks": 192,
          "midi": 71,
          "name": "B4",
          "ticks": 121536,
          "time": 95.41734500000001,
          "velocity": 0.7952755905511811
        },
        {
          "duration": 0.1428549999999973,
          "durationTicks": 192,
          "midi": 68,
          "name": "G#4",
          "ticks": 121728,
          "time": 95.56020000000001,
          "velocity": 0.8582677165354331
        },
        {
          "duration": 0.1428549999999973,
          "durationTicks": 192,
          "midi": 71,
          "name": "B4",
          "ticks": 121728,
          "time": 95.56020000000001,
          "velocity": 0.8582677165354331
        },
        {
          "duration": 0.1428549999999973,
          "durationTicks": 192,
          "midi": 65,
          "name": "F4",
          "ticks": 121920,
          "time": 95.703055,
          "velocity": 0.8582677165354331
        },
        {
          "duration": 0.1428549999999973,
          "durationTicks": 192,
          "midi": 74,
          "name": "D5",
          "ticks": 121920,
          "time": 95.703055,
          "velocity": 0.8582677165354331
        },
        {
          "duration": 0.707525000000004,
          "durationTicks": 960,
          "midi": 67,
          "name": "G4",
          "ticks": 122112,
          "time": 95.84591,
          "velocity": 0.905511811023622
        },
        {
          "duration": 0.5660199999999946,
          "durationTicks": 768,
          "midi": 74,
          "name": "D5",
          "ticks": 122112,
          "time": 95.84591,
          "velocity": 0.905511811023622
        },
        {
          "duration": 0.14150500000000932,
          "durationTicks": 192,
          "midi": 72,
          "name": "C5",
          "ticks": 122880,
          "time": 96.41193,
          "velocity": 0.968503937007874
        },
        {
          "duration": 0.1415049999999951,
          "durationTicks": 192,
          "midi": 67,
          "name": "G4",
          "ticks": 123072,
          "time": 96.55343500000001,
          "velocity": 0.968503937007874
        },
        {
          "duration": 0.1415049999999951,
          "durationTicks": 192,
          "midi": 72,
          "name": "C5",
          "ticks": 123072,
          "time": 96.55343500000001,
          "velocity": 0.968503937007874
        },
        {
          "duration": 0.1415049999999951,
          "durationTicks": 192,
          "midi": 67,
          "name": "G4",
          "ticks": 123264,
          "time": 96.69494,
          "velocity": 0.968503937007874
        },
        {
          "duration": 0.1415049999999951,
          "durationTicks": 192,
          "midi": 72,
          "name": "C5",
          "ticks": 123264,
          "time": 96.69494,
          "velocity": 0.968503937007874
        },
        {
          "duration": 0.14150500000000932,
          "durationTicks": 192,
          "midi": 63,
          "name": "D#4",
          "ticks": 123456,
          "time": 96.836445,
          "velocity": 0.968503937007874
        },
        {
          "duration": 0.14150500000000932,
          "durationTicks": 192,
          "midi": 75,
          "name": "D#5",
          "ticks": 123456,
          "time": 96.836445,
          "velocity": 0.968503937007874
        },
        {
          "duration": 0.1415049999999951,
          "durationTicks": 192,
          "midi": 68,
          "name": "G#4",
          "ticks": 123648,
          "time": 96.97795,
          "velocity": 0.968503937007874
        },
        {
          "duration": 0.1415049999999951,
          "durationTicks": 192,
          "midi": 75,
          "name": "D#5",
          "ticks": 123648,
          "time": 96.97795,
          "velocity": 0.968503937007874
        },
        {
          "duration": 0.1415049999999951,
          "durationTicks": 192,
          "midi": 68,
          "name": "G#4",
          "ticks": 123840,
          "time": 97.119455,
          "velocity": 0.968503937007874
        },
        {
          "duration": 0.1415049999999951,
          "durationTicks": 192,
          "midi": 74,
          "name": "D5",
          "ticks": 123840,
          "time": 97.119455,
          "velocity": 0.968503937007874
        },
        {
          "duration": 0.14150500000000932,
          "durationTicks": 192,
          "midi": 68,
          "name": "G#4",
          "ticks": 124032,
          "time": 97.26096,
          "velocity": 0.968503937007874
        },
        {
          "duration": 0.14150500000000932,
          "durationTicks": 192,
          "midi": 74,
          "name": "D5",
          "ticks": 124032,
          "time": 97.26096,
          "velocity": 0.968503937007874
        },
        {
          "duration": 0.1415049999999951,
          "durationTicks": 192,
          "midi": 65,
          "name": "F4",
          "ticks": 124224,
          "time": 97.402465,
          "velocity": 0.968503937007874
        },
        {
          "duration": 0.1415049999999951,
          "durationTicks": 192,
          "midi": 77,
          "name": "F5",
          "ticks": 124224,
          "time": 97.402465,
          "velocity": 0.968503937007874
        },
        {
          "duration": 0.1415049999999951,
          "durationTicks": 192,
          "midi": 70,
          "name": "A#4",
          "ticks": 124416,
          "time": 97.54397,
          "velocity": 0.968503937007874
        },
        {
          "duration": 0.1415049999999951,
          "durationTicks": 192,
          "midi": 77,
          "name": "F5",
          "ticks": 124416,
          "time": 97.54397,
          "velocity": 0.968503937007874
        },
        {
          "duration": 0.14150500000000932,
          "durationTicks": 192,
          "midi": 70,
          "name": "A#4",
          "ticks": 124608,
          "time": 97.685475,
          "velocity": 0.968503937007874
        },
        {
          "duration": 0.14150500000000932,
          "durationTicks": 192,
          "midi": 76,
          "name": "E5",
          "ticks": 124608,
          "time": 97.685475,
          "velocity": 0.968503937007874
        },
        {
          "duration": 0.1415049999999951,
          "durationTicks": 192,
          "midi": 70,
          "name": "A#4",
          "ticks": 124800,
          "time": 97.82698,
          "velocity": 0.968503937007874
        },
        {
          "duration": 0.1415049999999951,
          "durationTicks": 192,
          "midi": 76,
          "name": "E5",
          "ticks": 124800,
          "time": 97.82698,
          "velocity": 0.968503937007874
        },
        {
          "duration": 0.14150500000000932,
          "durationTicks": 192,
          "midi": 67,
          "name": "G4",
          "ticks": 124992,
          "time": 97.968485,
          "velocity": 0.968503937007874
        },
        {
          "duration": 0.14150500000000932,
          "durationTicks": 192,
          "midi": 79,
          "name": "G5",
          "ticks": 124992,
          "time": 97.968485,
          "velocity": 0.968503937007874
        },
        {
          "duration": 0.14018500000000245,
          "durationTicks": 192,
          "midi": 72,
          "name": "C5",
          "ticks": 125184,
          "time": 98.10999000000001,
          "velocity": 0.968503937007874
        },
        {
          "duration": 0.14018500000000245,
          "durationTicks": 192,
          "midi": 79,
          "name": "G5",
          "ticks": 125184,
          "time": 98.10999000000001,
          "velocity": 0.968503937007874
        },
        {
          "duration": 0.14018500000000245,
          "durationTicks": 192,
          "midi": 60,
          "name": "C4",
          "ticks": 125376,
          "time": 98.25017500000001,
          "velocity": 0.968503937007874
        },
        {
          "duration": 0.14018500000000245,
          "durationTicks": 192,
          "midi": 77,
          "name": "F5",
          "ticks": 125376,
          "time": 98.25017500000001,
          "velocity": 0.968503937007874
        },
        {
          "duration": 0.14018499999998824,
          "durationTicks": 192,
          "midi": 60,
          "name": "C4",
          "ticks": 125568,
          "time": 98.39036000000002,
          "velocity": 0.968503937007874
        },
        {
          "duration": 0.14018499999998824,
          "durationTicks": 192,
          "midi": 77,
          "name": "F5",
          "ticks": 125568,
          "time": 98.39036000000002,
          "velocity": 0.968503937007874
        },
        {
          "duration": 0.14018500000000245,
          "durationTicks": 192,
          "midi": 56,
          "name": "G#3",
          "ticks": 125760,
          "time": 98.530545,
          "velocity": 0.968503937007874
        },
        {
          "duration": 0.14018500000000245,
          "durationTicks": 192,
          "midi": 80,
          "name": "G#5",
          "ticks": 125760,
          "time": 98.530545,
          "velocity": 0.968503937007874
        },
        {
          "duration": 0.14018500000000245,
          "durationTicks": 192,
          "midi": 64,
          "name": "E4",
          "ticks": 125952,
          "time": 98.67073,
          "velocity": 0.968503937007874
        },
        {
          "duration": 0.14018500000000245,
          "durationTicks": 192,
          "midi": 80,
          "name": "G#5",
          "ticks": 125952,
          "time": 98.67073,
          "velocity": 0.968503937007874
        },
        {
          "duration": 0.14018500000000245,
          "durationTicks": 192,
          "midi": 64,
          "name": "E4",
          "ticks": 126144,
          "time": 98.81091500000001,
          "velocity": 0.968503937007874
        },
        {
          "duration": 0.14018500000000245,
          "durationTicks": 192,
          "midi": 79,
          "name": "G5",
          "ticks": 126144,
          "time": 98.81091500000001,
          "velocity": 0.968503937007874
        },
        {
          "duration": 0.14018500000000245,
          "durationTicks": 192,
          "midi": 64,
          "name": "E4",
          "ticks": 126336,
          "time": 98.95110000000001,
          "velocity": 0.968503937007874
        },
        {
          "duration": 0.14018500000000245,
          "durationTicks": 192,
          "midi": 79,
          "name": "G5",
          "ticks": 126336,
          "time": 98.95110000000001,
          "velocity": 0.968503937007874
        },
        {
          "duration": 0.14018500000000245,
          "durationTicks": 192,
          "midi": 58,
          "name": "A#3",
          "ticks": 126528,
          "time": 99.09128500000001,
          "velocity": 0.968503937007874
        },
        {
          "duration": 0.14018500000000245,
          "durationTicks": 192,
          "midi": 82,
          "name": "A#5",
          "ticks": 126528,
          "time": 99.09128500000001,
          "velocity": 0.968503937007874
        },
        {
          "duration": 0.14018499999998824,
          "durationTicks": 192,
          "midi": 65,
          "name": "F4",
          "ticks": 126720,
          "time": 99.23147000000002,
          "velocity": 0.968503937007874
        },
        {
          "duration": 0.14018499999998824,
          "durationTicks": 192,
          "midi": 82,
          "name": "A#5",
          "ticks": 126720,
          "time": 99.23147000000002,
          "velocity": 0.968503937007874
        },
        {
          "duration": 0.14018500000000245,
          "durationTicks": 192,
          "midi": 65,
          "name": "F4",
          "ticks": 126912,
          "time": 99.371655,
          "velocity": 0.968503937007874
        },
        {
          "duration": 0.14018500000000245,
          "durationTicks": 192,
          "midi": 80,
          "name": "G#5",
          "ticks": 126912,
          "time": 99.371655,
          "velocity": 0.968503937007874
        },
        {
          "duration": 0.14018500000000245,
          "durationTicks": 192,
          "midi": 65,
          "name": "F4",
          "ticks": 127104,
          "time": 99.51184,
          "velocity": 0.968503937007874
        },
        {
          "duration": 0.14018500000000245,
          "durationTicks": 192,
          "midi": 80,
          "name": "G#5",
          "ticks": 127104,
          "time": 99.51184,
          "velocity": 0.968503937007874
        },
        {
          "duration": 0.14018500000000245,
          "durationTicks": 192,
          "midi": 60,
          "name": "C4",
          "ticks": 127296,
          "time": 99.65202500000001,
          "velocity": 0.968503937007874
        },
        {
          "duration": 0.14018500000000245,
          "durationTicks": 192,
          "midi": 84,
          "name": "C6",
          "ticks": 127296,
          "time": 99.65202500000001,
          "velocity": 0.968503937007874
        },
        {
          "duration": 0.14018500000000245,
          "durationTicks": 192,
          "midi": 68,
          "name": "G#4",
          "ticks": 127488,
          "time": 99.79221000000001,
          "velocity": 0.968503937007874
        },
        {
          "duration": 0.14018500000000245,
          "durationTicks": 192,
          "midi": 84,
          "name": "C6",
          "ticks": 127488,
          "time": 99.79221000000001,
          "velocity": 0.968503937007874
        },
        {
          "duration": 0.14018500000000245,
          "durationTicks": 192,
          "midi": 68,
          "name": "G#4",
          "ticks": 127680,
          "time": 99.93239500000001,
          "velocity": 0.968503937007874
        },
        {
          "duration": 0.14018500000000245,
          "durationTicks": 192,
          "midi": 83,
          "name": "B5",
          "ticks": 127680,
          "time": 99.93239500000001,
          "velocity": 0.968503937007874
        },
        {
          "duration": 0.14018499999998824,
          "durationTicks": 192,
          "midi": 68,
          "name": "G#4",
          "ticks": 127872,
          "time": 100.07258000000002,
          "velocity": 0.968503937007874
        },
        {
          "duration": 0.14018499999998824,
          "durationTicks": 192,
          "midi": 83,
          "name": "B5",
          "ticks": 127872,
          "time": 100.07258000000002,
          "velocity": 0.968503937007874
        },
        {
          "duration": 0.14018500000000245,
          "durationTicks": 192,
          "midi": 65,
          "name": "F4",
          "ticks": 128064,
          "time": 100.212765,
          "velocity": 0.968503937007874
        },
        {
          "duration": 0.14018500000000245,
          "durationTicks": 192,
          "midi": 86,
          "name": "D6",
          "ticks": 128064,
          "time": 100.212765,
          "velocity": 0.968503937007874
        },
        {
          "duration": 0.13888500000000192,
          "durationTicks": 192,
          "midi": 67,
          "name": "G4",
          "ticks": 128256,
          "time": 100.35295,
          "velocity": 0.968503937007874
        },
        {
          "duration": 0.13888500000000192,
          "durationTicks": 192,
          "midi": 84,
          "name": "C6",
          "ticks": 128256,
          "time": 100.35295,
          "velocity": 0.968503937007874
        },
        {
          "duration": 0.13888500000000192,
          "durationTicks": 192,
          "midi": 63,
          "name": "D#4",
          "ticks": 128448,
          "time": 100.49183500000001,
          "velocity": 0.968503937007874
        },
        {
          "duration": 0.13888500000000192,
          "durationTicks": 192,
          "midi": 72,
          "name": "C5",
          "ticks": 128448,
          "time": 100.49183500000001,
          "velocity": 0.968503937007874
        },
        {
          "duration": 0.13888500000000192,
          "durationTicks": 192,
          "midi": 87,
          "name": "D#6",
          "ticks": 128448,
          "time": 100.49183500000001,
          "velocity": 0.968503937007874
        },
        {
          "duration": 0.13888500000000192,
          "durationTicks": 192,
          "midi": 63,
          "name": "D#4",
          "ticks": 128640,
          "time": 100.63072000000001,
          "velocity": 0.968503937007874
        },
        {
          "duration": 0.13888500000000192,
          "durationTicks": 192,
          "midi": 72,
          "name": "C5",
          "ticks": 128640,
          "time": 100.63072000000001,
          "velocity": 0.968503937007874
        },
        {
          "duration": 0.13888500000000192,
          "durationTicks": 192,
          "midi": 87,
          "name": "D#6",
          "ticks": 128640,
          "time": 100.63072000000001,
          "velocity": 0.968503937007874
        },
        {
          "duration": 0.1388849999999877,
          "durationTicks": 192,
          "midi": 63,
          "name": "D#4",
          "ticks": 128832,
          "time": 100.76960500000001,
          "velocity": 0.968503937007874
        },
        {
          "duration": 0.1388849999999877,
          "durationTicks": 192,
          "midi": 72,
          "name": "C5",
          "ticks": 128832,
          "time": 100.76960500000001,
          "velocity": 0.968503937007874
        },
        {
          "duration": 0.1388849999999877,
          "durationTicks": 192,
          "midi": 87,
          "name": "D#6",
          "ticks": 128832,
          "time": 100.76960500000001,
          "velocity": 0.968503937007874
        },
        {
          "duration": 0.13888500000000192,
          "durationTicks": 192,
          "midi": 63,
          "name": "D#4",
          "ticks": 129024,
          "time": 100.90849,
          "velocity": 0.968503937007874
        },
        {
          "duration": 0.13888500000000192,
          "durationTicks": 192,
          "midi": 72,
          "name": "C5",
          "ticks": 129024,
          "time": 100.90849,
          "velocity": 0.968503937007874
        },
        {
          "duration": 0.13888500000000192,
          "durationTicks": 192,
          "midi": 84,
          "name": "C6",
          "ticks": 129024,
          "time": 100.90849,
          "velocity": 0.968503937007874
        },
        {
          "duration": 0.13888500000000192,
          "durationTicks": 192,
          "midi": 63,
          "name": "D#4",
          "ticks": 129216,
          "time": 101.047375,
          "velocity": 0.968503937007874
        },
        {
          "duration": 0.13888500000000192,
          "durationTicks": 192,
          "midi": 72,
          "name": "C5",
          "ticks": 129216,
          "time": 101.047375,
          "velocity": 0.968503937007874
        },
        {
          "duration": 0.13888500000000192,
          "durationTicks": 192,
          "midi": 79,
          "name": "G5",
          "ticks": 129216,
          "time": 101.047375,
          "velocity": 0.968503937007874
        },
        {
          "duration": 0.13888500000000192,
          "durationTicks": 192,
          "midi": 63,
          "name": "D#4",
          "ticks": 129408,
          "time": 101.18626,
          "velocity": 0.968503937007874
        },
        {
          "duration": 0.13888500000000192,
          "durationTicks": 192,
          "midi": 72,
          "name": "C5",
          "ticks": 129408,
          "time": 101.18626,
          "velocity": 0.968503937007874
        },
        {
          "duration": 0.13888500000000192,
          "durationTicks": 192,
          "midi": 79,
          "name": "G5",
          "ticks": 129408,
          "time": 101.18626,
          "velocity": 0.968503937007874
        },
        {
          "duration": 0.13888500000000192,
          "durationTicks": 192,
          "midi": 63,
          "name": "D#4",
          "ticks": 129600,
          "time": 101.325145,
          "velocity": 0.968503937007874
        },
        {
          "duration": 0.13888500000000192,
          "durationTicks": 192,
          "midi": 72,
          "name": "C5",
          "ticks": 129600,
          "time": 101.325145,
          "velocity": 0.968503937007874
        },
        {
          "duration": 0.13888500000000192,
          "durationTicks": 192,
          "midi": 79,
          "name": "G5",
          "ticks": 129600,
          "time": 101.325145,
          "velocity": 0.968503937007874
        },
        {
          "duration": 0.13888500000000192,
          "durationTicks": 192,
          "midi": 63,
          "name": "D#4",
          "ticks": 129792,
          "time": 101.46403000000001,
          "velocity": 0.968503937007874
        },
        {
          "duration": 0.13888500000000192,
          "durationTicks": 192,
          "midi": 72,
          "name": "C5",
          "ticks": 129792,
          "time": 101.46403000000001,
          "velocity": 0.968503937007874
        },
        {
          "duration": 0.13888500000000192,
          "durationTicks": 192,
          "midi": 75,
          "name": "D#5",
          "ticks": 129792,
          "time": 101.46403000000001,
          "velocity": 0.968503937007874
        },
        {
          "duration": 0.13888500000000192,
          "durationTicks": 192,
          "midi": 63,
          "name": "D#4",
          "ticks": 129984,
          "time": 101.60291500000001,
          "velocity": 0.968503937007874
        },
        {
          "duration": 0.13888500000000192,
          "durationTicks": 192,
          "midi": 72,
          "name": "C5",
          "ticks": 129984,
          "time": 101.60291500000001,
          "velocity": 0.968503937007874
        },
        {
          "duration": 0.13888500000000192,
          "durationTicks": 192,
          "midi": 72,
          "name": "C5",
          "ticks": 129984,
          "time": 101.60291500000001,
          "velocity": 0.968503937007874
        },
        {
          "duration": 0.13888500000000192,
          "durationTicks": 192,
          "midi": 63,
          "name": "D#4",
          "ticks": 130176,
          "time": 101.74180000000001,
          "velocity": 0.968503937007874
        },
        {
          "duration": 0.13888500000000192,
          "durationTicks": 192,
          "midi": 72,
          "name": "C5",
          "ticks": 130176,
          "time": 101.74180000000001,
          "velocity": 0.968503937007874
        },
        {
          "duration": 0.13888500000000192,
          "durationTicks": 192,
          "midi": 67,
          "name": "G4",
          "ticks": 130176,
          "time": 101.74180000000001,
          "velocity": 0.968503937007874
        },
        {
          "duration": 0.1388849999999877,
          "durationTicks": 192,
          "midi": 63,
          "name": "D#4",
          "ticks": 130368,
          "time": 101.88068500000001,
          "velocity": 0.968503937007874
        },
        {
          "duration": 0.1388849999999877,
          "durationTicks": 192,
          "midi": 72,
          "name": "C5",
          "ticks": 130368,
          "time": 101.88068500000001,
          "velocity": 0.968503937007874
        },
        {
          "duration": 0.1388849999999877,
          "durationTicks": 192,
          "midi": 67,
          "name": "G4",
          "ticks": 130368,
          "time": 101.88068500000001,
          "velocity": 0.968503937007874
        },
        {
          "duration": 0.13888500000000192,
          "durationTicks": 192,
          "midi": 63,
          "name": "D#4",
          "ticks": 130560,
          "time": 102.01957,
          "velocity": 0.968503937007874
        },
        {
          "duration": 0.13888500000000192,
          "durationTicks": 192,
          "midi": 72,
          "name": "C5",
          "ticks": 130560,
          "time": 102.01957,
          "velocity": 0.968503937007874
        },
        {
          "duration": 0.13888500000000192,
          "durationTicks": 192,
          "midi": 63,
          "name": "D#4",
          "ticks": 130560,
          "time": 102.01957,
          "velocity": 0.968503937007874
        },
        {
          "duration": 0.13888500000000192,
          "durationTicks": 192,
          "midi": 63,
          "name": "D#4",
          "ticks": 130752,
          "time": 102.158455,
          "velocity": 0.968503937007874
        },
        {
          "duration": 0.13888500000000192,
          "durationTicks": 192,
          "midi": 72,
          "name": "C5",
          "ticks": 130752,
          "time": 102.158455,
          "velocity": 0.968503937007874
        },
        {
          "duration": 0.13888500000000192,
          "durationTicks": 192,
          "midi": 60,
          "name": "C4",
          "ticks": 130752,
          "time": 102.158455,
          "velocity": 0.968503937007874
        },
        {
          "duration": 0.13888500000000192,
          "durationTicks": 192,
          "midi": 63,
          "name": "D#4",
          "ticks": 130944,
          "time": 102.29734,
          "velocity": 0.968503937007874
        },
        {
          "duration": 0.13888500000000192,
          "durationTicks": 192,
          "midi": 72,
          "name": "C5",
          "ticks": 130944,
          "time": 102.29734,
          "velocity": 0.968503937007874
        },
        {
          "duration": 0.13888500000000192,
          "durationTicks": 192,
          "midi": 60,
          "name": "C4",
          "ticks": 130944,
          "time": 102.29734,
          "velocity": 0.968503937007874
        },
        {
          "duration": 0.13888500000000192,
          "durationTicks": 192,
          "midi": 63,
          "name": "D#4",
          "ticks": 131136,
          "time": 102.43622500000001,
          "velocity": 0.968503937007874
        },
        {
          "duration": 0.13888500000000192,
          "durationTicks": 192,
          "midi": 72,
          "name": "C5",
          "ticks": 131136,
          "time": 102.43622500000001,
          "velocity": 0.968503937007874
        },
        {
          "duration": 0.13888500000000192,
          "durationTicks": 192,
          "midi": 60,
          "name": "C4",
          "ticks": 131136,
          "time": 102.43622500000001,
          "velocity": 0.968503937007874
        },
        {
          "duration": 0.13888500000000192,
          "durationTicks": 192,
          "midi": 62,
          "name": "D4",
          "ticks": 131328,
          "time": 102.57511000000001,
          "velocity": 0.968503937007874
        },
        {
          "duration": 0.13888500000000192,
          "durationTicks": 192,
          "midi": 71,
          "name": "B4",
          "ticks": 131328,
          "time": 102.57511000000001,
          "velocity": 0.968503937007874
        },
        {
          "duration": 0.13888500000000192,
          "durationTicks": 192,
          "midi": 59,
          "name": "B3",
          "ticks": 131328,
          "time": 102.57511000000001,
          "velocity": 0.968503937007874
        },
        {
          "duration": 0.13888500000000192,
          "durationTicks": 192,
          "midi": 77,
          "name": "F5",
          "ticks": 131520,
          "time": 102.71399500000001,
          "velocity": 0.968503937007874
        },
        {
          "duration": 0.13888500000000192,
          "durationTicks": 192,
          "midi": 89,
          "name": "F6",
          "ticks": 131520,
          "time": 102.71399500000001,
          "velocity": 0.968503937007874
        },
        {
          "duration": 0.1388849999999877,
          "durationTicks": 192,
          "midi": 74,
          "name": "D5",
          "ticks": 131712,
          "time": 102.85288000000001,
          "velocity": 0.968503937007874
        },
        {
          "duration": 0.1388849999999877,
          "durationTicks": 192,
          "midi": 86,
          "name": "D6",
          "ticks": 131712,
          "time": 102.85288000000001,
          "velocity": 0.968503937007874
        },
        {
          "duration": 0.13888500000000192,
          "durationTicks": 192,
          "midi": 74,
          "name": "D5",
          "ticks": 131904,
          "time": 102.991765,
          "velocity": 0.968503937007874
        },
        {
          "duration": 0.13888500000000192,
          "durationTicks": 192,
          "midi": 86,
          "name": "D6",
          "ticks": 131904,
          "time": 102.991765,
          "velocity": 0.968503937007874
        },
        {
          "duration": 0.13888500000000192,
          "durationTicks": 192,
          "midi": 71,
          "name": "B4",
          "ticks": 132096,
          "time": 103.13065,
          "velocity": 0.968503937007874
        },
        {
          "duration": 0.13888500000000192,
          "durationTicks": 192,
          "midi": 83,
          "name": "B5",
          "ticks": 132096,
          "time": 103.13065,
          "velocity": 0.968503937007874
        },
        {
          "duration": 0.13888500000000192,
          "durationTicks": 192,
          "midi": 67,
          "name": "G4",
          "ticks": 132288,
          "time": 103.269535,
          "velocity": 0.968503937007874
        },
        {
          "duration": 0.13888500000000192,
          "durationTicks": 192,
          "midi": 79,
          "name": "G5",
          "ticks": 132288,
          "time": 103.269535,
          "velocity": 0.968503937007874
        },
        {
          "duration": 0.13888500000000192,
          "durationTicks": 192,
          "midi": 65,
          "name": "F4",
          "ticks": 132480,
          "time": 103.40842,
          "velocity": 0.968503937007874
        },
        {
          "duration": 0.13888500000000192,
          "durationTicks": 192,
          "midi": 77,
          "name": "F5",
          "ticks": 132480,
          "time": 103.40842,
          "velocity": 0.968503937007874
        },
        {
          "duration": 0.13888500000000192,
          "durationTicks": 192,
          "midi": 65,
          "name": "F4",
          "ticks": 132672,
          "time": 103.54730500000001,
          "velocity": 0.968503937007874
        },
        {
          "duration": 0.13888500000000192,
          "durationTicks": 192,
          "midi": 77,
          "name": "F5",
          "ticks": 132672,
          "time": 103.54730500000001,
          "velocity": 0.968503937007874
        },
        {
          "duration": 0.13888500000000192,
          "durationTicks": 192,
          "midi": 62,
          "name": "D4",
          "ticks": 132864,
          "time": 103.68619000000001,
          "velocity": 0.968503937007874
        },
        {
          "duration": 0.13888500000000192,
          "durationTicks": 192,
          "midi": 74,
          "name": "D5",
          "ticks": 132864,
          "time": 103.68619000000001,
          "velocity": 0.968503937007874
        },
        {
          "duration": 0.13888500000000192,
          "durationTicks": 192,
          "midi": 59,
          "name": "B3",
          "ticks": 133056,
          "time": 103.82507500000001,
          "velocity": 0.968503937007874
        },
        {
          "duration": 0.13888500000000192,
          "durationTicks": 192,
          "midi": 71,
          "name": "B4",
          "ticks": 133056,
          "time": 103.82507500000001,
          "velocity": 0.968503937007874
        },
        {
          "duration": 0.1388849999999877,
          "durationTicks": 192,
          "midi": 55,
          "name": "G3",
          "ticks": 133248,
          "time": 103.96396000000001,
          "velocity": 0.968503937007874
        },
        {
          "duration": 0.1388849999999877,
          "durationTicks": 192,
          "midi": 67,
          "name": "G4",
          "ticks": 133248,
          "time": 103.96396000000001,
          "velocity": 0.968503937007874
        },
        {
          "duration": 0.13888500000000192,
          "durationTicks": 192,
          "midi": 65,
          "name": "F4",
          "ticks": 133440,
          "time": 104.102845,
          "velocity": 0.968503937007874
        },
        {
          "duration": 0.13888500000000192,
          "durationTicks": 192,
          "midi": 65,
          "name": "F4",
          "ticks": 133440,
          "time": 104.102845,
          "velocity": 0.968503937007874
        },
        {
          "duration": 0.13888500000000192,
          "durationTicks": 192,
          "midi": 62,
          "name": "D4",
          "ticks": 133632,
          "time": 104.24173,
          "velocity": 0.968503937007874
        },
        {
          "duration": 0.13888500000000192,
          "durationTicks": 192,
          "midi": 62,
          "name": "D4",
          "ticks": 133632,
          "time": 104.24173,
          "velocity": 0.968503937007874
        },
        {
          "duration": 0.13888500000000192,
          "durationTicks": 192,
          "midi": 59,
          "name": "B3",
          "ticks": 133824,
          "time": 104.380615,
          "velocity": 0.968503937007874
        },
        {
          "duration": 0.13888500000000192,
          "durationTicks": 192,
          "midi": 59,
          "name": "B3",
          "ticks": 133824,
          "time": 104.380615,
          "velocity": 0.968503937007874
        },
        {
          "duration": 0.13888500000000192,
          "durationTicks": 192,
          "midi": 60,
          "name": "C4",
          "ticks": 134016,
          "time": 104.51950000000001,
          "velocity": 0.968503937007874
        },
        {
          "duration": 0.13888500000000192,
          "durationTicks": 192,
          "midi": 60,
          "name": "C4",
          "ticks": 134016,
          "time": 104.51950000000001,
          "velocity": 0.968503937007874
        },
        {
          "duration": 0.13888500000000192,
          "durationTicks": 192,
          "midi": 60,
          "name": "C4",
          "ticks": 134208,
          "time": 104.65838500000001,
          "velocity": 0.968503937007874
        },
        {
          "duration": 0.13888500000000192,
          "durationTicks": 192,
          "midi": 60,
          "name": "C4",
          "ticks": 134208,
          "time": 104.65838500000001,
          "velocity": 0.968503937007874
        },
        {
          "duration": 0.13888500000000192,
          "durationTicks": 192,
          "midi": 72,
          "name": "C5",
          "ticks": 134400,
          "time": 104.79727000000001,
          "velocity": 0.968503937007874
        },
        {
          "duration": 0.13888500000000192,
          "durationTicks": 192,
          "midi": 60,
          "name": "C4",
          "ticks": 134400,
          "time": 104.79727000000001,
          "velocity": 0.968503937007874
        },
        {
          "duration": 0.1388849999999877,
          "durationTicks": 192,
          "midi": 75,
          "name": "D#5",
          "ticks": 134592,
          "time": 104.93615500000001,
          "velocity": 0.968503937007874
        },
        {
          "duration": 0.1388849999999877,
          "durationTicks": 192,
          "midi": 87,
          "name": "D#6",
          "ticks": 134592,
          "time": 104.93615500000001,
          "velocity": 0.968503937007874
        },
        {
          "duration": 0.13888500000000192,
          "durationTicks": 192,
          "midi": 75,
          "name": "D#5",
          "ticks": 134784,
          "time": 105.07504,
          "velocity": 0.968503937007874
        },
        {
          "duration": 0.13888500000000192,
          "durationTicks": 192,
          "midi": 87,
          "name": "D#6",
          "ticks": 134784,
          "time": 105.07504,
          "velocity": 0.968503937007874
        },
        {
          "duration": 0.13888500000000192,
          "durationTicks": 192,
          "midi": 75,
          "name": "D#5",
          "ticks": 134976,
          "time": 105.213925,
          "velocity": 0.968503937007874
        },
        {
          "duration": 0.13888500000000192,
          "durationTicks": 192,
          "midi": 87,
          "name": "D#6",
          "ticks": 134976,
          "time": 105.213925,
          "velocity": 0.968503937007874
        },
        {
          "duration": 0.13888500000000192,
          "durationTicks": 192,
          "midi": 72,
          "name": "C5",
          "ticks": 135168,
          "time": 105.35281,
          "velocity": 0.968503937007874
        },
        {
          "duration": 0.13888500000000192,
          "durationTicks": 192,
          "midi": 84,
          "name": "C6",
          "ticks": 135168,
          "time": 105.35281,
          "velocity": 0.968503937007874
        },
        {
          "duration": 0.13888500000000192,
          "durationTicks": 192,
          "midi": 69,
          "name": "A4",
          "ticks": 135360,
          "time": 105.491695,
          "velocity": 0.968503937007874
        },
        {
          "duration": 0.13888500000000192,
          "durationTicks": 192,
          "midi": 81,
          "name": "A5",
          "ticks": 135360,
          "time": 105.491695,
          "velocity": 0.968503937007874
        },
        {
          "duration": 0.13888500000000192,
          "durationTicks": 192,
          "midi": 69,
          "name": "A4",
          "ticks": 135552,
          "time": 105.63058000000001,
          "velocity": 0.968503937007874
        },
        {
          "duration": 0.13888500000000192,
          "durationTicks": 192,
          "midi": 81,
          "name": "A5",
          "ticks": 135552,
          "time": 105.63058000000001,
          "velocity": 0.968503937007874
        },
        {
          "duration": 0.13888500000000192,
          "durationTicks": 192,
          "midi": 69,
          "name": "A4",
          "ticks": 135744,
          "time": 105.76946500000001,
          "velocity": 0.968503937007874
        },
        {
          "duration": 0.13888500000000192,
          "durationTicks": 192,
          "midi": 81,
          "name": "A5",
          "ticks": 135744,
          "time": 105.76946500000001,
          "velocity": 0.968503937007874
        },
        {
          "duration": 0.1388849999999877,
          "durationTicks": 192,
          "midi": 66,
          "name": "F#4",
          "ticks": 135936,
          "time": 105.90835000000001,
          "velocity": 0.968503937007874
        },
        {
          "duration": 0.1388849999999877,
          "durationTicks": 192,
          "midi": 78,
          "name": "F#5",
          "ticks": 135936,
          "time": 105.90835000000001,
          "velocity": 0.968503937007874
        },
        {
          "duration": 0.13888500000000192,
          "durationTicks": 192,
          "midi": 63,
          "name": "D#4",
          "ticks": 136128,
          "time": 106.047235,
          "velocity": 0.968503937007874
        },
        {
          "duration": 0.13888500000000192,
          "durationTicks": 192,
          "midi": 75,
          "name": "D#5",
          "ticks": 136128,
          "time": 106.047235,
          "velocity": 0.968503937007874
        },
        {
          "duration": 0.13888500000000192,
          "durationTicks": 192,
          "midi": 63,
          "name": "D#4",
          "ticks": 136320,
          "time": 106.18612,
          "velocity": 0.968503937007874
        },
        {
          "duration": 0.13888500000000192,
          "durationTicks": 192,
          "midi": 75,
          "name": "D#5",
          "ticks": 136320,
          "time": 106.18612,
          "velocity": 0.968503937007874
        },
        {
          "duration": 0.13888500000000192,
          "durationTicks": 192,
          "midi": 63,
          "name": "D#4",
          "ticks": 136512,
          "time": 106.325005,
          "velocity": 0.968503937007874
        },
        {
          "duration": 0.13888500000000192,
          "durationTicks": 192,
          "midi": 75,
          "name": "D#5",
          "ticks": 136512,
          "time": 106.325005,
          "velocity": 0.968503937007874
        },
        {
          "duration": 0.13888500000000192,
          "durationTicks": 192,
          "midi": 60,
          "name": "C4",
          "ticks": 136704,
          "time": 106.46389,
          "velocity": 0.968503937007874
        },
        {
          "duration": 0.13888500000000192,
          "durationTicks": 192,
          "midi": 72,
          "name": "C5",
          "ticks": 136704,
          "time": 106.46389,
          "velocity": 0.968503937007874
        },
        {
          "duration": 0.13888500000000192,
          "durationTicks": 192,
          "midi": 57,
          "name": "A3",
          "ticks": 136896,
          "time": 106.60277500000001,
          "velocity": 0.968503937007874
        },
        {
          "duration": 0.13888500000000192,
          "durationTicks": 192,
          "midi": 69,
          "name": "A4",
          "ticks": 136896,
          "time": 106.60277500000001,
          "velocity": 0.968503937007874
        },
        {
          "duration": 0.13888500000000192,
          "durationTicks": 192,
          "midi": 57,
          "name": "A3",
          "ticks": 136896,
          "time": 106.60277500000001,
          "velocity": 0.968503937007874
        },
        {
          "duration": 0.13888500000000192,
          "durationTicks": 192,
          "midi": 69,
          "name": "A4",
          "ticks": 136896,
          "time": 106.60277500000001,
          "velocity": 0.968503937007874
        },
        {
          "duration": 0.13888500000000192,
          "durationTicks": 192,
          "midi": 57,
          "name": "A3",
          "ticks": 137088,
          "time": 106.74166000000001,
          "velocity": 0.968503937007874
        },
        {
          "duration": 0.13888500000000192,
          "durationTicks": 192,
          "midi": 69,
          "name": "A4",
          "ticks": 137088,
          "time": 106.74166000000001,
          "velocity": 0.968503937007874
        },
        {
          "duration": 0.13888500000000192,
          "durationTicks": 192,
          "midi": 57,
          "name": "A3",
          "ticks": 137088,
          "time": 106.74166000000001,
          "velocity": 0.968503937007874
        },
        {
          "duration": 0.13888500000000192,
          "durationTicks": 192,
          "midi": 69,
          "name": "A4",
          "ticks": 137088,
          "time": 106.74166000000001,
          "velocity": 0.968503937007874
        },
        {
          "duration": 0.1388849999999877,
          "durationTicks": 192,
          "midi": 57,
          "name": "A3",
          "ticks": 137280,
          "time": 106.88054500000001,
          "velocity": 0.968503937007874
        },
        {
          "duration": 0.1388849999999877,
          "durationTicks": 192,
          "midi": 69,
          "name": "A4",
          "ticks": 137280,
          "time": 106.88054500000001,
          "velocity": 0.968503937007874
        },
        {
          "duration": 0.1388849999999877,
          "durationTicks": 192,
          "midi": 57,
          "name": "A3",
          "ticks": 137280,
          "time": 106.88054500000001,
          "velocity": 0.968503937007874
        },
        {
          "duration": 0.1388849999999877,
          "durationTicks": 192,
          "midi": 69,
          "name": "A4",
          "ticks": 137280,
          "time": 106.88054500000001,
          "velocity": 0.968503937007874
        },
        {
          "duration": 0.27777000000000385,
          "durationTicks": 384,
          "midi": 57,
          "name": "A3",
          "ticks": 137472,
          "time": 107.01943,
          "velocity": 0.968503937007874
        },
        {
          "duration": 0.27777000000000385,
          "durationTicks": 384,
          "midi": 69,
          "name": "A4",
          "ticks": 137472,
          "time": 107.01943,
          "velocity": 0.968503937007874
        },
        {
          "duration": 0.27777000000000385,
          "durationTicks": 384,
          "midi": 57,
          "name": "A3",
          "ticks": 137472,
          "time": 107.01943,
          "velocity": 0.968503937007874
        },
        {
          "duration": 0.27777000000000385,
          "durationTicks": 384,
          "midi": 69,
          "name": "A4",
          "ticks": 137472,
          "time": 107.01943,
          "velocity": 0.968503937007874
        },
        {
          "duration": 0.27777000000000385,
          "durationTicks": 384,
          "midi": 58,
          "name": "A#3",
          "ticks": 139008,
          "time": 108.13051,
          "velocity": 0.968503937007874
        },
        {
          "duration": 0.27777000000000385,
          "durationTicks": 384,
          "midi": 65,
          "name": "F4",
          "ticks": 139008,
          "time": 108.13051,
          "velocity": 0.968503937007874
        },
        {
          "duration": 0.27777000000000385,
          "durationTicks": 384,
          "midi": 70,
          "name": "A#4",
          "ticks": 139008,
          "time": 108.13051,
          "velocity": 0.968503937007874
        },
        {
          "duration": 0.27777000000000385,
          "durationTicks": 384,
          "midi": 58,
          "name": "A#3",
          "ticks": 139008,
          "time": 108.13051,
          "velocity": 0.968503937007874
        },
        {
          "duration": 0.27777000000000385,
          "durationTicks": 384,
          "midi": 65,
          "name": "F4",
          "ticks": 139008,
          "time": 108.13051,
          "velocity": 0.968503937007874
        },
        {
          "duration": 0.27777000000000385,
          "durationTicks": 384,
          "midi": 70,
          "name": "A#4",
          "ticks": 139008,
          "time": 108.13051,
          "velocity": 0.968503937007874
        },
        {
          "duration": 0.5769200000000012,
          "durationTicks": 768,
          "midi": 67,
          "name": "G4",
          "ticks": 142848,
          "time": 110.99373000000001,
          "velocity": 0.7165354330708661
        },
        {
          "duration": 0.2884600000000006,
          "durationTicks": 384,
          "midi": 70,
          "name": "A#4",
          "ticks": 142848,
          "time": 110.99373000000001,
          "velocity": 0.7165354330708661
        },
        {
          "duration": 0.2884600000000006,
          "durationTicks": 384,
          "midi": 75,
          "name": "D#5",
          "ticks": 143232,
          "time": 111.28219000000001,
          "velocity": 0.7165354330708661
        },
        {
          "duration": 0.576919999999987,
          "durationTicks": 768,
          "midi": 68,
          "name": "G#4",
          "ticks": 143616,
          "time": 111.57065000000001,
          "velocity": 0.7165354330708661
        },
        {
          "duration": 0.2884600000000006,
          "durationTicks": 384,
          "midi": 74,
          "name": "D5",
          "ticks": 143616,
          "time": 111.57065000000001,
          "velocity": 0.7165354330708661
        },
        {
          "duration": 0.2884599999999864,
          "durationTicks": 384,
          "midi": 75,
          "name": "D#5",
          "ticks": 144000,
          "time": 111.85911000000002,
          "velocity": 0.7165354330708661
        },
        {
          "duration": 0.5769200000000012,
          "durationTicks": 768,
          "midi": 68,
          "name": "G#4",
          "ticks": 144384,
          "time": 112.14757,
          "velocity": 0.7165354330708661
        },
        {
          "duration": 0.2884600000000006,
          "durationTicks": 384,
          "midi": 77,
          "name": "F5",
          "ticks": 144384,
          "time": 112.14757,
          "velocity": 0.7165354330708661
        },
        {
          "duration": 0.2884600000000006,
          "durationTicks": 384,
          "midi": 72,
          "name": "C5",
          "ticks": 144768,
          "time": 112.43603,
          "velocity": 0.7165354330708661
        },
        {
          "duration": 0.5769200000000012,
          "durationTicks": 768,
          "midi": 67,
          "name": "G4",
          "ticks": 145152,
          "time": 112.72449,
          "velocity": 0.7165354330708661
        },
        {
          "duration": 0.2884600000000006,
          "durationTicks": 384,
          "midi": 72,
          "name": "C5",
          "ticks": 145152,
          "time": 112.72449,
          "velocity": 0.7165354330708661
        },
        {
          "duration": 0.2884600000000006,
          "durationTicks": 384,
          "midi": 70,
          "name": "A#4",
          "ticks": 145536,
          "time": 113.01295,
          "velocity": 0.7165354330708661
        },
        {
          "duration": 0.5769200000000012,
          "durationTicks": 768,
          "midi": 67,
          "name": "G4",
          "ticks": 145920,
          "time": 113.30141,
          "velocity": 0.7165354330708661
        },
        {
          "duration": 0.5660199999999946,
          "durationTicks": 768,
          "midi": 68,
          "name": "G#4",
          "ticks": 146688,
          "time": 113.87833,
          "velocity": 0.7165354330708661
        },
        {
          "duration": 0.5660200000000088,
          "durationTicks": 768,
          "midi": 68,
          "name": "G#4",
          "ticks": 147456,
          "time": 114.44435,
          "velocity": 0.7165354330708661
        },
        {
          "duration": 0.5660199999999946,
          "durationTicks": 768,
          "midi": 67,
          "name": "G4",
          "ticks": 148224,
          "time": 115.01037000000001,
          "velocity": 0.7165354330708661
        },
        {
          "duration": 0.5660200000000088,
          "durationTicks": 768,
          "midi": 67,
          "name": "G4",
          "ticks": 148992,
          "time": 115.57639,
          "velocity": 0.7165354330708661
        },
        {
          "duration": 0.2830100000000044,
          "durationTicks": 384,
          "midi": 70,
          "name": "A#4",
          "ticks": 148992,
          "time": 115.57639,
          "velocity": 0.7165354330708661
        },
        {
          "duration": 0.2830100000000044,
          "durationTicks": 384,
          "midi": 75,
          "name": "D#5",
          "ticks": 149376,
          "time": 115.85940000000001,
          "velocity": 0.7165354330708661
        },
        {
          "duration": 0.5555399999999935,
          "durationTicks": 768,
          "midi": 68,
          "name": "G#4",
          "ticks": 149760,
          "time": 116.14241000000001,
          "velocity": 0.7165354330708661
        },
        {
          "duration": 0.27777000000000385,
          "durationTicks": 384,
          "midi": 74,
          "name": "D5",
          "ticks": 149760,
          "time": 116.14241000000001,
          "velocity": 0.7165354330708661
        },
        {
          "duration": 0.27776999999998964,
          "durationTicks": 384,
          "midi": 75,
          "name": "D#5",
          "ticks": 150144,
          "time": 116.42018000000002,
          "velocity": 0.7165354330708661
        },
        {
          "duration": 0.5555400000000077,
          "durationTicks": 768,
          "midi": 68,
          "name": "G#4",
          "ticks": 150528,
          "time": 116.69795,
          "velocity": 0.7165354330708661
        },
        {
          "duration": 0.27777000000000385,
          "durationTicks": 384,
          "midi": 77,
          "name": "F5",
          "ticks": 150528,
          "time": 116.69795,
          "velocity": 0.7165354330708661
        },
        {
          "duration": 0.27777000000000385,
          "durationTicks": 384,
          "midi": 72,
          "name": "C5",
          "ticks": 150912,
          "time": 116.97572000000001,
          "velocity": 0.7165354330708661
        },
        {
          "duration": 0.5555399999999935,
          "durationTicks": 768,
          "midi": 67,
          "name": "G4",
          "ticks": 151296,
          "time": 117.25349000000001,
          "velocity": 0.7165354330708661
        },
        {
          "duration": 0.27777000000000385,
          "durationTicks": 384,
          "midi": 72,
          "name": "C5",
          "ticks": 151296,
          "time": 117.25349000000001,
          "velocity": 0.7165354330708661
        },
        {
          "duration": 0.27776999999998964,
          "durationTicks": 384,
          "midi": 70,
          "name": "A#4",
          "ticks": 151680,
          "time": 117.53126000000002,
          "velocity": 0.7165354330708661
        },
        {
          "duration": 1.1110800000000012,
          "durationTicks": 1536,
          "midi": 67,
          "name": "G4",
          "ticks": 152064,
          "time": 117.80903,
          "velocity": 0.7165354330708661
        },
        {
          "duration": 0.27777000000000385,
          "durationTicks": 384,
          "midi": 70,
          "name": "A#4",
          "ticks": 152064,
          "time": 117.80903,
          "velocity": 0.7165354330708661
        },
        {
          "duration": 0.27777000000000385,
          "durationTicks": 384,
          "midi": 72,
          "name": "C5",
          "ticks": 152448,
          "time": 118.08680000000001,
          "velocity": 0.7165354330708661
        },
        {
          "duration": 0.27777000000000385,
          "durationTicks": 384,
          "midi": 73,
          "name": "C#5",
          "ticks": 152832,
          "time": 118.36457000000001,
          "velocity": 0.7165354330708661
        },
        {
          "duration": 0.27776999999998964,
          "durationTicks": 384,
          "midi": 72,
          "name": "C5",
          "ticks": 153216,
          "time": 118.64234000000002,
          "velocity": 0.7165354330708661
        },
        {
          "duration": 0.5555400000000077,
          "durationTicks": 768,
          "midi": 67,
          "name": "G4",
          "ticks": 153600,
          "time": 118.92011000000001,
          "velocity": 0.7165354330708661
        },
        {
          "duration": 0.27777000000000385,
          "durationTicks": 384,
          "midi": 70,
          "name": "A#4",
          "ticks": 153600,
          "time": 118.92011000000001,
          "velocity": 0.7165354330708661
        },
        {
          "duration": 0.27777000000000385,
          "durationTicks": 384,
          "midi": 72,
          "name": "C5",
          "ticks": 153984,
          "time": 119.19788000000001,
          "velocity": 0.7165354330708661
        },
        {
          "duration": 0.5555399999999935,
          "durationTicks": 768,
          "midi": 65,
          "name": "F4",
          "ticks": 154368,
          "time": 119.47565000000002,
          "velocity": 0.7165354330708661
        },
        {
          "duration": 0.27776999999998964,
          "durationTicks": 384,
          "midi": 70,
          "name": "A#4",
          "ticks": 154368,
          "time": 119.47565000000002,
          "velocity": 0.7165354330708661
        },
        {
          "duration": 0.27777000000000385,
          "durationTicks": 384,
          "midi": 68,
          "name": "G#4",
          "ticks": 154752,
          "time": 119.75342,
          "velocity": 0.7165354330708661
        },
        {
          "duration": 0.5555400000000077,
          "durationTicks": 768,
          "midi": 68,
          "name": "G#4",
          "ticks": 155136,
          "time": 120.03119000000001,
          "velocity": 0.7165354330708661
        },
        {
          "duration": 0.27777000000000385,
          "durationTicks": 384,
          "midi": 73,
          "name": "C#5",
          "ticks": 155136,
          "time": 120.03119000000001,
          "velocity": 0.7165354330708661
        },
        {
          "duration": 0.27777000000000385,
          "durationTicks": 384,
          "midi": 75,
          "name": "D#5",
          "ticks": 155520,
          "time": 120.30896000000001,
          "velocity": 0.7165354330708661
        },
        {
          "duration": 0.5555399999999935,
          "durationTicks": 768,
          "midi": 70,
          "name": "A#4",
          "ticks": 155904,
          "time": 120.58673000000002,
          "velocity": 0.7165354330708661
        },
        {
          "duration": 0.27776999999998964,
          "durationTicks": 384,
          "midi": 77,
          "name": "F5",
          "ticks": 155904,
          "time": 120.58673000000002,
          "velocity": 0.7165354330708661
        },
        {
          "duration": 0.27777000000000385,
          "durationTicks": 384,
          "midi": 75,
          "name": "D#5",
          "ticks": 156288,
          "time": 120.8645,
          "velocity": 0.7165354330708661
        },
        {
          "duration": 0.5555400000000077,
          "durationTicks": 768,
          "midi": 70,
          "name": "A#4",
          "ticks": 156672,
          "time": 121.14227000000001,
          "velocity": 0.7165354330708661
        },
        {
          "duration": 0.27777000000000385,
          "durationTicks": 384,
          "midi": 73,
          "name": "C#5",
          "ticks": 156672,
          "time": 121.14227000000001,
          "velocity": 0.7165354330708661
        },
        {
          "duration": 0.27777000000000385,
          "durationTicks": 384,
          "midi": 75,
          "name": "D#5",
          "ticks": 157056,
          "time": 121.42004000000001,
          "velocity": 0.7165354330708661
        },
        {
          "duration": 0.5555399999999935,
          "durationTicks": 768,
          "midi": 68,
          "name": "G#4",
          "ticks": 157440,
          "time": 121.69781000000002,
          "velocity": 0.7165354330708661
        },
        {
          "duration": 0.27776999999998964,
          "durationTicks": 384,
          "midi": 73,
          "name": "C#5",
          "ticks": 157440,
          "time": 121.69781000000002,
          "velocity": 0.7165354330708661
        },
        {
          "duration": 0.27777000000000385,
          "durationTicks": 384,
          "midi": 72,
          "name": "C5",
          "ticks": 157824,
          "time": 121.97558000000001,
          "velocity": 0.7165354330708661
        },
        {
          "duration": 0.27777000000000385,
          "durationTicks": 384,
          "midi": 63,
          "name": "D#4",
          "ticks": 158208,
          "time": 122.25335000000001,
          "velocity": 0.7165354330708661
        },
        {
          "duration": 0.27777000000000385,
          "durationTicks": 384,
          "midi": 75,
          "name": "D#5",
          "ticks": 158208,
          "time": 122.25335000000001,
          "velocity": 0.7165354330708661
        },
        {
          "duration": 0.27777000000000385,
          "durationTicks": 384,
          "midi": 65,
          "name": "F4",
          "ticks": 158592,
          "time": 122.53112000000002,
          "velocity": 0.7165354330708661
        },
        {
          "duration": 0.27777000000000385,
          "durationTicks": 384,
          "midi": 77,
          "name": "F5",
          "ticks": 158592,
          "time": 122.53112000000002,
          "velocity": 0.7165354330708661
        },
        {
          "duration": 0.27776999999998964,
          "durationTicks": 384,
          "midi": 66,
          "name": "F#4",
          "ticks": 158976,
          "time": 122.80889000000002,
          "velocity": 0.7165354330708661
        },
        {
          "duration": 0.27776999999998964,
          "durationTicks": 384,
          "midi": 78,
          "name": "F#5",
          "ticks": 158976,
          "time": 122.80889000000002,
          "velocity": 0.7165354330708661
        },
        {
          "duration": 0.27777000000000385,
          "durationTicks": 384,
          "midi": 65,
          "name": "F4",
          "ticks": 159360,
          "time": 123.08666000000001,
          "velocity": 0.7165354330708661
        },
        {
          "duration": 0.27777000000000385,
          "durationTicks": 384,
          "midi": 77,
          "name": "F5",
          "ticks": 159360,
          "time": 123.08666000000001,
          "velocity": 0.7165354330708661
        },
        {
          "duration": 0.27777000000000385,
          "durationTicks": 384,
          "midi": 63,
          "name": "D#4",
          "ticks": 159744,
          "time": 123.36443000000001,
          "velocity": 0.7165354330708661
        },
        {
          "duration": 0.27777000000000385,
          "durationTicks": 384,
          "midi": 75,
          "name": "D#5",
          "ticks": 159744,
          "time": 123.36443000000001,
          "velocity": 0.7165354330708661
        },
        {
          "duration": 0.27776999999998964,
          "durationTicks": 384,
          "midi": 65,
          "name": "F4",
          "ticks": 160128,
          "time": 123.64220000000002,
          "velocity": 0.7165354330708661
        },
        {
          "duration": 0.27776999999998964,
          "durationTicks": 384,
          "midi": 77,
          "name": "F5",
          "ticks": 160128,
          "time": 123.64220000000002,
          "velocity": 0.7165354330708661
        },
        {
          "duration": 0.27777000000000385,
          "durationTicks": 384,
          "midi": 66,
          "name": "F#4",
          "ticks": 160512,
          "time": 123.91997,
          "velocity": 0.7165354330708661
        },
        {
          "duration": 0.27777000000000385,
          "durationTicks": 384,
          "midi": 78,
          "name": "F#5",
          "ticks": 160512,
          "time": 123.91997,
          "velocity": 0.7165354330708661
        },
        {
          "duration": 0.27777000000000385,
          "durationTicks": 384,
          "midi": 65,
          "name": "F4",
          "ticks": 160896,
          "time": 124.19774000000001,
          "velocity": 0.7165354330708661
        },
        {
          "duration": 0.27777000000000385,
          "durationTicks": 384,
          "midi": 77,
          "name": "F5",
          "ticks": 160896,
          "time": 124.19774000000001,
          "velocity": 0.7165354330708661
        },
        {
          "duration": 0.27777000000000385,
          "durationTicks": 384,
          "midi": 63,
          "name": "D#4",
          "ticks": 161280,
          "time": 124.47551000000001,
          "velocity": 0.7165354330708661
        },
        {
          "duration": 0.27777000000000385,
          "durationTicks": 384,
          "midi": 75,
          "name": "D#5",
          "ticks": 161280,
          "time": 124.47551000000001,
          "velocity": 0.7165354330708661
        },
        {
          "duration": 0.27776999999998964,
          "durationTicks": 384,
          "midi": 65,
          "name": "F4",
          "ticks": 161664,
          "time": 124.75328000000002,
          "velocity": 0.7165354330708661
        },
        {
          "duration": 0.27776999999998964,
          "durationTicks": 384,
          "midi": 77,
          "name": "F5",
          "ticks": 161664,
          "time": 124.75328000000002,
          "velocity": 0.7165354330708661
        },
        {
          "duration": 0.27777000000000385,
          "durationTicks": 384,
          "midi": 66,
          "name": "F#4",
          "ticks": 162048,
          "time": 125.03105000000001,
          "velocity": 0.7952755905511811
        },
        {
          "duration": 0.27777000000000385,
          "durationTicks": 384,
          "midi": 78,
          "name": "F#5",
          "ticks": 162048,
          "time": 125.03105000000001,
          "velocity": 0.7952755905511811
        },
        {
          "duration": 0.27777000000000385,
          "durationTicks": 384,
          "midi": 65,
          "name": "F4",
          "ticks": 162432,
          "time": 125.30882000000001,
          "velocity": 0.7952755905511811
        },
        {
          "duration": 0.27777000000000385,
          "durationTicks": 384,
          "midi": 77,
          "name": "F5",
          "ticks": 162432,
          "time": 125.30882000000001,
          "velocity": 0.7952755905511811
        },
        {
          "duration": 0.27777000000000385,
          "durationTicks": 384,
          "midi": 63,
          "name": "D#4",
          "ticks": 162816,
          "time": 125.58659000000002,
          "velocity": 0.7952755905511811
        },
        {
          "duration": 0.27777000000000385,
          "durationTicks": 384,
          "midi": 75,
          "name": "D#5",
          "ticks": 162816,
          "time": 125.58659000000002,
          "velocity": 0.7952755905511811
        },
        {
          "duration": 0.27776999999998964,
          "durationTicks": 384,
          "midi": 65,
          "name": "F4",
          "ticks": 163200,
          "time": 125.86436000000002,
          "velocity": 0.7952755905511811
        },
        {
          "duration": 0.27776999999998964,
          "durationTicks": 384,
          "midi": 77,
          "name": "F5",
          "ticks": 163200,
          "time": 125.86436000000002,
          "velocity": 0.7952755905511811
        },
        {
          "duration": 0.27777000000000385,
          "durationTicks": 384,
          "midi": 66,
          "name": "F#4",
          "ticks": 163584,
          "time": 126.14213000000001,
          "velocity": 0.8582677165354331
        },
        {
          "duration": 0.27777000000000385,
          "durationTicks": 384,
          "midi": 78,
          "name": "F#5",
          "ticks": 163584,
          "time": 126.14213000000001,
          "velocity": 0.8582677165354331
        },
        {
          "duration": 0.27777000000000385,
          "durationTicks": 384,
          "midi": 65,
          "name": "F4",
          "ticks": 163968,
          "time": 126.41990000000001,
          "velocity": 0.8582677165354331
        },
        {
          "duration": 0.27777000000000385,
          "durationTicks": 384,
          "midi": 77,
          "name": "F5",
          "ticks": 163968,
          "time": 126.41990000000001,
          "velocity": 0.8582677165354331
        },
        {
          "duration": 0.27777000000000385,
          "durationTicks": 384,
          "midi": 63,
          "name": "D#4",
          "ticks": 164352,
          "time": 126.69767000000002,
          "velocity": 0.8582677165354331
        },
        {
          "duration": 0.27777000000000385,
          "durationTicks": 384,
          "midi": 75,
          "name": "D#5",
          "ticks": 164352,
          "time": 126.69767000000002,
          "velocity": 0.8582677165354331
        },
        {
          "duration": 0.27776999999998964,
          "durationTicks": 384,
          "midi": 65,
          "name": "F4",
          "ticks": 164736,
          "time": 126.97544000000002,
          "velocity": 0.8582677165354331
        },
        {
          "duration": 0.27776999999998964,
          "durationTicks": 384,
          "midi": 77,
          "name": "F5",
          "ticks": 164736,
          "time": 126.97544000000002,
          "velocity": 0.8582677165354331
        },
        {
          "duration": 0.27777000000000385,
          "durationTicks": 384,
          "midi": 66,
          "name": "F#4",
          "ticks": 165120,
          "time": 127.25321000000001,
          "velocity": 0.905511811023622
        },
        {
          "duration": 0.27777000000000385,
          "durationTicks": 384,
          "midi": 78,
          "name": "F#5",
          "ticks": 165120,
          "time": 127.25321000000001,
          "velocity": 0.905511811023622
        },
        {
          "duration": 0.27777000000000385,
          "durationTicks": 384,
          "midi": 65,
          "name": "F4",
          "ticks": 165504,
          "time": 127.53098000000001,
          "velocity": 0.905511811023622
        },
        {
          "duration": 0.27777000000000385,
          "durationTicks": 384,
          "midi": 77,
          "name": "F5",
          "ticks": 165504,
          "time": 127.53098000000001,
          "velocity": 0.905511811023622
        },
        {
          "duration": 0.27776999999998964,
          "durationTicks": 384,
          "midi": 66,
          "name": "F#4",
          "ticks": 165888,
          "time": 127.80875000000002,
          "velocity": 0.905511811023622
        },
        {
          "duration": 0.27776999999998964,
          "durationTicks": 384,
          "midi": 78,
          "name": "F#5",
          "ticks": 165888,
          "time": 127.80875000000002,
          "velocity": 0.905511811023622
        },
        {
          "duration": 0.27777000000000385,
          "durationTicks": 384,
          "midi": 69,
          "name": "A4",
          "ticks": 166272,
          "time": 128.08652,
          "velocity": 0.905511811023622
        },
        {
          "duration": 0.27777000000000385,
          "durationTicks": 384,
          "midi": 81,
          "name": "A5",
          "ticks": 166272,
          "time": 128.08652,
          "velocity": 0.905511811023622
        },
        {
          "duration": 0.6944249999999954,
          "durationTicks": 960,
          "midi": 70,
          "name": "A#4",
          "ticks": 166656,
          "time": 128.36429,
          "velocity": 0.968503937007874
        },
        {
          "duration": 0.6944249999999954,
          "durationTicks": 960,
          "midi": 82,
          "name": "A#5",
          "ticks": 166656,
          "time": 128.36429,
          "velocity": 0.968503937007874
        },
        {
          "duration": 0.6944249999999954,
          "durationTicks": 960,
          "midi": 70,
          "name": "A#4",
          "ticks": 166656,
          "time": 128.36429,
          "velocity": 0.968503937007874
        },
        {
          "duration": 0.6944249999999954,
          "durationTicks": 960,
          "midi": 82,
          "name": "A#5",
          "ticks": 166656,
          "time": 128.36429,
          "velocity": 0.968503937007874
        },
        {
          "duration": 0.13888500000001613,
          "durationTicks": 192,
          "midi": 84,
          "name": "C6",
          "ticks": 167616,
          "time": 129.058715,
          "velocity": 0.968503937007874
        },
        {
          "duration": 0.13888500000001613,
          "durationTicks": 192,
          "midi": 84,
          "name": "C6",
          "ticks": 167616,
          "time": 129.058715,
          "velocity": 0.968503937007874
        },
        {
          "duration": 0.1388849999999877,
          "durationTicks": 192,
          "midi": 82,
          "name": "A#5",
          "ticks": 167808,
          "time": 129.19760000000002,
          "velocity": 0.968503937007874
        },
        {
          "duration": 0.1388849999999877,
          "durationTicks": 192,
          "midi": 82,
          "name": "A#5",
          "ticks": 167808,
          "time": 129.19760000000002,
          "velocity": 0.968503937007874
        },
        {
          "duration": 0.1388849999999877,
          "durationTicks": 192,
          "midi": 80,
          "name": "G#5",
          "ticks": 168000,
          "time": 129.336485,
          "velocity": 0.968503937007874
        },
        {
          "duration": 0.1388849999999877,
          "durationTicks": 192,
          "midi": 80,
          "name": "G#5",
          "ticks": 168000,
          "time": 129.336485,
          "velocity": 0.968503937007874
        },
        {
          "duration": 0.13888500000001613,
          "durationTicks": 192,
          "midi": 80,
          "name": "G#5",
          "ticks": 168192,
          "time": 129.47537,
          "velocity": 0.968503937007874
        },
        {
          "duration": 0.13888500000001613,
          "durationTicks": 192,
          "midi": 80,
          "name": "G#5",
          "ticks": 168192,
          "time": 129.47537,
          "velocity": 0.968503937007874
        },
        {
          "duration": 0.1388849999999877,
          "durationTicks": 192,
          "midi": 79,
          "name": "G5",
          "ticks": 168384,
          "time": 129.614255,
          "velocity": 0.968503937007874
        },
        {
          "duration": 0.1388849999999877,
          "durationTicks": 192,
          "midi": 79,
          "name": "G5",
          "ticks": 168384,
          "time": 129.614255,
          "velocity": 0.968503937007874
        },
        {
          "duration": 0.13888500000001613,
          "durationTicks": 192,
          "midi": 77,
          "name": "F5",
          "ticks": 168576,
          "time": 129.75314,
          "velocity": 0.968503937007874
        },
        {
          "duration": 0.13888500000001613,
          "durationTicks": 192,
          "midi": 77,
          "name": "F5",
          "ticks": 168576,
          "time": 129.75314,
          "velocity": 0.968503937007874
        },
        {
          "duration": 0.1388849999999877,
          "durationTicks": 192,
          "midi": 75,
          "name": "D#5",
          "ticks": 168768,
          "time": 129.89202500000002,
          "velocity": 0.968503937007874
        },
        {
          "duration": 0.1388849999999877,
          "durationTicks": 192,
          "midi": 75,
          "name": "D#5",
          "ticks": 168768,
          "time": 129.89202500000002,
          "velocity": 0.968503937007874
        },
        {
          "duration": 0.13888500000001613,
          "durationTicks": 192,
          "midi": 75,
          "name": "D#5",
          "ticks": 168960,
          "time": 130.03091,
          "velocity": 0.968503937007874
        },
        {
          "duration": 0.13888500000001613,
          "durationTicks": 192,
          "midi": 75,
          "name": "D#5",
          "ticks": 168960,
          "time": 130.03091,
          "velocity": 0.968503937007874
        },
        {
          "duration": 0.1388849999999877,
          "durationTicks": 192,
          "midi": 74,
          "name": "D5",
          "ticks": 169152,
          "time": 130.16979500000002,
          "velocity": 0.968503937007874
        },
        {
          "duration": 0.1388849999999877,
          "durationTicks": 192,
          "midi": 74,
          "name": "D5",
          "ticks": 169152,
          "time": 130.16979500000002,
          "velocity": 0.968503937007874
        },
        {
          "duration": 0.13888500000001613,
          "durationTicks": 192,
          "midi": 72,
          "name": "C5",
          "ticks": 169344,
          "time": 130.30868,
          "velocity": 0.968503937007874
        },
        {
          "duration": 0.13888500000001613,
          "durationTicks": 192,
          "midi": 72,
          "name": "C5",
          "ticks": 169344,
          "time": 130.30868,
          "velocity": 0.968503937007874
        },
        {
          "duration": 0.1388849999999877,
          "durationTicks": 192,
          "midi": 74,
          "name": "D5",
          "ticks": 169536,
          "time": 130.44756500000003,
          "velocity": 0.968503937007874
        },
        {
          "duration": 0.1388849999999877,
          "durationTicks": 192,
          "midi": 74,
          "name": "D5",
          "ticks": 169536,
          "time": 130.44756500000003,
          "velocity": 0.968503937007874
        },
        {
          "duration": 0.1388849999999877,
          "durationTicks": 192,
          "midi": 77,
          "name": "F5",
          "ticks": 169728,
          "time": 130.58645,
          "velocity": 0.968503937007874
        },
        {
          "duration": 0.1388849999999877,
          "durationTicks": 192,
          "midi": 77,
          "name": "F5",
          "ticks": 169728,
          "time": 130.58645,
          "velocity": 0.968503937007874
        },
        {
          "duration": 0.13888500000001613,
          "durationTicks": 192,
          "midi": 75,
          "name": "D#5",
          "ticks": 169920,
          "time": 130.725335,
          "velocity": 0.968503937007874
        },
        {
          "duration": 0.13888500000001613,
          "durationTicks": 192,
          "midi": 75,
          "name": "D#5",
          "ticks": 169920,
          "time": 130.725335,
          "velocity": 0.968503937007874
        },
        {
          "duration": 0.1388849999999877,
          "durationTicks": 192,
          "midi": 70,
          "name": "A#4",
          "ticks": 170112,
          "time": 130.86422000000002,
          "velocity": 0.968503937007874
        },
        {
          "duration": 0.1388849999999877,
          "durationTicks": 192,
          "midi": 70,
          "name": "A#4",
          "ticks": 170112,
          "time": 130.86422000000002,
          "velocity": 0.968503937007874
        },
        {
          "duration": 0.13888500000001613,
          "durationTicks": 192,
          "midi": 67,
          "name": "G4",
          "ticks": 170304,
          "time": 131.003105,
          "velocity": 0.968503937007874
        },
        {
          "duration": 0.13888500000001613,
          "durationTicks": 192,
          "midi": 67,
          "name": "G4",
          "ticks": 170304,
          "time": 131.003105,
          "velocity": 0.968503937007874
        },
        {
          "duration": 0.1388849999999877,
          "durationTicks": 192,
          "midi": 74,
          "name": "D5",
          "ticks": 170496,
          "time": 131.14199000000002,
          "velocity": 0.968503937007874
        },
        {
          "duration": 0.1388849999999877,
          "durationTicks": 192,
          "midi": 74,
          "name": "D5",
          "ticks": 170496,
          "time": 131.14199000000002,
          "velocity": 0.968503937007874
        },
        {
          "duration": 0.13888500000001613,
          "durationTicks": 192,
          "midi": 72,
          "name": "C5",
          "ticks": 170688,
          "time": 131.280875,
          "velocity": 0.968503937007874
        },
        {
          "duration": 0.13888500000001613,
          "durationTicks": 192,
          "midi": 72,
          "name": "C5",
          "ticks": 170688,
          "time": 131.280875,
          "velocity": 0.968503937007874
        },
        {
          "duration": 0.1388849999999877,
          "durationTicks": 192,
          "midi": 68,
          "name": "G#4",
          "ticks": 170880,
          "time": 131.41976000000003,
          "velocity": 0.968503937007874
        },
        {
          "duration": 0.1388849999999877,
          "durationTicks": 192,
          "midi": 68,
          "name": "G#4",
          "ticks": 170880,
          "time": 131.41976000000003,
          "velocity": 0.968503937007874
        },
        {
          "duration": 0.1388849999999877,
          "durationTicks": 192,
          "midi": 65,
          "name": "F4",
          "ticks": 171072,
          "time": 131.558645,
          "velocity": 0.968503937007874
        },
        {
          "duration": 0.1388849999999877,
          "durationTicks": 192,
          "midi": 65,
          "name": "F4",
          "ticks": 171072,
          "time": 131.558645,
          "velocity": 0.968503937007874
        },
        {
          "duration": 0.13888500000001613,
          "durationTicks": 192,
          "midi": 72,
          "name": "C5",
          "ticks": 171264,
          "time": 131.69753,
          "velocity": 0.968503937007874
        },
        {
          "duration": 0.13888500000001613,
          "durationTicks": 192,
          "midi": 72,
          "name": "C5",
          "ticks": 171264,
          "time": 131.69753,
          "velocity": 0.968503937007874
        },
        {
          "duration": 0.1388849999999877,
          "durationTicks": 192,
          "midi": 70,
          "name": "A#4",
          "ticks": 171456,
          "time": 131.83641500000002,
          "velocity": 0.968503937007874
        },
        {
          "duration": 0.1388849999999877,
          "durationTicks": 192,
          "midi": 70,
          "name": "A#4",
          "ticks": 171456,
          "time": 131.83641500000002,
          "velocity": 0.968503937007874
        },
        {
          "duration": 0.13888500000001613,
          "durationTicks": 192,
          "midi": 67,
          "name": "G4",
          "ticks": 171648,
          "time": 131.9753,
          "velocity": 0.968503937007874
        },
        {
          "duration": 0.13888500000001613,
          "durationTicks": 192,
          "midi": 67,
          "name": "G4",
          "ticks": 171648,
          "time": 131.9753,
          "velocity": 0.968503937007874
        },
        {
          "duration": 0.1388849999999877,
          "durationTicks": 192,
          "midi": 63,
          "name": "D#4",
          "ticks": 171840,
          "time": 132.11418500000002,
          "velocity": 0.968503937007874
        },
        {
          "duration": 0.1388849999999877,
          "durationTicks": 192,
          "midi": 63,
          "name": "D#4",
          "ticks": 171840,
          "time": 132.11418500000002,
          "velocity": 0.968503937007874
        },
        {
          "duration": 0.13888500000001613,
          "durationTicks": 192,
          "midi": 58,
          "name": "A#3",
          "ticks": 172032,
          "time": 132.25307,
          "velocity": 0.968503937007874
        },
        {
          "duration": 0.13888500000001613,
          "durationTicks": 192,
          "midi": 58,
          "name": "A#3",
          "ticks": 172032,
          "time": 132.25307,
          "velocity": 0.968503937007874
        },
        {
          "duration": 0.1388849999999877,
          "durationTicks": 192,
          "midi": 69,
          "name": "A4",
          "ticks": 172224,
          "time": 132.39195500000002,
          "velocity": 0.968503937007874
        },
        {
          "duration": 0.1388849999999877,
          "durationTicks": 192,
          "midi": 81,
          "name": "A5",
          "ticks": 172224,
          "time": 132.39195500000002,
          "velocity": 0.968503937007874
        },
        {
          "duration": 0.13888500000001613,
          "durationTicks": 192,
          "midi": 70,
          "name": "A#4",
          "ticks": 172416,
          "time": 132.53084,
          "velocity": 0.968503937007874
        },
        {
          "duration": 0.13888500000001613,
          "durationTicks": 192,
          "midi": 82,
          "name": "A#5",
          "ticks": 172416,
          "time": 132.53084,
          "velocity": 0.968503937007874
        },
        {
          "duration": 0.1388849999999877,
          "durationTicks": 192,
          "midi": 69,
          "name": "A4",
          "ticks": 172608,
          "time": 132.66972500000003,
          "velocity": 0.968503937007874
        },
        {
          "duration": 0.1388849999999877,
          "durationTicks": 192,
          "midi": 81,
          "name": "A5",
          "ticks": 172608,
          "time": 132.66972500000003,
          "velocity": 0.968503937007874
        },
        {
          "duration": 0.1388849999999877,
          "durationTicks": 192,
          "midi": 70,
          "name": "A#4",
          "ticks": 172800,
          "time": 132.80861000000002,
          "velocity": 0.968503937007874
        },
        {
          "duration": 0.1388849999999877,
          "durationTicks": 192,
          "midi": 82,
          "name": "A#5",
          "ticks": 172800,
          "time": 132.80861000000002,
          "velocity": 0.968503937007874
        },
        {
          "duration": 0.13888500000001613,
          "durationTicks": 192,
          "midi": 69,
          "name": "A4",
          "ticks": 172992,
          "time": 132.947495,
          "velocity": 0.968503937007874
        },
        {
          "duration": 0.13888500000001613,
          "durationTicks": 192,
          "midi": 81,
          "name": "A5",
          "ticks": 172992,
          "time": 132.947495,
          "velocity": 0.968503937007874
        },
        {
          "duration": 0.1388849999999877,
          "durationTicks": 192,
          "midi": 70,
          "name": "A#4",
          "ticks": 173184,
          "time": 133.08638000000002,
          "velocity": 0.968503937007874
        },
        {
          "duration": 0.1388849999999877,
          "durationTicks": 192,
          "midi": 82,
          "name": "A#5",
          "ticks": 173184,
          "time": 133.08638000000002,
          "velocity": 0.968503937007874
        },
        {
          "duration": 0.13888500000001613,
          "durationTicks": 192,
          "midi": 69,
          "name": "A4",
          "ticks": 173376,
          "time": 133.225265,
          "velocity": 0.968503937007874
        },
        {
          "duration": 0.13888500000001613,
          "durationTicks": 192,
          "midi": 81,
          "name": "A5",
          "ticks": 173376,
          "time": 133.225265,
          "velocity": 0.968503937007874
        },
        {
          "duration": 0.1388849999999877,
          "durationTicks": 192,
          "midi": 70,
          "name": "A#4",
          "ticks": 173568,
          "time": 133.36415000000002,
          "velocity": 0.968503937007874
        },
        {
          "duration": 0.1388849999999877,
          "durationTicks": 192,
          "midi": 82,
          "name": "A#5",
          "ticks": 173568,
          "time": 133.36415000000002,
          "velocity": 0.968503937007874
        },
        {
          "duration": 0.13888500000001613,
          "durationTicks": 192,
          "midi": 84,
          "name": "C6",
          "ticks": 173760,
          "time": 133.503035,
          "velocity": 0.968503937007874
        },
        {
          "duration": 0.13888500000001613,
          "durationTicks": 192,
          "midi": 84,
          "name": "C6",
          "ticks": 173760,
          "time": 133.503035,
          "velocity": 0.968503937007874
        },
        {
          "duration": 0.1388849999999877,
          "durationTicks": 192,
          "midi": 82,
          "name": "A#5",
          "ticks": 173952,
          "time": 133.64192000000003,
          "velocity": 0.968503937007874
        },
        {
          "duration": 0.1388849999999877,
          "durationTicks": 192,
          "midi": 82,
          "name": "A#5",
          "ticks": 173952,
          "time": 133.64192000000003,
          "velocity": 0.968503937007874
        },
        {
          "duration": 0.1388849999999877,
          "durationTicks": 192,
          "midi": 80,
          "name": "G#5",
          "ticks": 174144,
          "time": 133.78080500000002,
          "velocity": 0.968503937007874
        },
        {
          "duration": 0.1388849999999877,
          "durationTicks": 192,
          "midi": 80,
          "name": "G#5",
          "ticks": 174144,
          "time": 133.78080500000002,
          "velocity": 0.968503937007874
        },
        {
          "duration": 0.13888500000001613,
          "durationTicks": 192,
          "midi": 80,
          "name": "G#5",
          "ticks": 174336,
          "time": 133.91969,
          "velocity": 0.968503937007874
        },
        {
          "duration": 0.13888500000001613,
          "durationTicks": 192,
          "midi": 80,
          "name": "G#5",
          "ticks": 174336,
          "time": 133.91969,
          "velocity": 0.968503937007874
        },
        {
          "duration": 0.1388849999999877,
          "durationTicks": 192,
          "midi": 79,
          "name": "G5",
          "ticks": 174528,
          "time": 134.05857500000002,
          "velocity": 0.968503937007874
        },
        {
          "duration": 0.1388849999999877,
          "durationTicks": 192,
          "midi": 79,
          "name": "G5",
          "ticks": 174528,
          "time": 134.05857500000002,
          "velocity": 0.968503937007874
        },
        {
          "duration": 0.13888500000001613,
          "durationTicks": 192,
          "midi": 77,
          "name": "F5",
          "ticks": 174720,
          "time": 134.19746,
          "velocity": 0.968503937007874
        },
        {
          "duration": 0.13888500000001613,
          "durationTicks": 192,
          "midi": 77,
          "name": "F5",
          "ticks": 174720,
          "time": 134.19746,
          "velocity": 0.968503937007874
        },
        {
          "duration": 0.1388849999999877,
          "durationTicks": 192,
          "midi": 75,
          "name": "D#5",
          "ticks": 174912,
          "time": 134.33634500000002,
          "velocity": 0.968503937007874
        },
        {
          "duration": 0.1388849999999877,
          "durationTicks": 192,
          "midi": 75,
          "name": "D#5",
          "ticks": 174912,
          "time": 134.33634500000002,
          "velocity": 0.968503937007874
        },
        {
          "duration": 0.13888500000001613,
          "durationTicks": 192,
          "midi": 75,
          "name": "D#5",
          "ticks": 175104,
          "time": 134.47523,
          "velocity": 0.968503937007874
        },
        {
          "duration": 0.13888500000001613,
          "durationTicks": 192,
          "midi": 75,
          "name": "D#5",
          "ticks": 175104,
          "time": 134.47523,
          "velocity": 0.968503937007874
        },
        {
          "duration": 0.1388849999999877,
          "durationTicks": 192,
          "midi": 74,
          "name": "D5",
          "ticks": 175296,
          "time": 134.61411500000003,
          "velocity": 0.968503937007874
        },
        {
          "duration": 0.1388849999999877,
          "durationTicks": 192,
          "midi": 74,
          "name": "D5",
          "ticks": 175296,
          "time": 134.61411500000003,
          "velocity": 0.968503937007874
        },
        {
          "duration": 0.1388849999999877,
          "durationTicks": 192,
          "midi": 72,
          "name": "C5",
          "ticks": 175488,
          "time": 134.75300000000001,
          "velocity": 0.968503937007874
        },
        {
          "duration": 0.1388849999999877,
          "durationTicks": 192,
          "midi": 72,
          "name": "C5",
          "ticks": 175488,
          "time": 134.75300000000001,
          "velocity": 0.968503937007874
        },
        {
          "duration": 0.13888500000001613,
          "durationTicks": 192,
          "midi": 74,
          "name": "D5",
          "ticks": 175680,
          "time": 134.891885,
          "velocity": 0.968503937007874
        },
        {
          "duration": 0.13888500000001613,
          "durationTicks": 192,
          "midi": 74,
          "name": "D5",
          "ticks": 175680,
          "time": 134.891885,
          "velocity": 0.968503937007874
        },
        {
          "duration": 0.1388849999999877,
          "durationTicks": 192,
          "midi": 77,
          "name": "F5",
          "ticks": 175872,
          "time": 135.03077000000002,
          "velocity": 0.968503937007874
        },
        {
          "duration": 0.1388849999999877,
          "durationTicks": 192,
          "midi": 77,
          "name": "F5",
          "ticks": 175872,
          "time": 135.03077000000002,
          "velocity": 0.968503937007874
        },
        {
          "duration": 0.13888500000001613,
          "durationTicks": 192,
          "midi": 75,
          "name": "D#5",
          "ticks": 176064,
          "time": 135.169655,
          "velocity": 0.968503937007874
        },
        {
          "duration": 0.13888500000001613,
          "durationTicks": 192,
          "midi": 75,
          "name": "D#5",
          "ticks": 176064,
          "time": 135.169655,
          "velocity": 0.968503937007874
        },
        {
          "duration": 0.1388849999999877,
          "durationTicks": 192,
          "midi": 70,
          "name": "A#4",
          "ticks": 176256,
          "time": 135.30854000000002,
          "velocity": 0.968503937007874
        },
        {
          "duration": 0.1388849999999877,
          "durationTicks": 192,
          "midi": 70,
          "name": "A#4",
          "ticks": 176256,
          "time": 135.30854000000002,
          "velocity": 0.968503937007874
        },
        {
          "duration": 0.13888500000001613,
          "durationTicks": 192,
          "midi": 67,
          "name": "G4",
          "ticks": 176448,
          "time": 135.447425,
          "velocity": 0.968503937007874
        },
        {
          "duration": 0.13888500000001613,
          "durationTicks": 192,
          "midi": 67,
          "name": "G4",
          "ticks": 176448,
          "time": 135.447425,
          "velocity": 0.968503937007874
        },
        {
          "duration": 0.1388849999999877,
          "durationTicks": 192,
          "midi": 74,
          "name": "D5",
          "ticks": 176640,
          "time": 135.58631000000003,
          "velocity": 0.968503937007874
        },
        {
          "duration": 0.1388849999999877,
          "durationTicks": 192,
          "midi": 74,
          "name": "D5",
          "ticks": 176640,
          "time": 135.58631000000003,
          "velocity": 0.968503937007874
        },
        {
          "duration": 0.1388849999999877,
          "durationTicks": 192,
          "midi": 72,
          "name": "C5",
          "ticks": 176832,
          "time": 135.725195,
          "velocity": 0.968503937007874
        },
        {
          "duration": 0.1388849999999877,
          "durationTicks": 192,
          "midi": 72,
          "name": "C5",
          "ticks": 176832,
          "time": 135.725195,
          "velocity": 0.968503937007874
        },
        {
          "duration": 0.13888500000001613,
          "durationTicks": 192,
          "midi": 68,
          "name": "G#4",
          "ticks": 177024,
          "time": 135.86408,
          "velocity": 0.968503937007874
        },
        {
          "duration": 0.13888500000001613,
          "durationTicks": 192,
          "midi": 68,
          "name": "G#4",
          "ticks": 177024,
          "time": 135.86408,
          "velocity": 0.968503937007874
        },
        {
          "duration": 0.1388849999999877,
          "durationTicks": 192,
          "midi": 65,
          "name": "F4",
          "ticks": 177216,
          "time": 136.00296500000002,
          "velocity": 0.968503937007874
        },
        {
          "duration": 0.1388849999999877,
          "durationTicks": 192,
          "midi": 65,
          "name": "F4",
          "ticks": 177216,
          "time": 136.00296500000002,
          "velocity": 0.968503937007874
        },
        {
          "duration": 0.13888500000001613,
          "durationTicks": 192,
          "midi": 72,
          "name": "C5",
          "ticks": 177408,
          "time": 136.14185,
          "velocity": 0.968503937007874
        },
        {
          "duration": 0.13888500000001613,
          "durationTicks": 192,
          "midi": 72,
          "name": "C5",
          "ticks": 177408,
          "time": 136.14185,
          "velocity": 0.968503937007874
        },
        {
          "duration": 0.1388849999999877,
          "durationTicks": 192,
          "midi": 70,
          "name": "A#4",
          "ticks": 177600,
          "time": 136.28073500000002,
          "velocity": 0.968503937007874
        },
        {
          "duration": 0.1388849999999877,
          "durationTicks": 192,
          "midi": 70,
          "name": "A#4",
          "ticks": 177600,
          "time": 136.28073500000002,
          "velocity": 0.968503937007874
        },
        {
          "duration": 0.13888500000001613,
          "durationTicks": 192,
          "midi": 67,
          "name": "G4",
          "ticks": 177792,
          "time": 136.41962,
          "velocity": 0.968503937007874
        },
        {
          "duration": 0.13888500000001613,
          "durationTicks": 192,
          "midi": 67,
          "name": "G4",
          "ticks": 177792,
          "time": 136.41962,
          "velocity": 0.968503937007874
        },
        {
          "duration": 0.1388849999999877,
          "durationTicks": 192,
          "midi": 63,
          "name": "D#4",
          "ticks": 177984,
          "time": 136.55850500000003,
          "velocity": 0.968503937007874
        },
        {
          "duration": 0.1388849999999877,
          "durationTicks": 192,
          "midi": 63,
          "name": "D#4",
          "ticks": 177984,
          "time": 136.55850500000003,
          "velocity": 0.968503937007874
        },
        {
          "duration": 0.1388849999999877,
          "durationTicks": 192,
          "midi": 58,
          "name": "A#3",
          "ticks": 178176,
          "time": 136.69739,
          "velocity": 0.968503937007874
        },
        {
          "duration": 0.1388849999999877,
          "durationTicks": 192,
          "midi": 58,
          "name": "A#3",
          "ticks": 178176,
          "time": 136.69739,
          "velocity": 0.968503937007874
        },
        {
          "duration": 0.13888500000001613,
          "durationTicks": 192,
          "midi": 70,
          "name": "A#4",
          "ticks": 178368,
          "time": 136.836275,
          "velocity": 0.968503937007874
        },
        {
          "duration": 0.13888500000001613,
          "durationTicks": 192,
          "midi": 70,
          "name": "A#4",
          "ticks": 178368,
          "time": 136.836275,
          "velocity": 0.968503937007874
        },
        {
          "duration": 0.1388849999999877,
          "durationTicks": 192,
          "midi": 82,
          "name": "A#5",
          "ticks": 178560,
          "time": 136.97516000000002,
          "velocity": 0.968503937007874
        },
        {
          "duration": 0.1388849999999877,
          "durationTicks": 192,
          "midi": 82,
          "name": "A#5",
          "ticks": 178560,
          "time": 136.97516000000002,
          "velocity": 0.968503937007874
        },
        {
          "duration": 0.13888500000001613,
          "durationTicks": 192,
          "midi": 82,
          "name": "A#5",
          "ticks": 178752,
          "time": 137.114045,
          "velocity": 0.968503937007874
        },
        {
          "duration": 0.13888500000001613,
          "durationTicks": 192,
          "midi": 82,
          "name": "A#5",
          "ticks": 178752,
          "time": 137.114045,
          "velocity": 0.968503937007874
        },
        {
          "duration": 1.8055049999999824,
          "durationTicks": 2496,
          "midi": 63,
          "name": "D#4",
          "ticks": 178944,
          "time": 137.25293000000002,
          "velocity": 0.968503937007874
        },
        {
          "duration": 1.8055049999999824,
          "durationTicks": 2496,
          "midi": 75,
          "name": "D#5",
          "ticks": 178944,
          "time": 137.25293000000002,
          "velocity": 0.968503937007874
        },
        {
          "duration": 0.13888500000001613,
          "durationTicks": 192,
          "midi": 62,
          "name": "D4",
          "ticks": 181440,
          "time": 139.058435,
          "velocity": 0.968503937007874
        },
        {
          "duration": 0.13888500000001613,
          "durationTicks": 192,
          "midi": 77,
          "name": "F5",
          "ticks": 181440,
          "time": 139.058435,
          "velocity": 0.968503937007874
        },
        {
          "duration": 0.1388849999999877,
          "durationTicks": 192,
          "midi": 62,
          "name": "D4",
          "ticks": 181632,
          "time": 139.19732000000002,
          "velocity": 0.968503937007874
        },
        {
          "duration": 0.1388849999999877,
          "durationTicks": 192,
          "midi": 77,
          "name": "F5",
          "ticks": 181632,
          "time": 139.19732000000002,
          "velocity": 0.968503937007874
        },
        {
          "duration": 0.13888500000001613,
          "durationTicks": 192,
          "midi": 62,
          "name": "D4",
          "ticks": 181824,
          "time": 139.336205,
          "velocity": 0.968503937007874
        },
        {
          "duration": 0.13888500000001613,
          "durationTicks": 192,
          "midi": 77,
          "name": "F5",
          "ticks": 181824,
          "time": 139.336205,
          "velocity": 0.968503937007874
        },
        {
          "duration": 1.8055049999999824,
          "durationTicks": 2496,
          "midi": 63,
          "name": "D#4",
          "ticks": 182016,
          "time": 139.47509000000002,
          "velocity": 0.968503937007874
        },
        {
          "duration": 1.8055049999999824,
          "durationTicks": 2496,
          "midi": 79,
          "name": "G5",
          "ticks": 182016,
          "time": 139.47509000000002,
          "velocity": 0.968503937007874
        },
        {
          "duration": 0.13888500000001613,
          "durationTicks": 192,
          "midi": 65,
          "name": "F4",
          "ticks": 184512,
          "time": 141.280595,
          "velocity": 0.968503937007874
        },
        {
          "duration": 0.13888500000001613,
          "durationTicks": 192,
          "midi": 74,
          "name": "D5",
          "ticks": 184512,
          "time": 141.280595,
          "velocity": 0.968503937007874
        },
        {
          "duration": 0.13888500000001613,
          "durationTicks": 192,
          "midi": 70,
          "name": "A#4",
          "ticks": 184512,
          "time": 141.280595,
          "velocity": 0.968503937007874
        },
        {
          "duration": 0.13888500000001613,
          "durationTicks": 192,
          "midi": 82,
          "name": "A#5",
          "ticks": 184512,
          "time": 141.280595,
          "velocity": 0.968503937007874
        },
        {
          "duration": 0.1388849999999877,
          "durationTicks": 192,
          "midi": 65,
          "name": "F4",
          "ticks": 184704,
          "time": 141.41948000000002,
          "velocity": 0.968503937007874
        },
        {
          "duration": 0.1388849999999877,
          "durationTicks": 192,
          "midi": 74,
          "name": "D5",
          "ticks": 184704,
          "time": 141.41948000000002,
          "velocity": 0.968503937007874
        },
        {
          "duration": 0.1388849999999877,
          "durationTicks": 192,
          "midi": 70,
          "name": "A#4",
          "ticks": 184704,
          "time": 141.41948000000002,
          "velocity": 0.968503937007874
        },
        {
          "duration": 0.1388849999999877,
          "durationTicks": 192,
          "midi": 82,
          "name": "A#5",
          "ticks": 184704,
          "time": 141.41948000000002,
          "velocity": 0.968503937007874
        },
        {
          "duration": 0.13888500000001613,
          "durationTicks": 192,
          "midi": 65,
          "name": "F4",
          "ticks": 184896,
          "time": 141.558365,
          "velocity": 0.968503937007874
        },
        {
          "duration": 0.13888500000001613,
          "durationTicks": 192,
          "midi": 74,
          "name": "D5",
          "ticks": 184896,
          "time": 141.558365,
          "velocity": 0.968503937007874
        },
        {
          "duration": 0.13888500000001613,
          "durationTicks": 192,
          "midi": 70,
          "name": "A#4",
          "ticks": 184896,
          "time": 141.558365,
          "velocity": 0.968503937007874
        },
        {
          "duration": 0.13888500000001613,
          "durationTicks": 192,
          "midi": 82,
          "name": "A#5",
          "ticks": 184896,
          "time": 141.558365,
          "velocity": 0.968503937007874
        },
        {
          "duration": 0.27777000000000385,
          "durationTicks": 384,
          "midi": 67,
          "name": "G4",
          "ticks": 185088,
          "time": 141.69725000000003,
          "velocity": 0.968503937007874
        },
        {
          "duration": 0.27777000000000385,
          "durationTicks": 384,
          "midi": 75,
          "name": "D#5",
          "ticks": 185088,
          "time": 141.69725000000003,
          "velocity": 0.968503937007874
        },
        {
          "duration": 0.27777000000000385,
          "durationTicks": 384,
          "midi": 70,
          "name": "A#4",
          "ticks": 185088,
          "time": 141.69725000000003,
          "velocity": 0.968503937007874
        },
        {
          "duration": 0.27777000000000385,
          "durationTicks": 384,
          "midi": 82,
          "name": "A#5",
          "ticks": 185088,
          "time": 141.69725000000003,
          "velocity": 0.968503937007874
        },
        {
          "duration": 0.1388849999999877,
          "durationTicks": 192,
          "midi": 65,
          "name": "F4",
          "ticks": 186048,
          "time": 142.39167500000002,
          "velocity": 0.968503937007874
        },
        {
          "duration": 0.1388849999999877,
          "durationTicks": 192,
          "midi": 74,
          "name": "D5",
          "ticks": 186048,
          "time": 142.39167500000002,
          "velocity": 0.968503937007874
        },
        {
          "duration": 0.1388849999999877,
          "durationTicks": 192,
          "midi": 70,
          "name": "A#4",
          "ticks": 186048,
          "time": 142.39167500000002,
          "velocity": 0.968503937007874
        },
        {
          "duration": 0.1388849999999877,
          "durationTicks": 192,
          "midi": 82,
          "name": "A#5",
          "ticks": 186048,
          "time": 142.39167500000002,
          "velocity": 0.968503937007874
        },
        {
          "duration": 0.13888500000001613,
          "durationTicks": 192,
          "midi": 65,
          "name": "F4",
          "ticks": 186240,
          "time": 142.53056,
          "velocity": 0.968503937007874
        },
        {
          "duration": 0.13888500000001613,
          "durationTicks": 192,
          "midi": 74,
          "name": "D5",
          "ticks": 186240,
          "time": 142.53056,
          "velocity": 0.968503937007874
        },
        {
          "duration": 0.13888500000001613,
          "durationTicks": 192,
          "midi": 70,
          "name": "A#4",
          "ticks": 186240,
          "time": 142.53056,
          "velocity": 0.968503937007874
        },
        {
          "duration": 0.13888500000001613,
          "durationTicks": 192,
          "midi": 82,
          "name": "A#5",
          "ticks": 186240,
          "time": 142.53056,
          "velocity": 0.968503937007874
        },
        {
          "duration": 0.1388849999999877,
          "durationTicks": 192,
          "midi": 65,
          "name": "F4",
          "ticks": 186432,
          "time": 142.66944500000002,
          "velocity": 0.968503937007874
        },
        {
          "duration": 0.1388849999999877,
          "durationTicks": 192,
          "midi": 74,
          "name": "D5",
          "ticks": 186432,
          "time": 142.66944500000002,
          "velocity": 0.968503937007874
        },
        {
          "duration": 0.1388849999999877,
          "durationTicks": 192,
          "midi": 70,
          "name": "A#4",
          "ticks": 186432,
          "time": 142.66944500000002,
          "velocity": 0.968503937007874
        },
        {
          "duration": 0.1388849999999877,
          "durationTicks": 192,
          "midi": 82,
          "name": "A#5",
          "ticks": 186432,
          "time": 142.66944500000002,
          "velocity": 0.968503937007874
        },
        {
          "duration": 0.27777000000000385,
          "durationTicks": 384,
          "midi": 67,
          "name": "G4",
          "ticks": 186624,
          "time": 142.80833,
          "velocity": 0.968503937007874
        },
        {
          "duration": 0.27777000000000385,
          "durationTicks": 384,
          "midi": 75,
          "name": "D#5",
          "ticks": 186624,
          "time": 142.80833,
          "velocity": 0.968503937007874
        },
        {
          "duration": 0.27777000000000385,
          "durationTicks": 384,
          "midi": 70,
          "name": "A#4",
          "ticks": 186624,
          "time": 142.80833,
          "velocity": 0.968503937007874
        },
        {
          "duration": 0.27777000000000385,
          "durationTicks": 384,
          "midi": 82,
          "name": "A#5",
          "ticks": 186624,
          "time": 142.80833,
          "velocity": 0.968503937007874
        },
        {
          "duration": 0.13888500000001613,
          "durationTicks": 192,
          "midi": 70,
          "name": "A#4",
          "ticks": 187584,
          "time": 143.502755,
          "velocity": 0.968503937007874
        },
        {
          "duration": 0.13888500000001613,
          "durationTicks": 192,
          "midi": 77,
          "name": "F5",
          "ticks": 187584,
          "time": 143.502755,
          "velocity": 0.968503937007874
        },
        {
          "duration": 0.13888500000001613,
          "durationTicks": 192,
          "midi": 77,
          "name": "F5",
          "ticks": 187584,
          "time": 143.502755,
          "velocity": 0.968503937007874
        },
        {
          "duration": 0.13888500000001613,
          "durationTicks": 192,
          "midi": 86,
          "name": "D6",
          "ticks": 187584,
          "time": 143.502755,
          "velocity": 0.968503937007874
        },
        {
          "duration": 0.1388849999999877,
          "durationTicks": 192,
          "midi": 70,
          "name": "A#4",
          "ticks": 187776,
          "time": 143.64164000000002,
          "velocity": 0.968503937007874
        },
        {
          "duration": 0.1388849999999877,
          "durationTicks": 192,
          "midi": 77,
          "name": "F5",
          "ticks": 187776,
          "time": 143.64164000000002,
          "velocity": 0.968503937007874
        },
        {
          "duration": 0.1388849999999877,
          "durationTicks": 192,
          "midi": 77,
          "name": "F5",
          "ticks": 187776,
          "time": 143.64164000000002,
          "velocity": 0.968503937007874
        },
        {
          "duration": 0.1388849999999877,
          "durationTicks": 192,
          "midi": 86,
          "name": "D6",
          "ticks": 187776,
          "time": 143.64164000000002,
          "velocity": 0.968503937007874
        },
        {
          "duration": 0.13888500000001613,
          "durationTicks": 192,
          "midi": 70,
          "name": "A#4",
          "ticks": 187968,
          "time": 143.780525,
          "velocity": 0.968503937007874
        },
        {
          "duration": 0.13888500000001613,
          "durationTicks": 192,
          "midi": 77,
          "name": "F5",
          "ticks": 187968,
          "time": 143.780525,
          "velocity": 0.968503937007874
        },
        {
          "duration": 0.13888500000001613,
          "durationTicks": 192,
          "midi": 77,
          "name": "F5",
          "ticks": 187968,
          "time": 143.780525,
          "velocity": 0.968503937007874
        },
        {
          "duration": 0.13888500000001613,
          "durationTicks": 192,
          "midi": 86,
          "name": "D6",
          "ticks": 187968,
          "time": 143.780525,
          "velocity": 0.968503937007874
        },
        {
          "duration": 0.2777699999999754,
          "durationTicks": 384,
          "midi": 63,
          "name": "D#4",
          "ticks": 188160,
          "time": 143.91941000000003,
          "velocity": 0.968503937007874
        },
        {
          "duration": 0.2777699999999754,
          "durationTicks": 384,
          "midi": 70,
          "name": "A#4",
          "ticks": 188160,
          "time": 143.91941000000003,
          "velocity": 0.968503937007874
        },
        {
          "duration": 0.2777699999999754,
          "durationTicks": 384,
          "midi": 79,
          "name": "G5",
          "ticks": 188160,
          "time": 143.91941000000003,
          "velocity": 0.968503937007874
        },
        {
          "duration": 0.2777699999999754,
          "durationTicks": 384,
          "midi": 79,
          "name": "G5",
          "ticks": 188160,
          "time": 143.91941000000003,
          "velocity": 0.968503937007874
        },
        {
          "duration": 0.2777699999999754,
          "durationTicks": 384,
          "midi": 87,
          "name": "D#6",
          "ticks": 188160,
          "time": 143.91941000000003,
          "velocity": 0.968503937007874
        },
        {
          "duration": 0.1388849999999877,
          "durationTicks": 192,
          "midi": 61,
          "name": "C#4",
          "ticks": 191424,
          "time": 146.28045500000002,
          "velocity": 0.968503937007874
        },
        {
          "duration": 0.1388849999999877,
          "durationTicks": 192,
          "midi": 61,
          "name": "C#4",
          "ticks": 191424,
          "time": 146.28045500000002,
          "velocity": 0.968503937007874
        },
        {
          "duration": 0.13888500000001613,
          "durationTicks": 192,
          "midi": 61,
          "name": "C#4",
          "ticks": 191616,
          "time": 146.41934,
          "velocity": 0.968503937007874
        },
        {
          "duration": 0.13888500000001613,
          "durationTicks": 192,
          "midi": 61,
          "name": "C#4",
          "ticks": 191616,
          "time": 146.41934,
          "velocity": 0.968503937007874
        },
        {
          "duration": 0.1388849999999877,
          "durationTicks": 192,
          "midi": 61,
          "name": "C#4",
          "ticks": 191808,
          "time": 146.55822500000002,
          "velocity": 0.968503937007874
        },
        {
          "duration": 0.1388849999999877,
          "durationTicks": 192,
          "midi": 61,
          "name": "C#4",
          "ticks": 191808,
          "time": 146.55822500000002,
          "velocity": 0.968503937007874
        },
        {
          "duration": 1.5714199999999892,
          "durationTicks": 1536,
          "midi": 60,
          "name": "C4",
          "ticks": 192000,
          "time": 146.69711,
          "velocity": 0.968503937007874
        },
        {
          "duration": 1.5714199999999892,
          "durationTicks": 1536,
          "midi": 60,
          "name": "C4",
          "ticks": 192000,
          "time": 146.69711,
          "velocity": 0.968503937007874
        },
        {
          "duration": 0.1428550000000257,
          "durationTicks": 192,
          "midi": 72,
          "name": "C5",
          "ticks": 193728,
          "time": 148.411385,
          "velocity": 0.7165354330708661
        },
        {
          "duration": 0.1428549999999973,
          "durationTicks": 192,
          "midi": 72,
          "name": "C5",
          "ticks": 193920,
          "time": 148.55424000000002,
          "velocity": 0.7165354330708661
        },
        {
          "duration": 0.1428549999999973,
          "durationTicks": 192,
          "midi": 72,
          "name": "C5",
          "ticks": 194112,
          "time": 148.69709500000002,
          "velocity": 0.7165354330708661
        },
        {
          "duration": 1.8709900000000061,
          "durationTicks": 2496,
          "midi": 68,
          "name": "G#4",
          "ticks": 194304,
          "time": 148.83995000000002,
          "velocity": 0.7165354330708661
        },
        {
          "duration": 0.1428549999999973,
          "durationTicks": 192,
          "midi": 80,
          "name": "G#5",
          "ticks": 195264,
          "time": 149.554225,
          "velocity": 0.7165354330708661
        },
        {
          "duration": 0.1428549999999973,
          "durationTicks": 192,
          "midi": 80,
          "name": "G#5",
          "ticks": 195456,
          "time": 149.69708,
          "velocity": 0.7165354330708661
        },
        {
          "duration": 0.1428550000000257,
          "durationTicks": 192,
          "midi": 80,
          "name": "G#5",
          "ticks": 195648,
          "time": 149.839935,
          "velocity": 0.7165354330708661
        },
        {
          "duration": 0.8737800000000107,
          "durationTicks": 1152,
          "midi": 77,
          "name": "F5",
          "ticks": 195840,
          "time": 149.98279000000002,
          "velocity": 0.7165354330708661
        },
        {
          "duration": 0.14563000000001125,
          "durationTicks": 192,
          "midi": 72,
          "name": "C5",
          "ticks": 196800,
          "time": 150.71094000000002,
          "velocity": 0.7165354330708661
        },
        {
          "duration": 0.14562999999998283,
          "durationTicks": 192,
          "midi": 72,
          "name": "C5",
          "ticks": 196992,
          "time": 150.85657000000003,
          "velocity": 0.7165354330708661
        },
        {
          "duration": 0.14563000000001125,
          "durationTicks": 192,
          "midi": 72,
          "name": "C5",
          "ticks": 197184,
          "time": 151.00220000000002,
          "velocity": 0.7165354330708661
        },
        {
          "duration": 2.3650399999999934,
          "durationTicks": 3072,
          "midi": 67,
          "name": "G4",
          "ticks": 197376,
          "time": 151.14783000000003,
          "velocity": 0.7165354330708661
        },
        {
          "duration": 0.14562999999998283,
          "durationTicks": 192,
          "midi": 82,
          "name": "A#5",
          "ticks": 198336,
          "time": 151.87598000000003,
          "velocity": 0.7165354330708661
        },
        {
          "duration": 0.14563000000001125,
          "durationTicks": 192,
          "midi": 82,
          "name": "A#5",
          "ticks": 198528,
          "time": 152.02161,
          "velocity": 0.7165354330708661
        },
        {
          "duration": 0.14563000000001125,
          "durationTicks": 192,
          "midi": 82,
          "name": "A#5",
          "ticks": 198720,
          "time": 152.16724000000002,
          "velocity": 0.7165354330708661
        },
        {
          "duration": 0.75,
          "durationTicks": 960,
          "midi": 79,
          "name": "G5",
          "ticks": 198912,
          "time": 152.31287000000003,
          "velocity": 0.7165354330708661
        },
        {
          "duration": 0.15000000000000568,
          "durationTicks": 192,
          "midi": 84,
          "name": "C6",
          "ticks": 199872,
          "time": 153.06287000000003,
          "velocity": 0.7165354330708661
        },
        {
          "duration": 0.15000000000000568,
          "durationTicks": 192,
          "midi": 84,
          "name": "C6",
          "ticks": 200064,
          "time": 153.21287000000004,
          "velocity": 0.7165354330708661
        },
        {
          "duration": 0.14999999999997726,
          "durationTicks": 192,
          "midi": 82,
          "name": "A#5",
          "ticks": 200256,
          "time": 153.36287000000004,
          "velocity": 0.7165354330708661
        },
        {
          "duration": 0.15000000000000568,
          "durationTicks": 192,
          "midi": 68,
          "name": "G#4",
          "ticks": 200448,
          "time": 153.51287000000002,
          "velocity": 0.7165354330708661
        },
        {
          "duration": 0.6000000000000227,
          "durationTicks": 768,
          "midi": 80,
          "name": "G#5",
          "ticks": 200448,
          "time": 153.51287000000002,
          "velocity": 0.7165354330708661
        },
        {
          "duration": 0.15000000000000568,
          "durationTicks": 192,
          "midi": 68,
          "name": "G#4",
          "ticks": 200640,
          "time": 153.66287000000003,
          "velocity": 0.7165354330708661
        },
        {
          "duration": 0.15000000000000568,
          "durationTicks": 192,
          "midi": 68,
          "name": "G#4",
          "ticks": 200832,
          "time": 153.81287000000003,
          "velocity": 0.7165354330708661
        },
        {
          "duration": 0.15000000000000568,
          "durationTicks": 192,
          "midi": 70,
          "name": "A#4",
          "ticks": 201024,
          "time": 153.96287000000004,
          "velocity": 0.7165354330708661
        },
        {
          "duration": 0.75,
          "durationTicks": 960,
          "midi": 72,
          "name": "C5",
          "ticks": 201216,
          "time": 154.11287000000004,
          "velocity": 0.7165354330708661
        },
        {
          "duration": 0.14999999999997726,
          "durationTicks": 192,
          "midi": 79,
          "name": "G5",
          "ticks": 201216,
          "time": 154.11287000000004,
          "velocity": 0.7165354330708661
        },
        {
          "duration": 0.15000000000000568,
          "durationTicks": 192,
          "midi": 84,
          "name": "C6",
          "ticks": 201408,
          "time": 154.26287000000002,
          "velocity": 0.7165354330708661
        },
        {
          "duration": 0.15000000000000568,
          "durationTicks": 192,
          "midi": 84,
          "name": "C6",
          "ticks": 201600,
          "time": 154.41287000000003,
          "velocity": 0.7165354330708661
        },
        {
          "duration": 0.15000000000000568,
          "durationTicks": 192,
          "midi": 82,
          "name": "A#5",
          "ticks": 201792,
          "time": 154.56287000000003,
          "velocity": 0.7165354330708661
        },
        {
          "duration": 0.5999999999999943,
          "durationTicks": 768,
          "midi": 80,
          "name": "G#5",
          "ticks": 201984,
          "time": 154.71287000000004,
          "velocity": 0.7165354330708661
        },
        {
          "duration": 0.14999999999997726,
          "durationTicks": 192,
          "midi": 68,
          "name": "G#4",
          "ticks": 202176,
          "time": 154.86287000000004,
          "velocity": 0.7165354330708661
        },
        {
          "duration": 0.15000000000000568,
          "durationTicks": 192,
          "midi": 68,
          "name": "G#4",
          "ticks": 202368,
          "time": 155.01287000000002,
          "velocity": 0.7165354330708661
        },
        {
          "duration": 0.15000000000000568,
          "durationTicks": 192,
          "midi": 70,
          "name": "A#4",
          "ticks": 202560,
          "time": 155.16287000000003,
          "velocity": 0.7165354330708661
        },
        {
          "duration": 0.9000000000000057,
          "durationTicks": 1152,
          "midi": 72,
          "name": "C5",
          "ticks": 202752,
          "time": 155.31287000000003,
          "velocity": 0.7165354330708661
        },
        {
          "duration": 0.15000000000000568,
          "durationTicks": 192,
          "midi": 79,
          "name": "G5",
          "ticks": 202752,
          "time": 155.31287000000003,
          "velocity": 0.7165354330708661
        },
        {
          "duration": 0.15000000000000568,
          "durationTicks": 192,
          "midi": 84,
          "name": "C6",
          "ticks": 202944,
          "time": 155.46287000000004,
          "velocity": 0.7165354330708661
        },
        {
          "duration": 0.14999999999997726,
          "durationTicks": 192,
          "midi": 84,
          "name": "C6",
          "ticks": 203136,
          "time": 155.61287000000004,
          "velocity": 0.7165354330708661
        },
        {
          "duration": 0.15000000000000568,
          "durationTicks": 192,
          "midi": 82,
          "name": "A#5",
          "ticks": 203328,
          "time": 155.76287000000002,
          "velocity": 0.7165354330708661
        },
        {
          "duration": 0.15000000000000568,
          "durationTicks": 192,
          "midi": 80,
          "name": "G#5",
          "ticks": 203520,
          "time": 155.91287000000003,
          "velocity": 0.7165354330708661
        },
        {
          "duration": 0.15000000000000568,
          "durationTicks": 192,
          "midi": 80,
          "name": "G#5",
          "ticks": 203712,
          "time": 156.06287000000003,
          "velocity": 0.7165354330708661
        },
        {
          "duration": 0.15000000000000568,
          "durationTicks": 192,
          "midi": 80,
          "name": "G#5",
          "ticks": 203904,
          "time": 156.21287000000004,
          "velocity": 0.7165354330708661
        },
        {
          "duration": 0.14999999999997726,
          "durationTicks": 192,
          "midi": 79,
          "name": "G5",
          "ticks": 204096,
          "time": 156.36287000000004,
          "velocity": 0.7165354330708661
        },
        {
          "duration": 0.15000000000000568,
          "durationTicks": 192,
          "midi": 77,
          "name": "F5",
          "ticks": 204288,
          "time": 156.51287000000002,
          "velocity": 0.7165354330708661
        },
        {
          "duration": 0.15000000000000568,
          "durationTicks": 192,
          "midi": 77,
          "name": "F5",
          "ticks": 204480,
          "time": 156.66287000000003,
          "velocity": 0.7165354330708661
        },
        {
          "duration": 0.15000000000000568,
          "durationTicks": 192,
          "midi": 77,
          "name": "F5",
          "ticks": 204672,
          "time": 156.81287000000003,
          "velocity": 0.7165354330708661
        },
        {
          "duration": 0.15000000000000568,
          "durationTicks": 192,
          "midi": 75,
          "name": "D#5",
          "ticks": 204864,
          "time": 156.96287000000004,
          "velocity": 0.7165354330708661
        },
        {
          "duration": 0.14999999999997726,
          "durationTicks": 192,
          "midi": 74,
          "name": "D5",
          "ticks": 205056,
          "time": 157.11287000000004,
          "velocity": 0.7165354330708661
        },
        {
          "duration": 0.15000000000000568,
          "durationTicks": 192,
          "midi": 74,
          "name": "D5",
          "ticks": 205248,
          "time": 157.26287000000002,
          "velocity": 0.7165354330708661
        },
        {
          "duration": 0.15000000000000568,
          "durationTicks": 192,
          "midi": 74,
          "name": "D5",
          "ticks": 205440,
          "time": 157.41287000000003,
          "velocity": 0.7165354330708661
        },
        {
          "duration": 0.15000000000000568,
          "durationTicks": 192,
          "midi": 72,
          "name": "C5",
          "ticks": 205632,
          "time": 157.56287000000003,
          "velocity": 0.7165354330708661
        },
        {
          "duration": 0.29999999999998295,
          "durationTicks": 384,
          "midi": 71,
          "name": "B4",
          "ticks": 205824,
          "time": 157.71287000000004,
          "velocity": 0.7165354330708661
        },
        {
          "duration": 0.15000000000000568,
          "durationTicks": 192,
          "midi": 63,
          "name": "D#4",
          "ticks": 206784,
          "time": 158.46287000000004,
          "velocity": 0.7165354330708661
        },
        {
          "duration": 0.15000000000000568,
          "durationTicks": 192,
          "midi": 75,
          "name": "D#5",
          "ticks": 206784,
          "time": 158.46287000000004,
          "velocity": 0.7165354330708661
        },
        {
          "duration": 0.14999999999997726,
          "durationTicks": 192,
          "midi": 63,
          "name": "D#4",
          "ticks": 206976,
          "time": 158.61287000000004,
          "velocity": 0.7165354330708661
        },
        {
          "duration": 0.14999999999997726,
          "durationTicks": 192,
          "midi": 75,
          "name": "D#5",
          "ticks": 206976,
          "time": 158.61287000000004,
          "velocity": 0.7165354330708661
        },
        {
          "duration": 0.15000000000000568,
          "durationTicks": 192,
          "midi": 65,
          "name": "F4",
          "ticks": 207168,
          "time": 158.76287000000002,
          "velocity": 0.7165354330708661
        },
        {
          "duration": 0.15000000000000568,
          "durationTicks": 192,
          "midi": 77,
          "name": "F5",
          "ticks": 207168,
          "time": 158.76287000000002,
          "velocity": 0.7165354330708661
        },
        {
          "duration": 0.75,
          "durationTicks": 960,
          "midi": 67,
          "name": "G4",
          "ticks": 207360,
          "time": 158.91287000000003,
          "velocity": 0.7165354330708661
        },
        {
          "duration": 0.75,
          "durationTicks": 960,
          "midi": 79,
          "name": "G5",
          "ticks": 207360,
          "time": 158.91287000000003,
          "velocity": 0.7165354330708661
        },
        {
          "duration": 0.15000000000000568,
          "durationTicks": 192,
          "midi": 63,
          "name": "D#4",
          "ticks": 208320,
          "time": 159.66287000000003,
          "velocity": 0.7165354330708661
        },
        {
          "duration": 0.15000000000000568,
          "durationTicks": 192,
          "midi": 75,
          "name": "D#5",
          "ticks": 208320,
          "time": 159.66287000000003,
          "velocity": 0.7165354330708661
        },
        {
          "duration": 0.15000000000000568,
          "durationTicks": 192,
          "midi": 63,
          "name": "D#4",
          "ticks": 208512,
          "time": 159.81287000000003,
          "velocity": 0.7165354330708661
        },
        {
          "duration": 0.15000000000000568,
          "durationTicks": 192,
          "midi": 75,
          "name": "D#5",
          "ticks": 208512,
          "time": 159.81287000000003,
          "velocity": 0.7165354330708661
        },
        {
          "duration": 0.15000000000000568,
          "durationTicks": 192,
          "midi": 65,
          "name": "F4",
          "ticks": 208704,
          "time": 159.96287000000004,
          "velocity": 0.7165354330708661
        },
        {
          "duration": 0.15000000000000568,
          "durationTicks": 192,
          "midi": 77,
          "name": "F5",
          "ticks": 208704,
          "time": 159.96287000000004,
          "velocity": 0.7165354330708661
        },
        {
          "duration": 1.1999999999999886,
          "durationTicks": 1536,
          "midi": 67,
          "name": "G4",
          "ticks": 208896,
          "time": 160.11287000000004,
          "velocity": 0.7165354330708661
        },
        {
          "duration": 1.1999999999999886,
          "durationTicks": 1536,
          "midi": 79,
          "name": "G5",
          "ticks": 208896,
          "time": 160.11287000000004,
          "velocity": 0.7165354330708661
        },
        {
          "duration": 0.30000000000001137,
          "durationTicks": 384,
          "midi": 69,
          "name": "A4",
          "ticks": 210432,
          "time": 161.31287000000003,
          "velocity": 0.7165354330708661
        },
        {
          "duration": 0.30000000000001137,
          "durationTicks": 384,
          "midi": 81,
          "name": "A5",
          "ticks": 210432,
          "time": 161.31287000000003,
          "velocity": 0.7165354330708661
        },
        {
          "duration": 0.29999999999998295,
          "durationTicks": 384,
          "midi": 70,
          "name": "A#4",
          "ticks": 210816,
          "time": 161.61287000000004,
          "velocity": 0.7165354330708661
        },
        {
          "duration": 0.29999999999998295,
          "durationTicks": 384,
          "midi": 82,
          "name": "A#5",
          "ticks": 210816,
          "time": 161.61287000000004,
          "velocity": 0.7165354330708661
        },
        {
          "duration": 0.30000000000001137,
          "durationTicks": 384,
          "midi": 72,
          "name": "C5",
          "ticks": 211200,
          "time": 161.91287000000003,
          "velocity": 0.7165354330708661
        },
        {
          "duration": 0.30000000000001137,
          "durationTicks": 384,
          "midi": 84,
          "name": "C6",
          "ticks": 211200,
          "time": 161.91287000000003,
          "velocity": 0.7165354330708661
        },
        {
          "duration": 0.29999999999998295,
          "durationTicks": 384,
          "midi": 73,
          "name": "C#5",
          "ticks": 211584,
          "time": 162.21287000000004,
          "velocity": 0.7165354330708661
        },
        {
          "duration": 0.29999999999998295,
          "durationTicks": 384,
          "midi": 85,
          "name": "C#6",
          "ticks": 211584,
          "time": 162.21287000000004,
          "velocity": 0.7165354330708661
        },
        {
          "duration": 0.75,
          "durationTicks": 960,
          "midi": 74,
          "name": "D5",
          "ticks": 211968,
          "time": 162.51287000000002,
          "velocity": 0.7165354330708661
        },
        {
          "duration": 3,
          "durationTicks": 3840,
          "midi": 74,
          "name": "D5",
          "ticks": 211968,
          "time": 162.51287000000002,
          "velocity": 0.7165354330708661
        },
        {
          "duration": 3,
          "durationTicks": 3840,
          "midi": 86,
          "name": "D6",
          "ticks": 211968,
          "time": 162.51287000000002,
          "velocity": 0.7165354330708661
        },
        {
          "duration": 0.15000000000000568,
          "durationTicks": 192,
          "midi": 67,
          "name": "G4",
          "ticks": 212928,
          "time": 163.26287000000002,
          "velocity": 0.7165354330708661
        },
        {
          "duration": 0.15000000000000568,
          "durationTicks": 192,
          "midi": 67,
          "name": "G4",
          "ticks": 213120,
          "time": 163.41287000000003,
          "velocity": 0.7165354330708661
        },
        {
          "duration": 0.15000000000000568,
          "durationTicks": 192,
          "midi": 69,
          "name": "A4",
          "ticks": 213312,
          "time": 163.56287000000003,
          "velocity": 0.7165354330708661
        },
        {
          "duration": 0.29999999999998295,
          "durationTicks": 384,
          "midi": 66,
          "name": "F#4",
          "ticks": 213504,
          "time": 163.71287000000004,
          "velocity": 0.7165354330708661
        },
        {
          "duration": 0.15000000000000568,
          "durationTicks": 192,
          "midi": 79,
          "name": "G5",
          "ticks": 214464,
          "time": 164.46287000000004,
          "velocity": 0.7165354330708661
        },
        {
          "duration": 0.14999999999997726,
          "durationTicks": 192,
          "midi": 79,
          "name": "G5",
          "ticks": 214656,
          "time": 164.61287000000004,
          "velocity": 0.7165354330708661
        },
        {
          "duration": 0.15000000000000568,
          "durationTicks": 192,
          "midi": 81,
          "name": "A5",
          "ticks": 214848,
          "time": 164.76287000000002,
          "velocity": 0.7165354330708661
        },
        {
          "duration": 0.30000000000001137,
          "durationTicks": 384,
          "midi": 78,
          "name": "F#5",
          "ticks": 215040,
          "time": 164.91287000000003,
          "velocity": 0.7165354330708661
        },
        {
          "duration": 0.44999999999998863,
          "durationTicks": 576,
          "midi": 74,
          "name": "D5",
          "ticks": 215424,
          "time": 165.21287000000004,
          "velocity": 0.7165354330708661
        },
        {
          "duration": 0.15000000000000568,
          "durationTicks": 192,
          "midi": 67,
          "name": "G4",
          "ticks": 216000,
          "time": 165.66287000000003,
          "velocity": 0.7165354330708661
        },
        {
          "duration": 0.15000000000000568,
          "durationTicks": 192,
          "midi": 79,
          "name": "G5",
          "ticks": 216000,
          "time": 165.66287000000003,
          "velocity": 0.7165354330708661
        },
        {
          "duration": 0.15000000000000568,
          "durationTicks": 192,
          "midi": 67,
          "name": "G4",
          "ticks": 216192,
          "time": 165.81287000000003,
          "velocity": 0.7165354330708661
        },
        {
          "duration": 0.15000000000000568,
          "durationTicks": 192,
          "midi": 79,
          "name": "G5",
          "ticks": 216192,
          "time": 165.81287000000003,
          "velocity": 0.7165354330708661
        },
        {
          "duration": 0.15000000000000568,
          "durationTicks": 192,
          "midi": 69,
          "name": "A4",
          "ticks": 216384,
          "time": 165.96287000000004,
          "velocity": 0.7165354330708661
        },
        {
          "duration": 0.15000000000000568,
          "durationTicks": 192,
          "midi": 81,
          "name": "A5",
          "ticks": 216384,
          "time": 165.96287000000004,
          "velocity": 0.7165354330708661
        },
        {
          "duration": 0.29999999999998295,
          "durationTicks": 384,
          "midi": 70,
          "name": "A#4",
          "ticks": 216576,
          "time": 166.11287000000004,
          "velocity": 0.7165354330708661
        },
        {
          "duration": 0.29999999999998295,
          "durationTicks": 384,
          "midi": 82,
          "name": "A#5",
          "ticks": 216576,
          "time": 166.11287000000004,
          "velocity": 0.7165354330708661
        },
        {
          "duration": 0.14999999999997726,
          "durationTicks": 192,
          "midi": 66,
          "name": "F#4",
          "ticks": 217536,
          "time": 166.86287000000004,
          "velocity": 0.7165354330708661
        },
        {
          "duration": 0.14999999999997726,
          "durationTicks": 192,
          "midi": 78,
          "name": "F#5",
          "ticks": 217536,
          "time": 166.86287000000004,
          "velocity": 0.7165354330708661
        },
        {
          "duration": 0.15000000000000568,
          "durationTicks": 192,
          "midi": 69,
          "name": "A4",
          "ticks": 217728,
          "time": 167.01287000000002,
          "velocity": 0.7165354330708661
        },
        {
          "duration": 0.15000000000000568,
          "durationTicks": 192,
          "midi": 81,
          "name": "A5",
          "ticks": 217728,
          "time": 167.01287000000002,
          "velocity": 0.7165354330708661
        },
        {
          "duration": 0.15000000000000568,
          "durationTicks": 192,
          "midi": 70,
          "name": "A#4",
          "ticks": 217920,
          "time": 167.16287000000003,
          "velocity": 0.7165354330708661
        },
        {
          "duration": 0.15000000000000568,
          "durationTicks": 192,
          "midi": 82,
          "name": "A#5",
          "ticks": 217920,
          "time": 167.16287000000003,
          "velocity": 0.7165354330708661
        },
        {
          "duration": 0.30000000000001137,
          "durationTicks": 384,
          "midi": 72,
          "name": "C5",
          "ticks": 218112,
          "time": 167.31287000000003,
          "velocity": 0.7165354330708661
        },
        {
          "duration": 0.30000000000001137,
          "durationTicks": 384,
          "midi": 84,
          "name": "C6",
          "ticks": 218112,
          "time": 167.31287000000003,
          "velocity": 0.7165354330708661
        },
        {
          "duration": 0.15000000000000568,
          "durationTicks": 192,
          "midi": 66,
          "name": "F#4",
          "ticks": 219072,
          "time": 168.06287000000003,
          "velocity": 0.7165354330708661
        },
        {
          "duration": 0.15000000000000568,
          "durationTicks": 192,
          "midi": 78,
          "name": "F#5",
          "ticks": 219072,
          "time": 168.06287000000003,
          "velocity": 0.7165354330708661
        },
        {
          "duration": 0.15000000000000568,
          "durationTicks": 192,
          "midi": 69,
          "name": "A4",
          "ticks": 219264,
          "time": 168.21287000000004,
          "velocity": 0.7165354330708661
        },
        {
          "duration": 0.15000000000000568,
          "durationTicks": 192,
          "midi": 81,
          "name": "A5",
          "ticks": 219264,
          "time": 168.21287000000004,
          "velocity": 0.7165354330708661
        },
        {
          "duration": 0.14999999999997726,
          "durationTicks": 192,
          "midi": 70,
          "name": "A#4",
          "ticks": 219456,
          "time": 168.36287000000004,
          "velocity": 0.7165354330708661
        },
        {
          "duration": 0.14999999999997726,
          "durationTicks": 192,
          "midi": 82,
          "name": "A#5",
          "ticks": 219456,
          "time": 168.36287000000004,
          "velocity": 0.7165354330708661
        },
        {
          "duration": 0.30000000000001137,
          "durationTicks": 384,
          "midi": 72,
          "name": "C5",
          "ticks": 219648,
          "time": 168.51287000000002,
          "velocity": 0.7165354330708661
        },
        {
          "duration": 0.30000000000001137,
          "durationTicks": 384,
          "midi": 84,
          "name": "C6",
          "ticks": 219648,
          "time": 168.51287000000002,
          "velocity": 0.7165354330708661
        },
        {
          "duration": 0.15000000000000568,
          "durationTicks": 192,
          "midi": 67,
          "name": "G4",
          "ticks": 220608,
          "time": 169.26287000000002,
          "velocity": 0.7165354330708661
        },
        {
          "duration": 0.15000000000000568,
          "durationTicks": 192,
          "midi": 79,
          "name": "G5",
          "ticks": 220608,
          "time": 169.26287000000002,
          "velocity": 0.7165354330708661
        },
        {
          "duration": 0.15000000000000568,
          "durationTicks": 192,
          "midi": 70,
          "name": "A#4",
          "ticks": 220800,
          "time": 169.41287000000003,
          "velocity": 0.7165354330708661
        },
        {
          "duration": 0.15000000000000568,
          "durationTicks": 192,
          "midi": 82,
          "name": "A#5",
          "ticks": 220800,
          "time": 169.41287000000003,
          "velocity": 0.7165354330708661
        },
        {
          "duration": 0.15000000000000568,
          "durationTicks": 192,
          "midi": 72,
          "name": "C5",
          "ticks": 220992,
          "time": 169.56287000000003,
          "velocity": 0.7165354330708661
        },
        {
          "duration": 0.15000000000000568,
          "durationTicks": 192,
          "midi": 84,
          "name": "C6",
          "ticks": 220992,
          "time": 169.56287000000003,
          "velocity": 0.7165354330708661
        },
        {
          "duration": 0.29999999999998295,
          "durationTicks": 384,
          "midi": 74,
          "name": "D5",
          "ticks": 221184,
          "time": 169.71287000000004,
          "velocity": 0.7165354330708661
        },
        {
          "duration": 0.29999999999998295,
          "durationTicks": 384,
          "midi": 86,
          "name": "D6",
          "ticks": 221184,
          "time": 169.71287000000004,
          "velocity": 0.7165354330708661
        },
        {
          "duration": 0.15000000000000568,
          "durationTicks": 192,
          "midi": 67,
          "name": "G4",
          "ticks": 222144,
          "time": 170.46287000000004,
          "velocity": 0.7165354330708661
        },
        {
          "duration": 0.15000000000000568,
          "durationTicks": 192,
          "midi": 79,
          "name": "G5",
          "ticks": 222144,
          "time": 170.46287000000004,
          "velocity": 0.7165354330708661
        },
        {
          "duration": 0.14999999999997726,
          "durationTicks": 192,
          "midi": 70,
          "name": "A#4",
          "ticks": 222336,
          "time": 170.61287000000004,
          "velocity": 0.7165354330708661
        },
        {
          "duration": 0.14999999999997726,
          "durationTicks": 192,
          "midi": 82,
          "name": "A#5",
          "ticks": 222336,
          "time": 170.61287000000004,
          "velocity": 0.7165354330708661
        },
        {
          "duration": 0.15000000000000568,
          "durationTicks": 192,
          "midi": 72,
          "name": "C5",
          "ticks": 222528,
          "time": 170.76287000000002,
          "velocity": 0.7952755905511811
        },
        {
          "duration": 0.15000000000000568,
          "durationTicks": 192,
          "midi": 84,
          "name": "C6",
          "ticks": 222528,
          "time": 170.76287000000002,
          "velocity": 0.7952755905511811
        },
        {
          "duration": 0.15000000000000568,
          "durationTicks": 192,
          "midi": 74,
          "name": "D5",
          "ticks": 222720,
          "time": 170.91287000000003,
          "velocity": 0.7952755905511811
        },
        {
          "duration": 0.15000000000000568,
          "durationTicks": 192,
          "midi": 86,
          "name": "D6",
          "ticks": 222720,
          "time": 170.91287000000003,
          "velocity": 0.7952755905511811
        },
        {
          "duration": 0.15000000000000568,
          "durationTicks": 192,
          "midi": 70,
          "name": "A#4",
          "ticks": 222912,
          "time": 171.06287000000003,
          "velocity": 0.8582677165354331
        },
        {
          "duration": 0.15000000000000568,
          "durationTicks": 192,
          "midi": 82,
          "name": "A#5",
          "ticks": 222912,
          "time": 171.06287000000003,
          "velocity": 0.8582677165354331
        },
        {
          "duration": 0.15000000000000568,
          "durationTicks": 192,
          "midi": 72,
          "name": "C5",
          "ticks": 223104,
          "time": 171.21287000000004,
          "velocity": 0.8582677165354331
        },
        {
          "duration": 0.15000000000000568,
          "durationTicks": 192,
          "midi": 84,
          "name": "C6",
          "ticks": 223104,
          "time": 171.21287000000004,
          "velocity": 0.8582677165354331
        },
        {
          "duration": 0.14999999999997726,
          "durationTicks": 192,
          "midi": 74,
          "name": "D5",
          "ticks": 223296,
          "time": 171.36287000000004,
          "velocity": 0.8582677165354331
        },
        {
          "duration": 0.14999999999997726,
          "durationTicks": 192,
          "midi": 86,
          "name": "D6",
          "ticks": 223296,
          "time": 171.36287000000004,
          "velocity": 0.8582677165354331
        },
        {
          "duration": 0.15000000000000568,
          "durationTicks": 192,
          "midi": 69,
          "name": "A4",
          "ticks": 223488,
          "time": 171.51287000000002,
          "velocity": 0.905511811023622
        },
        {
          "duration": 0.15000000000000568,
          "durationTicks": 192,
          "midi": 75,
          "name": "D#5",
          "ticks": 223488,
          "time": 171.51287000000002,
          "velocity": 0.905511811023622
        },
        {
          "duration": 0.15000000000000568,
          "durationTicks": 192,
          "midi": 87,
          "name": "D#6",
          "ticks": 223488,
          "time": 171.51287000000002,
          "velocity": 0.905511811023622
        },
        {
          "duration": 0.15000000000000568,
          "durationTicks": 192,
          "midi": 69,
          "name": "A4",
          "ticks": 223680,
          "time": 171.66287000000003,
          "velocity": 0.905511811023622
        },
        {
          "duration": 0.15000000000000568,
          "durationTicks": 192,
          "midi": 78,
          "name": "F#5",
          "ticks": 223680,
          "time": 171.66287000000003,
          "velocity": 0.905511811023622
        },
        {
          "duration": 0.15000000000000568,
          "durationTicks": 192,
          "midi": 75,
          "name": "D#5",
          "ticks": 223680,
          "time": 171.66287000000003,
          "velocity": 0.905511811023622
        },
        {
          "duration": 0.15000000000000568,
          "durationTicks": 192,
          "midi": 87,
          "name": "D#6",
          "ticks": 223680,
          "time": 171.66287000000003,
          "velocity": 0.905511811023622
        },
        {
          "duration": 0.15000000000000568,
          "durationTicks": 192,
          "midi": 69,
          "name": "A4",
          "ticks": 223872,
          "time": 171.81287000000003,
          "velocity": 0.905511811023622
        },
        {
          "duration": 0.15000000000000568,
          "durationTicks": 192,
          "midi": 78,
          "name": "F#5",
          "ticks": 223872,
          "time": 171.81287000000003,
          "velocity": 0.905511811023622
        },
        {
          "duration": 0.15000000000000568,
          "durationTicks": 192,
          "midi": 75,
          "name": "D#5",
          "ticks": 223872,
          "time": 171.81287000000003,
          "velocity": 0.905511811023622
        },
        {
          "duration": 0.15000000000000568,
          "durationTicks": 192,
          "midi": 87,
          "name": "D#6",
          "ticks": 223872,
          "time": 171.81287000000003,
          "velocity": 0.905511811023622
        },
        {
          "duration": 0.15000000000000568,
          "durationTicks": 192,
          "midi": 69,
          "name": "A4",
          "ticks": 224064,
          "time": 171.96287000000004,
          "velocity": 0.905511811023622
        },
        {
          "duration": 0.15000000000000568,
          "durationTicks": 192,
          "midi": 78,
          "name": "F#5",
          "ticks": 224064,
          "time": 171.96287000000004,
          "velocity": 0.905511811023622
        },
        {
          "duration": 0.15000000000000568,
          "durationTicks": 192,
          "midi": 75,
          "name": "D#5",
          "ticks": 224064,
          "time": 171.96287000000004,
          "velocity": 0.905511811023622
        },
        {
          "duration": 0.15000000000000568,
          "durationTicks": 192,
          "midi": 87,
          "name": "D#6",
          "ticks": 224064,
          "time": 171.96287000000004,
          "velocity": 0.905511811023622
        },
        {
          "duration": 0.14999999999997726,
          "durationTicks": 192,
          "midi": 69,
          "name": "A4",
          "ticks": 224256,
          "time": 172.11287000000004,
          "velocity": 0.905511811023622
        },
        {
          "duration": 0.14999999999997726,
          "durationTicks": 192,
          "midi": 78,
          "name": "F#5",
          "ticks": 224256,
          "time": 172.11287000000004,
          "velocity": 0.905511811023622
        },
        {
          "duration": 0.14999999999997726,
          "durationTicks": 192,
          "midi": 75,
          "name": "D#5",
          "ticks": 224256,
          "time": 172.11287000000004,
          "velocity": 0.905511811023622
        },
        {
          "duration": 0.14999999999997726,
          "durationTicks": 192,
          "midi": 87,
          "name": "D#6",
          "ticks": 224256,
          "time": 172.11287000000004,
          "velocity": 0.905511811023622
        },
        {
          "duration": 0.15000000000000568,
          "durationTicks": 192,
          "midi": 69,
          "name": "A4",
          "ticks": 224448,
          "time": 172.26287000000002,
          "velocity": 0.905511811023622
        },
        {
          "duration": 0.15000000000000568,
          "durationTicks": 192,
          "midi": 78,
          "name": "F#5",
          "ticks": 224448,
          "time": 172.26287000000002,
          "velocity": 0.905511811023622
        },
        {
          "duration": 0.15000000000000568,
          "durationTicks": 192,
          "midi": 75,
          "name": "D#5",
          "ticks": 224448,
          "time": 172.26287000000002,
          "velocity": 0.905511811023622
        },
        {
          "duration": 0.15000000000000568,
          "durationTicks": 192,
          "midi": 87,
          "name": "D#6",
          "ticks": 224448,
          "time": 172.26287000000002,
          "velocity": 0.905511811023622
        },
        {
          "duration": 0.15000000000000568,
          "durationTicks": 192,
          "midi": 69,
          "name": "A4",
          "ticks": 224640,
          "time": 172.41287000000003,
          "velocity": 0.905511811023622
        },
        {
          "duration": 0.15000000000000568,
          "durationTicks": 192,
          "midi": 78,
          "name": "F#5",
          "ticks": 224640,
          "time": 172.41287000000003,
          "velocity": 0.905511811023622
        },
        {
          "duration": 0.15000000000000568,
          "durationTicks": 192,
          "midi": 75,
          "name": "D#5",
          "ticks": 224640,
          "time": 172.41287000000003,
          "velocity": 0.905511811023622
        },
        {
          "duration": 0.15000000000000568,
          "durationTicks": 192,
          "midi": 87,
          "name": "D#6",
          "ticks": 224640,
          "time": 172.41287000000003,
          "velocity": 0.905511811023622
        },
        {
          "duration": 0.15000000000000568,
          "durationTicks": 192,
          "midi": 69,
          "name": "A4",
          "ticks": 224832,
          "time": 172.56287000000003,
          "velocity": 0.905511811023622
        },
        {
          "duration": 0.15000000000000568,
          "durationTicks": 192,
          "midi": 78,
          "name": "F#5",
          "ticks": 224832,
          "time": 172.56287000000003,
          "velocity": 0.905511811023622
        },
        {
          "duration": 0.15000000000000568,
          "durationTicks": 192,
          "midi": 75,
          "name": "D#5",
          "ticks": 224832,
          "time": 172.56287000000003,
          "velocity": 0.905511811023622
        },
        {
          "duration": 0.15000000000000568,
          "durationTicks": 192,
          "midi": 87,
          "name": "D#6",
          "ticks": 224832,
          "time": 172.56287000000003,
          "velocity": 0.905511811023622
        },
        {
          "duration": 0.29999999999998295,
          "durationTicks": 384,
          "midi": 69,
          "name": "A4",
          "ticks": 225024,
          "time": 172.71287000000004,
          "velocity": 0.905511811023622
        },
        {
          "duration": 0.29999999999998295,
          "durationTicks": 384,
          "midi": 78,
          "name": "F#5",
          "ticks": 225024,
          "time": 172.71287000000004,
          "velocity": 0.905511811023622
        },
        {
          "duration": 0.29999999999998295,
          "durationTicks": 384,
          "midi": 75,
          "name": "D#5",
          "ticks": 225024,
          "time": 172.71287000000004,
          "velocity": 0.905511811023622
        },
        {
          "duration": 0.29999999999998295,
          "durationTicks": 384,
          "midi": 87,
          "name": "D#6",
          "ticks": 225024,
          "time": 172.71287000000004,
          "velocity": 0.905511811023622
        },
        {
          "duration": 0.15000000000000568,
          "durationTicks": 192,
          "midi": 67,
          "name": "G4",
          "ticks": 225984,
          "time": 173.46287000000004,
          "velocity": 0.905511811023622
        },
        {
          "duration": 0.15000000000000568,
          "durationTicks": 192,
          "midi": 70,
          "name": "A#4",
          "ticks": 225984,
          "time": 173.46287000000004,
          "velocity": 0.905511811023622
        },
        {
          "duration": 0.15000000000000568,
          "durationTicks": 192,
          "midi": 76,
          "name": "E5",
          "ticks": 225984,
          "time": 173.46287000000004,
          "velocity": 0.905511811023622
        },
        {
          "duration": 0.15000000000000568,
          "durationTicks": 192,
          "midi": 88,
          "name": "E6",
          "ticks": 225984,
          "time": 173.46287000000004,
          "velocity": 0.905511811023622
        },
        {
          "duration": 0.14999999999997726,
          "durationTicks": 192,
          "midi": 67,
          "name": "G4",
          "ticks": 226176,
          "time": 173.61287000000004,
          "velocity": 0.905511811023622
        },
        {
          "duration": 0.14999999999997726,
          "durationTicks": 192,
          "midi": 70,
          "name": "A#4",
          "ticks": 226176,
          "time": 173.61287000000004,
          "velocity": 0.905511811023622
        },
        {
          "duration": 0.14999999999997726,
          "durationTicks": 192,
          "midi": 76,
          "name": "E5",
          "ticks": 226176,
          "time": 173.61287000000004,
          "velocity": 0.905511811023622
        },
        {
          "duration": 0.14999999999997726,
          "durationTicks": 192,
          "midi": 88,
          "name": "E6",
          "ticks": 226176,
          "time": 173.61287000000004,
          "velocity": 0.905511811023622
        },
        {
          "duration": 0.15000000000000568,
          "durationTicks": 192,
          "midi": 67,
          "name": "G4",
          "ticks": 226368,
          "time": 173.76287000000002,
          "velocity": 0.905511811023622
        },
        {
          "duration": 0.15000000000000568,
          "durationTicks": 192,
          "midi": 70,
          "name": "A#4",
          "ticks": 226368,
          "time": 173.76287000000002,
          "velocity": 0.905511811023622
        },
        {
          "duration": 0.15000000000000568,
          "durationTicks": 192,
          "midi": 76,
          "name": "E5",
          "ticks": 226368,
          "time": 173.76287000000002,
          "velocity": 0.905511811023622
        },
        {
          "duration": 0.15000000000000568,
          "durationTicks": 192,
          "midi": 88,
          "name": "E6",
          "ticks": 226368,
          "time": 173.76287000000002,
          "velocity": 0.905511811023622
        },
        {
          "duration": 0.15000000000000568,
          "durationTicks": 192,
          "midi": 67,
          "name": "G4",
          "ticks": 226560,
          "time": 173.91287000000003,
          "velocity": 0.905511811023622
        },
        {
          "duration": 0.15000000000000568,
          "durationTicks": 192,
          "midi": 70,
          "name": "A#4",
          "ticks": 226560,
          "time": 173.91287000000003,
          "velocity": 0.905511811023622
        },
        {
          "duration": 0.15000000000000568,
          "durationTicks": 192,
          "midi": 76,
          "name": "E5",
          "ticks": 226560,
          "time": 173.91287000000003,
          "velocity": 0.905511811023622
        },
        {
          "duration": 0.15000000000000568,
          "durationTicks": 192,
          "midi": 88,
          "name": "E6",
          "ticks": 226560,
          "time": 173.91287000000003,
          "velocity": 0.905511811023622
        },
        {
          "duration": 0.15000000000000568,
          "durationTicks": 192,
          "midi": 70,
          "name": "A#4",
          "ticks": 226752,
          "time": 174.06287000000003,
          "velocity": 0.905511811023622
        },
        {
          "duration": 0.15000000000000568,
          "durationTicks": 192,
          "midi": 79,
          "name": "G5",
          "ticks": 226752,
          "time": 174.06287000000003,
          "velocity": 0.905511811023622
        },
        {
          "duration": 0.15000000000000568,
          "durationTicks": 192,
          "midi": 76,
          "name": "E5",
          "ticks": 226752,
          "time": 174.06287000000003,
          "velocity": 0.905511811023622
        },
        {
          "duration": 0.15000000000000568,
          "durationTicks": 192,
          "midi": 88,
          "name": "E6",
          "ticks": 226752,
          "time": 174.06287000000003,
          "velocity": 0.905511811023622
        },
        {
          "duration": 0.15000000000000568,
          "durationTicks": 192,
          "midi": 70,
          "name": "A#4",
          "ticks": 226944,
          "time": 174.21287000000004,
          "velocity": 0.905511811023622
        },
        {
          "duration": 0.15000000000000568,
          "durationTicks": 192,
          "midi": 79,
          "name": "G5",
          "ticks": 226944,
          "time": 174.21287000000004,
          "velocity": 0.905511811023622
        },
        {
          "duration": 0.15000000000000568,
          "durationTicks": 192,
          "midi": 76,
          "name": "E5",
          "ticks": 226944,
          "time": 174.21287000000004,
          "velocity": 0.905511811023622
        },
        {
          "duration": 0.15000000000000568,
          "durationTicks": 192,
          "midi": 88,
          "name": "E6",
          "ticks": 226944,
          "time": 174.21287000000004,
          "velocity": 0.905511811023622
        },
        {
          "duration": 0.14999999999997726,
          "durationTicks": 192,
          "midi": 70,
          "name": "A#4",
          "ticks": 227136,
          "time": 174.36287000000004,
          "velocity": 0.905511811023622
        },
        {
          "duration": 0.14999999999997726,
          "durationTicks": 192,
          "midi": 79,
          "name": "G5",
          "ticks": 227136,
          "time": 174.36287000000004,
          "velocity": 0.905511811023622
        },
        {
          "duration": 0.14999999999997726,
          "durationTicks": 192,
          "midi": 76,
          "name": "E5",
          "ticks": 227136,
          "time": 174.36287000000004,
          "velocity": 0.905511811023622
        },
        {
          "duration": 0.14999999999997726,
          "durationTicks": 192,
          "midi": 88,
          "name": "E6",
          "ticks": 227136,
          "time": 174.36287000000004,
          "velocity": 0.905511811023622
        },
        {
          "duration": 0.15000000000000568,
          "durationTicks": 192,
          "midi": 70,
          "name": "A#4",
          "ticks": 227328,
          "time": 174.51287000000002,
          "velocity": 0.905511811023622
        },
        {
          "duration": 0.15000000000000568,
          "durationTicks": 192,
          "midi": 79,
          "name": "G5",
          "ticks": 227328,
          "time": 174.51287000000002,
          "velocity": 0.905511811023622
        },
        {
          "duration": 0.15000000000000568,
          "durationTicks": 192,
          "midi": 76,
          "name": "E5",
          "ticks": 227328,
          "time": 174.51287000000002,
          "velocity": 0.905511811023622
        },
        {
          "duration": 0.15000000000000568,
          "durationTicks": 192,
          "midi": 88,
          "name": "E6",
          "ticks": 227328,
          "time": 174.51287000000002,
          "velocity": 0.905511811023622
        },
        {
          "duration": 0.15000000000000568,
          "durationTicks": 192,
          "midi": 70,
          "name": "A#4",
          "ticks": 227520,
          "time": 174.66287000000003,
          "velocity": 0.905511811023622
        },
        {
          "duration": 0.15000000000000568,
          "durationTicks": 192,
          "midi": 79,
          "name": "G5",
          "ticks": 227520,
          "time": 174.66287000000003,
          "velocity": 0.905511811023622
        },
        {
          "duration": 0.15000000000000568,
          "durationTicks": 192,
          "midi": 76,
          "name": "E5",
          "ticks": 227520,
          "time": 174.66287000000003,
          "velocity": 0.905511811023622
        },
        {
          "duration": 0.15000000000000568,
          "durationTicks": 192,
          "midi": 88,
          "name": "E6",
          "ticks": 227520,
          "time": 174.66287000000003,
          "velocity": 0.905511811023622
        },
        {
          "duration": 0.15000000000000568,
          "durationTicks": 192,
          "midi": 70,
          "name": "A#4",
          "ticks": 227712,
          "time": 174.81287000000003,
          "velocity": 0.905511811023622
        },
        {
          "duration": 0.15000000000000568,
          "durationTicks": 192,
          "midi": 79,
          "name": "G5",
          "ticks": 227712,
          "time": 174.81287000000003,
          "velocity": 0.905511811023622
        },
        {
          "duration": 0.15000000000000568,
          "durationTicks": 192,
          "midi": 76,
          "name": "E5",
          "ticks": 227712,
          "time": 174.81287000000003,
          "velocity": 0.905511811023622
        },
        {
          "duration": 0.15000000000000568,
          "durationTicks": 192,
          "midi": 88,
          "name": "E6",
          "ticks": 227712,
          "time": 174.81287000000003,
          "velocity": 0.905511811023622
        },
        {
          "duration": 0.15000000000000568,
          "durationTicks": 192,
          "midi": 70,
          "name": "A#4",
          "ticks": 227904,
          "time": 174.96287000000004,
          "velocity": 0.905511811023622
        },
        {
          "duration": 0.15000000000000568,
          "durationTicks": 192,
          "midi": 79,
          "name": "G5",
          "ticks": 227904,
          "time": 174.96287000000004,
          "velocity": 0.905511811023622
        },
        {
          "duration": 0.15000000000000568,
          "durationTicks": 192,
          "midi": 76,
          "name": "E5",
          "ticks": 227904,
          "time": 174.96287000000004,
          "velocity": 0.905511811023622
        },
        {
          "duration": 0.15000000000000568,
          "durationTicks": 192,
          "midi": 88,
          "name": "E6",
          "ticks": 227904,
          "time": 174.96287000000004,
          "velocity": 0.905511811023622
        },
        {
          "duration": 0.29999999999998295,
          "durationTicks": 384,
          "midi": 70,
          "name": "A#4",
          "ticks": 228096,
          "time": 175.11287000000004,
          "velocity": 0.905511811023622
        },
        {
          "duration": 0.29999999999998295,
          "durationTicks": 384,
          "midi": 79,
          "name": "G5",
          "ticks": 228096,
          "time": 175.11287000000004,
          "velocity": 0.905511811023622
        },
        {
          "duration": 0.29999999999998295,
          "durationTicks": 384,
          "midi": 76,
          "name": "E5",
          "ticks": 228096,
          "time": 175.11287000000004,
          "velocity": 0.905511811023622
        },
        {
          "duration": 0.29999999999998295,
          "durationTicks": 384,
          "midi": 88,
          "name": "E6",
          "ticks": 228096,
          "time": 175.11287000000004,
          "velocity": 0.905511811023622
        },
        {
          "duration": 0.14999999999997726,
          "durationTicks": 192,
          "midi": 70,
          "name": "A#4",
          "ticks": 229056,
          "time": 175.86287000000004,
          "velocity": 0.905511811023622
        },
        {
          "duration": 0.14999999999997726,
          "durationTicks": 192,
          "midi": 79,
          "name": "G5",
          "ticks": 229056,
          "time": 175.86287000000004,
          "velocity": 0.905511811023622
        },
        {
          "duration": 0.14999999999997726,
          "durationTicks": 192,
          "midi": 70,
          "name": "A#4",
          "ticks": 229056,
          "time": 175.86287000000004,
          "velocity": 0.905511811023622
        },
        {
          "duration": 0.14999999999997726,
          "durationTicks": 192,
          "midi": 79,
          "name": "G5",
          "ticks": 229056,
          "time": 175.86287000000004,
          "velocity": 0.905511811023622
        },
        {
          "duration": 0.15000000000000568,
          "durationTicks": 192,
          "midi": 70,
          "name": "A#4",
          "ticks": 229248,
          "time": 176.01287000000002,
          "velocity": 0.905511811023622
        },
        {
          "duration": 0.15000000000000568,
          "durationTicks": 192,
          "midi": 79,
          "name": "G5",
          "ticks": 229248,
          "time": 176.01287000000002,
          "velocity": 0.905511811023622
        },
        {
          "duration": 0.15000000000000568,
          "durationTicks": 192,
          "midi": 70,
          "name": "A#4",
          "ticks": 229248,
          "time": 176.01287000000002,
          "velocity": 0.905511811023622
        },
        {
          "duration": 0.15000000000000568,
          "durationTicks": 192,
          "midi": 79,
          "name": "G5",
          "ticks": 229248,
          "time": 176.01287000000002,
          "velocity": 0.905511811023622
        },
        {
          "duration": 0.15000000000000568,
          "durationTicks": 192,
          "midi": 70,
          "name": "A#4",
          "ticks": 229440,
          "time": 176.16287000000003,
          "velocity": 0.905511811023622
        },
        {
          "duration": 0.15000000000000568,
          "durationTicks": 192,
          "midi": 79,
          "name": "G5",
          "ticks": 229440,
          "time": 176.16287000000003,
          "velocity": 0.905511811023622
        },
        {
          "duration": 0.15000000000000568,
          "durationTicks": 192,
          "midi": 70,
          "name": "A#4",
          "ticks": 229440,
          "time": 176.16287000000003,
          "velocity": 0.905511811023622
        },
        {
          "duration": 0.15000000000000568,
          "durationTicks": 192,
          "midi": 79,
          "name": "G5",
          "ticks": 229440,
          "time": 176.16287000000003,
          "velocity": 0.905511811023622
        },
        {
          "duration": 0.30000000000001137,
          "durationTicks": 384,
          "midi": 70,
          "name": "A#4",
          "ticks": 229632,
          "time": 176.31287000000003,
          "velocity": 0.905511811023622
        },
        {
          "duration": 0.30000000000001137,
          "durationTicks": 384,
          "midi": 79,
          "name": "G5",
          "ticks": 229632,
          "time": 176.31287000000003,
          "velocity": 0.905511811023622
        },
        {
          "duration": 0.30000000000001137,
          "durationTicks": 384,
          "midi": 70,
          "name": "A#4",
          "ticks": 229632,
          "time": 176.31287000000003,
          "velocity": 0.905511811023622
        },
        {
          "duration": 0.30000000000001137,
          "durationTicks": 384,
          "midi": 79,
          "name": "G5",
          "ticks": 229632,
          "time": 176.31287000000003,
          "velocity": 0.905511811023622
        },
        {
          "duration": 0.15000000000000568,
          "durationTicks": 192,
          "midi": 73,
          "name": "C#5",
          "ticks": 230784,
          "time": 177.21287000000004,
          "velocity": 0.905511811023622
        },
        {
          "duration": 0.15000000000000568,
          "durationTicks": 192,
          "midi": 85,
          "name": "C#6",
          "ticks": 230784,
          "time": 177.21287000000004,
          "velocity": 0.905511811023622
        },
        {
          "duration": 0.14999999999997726,
          "durationTicks": 192,
          "midi": 73,
          "name": "C#5",
          "ticks": 230976,
          "time": 177.36287000000004,
          "velocity": 0.905511811023622
        },
        {
          "duration": 0.14999999999997726,
          "durationTicks": 192,
          "midi": 85,
          "name": "C#6",
          "ticks": 230976,
          "time": 177.36287000000004,
          "velocity": 0.905511811023622
        },
        {
          "duration": 0.30000000000001137,
          "durationTicks": 384,
          "midi": 73,
          "name": "C#5",
          "ticks": 231168,
          "time": 177.51287000000002,
          "velocity": 0.905511811023622
        },
        {
          "duration": 0.30000000000001137,
          "durationTicks": 384,
          "midi": 85,
          "name": "C#6",
          "ticks": 231168,
          "time": 177.51287000000002,
          "velocity": 0.905511811023622
        },
        {
          "duration": 0.15000000000000568,
          "durationTicks": 192,
          "midi": 74,
          "name": "D5",
          "ticks": 231552,
          "time": 177.81287000000003,
          "velocity": 0.905511811023622
        },
        {
          "duration": 0.15000000000000568,
          "durationTicks": 192,
          "midi": 86,
          "name": "D6",
          "ticks": 231552,
          "time": 177.81287000000003,
          "velocity": 0.905511811023622
        },
        {
          "duration": 0.15000000000000568,
          "durationTicks": 192,
          "midi": 74,
          "name": "D5",
          "ticks": 231744,
          "time": 177.96287000000004,
          "velocity": 0.905511811023622
        },
        {
          "duration": 0.15000000000000568,
          "durationTicks": 192,
          "midi": 86,
          "name": "D6",
          "ticks": 231744,
          "time": 177.96287000000004,
          "velocity": 0.905511811023622
        },
        {
          "duration": 0.14999999999997726,
          "durationTicks": 192,
          "midi": 74,
          "name": "D5",
          "ticks": 231936,
          "time": 178.11287000000004,
          "velocity": 0.905511811023622
        },
        {
          "duration": 0.14999999999997726,
          "durationTicks": 192,
          "midi": 86,
          "name": "D6",
          "ticks": 231936,
          "time": 178.11287000000004,
          "velocity": 0.905511811023622
        },
        {
          "duration": 0.15000000000000568,
          "durationTicks": 192,
          "midi": 74,
          "name": "D5",
          "ticks": 232128,
          "time": 178.26287000000002,
          "velocity": 0.968503937007874
        },
        {
          "duration": 0.15000000000000568,
          "durationTicks": 192,
          "midi": 86,
          "name": "D6",
          "ticks": 232128,
          "time": 178.26287000000002,
          "velocity": 0.968503937007874
        },
        {
          "duration": 0.15000000000000568,
          "durationTicks": 192,
          "midi": 74,
          "name": "D5",
          "ticks": 232320,
          "time": 178.41287000000003,
          "velocity": 0.968503937007874
        },
        {
          "duration": 0.15000000000000568,
          "durationTicks": 192,
          "midi": 86,
          "name": "D6",
          "ticks": 232320,
          "time": 178.41287000000003,
          "velocity": 0.968503937007874
        },
        {
          "duration": 0.15000000000000568,
          "durationTicks": 192,
          "midi": 74,
          "name": "D5",
          "ticks": 232512,
          "time": 178.56287000000003,
          "velocity": 0.968503937007874
        },
        {
          "duration": 0.15000000000000568,
          "durationTicks": 192,
          "midi": 86,
          "name": "D6",
          "ticks": 232512,
          "time": 178.56287000000003,
          "velocity": 0.968503937007874
        },
        {
          "duration": 0.5999999999999943,
          "durationTicks": 768,
          "midi": 67,
          "name": "G4",
          "ticks": 232704,
          "time": 178.71287000000004,
          "velocity": 0.968503937007874
        },
        {
          "duration": 0.5999999999999943,
          "durationTicks": 768,
          "midi": 79,
          "name": "G5",
          "ticks": 232704,
          "time": 178.71287000000004,
          "velocity": 0.968503937007874
        },
        {
          "duration": 0.5999999999999943,
          "durationTicks": 768,
          "midi": 69,
          "name": "A4",
          "ticks": 233472,
          "time": 179.31287000000003,
          "velocity": 0.968503937007874
        },
        {
          "duration": 0.5999999999999943,
          "durationTicks": 768,
          "midi": 81,
          "name": "A5",
          "ticks": 233472,
          "time": 179.31287000000003,
          "velocity": 0.968503937007874
        },
        {
          "duration": 2.0999999999999943,
          "durationTicks": 2688,
          "midi": 62,
          "name": "D4",
          "ticks": 234240,
          "time": 179.91287000000003,
          "velocity": 0.968503937007874
        },
        {
          "duration": 2.0999999999999943,
          "durationTicks": 2688,
          "midi": 74,
          "name": "D5",
          "ticks": 234240,
          "time": 179.91287000000003,
          "velocity": 0.968503937007874
        },
        {
          "duration": 0.15000000000000568,
          "durationTicks": 192,
          "midi": 66,
          "name": "F#4",
          "ticks": 236928,
          "time": 182.01287000000002,
          "velocity": 0.968503937007874
        },
        {
          "duration": 0.15000000000000568,
          "durationTicks": 192,
          "midi": 78,
          "name": "F#5",
          "ticks": 236928,
          "time": 182.01287000000002,
          "velocity": 0.968503937007874
        },
        {
          "duration": 0.15000000000000568,
          "durationTicks": 192,
          "midi": 66,
          "name": "F#4",
          "ticks": 237120,
          "time": 182.16287000000003,
          "velocity": 0.968503937007874
        },
        {
          "duration": 0.15000000000000568,
          "durationTicks": 192,
          "midi": 78,
          "name": "F#5",
          "ticks": 237120,
          "time": 182.16287000000003,
          "velocity": 0.968503937007874
        },
        {
          "duration": 0.30000000000001137,
          "durationTicks": 384,
          "midi": 69,
          "name": "A4",
          "ticks": 237312,
          "time": 182.31287000000003,
          "velocity": 0.968503937007874
        },
        {
          "duration": 0.30000000000001137,
          "durationTicks": 384,
          "midi": 81,
          "name": "A5",
          "ticks": 237312,
          "time": 182.31287000000003,
          "velocity": 0.968503937007874
        },
        {
          "duration": 0.14999999999997726,
          "durationTicks": 192,
          "midi": 74,
          "name": "D5",
          "ticks": 237696,
          "time": 182.61287000000004,
          "velocity": 0.968503937007874
        },
        {
          "duration": 0.14999999999997726,
          "durationTicks": 192,
          "midi": 86,
          "name": "D6",
          "ticks": 237696,
          "time": 182.61287000000004,
          "velocity": 0.968503937007874
        },
        {
          "duration": 0.15000000000000568,
          "durationTicks": 192,
          "midi": 74,
          "name": "D5",
          "ticks": 237888,
          "time": 182.76287000000002,
          "velocity": 0.968503937007874
        },
        {
          "duration": 0.15000000000000568,
          "durationTicks": 192,
          "midi": 86,
          "name": "D6",
          "ticks": 237888,
          "time": 182.76287000000002,
          "velocity": 0.968503937007874
        },
        {
          "duration": 0.15000000000000568,
          "durationTicks": 192,
          "midi": 71,
          "name": "B4",
          "ticks": 238080,
          "time": 182.91287000000003,
          "velocity": 0.968503937007874
        },
        {
          "duration": 0.15000000000000568,
          "durationTicks": 192,
          "midi": 83,
          "name": "B5",
          "ticks": 238080,
          "time": 182.91287000000003,
          "velocity": 0.968503937007874
        },
        {
          "duration": 0.15000000000000568,
          "durationTicks": 192,
          "midi": 67,
          "name": "G4",
          "ticks": 238272,
          "time": 183.06287000000003,
          "velocity": 0.968503937007874
        },
        {
          "duration": 0.15000000000000568,
          "durationTicks": 192,
          "midi": 79,
          "name": "G5",
          "ticks": 238272,
          "time": 183.06287000000003,
          "velocity": 0.968503937007874
        },
        {
          "duration": 0.15000000000000568,
          "durationTicks": 192,
          "midi": 67,
          "name": "G4",
          "ticks": 238464,
          "time": 183.21287000000004,
          "velocity": 0.968503937007874
        },
        {
          "duration": 0.15000000000000568,
          "durationTicks": 192,
          "midi": 79,
          "name": "G5",
          "ticks": 238464,
          "time": 183.21287000000004,
          "velocity": 0.968503937007874
        },
        {
          "duration": 0.14999999999997726,
          "durationTicks": 192,
          "midi": 67,
          "name": "G4",
          "ticks": 238656,
          "time": 183.36287000000004,
          "velocity": 0.968503937007874
        },
        {
          "duration": 0.14999999999997726,
          "durationTicks": 192,
          "midi": 79,
          "name": "G5",
          "ticks": 238656,
          "time": 183.36287000000004,
          "velocity": 0.968503937007874
        },
        {
          "duration": 0.6000000000000227,
          "durationTicks": 768,
          "midi": 60,
          "name": "C4",
          "ticks": 238848,
          "time": 183.51287000000002,
          "velocity": 0.968503937007874
        },
        {
          "duration": 0.6000000000000227,
          "durationTicks": 768,
          "midi": 72,
          "name": "C5",
          "ticks": 238848,
          "time": 183.51287000000002,
          "velocity": 0.968503937007874
        },
        {
          "duration": 0.5999999999999943,
          "durationTicks": 768,
          "midi": 62,
          "name": "D4",
          "ticks": 239616,
          "time": 184.11287000000004,
          "velocity": 0.968503937007874
        },
        {
          "duration": 0.5999999999999943,
          "durationTicks": 768,
          "midi": 74,
          "name": "D5",
          "ticks": 239616,
          "time": 184.11287000000004,
          "velocity": 0.968503937007874
        },
        {
          "duration": 2.0999999999999943,
          "durationTicks": 2688,
          "midi": 55,
          "name": "G3",
          "ticks": 240384,
          "time": 184.71287000000004,
          "velocity": 0.968503937007874
        },
        {
          "duration": 2.0999999999999943,
          "durationTicks": 2688,
          "midi": 67,
          "name": "G4",
          "ticks": 240384,
          "time": 184.71287000000004,
          "velocity": 0.968503937007874
        },
        {
          "duration": 0.15000000000000568,
          "durationTicks": 192,
          "midi": 59,
          "name": "B3",
          "ticks": 243072,
          "time": 186.81287000000003,
          "velocity": 0.968503937007874
        },
        {
          "duration": 0.15000000000000568,
          "durationTicks": 192,
          "midi": 71,
          "name": "B4",
          "ticks": 243072,
          "time": 186.81287000000003,
          "velocity": 0.968503937007874
        },
        {
          "duration": 0.15000000000000568,
          "durationTicks": 192,
          "midi": 59,
          "name": "B3",
          "ticks": 243264,
          "time": 186.96287000000004,
          "velocity": 0.968503937007874
        },
        {
          "duration": 0.15000000000000568,
          "durationTicks": 192,
          "midi": 71,
          "name": "B4",
          "ticks": 243264,
          "time": 186.96287000000004,
          "velocity": 0.968503937007874
        },
        {
          "duration": 0.29999999999998295,
          "durationTicks": 384,
          "midi": 62,
          "name": "D4",
          "ticks": 243456,
          "time": 187.11287000000004,
          "velocity": 0.968503937007874
        },
        {
          "duration": 0.29999999999998295,
          "durationTicks": 384,
          "midi": 74,
          "name": "D5",
          "ticks": 243456,
          "time": 187.11287000000004,
          "velocity": 0.968503937007874
        },
        {
          "duration": 0.15000000000000568,
          "durationTicks": 192,
          "midi": 67,
          "name": "G4",
          "ticks": 243840,
          "time": 187.41287000000003,
          "velocity": 0.968503937007874
        },
        {
          "duration": 0.15000000000000568,
          "durationTicks": 192,
          "midi": 79,
          "name": "G5",
          "ticks": 243840,
          "time": 187.41287000000003,
          "velocity": 0.968503937007874
        },
        {
          "duration": 0.15000000000000568,
          "durationTicks": 192,
          "midi": 67,
          "name": "G4",
          "ticks": 244032,
          "time": 187.56287000000003,
          "velocity": 0.968503937007874
        },
        {
          "duration": 0.15000000000000568,
          "durationTicks": 192,
          "midi": 79,
          "name": "G5",
          "ticks": 244032,
          "time": 187.56287000000003,
          "velocity": 0.968503937007874
        },
        {
          "duration": 0.29999999999998295,
          "durationTicks": 384,
          "midi": 64,
          "name": "E4",
          "ticks": 244224,
          "time": 187.71287000000004,
          "velocity": 0.968503937007874
        },
        {
          "duration": 0.29999999999998295,
          "durationTicks": 384,
          "midi": 76,
          "name": "E5",
          "ticks": 244224,
          "time": 187.71287000000004,
          "velocity": 0.968503937007874
        },
        {
          "duration": 0.6000000000000227,
          "durationTicks": 768,
          "midi": 58,
          "name": "A#3",
          "ticks": 246528,
          "time": 189.51287000000002,
          "velocity": 0.968503937007874
        },
        {
          "duration": 0.6000000000000227,
          "durationTicks": 768,
          "midi": 55,
          "name": "G3",
          "ticks": 246528,
          "time": 189.51287000000002,
          "velocity": 0.968503937007874
        },
        {
          "duration": 0.6000000000000227,
          "durationTicks": 768,
          "midi": 64,
          "name": "E4",
          "ticks": 246528,
          "time": 189.51287000000002,
          "velocity": 0.968503937007874
        },
        {
          "duration": 0.5999999999999943,
          "durationTicks": 768,
          "midi": 60,
          "name": "C4",
          "ticks": 247296,
          "time": 190.11287000000004,
          "velocity": 0.968503937007874
        },
        {
          "duration": 0.5999999999999943,
          "durationTicks": 768,
          "midi": 56,
          "name": "G#3",
          "ticks": 247296,
          "time": 190.11287000000004,
          "velocity": 0.968503937007874
        },
        {
          "duration": 0.5999999999999943,
          "durationTicks": 768,
          "midi": 65,
          "name": "F4",
          "ticks": 247296,
          "time": 190.11287000000004,
          "velocity": 0.968503937007874
        },
        {
          "duration": 0.5999999999999943,
          "durationTicks": 768,
          "midi": 58,
          "name": "A#3",
          "ticks": 249600,
          "time": 191.91287000000003,
          "velocity": 0.968503937007874
        },
        {
          "duration": 0.5999999999999943,
          "durationTicks": 768,
          "midi": 55,
          "name": "G3",
          "ticks": 249600,
          "time": 191.91287000000003,
          "velocity": 0.968503937007874
        },
        {
          "duration": 0.5999999999999943,
          "durationTicks": 768,
          "midi": 64,
          "name": "E4",
          "ticks": 249600,
          "time": 191.91287000000003,
          "velocity": 0.968503937007874
        },
        {
          "duration": 0.6000000000000227,
          "durationTicks": 768,
          "midi": 60,
          "name": "C4",
          "ticks": 250368,
          "time": 192.51287000000002,
          "velocity": 0.968503937007874
        },
        {
          "duration": 0.6000000000000227,
          "durationTicks": 768,
          "midi": 56,
          "name": "G#3",
          "ticks": 250368,
          "time": 192.51287000000002,
          "velocity": 0.968503937007874
        },
        {
          "duration": 0.6000000000000227,
          "durationTicks": 768,
          "midi": 65,
          "name": "F4",
          "ticks": 250368,
          "time": 192.51287000000002,
          "velocity": 0.968503937007874
        },
        {
          "duration": 0.5999999999999943,
          "durationTicks": 768,
          "midi": 61,
          "name": "C#4",
          "ticks": 252672,
          "time": 194.31287000000003,
          "velocity": 0.968503937007874
        },
        {
          "duration": 0.5999999999999943,
          "durationTicks": 768,
          "midi": 66,
          "name": "F#4",
          "ticks": 252672,
          "time": 194.31287000000003,
          "velocity": 0.968503937007874
        },
        {
          "duration": 0.5999999999999943,
          "durationTicks": 768,
          "midi": 57,
          "name": "A3",
          "ticks": 253440,
          "time": 194.91287000000003,
          "velocity": 0.968503937007874
        },
        {
          "duration": 0.5999999999999943,
          "durationTicks": 768,
          "midi": 69,
          "name": "A4",
          "ticks": 253440,
          "time": 194.91287000000003,
          "velocity": 0.968503937007874
        },
        {
          "duration": 0.5999999999999943,
          "durationTicks": 768,
          "midi": 65,
          "name": "F4",
          "ticks": 255744,
          "time": 196.71287000000004,
          "velocity": 0.968503937007874
        },
        {
          "duration": 0.5999999999999943,
          "durationTicks": 768,
          "midi": 70,
          "name": "A#4",
          "ticks": 255744,
          "time": 196.71287000000004,
          "velocity": 0.968503937007874
        },
        {
          "duration": 0.6122400000000141,
          "durationTicks": 768,
          "midi": 59,
          "name": "B3",
          "ticks": 257280,
          "time": 197.91287000000003,
          "velocity": 0.905511811023622
        },
        {
          "duration": 0.6122400000000141,
          "durationTicks": 768,
          "midi": 71,
          "name": "B4",
          "ticks": 257280,
          "time": 197.91287000000003,
          "velocity": 0.905511811023622
        },
        {
          "duration": 0.6122400000000141,
          "durationTicks": 768,
          "midi": 56,
          "name": "G#3",
          "ticks": 258816,
          "time": 199.13735000000003,
          "velocity": 0.8582677165354331
        },
        {
          "duration": 0.6122400000000141,
          "durationTicks": 768,
          "midi": 73,
          "name": "C#5",
          "ticks": 258816,
          "time": 199.13735000000003,
          "velocity": 0.8582677165354331
        },
        {
          "duration": 0.6122400000000141,
          "durationTicks": 768,
          "midi": 57,
          "name": "A3",
          "ticks": 260352,
          "time": 200.36183000000003,
          "velocity": 0.7952755905511811
        },
        {
          "duration": 0.6122400000000141,
          "durationTicks": 768,
          "midi": 61,
          "name": "C#4",
          "ticks": 260352,
          "time": 200.36183000000003,
          "velocity": 0.7952755905511811
        },
        {
          "duration": 0.6122400000000141,
          "durationTicks": 768,
          "midi": 57,
          "name": "A3",
          "ticks": 261888,
          "time": 201.58631000000003,
          "velocity": 0.7165354330708661
        },
        {
          "duration": 0.6122400000000141,
          "durationTicks": 768,
          "midi": 61,
          "name": "C#4",
          "ticks": 261888,
          "time": 201.58631000000003,
          "velocity": 0.7165354330708661
        },
        {
          "duration": 0.6122400000000141,
          "durationTicks": 768,
          "midi": 57,
          "name": "A3",
          "ticks": 263424,
          "time": 202.81079000000003,
          "velocity": 0.7165354330708661
        },
        {
          "duration": 0.6122400000000141,
          "durationTicks": 768,
          "midi": 61,
          "name": "C#4",
          "ticks": 263424,
          "time": 202.81079000000003,
          "velocity": 0.7165354330708661
        },
        {
          "duration": 0.6122400000000141,
          "durationTicks": 768,
          "midi": 57,
          "name": "A3",
          "ticks": 264960,
          "time": 204.03527000000003,
          "velocity": 0.6141732283464567
        },
        {
          "duration": 0.6122400000000141,
          "durationTicks": 768,
          "midi": 62,
          "name": "D4",
          "ticks": 264960,
          "time": 204.03527000000003,
          "velocity": 0.6141732283464567
        },
        {
          "duration": 0.6122400000000141,
          "durationTicks": 768,
          "midi": 57,
          "name": "A3",
          "ticks": 266496,
          "time": 205.25975000000003,
          "velocity": 0.6141732283464567
        },
        {
          "duration": 0.6122400000000141,
          "durationTicks": 768,
          "midi": 62,
          "name": "D4",
          "ticks": 266496,
          "time": 205.25975000000003,
          "velocity": 0.6141732283464567
        },
        {
          "duration": 0.6122400000000141,
          "durationTicks": 768,
          "midi": 57,
          "name": "A3",
          "ticks": 268032,
          "time": 206.48423000000003,
          "velocity": 0.6141732283464567
        },
        {
          "duration": 0.6122400000000141,
          "durationTicks": 768,
          "midi": 62,
          "name": "D4",
          "ticks": 268032,
          "time": 206.48423000000003,
          "velocity": 0.6141732283464567
        },
        {
          "duration": 0.15306000000001063,
          "durationTicks": 192,
          "midi": 57,
          "name": "A3",
          "ticks": 269568,
          "time": 207.70871000000002,
          "velocity": 0.968503937007874
        },
        {
          "duration": 0.15306000000001063,
          "durationTicks": 192,
          "midi": 62,
          "name": "D4",
          "ticks": 269568,
          "time": 207.70871000000002,
          "velocity": 0.968503937007874
        },
        {
          "duration": 0.1530599999999822,
          "durationTicks": 192,
          "midi": 62,
          "name": "D4",
          "ticks": 269760,
          "time": 207.86177000000004,
          "velocity": 0.968503937007874
        },
        {
          "duration": 0.1530599999999822,
          "durationTicks": 192,
          "midi": 74,
          "name": "D5",
          "ticks": 269760,
          "time": 207.86177000000004,
          "velocity": 0.968503937007874
        },
        {
          "duration": 0.15306000000001063,
          "durationTicks": 192,
          "midi": 62,
          "name": "D4",
          "ticks": 269952,
          "time": 208.01483000000002,
          "velocity": 0.968503937007874
        },
        {
          "duration": 0.15306000000001063,
          "durationTicks": 192,
          "midi": 74,
          "name": "D5",
          "ticks": 269952,
          "time": 208.01483000000002,
          "velocity": 0.968503937007874
        },
        {
          "duration": 0.15306000000001063,
          "durationTicks": 192,
          "midi": 62,
          "name": "D4",
          "ticks": 270144,
          "time": 208.16789000000003,
          "velocity": 0.968503937007874
        },
        {
          "duration": 0.15306000000001063,
          "durationTicks": 192,
          "midi": 74,
          "name": "D5",
          "ticks": 270144,
          "time": 208.16789000000003,
          "velocity": 0.968503937007874
        },
        {
          "duration": 0.6122399999999857,
          "durationTicks": 768,
          "midi": 59,
          "name": "B3",
          "ticks": 270336,
          "time": 208.32095000000004,
          "velocity": 0.968503937007874
        },
        {
          "duration": 0.6122399999999857,
          "durationTicks": 768,
          "midi": 71,
          "name": "B4",
          "ticks": 270336,
          "time": 208.32095000000004,
          "velocity": 0.968503937007874
        },
        {
          "duration": 0.6122400000000141,
          "durationTicks": 768,
          "midi": 60,
          "name": "C4",
          "ticks": 271104,
          "time": 208.93319000000002,
          "velocity": 0.968503937007874
        },
        {
          "duration": 0.6122400000000141,
          "durationTicks": 768,
          "midi": 72,
          "name": "C5",
          "ticks": 271104,
          "time": 208.93319000000002,
          "velocity": 0.968503937007874
        },
        {
          "duration": 1.2244799999999998,
          "durationTicks": 1536,
          "midi": 57,
          "name": "A3",
          "ticks": 271872,
          "time": 209.54543000000004,
          "velocity": 0.968503937007874
        },
        {
          "duration": 1.2244799999999998,
          "durationTicks": 1536,
          "midi": 69,
          "name": "A4",
          "ticks": 271872,
          "time": 209.54543000000004,
          "velocity": 0.968503937007874
        },
        {
          "duration": 0.6122400000000141,
          "durationTicks": 768,
          "midi": 56,
          "name": "G#3",
          "ticks": 274176,
          "time": 211.38215000000002,
          "velocity": 0.6141732283464567
        },
        {
          "duration": 0.6122400000000141,
          "durationTicks": 768,
          "midi": 62,
          "name": "D4",
          "ticks": 274176,
          "time": 211.38215000000002,
          "velocity": 0.6141732283464567
        },
        {
          "duration": 0.6122400000000141,
          "durationTicks": 768,
          "midi": 56,
          "name": "G#3",
          "ticks": 275712,
          "time": 212.60663000000002,
          "velocity": 0.6141732283464567
        },
        {
          "duration": 0.6122400000000141,
          "durationTicks": 768,
          "midi": 62,
          "name": "D4",
          "ticks": 275712,
          "time": 212.60663000000002,
          "velocity": 0.6141732283464567
        },
        {
          "duration": 0.6122400000000141,
          "durationTicks": 768,
          "midi": 56,
          "name": "G#3",
          "ticks": 277248,
          "time": 213.83111000000002,
          "velocity": 0.6141732283464567
        },
        {
          "duration": 0.6122400000000141,
          "durationTicks": 768,
          "midi": 62,
          "name": "D4",
          "ticks": 277248,
          "time": 213.83111000000002,
          "velocity": 0.6141732283464567
        },
        {
          "duration": 0.2830099999999902,
          "durationTicks": 384,
          "midi": 56,
          "name": "G#3",
          "ticks": 278784,
          "time": 215.05559000000002,
          "velocity": 0.905511811023622
        },
        {
          "duration": 0.2830099999999902,
          "durationTicks": 384,
          "midi": 62,
          "name": "D4",
          "ticks": 278784,
          "time": 215.05559000000002,
          "velocity": 0.905511811023622
        },
        {
          "duration": 0.1415049999999951,
          "durationTicks": 192,
          "midi": 68,
          "name": "G#4",
          "ticks": 279744,
          "time": 215.76311500000003,
          "velocity": 0.968503937007874
        },
        {
          "duration": 0.1415049999999951,
          "durationTicks": 192,
          "midi": 80,
          "name": "G#5",
          "ticks": 279744,
          "time": 215.76311500000003,
          "velocity": 0.968503937007874
        },
        {
          "duration": 0.1415049999999951,
          "durationTicks": 192,
          "midi": 68,
          "name": "G#4",
          "ticks": 279936,
          "time": 215.90462000000002,
          "velocity": 0.968503937007874
        },
        {
          "duration": 0.1415049999999951,
          "durationTicks": 192,
          "midi": 80,
          "name": "G#5",
          "ticks": 279936,
          "time": 215.90462000000002,
          "velocity": 0.968503937007874
        },
        {
          "duration": 0.1415049999999951,
          "durationTicks": 192,
          "midi": 68,
          "name": "G#4",
          "ticks": 280128,
          "time": 216.04612500000002,
          "velocity": 0.968503937007874
        },
        {
          "duration": 0.1415049999999951,
          "durationTicks": 192,
          "midi": 80,
          "name": "G#5",
          "ticks": 280128,
          "time": 216.04612500000002,
          "velocity": 0.968503937007874
        },
        {
          "duration": 0.707525000000004,
          "durationTicks": 960,
          "midi": 65,
          "name": "F4",
          "ticks": 280320,
          "time": 216.18763,
          "velocity": 0.968503937007874
        },
        {
          "duration": 0.707525000000004,
          "durationTicks": 960,
          "midi": 77,
          "name": "F5",
          "ticks": 280320,
          "time": 216.18763,
          "velocity": 0.968503937007874
        },
        {
          "duration": 0.1415049999999951,
          "durationTicks": 192,
          "midi": 68,
          "name": "G#4",
          "ticks": 281280,
          "time": 216.89515500000002,
          "velocity": 0.968503937007874
        },
        {
          "duration": 0.1415049999999951,
          "durationTicks": 192,
          "midi": 80,
          "name": "G#5",
          "ticks": 281280,
          "time": 216.89515500000002,
          "velocity": 0.968503937007874
        },
        {
          "duration": 0.14150500000002353,
          "durationTicks": 192,
          "midi": 68,
          "name": "G#4",
          "ticks": 281472,
          "time": 217.03666,
          "velocity": 0.968503937007874
        },
        {
          "duration": 0.14150500000002353,
          "durationTicks": 192,
          "midi": 80,
          "name": "G#5",
          "ticks": 281472,
          "time": 217.03666,
          "velocity": 0.968503937007874
        },
        {
          "duration": 0.1415049999999951,
          "durationTicks": 192,
          "midi": 68,
          "name": "G#4",
          "ticks": 281664,
          "time": 217.17816500000004,
          "velocity": 0.968503937007874
        },
        {
          "duration": 0.1415049999999951,
          "durationTicks": 192,
          "midi": 80,
          "name": "G#5",
          "ticks": 281664,
          "time": 217.17816500000004,
          "velocity": 0.968503937007874
        },
        {
          "duration": 0.707525000000004,
          "durationTicks": 960,
          "midi": 65,
          "name": "F4",
          "ticks": 281856,
          "time": 217.31967000000003,
          "velocity": 0.968503937007874
        },
        {
          "duration": 0.707525000000004,
          "durationTicks": 960,
          "midi": 77,
          "name": "F5",
          "ticks": 281856,
          "time": 217.31967000000003,
          "velocity": 0.968503937007874
        },
        {
          "duration": 0.1415049999999951,
          "durationTicks": 192,
          "midi": 68,
          "name": "G#4",
          "ticks": 282816,
          "time": 218.02719500000003,
          "velocity": 0.968503937007874
        },
        {
          "duration": 0.1415049999999951,
          "durationTicks": 192,
          "midi": 80,
          "name": "G#5",
          "ticks": 282816,
          "time": 218.02719500000003,
          "velocity": 0.968503937007874
        },
        {
          "duration": 0.1415049999999951,
          "durationTicks": 192,
          "midi": 68,
          "name": "G#4",
          "ticks": 283008,
          "time": 218.16870000000003,
          "velocity": 0.968503937007874
        },
        {
          "duration": 0.1415049999999951,
          "durationTicks": 192,
          "midi": 80,
          "name": "G#5",
          "ticks": 283008,
          "time": 218.16870000000003,
          "velocity": 0.968503937007874
        },
        {
          "duration": 0.1415049999999951,
          "durationTicks": 192,
          "midi": 68,
          "name": "G#4",
          "ticks": 283200,
          "time": 218.31020500000002,
          "velocity": 0.968503937007874
        },
        {
          "duration": 0.1415049999999951,
          "durationTicks": 192,
          "midi": 80,
          "name": "G#5",
          "ticks": 283200,
          "time": 218.31020500000002,
          "velocity": 0.968503937007874
        },
        {
          "duration": 0.1415049999999951,
          "durationTicks": 192,
          "midi": 65,
          "name": "F4",
          "ticks": 283392,
          "time": 218.45171000000002,
          "velocity": 0.968503937007874
        },
        {
          "duration": 0.1415049999999951,
          "durationTicks": 192,
          "midi": 77,
          "name": "F5",
          "ticks": 283392,
          "time": 218.45171000000002,
          "velocity": 0.968503937007874
        },
        {
          "duration": 0.1415049999999951,
          "durationTicks": 192,
          "midi": 68,
          "name": "G#4",
          "ticks": 283584,
          "time": 218.59321500000001,
          "velocity": 0.968503937007874
        },
        {
          "duration": 0.1415049999999951,
          "durationTicks": 192,
          "midi": 80,
          "name": "G#5",
          "ticks": 283584,
          "time": 218.59321500000001,
          "velocity": 0.968503937007874
        },
        {
          "duration": 0.14150500000002353,
          "durationTicks": 192,
          "midi": 68,
          "name": "G#4",
          "ticks": 283776,
          "time": 218.73472,
          "velocity": 0.968503937007874
        },
        {
          "duration": 0.14150500000002353,
          "durationTicks": 192,
          "midi": 80,
          "name": "G#5",
          "ticks": 283776,
          "time": 218.73472,
          "velocity": 0.968503937007874
        },
        {
          "duration": 0.1415049999999951,
          "durationTicks": 192,
          "midi": 68,
          "name": "G#4",
          "ticks": 283968,
          "time": 218.87622500000003,
          "velocity": 0.968503937007874
        },
        {
          "duration": 0.1415049999999951,
          "durationTicks": 192,
          "midi": 80,
          "name": "G#5",
          "ticks": 283968,
          "time": 218.87622500000003,
          "velocity": 0.968503937007874
        },
        {
          "duration": 0.1415049999999951,
          "durationTicks": 192,
          "midi": 65,
          "name": "F4",
          "ticks": 284160,
          "time": 219.01773000000003,
          "velocity": 0.968503937007874
        },
        {
          "duration": 0.1415049999999951,
          "durationTicks": 192,
          "midi": 77,
          "name": "F5",
          "ticks": 284160,
          "time": 219.01773000000003,
          "velocity": 0.968503937007874
        },
        {
          "duration": 0.1415049999999951,
          "durationTicks": 192,
          "midi": 68,
          "name": "G#4",
          "ticks": 284352,
          "time": 219.15923500000002,
          "velocity": 0.968503937007874
        },
        {
          "duration": 0.1415049999999951,
          "durationTicks": 192,
          "midi": 80,
          "name": "G#5",
          "ticks": 284352,
          "time": 219.15923500000002,
          "velocity": 0.968503937007874
        },
        {
          "duration": 0.1415049999999951,
          "durationTicks": 192,
          "midi": 68,
          "name": "G#4",
          "ticks": 284544,
          "time": 219.30074000000002,
          "velocity": 0.968503937007874
        },
        {
          "duration": 0.1415049999999951,
          "durationTicks": 192,
          "midi": 80,
          "name": "G#5",
          "ticks": 284544,
          "time": 219.30074000000002,
          "velocity": 0.968503937007874
        },
        {
          "duration": 0.1415049999999951,
          "durationTicks": 192,
          "midi": 68,
          "name": "G#4",
          "ticks": 284736,
          "time": 219.442245,
          "velocity": 0.968503937007874
        },
        {
          "duration": 0.1415049999999951,
          "durationTicks": 192,
          "midi": 80,
          "name": "G#5",
          "ticks": 284736,
          "time": 219.442245,
          "velocity": 0.968503937007874
        },
        {
          "duration": 0.14150500000002353,
          "durationTicks": 192,
          "midi": 65,
          "name": "F4",
          "ticks": 284928,
          "time": 219.58375,
          "velocity": 0.968503937007874
        },
        {
          "duration": 0.14150500000002353,
          "durationTicks": 192,
          "midi": 77,
          "name": "F5",
          "ticks": 284928,
          "time": 219.58375,
          "velocity": 0.968503937007874
        },
        {
          "duration": 0.1415049999999951,
          "durationTicks": 192,
          "midi": 67,
          "name": "G4",
          "ticks": 285120,
          "time": 219.72525500000003,
          "velocity": 0.968503937007874
        },
        {
          "duration": 0.1415049999999951,
          "durationTicks": 192,
          "midi": 79,
          "name": "G5",
          "ticks": 285120,
          "time": 219.72525500000003,
          "velocity": 0.968503937007874
        },
        {
          "duration": 0.1415049999999951,
          "durationTicks": 192,
          "midi": 67,
          "name": "G4",
          "ticks": 285312,
          "time": 219.86676000000003,
          "velocity": 0.968503937007874
        },
        {
          "duration": 0.1415049999999951,
          "durationTicks": 192,
          "midi": 79,
          "name": "G5",
          "ticks": 285312,
          "time": 219.86676000000003,
          "velocity": 0.968503937007874
        },
        {
          "duration": 0.1415049999999951,
          "durationTicks": 192,
          "midi": 67,
          "name": "G4",
          "ticks": 285504,
          "time": 220.00826500000002,
          "velocity": 0.968503937007874
        },
        {
          "duration": 0.1415049999999951,
          "durationTicks": 192,
          "midi": 79,
          "name": "G5",
          "ticks": 285504,
          "time": 220.00826500000002,
          "velocity": 0.968503937007874
        },
        {
          "duration": 0.75,
          "durationTicks": 768,
          "midi": 63,
          "name": "D#4",
          "ticks": 285696,
          "time": 220.14977000000002,
          "velocity": 0.968503937007874
        },
        {
          "duration": 0.75,
          "durationTicks": 768,
          "midi": 75,
          "name": "D#5",
          "ticks": 285696,
          "time": 220.14977000000002,
          "velocity": 0.968503937007874
        },
        {
          "duration": 0.1415049999999951,
          "durationTicks": 192,
          "midi": 65,
          "name": "F4",
          "ticks": 286656,
          "time": 221.041275,
          "velocity": 0.968503937007874
        },
        {
          "duration": 0.1415049999999951,
          "durationTicks": 192,
          "midi": 77,
          "name": "F5",
          "ticks": 286656,
          "time": 221.041275,
          "velocity": 0.968503937007874
        },
        {
          "duration": 0.14150500000002353,
          "durationTicks": 192,
          "midi": 65,
          "name": "F4",
          "ticks": 286848,
          "time": 221.18278,
          "velocity": 0.968503937007874
        },
        {
          "duration": 0.14150500000002353,
          "durationTicks": 192,
          "midi": 77,
          "name": "F5",
          "ticks": 286848,
          "time": 221.18278,
          "velocity": 0.968503937007874
        },
        {
          "duration": 0.1415049999999951,
          "durationTicks": 192,
          "midi": 65,
          "name": "F4",
          "ticks": 287040,
          "time": 221.32428500000003,
          "velocity": 0.968503937007874
        },
        {
          "duration": 0.1415049999999951,
          "durationTicks": 192,
          "midi": 77,
          "name": "F5",
          "ticks": 287040,
          "time": 221.32428500000003,
          "velocity": 0.968503937007874
        },
        {
          "duration": 1.766019999999969,
          "durationTicks": 1536,
          "midi": 62,
          "name": "D4",
          "ticks": 287232,
          "time": 221.46579000000003,
          "velocity": 0.968503937007874
        },
        {
          "duration": 1.766019999999969,
          "durationTicks": 1536,
          "midi": 74,
          "name": "D5",
          "ticks": 287232,
          "time": 221.46579000000003,
          "velocity": 0.968503937007874
        },
        {
          "duration": 0.1415049999999951,
          "durationTicks": 192,
          "midi": 67,
          "name": "G4",
          "ticks": 288960,
          "time": 223.373315,
          "velocity": 0.7165354330708661
        },
        {
          "duration": 0.14150500000002353,
          "durationTicks": 192,
          "midi": 67,
          "name": "G4",
          "ticks": 289152,
          "time": 223.51482,
          "velocity": 0.7165354330708661
        },
        {
          "duration": 0.1415049999999951,
          "durationTicks": 192,
          "midi": 67,
          "name": "G4",
          "ticks": 289344,
          "time": 223.656325,
          "velocity": 0.7165354330708661
        },
        {
          "duration": 1.4150499999999795,
          "durationTicks": 1920,
          "midi": 63,
          "name": "D#4",
          "ticks": 289536,
          "time": 223.79783,
          "velocity": 0.7165354330708661
        },
        {
          "duration": 0.1415049999999951,
          "durationTicks": 192,
          "midi": 68,
          "name": "G#4",
          "ticks": 289728,
          "time": 223.939335,
          "velocity": 0.7165354330708661
        },
        {
          "duration": 0.1415049999999951,
          "durationTicks": 192,
          "midi": 68,
          "name": "G#4",
          "ticks": 289920,
          "time": 224.08084,
          "velocity": 0.7165354330708661
        },
        {
          "duration": 0.1415049999999951,
          "durationTicks": 192,
          "midi": 68,
          "name": "G#4",
          "ticks": 290112,
          "time": 224.222345,
          "velocity": 0.7165354330708661
        },
        {
          "duration": 0.14150500000002353,
          "durationTicks": 192,
          "midi": 67,
          "name": "G4",
          "ticks": 290304,
          "time": 224.36384999999999,
          "velocity": 0.7165354330708661
        },
        {
          "duration": 0.1415049999999951,
          "durationTicks": 192,
          "midi": 75,
          "name": "D#5",
          "ticks": 290496,
          "time": 224.505355,
          "velocity": 0.7165354330708661
        },
        {
          "duration": 0.1415049999999951,
          "durationTicks": 192,
          "midi": 75,
          "name": "D#5",
          "ticks": 290688,
          "time": 224.64686,
          "velocity": 0.7165354330708661
        },
        {
          "duration": 0.1415049999999951,
          "durationTicks": 192,
          "midi": 75,
          "name": "D#5",
          "ticks": 290880,
          "time": 224.788365,
          "velocity": 0.7165354330708661
        },
        {
          "duration": 0.2830099999999902,
          "durationTicks": 384,
          "midi": 72,
          "name": "C5",
          "ticks": 291072,
          "time": 224.92987,
          "velocity": 0.7165354330708661
        },
        {
          "duration": 0.1415049999999951,
          "durationTicks": 192,
          "midi": 67,
          "name": "G4",
          "ticks": 292032,
          "time": 225.637395,
          "velocity": 0.7165354330708661
        },
        {
          "duration": 0.1415049999999951,
          "durationTicks": 192,
          "midi": 67,
          "name": "G4",
          "ticks": 292224,
          "time": 225.7789,
          "velocity": 0.7165354330708661
        },
        {
          "duration": 0.1415049999999951,
          "durationTicks": 192,
          "midi": 67,
          "name": "G4",
          "ticks": 292416,
          "time": 225.920405,
          "velocity": 0.7165354330708661
        },
        {
          "duration": 1.415050000000008,
          "durationTicks": 1920,
          "midi": 62,
          "name": "D4",
          "ticks": 292608,
          "time": 226.06190999999998,
          "velocity": 0.7165354330708661
        },
        {
          "duration": 0.1415049999999951,
          "durationTicks": 192,
          "midi": 68,
          "name": "G#4",
          "ticks": 292800,
          "time": 226.203415,
          "velocity": 0.7165354330708661
        },
        {
          "duration": 0.1415049999999951,
          "durationTicks": 192,
          "midi": 68,
          "name": "G#4",
          "ticks": 292992,
          "time": 226.34492,
          "velocity": 0.7165354330708661
        },
        {
          "duration": 0.1415049999999951,
          "durationTicks": 192,
          "midi": 68,
          "name": "G#4",
          "ticks": 293184,
          "time": 226.486425,
          "velocity": 0.7165354330708661
        },
        {
          "duration": 0.1415049999999951,
          "durationTicks": 192,
          "midi": 67,
          "name": "G4",
          "ticks": 293376,
          "time": 226.62793,
          "velocity": 0.7165354330708661
        },
        {
          "duration": 0.1415049999999951,
          "durationTicks": 192,
          "midi": 77,
          "name": "F5",
          "ticks": 293568,
          "time": 226.769435,
          "velocity": 0.7165354330708661
        },
        {
          "duration": 0.14150500000002353,
          "durationTicks": 192,
          "midi": 77,
          "name": "F5",
          "ticks": 293760,
          "time": 226.91093999999998,
          "velocity": 0.7165354330708661
        },
        {
          "duration": 0.1415049999999951,
          "durationTicks": 192,
          "midi": 77,
          "name": "F5",
          "ticks": 293952,
          "time": 227.052445,
          "velocity": 0.7165354330708661
        },
        {
          "duration": 0.707525000000004,
          "durationTicks": 960,
          "midi": 74,
          "name": "D5",
          "ticks": 294144,
          "time": 227.19395,
          "velocity": 0.7165354330708661
        },
        {
          "duration": 0.1415049999999951,
          "durationTicks": 192,
          "midi": 79,
          "name": "G5",
          "ticks": 295104,
          "time": 227.901475,
          "velocity": 0.7165354330708661
        },
        {
          "duration": 0.1415049999999951,
          "durationTicks": 192,
          "midi": 79,
          "name": "G5",
          "ticks": 295296,
          "time": 228.04298,
          "velocity": 0.7165354330708661
        },
        {
          "duration": 0.1415049999999951,
          "durationTicks": 192,
          "midi": 77,
          "name": "F5",
          "ticks": 295488,
          "time": 228.184485,
          "velocity": 0.7165354330708661
        },
        {
          "duration": 0.5660200000000088,
          "durationTicks": 768,
          "midi": 75,
          "name": "D#5",
          "ticks": 295680,
          "time": 228.32599,
          "velocity": 0.7165354330708661
        },
        {
          "duration": 0.14150500000002353,
          "durationTicks": 192,
          "midi": 63,
          "name": "D#4",
          "ticks": 295872,
          "time": 228.46749499999999,
          "velocity": 0.7165354330708661
        },
        {
          "duration": 0.1415049999999951,
          "durationTicks": 192,
          "midi": 63,
          "name": "D#4",
          "ticks": 296064,
          "time": 228.609,
          "velocity": 0.7165354330708661
        },
        {
          "duration": 0.1415049999999951,
          "durationTicks": 192,
          "midi": 65,
          "name": "F4",
          "ticks": 296256,
          "time": 228.750505,
          "velocity": 0.7165354330708661
        },
        {
          "duration": 0.707525000000004,
          "durationTicks": 960,
          "midi": 67,
          "name": "G4",
          "ticks": 296448,
          "time": 228.89201,
          "velocity": 0.7165354330708661
        },
        {
          "duration": 0.1415049999999951,
          "durationTicks": 192,
          "midi": 74,
          "name": "D5",
          "ticks": 296448,
          "time": 228.89201,
          "velocity": 0.7165354330708661
        },
        {
          "duration": 0.1415049999999951,
          "durationTicks": 192,
          "midi": 79,
          "name": "G5",
          "ticks": 296640,
          "time": 229.033515,
          "velocity": 0.7165354330708661
        },
        {
          "duration": 0.1415049999999951,
          "durationTicks": 192,
          "midi": 79,
          "name": "G5",
          "ticks": 296832,
          "time": 229.17502,
          "velocity": 0.7165354330708661
        },
        {
          "duration": 0.14150500000002353,
          "durationTicks": 192,
          "midi": 77,
          "name": "F5",
          "ticks": 297024,
          "time": 229.31652499999998,
          "velocity": 0.7165354330708661
        },
        {
          "duration": 0.5660199999999804,
          "durationTicks": 768,
          "midi": 75,
          "name": "D#5",
          "ticks": 297216,
          "time": 229.45803,
          "velocity": 0.7165354330708661
        },
        {
          "duration": 0.1415049999999951,
          "durationTicks": 192,
          "midi": 63,
          "name": "D#4",
          "ticks": 297408,
          "time": 229.599535,
          "velocity": 0.7165354330708661
        },
        {
          "duration": 0.1415049999999951,
          "durationTicks": 192,
          "midi": 63,
          "name": "D#4",
          "ticks": 297600,
          "time": 229.74104,
          "velocity": 0.7165354330708661
        },
        {
          "duration": 0.1415049999999951,
          "durationTicks": 192,
          "midi": 65,
          "name": "F4",
          "ticks": 297792,
          "time": 229.882545,
          "velocity": 0.7165354330708661
        },
        {
          "duration": 0.1415049999999951,
          "durationTicks": 192,
          "midi": 67,
          "name": "G4",
          "ticks": 297984,
          "time": 230.02405,
          "velocity": 0.7165354330708661
        },
        {
          "duration": 0.1415049999999951,
          "durationTicks": 192,
          "midi": 74,
          "name": "D5",
          "ticks": 297984,
          "time": 230.02405,
          "velocity": 0.7165354330708661
        },
        {
          "duration": 0.14150500000002353,
          "durationTicks": 192,
          "midi": 59,
          "name": "B3",
          "ticks": 298176,
          "time": 230.16555499999998,
          "velocity": 0.7165354330708661
        },
        {
          "duration": 0.14150500000002353,
          "durationTicks": 192,
          "midi": 79,
          "name": "G5",
          "ticks": 298176,
          "time": 230.16555499999998,
          "velocity": 0.7165354330708661
        },
        {
          "duration": 0.1415049999999951,
          "durationTicks": 192,
          "midi": 60,
          "name": "C4",
          "ticks": 298368,
          "time": 230.30706,
          "velocity": 0.7165354330708661
        },
        {
          "duration": 0.1415049999999951,
          "durationTicks": 192,
          "midi": 79,
          "name": "G5",
          "ticks": 298368,
          "time": 230.30706,
          "velocity": 0.7165354330708661
        },
        {
          "duration": 0.1415049999999951,
          "durationTicks": 192,
          "midi": 62,
          "name": "D4",
          "ticks": 298560,
          "time": 230.448565,
          "velocity": 0.7165354330708661
        },
        {
          "duration": 0.1415049999999951,
          "durationTicks": 192,
          "midi": 77,
          "name": "F5",
          "ticks": 298560,
          "time": 230.448565,
          "velocity": 0.7165354330708661
        },
        {
          "duration": 0.2830099999999902,
          "durationTicks": 384,
          "midi": 63,
          "name": "D#4",
          "ticks": 298752,
          "time": 230.59007,
          "velocity": 0.7165354330708661
        },
        {
          "duration": 0.2830099999999902,
          "durationTicks": 384,
          "midi": 75,
          "name": "D#5",
          "ticks": 298752,
          "time": 230.59007,
          "velocity": 0.7165354330708661
        },
        {
          "duration": 0.2830099999999902,
          "durationTicks": 384,
          "midi": 56,
          "name": "G#3",
          "ticks": 299520,
          "time": 231.15609,
          "velocity": 0.7165354330708661
        },
        {
          "duration": 0.2830099999999902,
          "durationTicks": 384,
          "midi": 66,
          "name": "F#4",
          "ticks": 299520,
          "time": 231.15609,
          "velocity": 0.7165354330708661
        },
        {
          "duration": 0.2830099999999902,
          "durationTicks": 384,
          "midi": 72,
          "name": "C5",
          "ticks": 299520,
          "time": 231.15609,
          "velocity": 0.7165354330708661
        },
        {
          "duration": 0.2830099999999902,
          "durationTicks": 384,
          "midi": 56,
          "name": "G#3",
          "ticks": 299520,
          "time": 231.15609,
          "velocity": 0.7165354330708661
        },
        {
          "duration": 0.2830099999999902,
          "durationTicks": 384,
          "midi": 66,
          "name": "F#4",
          "ticks": 299520,
          "time": 231.15609,
          "velocity": 0.7165354330708661
        },
        {
          "duration": 0.2830099999999902,
          "durationTicks": 384,
          "midi": 72,
          "name": "C5",
          "ticks": 299520,
          "time": 231.15609,
          "velocity": 0.7165354330708661
        },
        {
          "duration": 0.28301000000001864,
          "durationTicks": 384,
          "midi": 55,
          "name": "G3",
          "ticks": 300288,
          "time": 231.72211,
          "velocity": 0.968503937007874
        },
        {
          "duration": 0.28301000000001864,
          "durationTicks": 384,
          "midi": 62,
          "name": "D4",
          "ticks": 300288,
          "time": 231.72211,
          "velocity": 0.968503937007874
        },
        {
          "duration": 0.28301000000001864,
          "durationTicks": 384,
          "midi": 71,
          "name": "B4",
          "ticks": 300288,
          "time": 231.72211,
          "velocity": 0.968503937007874
        },
        {
          "duration": 0.28301000000001864,
          "durationTicks": 384,
          "midi": 79,
          "name": "G5",
          "ticks": 300288,
          "time": 231.72211,
          "velocity": 0.968503937007874
        },
        {
          "duration": 0.28301000000001864,
          "durationTicks": 384,
          "midi": 55,
          "name": "G3",
          "ticks": 300288,
          "time": 231.72211,
          "velocity": 0.968503937007874
        },
        {
          "duration": 0.28301000000001864,
          "durationTicks": 384,
          "midi": 62,
          "name": "D4",
          "ticks": 300288,
          "time": 231.72211,
          "velocity": 0.968503937007874
        },
        {
          "duration": 0.28301000000001864,
          "durationTicks": 384,
          "midi": 71,
          "name": "B4",
          "ticks": 300288,
          "time": 231.72211,
          "velocity": 0.968503937007874
        },
        {
          "duration": 0.28301000000001864,
          "durationTicks": 384,
          "midi": 79,
          "name": "G5",
          "ticks": 300288,
          "time": 231.72211,
          "velocity": 0.968503937007874
        },
        {
          "duration": 0.13888500000001613,
          "durationTicks": 192,
          "midi": 68,
          "name": "G#4",
          "ticks": 304320,
          "time": 235.407955,
          "velocity": 0.7165354330708661
        },
        {
          "duration": 0.1388849999999877,
          "durationTicks": 192,
          "midi": 68,
          "name": "G#4",
          "ticks": 304512,
          "time": 235.54684,
          "velocity": 0.7165354330708661
        },
        {
          "duration": 0.13888500000001613,
          "durationTicks": 192,
          "midi": 68,
          "name": "G#4",
          "ticks": 304704,
          "time": 235.685725,
          "velocity": 0.7165354330708661
        },
        {
          "duration": 1.6666199999999947,
          "durationTicks": 2304,
          "midi": 65,
          "name": "F4",
          "ticks": 304896,
          "time": 235.82461,
          "velocity": 0.7165354330708661
        },
        {
          "duration": 0.13888500000001613,
          "durationTicks": 192,
          "midi": 62,
          "name": "D4",
          "ticks": 305088,
          "time": 235.963495,
          "velocity": 0.7165354330708661
        },
        {
          "duration": 0.1388849999999877,
          "durationTicks": 192,
          "midi": 62,
          "name": "D4",
          "ticks": 305280,
          "time": 236.10238,
          "velocity": 0.7165354330708661
        },
        {
          "duration": 0.1388849999999877,
          "durationTicks": 192,
          "midi": 62,
          "name": "D4",
          "ticks": 305472,
          "time": 236.241265,
          "velocity": 0.7165354330708661
        },
        {
          "duration": 1.1110800000000154,
          "durationTicks": 1536,
          "midi": 59,
          "name": "B3",
          "ticks": 305664,
          "time": 236.38015,
          "velocity": 0.7165354330708661
        },
        {
          "duration": 0.1388849999999877,
          "durationTicks": 192,
          "midi": 60,
          "name": "C4",
          "ticks": 307200,
          "time": 237.49123,
          "velocity": 0.7165354330708661
        },
        {
          "duration": 0.1388849999999877,
          "durationTicks": 192,
          "midi": 63,
          "name": "D#4",
          "ticks": 307200,
          "time": 237.49123,
          "velocity": 0.7165354330708661
        },
        {
          "duration": 0.13888500000001613,
          "durationTicks": 192,
          "midi": 68,
          "name": "G#4",
          "ticks": 307392,
          "time": 237.630115,
          "velocity": 0.7165354330708661
        },
        {
          "duration": 0.13888500000001613,
          "durationTicks": 192,
          "midi": 68,
          "name": "G#4",
          "ticks": 307392,
          "time": 237.630115,
          "velocity": 0.7165354330708661
        },
        {
          "duration": 0.1388849999999877,
          "durationTicks": 192,
          "midi": 68,
          "name": "G#4",
          "ticks": 307584,
          "time": 237.769,
          "velocity": 0.7165354330708661
        },
        {
          "duration": 0.1388849999999877,
          "durationTicks": 192,
          "midi": 68,
          "name": "G#4",
          "ticks": 307584,
          "time": 237.769,
          "velocity": 0.7165354330708661
        },
        {
          "duration": 0.13888500000001613,
          "durationTicks": 192,
          "midi": 68,
          "name": "G#4",
          "ticks": 307776,
          "time": 237.907885,
          "velocity": 0.7165354330708661
        },
        {
          "duration": 0.13888500000001613,
          "durationTicks": 192,
          "midi": 68,
          "name": "G#4",
          "ticks": 307776,
          "time": 237.907885,
          "velocity": 0.7165354330708661
        },
        {
          "duration": 0.1388849999999877,
          "durationTicks": 192,
          "midi": 65,
          "name": "F4",
          "ticks": 307968,
          "time": 238.04677,
          "velocity": 0.7952755905511811
        },
        {
          "duration": 0.1388849999999877,
          "durationTicks": 192,
          "midi": 65,
          "name": "F4",
          "ticks": 307968,
          "time": 238.04677,
          "velocity": 0.7952755905511811
        },
        {
          "duration": 0.13888500000001613,
          "durationTicks": 192,
          "midi": 62,
          "name": "D4",
          "ticks": 308160,
          "time": 238.185655,
          "velocity": 0.7952755905511811
        },
        {
          "duration": 0.13888500000001613,
          "durationTicks": 192,
          "midi": 62,
          "name": "D4",
          "ticks": 308160,
          "time": 238.185655,
          "velocity": 0.7952755905511811
        },
        {
          "duration": 0.1388849999999877,
          "durationTicks": 192,
          "midi": 62,
          "name": "D4",
          "ticks": 308352,
          "time": 238.32454,
          "velocity": 0.7952755905511811
        },
        {
          "duration": 0.1388849999999877,
          "durationTicks": 192,
          "midi": 62,
          "name": "D4",
          "ticks": 308352,
          "time": 238.32454,
          "velocity": 0.7952755905511811
        },
        {
          "duration": 0.1388849999999877,
          "durationTicks": 192,
          "midi": 62,
          "name": "D4",
          "ticks": 308544,
          "time": 238.463425,
          "velocity": 0.7952755905511811
        },
        {
          "duration": 0.1388849999999877,
          "durationTicks": 192,
          "midi": 62,
          "name": "D4",
          "ticks": 308544,
          "time": 238.463425,
          "velocity": 0.7952755905511811
        },
        {
          "duration": 0.13888500000001613,
          "durationTicks": 192,
          "midi": 59,
          "name": "B3",
          "ticks": 308736,
          "time": 238.60231,
          "velocity": 0.7952755905511811
        },
        {
          "duration": 0.13888500000001613,
          "durationTicks": 192,
          "midi": 59,
          "name": "B3",
          "ticks": 308736,
          "time": 238.60231,
          "velocity": 0.7952755905511811
        },
        {
          "duration": 0.1388849999999877,
          "durationTicks": 192,
          "midi": 56,
          "name": "G#3",
          "ticks": 308928,
          "time": 238.741195,
          "velocity": 0.7952755905511811
        },
        {
          "duration": 0.1388849999999877,
          "durationTicks": 192,
          "midi": 56,
          "name": "G#3",
          "ticks": 308928,
          "time": 238.741195,
          "velocity": 0.7952755905511811
        },
        {
          "duration": 0.13888500000001613,
          "durationTicks": 192,
          "midi": 56,
          "name": "G#3",
          "ticks": 309120,
          "time": 238.88008,
          "velocity": 0.8582677165354331
        },
        {
          "duration": 0.13888500000001613,
          "durationTicks": 192,
          "midi": 56,
          "name": "G#3",
          "ticks": 309120,
          "time": 238.88008,
          "velocity": 0.8582677165354331
        },
        {
          "duration": 0.1388849999999877,
          "durationTicks": 192,
          "midi": 56,
          "name": "G#3",
          "ticks": 309312,
          "time": 239.018965,
          "velocity": 0.8582677165354331
        },
        {
          "duration": 0.1388849999999877,
          "durationTicks": 192,
          "midi": 56,
          "name": "G#3",
          "ticks": 309312,
          "time": 239.018965,
          "velocity": 0.8582677165354331
        },
        {
          "duration": 0.13888500000001613,
          "durationTicks": 192,
          "midi": 55,
          "name": "G3",
          "ticks": 309504,
          "time": 239.15785,
          "velocity": 0.8582677165354331
        },
        {
          "duration": 0.13888500000001613,
          "durationTicks": 192,
          "midi": 55,
          "name": "G3",
          "ticks": 309504,
          "time": 239.15785,
          "velocity": 0.8582677165354331
        },
        {
          "duration": 0.1388849999999877,
          "durationTicks": 192,
          "midi": 62,
          "name": "D4",
          "ticks": 309696,
          "time": 239.296735,
          "velocity": 0.8582677165354331
        },
        {
          "duration": 0.1388849999999877,
          "durationTicks": 192,
          "midi": 71,
          "name": "B4",
          "ticks": 309696,
          "time": 239.296735,
          "velocity": 0.8582677165354331
        },
        {
          "duration": 0.1388849999999877,
          "durationTicks": 192,
          "midi": 62,
          "name": "D4",
          "ticks": 309888,
          "time": 239.43562,
          "velocity": 0.8582677165354331
        },
        {
          "duration": 0.1388849999999877,
          "durationTicks": 192,
          "midi": 71,
          "name": "B4",
          "ticks": 309888,
          "time": 239.43562,
          "velocity": 0.8582677165354331
        },
        {
          "duration": 0.13888500000001613,
          "durationTicks": 192,
          "midi": 62,
          "name": "D4",
          "ticks": 310080,
          "time": 239.574505,
          "velocity": 0.8582677165354331
        },
        {
          "duration": 0.13888500000001613,
          "durationTicks": 192,
          "midi": 71,
          "name": "B4",
          "ticks": 310080,
          "time": 239.574505,
          "velocity": 0.8582677165354331
        },
        {
          "duration": 0.1388849999999877,
          "durationTicks": 192,
          "midi": 63,
          "name": "D#4",
          "ticks": 310272,
          "time": 239.71339,
          "velocity": 0.905511811023622
        },
        {
          "duration": 0.1388849999999877,
          "durationTicks": 192,
          "midi": 72,
          "name": "C5",
          "ticks": 310272,
          "time": 239.71339,
          "velocity": 0.905511811023622
        },
        {
          "duration": 0.13888500000001613,
          "durationTicks": 192,
          "midi": 63,
          "name": "D#4",
          "ticks": 310464,
          "time": 239.852275,
          "velocity": 0.905511811023622
        },
        {
          "duration": 0.13888500000001613,
          "durationTicks": 192,
          "midi": 67,
          "name": "G4",
          "ticks": 310464,
          "time": 239.852275,
          "velocity": 0.905511811023622
        },
        {
          "duration": 0.1388849999999877,
          "durationTicks": 192,
          "midi": 67,
          "name": "G4",
          "ticks": 310656,
          "time": 239.99116,
          "velocity": 0.905511811023622
        },
        {
          "duration": 0.1388849999999877,
          "durationTicks": 192,
          "midi": 72,
          "name": "C5",
          "ticks": 310656,
          "time": 239.99116,
          "velocity": 0.905511811023622
        },
        {
          "duration": 0.13888500000001613,
          "durationTicks": 192,
          "midi": 67,
          "name": "G4",
          "ticks": 310848,
          "time": 240.130045,
          "velocity": 0.905511811023622
        },
        {
          "duration": 0.13888500000001613,
          "durationTicks": 192,
          "midi": 72,
          "name": "C5",
          "ticks": 310848,
          "time": 240.130045,
          "velocity": 0.905511811023622
        },
        {
          "duration": 0.6944249999999954,
          "durationTicks": 960,
          "midi": 65,
          "name": "F4",
          "ticks": 311040,
          "time": 240.26893,
          "velocity": 0.905511811023622
        },
        {
          "duration": 0.5555399999999793,
          "durationTicks": 768,
          "midi": 72,
          "name": "C5",
          "ticks": 311040,
          "time": 240.26893,
          "velocity": 0.905511811023622
        },
        {
          "duration": 0.13888500000001613,
          "durationTicks": 192,
          "midi": 71,
          "name": "B4",
          "ticks": 311808,
          "time": 240.82447,
          "velocity": 0.905511811023622
        },
        {
          "duration": 0.1388849999999877,
          "durationTicks": 192,
          "midi": 68,
          "name": "G#4",
          "ticks": 312000,
          "time": 240.963355,
          "velocity": 0.905511811023622
        },
        {
          "duration": 0.1388849999999877,
          "durationTicks": 192,
          "midi": 71,
          "name": "B4",
          "ticks": 312000,
          "time": 240.963355,
          "velocity": 0.905511811023622
        },
        {
          "duration": 0.13888500000001613,
          "durationTicks": 192,
          "midi": 68,
          "name": "G#4",
          "ticks": 312192,
          "time": 241.10224,
          "velocity": 0.905511811023622
        },
        {
          "duration": 0.13888500000001613,
          "durationTicks": 192,
          "midi": 71,
          "name": "B4",
          "ticks": 312192,
          "time": 241.10224,
          "velocity": 0.905511811023622
        },
        {
          "duration": 0.1388849999999877,
          "durationTicks": 192,
          "midi": 65,
          "name": "F4",
          "ticks": 312384,
          "time": 241.241125,
          "velocity": 0.905511811023622
        },
        {
          "duration": 0.1388849999999877,
          "durationTicks": 192,
          "midi": 74,
          "name": "D5",
          "ticks": 312384,
          "time": 241.241125,
          "velocity": 0.905511811023622
        },
        {
          "duration": 0.6944249999999954,
          "durationTicks": 960,
          "midi": 67,
          "name": "G4",
          "ticks": 312576,
          "time": 241.38001,
          "velocity": 0.905511811023622
        },
        {
          "duration": 0.5555400000000077,
          "durationTicks": 768,
          "midi": 74,
          "name": "D5",
          "ticks": 312576,
          "time": 241.38001,
          "velocity": 0.905511811023622
        },
        {
          "duration": 0.1388849999999877,
          "durationTicks": 192,
          "midi": 72,
          "name": "C5",
          "ticks": 313344,
          "time": 241.93555,
          "velocity": 0.905511811023622
        },
        {
          "duration": 0.13888500000001613,
          "durationTicks": 192,
          "midi": 67,
          "name": "G4",
          "ticks": 313536,
          "time": 242.074435,
          "velocity": 0.905511811023622
        },
        {
          "duration": 0.13888500000001613,
          "durationTicks": 192,
          "midi": 72,
          "name": "C5",
          "ticks": 313536,
          "time": 242.074435,
          "velocity": 0.905511811023622
        },
        {
          "duration": 0.1388849999999877,
          "durationTicks": 192,
          "midi": 67,
          "name": "G4",
          "ticks": 313728,
          "time": 242.21332,
          "velocity": 0.905511811023622
        },
        {
          "duration": 0.1388849999999877,
          "durationTicks": 192,
          "midi": 72,
          "name": "C5",
          "ticks": 313728,
          "time": 242.21332,
          "velocity": 0.905511811023622
        },
        {
          "duration": 0.1388849999999877,
          "durationTicks": 192,
          "midi": 63,
          "name": "D#4",
          "ticks": 313920,
          "time": 242.352205,
          "velocity": 0.905511811023622
        },
        {
          "duration": 0.1388849999999877,
          "durationTicks": 192,
          "midi": 75,
          "name": "D#5",
          "ticks": 313920,
          "time": 242.352205,
          "velocity": 0.905511811023622
        },
        {
          "duration": 0.13760999999999513,
          "durationTicks": 192,
          "midi": 68,
          "name": "G#4",
          "ticks": 314112,
          "time": 242.49108999999999,
          "velocity": 0.905511811023622
        },
        {
          "duration": 0.13760999999999513,
          "durationTicks": 192,
          "midi": 75,
          "name": "D#5",
          "ticks": 314112,
          "time": 242.49108999999999,
          "velocity": 0.905511811023622
        },
        {
          "duration": 0.13760999999999513,
          "durationTicks": 192,
          "midi": 68,
          "name": "G#4",
          "ticks": 314304,
          "time": 242.62869999999998,
          "velocity": 0.905511811023622
        },
        {
          "duration": 0.13760999999999513,
          "durationTicks": 192,
          "midi": 74,
          "name": "D5",
          "ticks": 314304,
          "time": 242.62869999999998,
          "velocity": 0.905511811023622
        },
        {
          "duration": 0.13761000000002355,
          "durationTicks": 192,
          "midi": 68,
          "name": "G#4",
          "ticks": 314496,
          "time": 242.76630999999998,
          "velocity": 0.905511811023622
        },
        {
          "duration": 0.13761000000002355,
          "durationTicks": 192,
          "midi": 74,
          "name": "D5",
          "ticks": 314496,
          "time": 242.76630999999998,
          "velocity": 0.905511811023622
        },
        {
          "duration": 0.13760999999999513,
          "durationTicks": 192,
          "midi": 65,
          "name": "F4",
          "ticks": 314688,
          "time": 242.90392,
          "velocity": 0.905511811023622
        },
        {
          "duration": 0.13760999999999513,
          "durationTicks": 192,
          "midi": 77,
          "name": "F5",
          "ticks": 314688,
          "time": 242.90392,
          "velocity": 0.905511811023622
        },
        {
          "duration": 0.13760999999999513,
          "durationTicks": 192,
          "midi": 70,
          "name": "A#4",
          "ticks": 314880,
          "time": 243.04153,
          "velocity": 0.905511811023622
        },
        {
          "duration": 0.13760999999999513,
          "durationTicks": 192,
          "midi": 77,
          "name": "F5",
          "ticks": 314880,
          "time": 243.04153,
          "velocity": 0.905511811023622
        },
        {
          "duration": 0.13760999999999513,
          "durationTicks": 192,
          "midi": 70,
          "name": "A#4",
          "ticks": 315072,
          "time": 243.17914,
          "velocity": 0.905511811023622
        },
        {
          "duration": 0.13760999999999513,
          "durationTicks": 192,
          "midi": 76,
          "name": "E5",
          "ticks": 315072,
          "time": 243.17914,
          "velocity": 0.905511811023622
        },
        {
          "duration": 0.13760999999999513,
          "durationTicks": 192,
          "midi": 70,
          "name": "A#4",
          "ticks": 315264,
          "time": 243.31674999999998,
          "velocity": 0.905511811023622
        },
        {
          "duration": 0.13760999999999513,
          "durationTicks": 192,
          "midi": 76,
          "name": "E5",
          "ticks": 315264,
          "time": 243.31674999999998,
          "velocity": 0.905511811023622
        },
        {
          "duration": 0.13760999999999513,
          "durationTicks": 192,
          "midi": 67,
          "name": "G4",
          "ticks": 315456,
          "time": 243.45435999999998,
          "velocity": 0.905511811023622
        },
        {
          "duration": 0.13760999999999513,
          "durationTicks": 192,
          "midi": 79,
          "name": "G5",
          "ticks": 315456,
          "time": 243.45435999999998,
          "velocity": 0.905511811023622
        },
        {
          "duration": 0.13761000000002355,
          "durationTicks": 192,
          "midi": 72,
          "name": "C5",
          "ticks": 315648,
          "time": 243.59196999999998,
          "velocity": 0.905511811023622
        },
        {
          "duration": 0.13761000000002355,
          "durationTicks": 192,
          "midi": 79,
          "name": "G5",
          "ticks": 315648,
          "time": 243.59196999999998,
          "velocity": 0.905511811023622
        },
        {
          "duration": 0.13760999999999513,
          "durationTicks": 192,
          "midi": 60,
          "name": "C4",
          "ticks": 315840,
          "time": 243.72958,
          "velocity": 0.905511811023622
        },
        {
          "duration": 0.13760999999999513,
          "durationTicks": 192,
          "midi": 77,
          "name": "F5",
          "ticks": 315840,
          "time": 243.72958,
          "velocity": 0.905511811023622
        },
        {
          "duration": 0.13760999999999513,
          "durationTicks": 192,
          "midi": 60,
          "name": "C4",
          "ticks": 316032,
          "time": 243.86719,
          "velocity": 0.905511811023622
        },
        {
          "duration": 0.13760999999999513,
          "durationTicks": 192,
          "midi": 77,
          "name": "F5",
          "ticks": 316032,
          "time": 243.86719,
          "velocity": 0.905511811023622
        },
        {
          "duration": 0.13760999999999513,
          "durationTicks": 192,
          "midi": 56,
          "name": "G#3",
          "ticks": 316224,
          "time": 244.0048,
          "velocity": 0.905511811023622
        },
        {
          "duration": 0.13760999999999513,
          "durationTicks": 192,
          "midi": 80,
          "name": "G#5",
          "ticks": 316224,
          "time": 244.0048,
          "velocity": 0.905511811023622
        },
        {
          "duration": 0.13760999999999513,
          "durationTicks": 192,
          "midi": 64,
          "name": "E4",
          "ticks": 316416,
          "time": 244.14240999999998,
          "velocity": 0.905511811023622
        },
        {
          "duration": 0.13760999999999513,
          "durationTicks": 192,
          "midi": 80,
          "name": "G#5",
          "ticks": 316416,
          "time": 244.14240999999998,
          "velocity": 0.905511811023622
        },
        {
          "duration": 0.13760999999999513,
          "durationTicks": 192,
          "midi": 64,
          "name": "E4",
          "ticks": 316608,
          "time": 244.28001999999998,
          "velocity": 0.905511811023622
        },
        {
          "duration": 0.13760999999999513,
          "durationTicks": 192,
          "midi": 79,
          "name": "G5",
          "ticks": 316608,
          "time": 244.28001999999998,
          "velocity": 0.905511811023622
        },
        {
          "duration": 0.13761000000002355,
          "durationTicks": 192,
          "midi": 64,
          "name": "E4",
          "ticks": 316800,
          "time": 244.41762999999997,
          "velocity": 0.905511811023622
        },
        {
          "duration": 0.13761000000002355,
          "durationTicks": 192,
          "midi": 79,
          "name": "G5",
          "ticks": 316800,
          "time": 244.41762999999997,
          "velocity": 0.905511811023622
        },
        {
          "duration": 0.13760999999999513,
          "durationTicks": 192,
          "midi": 58,
          "name": "A#3",
          "ticks": 316992,
          "time": 244.55524,
          "velocity": 0.905511811023622
        },
        {
          "duration": 0.13760999999999513,
          "durationTicks": 192,
          "midi": 82,
          "name": "A#5",
          "ticks": 316992,
          "time": 244.55524,
          "velocity": 0.905511811023622
        },
        {
          "duration": 0.13760999999999513,
          "durationTicks": 192,
          "midi": 65,
          "name": "F4",
          "ticks": 317184,
          "time": 244.69285,
          "velocity": 0.905511811023622
        },
        {
          "duration": 0.13760999999999513,
          "durationTicks": 192,
          "midi": 82,
          "name": "A#5",
          "ticks": 317184,
          "time": 244.69285,
          "velocity": 0.905511811023622
        },
        {
          "duration": 0.13760999999999513,
          "durationTicks": 192,
          "midi": 65,
          "name": "F4",
          "ticks": 317376,
          "time": 244.83046,
          "velocity": 0.905511811023622
        },
        {
          "duration": 0.13760999999999513,
          "durationTicks": 192,
          "midi": 80,
          "name": "G#5",
          "ticks": 317376,
          "time": 244.83046,
          "velocity": 0.905511811023622
        },
        {
          "duration": 0.13760999999999513,
          "durationTicks": 192,
          "midi": 65,
          "name": "F4",
          "ticks": 317568,
          "time": 244.96806999999998,
          "velocity": 0.905511811023622
        },
        {
          "duration": 0.13760999999999513,
          "durationTicks": 192,
          "midi": 80,
          "name": "G#5",
          "ticks": 317568,
          "time": 244.96806999999998,
          "velocity": 0.905511811023622
        },
        {
          "duration": 0.13760999999999513,
          "durationTicks": 192,
          "midi": 60,
          "name": "C4",
          "ticks": 317760,
          "time": 245.10567999999998,
          "velocity": 0.905511811023622
        },
        {
          "duration": 0.13760999999999513,
          "durationTicks": 192,
          "midi": 84,
          "name": "C6",
          "ticks": 317760,
          "time": 245.10567999999998,
          "velocity": 0.905511811023622
        },
        {
          "duration": 0.13761000000002355,
          "durationTicks": 192,
          "midi": 68,
          "name": "G#4",
          "ticks": 317952,
          "time": 245.24328999999997,
          "velocity": 0.905511811023622
        },
        {
          "duration": 0.13761000000002355,
          "durationTicks": 192,
          "midi": 84,
          "name": "C6",
          "ticks": 317952,
          "time": 245.24328999999997,
          "velocity": 0.905511811023622
        },
        {
          "duration": 0.13760999999999513,
          "durationTicks": 192,
          "midi": 68,
          "name": "G#4",
          "ticks": 318144,
          "time": 245.3809,
          "velocity": 0.905511811023622
        },
        {
          "duration": 0.13760999999999513,
          "durationTicks": 192,
          "midi": 83,
          "name": "B5",
          "ticks": 318144,
          "time": 245.3809,
          "velocity": 0.905511811023622
        },
        {
          "duration": 0.13760999999999513,
          "durationTicks": 192,
          "midi": 68,
          "name": "G#4",
          "ticks": 318336,
          "time": 245.51851,
          "velocity": 0.905511811023622
        },
        {
          "duration": 0.13760999999999513,
          "durationTicks": 192,
          "midi": 83,
          "name": "B5",
          "ticks": 318336,
          "time": 245.51851,
          "velocity": 0.905511811023622
        },
        {
          "duration": 0.13760999999999513,
          "durationTicks": 192,
          "midi": 65,
          "name": "F4",
          "ticks": 318528,
          "time": 245.65612,
          "velocity": 0.905511811023622
        },
        {
          "duration": 0.13760999999999513,
          "durationTicks": 192,
          "midi": 86,
          "name": "D6",
          "ticks": 318528,
          "time": 245.65612,
          "velocity": 0.905511811023622
        },
        {
          "duration": 0.13635999999999626,
          "durationTicks": 192,
          "midi": 67,
          "name": "G4",
          "ticks": 318720,
          "time": 245.79372999999998,
          "velocity": 0.968503937007874
        },
        {
          "duration": 0.13635999999999626,
          "durationTicks": 192,
          "midi": 84,
          "name": "C6",
          "ticks": 318720,
          "time": 245.79372999999998,
          "velocity": 0.968503937007874
        },
        {
          "duration": 0.13635999999999626,
          "durationTicks": 192,
          "midi": 63,
          "name": "D#4",
          "ticks": 318912,
          "time": 245.93008999999998,
          "velocity": 0.968503937007874
        },
        {
          "duration": 0.13635999999999626,
          "durationTicks": 192,
          "midi": 72,
          "name": "C5",
          "ticks": 318912,
          "time": 245.93008999999998,
          "velocity": 0.968503937007874
        },
        {
          "duration": 0.13635999999999626,
          "durationTicks": 192,
          "midi": 87,
          "name": "D#6",
          "ticks": 318912,
          "time": 245.93008999999998,
          "velocity": 0.968503937007874
        },
        {
          "duration": 0.13635999999999626,
          "durationTicks": 192,
          "midi": 63,
          "name": "D#4",
          "ticks": 319104,
          "time": 246.06644999999997,
          "velocity": 0.968503937007874
        },
        {
          "duration": 0.13635999999999626,
          "durationTicks": 192,
          "midi": 72,
          "name": "C5",
          "ticks": 319104,
          "time": 246.06644999999997,
          "velocity": 0.968503937007874
        },
        {
          "duration": 0.13635999999999626,
          "durationTicks": 192,
          "midi": 87,
          "name": "D#6",
          "ticks": 319104,
          "time": 246.06644999999997,
          "velocity": 0.968503937007874
        },
        {
          "duration": 0.13636000000002468,
          "durationTicks": 192,
          "midi": 63,
          "name": "D#4",
          "ticks": 319296,
          "time": 246.20280999999997,
          "velocity": 0.968503937007874
        },
        {
          "duration": 0.13636000000002468,
          "durationTicks": 192,
          "midi": 72,
          "name": "C5",
          "ticks": 319296,
          "time": 246.20280999999997,
          "velocity": 0.968503937007874
        },
        {
          "duration": 0.13636000000002468,
          "durationTicks": 192,
          "midi": 87,
          "name": "D#6",
          "ticks": 319296,
          "time": 246.20280999999997,
          "velocity": 0.968503937007874
        },
        {
          "duration": 0.13635999999999626,
          "durationTicks": 192,
          "midi": 63,
          "name": "D#4",
          "ticks": 319488,
          "time": 246.33917,
          "velocity": 0.968503937007874
        },
        {
          "duration": 0.13635999999999626,
          "durationTicks": 192,
          "midi": 72,
          "name": "C5",
          "ticks": 319488,
          "time": 246.33917,
          "velocity": 0.968503937007874
        },
        {
          "duration": 0.13635999999999626,
          "durationTicks": 192,
          "midi": 84,
          "name": "C6",
          "ticks": 319488,
          "time": 246.33917,
          "velocity": 0.968503937007874
        },
        {
          "duration": 0.13635999999999626,
          "durationTicks": 192,
          "midi": 63,
          "name": "D#4",
          "ticks": 319680,
          "time": 246.47553,
          "velocity": 0.968503937007874
        },
        {
          "duration": 0.13635999999999626,
          "durationTicks": 192,
          "midi": 72,
          "name": "C5",
          "ticks": 319680,
          "time": 246.47553,
          "velocity": 0.968503937007874
        },
        {
          "duration": 0.13635999999999626,
          "durationTicks": 192,
          "midi": 79,
          "name": "G5",
          "ticks": 319680,
          "time": 246.47553,
          "velocity": 0.968503937007874
        },
        {
          "duration": 0.13635999999999626,
          "durationTicks": 192,
          "midi": 63,
          "name": "D#4",
          "ticks": 319872,
          "time": 246.61189,
          "velocity": 0.968503937007874
        },
        {
          "duration": 0.13635999999999626,
          "durationTicks": 192,
          "midi": 72,
          "name": "C5",
          "ticks": 319872,
          "time": 246.61189,
          "velocity": 0.968503937007874
        },
        {
          "duration": 0.13635999999999626,
          "durationTicks": 192,
          "midi": 79,
          "name": "G5",
          "ticks": 319872,
          "time": 246.61189,
          "velocity": 0.968503937007874
        },
        {
          "duration": 0.13635999999999626,
          "durationTicks": 192,
          "midi": 63,
          "name": "D#4",
          "ticks": 320064,
          "time": 246.74824999999998,
          "velocity": 0.968503937007874
        },
        {
          "duration": 0.13635999999999626,
          "durationTicks": 192,
          "midi": 72,
          "name": "C5",
          "ticks": 320064,
          "time": 246.74824999999998,
          "velocity": 0.968503937007874
        },
        {
          "duration": 0.13635999999999626,
          "durationTicks": 192,
          "midi": 79,
          "name": "G5",
          "ticks": 320064,
          "time": 246.74824999999998,
          "velocity": 0.968503937007874
        },
        {
          "duration": 0.13635999999999626,
          "durationTicks": 192,
          "midi": 63,
          "name": "D#4",
          "ticks": 320256,
          "time": 246.88460999999998,
          "velocity": 0.968503937007874
        },
        {
          "duration": 0.13635999999999626,
          "durationTicks": 192,
          "midi": 72,
          "name": "C5",
          "ticks": 320256,
          "time": 246.88460999999998,
          "velocity": 0.968503937007874
        },
        {
          "duration": 0.13635999999999626,
          "durationTicks": 192,
          "midi": 75,
          "name": "D#5",
          "ticks": 320256,
          "time": 246.88460999999998,
          "velocity": 0.968503937007874
        },
        {
          "duration": 0.13635999999999626,
          "durationTicks": 192,
          "midi": 63,
          "name": "D#4",
          "ticks": 320448,
          "time": 247.02096999999998,
          "velocity": 0.968503937007874
        },
        {
          "duration": 0.13635999999999626,
          "durationTicks": 192,
          "midi": 72,
          "name": "C5",
          "ticks": 320448,
          "time": 247.02096999999998,
          "velocity": 0.968503937007874
        },
        {
          "duration": 0.13635999999999626,
          "durationTicks": 192,
          "midi": 72,
          "name": "C5",
          "ticks": 320448,
          "time": 247.02096999999998,
          "velocity": 0.968503937007874
        },
        {
          "duration": 0.13635999999999626,
          "durationTicks": 192,
          "midi": 63,
          "name": "D#4",
          "ticks": 320640,
          "time": 247.15732999999997,
          "velocity": 0.968503937007874
        },
        {
          "duration": 0.13635999999999626,
          "durationTicks": 192,
          "midi": 72,
          "name": "C5",
          "ticks": 320640,
          "time": 247.15732999999997,
          "velocity": 0.968503937007874
        },
        {
          "duration": 0.13635999999999626,
          "durationTicks": 192,
          "midi": 67,
          "name": "G4",
          "ticks": 320640,
          "time": 247.15732999999997,
          "velocity": 0.968503937007874
        },
        {
          "duration": 0.13636000000002468,
          "durationTicks": 192,
          "midi": 63,
          "name": "D#4",
          "ticks": 320832,
          "time": 247.29368999999997,
          "velocity": 0.968503937007874
        },
        {
          "duration": 0.13636000000002468,
          "durationTicks": 192,
          "midi": 72,
          "name": "C5",
          "ticks": 320832,
          "time": 247.29368999999997,
          "velocity": 0.968503937007874
        },
        {
          "duration": 0.13636000000002468,
          "durationTicks": 192,
          "midi": 67,
          "name": "G4",
          "ticks": 320832,
          "time": 247.29368999999997,
          "velocity": 0.968503937007874
        },
        {
          "duration": 0.13635999999999626,
          "durationTicks": 192,
          "midi": 63,
          "name": "D#4",
          "ticks": 321024,
          "time": 247.43005,
          "velocity": 0.968503937007874
        },
        {
          "duration": 0.13635999999999626,
          "durationTicks": 192,
          "midi": 72,
          "name": "C5",
          "ticks": 321024,
          "time": 247.43005,
          "velocity": 0.968503937007874
        },
        {
          "duration": 0.13635999999999626,
          "durationTicks": 192,
          "midi": 63,
          "name": "D#4",
          "ticks": 321024,
          "time": 247.43005,
          "velocity": 0.968503937007874
        },
        {
          "duration": 0.13635999999999626,
          "durationTicks": 192,
          "midi": 63,
          "name": "D#4",
          "ticks": 321216,
          "time": 247.56641,
          "velocity": 0.968503937007874
        },
        {
          "duration": 0.13635999999999626,
          "durationTicks": 192,
          "midi": 72,
          "name": "C5",
          "ticks": 321216,
          "time": 247.56641,
          "velocity": 0.968503937007874
        },
        {
          "duration": 0.13635999999999626,
          "durationTicks": 192,
          "midi": 60,
          "name": "C4",
          "ticks": 321216,
          "time": 247.56641,
          "velocity": 0.968503937007874
        },
        {
          "duration": 0.13635999999999626,
          "durationTicks": 192,
          "midi": 63,
          "name": "D#4",
          "ticks": 321408,
          "time": 247.70277,
          "velocity": 0.968503937007874
        },
        {
          "duration": 0.13635999999999626,
          "durationTicks": 192,
          "midi": 72,
          "name": "C5",
          "ticks": 321408,
          "time": 247.70277,
          "velocity": 0.968503937007874
        },
        {
          "duration": 0.13635999999999626,
          "durationTicks": 192,
          "midi": 60,
          "name": "C4",
          "ticks": 321408,
          "time": 247.70277,
          "velocity": 0.968503937007874
        },
        {
          "duration": 0.13635999999999626,
          "durationTicks": 192,
          "midi": 63,
          "name": "D#4",
          "ticks": 321600,
          "time": 247.83912999999998,
          "velocity": 0.968503937007874
        },
        {
          "duration": 0.13635999999999626,
          "durationTicks": 192,
          "midi": 72,
          "name": "C5",
          "ticks": 321600,
          "time": 247.83912999999998,
          "velocity": 0.968503937007874
        },
        {
          "duration": 0.13635999999999626,
          "durationTicks": 192,
          "midi": 60,
          "name": "C4",
          "ticks": 321600,
          "time": 247.83912999999998,
          "velocity": 0.968503937007874
        },
        {
          "duration": 0.13635999999999626,
          "durationTicks": 192,
          "midi": 62,
          "name": "D4",
          "ticks": 321792,
          "time": 247.97548999999998,
          "velocity": 0.968503937007874
        },
        {
          "duration": 0.13635999999999626,
          "durationTicks": 192,
          "midi": 71,
          "name": "B4",
          "ticks": 321792,
          "time": 247.97548999999998,
          "velocity": 0.968503937007874
        },
        {
          "duration": 0.13635999999999626,
          "durationTicks": 192,
          "midi": 59,
          "name": "B3",
          "ticks": 321792,
          "time": 247.97548999999998,
          "velocity": 0.968503937007874
        },
        {
          "duration": 0.13635999999999626,
          "durationTicks": 192,
          "midi": 77,
          "name": "F5",
          "ticks": 321984,
          "time": 248.11184999999998,
          "velocity": 0.968503937007874
        },
        {
          "duration": 0.13635999999999626,
          "durationTicks": 192,
          "midi": 89,
          "name": "F6",
          "ticks": 321984,
          "time": 248.11184999999998,
          "velocity": 0.968503937007874
        },
        {
          "duration": 0.13636000000002468,
          "durationTicks": 192,
          "midi": 74,
          "name": "D5",
          "ticks": 322176,
          "time": 248.24820999999997,
          "velocity": 0.968503937007874
        },
        {
          "duration": 0.13636000000002468,
          "durationTicks": 192,
          "midi": 86,
          "name": "D6",
          "ticks": 322176,
          "time": 248.24820999999997,
          "velocity": 0.968503937007874
        },
        {
          "duration": 0.13635999999999626,
          "durationTicks": 192,
          "midi": 74,
          "name": "D5",
          "ticks": 322368,
          "time": 248.38457,
          "velocity": 0.968503937007874
        },
        {
          "duration": 0.13635999999999626,
          "durationTicks": 192,
          "midi": 86,
          "name": "D6",
          "ticks": 322368,
          "time": 248.38457,
          "velocity": 0.968503937007874
        },
        {
          "duration": 0.13635999999999626,
          "durationTicks": 192,
          "midi": 71,
          "name": "B4",
          "ticks": 322560,
          "time": 248.52093,
          "velocity": 0.968503937007874
        },
        {
          "duration": 0.13635999999999626,
          "durationTicks": 192,
          "midi": 83,
          "name": "B5",
          "ticks": 322560,
          "time": 248.52093,
          "velocity": 0.968503937007874
        },
        {
          "duration": 0.13635999999999626,
          "durationTicks": 192,
          "midi": 67,
          "name": "G4",
          "ticks": 322752,
          "time": 248.65729,
          "velocity": 0.968503937007874
        },
        {
          "duration": 0.13635999999999626,
          "durationTicks": 192,
          "midi": 79,
          "name": "G5",
          "ticks": 322752,
          "time": 248.65729,
          "velocity": 0.968503937007874
        },
        {
          "duration": 0.13635999999999626,
          "durationTicks": 192,
          "midi": 65,
          "name": "F4",
          "ticks": 322944,
          "time": 248.79364999999999,
          "velocity": 0.968503937007874
        },
        {
          "duration": 0.13635999999999626,
          "durationTicks": 192,
          "midi": 77,
          "name": "F5",
          "ticks": 322944,
          "time": 248.79364999999999,
          "velocity": 0.968503937007874
        },
        {
          "duration": 0.13635999999999626,
          "durationTicks": 192,
          "midi": 65,
          "name": "F4",
          "ticks": 323136,
          "time": 248.93000999999998,
          "velocity": 0.968503937007874
        },
        {
          "duration": 0.13635999999999626,
          "durationTicks": 192,
          "midi": 77,
          "name": "F5",
          "ticks": 323136,
          "time": 248.93000999999998,
          "velocity": 0.968503937007874
        },
        {
          "duration": 0.13635999999999626,
          "durationTicks": 192,
          "midi": 62,
          "name": "D4",
          "ticks": 323328,
          "time": 249.06636999999998,
          "velocity": 0.968503937007874
        },
        {
          "duration": 0.13635999999999626,
          "durationTicks": 192,
          "midi": 74,
          "name": "D5",
          "ticks": 323328,
          "time": 249.06636999999998,
          "velocity": 0.968503937007874
        },
        {
          "duration": 0.13635999999999626,
          "durationTicks": 192,
          "midi": 59,
          "name": "B3",
          "ticks": 323520,
          "time": 249.20272999999997,
          "velocity": 0.968503937007874
        },
        {
          "duration": 0.13635999999999626,
          "durationTicks": 192,
          "midi": 71,
          "name": "B4",
          "ticks": 323520,
          "time": 249.20272999999997,
          "velocity": 0.968503937007874
        },
        {
          "duration": 0.13636000000002468,
          "durationTicks": 192,
          "midi": 55,
          "name": "G3",
          "ticks": 323712,
          "time": 249.33908999999997,
          "velocity": 0.968503937007874
        },
        {
          "duration": 0.13636000000002468,
          "durationTicks": 192,
          "midi": 67,
          "name": "G4",
          "ticks": 323712,
          "time": 249.33908999999997,
          "velocity": 0.968503937007874
        },
        {
          "duration": 0.13635999999999626,
          "durationTicks": 192,
          "midi": 65,
          "name": "F4",
          "ticks": 323904,
          "time": 249.47545,
          "velocity": 0.968503937007874
        },
        {
          "duration": 0.13635999999999626,
          "durationTicks": 192,
          "midi": 65,
          "name": "F4",
          "ticks": 323904,
          "time": 249.47545,
          "velocity": 0.968503937007874
        },
        {
          "duration": 0.13635999999999626,
          "durationTicks": 192,
          "midi": 62,
          "name": "D4",
          "ticks": 324096,
          "time": 249.61181,
          "velocity": 0.968503937007874
        },
        {
          "duration": 0.13635999999999626,
          "durationTicks": 192,
          "midi": 62,
          "name": "D4",
          "ticks": 324096,
          "time": 249.61181,
          "velocity": 0.968503937007874
        },
        {
          "duration": 0.13635999999999626,
          "durationTicks": 192,
          "midi": 59,
          "name": "B3",
          "ticks": 324288,
          "time": 249.74817,
          "velocity": 0.968503937007874
        },
        {
          "duration": 0.13635999999999626,
          "durationTicks": 192,
          "midi": 59,
          "name": "B3",
          "ticks": 324288,
          "time": 249.74817,
          "velocity": 0.968503937007874
        },
        {
          "duration": 0.13635999999999626,
          "durationTicks": 192,
          "midi": 60,
          "name": "C4",
          "ticks": 324480,
          "time": 249.88452999999998,
          "velocity": 0.968503937007874
        },
        {
          "duration": 0.13635999999999626,
          "durationTicks": 192,
          "midi": 60,
          "name": "C4",
          "ticks": 324480,
          "time": 249.88452999999998,
          "velocity": 0.968503937007874
        },
        {
          "duration": 0.13635999999999626,
          "durationTicks": 192,
          "midi": 60,
          "name": "C4",
          "ticks": 324672,
          "time": 250.02088999999998,
          "velocity": 0.968503937007874
        },
        {
          "duration": 0.13635999999999626,
          "durationTicks": 192,
          "midi": 60,
          "name": "C4",
          "ticks": 324672,
          "time": 250.02088999999998,
          "velocity": 0.968503937007874
        },
        {
          "duration": 0.13635999999999626,
          "durationTicks": 192,
          "midi": 72,
          "name": "C5",
          "ticks": 324864,
          "time": 250.15724999999998,
          "velocity": 0.968503937007874
        },
        {
          "duration": 0.13635999999999626,
          "durationTicks": 192,
          "midi": 60,
          "name": "C4",
          "ticks": 324864,
          "time": 250.15724999999998,
          "velocity": 0.968503937007874
        },
        {
          "duration": 0.13635999999999626,
          "durationTicks": 192,
          "midi": 87,
          "name": "D#6",
          "ticks": 325056,
          "time": 250.29360999999997,
          "velocity": 0.968503937007874
        },
        {
          "duration": 0.13635999999999626,
          "durationTicks": 192,
          "midi": 87,
          "name": "D#6",
          "ticks": 325056,
          "time": 250.29360999999997,
          "velocity": 0.968503937007874
        },
        {
          "duration": 0.13636000000002468,
          "durationTicks": 192,
          "midi": 87,
          "name": "D#6",
          "ticks": 325248,
          "time": 250.42996999999997,
          "velocity": 0.968503937007874
        },
        {
          "duration": 0.13636000000002468,
          "durationTicks": 192,
          "midi": 87,
          "name": "D#6",
          "ticks": 325248,
          "time": 250.42996999999997,
          "velocity": 0.968503937007874
        },
        {
          "duration": 0.13635999999999626,
          "durationTicks": 192,
          "midi": 87,
          "name": "D#6",
          "ticks": 325440,
          "time": 250.56633,
          "velocity": 0.968503937007874
        },
        {
          "duration": 0.13635999999999626,
          "durationTicks": 192,
          "midi": 87,
          "name": "D#6",
          "ticks": 325440,
          "time": 250.56633,
          "velocity": 0.968503937007874
        },
        {
          "duration": 0.13635999999999626,
          "durationTicks": 192,
          "midi": 84,
          "name": "C6",
          "ticks": 325632,
          "time": 250.70269,
          "velocity": 0.968503937007874
        },
        {
          "duration": 0.13635999999999626,
          "durationTicks": 192,
          "midi": 84,
          "name": "C6",
          "ticks": 325632,
          "time": 250.70269,
          "velocity": 0.968503937007874
        },
        {
          "duration": 0.13635999999999626,
          "durationTicks": 192,
          "midi": 81,
          "name": "A5",
          "ticks": 325824,
          "time": 250.83905,
          "velocity": 0.968503937007874
        },
        {
          "duration": 0.13635999999999626,
          "durationTicks": 192,
          "midi": 81,
          "name": "A5",
          "ticks": 325824,
          "time": 250.83905,
          "velocity": 0.968503937007874
        },
        {
          "duration": 0.13635999999999626,
          "durationTicks": 192,
          "midi": 81,
          "name": "A5",
          "ticks": 326016,
          "time": 250.97540999999998,
          "velocity": 0.968503937007874
        },
        {
          "duration": 0.13635999999999626,
          "durationTicks": 192,
          "midi": 81,
          "name": "A5",
          "ticks": 326016,
          "time": 250.97540999999998,
          "velocity": 0.968503937007874
        },
        {
          "duration": 0.13635999999999626,
          "durationTicks": 192,
          "midi": 81,
          "name": "A5",
          "ticks": 326208,
          "time": 251.11176999999998,
          "velocity": 0.968503937007874
        },
        {
          "duration": 0.13635999999999626,
          "durationTicks": 192,
          "midi": 81,
          "name": "A5",
          "ticks": 326208,
          "time": 251.11176999999998,
          "velocity": 0.968503937007874
        },
        {
          "duration": 0.13635999999999626,
          "durationTicks": 192,
          "midi": 78,
          "name": "F#5",
          "ticks": 326400,
          "time": 251.24812999999997,
          "velocity": 0.968503937007874
        },
        {
          "duration": 0.13635999999999626,
          "durationTicks": 192,
          "midi": 78,
          "name": "F#5",
          "ticks": 326400,
          "time": 251.24812999999997,
          "velocity": 0.968503937007874
        },
        {
          "duration": 0.13636000000002468,
          "durationTicks": 192,
          "midi": 75,
          "name": "D#5",
          "ticks": 326592,
          "time": 251.38448999999997,
          "velocity": 0.968503937007874
        },
        {
          "duration": 0.13636000000002468,
          "durationTicks": 192,
          "midi": 75,
          "name": "D#5",
          "ticks": 326592,
          "time": 251.38448999999997,
          "velocity": 0.968503937007874
        },
        {
          "duration": 0.13635999999999626,
          "durationTicks": 192,
          "midi": 75,
          "name": "D#5",
          "ticks": 326784,
          "time": 251.52085,
          "velocity": 0.968503937007874
        },
        {
          "duration": 0.13635999999999626,
          "durationTicks": 192,
          "midi": 75,
          "name": "D#5",
          "ticks": 326784,
          "time": 251.52085,
          "velocity": 0.968503937007874
        },
        {
          "duration": 0.13635999999999626,
          "durationTicks": 192,
          "midi": 75,
          "name": "D#5",
          "ticks": 326976,
          "time": 251.65721,
          "velocity": 0.968503937007874
        },
        {
          "duration": 0.13635999999999626,
          "durationTicks": 192,
          "midi": 75,
          "name": "D#5",
          "ticks": 326976,
          "time": 251.65721,
          "velocity": 0.968503937007874
        },
        {
          "duration": 0.13635999999999626,
          "durationTicks": 192,
          "midi": 72,
          "name": "C5",
          "ticks": 327168,
          "time": 251.79357,
          "velocity": 0.968503937007874
        },
        {
          "duration": 0.13635999999999626,
          "durationTicks": 192,
          "midi": 72,
          "name": "C5",
          "ticks": 327168,
          "time": 251.79357,
          "velocity": 0.968503937007874
        },
        {
          "duration": 0.13635999999999626,
          "durationTicks": 192,
          "midi": 69,
          "name": "A4",
          "ticks": 327360,
          "time": 251.92992999999998,
          "velocity": 0.968503937007874
        },
        {
          "duration": 0.13635999999999626,
          "durationTicks": 192,
          "midi": 69,
          "name": "A4",
          "ticks": 327360,
          "time": 251.92992999999998,
          "velocity": 0.968503937007874
        },
        {
          "duration": 0.13635999999999626,
          "durationTicks": 192,
          "midi": 69,
          "name": "A4",
          "ticks": 327552,
          "time": 252.06628999999998,
          "velocity": 0.968503937007874
        },
        {
          "duration": 0.13635999999999626,
          "durationTicks": 192,
          "midi": 69,
          "name": "A4",
          "ticks": 327552,
          "time": 252.06628999999998,
          "velocity": 0.968503937007874
        },
        {
          "duration": 0.13635999999999626,
          "durationTicks": 192,
          "midi": 69,
          "name": "A4",
          "ticks": 327744,
          "time": 252.20264999999998,
          "velocity": 0.968503937007874
        },
        {
          "duration": 0.13635999999999626,
          "durationTicks": 192,
          "midi": 69,
          "name": "A4",
          "ticks": 327744,
          "time": 252.20264999999998,
          "velocity": 0.968503937007874
        },
        {
          "duration": 0.2941099999999892,
          "durationTicks": 384,
          "midi": 57,
          "name": "A3",
          "ticks": 327936,
          "time": 252.33900999999997,
          "velocity": 0.968503937007874
        },
        {
          "duration": 0.2941099999999892,
          "durationTicks": 384,
          "midi": 66,
          "name": "F#4",
          "ticks": 327936,
          "time": 252.33900999999997,
          "velocity": 0.968503937007874
        },
        {
          "duration": 0.2941099999999892,
          "durationTicks": 384,
          "midi": 55,
          "name": "G3",
          "ticks": 329472,
          "time": 253.51545,
          "velocity": 0.968503937007874
        },
        {
          "duration": 0.2941099999999892,
          "durationTicks": 384,
          "midi": 67,
          "name": "G4",
          "ticks": 329472,
          "time": 253.51545,
          "velocity": 0.968503937007874
        },
        {
          "duration": 0.2941099999999892,
          "durationTicks": 384,
          "midi": 55,
          "name": "G3",
          "ticks": 329472,
          "time": 253.51545,
          "velocity": 0.968503937007874
        },
        {
          "duration": 0.2941099999999892,
          "durationTicks": 384,
          "midi": 67,
          "name": "G4",
          "ticks": 329472,
          "time": 253.51545,
          "velocity": 0.968503937007874
        },
        {
          "duration": 0.5882199999999784,
          "durationTicks": 768,
          "midi": 64,
          "name": "E4",
          "ticks": 333312,
          "time": 256.45655,
          "velocity": 0.7165354330708661
        },
        {
          "duration": 0.2941099999999892,
          "durationTicks": 384,
          "midi": 67,
          "name": "G4",
          "ticks": 333312,
          "time": 256.45655,
          "velocity": 0.7165354330708661
        },
        {
          "duration": 0.2941099999999892,
          "durationTicks": 384,
          "midi": 72,
          "name": "C5",
          "ticks": 333696,
          "time": 256.75066,
          "velocity": 0.7165354330708661
        },
        {
          "duration": 0.5882199999999784,
          "durationTicks": 768,
          "midi": 65,
          "name": "F4",
          "ticks": 334080,
          "time": 257.04476999999997,
          "velocity": 0.7165354330708661
        },
        {
          "duration": 0.2941099999999892,
          "durationTicks": 384,
          "midi": 71,
          "name": "B4",
          "ticks": 334080,
          "time": 257.04476999999997,
          "velocity": 0.7165354330708661
        },
        {
          "duration": 0.2941099999999892,
          "durationTicks": 384,
          "midi": 72,
          "name": "C5",
          "ticks": 334464,
          "time": 257.33887999999996,
          "velocity": 0.7165354330708661
        },
        {
          "duration": 0.5882200000000353,
          "durationTicks": 768,
          "midi": 65,
          "name": "F4",
          "ticks": 334848,
          "time": 257.63298999999995,
          "velocity": 0.7165354330708661
        },
        {
          "duration": 0.29411000000004606,
          "durationTicks": 384,
          "midi": 74,
          "name": "D5",
          "ticks": 334848,
          "time": 257.63298999999995,
          "velocity": 0.7165354330708661
        },
        {
          "duration": 0.2941099999999892,
          "durationTicks": 384,
          "midi": 69,
          "name": "A4",
          "ticks": 335232,
          "time": 257.9271,
          "velocity": 0.7165354330708661
        },
        {
          "duration": 0.5882199999999784,
          "durationTicks": 768,
          "midi": 64,
          "name": "E4",
          "ticks": 335616,
          "time": 258.22121,
          "velocity": 0.7165354330708661
        },
        {
          "duration": 0.2941099999999892,
          "durationTicks": 384,
          "midi": 69,
          "name": "A4",
          "ticks": 335616,
          "time": 258.22121,
          "velocity": 0.7165354330708661
        },
        {
          "duration": 0.2941099999999892,
          "durationTicks": 384,
          "midi": 67,
          "name": "G4",
          "ticks": 336000,
          "time": 258.51532,
          "velocity": 0.7165354330708661
        },
        {
          "duration": 0.5882199999999784,
          "durationTicks": 768,
          "midi": 64,
          "name": "E4",
          "ticks": 339456,
          "time": 261.16231,
          "velocity": 0.7165354330708661
        },
        {
          "duration": 0.2941099999999892,
          "durationTicks": 384,
          "midi": 67,
          "name": "G4",
          "ticks": 339456,
          "time": 261.16231,
          "velocity": 0.7165354330708661
        },
        {
          "duration": 0.2941099999999892,
          "durationTicks": 384,
          "midi": 72,
          "name": "C5",
          "ticks": 339840,
          "time": 261.45642,
          "velocity": 0.7165354330708661
        },
        {
          "duration": 0.5769199999999728,
          "durationTicks": 768,
          "midi": 65,
          "name": "F4",
          "ticks": 340224,
          "time": 261.75052999999997,
          "velocity": 0.7165354330708661
        },
        {
          "duration": 0.2884599999999864,
          "durationTicks": 384,
          "midi": 71,
          "name": "B4",
          "ticks": 340224,
          "time": 261.75052999999997,
          "velocity": 0.7165354330708661
        },
        {
          "duration": 0.2884599999999864,
          "durationTicks": 384,
          "midi": 72,
          "name": "C5",
          "ticks": 340608,
          "time": 262.03898999999996,
          "velocity": 0.7165354330708661
        },
        {
          "duration": 0.5769200000000296,
          "durationTicks": 768,
          "midi": 65,
          "name": "F4",
          "ticks": 340992,
          "time": 262.32744999999994,
          "velocity": 0.7165354330708661
        },
        {
          "duration": 0.28846000000004324,
          "durationTicks": 384,
          "midi": 74,
          "name": "D5",
          "ticks": 340992,
          "time": 262.32744999999994,
          "velocity": 0.7165354330708661
        },
        {
          "duration": 0.2884599999999864,
          "durationTicks": 384,
          "midi": 69,
          "name": "A4",
          "ticks": 341376,
          "time": 262.61591,
          "velocity": 0.7165354330708661
        },
        {
          "duration": 0.5769199999999728,
          "durationTicks": 768,
          "midi": 64,
          "name": "E4",
          "ticks": 341760,
          "time": 262.90437,
          "velocity": 0.7165354330708661
        },
        {
          "duration": 0.2884599999999864,
          "durationTicks": 384,
          "midi": 69,
          "name": "A4",
          "ticks": 341760,
          "time": 262.90437,
          "velocity": 0.7165354330708661
        },
        {
          "duration": 0.2884599999999864,
          "durationTicks": 384,
          "midi": 67,
          "name": "G4",
          "ticks": 342144,
          "time": 263.19282999999996,
          "velocity": 0.7165354330708661
        },
        {
          "duration": 0.28846000000004324,
          "durationTicks": 384,
          "midi": 70,
          "name": "A#4",
          "ticks": 345600,
          "time": 265.78896999999995,
          "velocity": 0.7165354330708661
        },
        {
          "duration": 0.5769200000000296,
          "durationTicks": 768,
          "midi": 70,
          "name": "A#4",
          "ticks": 345600,
          "time": 265.78896999999995,
          "velocity": 0.7165354330708661
        },
        {
          "duration": 0.2884599999999864,
          "durationTicks": 384,
          "midi": 72,
          "name": "C5",
          "ticks": 345984,
          "time": 266.07743,
          "velocity": 0.7165354330708661
        },
        {
          "duration": 0.5660199999999804,
          "durationTicks": 768,
          "midi": 67,
          "name": "G4",
          "ticks": 346368,
          "time": 266.36589,
          "velocity": 0.7165354330708661
        },
        {
          "duration": 0.2830099999999902,
          "durationTicks": 384,
          "midi": 73,
          "name": "C#5",
          "ticks": 346368,
          "time": 266.36589,
          "velocity": 0.7165354330708661
        },
        {
          "duration": 0.2830099999999902,
          "durationTicks": 384,
          "midi": 72,
          "name": "C5",
          "ticks": 346752,
          "time": 266.64889999999997,
          "velocity": 0.7165354330708661
        },
        {
          "duration": 0.5660200000000373,
          "durationTicks": 768,
          "midi": 67,
          "name": "G4",
          "ticks": 347136,
          "time": 266.93190999999996,
          "velocity": 0.7165354330708661
        },
        {
          "duration": 0.5660199999999804,
          "durationTicks": 768,
          "midi": 65,
          "name": "F4",
          "ticks": 347904,
          "time": 267.49793,
          "velocity": 0.7165354330708661
        },
        {
          "duration": 1.1320400000000177,
          "durationTicks": 1536,
          "midi": 69,
          "name": "A4",
          "ticks": 348672,
          "time": 268.06395,
          "velocity": 0.7165354330708661
        },
        {
          "duration": 0.2830099999999902,
          "durationTicks": 384,
          "midi": 72,
          "name": "C5",
          "ticks": 348672,
          "time": 268.06395,
          "velocity": 0.7165354330708661
        },
        {
          "duration": 0.2830099999999902,
          "durationTicks": 384,
          "midi": 74,
          "name": "D5",
          "ticks": 349056,
          "time": 268.34695999999997,
          "velocity": 0.7165354330708661
        },
        {
          "duration": 0.28301000000004706,
          "durationTicks": 384,
          "midi": 75,
          "name": "D#5",
          "ticks": 349440,
          "time": 268.62996999999996,
          "velocity": 0.7165354330708661
        },
        {
          "duration": 0.2830099999999902,
          "durationTicks": 384,
          "midi": 74,
          "name": "D5",
          "ticks": 349824,
          "time": 268.91298,
          "velocity": 0.7165354330708661
        },
        {
          "duration": 0.5660199999999804,
          "durationTicks": 768,
          "midi": 69,
          "name": "A4",
          "ticks": 350208,
          "time": 269.19599,
          "velocity": 0.7165354330708661
        },
        {
          "duration": 0.5660199999999804,
          "durationTicks": 768,
          "midi": 67,
          "name": "G4",
          "ticks": 350976,
          "time": 269.76201,
          "velocity": 0.7165354330708661
        },
        {
          "duration": 0.28301000000004706,
          "durationTicks": 384,
          "midi": 65,
          "name": "F4",
          "ticks": 351744,
          "time": 270.32802999999996,
          "velocity": 0.7165354330708661
        },
        {
          "duration": 0.28301000000004706,
          "durationTicks": 384,
          "midi": 77,
          "name": "F5",
          "ticks": 351744,
          "time": 270.32802999999996,
          "velocity": 0.7165354330708661
        },
        {
          "duration": 0.2830099999999902,
          "durationTicks": 384,
          "midi": 67,
          "name": "G4",
          "ticks": 352128,
          "time": 270.61104,
          "velocity": 0.7165354330708661
        },
        {
          "duration": 0.2830099999999902,
          "durationTicks": 384,
          "midi": 79,
          "name": "G5",
          "ticks": 352128,
          "time": 270.61104,
          "velocity": 0.7165354330708661
        },
        {
          "duration": 0.2830099999999902,
          "durationTicks": 384,
          "midi": 68,
          "name": "G#4",
          "ticks": 352512,
          "time": 270.89405,
          "velocity": 0.7165354330708661
        },
        {
          "duration": 0.2830099999999902,
          "durationTicks": 384,
          "midi": 80,
          "name": "G#5",
          "ticks": 352512,
          "time": 270.89405,
          "velocity": 0.7165354330708661
        },
        {
          "duration": 0.2830099999999902,
          "durationTicks": 384,
          "midi": 67,
          "name": "G4",
          "ticks": 352896,
          "time": 271.17706,
          "velocity": 0.7165354330708661
        },
        {
          "duration": 0.2830099999999902,
          "durationTicks": 384,
          "midi": 79,
          "name": "G5",
          "ticks": 352896,
          "time": 271.17706,
          "velocity": 0.7165354330708661
        },
        {
          "duration": 0.2830099999999902,
          "durationTicks": 384,
          "midi": 65,
          "name": "F4",
          "ticks": 353280,
          "time": 271.46007,
          "velocity": 0.7165354330708661
        },
        {
          "duration": 0.2830099999999902,
          "durationTicks": 384,
          "midi": 77,
          "name": "F5",
          "ticks": 353280,
          "time": 271.46007,
          "velocity": 0.7165354330708661
        },
        {
          "duration": 0.2830099999999902,
          "durationTicks": 384,
          "midi": 67,
          "name": "G4",
          "ticks": 353664,
          "time": 271.74307999999996,
          "velocity": 0.7165354330708661
        },
        {
          "duration": 0.2830099999999902,
          "durationTicks": 384,
          "midi": 79,
          "name": "G5",
          "ticks": 353664,
          "time": 271.74307999999996,
          "velocity": 0.7165354330708661
        },
        {
          "duration": 0.28301000000004706,
          "durationTicks": 384,
          "midi": 68,
          "name": "G#4",
          "ticks": 354048,
          "time": 272.02608999999995,
          "velocity": 0.7952755905511811
        },
        {
          "duration": 0.28301000000004706,
          "durationTicks": 384,
          "midi": 80,
          "name": "G#5",
          "ticks": 354048,
          "time": 272.02608999999995,
          "velocity": 0.7952755905511811
        },
        {
          "duration": 0.2830099999999902,
          "durationTicks": 384,
          "midi": 67,
          "name": "G4",
          "ticks": 354432,
          "time": 272.3091,
          "velocity": 0.7952755905511811
        },
        {
          "duration": 0.2830099999999902,
          "durationTicks": 384,
          "midi": 79,
          "name": "G5",
          "ticks": 354432,
          "time": 272.3091,
          "velocity": 0.7952755905511811
        },
        {
          "duration": 0.2830099999999902,
          "durationTicks": 384,
          "midi": 65,
          "name": "F4",
          "ticks": 354816,
          "time": 272.59211,
          "velocity": 0.7952755905511811
        },
        {
          "duration": 0.2830099999999902,
          "durationTicks": 384,
          "midi": 77,
          "name": "F5",
          "ticks": 354816,
          "time": 272.59211,
          "velocity": 0.7952755905511811
        },
        {
          "duration": 0.2830099999999902,
          "durationTicks": 384,
          "midi": 67,
          "name": "G4",
          "ticks": 355200,
          "time": 272.87512,
          "velocity": 0.7952755905511811
        },
        {
          "duration": 0.2830099999999902,
          "durationTicks": 384,
          "midi": 79,
          "name": "G5",
          "ticks": 355200,
          "time": 272.87512,
          "velocity": 0.7952755905511811
        },
        {
          "duration": 0.2830099999999902,
          "durationTicks": 384,
          "midi": 68,
          "name": "G#4",
          "ticks": 355584,
          "time": 273.15812999999997,
          "velocity": 0.7952755905511811
        },
        {
          "duration": 0.2830099999999902,
          "durationTicks": 384,
          "midi": 80,
          "name": "G#5",
          "ticks": 355584,
          "time": 273.15812999999997,
          "velocity": 0.7952755905511811
        },
        {
          "duration": 0.2830099999999902,
          "durationTicks": 384,
          "midi": 67,
          "name": "G4",
          "ticks": 355968,
          "time": 273.44113999999996,
          "velocity": 0.7952755905511811
        },
        {
          "duration": 0.2830099999999902,
          "durationTicks": 384,
          "midi": 79,
          "name": "G5",
          "ticks": 355968,
          "time": 273.44113999999996,
          "velocity": 0.7952755905511811
        },
        {
          "duration": 0.28301000000004706,
          "durationTicks": 384,
          "midi": 65,
          "name": "F4",
          "ticks": 356352,
          "time": 273.72414999999995,
          "velocity": 0.7952755905511811
        },
        {
          "duration": 0.28301000000004706,
          "durationTicks": 384,
          "midi": 77,
          "name": "F5",
          "ticks": 356352,
          "time": 273.72414999999995,
          "velocity": 0.7952755905511811
        },
        {
          "duration": 0.2830099999999902,
          "durationTicks": 384,
          "midi": 67,
          "name": "G4",
          "ticks": 356736,
          "time": 274.00716,
          "velocity": 0.7952755905511811
        },
        {
          "duration": 0.2830099999999902,
          "durationTicks": 384,
          "midi": 79,
          "name": "G5",
          "ticks": 356736,
          "time": 274.00716,
          "velocity": 0.7952755905511811
        },
        {
          "duration": 0.2830099999999902,
          "durationTicks": 384,
          "midi": 68,
          "name": "G#4",
          "ticks": 357120,
          "time": 274.29017,
          "velocity": 0.8582677165354331
        },
        {
          "duration": 0.2830099999999902,
          "durationTicks": 384,
          "midi": 80,
          "name": "G#5",
          "ticks": 357120,
          "time": 274.29017,
          "velocity": 0.8582677165354331
        },
        {
          "duration": 0.2830099999999902,
          "durationTicks": 384,
          "midi": 67,
          "name": "G4",
          "ticks": 357504,
          "time": 274.57318,
          "velocity": 0.8582677165354331
        },
        {
          "duration": 0.2830099999999902,
          "durationTicks": 384,
          "midi": 79,
          "name": "G5",
          "ticks": 357504,
          "time": 274.57318,
          "velocity": 0.8582677165354331
        },
        {
          "duration": 0.2830099999999902,
          "durationTicks": 384,
          "midi": 66,
          "name": "F#4",
          "ticks": 357888,
          "time": 274.85618999999997,
          "velocity": 0.8582677165354331
        },
        {
          "duration": 0.2830099999999902,
          "durationTicks": 384,
          "midi": 78,
          "name": "F#5",
          "ticks": 357888,
          "time": 274.85618999999997,
          "velocity": 0.8582677165354331
        },
        {
          "duration": 0.2830099999999902,
          "durationTicks": 384,
          "midi": 67,
          "name": "G4",
          "ticks": 358272,
          "time": 275.13919999999996,
          "velocity": 0.8582677165354331
        },
        {
          "duration": 0.2830099999999902,
          "durationTicks": 384,
          "midi": 79,
          "name": "G5",
          "ticks": 358272,
          "time": 275.13919999999996,
          "velocity": 0.8582677165354331
        },
        {
          "duration": 0.28301000000004706,
          "durationTicks": 384,
          "midi": 69,
          "name": "A4",
          "ticks": 358656,
          "time": 275.42220999999995,
          "velocity": 0.8582677165354331
        },
        {
          "duration": 0.28301000000004706,
          "durationTicks": 384,
          "midi": 81,
          "name": "A5",
          "ticks": 358656,
          "time": 275.42220999999995,
          "velocity": 0.8582677165354331
        },
        {
          "duration": 0.2830099999999902,
          "durationTicks": 384,
          "midi": 67,
          "name": "G4",
          "ticks": 359040,
          "time": 275.70522,
          "velocity": 0.8582677165354331
        },
        {
          "duration": 0.2830099999999902,
          "durationTicks": 384,
          "midi": 79,
          "name": "G5",
          "ticks": 359040,
          "time": 275.70522,
          "velocity": 0.8582677165354331
        },
        {
          "duration": 0.2830099999999902,
          "durationTicks": 384,
          "midi": 66,
          "name": "F#4",
          "ticks": 359424,
          "time": 275.98823,
          "velocity": 0.8582677165354331
        },
        {
          "duration": 0.2830099999999902,
          "durationTicks": 384,
          "midi": 78,
          "name": "F#5",
          "ticks": 359424,
          "time": 275.98823,
          "velocity": 0.8582677165354331
        },
        {
          "duration": 0.2830099999999902,
          "durationTicks": 384,
          "midi": 67,
          "name": "G4",
          "ticks": 359808,
          "time": 276.27124,
          "velocity": 0.8582677165354331
        },
        {
          "duration": 0.2830099999999902,
          "durationTicks": 384,
          "midi": 79,
          "name": "G5",
          "ticks": 359808,
          "time": 276.27124,
          "velocity": 0.8582677165354331
        },
        {
          "duration": 0.2777699999999754,
          "durationTicks": 384,
          "midi": 69,
          "name": "A4",
          "ticks": 360192,
          "time": 276.55424999999997,
          "velocity": 0.905511811023622
        },
        {
          "duration": 0.2777699999999754,
          "durationTicks": 384,
          "midi": 81,
          "name": "A5",
          "ticks": 360192,
          "time": 276.55424999999997,
          "velocity": 0.905511811023622
        },
        {
          "duration": 0.27777000000003227,
          "durationTicks": 384,
          "midi": 67,
          "name": "G4",
          "ticks": 360576,
          "time": 276.83201999999994,
          "velocity": 0.905511811023622
        },
        {
          "duration": 0.27777000000003227,
          "durationTicks": 384,
          "midi": 79,
          "name": "G5",
          "ticks": 360576,
          "time": 276.83201999999994,
          "velocity": 0.905511811023622
        },
        {
          "duration": 0.2777699999999754,
          "durationTicks": 384,
          "midi": 66,
          "name": "F#4",
          "ticks": 360960,
          "time": 277.10979,
          "velocity": 0.905511811023622
        },
        {
          "duration": 0.2777699999999754,
          "durationTicks": 384,
          "midi": 78,
          "name": "F#5",
          "ticks": 360960,
          "time": 277.10979,
          "velocity": 0.905511811023622
        },
        {
          "duration": 0.27777000000003227,
          "durationTicks": 384,
          "midi": 67,
          "name": "G4",
          "ticks": 361344,
          "time": 277.38755999999995,
          "velocity": 0.905511811023622
        },
        {
          "duration": 0.27777000000003227,
          "durationTicks": 384,
          "midi": 79,
          "name": "G5",
          "ticks": 361344,
          "time": 277.38755999999995,
          "velocity": 0.905511811023622
        },
        {
          "duration": 0.2777699999999754,
          "durationTicks": 384,
          "midi": 66,
          "name": "F#4",
          "ticks": 361728,
          "time": 277.66533,
          "velocity": 0.905511811023622
        },
        {
          "duration": 0.2777699999999754,
          "durationTicks": 384,
          "midi": 78,
          "name": "F#5",
          "ticks": 361728,
          "time": 277.66533,
          "velocity": 0.905511811023622
        },
        {
          "duration": 0.27777000000003227,
          "durationTicks": 384,
          "midi": 67,
          "name": "G4",
          "ticks": 362112,
          "time": 277.94309999999996,
          "velocity": 0.905511811023622
        },
        {
          "duration": 0.27777000000003227,
          "durationTicks": 384,
          "midi": 79,
          "name": "G5",
          "ticks": 362112,
          "time": 277.94309999999996,
          "velocity": 0.905511811023622
        },
        {
          "duration": 0.2777699999999754,
          "durationTicks": 384,
          "midi": 66,
          "name": "F#4",
          "ticks": 362496,
          "time": 278.22087,
          "velocity": 0.905511811023622
        },
        {
          "duration": 0.2777699999999754,
          "durationTicks": 384,
          "midi": 78,
          "name": "F#5",
          "ticks": 362496,
          "time": 278.22087,
          "velocity": 0.905511811023622
        },
        {
          "duration": 0.2777699999999754,
          "durationTicks": 384,
          "midi": 67,
          "name": "G4",
          "ticks": 362880,
          "time": 278.49863999999997,
          "velocity": 0.905511811023622
        },
        {
          "duration": 0.2777699999999754,
          "durationTicks": 384,
          "midi": 79,
          "name": "G5",
          "ticks": 362880,
          "time": 278.49863999999997,
          "velocity": 0.905511811023622
        },
        {
          "duration": 0.6944250000000238,
          "durationTicks": 960,
          "midi": 79,
          "name": "G5",
          "ticks": 363264,
          "time": 278.77640999999994,
          "velocity": 0.968503937007874
        },
        {
          "duration": 0.6944250000000238,
          "durationTicks": 960,
          "midi": 79,
          "name": "G5",
          "ticks": 363264,
          "time": 278.77640999999994,
          "velocity": 0.968503937007874
        },
        {
          "duration": 0.13888500000001613,
          "durationTicks": 192,
          "midi": 81,
          "name": "A5",
          "ticks": 364224,
          "time": 279.47083499999997,
          "velocity": 0.968503937007874
        },
        {
          "duration": 0.13888500000001613,
          "durationTicks": 192,
          "midi": 81,
          "name": "A5",
          "ticks": 364224,
          "time": 279.47083499999997,
          "velocity": 0.968503937007874
        },
        {
          "duration": 0.1388849999999593,
          "durationTicks": 192,
          "midi": 79,
          "name": "G5",
          "ticks": 364416,
          "time": 279.60972,
          "velocity": 0.968503937007874
        },
        {
          "duration": 0.1388849999999593,
          "durationTicks": 192,
          "midi": 79,
          "name": "G5",
          "ticks": 364416,
          "time": 279.60972,
          "velocity": 0.968503937007874
        },
        {
          "duration": 0.13888500000001613,
          "durationTicks": 192,
          "midi": 77,
          "name": "F5",
          "ticks": 364608,
          "time": 279.74860499999994,
          "velocity": 0.968503937007874
        },
        {
          "duration": 0.13888500000001613,
          "durationTicks": 192,
          "midi": 77,
          "name": "F5",
          "ticks": 364608,
          "time": 279.74860499999994,
          "velocity": 0.968503937007874
        },
        {
          "duration": 0.13888500000001613,
          "durationTicks": 192,
          "midi": 77,
          "name": "F5",
          "ticks": 364800,
          "time": 279.88748999999996,
          "velocity": 0.968503937007874
        },
        {
          "duration": 0.13888500000001613,
          "durationTicks": 192,
          "midi": 77,
          "name": "F5",
          "ticks": 364800,
          "time": 279.88748999999996,
          "velocity": 0.968503937007874
        },
        {
          "duration": 0.13888500000001613,
          "durationTicks": 192,
          "midi": 76,
          "name": "E5",
          "ticks": 364992,
          "time": 280.026375,
          "velocity": 0.968503937007874
        },
        {
          "duration": 0.13888500000001613,
          "durationTicks": 192,
          "midi": 76,
          "name": "E5",
          "ticks": 364992,
          "time": 280.026375,
          "velocity": 0.968503937007874
        },
        {
          "duration": 0.1388849999999593,
          "durationTicks": 192,
          "midi": 74,
          "name": "D5",
          "ticks": 365184,
          "time": 280.16526,
          "velocity": 0.968503937007874
        },
        {
          "duration": 0.1388849999999593,
          "durationTicks": 192,
          "midi": 74,
          "name": "D5",
          "ticks": 365184,
          "time": 280.16526,
          "velocity": 0.968503937007874
        },
        {
          "duration": 0.13888500000001613,
          "durationTicks": 192,
          "midi": 72,
          "name": "C5",
          "ticks": 365376,
          "time": 280.30414499999995,
          "velocity": 0.968503937007874
        },
        {
          "duration": 0.13888500000001613,
          "durationTicks": 192,
          "midi": 72,
          "name": "C5",
          "ticks": 365376,
          "time": 280.30414499999995,
          "velocity": 0.968503937007874
        },
        {
          "duration": 0.13888500000001613,
          "durationTicks": 192,
          "midi": 72,
          "name": "C5",
          "ticks": 365568,
          "time": 280.44302999999996,
          "velocity": 0.968503937007874
        },
        {
          "duration": 0.13888500000001613,
          "durationTicks": 192,
          "midi": 72,
          "name": "C5",
          "ticks": 365568,
          "time": 280.44302999999996,
          "velocity": 0.968503937007874
        },
        {
          "duration": 0.1388849999999593,
          "durationTicks": 192,
          "midi": 71,
          "name": "B4",
          "ticks": 365760,
          "time": 280.581915,
          "velocity": 0.968503937007874
        },
        {
          "duration": 0.1388849999999593,
          "durationTicks": 192,
          "midi": 71,
          "name": "B4",
          "ticks": 365760,
          "time": 280.581915,
          "velocity": 0.968503937007874
        },
        {
          "duration": 0.13888500000001613,
          "durationTicks": 192,
          "midi": 69,
          "name": "A4",
          "ticks": 365952,
          "time": 280.72079999999994,
          "velocity": 0.968503937007874
        },
        {
          "duration": 0.13888500000001613,
          "durationTicks": 192,
          "midi": 69,
          "name": "A4",
          "ticks": 365952,
          "time": 280.72079999999994,
          "velocity": 0.968503937007874
        },
        {
          "duration": 0.13888500000001613,
          "durationTicks": 192,
          "midi": 71,
          "name": "B4",
          "ticks": 366144,
          "time": 280.85968499999996,
          "velocity": 0.968503937007874
        },
        {
          "duration": 0.13888500000001613,
          "durationTicks": 192,
          "midi": 71,
          "name": "B4",
          "ticks": 366144,
          "time": 280.85968499999996,
          "velocity": 0.968503937007874
        },
        {
          "duration": 0.13888500000001613,
          "durationTicks": 192,
          "midi": 74,
          "name": "D5",
          "ticks": 366336,
          "time": 280.99857,
          "velocity": 0.968503937007874
        },
        {
          "duration": 0.13888500000001613,
          "durationTicks": 192,
          "midi": 74,
          "name": "D5",
          "ticks": 366336,
          "time": 280.99857,
          "velocity": 0.968503937007874
        },
        {
          "duration": 0.1388849999999593,
          "durationTicks": 192,
          "midi": 72,
          "name": "C5",
          "ticks": 366528,
          "time": 281.137455,
          "velocity": 0.968503937007874
        },
        {
          "duration": 0.1388849999999593,
          "durationTicks": 192,
          "midi": 72,
          "name": "C5",
          "ticks": 366528,
          "time": 281.137455,
          "velocity": 0.968503937007874
        },
        {
          "duration": 0.13888500000001613,
          "durationTicks": 192,
          "midi": 67,
          "name": "G4",
          "ticks": 366720,
          "time": 281.27633999999995,
          "velocity": 0.968503937007874
        },
        {
          "duration": 0.13888500000001613,
          "durationTicks": 192,
          "midi": 67,
          "name": "G4",
          "ticks": 366720,
          "time": 281.27633999999995,
          "velocity": 0.968503937007874
        },
        {
          "duration": 0.13888500000001613,
          "durationTicks": 192,
          "midi": 64,
          "name": "E4",
          "ticks": 366912,
          "time": 281.41522499999996,
          "velocity": 0.968503937007874
        },
        {
          "duration": 0.13888500000001613,
          "durationTicks": 192,
          "midi": 64,
          "name": "E4",
          "ticks": 366912,
          "time": 281.41522499999996,
          "velocity": 0.968503937007874
        },
        {
          "duration": 0.13888500000001613,
          "durationTicks": 192,
          "midi": 71,
          "name": "B4",
          "ticks": 367104,
          "time": 281.55411,
          "velocity": 0.968503937007874
        },
        {
          "duration": 0.13888500000001613,
          "durationTicks": 192,
          "midi": 71,
          "name": "B4",
          "ticks": 367104,
          "time": 281.55411,
          "velocity": 0.968503937007874
        },
        {
          "duration": 0.1388849999999593,
          "durationTicks": 192,
          "midi": 69,
          "name": "A4",
          "ticks": 367296,
          "time": 281.692995,
          "velocity": 0.968503937007874
        },
        {
          "duration": 0.1388849999999593,
          "durationTicks": 192,
          "midi": 69,
          "name": "A4",
          "ticks": 367296,
          "time": 281.692995,
          "velocity": 0.968503937007874
        },
        {
          "duration": 0.13888500000001613,
          "durationTicks": 192,
          "midi": 65,
          "name": "F4",
          "ticks": 367488,
          "time": 281.83187999999996,
          "velocity": 0.968503937007874
        },
        {
          "duration": 0.13888500000001613,
          "durationTicks": 192,
          "midi": 65,
          "name": "F4",
          "ticks": 367488,
          "time": 281.83187999999996,
          "velocity": 0.968503937007874
        },
        {
          "duration": 0.13888500000001613,
          "durationTicks": 192,
          "midi": 62,
          "name": "D4",
          "ticks": 367680,
          "time": 281.970765,
          "velocity": 0.968503937007874
        },
        {
          "duration": 0.13888500000001613,
          "durationTicks": 192,
          "midi": 62,
          "name": "D4",
          "ticks": 367680,
          "time": 281.970765,
          "velocity": 0.968503937007874
        },
        {
          "duration": 0.1388849999999593,
          "durationTicks": 192,
          "midi": 55,
          "name": "G3",
          "ticks": 367872,
          "time": 282.10965,
          "velocity": 0.968503937007874
        },
        {
          "duration": 0.1388849999999593,
          "durationTicks": 192,
          "midi": 69,
          "name": "A4",
          "ticks": 367872,
          "time": 282.10965,
          "velocity": 0.968503937007874
        },
        {
          "duration": 0.13888500000001613,
          "durationTicks": 192,
          "midi": 55,
          "name": "G3",
          "ticks": 368064,
          "time": 282.24853499999995,
          "velocity": 0.968503937007874
        },
        {
          "duration": 0.13888500000001613,
          "durationTicks": 192,
          "midi": 67,
          "name": "G4",
          "ticks": 368064,
          "time": 282.24853499999995,
          "velocity": 0.968503937007874
        },
        {
          "duration": 0.13888500000001613,
          "durationTicks": 192,
          "midi": 60,
          "name": "C4",
          "ticks": 368256,
          "time": 282.38741999999996,
          "velocity": 0.968503937007874
        },
        {
          "duration": 0.13888500000001613,
          "durationTicks": 192,
          "midi": 64,
          "name": "E4",
          "ticks": 368256,
          "time": 282.38741999999996,
          "velocity": 0.968503937007874
        },
        {
          "duration": 0.13888500000001613,
          "durationTicks": 192,
          "midi": 60,
          "name": "C4",
          "ticks": 368448,
          "time": 282.526305,
          "velocity": 0.968503937007874
        },
        {
          "duration": 0.13888500000001613,
          "durationTicks": 192,
          "midi": 60,
          "name": "C4",
          "ticks": 368448,
          "time": 282.526305,
          "velocity": 0.968503937007874
        },
        {
          "duration": 0.1388849999999593,
          "durationTicks": 192,
          "midi": 59,
          "name": "B3",
          "ticks": 368640,
          "time": 282.66519,
          "velocity": 0.968503937007874
        },
        {
          "duration": 0.1388849999999593,
          "durationTicks": 192,
          "midi": 55,
          "name": "G3",
          "ticks": 368640,
          "time": 282.66519,
          "velocity": 0.968503937007874
        },
        {
          "duration": 0.13888500000001613,
          "durationTicks": 192,
          "midi": 66,
          "name": "F#4",
          "ticks": 368832,
          "time": 282.80407499999995,
          "velocity": 0.968503937007874
        },
        {
          "duration": 0.13888500000001613,
          "durationTicks": 192,
          "midi": 78,
          "name": "F#5",
          "ticks": 368832,
          "time": 282.80407499999995,
          "velocity": 0.968503937007874
        },
        {
          "duration": 0.13888500000001613,
          "durationTicks": 192,
          "midi": 67,
          "name": "G4",
          "ticks": 369024,
          "time": 282.94295999999997,
          "velocity": 0.968503937007874
        },
        {
          "duration": 0.13888500000001613,
          "durationTicks": 192,
          "midi": 79,
          "name": "G5",
          "ticks": 369024,
          "time": 282.94295999999997,
          "velocity": 0.968503937007874
        },
        {
          "duration": 0.1388849999999593,
          "durationTicks": 192,
          "midi": 66,
          "name": "F#4",
          "ticks": 369216,
          "time": 283.081845,
          "velocity": 0.968503937007874
        },
        {
          "duration": 0.1388849999999593,
          "durationTicks": 192,
          "midi": 78,
          "name": "F#5",
          "ticks": 369216,
          "time": 283.081845,
          "velocity": 0.968503937007874
        },
        {
          "duration": 0.13888500000001613,
          "durationTicks": 192,
          "midi": 67,
          "name": "G4",
          "ticks": 369408,
          "time": 283.22072999999995,
          "velocity": 0.968503937007874
        },
        {
          "duration": 0.13888500000001613,
          "durationTicks": 192,
          "midi": 79,
          "name": "G5",
          "ticks": 369408,
          "time": 283.22072999999995,
          "velocity": 0.968503937007874
        },
        {
          "duration": 0.13888500000001613,
          "durationTicks": 192,
          "midi": 66,
          "name": "F#4",
          "ticks": 369600,
          "time": 283.35961499999996,
          "velocity": 0.968503937007874
        },
        {
          "duration": 0.13888500000001613,
          "durationTicks": 192,
          "midi": 78,
          "name": "F#5",
          "ticks": 369600,
          "time": 283.35961499999996,
          "velocity": 0.968503937007874
        },
        {
          "duration": 0.13888500000001613,
          "durationTicks": 192,
          "midi": 67,
          "name": "G4",
          "ticks": 369792,
          "time": 283.4985,
          "velocity": 0.968503937007874
        },
        {
          "duration": 0.13888500000001613,
          "durationTicks": 192,
          "midi": 79,
          "name": "G5",
          "ticks": 369792,
          "time": 283.4985,
          "velocity": 0.968503937007874
        },
        {
          "duration": 0.1388849999999593,
          "durationTicks": 192,
          "midi": 66,
          "name": "F#4",
          "ticks": 369984,
          "time": 283.637385,
          "velocity": 0.968503937007874
        },
        {
          "duration": 0.1388849999999593,
          "durationTicks": 192,
          "midi": 78,
          "name": "F#5",
          "ticks": 369984,
          "time": 283.637385,
          "velocity": 0.968503937007874
        },
        {
          "duration": 0.13888500000001613,
          "durationTicks": 192,
          "midi": 67,
          "name": "G4",
          "ticks": 370176,
          "time": 283.77626999999995,
          "velocity": 0.968503937007874
        },
        {
          "duration": 0.13888500000001613,
          "durationTicks": 192,
          "midi": 79,
          "name": "G5",
          "ticks": 370176,
          "time": 283.77626999999995,
          "velocity": 0.968503937007874
        },
        {
          "duration": 0.13888500000001613,
          "durationTicks": 192,
          "midi": 81,
          "name": "A5",
          "ticks": 370368,
          "time": 283.91515499999997,
          "velocity": 0.968503937007874
        },
        {
          "duration": 0.13888500000001613,
          "durationTicks": 192,
          "midi": 81,
          "name": "A5",
          "ticks": 370368,
          "time": 283.91515499999997,
          "velocity": 0.968503937007874
        },
        {
          "duration": 0.1388849999999593,
          "durationTicks": 192,
          "midi": 79,
          "name": "G5",
          "ticks": 370560,
          "time": 284.05404,
          "velocity": 0.968503937007874
        },
        {
          "duration": 0.1388849999999593,
          "durationTicks": 192,
          "midi": 79,
          "name": "G5",
          "ticks": 370560,
          "time": 284.05404,
          "velocity": 0.968503937007874
        },
        {
          "duration": 0.13888500000001613,
          "durationTicks": 192,
          "midi": 77,
          "name": "F5",
          "ticks": 370752,
          "time": 284.19292499999995,
          "velocity": 0.968503937007874
        },
        {
          "duration": 0.13888500000001613,
          "durationTicks": 192,
          "midi": 77,
          "name": "F5",
          "ticks": 370752,
          "time": 284.19292499999995,
          "velocity": 0.968503937007874
        },
        {
          "duration": 0.13888500000001613,
          "durationTicks": 192,
          "midi": 77,
          "name": "F5",
          "ticks": 370944,
          "time": 284.33180999999996,
          "velocity": 0.968503937007874
        },
        {
          "duration": 0.13888500000001613,
          "durationTicks": 192,
          "midi": 77,
          "name": "F5",
          "ticks": 370944,
          "time": 284.33180999999996,
          "velocity": 0.968503937007874
        },
        {
          "duration": 0.13888500000001613,
          "durationTicks": 192,
          "midi": 76,
          "name": "E5",
          "ticks": 371136,
          "time": 284.470695,
          "velocity": 0.968503937007874
        },
        {
          "duration": 0.13888500000001613,
          "durationTicks": 192,
          "midi": 76,
          "name": "E5",
          "ticks": 371136,
          "time": 284.470695,
          "velocity": 0.968503937007874
        },
        {
          "duration": 0.1388849999999593,
          "durationTicks": 192,
          "midi": 74,
          "name": "D5",
          "ticks": 371328,
          "time": 284.60958,
          "velocity": 0.968503937007874
        },
        {
          "duration": 0.1388849999999593,
          "durationTicks": 192,
          "midi": 74,
          "name": "D5",
          "ticks": 371328,
          "time": 284.60958,
          "velocity": 0.968503937007874
        },
        {
          "duration": 0.13888500000001613,
          "durationTicks": 192,
          "midi": 72,
          "name": "C5",
          "ticks": 371520,
          "time": 284.74846499999995,
          "velocity": 0.968503937007874
        },
        {
          "duration": 0.13888500000001613,
          "durationTicks": 192,
          "midi": 72,
          "name": "C5",
          "ticks": 371520,
          "time": 284.74846499999995,
          "velocity": 0.968503937007874
        },
        {
          "duration": 0.13888500000001613,
          "durationTicks": 192,
          "midi": 72,
          "name": "C5",
          "ticks": 371712,
          "time": 284.88734999999997,
          "velocity": 0.968503937007874
        },
        {
          "duration": 0.13888500000001613,
          "durationTicks": 192,
          "midi": 72,
          "name": "C5",
          "ticks": 371712,
          "time": 284.88734999999997,
          "velocity": 0.968503937007874
        },
        {
          "duration": 0.1388849999999593,
          "durationTicks": 192,
          "midi": 71,
          "name": "B4",
          "ticks": 371904,
          "time": 285.026235,
          "velocity": 0.968503937007874
        },
        {
          "duration": 0.1388849999999593,
          "durationTicks": 192,
          "midi": 71,
          "name": "B4",
          "ticks": 371904,
          "time": 285.026235,
          "velocity": 0.968503937007874
        },
        {
          "duration": 0.13888500000001613,
          "durationTicks": 192,
          "midi": 69,
          "name": "A4",
          "ticks": 372096,
          "time": 285.16511999999994,
          "velocity": 0.968503937007874
        },
        {
          "duration": 0.13888500000001613,
          "durationTicks": 192,
          "midi": 69,
          "name": "A4",
          "ticks": 372096,
          "time": 285.16511999999994,
          "velocity": 0.968503937007874
        },
        {
          "duration": 0.13888500000001613,
          "durationTicks": 192,
          "midi": 71,
          "name": "B4",
          "ticks": 372288,
          "time": 285.30400499999996,
          "velocity": 0.968503937007874
        },
        {
          "duration": 0.13888500000001613,
          "durationTicks": 192,
          "midi": 71,
          "name": "B4",
          "ticks": 372288,
          "time": 285.30400499999996,
          "velocity": 0.968503937007874
        },
        {
          "duration": 0.13888500000001613,
          "durationTicks": 192,
          "midi": 74,
          "name": "D5",
          "ticks": 372480,
          "time": 285.44289,
          "velocity": 0.968503937007874
        },
        {
          "duration": 0.13888500000001613,
          "durationTicks": 192,
          "midi": 74,
          "name": "D5",
          "ticks": 372480,
          "time": 285.44289,
          "velocity": 0.968503937007874
        },
        {
          "duration": 0.1388849999999593,
          "durationTicks": 192,
          "midi": 72,
          "name": "C5",
          "ticks": 372672,
          "time": 285.581775,
          "velocity": 0.968503937007874
        },
        {
          "duration": 0.1388849999999593,
          "durationTicks": 192,
          "midi": 72,
          "name": "C5",
          "ticks": 372672,
          "time": 285.581775,
          "velocity": 0.968503937007874
        },
        {
          "duration": 0.13888500000001613,
          "durationTicks": 192,
          "midi": 67,
          "name": "G4",
          "ticks": 372864,
          "time": 285.72065999999995,
          "velocity": 0.968503937007874
        },
        {
          "duration": 0.13888500000001613,
          "durationTicks": 192,
          "midi": 67,
          "name": "G4",
          "ticks": 372864,
          "time": 285.72065999999995,
          "velocity": 0.968503937007874
        },
        {
          "duration": 0.13888500000001613,
          "durationTicks": 192,
          "midi": 64,
          "name": "E4",
          "ticks": 373056,
          "time": 285.85954499999997,
          "velocity": 0.968503937007874
        },
        {
          "duration": 0.13888500000001613,
          "durationTicks": 192,
          "midi": 64,
          "name": "E4",
          "ticks": 373056,
          "time": 285.85954499999997,
          "velocity": 0.968503937007874
        },
        {
          "duration": 0.1388849999999593,
          "durationTicks": 192,
          "midi": 71,
          "name": "B4",
          "ticks": 373248,
          "time": 285.99843,
          "velocity": 0.968503937007874
        },
        {
          "duration": 0.1388849999999593,
          "durationTicks": 192,
          "midi": 71,
          "name": "B4",
          "ticks": 373248,
          "time": 285.99843,
          "velocity": 0.968503937007874
        },
        {
          "duration": 0.13888500000001613,
          "durationTicks": 192,
          "midi": 69,
          "name": "A4",
          "ticks": 373440,
          "time": 286.13731499999994,
          "velocity": 0.968503937007874
        },
        {
          "duration": 0.13888500000001613,
          "durationTicks": 192,
          "midi": 69,
          "name": "A4",
          "ticks": 373440,
          "time": 286.13731499999994,
          "velocity": 0.968503937007874
        },
        {
          "duration": 0.13888500000001613,
          "durationTicks": 192,
          "midi": 65,
          "name": "F4",
          "ticks": 373632,
          "time": 286.27619999999996,
          "velocity": 0.968503937007874
        },
        {
          "duration": 0.13888500000001613,
          "durationTicks": 192,
          "midi": 65,
          "name": "F4",
          "ticks": 373632,
          "time": 286.27619999999996,
          "velocity": 0.968503937007874
        },
        {
          "duration": 0.13888500000001613,
          "durationTicks": 192,
          "midi": 62,
          "name": "D4",
          "ticks": 373824,
          "time": 286.415085,
          "velocity": 0.968503937007874
        },
        {
          "duration": 0.13888500000001613,
          "durationTicks": 192,
          "midi": 62,
          "name": "D4",
          "ticks": 373824,
          "time": 286.415085,
          "velocity": 0.968503937007874
        },
        {
          "duration": 0.1388849999999593,
          "durationTicks": 192,
          "midi": 69,
          "name": "A4",
          "ticks": 374016,
          "time": 286.55397,
          "velocity": 0.968503937007874
        },
        {
          "duration": 0.1388849999999593,
          "durationTicks": 192,
          "midi": 69,
          "name": "A4",
          "ticks": 374016,
          "time": 286.55397,
          "velocity": 0.968503937007874
        },
        {
          "duration": 0.13888500000001613,
          "durationTicks": 192,
          "midi": 67,
          "name": "G4",
          "ticks": 374208,
          "time": 286.69285499999995,
          "velocity": 0.968503937007874
        },
        {
          "duration": 0.13888500000001613,
          "durationTicks": 192,
          "midi": 67,
          "name": "G4",
          "ticks": 374208,
          "time": 286.69285499999995,
          "velocity": 0.968503937007874
        },
        {
          "duration": 0.13888500000001613,
          "durationTicks": 192,
          "midi": 64,
          "name": "E4",
          "ticks": 374400,
          "time": 286.83173999999997,
          "velocity": 0.968503937007874
        },
        {
          "duration": 0.13888500000001613,
          "durationTicks": 192,
          "midi": 64,
          "name": "E4",
          "ticks": 374400,
          "time": 286.83173999999997,
          "velocity": 0.968503937007874
        },
        {
          "duration": 0.1388849999999593,
          "durationTicks": 192,
          "midi": 60,
          "name": "C4",
          "ticks": 374592,
          "time": 286.970625,
          "velocity": 0.968503937007874
        },
        {
          "duration": 0.1388849999999593,
          "durationTicks": 192,
          "midi": 60,
          "name": "C4",
          "ticks": 374592,
          "time": 286.970625,
          "velocity": 0.968503937007874
        },
        {
          "duration": 0.13888500000001613,
          "durationTicks": 192,
          "midi": 55,
          "name": "G3",
          "ticks": 374784,
          "time": 287.10950999999994,
          "velocity": 0.968503937007874
        },
        {
          "duration": 0.13888500000001613,
          "durationTicks": 192,
          "midi": 55,
          "name": "G3",
          "ticks": 374784,
          "time": 287.10950999999994,
          "velocity": 0.968503937007874
        },
        {
          "duration": 0.13888500000001613,
          "durationTicks": 192,
          "midi": 67,
          "name": "G4",
          "ticks": 374976,
          "time": 287.24839499999996,
          "velocity": 0.968503937007874
        },
        {
          "duration": 0.13888500000001613,
          "durationTicks": 192,
          "midi": 67,
          "name": "G4",
          "ticks": 374976,
          "time": 287.24839499999996,
          "velocity": 0.968503937007874
        },
        {
          "duration": 0.13888500000001613,
          "durationTicks": 192,
          "midi": 79,
          "name": "G5",
          "ticks": 375168,
          "time": 287.38728,
          "velocity": 0.968503937007874
        },
        {
          "duration": 0.13888500000001613,
          "durationTicks": 192,
          "midi": 79,
          "name": "G5",
          "ticks": 375168,
          "time": 287.38728,
          "velocity": 0.968503937007874
        },
        {
          "duration": 0.1388849999999593,
          "durationTicks": 192,
          "midi": 79,
          "name": "G5",
          "ticks": 375360,
          "time": 287.526165,
          "velocity": 0.968503937007874
        },
        {
          "duration": 0.1388849999999593,
          "durationTicks": 192,
          "midi": 79,
          "name": "G5",
          "ticks": 375360,
          "time": 287.526165,
          "velocity": 0.968503937007874
        },
        {
          "duration": 1.8055050000000392,
          "durationTicks": 2496,
          "midi": 64,
          "name": "E4",
          "ticks": 375552,
          "time": 287.66504999999995,
          "velocity": 0.968503937007874
        },
        {
          "duration": 1.8055050000000392,
          "durationTicks": 2496,
          "midi": 72,
          "name": "C5",
          "ticks": 375552,
          "time": 287.66504999999995,
          "velocity": 0.968503937007874
        },
        {
          "duration": 0.1388849999999593,
          "durationTicks": 192,
          "midi": 59,
          "name": "B3",
          "ticks": 378048,
          "time": 289.470555,
          "velocity": 0.968503937007874
        },
        {
          "duration": 0.1388849999999593,
          "durationTicks": 192,
          "midi": 74,
          "name": "D5",
          "ticks": 378048,
          "time": 289.470555,
          "velocity": 0.968503937007874
        },
        {
          "duration": 0.13888500000001613,
          "durationTicks": 192,
          "midi": 59,
          "name": "B3",
          "ticks": 378240,
          "time": 289.60943999999995,
          "velocity": 0.968503937007874
        },
        {
          "duration": 0.13888500000001613,
          "durationTicks": 192,
          "midi": 74,
          "name": "D5",
          "ticks": 378240,
          "time": 289.60943999999995,
          "velocity": 0.968503937007874
        },
        {
          "duration": 0.13888500000001613,
          "durationTicks": 192,
          "midi": 59,
          "name": "B3",
          "ticks": 378432,
          "time": 289.74832499999997,
          "velocity": 0.968503937007874
        },
        {
          "duration": 0.13888500000001613,
          "durationTicks": 192,
          "midi": 74,
          "name": "D5",
          "ticks": 378432,
          "time": 289.74832499999997,
          "velocity": 0.968503937007874
        },
        {
          "duration": 1.8055049999999824,
          "durationTicks": 2496,
          "midi": 60,
          "name": "C4",
          "ticks": 378624,
          "time": 289.88721,
          "velocity": 0.968503937007874
        },
        {
          "duration": 1.8055049999999824,
          "durationTicks": 2496,
          "midi": 76,
          "name": "E5",
          "ticks": 378624,
          "time": 289.88721,
          "velocity": 0.968503937007874
        },
        {
          "duration": 0.13888500000001613,
          "durationTicks": 192,
          "midi": 62,
          "name": "D4",
          "ticks": 381120,
          "time": 291.69271499999996,
          "velocity": 0.968503937007874
        },
        {
          "duration": 0.13888500000001613,
          "durationTicks": 192,
          "midi": 71,
          "name": "B4",
          "ticks": 381120,
          "time": 291.69271499999996,
          "velocity": 0.968503937007874
        },
        {
          "duration": 0.13888500000001613,
          "durationTicks": 192,
          "midi": 79,
          "name": "G5",
          "ticks": 381120,
          "time": 291.69271499999996,
          "velocity": 0.968503937007874
        },
        {
          "duration": 0.1388849999999593,
          "durationTicks": 192,
          "midi": 62,
          "name": "D4",
          "ticks": 381312,
          "time": 291.8316,
          "velocity": 0.968503937007874
        },
        {
          "duration": 0.1388849999999593,
          "durationTicks": 192,
          "midi": 71,
          "name": "B4",
          "ticks": 381312,
          "time": 291.8316,
          "velocity": 0.968503937007874
        },
        {
          "duration": 0.1388849999999593,
          "durationTicks": 192,
          "midi": 79,
          "name": "G5",
          "ticks": 381312,
          "time": 291.8316,
          "velocity": 0.968503937007874
        },
        {
          "duration": 0.13888500000001613,
          "durationTicks": 192,
          "midi": 62,
          "name": "D4",
          "ticks": 381504,
          "time": 291.97048499999994,
          "velocity": 0.968503937007874
        },
        {
          "duration": 0.13888500000001613,
          "durationTicks": 192,
          "midi": 71,
          "name": "B4",
          "ticks": 381504,
          "time": 291.97048499999994,
          "velocity": 0.968503937007874
        },
        {
          "duration": 0.13888500000001613,
          "durationTicks": 192,
          "midi": 79,
          "name": "G5",
          "ticks": 381504,
          "time": 291.97048499999994,
          "velocity": 0.968503937007874
        },
        {
          "duration": 0.27777000000003227,
          "durationTicks": 384,
          "midi": 64,
          "name": "E4",
          "ticks": 381696,
          "time": 292.10936999999996,
          "velocity": 0.968503937007874
        },
        {
          "duration": 0.27777000000003227,
          "durationTicks": 384,
          "midi": 72,
          "name": "C5",
          "ticks": 381696,
          "time": 292.10936999999996,
          "velocity": 0.968503937007874
        },
        {
          "duration": 0.27777000000003227,
          "durationTicks": 384,
          "midi": 79,
          "name": "G5",
          "ticks": 381696,
          "time": 292.10936999999996,
          "velocity": 0.968503937007874
        },
        {
          "duration": 0.13888500000001613,
          "durationTicks": 192,
          "midi": 62,
          "name": "D4",
          "ticks": 382656,
          "time": 292.803795,
          "velocity": 0.968503937007874
        },
        {
          "duration": 0.13888500000001613,
          "durationTicks": 192,
          "midi": 71,
          "name": "B4",
          "ticks": 382656,
          "time": 292.803795,
          "velocity": 0.968503937007874
        },
        {
          "duration": 0.13888500000001613,
          "durationTicks": 192,
          "midi": 79,
          "name": "G5",
          "ticks": 382656,
          "time": 292.803795,
          "velocity": 0.968503937007874
        },
        {
          "duration": 0.1388849999999593,
          "durationTicks": 192,
          "midi": 62,
          "name": "D4",
          "ticks": 382848,
          "time": 292.94268,
          "velocity": 0.968503937007874
        },
        {
          "duration": 0.1388849999999593,
          "durationTicks": 192,
          "midi": 71,
          "name": "B4",
          "ticks": 382848,
          "time": 292.94268,
          "velocity": 0.968503937007874
        },
        {
          "duration": 0.1388849999999593,
          "durationTicks": 192,
          "midi": 79,
          "name": "G5",
          "ticks": 382848,
          "time": 292.94268,
          "velocity": 0.968503937007874
        },
        {
          "duration": 0.13888500000001613,
          "durationTicks": 192,
          "midi": 62,
          "name": "D4",
          "ticks": 383040,
          "time": 293.08156499999996,
          "velocity": 0.968503937007874
        },
        {
          "duration": 0.13888500000001613,
          "durationTicks": 192,
          "midi": 71,
          "name": "B4",
          "ticks": 383040,
          "time": 293.08156499999996,
          "velocity": 0.968503937007874
        },
        {
          "duration": 0.13888500000001613,
          "durationTicks": 192,
          "midi": 79,
          "name": "G5",
          "ticks": 383040,
          "time": 293.08156499999996,
          "velocity": 0.968503937007874
        },
        {
          "duration": 0.2777699999999754,
          "durationTicks": 384,
          "midi": 64,
          "name": "E4",
          "ticks": 383232,
          "time": 293.22044999999997,
          "velocity": 0.968503937007874
        },
        {
          "duration": 0.2777699999999754,
          "durationTicks": 384,
          "midi": 72,
          "name": "C5",
          "ticks": 383232,
          "time": 293.22044999999997,
          "velocity": 0.968503937007874
        },
        {
          "duration": 0.2777699999999754,
          "durationTicks": 384,
          "midi": 79,
          "name": "G5",
          "ticks": 383232,
          "time": 293.22044999999997,
          "velocity": 0.968503937007874
        },
        {
          "duration": 0.1388849999999593,
          "durationTicks": 192,
          "midi": 71,
          "name": "B4",
          "ticks": 384192,
          "time": 293.914875,
          "velocity": 0.968503937007874
        },
        {
          "duration": 0.1388849999999593,
          "durationTicks": 192,
          "midi": 79,
          "name": "G5",
          "ticks": 384192,
          "time": 293.914875,
          "velocity": 0.968503937007874
        },
        {
          "duration": 0.1388849999999593,
          "durationTicks": 192,
          "midi": 83,
          "name": "B5",
          "ticks": 384192,
          "time": 293.914875,
          "velocity": 0.968503937007874
        },
        {
          "duration": 0.13888500000001613,
          "durationTicks": 192,
          "midi": 71,
          "name": "B4",
          "ticks": 384384,
          "time": 294.05375999999995,
          "velocity": 0.968503937007874
        },
        {
          "duration": 0.13888500000001613,
          "durationTicks": 192,
          "midi": 79,
          "name": "G5",
          "ticks": 384384,
          "time": 294.05375999999995,
          "velocity": 0.968503937007874
        },
        {
          "duration": 0.13888500000001613,
          "durationTicks": 192,
          "midi": 83,
          "name": "B5",
          "ticks": 384384,
          "time": 294.05375999999995,
          "velocity": 0.968503937007874
        },
        {
          "duration": 0.13888500000001613,
          "durationTicks": 192,
          "midi": 71,
          "name": "B4",
          "ticks": 384576,
          "time": 294.19264499999997,
          "velocity": 0.968503937007874
        },
        {
          "duration": 0.13888500000001613,
          "durationTicks": 192,
          "midi": 79,
          "name": "G5",
          "ticks": 384576,
          "time": 294.19264499999997,
          "velocity": 0.968503937007874
        },
        {
          "duration": 0.13888500000001613,
          "durationTicks": 192,
          "midi": 83,
          "name": "B5",
          "ticks": 384576,
          "time": 294.19264499999997,
          "velocity": 0.968503937007874
        },
        {
          "duration": 0.694424999999967,
          "durationTicks": 960,
          "midi": 76,
          "name": "E5",
          "ticks": 384768,
          "time": 294.33153,
          "velocity": 0.968503937007874
        },
        {
          "duration": 0.694424999999967,
          "durationTicks": 960,
          "midi": 84,
          "name": "C6",
          "ticks": 384768,
          "time": 294.33153,
          "velocity": 0.905511811023622
        },
        {
          "duration": 0.13888500000001613,
          "durationTicks": 192,
          "midi": 76,
          "name": "E5",
          "ticks": 385728,
          "time": 295.02595499999995,
          "velocity": 0.968503937007874
        },
        {
          "duration": 0.13888500000001613,
          "durationTicks": 192,
          "midi": 84,
          "name": "C6",
          "ticks": 385728,
          "time": 295.02595499999995,
          "velocity": 0.905511811023622
        },
        {
          "duration": 0.13888500000001613,
          "durationTicks": 192,
          "midi": 76,
          "name": "E5",
          "ticks": 385920,
          "time": 295.16483999999997,
          "velocity": 0.968503937007874
        },
        {
          "duration": 0.13888500000001613,
          "durationTicks": 192,
          "midi": 84,
          "name": "C6",
          "ticks": 385920,
          "time": 295.16483999999997,
          "velocity": 0.905511811023622
        },
        {
          "duration": 0.1388849999999593,
          "durationTicks": 192,
          "midi": 76,
          "name": "E5",
          "ticks": 386112,
          "time": 295.303725,
          "velocity": 0.968503937007874
        },
        {
          "duration": 0.1388849999999593,
          "durationTicks": 192,
          "midi": 84,
          "name": "C6",
          "ticks": 386112,
          "time": 295.303725,
          "velocity": 0.905511811023622
        },
        {
          "duration": 0.6944250000000238,
          "durationTicks": 960,
          "midi": 72,
          "name": "C5",
          "ticks": 386304,
          "time": 295.44260999999995,
          "velocity": 0.968503937007874
        },
        {
          "duration": 0.6944250000000238,
          "durationTicks": 960,
          "midi": 77,
          "name": "F5",
          "ticks": 386304,
          "time": 295.44260999999995,
          "velocity": 0.968503937007874
        },
        {
          "duration": 0.6944250000000238,
          "durationTicks": 960,
          "midi": 84,
          "name": "C6",
          "ticks": 386304,
          "time": 295.44260999999995,
          "velocity": 0.905511811023622
        },
        {
          "duration": 0.13888500000001613,
          "durationTicks": 192,
          "midi": 72,
          "name": "C5",
          "ticks": 387264,
          "time": 296.13703499999997,
          "velocity": 0.968503937007874
        },
        {
          "duration": 0.13888500000001613,
          "durationTicks": 192,
          "midi": 77,
          "name": "F5",
          "ticks": 387264,
          "time": 296.13703499999997,
          "velocity": 0.968503937007874
        },
        {
          "duration": 0.13888500000001613,
          "durationTicks": 192,
          "midi": 84,
          "name": "C6",
          "ticks": 387264,
          "time": 296.13703499999997,
          "velocity": 0.905511811023622
        },
        {
          "duration": 0.1388849999999593,
          "durationTicks": 192,
          "midi": 72,
          "name": "C5",
          "ticks": 387456,
          "time": 296.27592,
          "velocity": 0.968503937007874
        },
        {
          "duration": 0.1388849999999593,
          "durationTicks": 192,
          "midi": 77,
          "name": "F5",
          "ticks": 387456,
          "time": 296.27592,
          "velocity": 0.968503937007874
        },
        {
          "duration": 0.1388849999999593,
          "durationTicks": 192,
          "midi": 84,
          "name": "C6",
          "ticks": 387456,
          "time": 296.27592,
          "velocity": 0.905511811023622
        },
        {
          "duration": 0.13888500000001613,
          "durationTicks": 192,
          "midi": 72,
          "name": "C5",
          "ticks": 387648,
          "time": 296.41480499999994,
          "velocity": 0.968503937007874
        },
        {
          "duration": 0.13888500000001613,
          "durationTicks": 192,
          "midi": 77,
          "name": "F5",
          "ticks": 387648,
          "time": 296.41480499999994,
          "velocity": 0.968503937007874
        },
        {
          "duration": 0.13888500000001613,
          "durationTicks": 192,
          "midi": 84,
          "name": "C6",
          "ticks": 387648,
          "time": 296.41480499999994,
          "velocity": 0.905511811023622
        },
        {
          "duration": 0.6944250000000238,
          "durationTicks": 960,
          "midi": 72,
          "name": "C5",
          "ticks": 387840,
          "time": 296.55368999999996,
          "velocity": 0.968503937007874
        },
        {
          "duration": 0.6944250000000238,
          "durationTicks": 960,
          "midi": 79,
          "name": "G5",
          "ticks": 387840,
          "time": 296.55368999999996,
          "velocity": 0.968503937007874
        },
        {
          "duration": 0.6944250000000238,
          "durationTicks": 960,
          "midi": 84,
          "name": "C6",
          "ticks": 387840,
          "time": 296.55368999999996,
          "velocity": 0.905511811023622
        },
        {
          "duration": 0.1388849999999593,
          "durationTicks": 192,
          "midi": 72,
          "name": "C5",
          "ticks": 388800,
          "time": 297.248115,
          "velocity": 0.968503937007874
        },
        {
          "duration": 0.1388849999999593,
          "durationTicks": 192,
          "midi": 79,
          "name": "G5",
          "ticks": 388800,
          "time": 297.248115,
          "velocity": 0.968503937007874
        },
        {
          "duration": 0.1388849999999593,
          "durationTicks": 192,
          "midi": 84,
          "name": "C6",
          "ticks": 388800,
          "time": 297.248115,
          "velocity": 0.905511811023622
        },
        {
          "duration": 0.13888500000001613,
          "durationTicks": 192,
          "midi": 72,
          "name": "C5",
          "ticks": 388992,
          "time": 297.38699999999994,
          "velocity": 0.968503937007874
        },
        {
          "duration": 0.13888500000001613,
          "durationTicks": 192,
          "midi": 79,
          "name": "G5",
          "ticks": 388992,
          "time": 297.38699999999994,
          "velocity": 0.968503937007874
        },
        {
          "duration": 0.13888500000001613,
          "durationTicks": 192,
          "midi": 84,
          "name": "C6",
          "ticks": 388992,
          "time": 297.38699999999994,
          "velocity": 0.905511811023622
        },
        {
          "duration": 0.13888500000001613,
          "durationTicks": 192,
          "midi": 72,
          "name": "C5",
          "ticks": 389184,
          "time": 297.52588499999996,
          "velocity": 0.968503937007874
        },
        {
          "duration": 0.13888500000001613,
          "durationTicks": 192,
          "midi": 79,
          "name": "G5",
          "ticks": 389184,
          "time": 297.52588499999996,
          "velocity": 0.968503937007874
        },
        {
          "duration": 0.13888500000001613,
          "durationTicks": 192,
          "midi": 84,
          "name": "C6",
          "ticks": 389184,
          "time": 297.52588499999996,
          "velocity": 0.905511811023622
        },
        {
          "duration": 0.694424999999967,
          "durationTicks": 960,
          "midi": 72,
          "name": "C5",
          "ticks": 389376,
          "time": 297.66477,
          "velocity": 0.968503937007874
        },
        {
          "duration": 0.694424999999967,
          "durationTicks": 960,
          "midi": 80,
          "name": "G#5",
          "ticks": 389376,
          "time": 297.66477,
          "velocity": 0.968503937007874
        },
        {
          "duration": 0.694424999999967,
          "durationTicks": 960,
          "midi": 84,
          "name": "C6",
          "ticks": 389376,
          "time": 297.66477,
          "velocity": 0.905511811023622
        },
        {
          "duration": 0.13888500000001613,
          "durationTicks": 192,
          "midi": 72,
          "name": "C5",
          "ticks": 390336,
          "time": 298.35919499999994,
          "velocity": 0.968503937007874
        },
        {
          "duration": 0.13888500000001613,
          "durationTicks": 192,
          "midi": 80,
          "name": "G#5",
          "ticks": 390336,
          "time": 298.35919499999994,
          "velocity": 0.968503937007874
        },
        {
          "duration": 0.13888500000001613,
          "durationTicks": 192,
          "midi": 84,
          "name": "C6",
          "ticks": 390336,
          "time": 298.35919499999994,
          "velocity": 0.905511811023622
        },
        {
          "duration": 0.13888500000001613,
          "durationTicks": 192,
          "midi": 72,
          "name": "C5",
          "ticks": 390528,
          "time": 298.49807999999996,
          "velocity": 0.968503937007874
        },
        {
          "duration": 0.13888500000001613,
          "durationTicks": 192,
          "midi": 80,
          "name": "G#5",
          "ticks": 390528,
          "time": 298.49807999999996,
          "velocity": 0.968503937007874
        },
        {
          "duration": 0.13888500000001613,
          "durationTicks": 192,
          "midi": 84,
          "name": "C6",
          "ticks": 390528,
          "time": 298.49807999999996,
          "velocity": 0.905511811023622
        },
        {
          "duration": 0.13888500000001613,
          "durationTicks": 192,
          "midi": 72,
          "name": "C5",
          "ticks": 390720,
          "time": 298.636965,
          "velocity": 0.968503937007874
        },
        {
          "duration": 0.13888500000001613,
          "durationTicks": 192,
          "midi": 80,
          "name": "G#5",
          "ticks": 390720,
          "time": 298.636965,
          "velocity": 0.968503937007874
        },
        {
          "duration": 0.13888500000001613,
          "durationTicks": 192,
          "midi": 84,
          "name": "C6",
          "ticks": 390720,
          "time": 298.636965,
          "velocity": 0.905511811023622
        },
        {
          "duration": 0.1388849999999593,
          "durationTicks": 192,
          "midi": 73,
          "name": "C#5",
          "ticks": 390912,
          "time": 298.77585,
          "velocity": 0.968503937007874
        },
        {
          "duration": 0.1388849999999593,
          "durationTicks": 192,
          "midi": 85,
          "name": "C#6",
          "ticks": 390912,
          "time": 298.77585,
          "velocity": 0.968503937007874
        },
        {
          "duration": 0.13888500000001613,
          "durationTicks": 192,
          "midi": 73,
          "name": "C#5",
          "ticks": 391104,
          "time": 298.91473499999995,
          "velocity": 0.968503937007874
        },
        {
          "duration": 0.13888500000001613,
          "durationTicks": 192,
          "midi": 85,
          "name": "C#6",
          "ticks": 391104,
          "time": 298.91473499999995,
          "velocity": 0.968503937007874
        },
        {
          "duration": 0.13888500000001613,
          "durationTicks": 192,
          "midi": 73,
          "name": "C#5",
          "ticks": 391296,
          "time": 299.05361999999997,
          "velocity": 0.968503937007874
        },
        {
          "duration": 0.13888500000001613,
          "durationTicks": 192,
          "midi": 85,
          "name": "C#6",
          "ticks": 391296,
          "time": 299.05361999999997,
          "velocity": 0.968503937007874
        },
        {
          "duration": 0.1388849999999593,
          "durationTicks": 192,
          "midi": 73,
          "name": "C#5",
          "ticks": 391488,
          "time": 299.192505,
          "velocity": 0.968503937007874
        },
        {
          "duration": 0.1388849999999593,
          "durationTicks": 192,
          "midi": 85,
          "name": "C#6",
          "ticks": 391488,
          "time": 299.192505,
          "velocity": 0.968503937007874
        },
        {
          "duration": 0.13888500000001613,
          "durationTicks": 192,
          "midi": 73,
          "name": "C#5",
          "ticks": 391680,
          "time": 299.33138999999994,
          "velocity": 0.968503937007874
        },
        {
          "duration": 0.13888500000001613,
          "durationTicks": 192,
          "midi": 85,
          "name": "C#6",
          "ticks": 391680,
          "time": 299.33138999999994,
          "velocity": 0.968503937007874
        },
        {
          "duration": 0.13888500000001613,
          "durationTicks": 192,
          "midi": 73,
          "name": "C#5",
          "ticks": 391872,
          "time": 299.47027499999996,
          "velocity": 0.968503937007874
        },
        {
          "duration": 0.13888500000001613,
          "durationTicks": 192,
          "midi": 85,
          "name": "C#6",
          "ticks": 391872,
          "time": 299.47027499999996,
          "velocity": 0.968503937007874
        },
        {
          "duration": 0.13888500000001613,
          "durationTicks": 192,
          "midi": 73,
          "name": "C#5",
          "ticks": 392064,
          "time": 299.60916,
          "velocity": 0.968503937007874
        },
        {
          "duration": 0.13888500000001613,
          "durationTicks": 192,
          "midi": 85,
          "name": "C#6",
          "ticks": 392064,
          "time": 299.60916,
          "velocity": 0.968503937007874
        },
        {
          "duration": 0.1388849999999593,
          "durationTicks": 192,
          "midi": 73,
          "name": "C#5",
          "ticks": 392256,
          "time": 299.748045,
          "velocity": 0.968503937007874
        },
        {
          "duration": 0.1388849999999593,
          "durationTicks": 192,
          "midi": 85,
          "name": "C#6",
          "ticks": 392256,
          "time": 299.748045,
          "velocity": 0.968503937007874
        },
        {
          "duration": 0.13888500000001613,
          "durationTicks": 192,
          "midi": 73,
          "name": "C#5",
          "ticks": 392448,
          "time": 299.88692999999995,
          "velocity": 0.968503937007874
        },
        {
          "duration": 0.13888500000001613,
          "durationTicks": 192,
          "midi": 85,
          "name": "C#6",
          "ticks": 392448,
          "time": 299.88692999999995,
          "velocity": 0.968503937007874
        },
        {
          "duration": 0.13888500000001613,
          "durationTicks": 192,
          "midi": 73,
          "name": "C#5",
          "ticks": 392640,
          "time": 300.02581499999997,
          "velocity": 0.968503937007874
        },
        {
          "duration": 0.13888500000001613,
          "durationTicks": 192,
          "midi": 85,
          "name": "C#6",
          "ticks": 392640,
          "time": 300.02581499999997,
          "velocity": 0.968503937007874
        },
        {
          "duration": 0.13888500000001613,
          "durationTicks": 192,
          "midi": 73,
          "name": "C#5",
          "ticks": 392832,
          "time": 300.1647,
          "velocity": 0.968503937007874
        },
        {
          "duration": 0.13888500000001613,
          "durationTicks": 192,
          "midi": 85,
          "name": "C#6",
          "ticks": 392832,
          "time": 300.1647,
          "velocity": 0.968503937007874
        },
        {
          "duration": 0.1388849999999593,
          "durationTicks": 192,
          "midi": 73,
          "name": "C#5",
          "ticks": 393024,
          "time": 300.303585,
          "velocity": 0.968503937007874
        },
        {
          "duration": 0.1388849999999593,
          "durationTicks": 192,
          "midi": 85,
          "name": "C#6",
          "ticks": 393024,
          "time": 300.303585,
          "velocity": 0.968503937007874
        },
        {
          "duration": 0.13888500000001613,
          "durationTicks": 192,
          "midi": 73,
          "name": "C#5",
          "ticks": 393216,
          "time": 300.44246999999996,
          "velocity": 0.968503937007874
        },
        {
          "duration": 0.13888500000001613,
          "durationTicks": 192,
          "midi": 85,
          "name": "C#6",
          "ticks": 393216,
          "time": 300.44246999999996,
          "velocity": 0.968503937007874
        },
        {
          "duration": 0.13888500000001613,
          "durationTicks": 192,
          "midi": 73,
          "name": "C#5",
          "ticks": 393408,
          "time": 300.581355,
          "velocity": 0.968503937007874
        },
        {
          "duration": 0.13888500000001613,
          "durationTicks": 192,
          "midi": 85,
          "name": "C#6",
          "ticks": 393408,
          "time": 300.581355,
          "velocity": 0.968503937007874
        },
        {
          "duration": 0.1388849999999593,
          "durationTicks": 192,
          "midi": 73,
          "name": "C#5",
          "ticks": 393600,
          "time": 300.72024,
          "velocity": 0.968503937007874
        },
        {
          "duration": 0.1388849999999593,
          "durationTicks": 192,
          "midi": 85,
          "name": "C#6",
          "ticks": 393600,
          "time": 300.72024,
          "velocity": 0.968503937007874
        },
        {
          "duration": 0.13888500000001613,
          "durationTicks": 192,
          "midi": 73,
          "name": "C#5",
          "ticks": 393792,
          "time": 300.85912499999995,
          "velocity": 0.968503937007874
        },
        {
          "duration": 0.13888500000001613,
          "durationTicks": 192,
          "midi": 85,
          "name": "C#6",
          "ticks": 393792,
          "time": 300.85912499999995,
          "velocity": 0.968503937007874
        },
        {
          "duration": 0.2777699999999754,
          "durationTicks": 384,
          "midi": 73,
          "name": "C#5",
          "ticks": 393984,
          "time": 300.99800999999997,
          "velocity": 0.968503937007874
        },
        {
          "duration": 0.2777699999999754,
          "durationTicks": 384,
          "midi": 85,
          "name": "C#6",
          "ticks": 393984,
          "time": 300.99800999999997,
          "velocity": 0.968503937007874
        },
        {
          "duration": 0.13888500000001613,
          "durationTicks": 192,
          "midi": 75,
          "name": "D#5",
          "ticks": 397248,
          "time": 303.35905499999996,
          "velocity": 0.968503937007874
        },
        {
          "duration": 0.13888500000001613,
          "durationTicks": 192,
          "midi": 84,
          "name": "C6",
          "ticks": 397248,
          "time": 303.35905499999996,
          "velocity": 0.968503937007874
        },
        {
          "duration": 0.13888500000001613,
          "durationTicks": 192,
          "midi": 75,
          "name": "D#5",
          "ticks": 397248,
          "time": 303.35905499999996,
          "velocity": 0.968503937007874
        },
        {
          "duration": 0.13888500000001613,
          "durationTicks": 192,
          "midi": 87,
          "name": "D#6",
          "ticks": 397248,
          "time": 303.35905499999996,
          "velocity": 0.968503937007874
        },
        {
          "duration": 0.13888500000001613,
          "durationTicks": 192,
          "midi": 75,
          "name": "D#5",
          "ticks": 397440,
          "time": 303.49793999999997,
          "velocity": 0.968503937007874
        },
        {
          "duration": 0.13888500000001613,
          "durationTicks": 192,
          "midi": 84,
          "name": "C6",
          "ticks": 397440,
          "time": 303.49793999999997,
          "velocity": 0.968503937007874
        },
        {
          "duration": 0.13888500000001613,
          "durationTicks": 192,
          "midi": 75,
          "name": "D#5",
          "ticks": 397440,
          "time": 303.49793999999997,
          "velocity": 0.968503937007874
        },
        {
          "duration": 0.13888500000001613,
          "durationTicks": 192,
          "midi": 87,
          "name": "D#6",
          "ticks": 397440,
          "time": 303.49793999999997,
          "velocity": 0.968503937007874
        },
        {
          "duration": 0.1388849999999593,
          "durationTicks": 192,
          "midi": 75,
          "name": "D#5",
          "ticks": 397632,
          "time": 303.636825,
          "velocity": 0.968503937007874
        },
        {
          "duration": 0.1388849999999593,
          "durationTicks": 192,
          "midi": 84,
          "name": "C6",
          "ticks": 397632,
          "time": 303.636825,
          "velocity": 0.968503937007874
        },
        {
          "duration": 0.1388849999999593,
          "durationTicks": 192,
          "midi": 75,
          "name": "D#5",
          "ticks": 397632,
          "time": 303.636825,
          "velocity": 0.968503937007874
        },
        {
          "duration": 0.1388849999999593,
          "durationTicks": 192,
          "midi": 87,
          "name": "D#6",
          "ticks": 397632,
          "time": 303.636825,
          "velocity": 0.968503937007874
        },
        {
          "duration": 0.13888500000001613,
          "durationTicks": 192,
          "midi": 75,
          "name": "D#5",
          "ticks": 397824,
          "time": 303.77570999999995,
          "velocity": 0.968503937007874
        },
        {
          "duration": 0.13888500000001613,
          "durationTicks": 192,
          "midi": 84,
          "name": "C6",
          "ticks": 397824,
          "time": 303.77570999999995,
          "velocity": 0.968503937007874
        },
        {
          "duration": 0.13888500000001613,
          "durationTicks": 192,
          "midi": 75,
          "name": "D#5",
          "ticks": 397824,
          "time": 303.77570999999995,
          "velocity": 0.968503937007874
        },
        {
          "duration": 0.13888500000001613,
          "durationTicks": 192,
          "midi": 87,
          "name": "D#6",
          "ticks": 397824,
          "time": 303.77570999999995,
          "velocity": 0.968503937007874
        },
        {
          "duration": 0.13888500000001613,
          "durationTicks": 192,
          "midi": 75,
          "name": "D#5",
          "ticks": 398016,
          "time": 303.91459499999996,
          "velocity": 0.968503937007874
        },
        {
          "duration": 0.13888500000001613,
          "durationTicks": 192,
          "midi": 84,
          "name": "C6",
          "ticks": 398016,
          "time": 303.91459499999996,
          "velocity": 0.968503937007874
        },
        {
          "duration": 0.13888500000001613,
          "durationTicks": 192,
          "midi": 75,
          "name": "D#5",
          "ticks": 398016,
          "time": 303.91459499999996,
          "velocity": 0.968503937007874
        },
        {
          "duration": 0.13888500000001613,
          "durationTicks": 192,
          "midi": 87,
          "name": "D#6",
          "ticks": 398016,
          "time": 303.91459499999996,
          "velocity": 0.968503937007874
        },
        {
          "duration": 0.13888500000001613,
          "durationTicks": 192,
          "midi": 75,
          "name": "D#5",
          "ticks": 398208,
          "time": 304.05348,
          "velocity": 0.968503937007874
        },
        {
          "duration": 0.13888500000001613,
          "durationTicks": 192,
          "midi": 84,
          "name": "C6",
          "ticks": 398208,
          "time": 304.05348,
          "velocity": 0.968503937007874
        },
        {
          "duration": 0.13888500000001613,
          "durationTicks": 192,
          "midi": 75,
          "name": "D#5",
          "ticks": 398208,
          "time": 304.05348,
          "velocity": 0.968503937007874
        },
        {
          "duration": 0.13888500000001613,
          "durationTicks": 192,
          "midi": 87,
          "name": "D#6",
          "ticks": 398208,
          "time": 304.05348,
          "velocity": 0.968503937007874
        },
        {
          "duration": 0.1388849999999593,
          "durationTicks": 192,
          "midi": 75,
          "name": "D#5",
          "ticks": 398400,
          "time": 304.192365,
          "velocity": 0.968503937007874
        },
        {
          "duration": 0.1388849999999593,
          "durationTicks": 192,
          "midi": 84,
          "name": "C6",
          "ticks": 398400,
          "time": 304.192365,
          "velocity": 0.968503937007874
        },
        {
          "duration": 0.1388849999999593,
          "durationTicks": 192,
          "midi": 75,
          "name": "D#5",
          "ticks": 398400,
          "time": 304.192365,
          "velocity": 0.968503937007874
        },
        {
          "duration": 0.1388849999999593,
          "durationTicks": 192,
          "midi": 87,
          "name": "D#6",
          "ticks": 398400,
          "time": 304.192365,
          "velocity": 0.968503937007874
        },
        {
          "duration": 0.13888500000001613,
          "durationTicks": 192,
          "midi": 75,
          "name": "D#5",
          "ticks": 398592,
          "time": 304.33124999999995,
          "velocity": 0.968503937007874
        },
        {
          "duration": 0.13888500000001613,
          "durationTicks": 192,
          "midi": 84,
          "name": "C6",
          "ticks": 398592,
          "time": 304.33124999999995,
          "velocity": 0.968503937007874
        },
        {
          "duration": 0.13888500000001613,
          "durationTicks": 192,
          "midi": 75,
          "name": "D#5",
          "ticks": 398592,
          "time": 304.33124999999995,
          "velocity": 0.968503937007874
        },
        {
          "duration": 0.13888500000001613,
          "durationTicks": 192,
          "midi": 87,
          "name": "D#6",
          "ticks": 398592,
          "time": 304.33124999999995,
          "velocity": 0.968503937007874
        },
        {
          "duration": 0.13888500000001613,
          "durationTicks": 192,
          "midi": 75,
          "name": "D#5",
          "ticks": 398784,
          "time": 304.47013499999997,
          "velocity": 0.968503937007874
        },
        {
          "duration": 0.13888500000001613,
          "durationTicks": 192,
          "midi": 84,
          "name": "C6",
          "ticks": 398784,
          "time": 304.47013499999997,
          "velocity": 0.968503937007874
        },
        {
          "duration": 0.13888500000001613,
          "durationTicks": 192,
          "midi": 75,
          "name": "D#5",
          "ticks": 398784,
          "time": 304.47013499999997,
          "velocity": 0.968503937007874
        },
        {
          "duration": 0.13888500000001613,
          "durationTicks": 192,
          "midi": 87,
          "name": "D#6",
          "ticks": 398784,
          "time": 304.47013499999997,
          "velocity": 0.968503937007874
        },
        {
          "duration": 0.1388849999999593,
          "durationTicks": 192,
          "midi": 75,
          "name": "D#5",
          "ticks": 398976,
          "time": 304.60902,
          "velocity": 0.968503937007874
        },
        {
          "duration": 0.1388849999999593,
          "durationTicks": 192,
          "midi": 84,
          "name": "C6",
          "ticks": 398976,
          "time": 304.60902,
          "velocity": 0.968503937007874
        },
        {
          "duration": 0.1388849999999593,
          "durationTicks": 192,
          "midi": 75,
          "name": "D#5",
          "ticks": 398976,
          "time": 304.60902,
          "velocity": 0.968503937007874
        },
        {
          "duration": 0.1388849999999593,
          "durationTicks": 192,
          "midi": 87,
          "name": "D#6",
          "ticks": 398976,
          "time": 304.60902,
          "velocity": 0.968503937007874
        },
        {
          "duration": 0.13888500000001613,
          "durationTicks": 192,
          "midi": 75,
          "name": "D#5",
          "ticks": 399168,
          "time": 304.74790499999995,
          "velocity": 0.968503937007874
        },
        {
          "duration": 0.13888500000001613,
          "durationTicks": 192,
          "midi": 84,
          "name": "C6",
          "ticks": 399168,
          "time": 304.74790499999995,
          "velocity": 0.968503937007874
        },
        {
          "duration": 0.13888500000001613,
          "durationTicks": 192,
          "midi": 75,
          "name": "D#5",
          "ticks": 399168,
          "time": 304.74790499999995,
          "velocity": 0.968503937007874
        },
        {
          "duration": 0.13888500000001613,
          "durationTicks": 192,
          "midi": 87,
          "name": "D#6",
          "ticks": 399168,
          "time": 304.74790499999995,
          "velocity": 0.968503937007874
        },
        {
          "duration": 0.13888500000001613,
          "durationTicks": 192,
          "midi": 75,
          "name": "D#5",
          "ticks": 399360,
          "time": 304.88678999999996,
          "velocity": 0.968503937007874
        },
        {
          "duration": 0.13888500000001613,
          "durationTicks": 192,
          "midi": 84,
          "name": "C6",
          "ticks": 399360,
          "time": 304.88678999999996,
          "velocity": 0.968503937007874
        },
        {
          "duration": 0.13888500000001613,
          "durationTicks": 192,
          "midi": 75,
          "name": "D#5",
          "ticks": 399360,
          "time": 304.88678999999996,
          "velocity": 0.968503937007874
        },
        {
          "duration": 0.13888500000001613,
          "durationTicks": 192,
          "midi": 87,
          "name": "D#6",
          "ticks": 399360,
          "time": 304.88678999999996,
          "velocity": 0.968503937007874
        },
        {
          "duration": 0.13888500000001613,
          "durationTicks": 192,
          "midi": 75,
          "name": "D#5",
          "ticks": 399552,
          "time": 305.025675,
          "velocity": 0.968503937007874
        },
        {
          "duration": 0.13888500000001613,
          "durationTicks": 192,
          "midi": 84,
          "name": "C6",
          "ticks": 399552,
          "time": 305.025675,
          "velocity": 0.968503937007874
        },
        {
          "duration": 0.13888500000001613,
          "durationTicks": 192,
          "midi": 75,
          "name": "D#5",
          "ticks": 399552,
          "time": 305.025675,
          "velocity": 0.968503937007874
        },
        {
          "duration": 0.13888500000001613,
          "durationTicks": 192,
          "midi": 87,
          "name": "D#6",
          "ticks": 399552,
          "time": 305.025675,
          "velocity": 0.968503937007874
        },
        {
          "duration": 0.1388849999999593,
          "durationTicks": 192,
          "midi": 75,
          "name": "D#5",
          "ticks": 399744,
          "time": 305.16456,
          "velocity": 0.968503937007874
        },
        {
          "duration": 0.1388849999999593,
          "durationTicks": 192,
          "midi": 84,
          "name": "C6",
          "ticks": 399744,
          "time": 305.16456,
          "velocity": 0.968503937007874
        },
        {
          "duration": 0.1388849999999593,
          "durationTicks": 192,
          "midi": 75,
          "name": "D#5",
          "ticks": 399744,
          "time": 305.16456,
          "velocity": 0.968503937007874
        },
        {
          "duration": 0.1388849999999593,
          "durationTicks": 192,
          "midi": 87,
          "name": "D#6",
          "ticks": 399744,
          "time": 305.16456,
          "velocity": 0.968503937007874
        },
        {
          "duration": 0.13888500000001613,
          "durationTicks": 192,
          "midi": 75,
          "name": "D#5",
          "ticks": 399936,
          "time": 305.30344499999995,
          "velocity": 0.968503937007874
        },
        {
          "duration": 0.13888500000001613,
          "durationTicks": 192,
          "midi": 84,
          "name": "C6",
          "ticks": 399936,
          "time": 305.30344499999995,
          "velocity": 0.968503937007874
        },
        {
          "duration": 0.13888500000001613,
          "durationTicks": 192,
          "midi": 75,
          "name": "D#5",
          "ticks": 399936,
          "time": 305.30344499999995,
          "velocity": 0.968503937007874
        },
        {
          "duration": 0.13888500000001613,
          "durationTicks": 192,
          "midi": 87,
          "name": "D#6",
          "ticks": 399936,
          "time": 305.30344499999995,
          "velocity": 0.968503937007874
        },
        {
          "duration": 0.13888500000001613,
          "durationTicks": 192,
          "midi": 75,
          "name": "D#5",
          "ticks": 400128,
          "time": 305.44232999999997,
          "velocity": 0.968503937007874
        },
        {
          "duration": 0.13888500000001613,
          "durationTicks": 192,
          "midi": 84,
          "name": "C6",
          "ticks": 400128,
          "time": 305.44232999999997,
          "velocity": 0.968503937007874
        },
        {
          "duration": 0.13888500000001613,
          "durationTicks": 192,
          "midi": 75,
          "name": "D#5",
          "ticks": 400128,
          "time": 305.44232999999997,
          "velocity": 0.968503937007874
        },
        {
          "duration": 0.13888500000001613,
          "durationTicks": 192,
          "midi": 87,
          "name": "D#6",
          "ticks": 400128,
          "time": 305.44232999999997,
          "velocity": 0.968503937007874
        },
        {
          "duration": 0.1388849999999593,
          "durationTicks": 192,
          "midi": 75,
          "name": "D#5",
          "ticks": 400320,
          "time": 305.581215,
          "velocity": 0.968503937007874
        },
        {
          "duration": 0.1388849999999593,
          "durationTicks": 192,
          "midi": 84,
          "name": "C6",
          "ticks": 400320,
          "time": 305.581215,
          "velocity": 0.968503937007874
        },
        {
          "duration": 0.1388849999999593,
          "durationTicks": 192,
          "midi": 75,
          "name": "D#5",
          "ticks": 400320,
          "time": 305.581215,
          "velocity": 0.968503937007874
        },
        {
          "duration": 0.1388849999999593,
          "durationTicks": 192,
          "midi": 87,
          "name": "D#6",
          "ticks": 400320,
          "time": 305.581215,
          "velocity": 0.968503937007874
        },
        {
          "duration": 0.13888500000001613,
          "durationTicks": 192,
          "midi": 75,
          "name": "D#5",
          "ticks": 400512,
          "time": 305.72009999999995,
          "velocity": 0.968503937007874
        },
        {
          "duration": 0.13888500000001613,
          "durationTicks": 192,
          "midi": 84,
          "name": "C6",
          "ticks": 400512,
          "time": 305.72009999999995,
          "velocity": 0.968503937007874
        },
        {
          "duration": 0.13888500000001613,
          "durationTicks": 192,
          "midi": 75,
          "name": "D#5",
          "ticks": 400512,
          "time": 305.72009999999995,
          "velocity": 0.968503937007874
        },
        {
          "duration": 0.13888500000001613,
          "durationTicks": 192,
          "midi": 87,
          "name": "D#6",
          "ticks": 400512,
          "time": 305.72009999999995,
          "velocity": 0.968503937007874
        },
        {
          "duration": 0.13888500000001613,
          "durationTicks": 192,
          "midi": 75,
          "name": "D#5",
          "ticks": 400704,
          "time": 305.85898499999996,
          "velocity": 0.968503937007874
        },
        {
          "duration": 0.13888500000001613,
          "durationTicks": 192,
          "midi": 84,
          "name": "C6",
          "ticks": 400704,
          "time": 305.85898499999996,
          "velocity": 0.968503937007874
        },
        {
          "duration": 0.13888500000001613,
          "durationTicks": 192,
          "midi": 75,
          "name": "D#5",
          "ticks": 400704,
          "time": 305.85898499999996,
          "velocity": 0.968503937007874
        },
        {
          "duration": 0.13888500000001613,
          "durationTicks": 192,
          "midi": 87,
          "name": "D#6",
          "ticks": 400704,
          "time": 305.85898499999996,
          "velocity": 0.968503937007874
        },
        {
          "duration": 0.2777699999999754,
          "durationTicks": 384,
          "midi": 75,
          "name": "D#5",
          "ticks": 400896,
          "time": 305.99787,
          "velocity": 0.968503937007874
        },
        {
          "duration": 0.2777699999999754,
          "durationTicks": 384,
          "midi": 84,
          "name": "C6",
          "ticks": 400896,
          "time": 305.99787,
          "velocity": 0.968503937007874
        },
        {
          "duration": 0.2777699999999754,
          "durationTicks": 384,
          "midi": 75,
          "name": "D#5",
          "ticks": 400896,
          "time": 305.99787,
          "velocity": 0.968503937007874
        },
        {
          "duration": 0.2777699999999754,
          "durationTicks": 384,
          "midi": 87,
          "name": "D#6",
          "ticks": 400896,
          "time": 305.99787,
          "velocity": 0.968503937007874
        },
        {
          "duration": 0.13888500000001613,
          "durationTicks": 192,
          "midi": 71,
          "name": "B4",
          "ticks": 404736,
          "time": 308.77556999999996,
          "velocity": 0.905511811023622
        },
        {
          "duration": 0.13888500000001613,
          "durationTicks": 192,
          "midi": 71,
          "name": "B4",
          "ticks": 404736,
          "time": 308.77556999999996,
          "velocity": 0.905511811023622
        },
        {
          "duration": 0.13888500000001613,
          "durationTicks": 192,
          "midi": 72,
          "name": "C5",
          "ticks": 404928,
          "time": 308.914455,
          "velocity": 0.905511811023622
        },
        {
          "duration": 0.13888500000001613,
          "durationTicks": 192,
          "midi": 72,
          "name": "C5",
          "ticks": 404928,
          "time": 308.914455,
          "velocity": 0.905511811023622
        },
        {
          "duration": 0.1388849999999593,
          "durationTicks": 192,
          "midi": 74,
          "name": "D5",
          "ticks": 405120,
          "time": 309.05334,
          "velocity": 0.905511811023622
        },
        {
          "duration": 0.1388849999999593,
          "durationTicks": 192,
          "midi": 74,
          "name": "D5",
          "ticks": 405120,
          "time": 309.05334,
          "velocity": 0.905511811023622
        },
        {
          "duration": 0.13888500000001613,
          "durationTicks": 192,
          "midi": 75,
          "name": "D#5",
          "ticks": 405312,
          "time": 309.19222499999995,
          "velocity": 0.905511811023622
        },
        {
          "duration": 0.13888500000001613,
          "durationTicks": 192,
          "midi": 75,
          "name": "D#5",
          "ticks": 405312,
          "time": 309.19222499999995,
          "velocity": 0.905511811023622
        },
        {
          "duration": 0.13888500000001613,
          "durationTicks": 192,
          "midi": 77,
          "name": "F5",
          "ticks": 405504,
          "time": 309.33110999999997,
          "velocity": 0.905511811023622
        },
        {
          "duration": 0.13888500000001613,
          "durationTicks": 192,
          "midi": 77,
          "name": "F5",
          "ticks": 405504,
          "time": 309.33110999999997,
          "velocity": 0.905511811023622
        },
        {
          "duration": 0.13888500000001613,
          "durationTicks": 192,
          "midi": 79,
          "name": "G5",
          "ticks": 405696,
          "time": 309.469995,
          "velocity": 0.905511811023622
        },
        {
          "duration": 0.13888500000001613,
          "durationTicks": 192,
          "midi": 79,
          "name": "G5",
          "ticks": 405696,
          "time": 309.469995,
          "velocity": 0.905511811023622
        },
        {
          "duration": 0.1388849999999593,
          "durationTicks": 192,
          "midi": 80,
          "name": "G#5",
          "ticks": 405888,
          "time": 309.60888,
          "velocity": 0.905511811023622
        },
        {
          "duration": 0.1388849999999593,
          "durationTicks": 192,
          "midi": 80,
          "name": "G#5",
          "ticks": 405888,
          "time": 309.60888,
          "velocity": 0.905511811023622
        },
        {
          "duration": 0.13888500000001613,
          "durationTicks": 192,
          "midi": 79,
          "name": "G5",
          "ticks": 406080,
          "time": 309.74776499999996,
          "velocity": 0.905511811023622
        },
        {
          "duration": 0.13888500000001613,
          "durationTicks": 192,
          "midi": 79,
          "name": "G5",
          "ticks": 406080,
          "time": 309.74776499999996,
          "velocity": 0.905511811023622
        },
        {
          "duration": 0.13888500000001613,
          "durationTicks": 192,
          "midi": 80,
          "name": "G#5",
          "ticks": 406272,
          "time": 309.88665,
          "velocity": 0.905511811023622
        },
        {
          "duration": 0.13888500000001613,
          "durationTicks": 192,
          "midi": 80,
          "name": "G#5",
          "ticks": 406272,
          "time": 309.88665,
          "velocity": 0.905511811023622
        },
        {
          "duration": 0.1388849999999593,
          "durationTicks": 192,
          "midi": 79,
          "name": "G5",
          "ticks": 406464,
          "time": 310.025535,
          "velocity": 0.905511811023622
        },
        {
          "duration": 0.1388849999999593,
          "durationTicks": 192,
          "midi": 79,
          "name": "G5",
          "ticks": 406464,
          "time": 310.025535,
          "velocity": 0.905511811023622
        },
        {
          "duration": 0.13888500000001613,
          "durationTicks": 192,
          "midi": 80,
          "name": "G#5",
          "ticks": 406656,
          "time": 310.16441999999995,
          "velocity": 0.905511811023622
        },
        {
          "duration": 0.13888500000001613,
          "durationTicks": 192,
          "midi": 80,
          "name": "G#5",
          "ticks": 406656,
          "time": 310.16441999999995,
          "velocity": 0.905511811023622
        },
        {
          "duration": 0.13888500000001613,
          "durationTicks": 192,
          "midi": 79,
          "name": "G5",
          "ticks": 406848,
          "time": 310.30330499999997,
          "velocity": 0.905511811023622
        },
        {
          "duration": 0.13888500000001613,
          "durationTicks": 192,
          "midi": 79,
          "name": "G5",
          "ticks": 406848,
          "time": 310.30330499999997,
          "velocity": 0.905511811023622
        },
        {
          "duration": 0.1388849999999593,
          "durationTicks": 192,
          "midi": 71,
          "name": "B4",
          "ticks": 407808,
          "time": 310.99773,
          "velocity": 0.905511811023622
        },
        {
          "duration": 0.1388849999999593,
          "durationTicks": 192,
          "midi": 71,
          "name": "B4",
          "ticks": 407808,
          "time": 310.99773,
          "velocity": 0.905511811023622
        },
        {
          "duration": 0.13888500000001613,
          "durationTicks": 192,
          "midi": 72,
          "name": "C5",
          "ticks": 408000,
          "time": 311.13661499999995,
          "velocity": 0.905511811023622
        },
        {
          "duration": 0.13888500000001613,
          "durationTicks": 192,
          "midi": 72,
          "name": "C5",
          "ticks": 408000,
          "time": 311.13661499999995,
          "velocity": 0.905511811023622
        },
        {
          "duration": 0.13888500000001613,
          "durationTicks": 192,
          "midi": 74,
          "name": "D5",
          "ticks": 408192,
          "time": 311.27549999999997,
          "velocity": 0.905511811023622
        },
        {
          "duration": 0.13888500000001613,
          "durationTicks": 192,
          "midi": 74,
          "name": "D5",
          "ticks": 408192,
          "time": 311.27549999999997,
          "velocity": 0.905511811023622
        },
        {
          "duration": 0.13888500000001613,
          "durationTicks": 192,
          "midi": 75,
          "name": "D#5",
          "ticks": 408384,
          "time": 311.414385,
          "velocity": 0.905511811023622
        },
        {
          "duration": 0.13888500000001613,
          "durationTicks": 192,
          "midi": 75,
          "name": "D#5",
          "ticks": 408384,
          "time": 311.414385,
          "velocity": 0.905511811023622
        },
        {
          "duration": 0.1388849999999593,
          "durationTicks": 192,
          "midi": 77,
          "name": "F5",
          "ticks": 408576,
          "time": 311.55327,
          "velocity": 0.905511811023622
        },
        {
          "duration": 0.1388849999999593,
          "durationTicks": 192,
          "midi": 77,
          "name": "F5",
          "ticks": 408576,
          "time": 311.55327,
          "velocity": 0.905511811023622
        },
        {
          "duration": 0.13888500000001613,
          "durationTicks": 192,
          "midi": 79,
          "name": "G5",
          "ticks": 408768,
          "time": 311.69215499999996,
          "velocity": 0.905511811023622
        },
        {
          "duration": 0.13888500000001613,
          "durationTicks": 192,
          "midi": 79,
          "name": "G5",
          "ticks": 408768,
          "time": 311.69215499999996,
          "velocity": 0.905511811023622
        },
        {
          "duration": 0.13888500000001613,
          "durationTicks": 192,
          "midi": 80,
          "name": "G#5",
          "ticks": 408960,
          "time": 311.83104,
          "velocity": 0.905511811023622
        },
        {
          "duration": 0.13888500000001613,
          "durationTicks": 192,
          "midi": 80,
          "name": "G#5",
          "ticks": 408960,
          "time": 311.83104,
          "velocity": 0.905511811023622
        },
        {
          "duration": 0.1388849999999593,
          "durationTicks": 192,
          "midi": 79,
          "name": "G5",
          "ticks": 409152,
          "time": 311.969925,
          "velocity": 0.905511811023622
        },
        {
          "duration": 0.1388849999999593,
          "durationTicks": 192,
          "midi": 79,
          "name": "G5",
          "ticks": 409152,
          "time": 311.969925,
          "velocity": 0.905511811023622
        },
        {
          "duration": 0.13888500000001613,
          "durationTicks": 192,
          "midi": 80,
          "name": "G#5",
          "ticks": 409344,
          "time": 312.10880999999995,
          "velocity": 0.905511811023622
        },
        {
          "duration": 0.13888500000001613,
          "durationTicks": 192,
          "midi": 80,
          "name": "G#5",
          "ticks": 409344,
          "time": 312.10880999999995,
          "velocity": 0.905511811023622
        },
        {
          "duration": 0.13888500000001613,
          "durationTicks": 192,
          "midi": 79,
          "name": "G5",
          "ticks": 409536,
          "time": 312.24769499999996,
          "velocity": 0.905511811023622
        },
        {
          "duration": 0.13888500000001613,
          "durationTicks": 192,
          "midi": 79,
          "name": "G5",
          "ticks": 409536,
          "time": 312.24769499999996,
          "velocity": 0.905511811023622
        },
        {
          "duration": 0.1388849999999593,
          "durationTicks": 192,
          "midi": 80,
          "name": "G#5",
          "ticks": 409728,
          "time": 312.38658,
          "velocity": 0.905511811023622
        },
        {
          "duration": 0.1388849999999593,
          "durationTicks": 192,
          "midi": 80,
          "name": "G#5",
          "ticks": 409728,
          "time": 312.38658,
          "velocity": 0.905511811023622
        },
        {
          "duration": 0.13888500000001613,
          "durationTicks": 192,
          "midi": 79,
          "name": "G5",
          "ticks": 409920,
          "time": 312.52546499999994,
          "velocity": 0.905511811023622
        },
        {
          "duration": 0.13888500000001613,
          "durationTicks": 192,
          "midi": 79,
          "name": "G5",
          "ticks": 409920,
          "time": 312.52546499999994,
          "velocity": 0.905511811023622
        },
        {
          "duration": 0.13888500000001613,
          "durationTicks": 192,
          "midi": 80,
          "name": "G#5",
          "ticks": 410112,
          "time": 312.66434999999996,
          "velocity": 0.905511811023622
        },
        {
          "duration": 0.13888500000001613,
          "durationTicks": 192,
          "midi": 80,
          "name": "G#5",
          "ticks": 410112,
          "time": 312.66434999999996,
          "velocity": 0.905511811023622
        },
        {
          "duration": 0.13888500000001613,
          "durationTicks": 192,
          "midi": 79,
          "name": "G5",
          "ticks": 410304,
          "time": 312.803235,
          "velocity": 0.905511811023622
        },
        {
          "duration": 0.13888500000001613,
          "durationTicks": 192,
          "midi": 79,
          "name": "G5",
          "ticks": 410304,
          "time": 312.803235,
          "velocity": 0.905511811023622
        },
        {
          "duration": 0.1388849999999593,
          "durationTicks": 192,
          "midi": 82,
          "name": "A#5",
          "ticks": 410496,
          "time": 312.94212,
          "velocity": 0.905511811023622
        },
        {
          "duration": 0.1388849999999593,
          "durationTicks": 192,
          "midi": 82,
          "name": "A#5",
          "ticks": 410496,
          "time": 312.94212,
          "velocity": 0.905511811023622
        },
        {
          "duration": 0.13888500000001613,
          "durationTicks": 192,
          "midi": 80,
          "name": "G#5",
          "ticks": 410688,
          "time": 313.08100499999995,
          "velocity": 0.905511811023622
        },
        {
          "duration": 0.13888500000001613,
          "durationTicks": 192,
          "midi": 80,
          "name": "G#5",
          "ticks": 410688,
          "time": 313.08100499999995,
          "velocity": 0.905511811023622
        },
        {
          "duration": 0.13888500000001613,
          "durationTicks": 192,
          "midi": 79,
          "name": "G5",
          "ticks": 410880,
          "time": 313.21988999999996,
          "velocity": 0.905511811023622
        },
        {
          "duration": 0.13888500000001613,
          "durationTicks": 192,
          "midi": 79,
          "name": "G5",
          "ticks": 410880,
          "time": 313.21988999999996,
          "velocity": 0.905511811023622
        },
        {
          "duration": 0.13888500000001613,
          "durationTicks": 192,
          "midi": 77,
          "name": "F5",
          "ticks": 411072,
          "time": 313.358775,
          "velocity": 0.905511811023622
        },
        {
          "duration": 0.13888500000001613,
          "durationTicks": 192,
          "midi": 77,
          "name": "F5",
          "ticks": 411072,
          "time": 313.358775,
          "velocity": 0.905511811023622
        },
        {
          "duration": 0.1388849999999593,
          "durationTicks": 192,
          "midi": 80,
          "name": "G#5",
          "ticks": 411264,
          "time": 313.49766,
          "velocity": 0.905511811023622
        },
        {
          "duration": 0.1388849999999593,
          "durationTicks": 192,
          "midi": 80,
          "name": "G#5",
          "ticks": 411264,
          "time": 313.49766,
          "velocity": 0.905511811023622
        },
        {
          "duration": 0.13888500000001613,
          "durationTicks": 192,
          "midi": 79,
          "name": "G5",
          "ticks": 411456,
          "time": 313.63654499999996,
          "velocity": 0.905511811023622
        },
        {
          "duration": 0.13888500000001613,
          "durationTicks": 192,
          "midi": 79,
          "name": "G5",
          "ticks": 411456,
          "time": 313.63654499999996,
          "velocity": 0.905511811023622
        },
        {
          "duration": 0.13888500000001613,
          "durationTicks": 192,
          "midi": 77,
          "name": "F5",
          "ticks": 411648,
          "time": 313.77543,
          "velocity": 0.905511811023622
        },
        {
          "duration": 0.13888500000001613,
          "durationTicks": 192,
          "midi": 77,
          "name": "F5",
          "ticks": 411648,
          "time": 313.77543,
          "velocity": 0.905511811023622
        },
        {
          "duration": 0.1388849999999593,
          "durationTicks": 192,
          "midi": 75,
          "name": "D#5",
          "ticks": 411840,
          "time": 313.914315,
          "velocity": 0.905511811023622
        },
        {
          "duration": 0.1388849999999593,
          "durationTicks": 192,
          "midi": 75,
          "name": "D#5",
          "ticks": 411840,
          "time": 313.914315,
          "velocity": 0.905511811023622
        },
        {
          "duration": 0.13888500000001613,
          "durationTicks": 192,
          "midi": 79,
          "name": "G5",
          "ticks": 412032,
          "time": 314.05319999999995,
          "velocity": 0.905511811023622
        },
        {
          "duration": 0.13888500000001613,
          "durationTicks": 192,
          "midi": 79,
          "name": "G5",
          "ticks": 412032,
          "time": 314.05319999999995,
          "velocity": 0.905511811023622
        },
        {
          "duration": 0.13888500000001613,
          "durationTicks": 192,
          "midi": 77,
          "name": "F5",
          "ticks": 412224,
          "time": 314.19208499999996,
          "velocity": 0.905511811023622
        },
        {
          "duration": 0.13888500000001613,
          "durationTicks": 192,
          "midi": 77,
          "name": "F5",
          "ticks": 412224,
          "time": 314.19208499999996,
          "velocity": 0.905511811023622
        },
        {
          "duration": 0.1388849999999593,
          "durationTicks": 192,
          "midi": 75,
          "name": "D#5",
          "ticks": 412416,
          "time": 314.33097,
          "velocity": 0.905511811023622
        },
        {
          "duration": 0.1388849999999593,
          "durationTicks": 192,
          "midi": 75,
          "name": "D#5",
          "ticks": 412416,
          "time": 314.33097,
          "velocity": 0.905511811023622
        },
        {
          "duration": 0.13888500000001613,
          "durationTicks": 192,
          "midi": 74,
          "name": "D5",
          "ticks": 412608,
          "time": 314.46985499999994,
          "velocity": 0.905511811023622
        },
        {
          "duration": 0.13888500000001613,
          "durationTicks": 192,
          "midi": 74,
          "name": "D5",
          "ticks": 412608,
          "time": 314.46985499999994,
          "velocity": 0.905511811023622
        },
        {
          "duration": 0.13888500000001613,
          "durationTicks": 192,
          "midi": 77,
          "name": "F5",
          "ticks": 412800,
          "time": 314.60873999999995,
          "velocity": 0.905511811023622
        },
        {
          "duration": 0.13888500000001613,
          "durationTicks": 192,
          "midi": 77,
          "name": "F5",
          "ticks": 412800,
          "time": 314.60873999999995,
          "velocity": 0.905511811023622
        },
        {
          "duration": 0.13888500000001613,
          "durationTicks": 192,
          "midi": 75,
          "name": "D#5",
          "ticks": 412992,
          "time": 314.74762499999997,
          "velocity": 0.905511811023622
        },
        {
          "duration": 0.13888500000001613,
          "durationTicks": 192,
          "midi": 75,
          "name": "D#5",
          "ticks": 412992,
          "time": 314.74762499999997,
          "velocity": 0.905511811023622
        },
        {
          "duration": 0.1388849999999593,
          "durationTicks": 192,
          "midi": 74,
          "name": "D5",
          "ticks": 413184,
          "time": 314.88651,
          "velocity": 0.905511811023622
        },
        {
          "duration": 0.1388849999999593,
          "durationTicks": 192,
          "midi": 74,
          "name": "D5",
          "ticks": 413184,
          "time": 314.88651,
          "velocity": 0.905511811023622
        },
        {
          "duration": 0.13888500000001613,
          "durationTicks": 192,
          "midi": 72,
          "name": "C5",
          "ticks": 413376,
          "time": 315.02539499999995,
          "velocity": 0.905511811023622
        },
        {
          "duration": 0.13888500000001613,
          "durationTicks": 192,
          "midi": 72,
          "name": "C5",
          "ticks": 413376,
          "time": 315.02539499999995,
          "velocity": 0.905511811023622
        },
        {
          "duration": 0.13888500000001613,
          "durationTicks": 192,
          "midi": 75,
          "name": "D#5",
          "ticks": 413568,
          "time": 315.16427999999996,
          "velocity": 0.905511811023622
        },
        {
          "duration": 0.13888500000001613,
          "durationTicks": 192,
          "midi": 75,
          "name": "D#5",
          "ticks": 413568,
          "time": 315.16427999999996,
          "velocity": 0.905511811023622
        },
        {
          "duration": 0.13888500000001613,
          "durationTicks": 192,
          "midi": 74,
          "name": "D5",
          "ticks": 413760,
          "time": 315.303165,
          "velocity": 0.905511811023622
        },
        {
          "duration": 0.13888500000001613,
          "durationTicks": 192,
          "midi": 74,
          "name": "D5",
          "ticks": 413760,
          "time": 315.303165,
          "velocity": 0.905511811023622
        },
        {
          "duration": 0.1388849999999593,
          "durationTicks": 192,
          "midi": 72,
          "name": "C5",
          "ticks": 413952,
          "time": 315.44205,
          "velocity": 0.905511811023622
        },
        {
          "duration": 0.1388849999999593,
          "durationTicks": 192,
          "midi": 72,
          "name": "C5",
          "ticks": 413952,
          "time": 315.44205,
          "velocity": 0.905511811023622
        },
        {
          "duration": 0.13888500000001613,
          "durationTicks": 192,
          "midi": 70,
          "name": "A#4",
          "ticks": 414144,
          "time": 315.58093499999995,
          "velocity": 0.905511811023622
        },
        {
          "duration": 0.13888500000001613,
          "durationTicks": 192,
          "midi": 70,
          "name": "A#4",
          "ticks": 414144,
          "time": 315.58093499999995,
          "velocity": 0.905511811023622
        },
        {
          "duration": 0.13888500000001613,
          "durationTicks": 192,
          "midi": 74,
          "name": "D5",
          "ticks": 414336,
          "time": 315.71981999999997,
          "velocity": 0.905511811023622
        },
        {
          "duration": 0.13888500000001613,
          "durationTicks": 192,
          "midi": 74,
          "name": "D5",
          "ticks": 414336,
          "time": 315.71981999999997,
          "velocity": 0.905511811023622
        },
        {
          "duration": 0.1388849999999593,
          "durationTicks": 192,
          "midi": 72,
          "name": "C5",
          "ticks": 414528,
          "time": 315.858705,
          "velocity": 0.905511811023622
        },
        {
          "duration": 0.1388849999999593,
          "durationTicks": 192,
          "midi": 72,
          "name": "C5",
          "ticks": 414528,
          "time": 315.858705,
          "velocity": 0.905511811023622
        },
        {
          "duration": 0.13888500000001613,
          "durationTicks": 192,
          "midi": 70,
          "name": "A#4",
          "ticks": 414720,
          "time": 315.99758999999995,
          "velocity": 0.905511811023622
        },
        {
          "duration": 0.13888500000001613,
          "durationTicks": 192,
          "midi": 70,
          "name": "A#4",
          "ticks": 414720,
          "time": 315.99758999999995,
          "velocity": 0.905511811023622
        },
        {
          "duration": 0.13888500000001613,
          "durationTicks": 192,
          "midi": 68,
          "name": "G#4",
          "ticks": 414912,
          "time": 316.13647499999996,
          "velocity": 0.905511811023622
        },
        {
          "duration": 0.13888500000001613,
          "durationTicks": 192,
          "midi": 68,
          "name": "G#4",
          "ticks": 414912,
          "time": 316.13647499999996,
          "velocity": 0.905511811023622
        },
        {
          "duration": 0.13888500000001613,
          "durationTicks": 192,
          "midi": 72,
          "name": "C5",
          "ticks": 415104,
          "time": 316.27536,
          "velocity": 0.905511811023622
        },
        {
          "duration": 0.13888500000001613,
          "durationTicks": 192,
          "midi": 72,
          "name": "C5",
          "ticks": 415104,
          "time": 316.27536,
          "velocity": 0.905511811023622
        },
        {
          "duration": 0.1388849999999593,
          "durationTicks": 192,
          "midi": 70,
          "name": "A#4",
          "ticks": 415296,
          "time": 316.414245,
          "velocity": 0.905511811023622
        },
        {
          "duration": 0.1388849999999593,
          "durationTicks": 192,
          "midi": 70,
          "name": "A#4",
          "ticks": 415296,
          "time": 316.414245,
          "velocity": 0.905511811023622
        },
        {
          "duration": 0.13888500000001613,
          "durationTicks": 192,
          "midi": 68,
          "name": "G#4",
          "ticks": 415488,
          "time": 316.55312999999995,
          "velocity": 0.905511811023622
        },
        {
          "duration": 0.13888500000001613,
          "durationTicks": 192,
          "midi": 68,
          "name": "G#4",
          "ticks": 415488,
          "time": 316.55312999999995,
          "velocity": 0.905511811023622
        },
        {
          "duration": 0.13888500000001613,
          "durationTicks": 192,
          "midi": 67,
          "name": "G4",
          "ticks": 415680,
          "time": 316.69201499999997,
          "velocity": 0.905511811023622
        },
        {
          "duration": 0.13888500000001613,
          "durationTicks": 192,
          "midi": 67,
          "name": "G4",
          "ticks": 415680,
          "time": 316.69201499999997,
          "velocity": 0.905511811023622
        },
        {
          "duration": 0.13888500000001613,
          "durationTicks": 192,
          "midi": 70,
          "name": "A#4",
          "ticks": 415872,
          "time": 316.8309,
          "velocity": 0.905511811023622
        },
        {
          "duration": 0.13888500000001613,
          "durationTicks": 192,
          "midi": 70,
          "name": "A#4",
          "ticks": 415872,
          "time": 316.8309,
          "velocity": 0.905511811023622
        },
        {
          "duration": 0.1388849999999593,
          "durationTicks": 192,
          "midi": 68,
          "name": "G#4",
          "ticks": 416064,
          "time": 316.969785,
          "velocity": 0.905511811023622
        },
        {
          "duration": 0.1388849999999593,
          "durationTicks": 192,
          "midi": 68,
          "name": "G#4",
          "ticks": 416064,
          "time": 316.969785,
          "velocity": 0.905511811023622
        },
        {
          "duration": 0.13888500000001613,
          "durationTicks": 192,
          "midi": 65,
          "name": "F4",
          "ticks": 416256,
          "time": 317.10866999999996,
          "velocity": 0.905511811023622
        },
        {
          "duration": 0.13888500000001613,
          "durationTicks": 192,
          "midi": 65,
          "name": "F4",
          "ticks": 416256,
          "time": 317.10866999999996,
          "velocity": 0.905511811023622
        },
        {
          "duration": 0.13888500000001613,
          "durationTicks": 192,
          "midi": 67,
          "name": "G4",
          "ticks": 416448,
          "time": 317.247555,
          "velocity": 0.905511811023622
        },
        {
          "duration": 0.13888500000001613,
          "durationTicks": 192,
          "midi": 67,
          "name": "G4",
          "ticks": 416448,
          "time": 317.247555,
          "velocity": 0.905511811023622
        },
        {
          "duration": 0.1388849999999593,
          "durationTicks": 192,
          "midi": 63,
          "name": "D#4",
          "ticks": 416640,
          "time": 317.38644,
          "velocity": 0.905511811023622
        },
        {
          "duration": 0.1388849999999593,
          "durationTicks": 192,
          "midi": 63,
          "name": "D#4",
          "ticks": 416640,
          "time": 317.38644,
          "velocity": 0.905511811023622
        },
        {
          "duration": 0.13888500000001613,
          "durationTicks": 192,
          "midi": 67,
          "name": "G4",
          "ticks": 416832,
          "time": 317.52532499999995,
          "velocity": 0.905511811023622
        },
        {
          "duration": 0.13888500000001613,
          "durationTicks": 192,
          "midi": 67,
          "name": "G4",
          "ticks": 416832,
          "time": 317.52532499999995,
          "velocity": 0.905511811023622
        },
        {
          "duration": 0.13888500000001613,
          "durationTicks": 192,
          "midi": 62,
          "name": "D4",
          "ticks": 417024,
          "time": 317.66420999999997,
          "velocity": 0.905511811023622
        },
        {
          "duration": 0.13888500000001613,
          "durationTicks": 192,
          "midi": 62,
          "name": "D4",
          "ticks": 417024,
          "time": 317.66420999999997,
          "velocity": 0.905511811023622
        },
        {
          "duration": 0.1388849999999593,
          "durationTicks": 192,
          "midi": 67,
          "name": "G4",
          "ticks": 417216,
          "time": 317.803095,
          "velocity": 0.905511811023622
        },
        {
          "duration": 0.1388849999999593,
          "durationTicks": 192,
          "midi": 67,
          "name": "G4",
          "ticks": 417216,
          "time": 317.803095,
          "velocity": 0.905511811023622
        },
        {
          "duration": 0.13888500000001613,
          "durationTicks": 192,
          "midi": 63,
          "name": "D#4",
          "ticks": 417408,
          "time": 317.94197999999994,
          "velocity": 0.905511811023622
        },
        {
          "duration": 0.13888500000001613,
          "durationTicks": 192,
          "midi": 63,
          "name": "D#4",
          "ticks": 417408,
          "time": 317.94197999999994,
          "velocity": 0.905511811023622
        },
        {
          "duration": 0.13888500000001613,
          "durationTicks": 192,
          "midi": 67,
          "name": "G4",
          "ticks": 417600,
          "time": 318.08086499999996,
          "velocity": 0.905511811023622
        },
        {
          "duration": 0.13888500000001613,
          "durationTicks": 192,
          "midi": 67,
          "name": "G4",
          "ticks": 417600,
          "time": 318.08086499999996,
          "velocity": 0.905511811023622
        },
        {
          "duration": 0.13888500000001613,
          "durationTicks": 192,
          "midi": 65,
          "name": "F4",
          "ticks": 417792,
          "time": 318.21975,
          "velocity": 0.905511811023622
        },
        {
          "duration": 0.13888500000001613,
          "durationTicks": 192,
          "midi": 65,
          "name": "F4",
          "ticks": 417792,
          "time": 318.21975,
          "velocity": 0.905511811023622
        },
        {
          "duration": 0.1388849999999593,
          "durationTicks": 192,
          "midi": 67,
          "name": "G4",
          "ticks": 417984,
          "time": 318.358635,
          "velocity": 0.905511811023622
        },
        {
          "duration": 0.1388849999999593,
          "durationTicks": 192,
          "midi": 67,
          "name": "G4",
          "ticks": 417984,
          "time": 318.358635,
          "velocity": 0.905511811023622
        },
        {
          "duration": 0.13888500000001613,
          "durationTicks": 192,
          "midi": 63,
          "name": "D#4",
          "ticks": 418176,
          "time": 318.49751999999995,
          "velocity": 0.905511811023622
        },
        {
          "duration": 0.13888500000001613,
          "durationTicks": 192,
          "midi": 63,
          "name": "D#4",
          "ticks": 418176,
          "time": 318.49751999999995,
          "velocity": 0.905511811023622
        },
        {
          "duration": 0.13888500000001613,
          "durationTicks": 192,
          "midi": 67,
          "name": "G4",
          "ticks": 418368,
          "time": 318.63640499999997,
          "velocity": 0.905511811023622
        },
        {
          "duration": 0.13888500000001613,
          "durationTicks": 192,
          "midi": 67,
          "name": "G4",
          "ticks": 418368,
          "time": 318.63640499999997,
          "velocity": 0.905511811023622
        },
        {
          "duration": 0.13888500000001613,
          "durationTicks": 192,
          "midi": 65,
          "name": "F4",
          "ticks": 418560,
          "time": 318.77529,
          "velocity": 0.905511811023622
        },
        {
          "duration": 0.13888500000001613,
          "durationTicks": 192,
          "midi": 65,
          "name": "F4",
          "ticks": 418560,
          "time": 318.77529,
          "velocity": 0.905511811023622
        },
        {
          "duration": 0.1388849999999593,
          "durationTicks": 192,
          "midi": 67,
          "name": "G4",
          "ticks": 418752,
          "time": 318.914175,
          "velocity": 0.905511811023622
        },
        {
          "duration": 0.1388849999999593,
          "durationTicks": 192,
          "midi": 67,
          "name": "G4",
          "ticks": 418752,
          "time": 318.914175,
          "velocity": 0.905511811023622
        },
        {
          "duration": 0.13888500000001613,
          "durationTicks": 192,
          "midi": 67,
          "name": "G4",
          "ticks": 418944,
          "time": 319.05305999999996,
          "velocity": 0.905511811023622
        },
        {
          "duration": 0.13888500000001613,
          "durationTicks": 192,
          "midi": 67,
          "name": "G4",
          "ticks": 418944,
          "time": 319.05305999999996,
          "velocity": 0.905511811023622
        },
        {
          "duration": 0.13888500000001613,
          "durationTicks": 192,
          "midi": 72,
          "name": "C5",
          "ticks": 419136,
          "time": 319.191945,
          "velocity": 0.905511811023622
        },
        {
          "duration": 0.13888500000001613,
          "durationTicks": 192,
          "midi": 72,
          "name": "C5",
          "ticks": 419136,
          "time": 319.191945,
          "velocity": 0.905511811023622
        },
        {
          "duration": 0.1388849999999593,
          "durationTicks": 192,
          "midi": 68,
          "name": "G#4",
          "ticks": 419328,
          "time": 319.33083,
          "velocity": 0.905511811023622
        },
        {
          "duration": 0.1388849999999593,
          "durationTicks": 192,
          "midi": 68,
          "name": "G#4",
          "ticks": 419328,
          "time": 319.33083,
          "velocity": 0.905511811023622
        },
        {
          "duration": 0.13888500000001613,
          "durationTicks": 192,
          "midi": 72,
          "name": "C5",
          "ticks": 419520,
          "time": 319.46971499999995,
          "velocity": 0.905511811023622
        },
        {
          "duration": 0.13888500000001613,
          "durationTicks": 192,
          "midi": 72,
          "name": "C5",
          "ticks": 419520,
          "time": 319.46971499999995,
          "velocity": 0.905511811023622
        },
        {
          "duration": 0.13888500000001613,
          "durationTicks": 192,
          "midi": 67,
          "name": "G4",
          "ticks": 419712,
          "time": 319.60859999999997,
          "velocity": 0.905511811023622
        },
        {
          "duration": 0.13888500000001613,
          "durationTicks": 192,
          "midi": 67,
          "name": "G4",
          "ticks": 419712,
          "time": 319.60859999999997,
          "velocity": 0.905511811023622
        },
        {
          "duration": 0.1388849999999593,
          "durationTicks": 192,
          "midi": 72,
          "name": "C5",
          "ticks": 419904,
          "time": 319.747485,
          "velocity": 0.905511811023622
        },
        {
          "duration": 0.1388849999999593,
          "durationTicks": 192,
          "midi": 72,
          "name": "C5",
          "ticks": 419904,
          "time": 319.747485,
          "velocity": 0.905511811023622
        },
        {
          "duration": 0.13888500000001613,
          "durationTicks": 192,
          "midi": 68,
          "name": "G#4",
          "ticks": 420096,
          "time": 319.88636999999994,
          "velocity": 0.905511811023622
        },
        {
          "duration": 0.13888500000001613,
          "durationTicks": 192,
          "midi": 68,
          "name": "G#4",
          "ticks": 420096,
          "time": 319.88636999999994,
          "velocity": 0.905511811023622
        },
        {
          "duration": 0.13888500000001613,
          "durationTicks": 192,
          "midi": 72,
          "name": "C5",
          "ticks": 420288,
          "time": 320.02525499999996,
          "velocity": 0.905511811023622
        },
        {
          "duration": 0.13888500000001613,
          "durationTicks": 192,
          "midi": 72,
          "name": "C5",
          "ticks": 420288,
          "time": 320.02525499999996,
          "velocity": 0.905511811023622
        },
        {
          "duration": 0.13888500000001613,
          "durationTicks": 192,
          "midi": 71,
          "name": "B4",
          "ticks": 420480,
          "time": 320.16414,
          "velocity": 0.905511811023622
        },
        {
          "duration": 0.13888500000001613,
          "durationTicks": 192,
          "midi": 71,
          "name": "B4",
          "ticks": 420480,
          "time": 320.16414,
          "velocity": 0.905511811023622
        },
        {
          "duration": 0.1388849999999593,
          "durationTicks": 192,
          "midi": 77,
          "name": "F5",
          "ticks": 420672,
          "time": 320.303025,
          "velocity": 0.905511811023622
        },
        {
          "duration": 0.1388849999999593,
          "durationTicks": 192,
          "midi": 77,
          "name": "F5",
          "ticks": 420672,
          "time": 320.303025,
          "velocity": 0.905511811023622
        },
        {
          "duration": 0.13888500000001613,
          "durationTicks": 192,
          "midi": 72,
          "name": "C5",
          "ticks": 420864,
          "time": 320.44190999999995,
          "velocity": 0.905511811023622
        },
        {
          "duration": 0.13888500000001613,
          "durationTicks": 192,
          "midi": 72,
          "name": "C5",
          "ticks": 420864,
          "time": 320.44190999999995,
          "velocity": 0.905511811023622
        },
        {
          "duration": 0.13888500000001613,
          "durationTicks": 192,
          "midi": 77,
          "name": "F5",
          "ticks": 421056,
          "time": 320.58079499999997,
          "velocity": 0.905511811023622
        },
        {
          "duration": 0.13888500000001613,
          "durationTicks": 192,
          "midi": 77,
          "name": "F5",
          "ticks": 421056,
          "time": 320.58079499999997,
          "velocity": 0.905511811023622
        },
        {
          "duration": 0.13888500000001613,
          "durationTicks": 192,
          "midi": 71,
          "name": "B4",
          "ticks": 421248,
          "time": 320.71968,
          "velocity": 0.905511811023622
        },
        {
          "duration": 0.13888500000001613,
          "durationTicks": 192,
          "midi": 71,
          "name": "B4",
          "ticks": 421248,
          "time": 320.71968,
          "velocity": 0.905511811023622
        },
        {
          "duration": 0.1388849999999593,
          "durationTicks": 192,
          "midi": 77,
          "name": "F5",
          "ticks": 421440,
          "time": 320.858565,
          "velocity": 0.905511811023622
        },
        {
          "duration": 0.1388849999999593,
          "durationTicks": 192,
          "midi": 77,
          "name": "F5",
          "ticks": 421440,
          "time": 320.858565,
          "velocity": 0.905511811023622
        },
        {
          "duration": 0.13888500000001613,
          "durationTicks": 192,
          "midi": 72,
          "name": "C5",
          "ticks": 421632,
          "time": 320.99744999999996,
          "velocity": 0.905511811023622
        },
        {
          "duration": 0.13888500000001613,
          "durationTicks": 192,
          "midi": 72,
          "name": "C5",
          "ticks": 421632,
          "time": 320.99744999999996,
          "velocity": 0.905511811023622
        },
        {
          "duration": 0.13888500000001613,
          "durationTicks": 192,
          "midi": 77,
          "name": "F5",
          "ticks": 421824,
          "time": 321.136335,
          "velocity": 0.905511811023622
        },
        {
          "duration": 0.13888500000001613,
          "durationTicks": 192,
          "midi": 77,
          "name": "F5",
          "ticks": 421824,
          "time": 321.136335,
          "velocity": 0.905511811023622
        },
        {
          "duration": 0.1388849999999593,
          "durationTicks": 192,
          "midi": 74,
          "name": "D5",
          "ticks": 422016,
          "time": 321.27522,
          "velocity": 0.905511811023622
        },
        {
          "duration": 0.1388849999999593,
          "durationTicks": 192,
          "midi": 74,
          "name": "D5",
          "ticks": 422016,
          "time": 321.27522,
          "velocity": 0.905511811023622
        },
        {
          "duration": 0.13888500000001613,
          "durationTicks": 192,
          "midi": 79,
          "name": "G5",
          "ticks": 422208,
          "time": 321.41410499999995,
          "velocity": 0.905511811023622
        },
        {
          "duration": 0.13888500000001613,
          "durationTicks": 192,
          "midi": 79,
          "name": "G5",
          "ticks": 422208,
          "time": 321.41410499999995,
          "velocity": 0.905511811023622
        },
        {
          "duration": 0.2777699999999754,
          "durationTicks": 384,
          "midi": 75,
          "name": "D#5",
          "ticks": 422400,
          "time": 321.55298999999997,
          "velocity": 0.905511811023622
        },
        {
          "duration": 0.2777699999999754,
          "durationTicks": 384,
          "midi": 75,
          "name": "D#5",
          "ticks": 422400,
          "time": 321.55298999999997,
          "velocity": 0.905511811023622
        },
        {
          "duration": 0.27777000000003227,
          "durationTicks": 384,
          "midi": 72,
          "name": "C5",
          "ticks": 422784,
          "time": 321.83075999999994,
          "velocity": 0.905511811023622
        },
        {
          "duration": 0.27777000000003227,
          "durationTicks": 384,
          "midi": 72,
          "name": "C5",
          "ticks": 422784,
          "time": 321.83075999999994,
          "velocity": 0.905511811023622
        },
        {
          "duration": 0.2777699999999754,
          "durationTicks": 384,
          "midi": 74,
          "name": "D5",
          "ticks": 423168,
          "time": 322.10853,
          "velocity": 0.905511811023622
        },
        {
          "duration": 0.2777699999999754,
          "durationTicks": 384,
          "midi": 74,
          "name": "D5",
          "ticks": 423168,
          "time": 322.10853,
          "velocity": 0.905511811023622
        },
        {
          "duration": 0.27777000000003227,
          "durationTicks": 384,
          "midi": 75,
          "name": "D#5",
          "ticks": 423552,
          "time": 322.38629999999995,
          "velocity": 0.905511811023622
        },
        {
          "duration": 0.27777000000003227,
          "durationTicks": 384,
          "midi": 75,
          "name": "D#5",
          "ticks": 423552,
          "time": 322.38629999999995,
          "velocity": 0.905511811023622
        },
        {
          "duration": 0.2777699999999754,
          "durationTicks": 384,
          "midi": 77,
          "name": "F5",
          "ticks": 423936,
          "time": 322.66407,
          "velocity": 0.905511811023622
        },
        {
          "duration": 0.2777699999999754,
          "durationTicks": 384,
          "midi": 77,
          "name": "F5",
          "ticks": 423936,
          "time": 322.66407,
          "velocity": 0.905511811023622
        },
        {
          "duration": 0.27777000000003227,
          "durationTicks": 384,
          "midi": 74,
          "name": "D5",
          "ticks": 424320,
          "time": 322.94183999999996,
          "velocity": 0.905511811023622
        },
        {
          "duration": 0.27777000000003227,
          "durationTicks": 384,
          "midi": 74,
          "name": "D5",
          "ticks": 424320,
          "time": 322.94183999999996,
          "velocity": 0.905511811023622
        },
        {
          "duration": 0.2777699999999754,
          "durationTicks": 384,
          "midi": 75,
          "name": "D#5",
          "ticks": 424704,
          "time": 323.21961,
          "velocity": 0.905511811023622
        },
        {
          "duration": 0.2777699999999754,
          "durationTicks": 384,
          "midi": 75,
          "name": "D#5",
          "ticks": 424704,
          "time": 323.21961,
          "velocity": 0.905511811023622
        },
        {
          "duration": 0.2777699999999754,
          "durationTicks": 384,
          "midi": 77,
          "name": "F5",
          "ticks": 425088,
          "time": 323.49737999999996,
          "velocity": 0.905511811023622
        },
        {
          "duration": 0.2777699999999754,
          "durationTicks": 384,
          "midi": 77,
          "name": "F5",
          "ticks": 425088,
          "time": 323.49737999999996,
          "velocity": 0.905511811023622
        },
        {
          "duration": 0.27777000000003227,
          "durationTicks": 384,
          "midi": 79,
          "name": "G5",
          "ticks": 425472,
          "time": 323.77514999999994,
          "velocity": 0.905511811023622
        },
        {
          "duration": 0.27777000000003227,
          "durationTicks": 384,
          "midi": 79,
          "name": "G5",
          "ticks": 425472,
          "time": 323.77514999999994,
          "velocity": 0.905511811023622
        },
        {
          "duration": 0.2777699999999754,
          "durationTicks": 384,
          "midi": 75,
          "name": "D#5",
          "ticks": 425856,
          "time": 324.05292,
          "velocity": 0.905511811023622
        },
        {
          "duration": 0.2777699999999754,
          "durationTicks": 384,
          "midi": 75,
          "name": "D#5",
          "ticks": 425856,
          "time": 324.05292,
          "velocity": 0.905511811023622
        },
        {
          "duration": 0.27777000000003227,
          "durationTicks": 384,
          "midi": 77,
          "name": "F5",
          "ticks": 426240,
          "time": 324.33068999999995,
          "velocity": 0.905511811023622
        },
        {
          "duration": 0.27777000000003227,
          "durationTicks": 384,
          "midi": 77,
          "name": "F5",
          "ticks": 426240,
          "time": 324.33068999999995,
          "velocity": 0.905511811023622
        },
        {
          "duration": 0.2777699999999754,
          "durationTicks": 384,
          "midi": 79,
          "name": "G5",
          "ticks": 426624,
          "time": 324.60846,
          "velocity": 0.905511811023622
        },
        {
          "duration": 0.2777699999999754,
          "durationTicks": 384,
          "midi": 79,
          "name": "G5",
          "ticks": 426624,
          "time": 324.60846,
          "velocity": 0.905511811023622
        },
        {
          "duration": 0.27777000000003227,
          "durationTicks": 384,
          "midi": 80,
          "name": "G#5",
          "ticks": 427008,
          "time": 324.88622999999995,
          "velocity": 0.905511811023622
        },
        {
          "duration": 0.27777000000003227,
          "durationTicks": 384,
          "midi": 80,
          "name": "G#5",
          "ticks": 427008,
          "time": 324.88622999999995,
          "velocity": 0.905511811023622
        },
        {
          "duration": 0.2777699999999754,
          "durationTicks": 384,
          "midi": 77,
          "name": "F5",
          "ticks": 427392,
          "time": 325.164,
          "velocity": 0.905511811023622
        },
        {
          "duration": 0.2777699999999754,
          "durationTicks": 384,
          "midi": 77,
          "name": "F5",
          "ticks": 427392,
          "time": 325.164,
          "velocity": 0.905511811023622
        },
        {
          "duration": 0.27777000000003227,
          "durationTicks": 384,
          "midi": 79,
          "name": "G5",
          "ticks": 427776,
          "time": 325.44176999999996,
          "velocity": 0.905511811023622
        },
        {
          "duration": 0.27777000000003227,
          "durationTicks": 384,
          "midi": 79,
          "name": "G5",
          "ticks": 427776,
          "time": 325.44176999999996,
          "velocity": 0.905511811023622
        },
        {
          "duration": 0.2777699999999754,
          "durationTicks": 384,
          "midi": 81,
          "name": "A5",
          "ticks": 428160,
          "time": 325.71954,
          "velocity": 0.905511811023622
        },
        {
          "duration": 0.2777699999999754,
          "durationTicks": 384,
          "midi": 81,
          "name": "A5",
          "ticks": 428160,
          "time": 325.71954,
          "velocity": 0.905511811023622
        },
        {
          "duration": 0.27777000000003227,
          "durationTicks": 384,
          "midi": 83,
          "name": "B5",
          "ticks": 428544,
          "time": 325.99730999999997,
          "velocity": 0.905511811023622
        },
        {
          "duration": 0.27777000000003227,
          "durationTicks": 384,
          "midi": 83,
          "name": "B5",
          "ticks": 428544,
          "time": 325.99730999999997,
          "velocity": 0.905511811023622
        },
        {
          "duration": 0.2777699999999754,
          "durationTicks": 384,
          "midi": 79,
          "name": "G5",
          "ticks": 428928,
          "time": 326.27508,
          "velocity": 0.905511811023622
        },
        {
          "duration": 0.2777699999999754,
          "durationTicks": 384,
          "midi": 79,
          "name": "G5",
          "ticks": 428928,
          "time": 326.27508,
          "velocity": 0.905511811023622
        },
        {
          "duration": 0.2777699999999754,
          "durationTicks": 384,
          "midi": 81,
          "name": "A5",
          "ticks": 429312,
          "time": 326.55285,
          "velocity": 0.905511811023622
        },
        {
          "duration": 0.2777699999999754,
          "durationTicks": 384,
          "midi": 81,
          "name": "A5",
          "ticks": 429312,
          "time": 326.55285,
          "velocity": 0.905511811023622
        },
        {
          "duration": 0.27777000000003227,
          "durationTicks": 384,
          "midi": 83,
          "name": "B5",
          "ticks": 429696,
          "time": 326.83061999999995,
          "velocity": 0.905511811023622
        },
        {
          "duration": 0.27777000000003227,
          "durationTicks": 384,
          "midi": 83,
          "name": "B5",
          "ticks": 429696,
          "time": 326.83061999999995,
          "velocity": 0.905511811023622
        },
        {
          "duration": 0.2777699999999754,
          "durationTicks": 384,
          "midi": 84,
          "name": "C6",
          "ticks": 430080,
          "time": 327.10839,
          "velocity": 0.905511811023622
        },
        {
          "duration": 0.2777699999999754,
          "durationTicks": 384,
          "midi": 84,
          "name": "C6",
          "ticks": 430080,
          "time": 327.10839,
          "velocity": 0.905511811023622
        },
        {
          "duration": 0.27777000000003227,
          "durationTicks": 384,
          "midi": 79,
          "name": "G5",
          "ticks": 430464,
          "time": 327.38615999999996,
          "velocity": 0.905511811023622
        },
        {
          "duration": 0.27777000000003227,
          "durationTicks": 384,
          "midi": 79,
          "name": "G5",
          "ticks": 430464,
          "time": 327.38615999999996,
          "velocity": 0.905511811023622
        },
        {
          "duration": 0.2777699999999754,
          "durationTicks": 384,
          "midi": 80,
          "name": "G#5",
          "ticks": 430848,
          "time": 327.66393,
          "velocity": 0.905511811023622
        },
        {
          "duration": 0.2777699999999754,
          "durationTicks": 384,
          "midi": 80,
          "name": "G#5",
          "ticks": 430848,
          "time": 327.66393,
          "velocity": 0.905511811023622
        },
        {
          "duration": 0.27777000000003227,
          "durationTicks": 384,
          "midi": 75,
          "name": "D#5",
          "ticks": 431232,
          "time": 327.94169999999997,
          "velocity": 0.905511811023622
        },
        {
          "duration": 0.27777000000003227,
          "durationTicks": 384,
          "midi": 75,
          "name": "D#5",
          "ticks": 431232,
          "time": 327.94169999999997,
          "velocity": 0.905511811023622
        },
        {
          "duration": 0.2777699999999754,
          "durationTicks": 384,
          "midi": 77,
          "name": "F5",
          "ticks": 431616,
          "time": 328.21947,
          "velocity": 0.905511811023622
        },
        {
          "duration": 0.2777699999999754,
          "durationTicks": 384,
          "midi": 77,
          "name": "F5",
          "ticks": 431616,
          "time": 328.21947,
          "velocity": 0.905511811023622
        },
        {
          "duration": 0.2777699999999754,
          "durationTicks": 384,
          "midi": 74,
          "name": "D5",
          "ticks": 432000,
          "time": 328.49724,
          "velocity": 0.905511811023622
        },
        {
          "duration": 0.2777699999999754,
          "durationTicks": 384,
          "midi": 74,
          "name": "D5",
          "ticks": 432000,
          "time": 328.49724,
          "velocity": 0.905511811023622
        },
        {
          "duration": 0.27777000000003227,
          "durationTicks": 384,
          "midi": 75,
          "name": "D#5",
          "ticks": 432384,
          "time": 328.77500999999995,
          "velocity": 0.905511811023622
        },
        {
          "duration": 0.27777000000003227,
          "durationTicks": 384,
          "midi": 75,
          "name": "D#5",
          "ticks": 432384,
          "time": 328.77500999999995,
          "velocity": 0.905511811023622
        },
        {
          "duration": 0.2777699999999754,
          "durationTicks": 384,
          "midi": 77,
          "name": "F5",
          "ticks": 432768,
          "time": 329.05278,
          "velocity": 0.905511811023622
        },
        {
          "duration": 0.2777699999999754,
          "durationTicks": 384,
          "midi": 77,
          "name": "F5",
          "ticks": 432768,
          "time": 329.05278,
          "velocity": 0.905511811023622
        },
        {
          "duration": 0.27777000000003227,
          "durationTicks": 384,
          "midi": 79,
          "name": "G5",
          "ticks": 433152,
          "time": 329.33054999999996,
          "velocity": 0.905511811023622
        },
        {
          "duration": 0.27777000000003227,
          "durationTicks": 384,
          "midi": 79,
          "name": "G5",
          "ticks": 433152,
          "time": 329.33054999999996,
          "velocity": 0.905511811023622
        },
        {
          "duration": 0.2777699999999754,
          "durationTicks": 384,
          "midi": 78,
          "name": "F#5",
          "ticks": 433536,
          "time": 329.60832,
          "velocity": 0.905511811023622
        },
        {
          "duration": 0.2777699999999754,
          "durationTicks": 384,
          "midi": 78,
          "name": "F#5",
          "ticks": 433536,
          "time": 329.60832,
          "velocity": 0.905511811023622
        },
        {
          "duration": 0.27777000000003227,
          "durationTicks": 384,
          "midi": 79,
          "name": "G5",
          "ticks": 433920,
          "time": 329.88608999999997,
          "velocity": 0.905511811023622
        },
        {
          "duration": 0.27777000000003227,
          "durationTicks": 384,
          "midi": 79,
          "name": "G5",
          "ticks": 433920,
          "time": 329.88608999999997,
          "velocity": 0.905511811023622
        },
        {
          "duration": 0.2777699999999754,
          "durationTicks": 384,
          "midi": 67,
          "name": "G4",
          "ticks": 434304,
          "time": 330.16386,
          "velocity": 0.905511811023622
        },
        {
          "duration": 0.2777699999999754,
          "durationTicks": 384,
          "midi": 67,
          "name": "G4",
          "ticks": 434304,
          "time": 330.16386,
          "velocity": 0.905511811023622
        },
        {
          "duration": 0.2777699999999754,
          "durationTicks": 384,
          "midi": 72,
          "name": "C5",
          "ticks": 434688,
          "time": 330.44163,
          "velocity": 0.905511811023622
        },
        {
          "duration": 0.2777699999999754,
          "durationTicks": 384,
          "midi": 72,
          "name": "C5",
          "ticks": 434688,
          "time": 330.44163,
          "velocity": 0.905511811023622
        },
        {
          "duration": 0.2777699999999754,
          "durationTicks": 384,
          "midi": 63,
          "name": "D#4",
          "ticks": 436992,
          "time": 332.10825,
          "velocity": 0.905511811023622
        },
        {
          "duration": 0.2777699999999754,
          "durationTicks": 384,
          "midi": 63,
          "name": "D#4",
          "ticks": 436992,
          "time": 332.10825,
          "velocity": 0.905511811023622
        },
        {
          "duration": 0.2777699999999754,
          "durationTicks": 384,
          "midi": 65,
          "name": "F4",
          "ticks": 437376,
          "time": 332.38602,
          "velocity": 0.905511811023622
        },
        {
          "duration": 0.2777699999999754,
          "durationTicks": 384,
          "midi": 65,
          "name": "F4",
          "ticks": 437376,
          "time": 332.38602,
          "velocity": 0.905511811023622
        },
        {
          "duration": 0.27777000000003227,
          "durationTicks": 384,
          "midi": 67,
          "name": "G4",
          "ticks": 437760,
          "time": 332.66378999999995,
          "velocity": 0.905511811023622
        },
        {
          "duration": 0.27777000000003227,
          "durationTicks": 384,
          "midi": 67,
          "name": "G4",
          "ticks": 437760,
          "time": 332.66378999999995,
          "velocity": 0.905511811023622
        },
        {
          "duration": 0.2777699999999754,
          "durationTicks": 384,
          "midi": 63,
          "name": "D#4",
          "ticks": 438144,
          "time": 332.94156,
          "velocity": 0.905511811023622
        },
        {
          "duration": 0.2777699999999754,
          "durationTicks": 384,
          "midi": 63,
          "name": "D#4",
          "ticks": 438144,
          "time": 332.94156,
          "velocity": 0.905511811023622
        },
        {
          "duration": 0.2777699999999754,
          "durationTicks": 384,
          "midi": 59,
          "name": "B3",
          "ticks": 440064,
          "time": 334.33041,
          "velocity": 0.905511811023622
        },
        {
          "duration": 0.2777699999999754,
          "durationTicks": 384,
          "midi": 71,
          "name": "B4",
          "ticks": 440064,
          "time": 334.33041,
          "velocity": 0.905511811023622
        },
        {
          "duration": 0.27777000000003227,
          "durationTicks": 384,
          "midi": 60,
          "name": "C4",
          "ticks": 440448,
          "time": 334.60817999999995,
          "velocity": 0.905511811023622
        },
        {
          "duration": 0.27777000000003227,
          "durationTicks": 384,
          "midi": 72,
          "name": "C5",
          "ticks": 440448,
          "time": 334.60817999999995,
          "velocity": 0.905511811023622
        },
        {
          "duration": 0.2777699999999754,
          "durationTicks": 384,
          "midi": 62,
          "name": "D4",
          "ticks": 440832,
          "time": 334.88595,
          "velocity": 0.905511811023622
        },
        {
          "duration": 0.2777699999999754,
          "durationTicks": 384,
          "midi": 74,
          "name": "D5",
          "ticks": 440832,
          "time": 334.88595,
          "velocity": 0.905511811023622
        },
        {
          "duration": 0.27777000000003227,
          "durationTicks": 384,
          "midi": 59,
          "name": "B3",
          "ticks": 441216,
          "time": 335.16371999999996,
          "velocity": 0.905511811023622
        },
        {
          "duration": 0.27777000000003227,
          "durationTicks": 384,
          "midi": 71,
          "name": "B4",
          "ticks": 441216,
          "time": 335.16371999999996,
          "velocity": 0.905511811023622
        },
        {
          "duration": 0.27777000000003227,
          "durationTicks": 384,
          "midi": 59,
          "name": "B3",
          "ticks": 443136,
          "time": 336.55256999999995,
          "velocity": 0.905511811023622
        },
        {
          "duration": 0.27777000000003227,
          "durationTicks": 384,
          "midi": 71,
          "name": "B4",
          "ticks": 443136,
          "time": 336.55256999999995,
          "velocity": 0.905511811023622
        },
        {
          "duration": 0.2777699999999754,
          "durationTicks": 384,
          "midi": 60,
          "name": "C4",
          "ticks": 443520,
          "time": 336.83034,
          "velocity": 0.905511811023622
        },
        {
          "duration": 0.2777699999999754,
          "durationTicks": 384,
          "midi": 72,
          "name": "C5",
          "ticks": 443520,
          "time": 336.83034,
          "velocity": 0.905511811023622
        },
        {
          "duration": 0.27777000000003227,
          "durationTicks": 384,
          "midi": 62,
          "name": "D4",
          "ticks": 443904,
          "time": 337.10810999999995,
          "velocity": 0.905511811023622
        },
        {
          "duration": 0.27777000000003227,
          "durationTicks": 384,
          "midi": 74,
          "name": "D5",
          "ticks": 443904,
          "time": 337.10810999999995,
          "velocity": 0.905511811023622
        },
        {
          "duration": 0.2777699999999754,
          "durationTicks": 384,
          "midi": 59,
          "name": "B3",
          "ticks": 444288,
          "time": 337.38588,
          "velocity": 0.905511811023622
        },
        {
          "duration": 0.2777699999999754,
          "durationTicks": 384,
          "midi": 71,
          "name": "B4",
          "ticks": 444288,
          "time": 337.38588,
          "velocity": 0.905511811023622
        },
        {
          "duration": 0.2777699999999754,
          "durationTicks": 384,
          "midi": 68,
          "name": "G#4",
          "ticks": 447744,
          "time": 339.88581,
          "velocity": 0.905511811023622
        },
        {
          "duration": 0.2777699999999754,
          "durationTicks": 384,
          "midi": 68,
          "name": "G#4",
          "ticks": 447744,
          "time": 339.88581,
          "velocity": 0.905511811023622
        },
        {
          "duration": 0.2777699999999754,
          "durationTicks": 384,
          "midi": 67,
          "name": "G4",
          "ticks": 448128,
          "time": 340.16357999999997,
          "velocity": 0.905511811023622
        },
        {
          "duration": 0.2777699999999754,
          "durationTicks": 384,
          "midi": 67,
          "name": "G4",
          "ticks": 448128,
          "time": 340.16357999999997,
          "velocity": 0.905511811023622
        },
        {
          "duration": 0.27777000000003227,
          "durationTicks": 384,
          "midi": 68,
          "name": "G#4",
          "ticks": 449280,
          "time": 340.99688999999995,
          "velocity": 0.905511811023622
        },
        {
          "duration": 0.27777000000003227,
          "durationTicks": 384,
          "midi": 80,
          "name": "G#5",
          "ticks": 449280,
          "time": 340.99688999999995,
          "velocity": 0.905511811023622
        },
        {
          "duration": 0.2777699999999754,
          "durationTicks": 384,
          "midi": 67,
          "name": "G4",
          "ticks": 449664,
          "time": 341.27466,
          "velocity": 0.905511811023622
        },
        {
          "duration": 0.2777699999999754,
          "durationTicks": 384,
          "midi": 79,
          "name": "G5",
          "ticks": 449664,
          "time": 341.27466,
          "velocity": 0.905511811023622
        },
        {
          "duration": 0.27777000000003227,
          "durationTicks": 384,
          "midi": 55,
          "name": "G3",
          "ticks": 450048,
          "time": 341.55242999999996,
          "velocity": 0.905511811023622
        },
        {
          "duration": 0.27777000000003227,
          "durationTicks": 384,
          "midi": 63,
          "name": "D#4",
          "ticks": 450048,
          "time": 341.55242999999996,
          "velocity": 0.905511811023622
        },
        {
          "duration": 0.27777000000003227,
          "durationTicks": 384,
          "midi": 72,
          "name": "C5",
          "ticks": 450048,
          "time": 341.55242999999996,
          "velocity": 0.905511811023622
        },
        {
          "duration": 0.27777000000003227,
          "durationTicks": 384,
          "midi": 79,
          "name": "G5",
          "ticks": 450048,
          "time": 341.55242999999996,
          "velocity": 0.905511811023622
        },
        {
          "duration": 0.27777000000003227,
          "durationTicks": 384,
          "midi": 55,
          "name": "G3",
          "ticks": 450048,
          "time": 341.55242999999996,
          "velocity": 0.905511811023622
        },
        {
          "duration": 0.27777000000003227,
          "durationTicks": 384,
          "midi": 63,
          "name": "D#4",
          "ticks": 450048,
          "time": 341.55242999999996,
          "velocity": 0.905511811023622
        },
        {
          "duration": 0.27777000000003227,
          "durationTicks": 384,
          "midi": 72,
          "name": "C5",
          "ticks": 450048,
          "time": 341.55242999999996,
          "velocity": 0.905511811023622
        },
        {
          "duration": 0.27777000000003227,
          "durationTicks": 384,
          "midi": 79,
          "name": "G5",
          "ticks": 450048,
          "time": 341.55242999999996,
          "velocity": 0.905511811023622
        },
        {
          "duration": 0.2777699999999754,
          "durationTicks": 384,
          "midi": 55,
          "name": "G3",
          "ticks": 450816,
          "time": 342.10796999999997,
          "velocity": 0.905511811023622
        },
        {
          "duration": 0.2777699999999754,
          "durationTicks": 384,
          "midi": 62,
          "name": "D4",
          "ticks": 450816,
          "time": 342.10796999999997,
          "velocity": 0.905511811023622
        },
        {
          "duration": 0.2777699999999754,
          "durationTicks": 384,
          "midi": 71,
          "name": "B4",
          "ticks": 450816,
          "time": 342.10796999999997,
          "velocity": 0.905511811023622
        },
        {
          "duration": 0.2777699999999754,
          "durationTicks": 384,
          "midi": 79,
          "name": "G5",
          "ticks": 450816,
          "time": 342.10796999999997,
          "velocity": 0.905511811023622
        },
        {
          "duration": 0.2777699999999754,
          "durationTicks": 384,
          "midi": 55,
          "name": "G3",
          "ticks": 450816,
          "time": 342.10796999999997,
          "velocity": 0.905511811023622
        },
        {
          "duration": 0.2777699999999754,
          "durationTicks": 384,
          "midi": 62,
          "name": "D4",
          "ticks": 450816,
          "time": 342.10796999999997,
          "velocity": 0.905511811023622
        },
        {
          "duration": 0.2777699999999754,
          "durationTicks": 384,
          "midi": 71,
          "name": "B4",
          "ticks": 450816,
          "time": 342.10796999999997,
          "velocity": 0.905511811023622
        },
        {
          "duration": 0.2777699999999754,
          "durationTicks": 384,
          "midi": 79,
          "name": "G5",
          "ticks": 450816,
          "time": 342.10796999999997,
          "velocity": 0.905511811023622
        },
        {
          "duration": 0.27777000000003227,
          "durationTicks": 384,
          "midi": 63,
          "name": "D#4",
          "ticks": 451584,
          "time": 342.66351,
          "velocity": 0.905511811023622
        },
        {
          "duration": 0.27777000000003227,
          "durationTicks": 384,
          "midi": 75,
          "name": "D#5",
          "ticks": 451584,
          "time": 342.66351,
          "velocity": 0.905511811023622
        },
        {
          "duration": 0.2777699999999754,
          "durationTicks": 384,
          "midi": 70,
          "name": "A#4",
          "ticks": 451968,
          "time": 342.94128,
          "velocity": 0.905511811023622
        },
        {
          "duration": 0.2777699999999754,
          "durationTicks": 384,
          "midi": 74,
          "name": "D5",
          "ticks": 451968,
          "time": 342.94128,
          "velocity": 0.905511811023622
        },
        {
          "duration": 0.2777699999999754,
          "durationTicks": 384,
          "midi": 60,
          "name": "C4",
          "ticks": 452352,
          "time": 343.21905,
          "velocity": 0.905511811023622
        },
        {
          "duration": 0.2777699999999754,
          "durationTicks": 384,
          "midi": 72,
          "name": "C5",
          "ticks": 452352,
          "time": 343.21905,
          "velocity": 0.905511811023622
        },
        {
          "duration": 0.27777000000003227,
          "durationTicks": 384,
          "midi": 67,
          "name": "G4",
          "ticks": 452736,
          "time": 343.49681999999996,
          "velocity": 0.905511811023622
        },
        {
          "duration": 0.27777000000003227,
          "durationTicks": 384,
          "midi": 70,
          "name": "A#4",
          "ticks": 452736,
          "time": 343.49681999999996,
          "velocity": 0.905511811023622
        },
        {
          "duration": 0.2777699999999754,
          "durationTicks": 384,
          "midi": 56,
          "name": "G#3",
          "ticks": 453120,
          "time": 343.77459,
          "velocity": 0.905511811023622
        },
        {
          "duration": 0.2777699999999754,
          "durationTicks": 384,
          "midi": 68,
          "name": "G#4",
          "ticks": 453120,
          "time": 343.77459,
          "velocity": 0.905511811023622
        },
        {
          "duration": 0.2777699999999754,
          "durationTicks": 384,
          "midi": 63,
          "name": "D#4",
          "ticks": 453504,
          "time": 344.05235999999996,
          "velocity": 0.905511811023622
        },
        {
          "duration": 0.2777699999999754,
          "durationTicks": 384,
          "midi": 67,
          "name": "G4",
          "ticks": 453504,
          "time": 344.05235999999996,
          "velocity": 0.905511811023622
        },
        {
          "duration": 0.2777699999999754,
          "durationTicks": 384,
          "midi": 65,
          "name": "F4",
          "ticks": 454656,
          "time": 344.88567,
          "velocity": 0.905511811023622
        },
        {
          "duration": 0.2777699999999754,
          "durationTicks": 384,
          "midi": 68,
          "name": "G#4",
          "ticks": 454656,
          "time": 344.88567,
          "velocity": 0.905511811023622
        },
        {
          "duration": 0.2777699999999754,
          "durationTicks": 384,
          "midi": 63,
          "name": "D#4",
          "ticks": 455040,
          "time": 345.16344,
          "velocity": 0.905511811023622
        },
        {
          "duration": 0.2777699999999754,
          "durationTicks": 384,
          "midi": 67,
          "name": "G4",
          "ticks": 455040,
          "time": 345.16344,
          "velocity": 0.905511811023622
        },
        {
          "duration": 0.27777000000003227,
          "durationTicks": 384,
          "midi": 77,
          "name": "F5",
          "ticks": 455424,
          "time": 345.44120999999996,
          "velocity": 0.905511811023622
        },
        {
          "duration": 0.27777000000003227,
          "durationTicks": 384,
          "midi": 80,
          "name": "G#5",
          "ticks": 455424,
          "time": 345.44120999999996,
          "velocity": 0.905511811023622
        },
        {
          "duration": 0.2777699999999754,
          "durationTicks": 384,
          "midi": 75,
          "name": "D#5",
          "ticks": 455808,
          "time": 345.71898,
          "velocity": 0.905511811023622
        },
        {
          "duration": 0.2777699999999754,
          "durationTicks": 384,
          "midi": 79,
          "name": "G5",
          "ticks": 455808,
          "time": 345.71898,
          "velocity": 0.905511811023622
        },
        {
          "duration": 0.2777699999999754,
          "durationTicks": 384,
          "midi": 55,
          "name": "G3",
          "ticks": 456192,
          "time": 345.99674999999996,
          "velocity": 0.905511811023622
        },
        {
          "duration": 0.2777699999999754,
          "durationTicks": 384,
          "midi": 63,
          "name": "D#4",
          "ticks": 456192,
          "time": 345.99674999999996,
          "velocity": 0.905511811023622
        },
        {
          "duration": 0.2777699999999754,
          "durationTicks": 384,
          "midi": 72,
          "name": "C5",
          "ticks": 456192,
          "time": 345.99674999999996,
          "velocity": 0.905511811023622
        },
        {
          "duration": 0.2777699999999754,
          "durationTicks": 384,
          "midi": 79,
          "name": "G5",
          "ticks": 456192,
          "time": 345.99674999999996,
          "velocity": 0.905511811023622
        },
        {
          "duration": 0.2777699999999754,
          "durationTicks": 384,
          "midi": 55,
          "name": "G3",
          "ticks": 456192,
          "time": 345.99674999999996,
          "velocity": 0.905511811023622
        },
        {
          "duration": 0.2777699999999754,
          "durationTicks": 384,
          "midi": 63,
          "name": "D#4",
          "ticks": 456192,
          "time": 345.99674999999996,
          "velocity": 0.905511811023622
        },
        {
          "duration": 0.2777699999999754,
          "durationTicks": 384,
          "midi": 72,
          "name": "C5",
          "ticks": 456192,
          "time": 345.99674999999996,
          "velocity": 0.905511811023622
        },
        {
          "duration": 0.2777699999999754,
          "durationTicks": 384,
          "midi": 79,
          "name": "G5",
          "ticks": 456192,
          "time": 345.99674999999996,
          "velocity": 0.905511811023622
        },
        {
          "duration": 0.27777000000003227,
          "durationTicks": 384,
          "midi": 55,
          "name": "G3",
          "ticks": 456960,
          "time": 346.55228999999997,
          "velocity": 0.905511811023622
        },
        {
          "duration": 0.27777000000003227,
          "durationTicks": 384,
          "midi": 62,
          "name": "D4",
          "ticks": 456960,
          "time": 346.55228999999997,
          "velocity": 0.905511811023622
        },
        {
          "duration": 0.27777000000003227,
          "durationTicks": 384,
          "midi": 71,
          "name": "B4",
          "ticks": 456960,
          "time": 346.55228999999997,
          "velocity": 0.905511811023622
        },
        {
          "duration": 0.27777000000003227,
          "durationTicks": 384,
          "midi": 79,
          "name": "G5",
          "ticks": 456960,
          "time": 346.55228999999997,
          "velocity": 0.905511811023622
        },
        {
          "duration": 0.27777000000003227,
          "durationTicks": 384,
          "midi": 55,
          "name": "G3",
          "ticks": 456960,
          "time": 346.55228999999997,
          "velocity": 0.905511811023622
        },
        {
          "duration": 0.27777000000003227,
          "durationTicks": 384,
          "midi": 62,
          "name": "D4",
          "ticks": 456960,
          "time": 346.55228999999997,
          "velocity": 0.905511811023622
        },
        {
          "duration": 0.27777000000003227,
          "durationTicks": 384,
          "midi": 71,
          "name": "B4",
          "ticks": 456960,
          "time": 346.55228999999997,
          "velocity": 0.905511811023622
        },
        {
          "duration": 0.27777000000003227,
          "durationTicks": 384,
          "midi": 79,
          "name": "G5",
          "ticks": 456960,
          "time": 346.55228999999997,
          "velocity": 0.905511811023622
        },
        {
          "duration": 0.13888500000001613,
          "durationTicks": 192,
          "midi": 55,
          "name": "G3",
          "ticks": 457728,
          "time": 347.10783,
          "velocity": 0.905511811023622
        },
        {
          "duration": 0.13888500000001613,
          "durationTicks": 192,
          "midi": 63,
          "name": "D#4",
          "ticks": 457728,
          "time": 347.10783,
          "velocity": 0.905511811023622
        },
        {
          "duration": 0.13888500000001613,
          "durationTicks": 192,
          "midi": 72,
          "name": "C5",
          "ticks": 457728,
          "time": 347.10783,
          "velocity": 0.905511811023622
        },
        {
          "duration": 0.13888500000001613,
          "durationTicks": 192,
          "midi": 55,
          "name": "G3",
          "ticks": 457728,
          "time": 347.10783,
          "velocity": 0.905511811023622
        },
        {
          "duration": 0.13888500000001613,
          "durationTicks": 192,
          "midi": 63,
          "name": "D#4",
          "ticks": 457728,
          "time": 347.10783,
          "velocity": 0.905511811023622
        },
        {
          "duration": 0.13888500000001613,
          "durationTicks": 192,
          "midi": 72,
          "name": "C5",
          "ticks": 457728,
          "time": 347.10783,
          "velocity": 0.905511811023622
        },
        {
          "duration": 0.1388849999999593,
          "durationTicks": 192,
          "midi": 67,
          "name": "G4",
          "ticks": 457920,
          "time": 347.246715,
          "velocity": 0.905511811023622
        },
        {
          "duration": 0.1388849999999593,
          "durationTicks": 192,
          "midi": 79,
          "name": "G5",
          "ticks": 457920,
          "time": 347.246715,
          "velocity": 0.905511811023622
        },
        {
          "duration": 0.13888500000001613,
          "durationTicks": 192,
          "midi": 67,
          "name": "G4",
          "ticks": 458112,
          "time": 347.38559999999995,
          "velocity": 0.905511811023622
        },
        {
          "duration": 0.13888500000001613,
          "durationTicks": 192,
          "midi": 79,
          "name": "G5",
          "ticks": 458112,
          "time": 347.38559999999995,
          "velocity": 0.905511811023622
        },
        {
          "duration": 0.13888500000001613,
          "durationTicks": 192,
          "midi": 67,
          "name": "G4",
          "ticks": 458304,
          "time": 347.52448499999997,
          "velocity": 0.905511811023622
        },
        {
          "duration": 0.13888500000001613,
          "durationTicks": 192,
          "midi": 79,
          "name": "G5",
          "ticks": 458304,
          "time": 347.52448499999997,
          "velocity": 0.905511811023622
        },
        {
          "duration": 2.36104499999999,
          "durationTicks": 3264,
          "midi": 67,
          "name": "G4",
          "ticks": 458496,
          "time": 347.66337,
          "velocity": 0.905511811023622
        },
        {
          "duration": 2.36104499999999,
          "durationTicks": 3264,
          "midi": 79,
          "name": "G5",
          "ticks": 458496,
          "time": 347.66337,
          "velocity": 0.905511811023622
        },
        {
          "duration": 0.13888500000001613,
          "durationTicks": 192,
          "midi": 67,
          "name": "G4",
          "ticks": 461760,
          "time": 350.024415,
          "velocity": 0.905511811023622
        },
        {
          "duration": 0.13888500000001613,
          "durationTicks": 192,
          "midi": 79,
          "name": "G5",
          "ticks": 461760,
          "time": 350.024415,
          "velocity": 0.905511811023622
        },
        {
          "duration": 0.1388849999999593,
          "durationTicks": 192,
          "midi": 67,
          "name": "G4",
          "ticks": 461952,
          "time": 350.1633,
          "velocity": 0.905511811023622
        },
        {
          "duration": 0.1388849999999593,
          "durationTicks": 192,
          "midi": 79,
          "name": "G5",
          "ticks": 461952,
          "time": 350.1633,
          "velocity": 0.905511811023622
        },
        {
          "duration": 0.13888500000001613,
          "durationTicks": 192,
          "midi": 67,
          "name": "G4",
          "ticks": 462144,
          "time": 350.30218499999995,
          "velocity": 0.905511811023622
        },
        {
          "duration": 0.13888500000001613,
          "durationTicks": 192,
          "midi": 79,
          "name": "G5",
          "ticks": 462144,
          "time": 350.30218499999995,
          "velocity": 0.905511811023622
        },
        {
          "duration": 0.13888500000001613,
          "durationTicks": 192,
          "midi": 60,
          "name": "C4",
          "ticks": 462336,
          "time": 350.44106999999997,
          "velocity": 0.905511811023622
        },
        {
          "duration": 0.13888500000001613,
          "durationTicks": 192,
          "midi": 72,
          "name": "C5",
          "ticks": 462336,
          "time": 350.44106999999997,
          "velocity": 0.905511811023622
        },
        {
          "duration": 0.13888500000001613,
          "durationTicks": 192,
          "midi": 67,
          "name": "G4",
          "ticks": 462528,
          "time": 350.579955,
          "velocity": 0.905511811023622
        },
        {
          "duration": 0.13888500000001613,
          "durationTicks": 192,
          "midi": 79,
          "name": "G5",
          "ticks": 462528,
          "time": 350.579955,
          "velocity": 0.905511811023622
        },
        {
          "duration": 0.1388849999999593,
          "durationTicks": 192,
          "midi": 67,
          "name": "G4",
          "ticks": 462720,
          "time": 350.71884,
          "velocity": 0.905511811023622
        },
        {
          "duration": 0.1388849999999593,
          "durationTicks": 192,
          "midi": 79,
          "name": "G5",
          "ticks": 462720,
          "time": 350.71884,
          "velocity": 0.905511811023622
        },
        {
          "duration": 0.13888500000001613,
          "durationTicks": 192,
          "midi": 67,
          "name": "G4",
          "ticks": 462912,
          "time": 350.85772499999996,
          "velocity": 0.905511811023622
        },
        {
          "duration": 0.13888500000001613,
          "durationTicks": 192,
          "midi": 79,
          "name": "G5",
          "ticks": 462912,
          "time": 350.85772499999996,
          "velocity": 0.905511811023622
        },
        {
          "duration": 0.13888500000001613,
          "durationTicks": 192,
          "midi": 67,
          "name": "G4",
          "ticks": 463104,
          "time": 350.99661,
          "velocity": 0.905511811023622
        },
        {
          "duration": 0.13888500000001613,
          "durationTicks": 192,
          "midi": 79,
          "name": "G5",
          "ticks": 463104,
          "time": 350.99661,
          "velocity": 0.905511811023622
        },
        {
          "duration": 0.1388849999999593,
          "durationTicks": 192,
          "midi": 67,
          "name": "G4",
          "ticks": 463296,
          "time": 351.135495,
          "velocity": 0.905511811023622
        },
        {
          "duration": 0.1388849999999593,
          "durationTicks": 192,
          "midi": 79,
          "name": "G5",
          "ticks": 463296,
          "time": 351.135495,
          "velocity": 0.905511811023622
        },
        {
          "duration": 0.13888500000001613,
          "durationTicks": 192,
          "midi": 67,
          "name": "G4",
          "ticks": 463488,
          "time": 351.27437999999995,
          "velocity": 0.905511811023622
        },
        {
          "duration": 0.13888500000001613,
          "durationTicks": 192,
          "midi": 79,
          "name": "G5",
          "ticks": 463488,
          "time": 351.27437999999995,
          "velocity": 0.905511811023622
        },
        {
          "duration": 0.13888500000001613,
          "durationTicks": 192,
          "midi": 67,
          "name": "G4",
          "ticks": 463680,
          "time": 351.41326499999997,
          "velocity": 0.905511811023622
        },
        {
          "duration": 0.13888500000001613,
          "durationTicks": 192,
          "midi": 79,
          "name": "G5",
          "ticks": 463680,
          "time": 351.41326499999997,
          "velocity": 0.905511811023622
        },
        {
          "duration": 0.1388849999999593,
          "durationTicks": 192,
          "midi": 67,
          "name": "G4",
          "ticks": 463872,
          "time": 351.55215,
          "velocity": 0.905511811023622
        },
        {
          "duration": 0.1388849999999593,
          "durationTicks": 192,
          "midi": 79,
          "name": "G5",
          "ticks": 463872,
          "time": 351.55215,
          "velocity": 0.905511811023622
        },
        {
          "duration": 0.13888500000001613,
          "durationTicks": 192,
          "midi": 67,
          "name": "G4",
          "ticks": 464064,
          "time": 351.69103499999994,
          "velocity": 0.905511811023622
        },
        {
          "duration": 0.13888500000001613,
          "durationTicks": 192,
          "midi": 79,
          "name": "G5",
          "ticks": 464064,
          "time": 351.69103499999994,
          "velocity": 0.905511811023622
        },
        {
          "duration": 0.13888500000001613,
          "durationTicks": 192,
          "midi": 67,
          "name": "G4",
          "ticks": 464256,
          "time": 351.82991999999996,
          "velocity": 0.905511811023622
        },
        {
          "duration": 0.13888500000001613,
          "durationTicks": 192,
          "midi": 79,
          "name": "G5",
          "ticks": 464256,
          "time": 351.82991999999996,
          "velocity": 0.905511811023622
        },
        {
          "duration": 0.13888500000001613,
          "durationTicks": 192,
          "midi": 67,
          "name": "G4",
          "ticks": 464448,
          "time": 351.968805,
          "velocity": 0.905511811023622
        },
        {
          "duration": 0.13888500000001613,
          "durationTicks": 192,
          "midi": 79,
          "name": "G5",
          "ticks": 464448,
          "time": 351.968805,
          "velocity": 0.905511811023622
        },
        {
          "duration": 0.13888500000001613,
          "durationTicks": 192,
          "midi": 67,
          "name": "G4",
          "ticks": 464640,
          "time": 352.10769,
          "velocity": 0.905511811023622
        },
        {
          "duration": 0.13888500000001613,
          "durationTicks": 192,
          "midi": 79,
          "name": "G5",
          "ticks": 464640,
          "time": 352.10769,
          "velocity": 0.905511811023622
        },
        {
          "duration": 0.1388849999999593,
          "durationTicks": 192,
          "midi": 67,
          "name": "G4",
          "ticks": 464832,
          "time": 352.246575,
          "velocity": 0.905511811023622
        },
        {
          "duration": 0.1388849999999593,
          "durationTicks": 192,
          "midi": 79,
          "name": "G5",
          "ticks": 464832,
          "time": 352.246575,
          "velocity": 0.905511811023622
        },
        {
          "duration": 0.13888500000001613,
          "durationTicks": 192,
          "midi": 67,
          "name": "G4",
          "ticks": 465024,
          "time": 352.38545999999997,
          "velocity": 0.905511811023622
        },
        {
          "duration": 0.13888500000001613,
          "durationTicks": 192,
          "midi": 79,
          "name": "G5",
          "ticks": 465024,
          "time": 352.38545999999997,
          "velocity": 0.905511811023622
        },
        {
          "duration": 0.13888500000001613,
          "durationTicks": 192,
          "midi": 67,
          "name": "G4",
          "ticks": 465216,
          "time": 352.524345,
          "velocity": 0.905511811023622
        },
        {
          "duration": 0.13888500000001613,
          "durationTicks": 192,
          "midi": 79,
          "name": "G5",
          "ticks": 465216,
          "time": 352.524345,
          "velocity": 0.905511811023622
        },
        {
          "duration": 1.0908999999999764,
          "durationTicks": 768,
          "midi": 63,
          "name": "D#4",
          "ticks": 465408,
          "time": 352.66323,
          "velocity": 0.968503937007874
        },
        {
          "duration": 1.0908999999999764,
          "durationTicks": 768,
          "midi": 75,
          "name": "D#5",
          "ticks": 465408,
          "time": 352.66323,
          "velocity": 0.968503937007874
        },
        {
          "duration": 0.1388849999999593,
          "durationTicks": 192,
          "midi": 65,
          "name": "F4",
          "ticks": 466368,
          "time": 353.893015,
          "velocity": 0.968503937007874
        },
        {
          "duration": 0.1388849999999593,
          "durationTicks": 192,
          "midi": 77,
          "name": "F5",
          "ticks": 466368,
          "time": 353.893015,
          "velocity": 0.968503937007874
        },
        {
          "duration": 0.13888500000001613,
          "durationTicks": 192,
          "midi": 65,
          "name": "F4",
          "ticks": 466560,
          "time": 354.03189999999995,
          "velocity": 0.968503937007874
        },
        {
          "duration": 0.13888500000001613,
          "durationTicks": 192,
          "midi": 77,
          "name": "F5",
          "ticks": 466560,
          "time": 354.03189999999995,
          "velocity": 0.968503937007874
        },
        {
          "duration": 0.13888500000001613,
          "durationTicks": 192,
          "midi": 65,
          "name": "F4",
          "ticks": 466752,
          "time": 354.17078499999997,
          "velocity": 0.968503937007874
        },
        {
          "duration": 0.13888500000001613,
          "durationTicks": 192,
          "midi": 77,
          "name": "F5",
          "ticks": 466752,
          "time": 354.17078499999997,
          "velocity": 0.968503937007874
        },
        {
          "duration": 1.7555399999999963,
          "durationTicks": 1536,
          "midi": 62,
          "name": "D4",
          "ticks": 466944,
          "time": 354.30967,
          "velocity": 0.968503937007874
        },
        {
          "duration": 1.7555399999999963,
          "durationTicks": 1536,
          "midi": 74,
          "name": "D5",
          "ticks": 466944,
          "time": 354.30967,
          "velocity": 0.968503937007874
        },
        {
          "duration": 0.1415049999999951,
          "durationTicks": 192,
          "midi": 67,
          "name": "G4",
          "ticks": 468672,
          "time": 356.206715,
          "velocity": 0.6141732283464567
        },
        {
          "duration": 0.1415049999999951,
          "durationTicks": 192,
          "midi": 67,
          "name": "G4",
          "ticks": 468864,
          "time": 356.34821999999997,
          "velocity": 0.6141732283464567
        },
        {
          "duration": 0.1415049999999951,
          "durationTicks": 192,
          "midi": 67,
          "name": "G4",
          "ticks": 469056,
          "time": 356.48972499999996,
          "velocity": 0.6141732283464567
        },
        {
          "duration": 1.8395649999999932,
          "durationTicks": 2496,
          "midi": 63,
          "name": "D#4",
          "ticks": 469248,
          "time": 356.63122999999996,
          "velocity": 0.6141732283464567
        },
        {
          "duration": 0.14150500000005195,
          "durationTicks": 192,
          "midi": 68,
          "name": "G#4",
          "ticks": 469440,
          "time": 356.77273499999995,
          "velocity": 0.6141732283464567
        },
        {
          "duration": 0.1415049999999951,
          "durationTicks": 192,
          "midi": 68,
          "name": "G#4",
          "ticks": 469632,
          "time": 356.91424,
          "velocity": 0.6141732283464567
        },
        {
          "duration": 0.1415049999999951,
          "durationTicks": 192,
          "midi": 68,
          "name": "G#4",
          "ticks": 469824,
          "time": 357.055745,
          "velocity": 0.6141732283464567
        },
        {
          "duration": 0.1415049999999951,
          "durationTicks": 192,
          "midi": 67,
          "name": "G4",
          "ticks": 470016,
          "time": 357.19725,
          "velocity": 0.6141732283464567
        },
        {
          "duration": 0.1415049999999951,
          "durationTicks": 192,
          "midi": 75,
          "name": "D#5",
          "ticks": 470208,
          "time": 357.338755,
          "velocity": 0.6141732283464567
        },
        {
          "duration": 0.1415049999999951,
          "durationTicks": 192,
          "midi": 75,
          "name": "D#5",
          "ticks": 470400,
          "time": 357.48026,
          "velocity": 0.6141732283464567
        },
        {
          "duration": 0.1415049999999951,
          "durationTicks": 192,
          "midi": 75,
          "name": "D#5",
          "ticks": 470592,
          "time": 357.621765,
          "velocity": 0.6141732283464567
        },
        {
          "duration": 0.8490300000000275,
          "durationTicks": 1152,
          "midi": 72,
          "name": "C5",
          "ticks": 470784,
          "time": 357.76327,
          "velocity": 0.6141732283464567
        },
        {
          "duration": 0.14150500000005195,
          "durationTicks": 192,
          "midi": 67,
          "name": "G4",
          "ticks": 471744,
          "time": 358.47079499999995,
          "velocity": 0.6141732283464567
        },
        {
          "duration": 0.1415049999999951,
          "durationTicks": 192,
          "midi": 67,
          "name": "G4",
          "ticks": 471936,
          "time": 358.6123,
          "velocity": 0.6141732283464567
        },
        {
          "duration": 0.1415049999999951,
          "durationTicks": 192,
          "midi": 67,
          "name": "G4",
          "ticks": 472128,
          "time": 358.753805,
          "velocity": 0.6141732283464567
        },
        {
          "duration": 1.8395649999999932,
          "durationTicks": 2496,
          "midi": 63,
          "name": "D#4",
          "ticks": 472320,
          "time": 358.89531,
          "velocity": 0.6141732283464567
        },
        {
          "duration": 0.1415049999999951,
          "durationTicks": 192,
          "midi": 68,
          "name": "G#4",
          "ticks": 472512,
          "time": 359.036815,
          "velocity": 0.6141732283464567
        },
        {
          "duration": 0.1415049999999951,
          "durationTicks": 192,
          "midi": 68,
          "name": "G#4",
          "ticks": 472704,
          "time": 359.17832,
          "velocity": 0.6141732283464567
        },
        {
          "duration": 0.1415049999999951,
          "durationTicks": 192,
          "midi": 68,
          "name": "G#4",
          "ticks": 472896,
          "time": 359.319825,
          "velocity": 0.6141732283464567
        },
        {
          "duration": 0.1415049999999951,
          "durationTicks": 192,
          "midi": 67,
          "name": "G4",
          "ticks": 473088,
          "time": 359.46133,
          "velocity": 0.6141732283464567
        },
        {
          "duration": 0.1415049999999951,
          "durationTicks": 192,
          "midi": 75,
          "name": "D#5",
          "ticks": 473280,
          "time": 359.60283499999997,
          "velocity": 0.6141732283464567
        },
        {
          "duration": 0.1415049999999951,
          "durationTicks": 192,
          "midi": 75,
          "name": "D#5",
          "ticks": 473472,
          "time": 359.74433999999997,
          "velocity": 0.6141732283464567
        },
        {
          "duration": 0.1415049999999951,
          "durationTicks": 192,
          "midi": 75,
          "name": "D#5",
          "ticks": 473664,
          "time": 359.88584499999996,
          "velocity": 0.6141732283464567
        },
        {
          "duration": 0.7075250000000324,
          "durationTicks": 960,
          "midi": 72,
          "name": "C5",
          "ticks": 473856,
          "time": 360.02734999999996,
          "velocity": 0.6141732283464567
        },
        {
          "duration": 0.1415049999999951,
          "durationTicks": 192,
          "midi": 62,
          "name": "D4",
          "ticks": 474816,
          "time": 360.734875,
          "velocity": 0.968503937007874
        },
        {
          "duration": 0.1415049999999951,
          "durationTicks": 192,
          "midi": 71,
          "name": "B4",
          "ticks": 474816,
          "time": 360.734875,
          "velocity": 0.968503937007874
        },
        {
          "duration": 0.1415049999999951,
          "durationTicks": 192,
          "midi": 71,
          "name": "B4",
          "ticks": 474816,
          "time": 360.734875,
          "velocity": 0.968503937007874
        },
        {
          "duration": 0.1415049999999951,
          "durationTicks": 192,
          "midi": 79,
          "name": "G5",
          "ticks": 474816,
          "time": 360.734875,
          "velocity": 0.968503937007874
        },
        {
          "duration": 0.1415049999999951,
          "durationTicks": 192,
          "midi": 62,
          "name": "D4",
          "ticks": 475008,
          "time": 360.87638,
          "velocity": 0.968503937007874
        },
        {
          "duration": 0.1415049999999951,
          "durationTicks": 192,
          "midi": 71,
          "name": "B4",
          "ticks": 475008,
          "time": 360.87638,
          "velocity": 0.968503937007874
        },
        {
          "duration": 0.1415049999999951,
          "durationTicks": 192,
          "midi": 71,
          "name": "B4",
          "ticks": 475008,
          "time": 360.87638,
          "velocity": 0.968503937007874
        },
        {
          "duration": 0.1415049999999951,
          "durationTicks": 192,
          "midi": 79,
          "name": "G5",
          "ticks": 475008,
          "time": 360.87638,
          "velocity": 0.968503937007874
        },
        {
          "duration": 0.1415049999999951,
          "durationTicks": 192,
          "midi": 62,
          "name": "D4",
          "ticks": 475200,
          "time": 361.017885,
          "velocity": 0.968503937007874
        },
        {
          "duration": 0.1415049999999951,
          "durationTicks": 192,
          "midi": 71,
          "name": "B4",
          "ticks": 475200,
          "time": 361.017885,
          "velocity": 0.968503937007874
        },
        {
          "duration": 0.1415049999999951,
          "durationTicks": 192,
          "midi": 71,
          "name": "B4",
          "ticks": 475200,
          "time": 361.017885,
          "velocity": 0.968503937007874
        },
        {
          "duration": 0.1415049999999951,
          "durationTicks": 192,
          "midi": 79,
          "name": "G5",
          "ticks": 475200,
          "time": 361.017885,
          "velocity": 0.968503937007874
        },
        {
          "duration": 0.2830099999999902,
          "durationTicks": 384,
          "midi": 63,
          "name": "D#4",
          "ticks": 475392,
          "time": 361.15939,
          "velocity": 0.968503937007874
        },
        {
          "duration": 0.2830099999999902,
          "durationTicks": 384,
          "midi": 72,
          "name": "C5",
          "ticks": 475392,
          "time": 361.15939,
          "velocity": 0.968503937007874
        },
        {
          "duration": 0.2830099999999902,
          "durationTicks": 384,
          "midi": 72,
          "name": "C5",
          "ticks": 475392,
          "time": 361.15939,
          "velocity": 0.968503937007874
        },
        {
          "duration": 0.2830099999999902,
          "durationTicks": 384,
          "midi": 79,
          "name": "G5",
          "ticks": 475392,
          "time": 361.15939,
          "velocity": 0.968503937007874
        },
        {
          "duration": 0.1415049999999951,
          "durationTicks": 192,
          "midi": 62,
          "name": "D4",
          "ticks": 476352,
          "time": 361.866915,
          "velocity": 0.968503937007874
        },
        {
          "duration": 0.1415049999999951,
          "durationTicks": 192,
          "midi": 71,
          "name": "B4",
          "ticks": 476352,
          "time": 361.866915,
          "velocity": 0.968503937007874
        },
        {
          "duration": 0.1415049999999951,
          "durationTicks": 192,
          "midi": 71,
          "name": "B4",
          "ticks": 476352,
          "time": 361.866915,
          "velocity": 0.968503937007874
        },
        {
          "duration": 0.1415049999999951,
          "durationTicks": 192,
          "midi": 79,
          "name": "G5",
          "ticks": 476352,
          "time": 361.866915,
          "velocity": 0.968503937007874
        },
        {
          "duration": 0.1415049999999951,
          "durationTicks": 192,
          "midi": 62,
          "name": "D4",
          "ticks": 476544,
          "time": 362.00842,
          "velocity": 0.968503937007874
        },
        {
          "duration": 0.1415049999999951,
          "durationTicks": 192,
          "midi": 71,
          "name": "B4",
          "ticks": 476544,
          "time": 362.00842,
          "velocity": 0.968503937007874
        },
        {
          "duration": 0.1415049999999951,
          "durationTicks": 192,
          "midi": 71,
          "name": "B4",
          "ticks": 476544,
          "time": 362.00842,
          "velocity": 0.968503937007874
        },
        {
          "duration": 0.1415049999999951,
          "durationTicks": 192,
          "midi": 79,
          "name": "G5",
          "ticks": 476544,
          "time": 362.00842,
          "velocity": 0.968503937007874
        },
        {
          "duration": 0.1415049999999951,
          "durationTicks": 192,
          "midi": 62,
          "name": "D4",
          "ticks": 476736,
          "time": 362.149925,
          "velocity": 0.968503937007874
        },
        {
          "duration": 0.1415049999999951,
          "durationTicks": 192,
          "midi": 71,
          "name": "B4",
          "ticks": 476736,
          "time": 362.149925,
          "velocity": 0.968503937007874
        },
        {
          "duration": 0.1415049999999951,
          "durationTicks": 192,
          "midi": 71,
          "name": "B4",
          "ticks": 476736,
          "time": 362.149925,
          "velocity": 0.968503937007874
        },
        {
          "duration": 0.1415049999999951,
          "durationTicks": 192,
          "midi": 79,
          "name": "G5",
          "ticks": 476736,
          "time": 362.149925,
          "velocity": 0.968503937007874
        },
        {
          "duration": 0.2830099999999902,
          "durationTicks": 384,
          "midi": 63,
          "name": "D#4",
          "ticks": 476928,
          "time": 362.29143,
          "velocity": 0.968503937007874
        },
        {
          "duration": 0.2830099999999902,
          "durationTicks": 384,
          "midi": 72,
          "name": "C5",
          "ticks": 476928,
          "time": 362.29143,
          "velocity": 0.968503937007874
        },
        {
          "duration": 0.2830099999999902,
          "durationTicks": 384,
          "midi": 72,
          "name": "C5",
          "ticks": 476928,
          "time": 362.29143,
          "velocity": 0.968503937007874
        },
        {
          "duration": 0.2830099999999902,
          "durationTicks": 384,
          "midi": 79,
          "name": "G5",
          "ticks": 476928,
          "time": 362.29143,
          "velocity": 0.968503937007874
        },
        {
          "duration": 0.1415049999999951,
          "durationTicks": 192,
          "midi": 62,
          "name": "D4",
          "ticks": 477888,
          "time": 362.99895499999997,
          "velocity": 0.968503937007874
        },
        {
          "duration": 0.1415049999999951,
          "durationTicks": 192,
          "midi": 71,
          "name": "B4",
          "ticks": 477888,
          "time": 362.99895499999997,
          "velocity": 0.968503937007874
        },
        {
          "duration": 0.1415049999999951,
          "durationTicks": 192,
          "midi": 71,
          "name": "B4",
          "ticks": 477888,
          "time": 362.99895499999997,
          "velocity": 0.968503937007874
        },
        {
          "duration": 0.1415049999999951,
          "durationTicks": 192,
          "midi": 79,
          "name": "G5",
          "ticks": 477888,
          "time": 362.99895499999997,
          "velocity": 0.968503937007874
        },
        {
          "duration": 0.1415049999999951,
          "durationTicks": 192,
          "midi": 62,
          "name": "D4",
          "ticks": 478080,
          "time": 363.14045999999996,
          "velocity": 0.968503937007874
        },
        {
          "duration": 0.1415049999999951,
          "durationTicks": 192,
          "midi": 71,
          "name": "B4",
          "ticks": 478080,
          "time": 363.14045999999996,
          "velocity": 0.968503937007874
        },
        {
          "duration": 0.1415049999999951,
          "durationTicks": 192,
          "midi": 71,
          "name": "B4",
          "ticks": 478080,
          "time": 363.14045999999996,
          "velocity": 0.968503937007874
        },
        {
          "duration": 0.1415049999999951,
          "durationTicks": 192,
          "midi": 79,
          "name": "G5",
          "ticks": 478080,
          "time": 363.14045999999996,
          "velocity": 0.968503937007874
        },
        {
          "duration": 0.1415049999999951,
          "durationTicks": 192,
          "midi": 62,
          "name": "D4",
          "ticks": 478272,
          "time": 363.28196499999996,
          "velocity": 0.968503937007874
        },
        {
          "duration": 0.1415049999999951,
          "durationTicks": 192,
          "midi": 71,
          "name": "B4",
          "ticks": 478272,
          "time": 363.28196499999996,
          "velocity": 0.968503937007874
        },
        {
          "duration": 0.1415049999999951,
          "durationTicks": 192,
          "midi": 71,
          "name": "B4",
          "ticks": 478272,
          "time": 363.28196499999996,
          "velocity": 0.968503937007874
        },
        {
          "duration": 0.1415049999999951,
          "durationTicks": 192,
          "midi": 79,
          "name": "G5",
          "ticks": 478272,
          "time": 363.28196499999996,
          "velocity": 0.968503937007874
        },
        {
          "duration": 0.28301000000004706,
          "durationTicks": 384,
          "midi": 63,
          "name": "D#4",
          "ticks": 478464,
          "time": 363.42346999999995,
          "velocity": 0.968503937007874
        },
        {
          "duration": 0.28301000000004706,
          "durationTicks": 384,
          "midi": 72,
          "name": "C5",
          "ticks": 478464,
          "time": 363.42346999999995,
          "velocity": 0.968503937007874
        },
        {
          "duration": 0.28301000000004706,
          "durationTicks": 384,
          "midi": 72,
          "name": "C5",
          "ticks": 478464,
          "time": 363.42346999999995,
          "velocity": 0.968503937007874
        },
        {
          "duration": 0.28301000000004706,
          "durationTicks": 384,
          "midi": 79,
          "name": "G5",
          "ticks": 478464,
          "time": 363.42346999999995,
          "velocity": 0.968503937007874
        },
        {
          "duration": 0.2830099999999902,
          "durationTicks": 384,
          "midi": 55,
          "name": "G3",
          "ticks": 478848,
          "time": 363.70648,
          "velocity": 0.968503937007874
        },
        {
          "duration": 0.2830099999999902,
          "durationTicks": 384,
          "midi": 62,
          "name": "D4",
          "ticks": 478848,
          "time": 363.70648,
          "velocity": 0.968503937007874
        },
        {
          "duration": 0.2830099999999902,
          "durationTicks": 384,
          "midi": 71,
          "name": "B4",
          "ticks": 478848,
          "time": 363.70648,
          "velocity": 0.968503937007874
        },
        {
          "duration": 0.2830099999999902,
          "durationTicks": 384,
          "midi": 62,
          "name": "D4",
          "ticks": 478848,
          "time": 363.70648,
          "velocity": 0.968503937007874
        },
        {
          "duration": 0.2830099999999902,
          "durationTicks": 384,
          "midi": 71,
          "name": "B4",
          "ticks": 478848,
          "time": 363.70648,
          "velocity": 0.968503937007874
        },
        {
          "duration": 0.2830099999999902,
          "durationTicks": 384,
          "midi": 79,
          "name": "G5",
          "ticks": 478848,
          "time": 363.70648,
          "velocity": 0.968503937007874
        },
        {
          "duration": 0.2830099999999902,
          "durationTicks": 384,
          "midi": 55,
          "name": "G3",
          "ticks": 479232,
          "time": 363.98949,
          "velocity": 0.968503937007874
        },
        {
          "duration": 0.2830099999999902,
          "durationTicks": 384,
          "midi": 63,
          "name": "D#4",
          "ticks": 479232,
          "time": 363.98949,
          "velocity": 0.968503937007874
        },
        {
          "duration": 0.2830099999999902,
          "durationTicks": 384,
          "midi": 72,
          "name": "C5",
          "ticks": 479232,
          "time": 363.98949,
          "velocity": 0.968503937007874
        },
        {
          "duration": 0.2830099999999902,
          "durationTicks": 384,
          "midi": 63,
          "name": "D#4",
          "ticks": 479232,
          "time": 363.98949,
          "velocity": 0.968503937007874
        },
        {
          "duration": 0.2830099999999902,
          "durationTicks": 384,
          "midi": 72,
          "name": "C5",
          "ticks": 479232,
          "time": 363.98949,
          "velocity": 0.968503937007874
        },
        {
          "duration": 0.2830099999999902,
          "durationTicks": 384,
          "midi": 79,
          "name": "G5",
          "ticks": 479232,
          "time": 363.98949,
          "velocity": 0.968503937007874
        },
        {
          "duration": 0.2830099999999902,
          "durationTicks": 384,
          "midi": 55,
          "name": "G3",
          "ticks": 479616,
          "time": 364.2725,
          "velocity": 0.968503937007874
        },
        {
          "duration": 0.2830099999999902,
          "durationTicks": 384,
          "midi": 62,
          "name": "D4",
          "ticks": 479616,
          "time": 364.2725,
          "velocity": 0.968503937007874
        },
        {
          "duration": 0.2830099999999902,
          "durationTicks": 384,
          "midi": 71,
          "name": "B4",
          "ticks": 479616,
          "time": 364.2725,
          "velocity": 0.968503937007874
        },
        {
          "duration": 0.2830099999999902,
          "durationTicks": 384,
          "midi": 62,
          "name": "D4",
          "ticks": 479616,
          "time": 364.2725,
          "velocity": 0.968503937007874
        },
        {
          "duration": 0.2830099999999902,
          "durationTicks": 384,
          "midi": 71,
          "name": "B4",
          "ticks": 479616,
          "time": 364.2725,
          "velocity": 0.968503937007874
        },
        {
          "duration": 0.2830099999999902,
          "durationTicks": 384,
          "midi": 79,
          "name": "G5",
          "ticks": 479616,
          "time": 364.2725,
          "velocity": 0.968503937007874
        },
        {
          "duration": 0.2830099999999902,
          "durationTicks": 384,
          "midi": 55,
          "name": "G3",
          "ticks": 480000,
          "time": 364.55550999999997,
          "velocity": 0.968503937007874
        },
        {
          "duration": 0.2830099999999902,
          "durationTicks": 384,
          "midi": 63,
          "name": "D#4",
          "ticks": 480000,
          "time": 364.55550999999997,
          "velocity": 0.968503937007874
        },
        {
          "duration": 0.2830099999999902,
          "durationTicks": 384,
          "midi": 72,
          "name": "C5",
          "ticks": 480000,
          "time": 364.55550999999997,
          "velocity": 0.968503937007874
        },
        {
          "duration": 0.2830099999999902,
          "durationTicks": 384,
          "midi": 63,
          "name": "D#4",
          "ticks": 480000,
          "time": 364.55550999999997,
          "velocity": 0.968503937007874
        },
        {
          "duration": 0.2830099999999902,
          "durationTicks": 384,
          "midi": 72,
          "name": "C5",
          "ticks": 480000,
          "time": 364.55550999999997,
          "velocity": 0.968503937007874
        },
        {
          "duration": 0.2830099999999902,
          "durationTicks": 384,
          "midi": 79,
          "name": "G5",
          "ticks": 480000,
          "time": 364.55550999999997,
          "velocity": 0.968503937007874
        },
        {
          "duration": 0.28301000000004706,
          "durationTicks": 384,
          "midi": 62,
          "name": "D4",
          "ticks": 480384,
          "time": 364.83851999999996,
          "velocity": 0.968503937007874
        },
        {
          "duration": 0.28301000000004706,
          "durationTicks": 384,
          "midi": 71,
          "name": "B4",
          "ticks": 480384,
          "time": 364.83851999999996,
          "velocity": 0.968503937007874
        },
        {
          "duration": 0.28301000000004706,
          "durationTicks": 384,
          "midi": 79,
          "name": "G5",
          "ticks": 480384,
          "time": 364.83851999999996,
          "velocity": 0.968503937007874
        },
        {
          "duration": 0.28301000000004706,
          "durationTicks": 384,
          "midi": 67,
          "name": "G4",
          "ticks": 480384,
          "time": 364.83851999999996,
          "velocity": 0.968503937007874
        },
        {
          "duration": 0.28301000000004706,
          "durationTicks": 384,
          "midi": 74,
          "name": "D5",
          "ticks": 480384,
          "time": 364.83851999999996,
          "velocity": 0.968503937007874
        },
        {
          "duration": 0.28301000000004706,
          "durationTicks": 384,
          "midi": 83,
          "name": "B5",
          "ticks": 480384,
          "time": 364.83851999999996,
          "velocity": 0.968503937007874
        },
        {
          "duration": 0.2830099999999902,
          "durationTicks": 384,
          "midi": 63,
          "name": "D#4",
          "ticks": 480768,
          "time": 365.12153,
          "velocity": 0.968503937007874
        },
        {
          "duration": 0.2830099999999902,
          "durationTicks": 384,
          "midi": 72,
          "name": "C5",
          "ticks": 480768,
          "time": 365.12153,
          "velocity": 0.968503937007874
        },
        {
          "duration": 0.2830099999999902,
          "durationTicks": 384,
          "midi": 79,
          "name": "G5",
          "ticks": 480768,
          "time": 365.12153,
          "velocity": 0.968503937007874
        },
        {
          "duration": 0.2830099999999902,
          "durationTicks": 384,
          "midi": 67,
          "name": "G4",
          "ticks": 480768,
          "time": 365.12153,
          "velocity": 0.968503937007874
        },
        {
          "duration": 0.2830099999999902,
          "durationTicks": 384,
          "midi": 75,
          "name": "D#5",
          "ticks": 480768,
          "time": 365.12153,
          "velocity": 0.968503937007874
        },
        {
          "duration": 0.2830099999999902,
          "durationTicks": 384,
          "midi": 84,
          "name": "C6",
          "ticks": 480768,
          "time": 365.12153,
          "velocity": 0.968503937007874
        },
        {
          "duration": 0.2830099999999902,
          "durationTicks": 384,
          "midi": 62,
          "name": "D4",
          "ticks": 481152,
          "time": 365.40454,
          "velocity": 0.968503937007874
        },
        {
          "duration": 0.2830099999999902,
          "durationTicks": 384,
          "midi": 71,
          "name": "B4",
          "ticks": 481152,
          "time": 365.40454,
          "velocity": 0.968503937007874
        },
        {
          "duration": 0.2830099999999902,
          "durationTicks": 384,
          "midi": 79,
          "name": "G5",
          "ticks": 481152,
          "time": 365.40454,
          "velocity": 0.968503937007874
        },
        {
          "duration": 0.2830099999999902,
          "durationTicks": 384,
          "midi": 67,
          "name": "G4",
          "ticks": 481152,
          "time": 365.40454,
          "velocity": 0.968503937007874
        },
        {
          "duration": 0.2830099999999902,
          "durationTicks": 384,
          "midi": 74,
          "name": "D5",
          "ticks": 481152,
          "time": 365.40454,
          "velocity": 0.968503937007874
        },
        {
          "duration": 0.2830099999999902,
          "durationTicks": 384,
          "midi": 83,
          "name": "B5",
          "ticks": 481152,
          "time": 365.40454,
          "velocity": 0.968503937007874
        },
        {
          "duration": 0.2830099999999902,
          "durationTicks": 384,
          "midi": 63,
          "name": "D#4",
          "ticks": 481536,
          "time": 365.68755,
          "velocity": 0.968503937007874
        },
        {
          "duration": 0.2830099999999902,
          "durationTicks": 384,
          "midi": 72,
          "name": "C5",
          "ticks": 481536,
          "time": 365.68755,
          "velocity": 0.968503937007874
        },
        {
          "duration": 0.2830099999999902,
          "durationTicks": 384,
          "midi": 79,
          "name": "G5",
          "ticks": 481536,
          "time": 365.68755,
          "velocity": 0.968503937007874
        },
        {
          "duration": 0.2830099999999902,
          "durationTicks": 384,
          "midi": 67,
          "name": "G4",
          "ticks": 481536,
          "time": 365.68755,
          "velocity": 0.968503937007874
        },
        {
          "duration": 0.2830099999999902,
          "durationTicks": 384,
          "midi": 75,
          "name": "D#5",
          "ticks": 481536,
          "time": 365.68755,
          "velocity": 0.968503937007874
        },
        {
          "duration": 0.2830099999999902,
          "durationTicks": 384,
          "midi": 84,
          "name": "C6",
          "ticks": 481536,
          "time": 365.68755,
          "velocity": 0.968503937007874
        },
        {
          "duration": 0.2830099999999902,
          "durationTicks": 384,
          "midi": 55,
          "name": "G3",
          "ticks": 482304,
          "time": 366.25356999999997,
          "velocity": 0.968503937007874
        },
        {
          "duration": 0.2830099999999902,
          "durationTicks": 384,
          "midi": 62,
          "name": "D4",
          "ticks": 482304,
          "time": 366.25356999999997,
          "velocity": 0.968503937007874
        },
        {
          "duration": 0.2830099999999902,
          "durationTicks": 384,
          "midi": 71,
          "name": "B4",
          "ticks": 482304,
          "time": 366.25356999999997,
          "velocity": 0.968503937007874
        },
        {
          "duration": 0.2830099999999902,
          "durationTicks": 384,
          "midi": 55,
          "name": "G3",
          "ticks": 482304,
          "time": 366.25356999999997,
          "velocity": 0.968503937007874
        },
        {
          "duration": 0.2830099999999902,
          "durationTicks": 384,
          "midi": 62,
          "name": "D4",
          "ticks": 482304,
          "time": 366.25356999999997,
          "velocity": 0.968503937007874
        },
        {
          "duration": 0.2830099999999902,
          "durationTicks": 384,
          "midi": 71,
          "name": "B4",
          "ticks": 482304,
          "time": 366.25356999999997,
          "velocity": 0.968503937007874
        },
        {
          "duration": 0.2830099999999902,
          "durationTicks": 384,
          "midi": 55,
          "name": "G3",
          "ticks": 483072,
          "time": 366.81959,
          "velocity": 0.968503937007874
        },
        {
          "duration": 0.2830099999999902,
          "durationTicks": 384,
          "midi": 63,
          "name": "D#4",
          "ticks": 483072,
          "time": 366.81959,
          "velocity": 0.968503937007874
        },
        {
          "duration": 0.2830099999999902,
          "durationTicks": 384,
          "midi": 72,
          "name": "C5",
          "ticks": 483072,
          "time": 366.81959,
          "velocity": 0.968503937007874
        },
        {
          "duration": 0.2830099999999902,
          "durationTicks": 384,
          "midi": 55,
          "name": "G3",
          "ticks": 483072,
          "time": 366.81959,
          "velocity": 0.968503937007874
        },
        {
          "duration": 0.2830099999999902,
          "durationTicks": 384,
          "midi": 63,
          "name": "D#4",
          "ticks": 483072,
          "time": 366.81959,
          "velocity": 0.968503937007874
        },
        {
          "duration": 0.2830099999999902,
          "durationTicks": 384,
          "midi": 72,
          "name": "C5",
          "ticks": 483072,
          "time": 366.81959,
          "velocity": 0.968503937007874
        }
      ],
      "endOfTrackTicks": 484608
    },
    {
      "channel": 8,
      "controlChanges": {},
      "pitchBends": [],
      "instrument": {
        "family": "ensemble",
        "number": 48,
        "name": "string ensemble 1"
      },
      "name": "STRINGS",
      "notes": [
        {
          "duration": 0.15,
          "durationTicks": 192,
          "midi": 55,
          "name": "G3",
          "ticks": 192,
          "time": 0.15,
          "velocity": 0.968503937007874
        },
        {
          "duration": 0.14999999999999997,
          "durationTicks": 192,
          "midi": 55,
          "name": "G3",
          "ticks": 384,
          "time": 0.3,
          "velocity": 0.968503937007874
        },
        {
          "duration": 0.15000000000000002,
          "durationTicks": 192,
          "midi": 55,
          "name": "G3",
          "ticks": 576,
          "time": 0.44999999999999996,
          "velocity": 0.968503937007874
        },
        {
          "duration": 1.1999999999999997,
          "durationTicks": 768,
          "midi": 51,
          "name": "D#3",
          "ticks": 768,
          "time": 0.6,
          "velocity": 0.968503937007874
        },
        {
          "duration": 0.1499999999999999,
          "durationTicks": 192,
          "midi": 53,
          "name": "F3",
          "ticks": 1728,
          "time": 1.9499999999999997,
          "velocity": 0.968503937007874
        },
        {
          "duration": 0.15000000000000036,
          "durationTicks": 192,
          "midi": 53,
          "name": "F3",
          "ticks": 1920,
          "time": 2.0999999999999996,
          "velocity": 0.968503937007874
        },
        {
          "duration": 0.1499999999999999,
          "durationTicks": 192,
          "midi": 53,
          "name": "F3",
          "ticks": 2112,
          "time": 2.25,
          "velocity": 0.968503937007874
        },
        {
          "duration": 1.6,
          "durationTicks": 1536,
          "midi": 50,
          "name": "D3",
          "ticks": 2304,
          "time": 2.4,
          "velocity": 0.968503937007874
        },
        {
          "duration": 0.1442300000000003,
          "durationTicks": 192,
          "midi": 68,
          "name": "G#4",
          "ticks": 4800,
          "time": 4.72115,
          "velocity": 0.7165354330708661
        },
        {
          "duration": 0.1442300000000003,
          "durationTicks": 192,
          "midi": 68,
          "name": "G#4",
          "ticks": 4992,
          "time": 4.86538,
          "velocity": 0.7165354330708661
        },
        {
          "duration": 0.14422999999999941,
          "durationTicks": 192,
          "midi": 68,
          "name": "G#4",
          "ticks": 5184,
          "time": 5.00961,
          "velocity": 0.7165354330708661
        },
        {
          "duration": 1.4423000000000004,
          "durationTicks": 1920,
          "midi": 67,
          "name": "G4",
          "ticks": 5376,
          "time": 5.15384,
          "velocity": 0.7165354330708661
        },
        {
          "duration": 0.14422999999999941,
          "durationTicks": 192,
          "midi": 68,
          "name": "G#4",
          "ticks": 7872,
          "time": 7.02883,
          "velocity": 0.7165354330708661
        },
        {
          "duration": 0.1442300000000003,
          "durationTicks": 192,
          "midi": 68,
          "name": "G#4",
          "ticks": 8064,
          "time": 7.1730599999999995,
          "velocity": 0.7165354330708661
        },
        {
          "duration": 0.1442300000000003,
          "durationTicks": 192,
          "midi": 68,
          "name": "G#4",
          "ticks": 8256,
          "time": 7.31729,
          "velocity": 0.7165354330708661
        },
        {
          "duration": 0.5769199999999994,
          "durationTicks": 768,
          "midi": 67,
          "name": "G4",
          "ticks": 8448,
          "time": 7.46152,
          "velocity": 0.7165354330708661
        },
        {
          "duration": 1.1538400000000006,
          "durationTicks": 1536,
          "midi": 62,
          "name": "D4",
          "ticks": 9216,
          "time": 8.03844,
          "velocity": 0.7165354330708661
        },
        {
          "duration": 0.1442300000000003,
          "durationTicks": 192,
          "midi": 63,
          "name": "D#4",
          "ticks": 10752,
          "time": 9.19228,
          "velocity": 0.7165354330708661
        },
        {
          "duration": 0.1442300000000003,
          "durationTicks": 192,
          "midi": 63,
          "name": "D#4",
          "ticks": 10944,
          "time": 9.33651,
          "velocity": 0.7165354330708661
        },
        {
          "duration": 0.1442300000000003,
          "durationTicks": 192,
          "midi": 63,
          "name": "D#4",
          "ticks": 11136,
          "time": 9.48074,
          "velocity": 0.7165354330708661
        },
        {
          "duration": 0.14422999999999853,
          "durationTicks": 192,
          "midi": 65,
          "name": "F4",
          "ticks": 11328,
          "time": 9.624970000000001,
          "velocity": 0.7165354330708661
        },
        {
          "duration": 0.7211499999999997,
          "durationTicks": 960,
          "midi": 67,
          "name": "G4",
          "ticks": 11520,
          "time": 9.7692,
          "velocity": 0.7165354330708661
        },
        {
          "duration": 0.1442300000000003,
          "durationTicks": 192,
          "midi": 63,
          "name": "D#4",
          "ticks": 12480,
          "time": 10.49035,
          "velocity": 0.7165354330708661
        },
        {
          "duration": 0.1442300000000003,
          "durationTicks": 192,
          "midi": 63,
          "name": "D#4",
          "ticks": 12672,
          "time": 10.63458,
          "velocity": 0.7165354330708661
        },
        {
          "duration": 0.1442300000000003,
          "durationTicks": 192,
          "midi": 65,
          "name": "F4",
          "ticks": 12864,
          "time": 10.77881,
          "velocity": 0.7165354330708661
        },
        {
          "duration": 0.43268999999999913,
          "durationTicks": 576,
          "midi": 67,
          "name": "G4",
          "ticks": 13056,
          "time": 10.92304,
          "velocity": 0.7165354330708661
        },
        {
          "duration": 0.1442300000000003,
          "durationTicks": 192,
          "midi": 62,
          "name": "D4",
          "ticks": 13632,
          "time": 11.35573,
          "velocity": 0.8582677165354331
        },
        {
          "duration": 0.28845999999999883,
          "durationTicks": 384,
          "midi": 63,
          "name": "D#4",
          "ticks": 13824,
          "time": 11.49996,
          "velocity": 0.905511811023622
        },
        {
          "duration": 0.2884600000000006,
          "durationTicks": 384,
          "midi": 56,
          "name": "G#3",
          "ticks": 14592,
          "time": 12.07688,
          "velocity": 0.905511811023622
        },
        {
          "duration": 0.28845999999999883,
          "durationTicks": 384,
          "midi": 55,
          "name": "G3",
          "ticks": 15360,
          "time": 12.6538,
          "velocity": 0.905511811023622
        },
        {
          "duration": 0.14285499999999907,
          "durationTicks": 192,
          "midi": 56,
          "name": "G#3",
          "ticks": 16320,
          "time": 14.751775,
          "velocity": 0.968503937007874
        },
        {
          "duration": 0.14285500000000084,
          "durationTicks": 192,
          "midi": 56,
          "name": "G#3",
          "ticks": 16512,
          "time": 14.89463,
          "velocity": 0.968503937007874
        },
        {
          "duration": 0.14285499999999907,
          "durationTicks": 192,
          "midi": 56,
          "name": "G#3",
          "ticks": 16704,
          "time": 15.037485,
          "velocity": 0.968503937007874
        },
        {
          "duration": 1.9047399999999985,
          "durationTicks": 1536,
          "midi": 53,
          "name": "F3",
          "ticks": 16896,
          "time": 15.18034,
          "velocity": 0.968503937007874
        },
        {
          "duration": 0.14285500000000084,
          "durationTicks": 192,
          "midi": 56,
          "name": "G#3",
          "ticks": 20160,
          "time": 18.370775,
          "velocity": 0.7165354330708661
        },
        {
          "duration": 0.1428549999999973,
          "durationTicks": 192,
          "midi": 56,
          "name": "G#3",
          "ticks": 20352,
          "time": 18.51363,
          "velocity": 0.7165354330708661
        },
        {
          "duration": 0.14285500000000084,
          "durationTicks": 192,
          "midi": 56,
          "name": "G#3",
          "ticks": 20544,
          "time": 18.656484999999996,
          "velocity": 0.7165354330708661
        },
        {
          "duration": 0.8571300000000015,
          "durationTicks": 1152,
          "midi": 55,
          "name": "G3",
          "ticks": 20736,
          "time": 18.799339999999997,
          "velocity": 0.7165354330708661
        },
        {
          "duration": 0.14285500000000084,
          "durationTicks": 192,
          "midi": 56,
          "name": "G#3",
          "ticks": 23232,
          "time": 20.656454999999998,
          "velocity": 0.7165354330708661
        },
        {
          "duration": 0.14285500000000084,
          "durationTicks": 192,
          "midi": 56,
          "name": "G#3",
          "ticks": 23424,
          "time": 20.79931,
          "velocity": 0.7165354330708661
        },
        {
          "duration": 0.14285500000000084,
          "durationTicks": 192,
          "midi": 56,
          "name": "G#3",
          "ticks": 23616,
          "time": 20.942165,
          "velocity": 0.7165354330708661
        },
        {
          "duration": 0.7142749999999971,
          "durationTicks": 960,
          "midi": 55,
          "name": "G3",
          "ticks": 23808,
          "time": 21.08502,
          "velocity": 0.7165354330708661
        },
        {
          "duration": 0.14285500000000084,
          "durationTicks": 192,
          "midi": 63,
          "name": "D#4",
          "ticks": 24768,
          "time": 21.799294999999997,
          "velocity": 0.7165354330708661
        },
        {
          "duration": 0.14285500000000084,
          "durationTicks": 192,
          "midi": 63,
          "name": "D#4",
          "ticks": 24960,
          "time": 21.942149999999998,
          "velocity": 0.7165354330708661
        },
        {
          "duration": 0.14285500000000084,
          "durationTicks": 192,
          "midi": 60,
          "name": "C4",
          "ticks": 25152,
          "time": 22.085005,
          "velocity": 0.7165354330708661
        },
        {
          "duration": 0.7142750000000007,
          "durationTicks": 960,
          "midi": 62,
          "name": "D4",
          "ticks": 25344,
          "time": 22.22786,
          "velocity": 0.7165354330708661
        },
        {
          "duration": 0.1428549999999973,
          "durationTicks": 192,
          "midi": 65,
          "name": "F4",
          "ticks": 26304,
          "time": 22.942135,
          "velocity": 0.7952755905511811
        },
        {
          "duration": 0.14285500000000084,
          "durationTicks": 192,
          "midi": 65,
          "name": "F4",
          "ticks": 26496,
          "time": 23.084989999999998,
          "velocity": 0.8582677165354331
        },
        {
          "duration": 0.14285500000000084,
          "durationTicks": 192,
          "midi": 62,
          "name": "D4",
          "ticks": 26688,
          "time": 23.227845,
          "velocity": 0.8582677165354331
        },
        {
          "duration": 0.7075250000000004,
          "durationTicks": 960,
          "midi": 63,
          "name": "D#4",
          "ticks": 26880,
          "time": 23.3707,
          "velocity": 0.905511811023622
        },
        {
          "duration": 0.14150499999999866,
          "durationTicks": 192,
          "midi": 63,
          "name": "D#4",
          "ticks": 27840,
          "time": 24.078225,
          "velocity": 0.968503937007874
        },
        {
          "duration": 0.1415050000000022,
          "durationTicks": 192,
          "midi": 63,
          "name": "D#4",
          "ticks": 28032,
          "time": 24.21973,
          "velocity": 0.968503937007874
        },
        {
          "duration": 0.14150499999999866,
          "durationTicks": 192,
          "midi": 60,
          "name": "C4",
          "ticks": 28224,
          "time": 24.361235,
          "velocity": 0.968503937007874
        },
        {
          "duration": 0.14150499999999866,
          "durationTicks": 192,
          "midi": 65,
          "name": "F4",
          "ticks": 28416,
          "time": 24.50274,
          "velocity": 0.968503937007874
        },
        {
          "duration": 0.1415050000000022,
          "durationTicks": 192,
          "midi": 65,
          "name": "F4",
          "ticks": 28608,
          "time": 24.644244999999998,
          "velocity": 0.968503937007874
        },
        {
          "duration": 0.14150499999999866,
          "durationTicks": 192,
          "midi": 65,
          "name": "F4",
          "ticks": 28800,
          "time": 24.78575,
          "velocity": 0.968503937007874
        },
        {
          "duration": 0.14150499999999866,
          "durationTicks": 192,
          "midi": 59,
          "name": "B3",
          "ticks": 28992,
          "time": 24.927255,
          "velocity": 0.968503937007874
        },
        {
          "duration": 0.1415050000000022,
          "durationTicks": 192,
          "midi": 67,
          "name": "G4",
          "ticks": 29184,
          "time": 25.068759999999997,
          "velocity": 0.968503937007874
        },
        {
          "duration": 0.14150499999999866,
          "durationTicks": 192,
          "midi": 67,
          "name": "G4",
          "ticks": 29376,
          "time": 25.210265,
          "velocity": 0.968503937007874
        },
        {
          "duration": 0.1415050000000022,
          "durationTicks": 192,
          "midi": 67,
          "name": "G4",
          "ticks": 29568,
          "time": 25.35177,
          "velocity": 0.968503937007874
        },
        {
          "duration": 0.14150499999999866,
          "durationTicks": 192,
          "midi": 58,
          "name": "A#3",
          "ticks": 29760,
          "time": 25.493275,
          "velocity": 0.968503937007874
        },
        {
          "duration": 0.1401849999999989,
          "durationTicks": 192,
          "midi": 68,
          "name": "G#4",
          "ticks": 29952,
          "time": 25.63478,
          "velocity": 0.968503937007874
        },
        {
          "duration": 0.14018500000000245,
          "durationTicks": 192,
          "midi": 56,
          "name": "G#3",
          "ticks": 30144,
          "time": 25.774964999999998,
          "velocity": 0.968503937007874
        },
        {
          "duration": 0.1401849999999989,
          "durationTicks": 192,
          "midi": 56,
          "name": "G#3",
          "ticks": 30336,
          "time": 25.91515,
          "velocity": 0.968503937007874
        },
        {
          "duration": 0.1401849999999989,
          "durationTicks": 192,
          "midi": 53,
          "name": "F3",
          "ticks": 30528,
          "time": 26.055335,
          "velocity": 0.968503937007874
        },
        {
          "duration": 0.14018500000000245,
          "durationTicks": 192,
          "midi": 58,
          "name": "A#3",
          "ticks": 30720,
          "time": 26.19552,
          "velocity": 0.968503937007874
        },
        {
          "duration": 0.1401849999999989,
          "durationTicks": 192,
          "midi": 58,
          "name": "A#3",
          "ticks": 30912,
          "time": 26.335705,
          "velocity": 0.968503937007874
        },
        {
          "duration": 0.1401849999999989,
          "durationTicks": 192,
          "midi": 58,
          "name": "A#3",
          "ticks": 31104,
          "time": 26.47589,
          "velocity": 0.968503937007874
        },
        {
          "duration": 0.1401849999999989,
          "durationTicks": 192,
          "midi": 55,
          "name": "G3",
          "ticks": 31296,
          "time": 26.616075,
          "velocity": 0.968503937007874
        },
        {
          "duration": 0.14018500000000245,
          "durationTicks": 192,
          "midi": 60,
          "name": "C4",
          "ticks": 31488,
          "time": 26.756259999999997,
          "velocity": 0.968503937007874
        },
        {
          "duration": 0.1401849999999989,
          "durationTicks": 192,
          "midi": 60,
          "name": "C4",
          "ticks": 31680,
          "time": 26.896445,
          "velocity": 0.968503937007874
        },
        {
          "duration": 0.1401849999999989,
          "durationTicks": 192,
          "midi": 60,
          "name": "C4",
          "ticks": 31872,
          "time": 27.03663,
          "velocity": 0.968503937007874
        },
        {
          "duration": 0.14018500000000245,
          "durationTicks": 192,
          "midi": 56,
          "name": "G#3",
          "ticks": 32064,
          "time": 27.176814999999998,
          "velocity": 0.968503937007874
        },
        {
          "duration": 0.1401849999999989,
          "durationTicks": 192,
          "midi": 65,
          "name": "F4",
          "ticks": 32256,
          "time": 27.317,
          "velocity": 0.968503937007874
        },
        {
          "duration": 0.1401849999999989,
          "durationTicks": 192,
          "midi": 65,
          "name": "F4",
          "ticks": 32448,
          "time": 27.457185,
          "velocity": 0.968503937007874
        },
        {
          "duration": 0.14018500000000245,
          "durationTicks": 192,
          "midi": 65,
          "name": "F4",
          "ticks": 32640,
          "time": 27.597369999999998,
          "velocity": 0.968503937007874
        },
        {
          "duration": 0.1401849999999989,
          "durationTicks": 192,
          "midi": 62,
          "name": "D4",
          "ticks": 32832,
          "time": 27.737555,
          "velocity": 0.968503937007874
        },
        {
          "duration": 0.13888499999999837,
          "durationTicks": 192,
          "midi": 63,
          "name": "D#4",
          "ticks": 33024,
          "time": 27.87774,
          "velocity": 0.905511811023622
        },
        {
          "duration": 0.13888500000000192,
          "durationTicks": 192,
          "midi": 48,
          "name": "C3",
          "ticks": 33216,
          "time": 28.016624999999998,
          "velocity": 0.905511811023622
        },
        {
          "duration": 0.13888500000000192,
          "durationTicks": 192,
          "midi": 51,
          "name": "D#3",
          "ticks": 33216,
          "time": 28.016624999999998,
          "velocity": 0.905511811023622
        },
        {
          "duration": 0.13888499999999837,
          "durationTicks": 192,
          "midi": 48,
          "name": "C3",
          "ticks": 33408,
          "time": 28.15551,
          "velocity": 0.905511811023622
        },
        {
          "duration": 0.13888499999999837,
          "durationTicks": 192,
          "midi": 51,
          "name": "D#3",
          "ticks": 33408,
          "time": 28.15551,
          "velocity": 0.905511811023622
        },
        {
          "duration": 0.13888500000000192,
          "durationTicks": 192,
          "midi": 48,
          "name": "C3",
          "ticks": 33600,
          "time": 28.294394999999998,
          "velocity": 0.905511811023622
        },
        {
          "duration": 0.13888500000000192,
          "durationTicks": 192,
          "midi": 51,
          "name": "D#3",
          "ticks": 33600,
          "time": 28.294394999999998,
          "velocity": 0.905511811023622
        },
        {
          "duration": 0.13888499999999837,
          "durationTicks": 192,
          "midi": 48,
          "name": "C3",
          "ticks": 33792,
          "time": 28.43328,
          "velocity": 0.905511811023622
        },
        {
          "duration": 0.13888499999999837,
          "durationTicks": 192,
          "midi": 51,
          "name": "D#3",
          "ticks": 33792,
          "time": 28.43328,
          "velocity": 0.905511811023622
        },
        {
          "duration": 0.13888500000000192,
          "durationTicks": 192,
          "midi": 48,
          "name": "C3",
          "ticks": 33984,
          "time": 28.572165,
          "velocity": 0.905511811023622
        },
        {
          "duration": 0.13888500000000192,
          "durationTicks": 192,
          "midi": 51,
          "name": "D#3",
          "ticks": 33984,
          "time": 28.572165,
          "velocity": 0.905511811023622
        },
        {
          "duration": 0.13888499999999837,
          "durationTicks": 192,
          "midi": 48,
          "name": "C3",
          "ticks": 34176,
          "time": 28.71105,
          "velocity": 0.905511811023622
        },
        {
          "duration": 0.13888499999999837,
          "durationTicks": 192,
          "midi": 51,
          "name": "D#3",
          "ticks": 34176,
          "time": 28.71105,
          "velocity": 0.905511811023622
        },
        {
          "duration": 0.13888500000000192,
          "durationTicks": 192,
          "midi": 48,
          "name": "C3",
          "ticks": 34368,
          "time": 28.849935,
          "velocity": 0.905511811023622
        },
        {
          "duration": 0.13888500000000192,
          "durationTicks": 192,
          "midi": 51,
          "name": "D#3",
          "ticks": 34368,
          "time": 28.849935,
          "velocity": 0.905511811023622
        },
        {
          "duration": 0.13888499999999837,
          "durationTicks": 192,
          "midi": 48,
          "name": "C3",
          "ticks": 34560,
          "time": 28.98882,
          "velocity": 0.905511811023622
        },
        {
          "duration": 0.13888499999999837,
          "durationTicks": 192,
          "midi": 51,
          "name": "D#3",
          "ticks": 34560,
          "time": 28.98882,
          "velocity": 0.905511811023622
        },
        {
          "duration": 0.13888500000000192,
          "durationTicks": 192,
          "midi": 48,
          "name": "C3",
          "ticks": 34752,
          "time": 29.127705,
          "velocity": 0.905511811023622
        },
        {
          "duration": 0.13888500000000192,
          "durationTicks": 192,
          "midi": 51,
          "name": "D#3",
          "ticks": 34752,
          "time": 29.127705,
          "velocity": 0.905511811023622
        },
        {
          "duration": 0.13888499999999837,
          "durationTicks": 192,
          "midi": 48,
          "name": "C3",
          "ticks": 34944,
          "time": 29.26659,
          "velocity": 0.905511811023622
        },
        {
          "duration": 0.13888499999999837,
          "durationTicks": 192,
          "midi": 51,
          "name": "D#3",
          "ticks": 34944,
          "time": 29.26659,
          "velocity": 0.905511811023622
        },
        {
          "duration": 0.13888499999999837,
          "durationTicks": 192,
          "midi": 48,
          "name": "C3",
          "ticks": 35136,
          "time": 29.405475,
          "velocity": 0.905511811023622
        },
        {
          "duration": 0.13888499999999837,
          "durationTicks": 192,
          "midi": 51,
          "name": "D#3",
          "ticks": 35136,
          "time": 29.405475,
          "velocity": 0.905511811023622
        },
        {
          "duration": 0.13888500000000192,
          "durationTicks": 192,
          "midi": 48,
          "name": "C3",
          "ticks": 35328,
          "time": 29.544359999999998,
          "velocity": 0.905511811023622
        },
        {
          "duration": 0.13888500000000192,
          "durationTicks": 192,
          "midi": 51,
          "name": "D#3",
          "ticks": 35328,
          "time": 29.544359999999998,
          "velocity": 0.905511811023622
        },
        {
          "duration": 0.13888499999999837,
          "durationTicks": 192,
          "midi": 48,
          "name": "C3",
          "ticks": 35520,
          "time": 29.683245,
          "velocity": 0.905511811023622
        },
        {
          "duration": 0.13888499999999837,
          "durationTicks": 192,
          "midi": 51,
          "name": "D#3",
          "ticks": 35520,
          "time": 29.683245,
          "velocity": 0.905511811023622
        },
        {
          "duration": 0.13888500000000192,
          "durationTicks": 192,
          "midi": 48,
          "name": "C3",
          "ticks": 35712,
          "time": 29.822129999999998,
          "velocity": 0.905511811023622
        },
        {
          "duration": 0.13888500000000192,
          "durationTicks": 192,
          "midi": 51,
          "name": "D#3",
          "ticks": 35712,
          "time": 29.822129999999998,
          "velocity": 0.905511811023622
        },
        {
          "duration": 0.13888499999999837,
          "durationTicks": 192,
          "midi": 48,
          "name": "C3",
          "ticks": 35904,
          "time": 29.961015,
          "velocity": 0.905511811023622
        },
        {
          "duration": 0.13888499999999837,
          "durationTicks": 192,
          "midi": 51,
          "name": "D#3",
          "ticks": 35904,
          "time": 29.961015,
          "velocity": 0.905511811023622
        },
        {
          "duration": 0.13888500000000192,
          "durationTicks": 192,
          "midi": 50,
          "name": "D3",
          "ticks": 36096,
          "time": 30.099899999999998,
          "velocity": 0.905511811023622
        },
        {
          "duration": 0.13888500000000192,
          "durationTicks": 192,
          "midi": 53,
          "name": "F3",
          "ticks": 36096,
          "time": 30.099899999999998,
          "velocity": 0.905511811023622
        },
        {
          "duration": 0.13888499999999837,
          "durationTicks": 192,
          "midi": 50,
          "name": "D3",
          "ticks": 36288,
          "time": 30.238785,
          "velocity": 0.905511811023622
        },
        {
          "duration": 0.13888499999999837,
          "durationTicks": 192,
          "midi": 53,
          "name": "F3",
          "ticks": 36288,
          "time": 30.238785,
          "velocity": 0.905511811023622
        },
        {
          "duration": 0.13888500000000192,
          "durationTicks": 192,
          "midi": 50,
          "name": "D3",
          "ticks": 36480,
          "time": 30.37767,
          "velocity": 0.905511811023622
        },
        {
          "duration": 0.13888500000000192,
          "durationTicks": 192,
          "midi": 53,
          "name": "F3",
          "ticks": 36480,
          "time": 30.37767,
          "velocity": 0.905511811023622
        },
        {
          "duration": 0.13888499999999837,
          "durationTicks": 192,
          "midi": 50,
          "name": "D3",
          "ticks": 36672,
          "time": 30.516555,
          "velocity": 0.905511811023622
        },
        {
          "duration": 0.13888499999999837,
          "durationTicks": 192,
          "midi": 53,
          "name": "F3",
          "ticks": 36672,
          "time": 30.516555,
          "velocity": 0.905511811023622
        },
        {
          "duration": 0.13888500000000192,
          "durationTicks": 192,
          "midi": 50,
          "name": "D3",
          "ticks": 36864,
          "time": 30.65544,
          "velocity": 0.905511811023622
        },
        {
          "duration": 0.13888500000000192,
          "durationTicks": 192,
          "midi": 53,
          "name": "F3",
          "ticks": 36864,
          "time": 30.65544,
          "velocity": 0.905511811023622
        },
        {
          "duration": 0.13888499999999837,
          "durationTicks": 192,
          "midi": 50,
          "name": "D3",
          "ticks": 37056,
          "time": 30.794325,
          "velocity": 0.905511811023622
        },
        {
          "duration": 0.13888499999999837,
          "durationTicks": 192,
          "midi": 53,
          "name": "F3",
          "ticks": 37056,
          "time": 30.794325,
          "velocity": 0.905511811023622
        },
        {
          "duration": 0.13888500000000192,
          "durationTicks": 192,
          "midi": 50,
          "name": "D3",
          "ticks": 37248,
          "time": 30.93321,
          "velocity": 0.905511811023622
        },
        {
          "duration": 0.13888500000000192,
          "durationTicks": 192,
          "midi": 53,
          "name": "F3",
          "ticks": 37248,
          "time": 30.93321,
          "velocity": 0.905511811023622
        },
        {
          "duration": 0.13888499999999837,
          "durationTicks": 192,
          "midi": 50,
          "name": "D3",
          "ticks": 37440,
          "time": 31.072095,
          "velocity": 0.905511811023622
        },
        {
          "duration": 0.13888499999999837,
          "durationTicks": 192,
          "midi": 53,
          "name": "F3",
          "ticks": 37440,
          "time": 31.072095,
          "velocity": 0.905511811023622
        },
        {
          "duration": 0.13888500000000192,
          "durationTicks": 192,
          "midi": 50,
          "name": "D3",
          "ticks": 37632,
          "time": 31.21098,
          "velocity": 0.905511811023622
        },
        {
          "duration": 0.13888500000000192,
          "durationTicks": 192,
          "midi": 53,
          "name": "F3",
          "ticks": 37632,
          "time": 31.21098,
          "velocity": 0.905511811023622
        },
        {
          "duration": 0.13888499999999837,
          "durationTicks": 192,
          "midi": 50,
          "name": "D3",
          "ticks": 37824,
          "time": 31.349865,
          "velocity": 0.905511811023622
        },
        {
          "duration": 0.13888499999999837,
          "durationTicks": 192,
          "midi": 53,
          "name": "F3",
          "ticks": 37824,
          "time": 31.349865,
          "velocity": 0.905511811023622
        },
        {
          "duration": 0.13888499999999837,
          "durationTicks": 192,
          "midi": 50,
          "name": "D3",
          "ticks": 38016,
          "time": 31.48875,
          "velocity": 0.905511811023622
        },
        {
          "duration": 0.13888499999999837,
          "durationTicks": 192,
          "midi": 53,
          "name": "F3",
          "ticks": 38016,
          "time": 31.48875,
          "velocity": 0.905511811023622
        },
        {
          "duration": 0.13888500000000192,
          "durationTicks": 192,
          "midi": 50,
          "name": "D3",
          "ticks": 38208,
          "time": 31.627634999999998,
          "velocity": 0.905511811023622
        },
        {
          "duration": 0.13888500000000192,
          "durationTicks": 192,
          "midi": 53,
          "name": "F3",
          "ticks": 38208,
          "time": 31.627634999999998,
          "velocity": 0.905511811023622
        },
        {
          "duration": 0.13888499999999837,
          "durationTicks": 192,
          "midi": 50,
          "name": "D3",
          "ticks": 38400,
          "time": 31.76652,
          "velocity": 0.905511811023622
        },
        {
          "duration": 0.13888499999999837,
          "durationTicks": 192,
          "midi": 53,
          "name": "F3",
          "ticks": 38400,
          "time": 31.76652,
          "velocity": 0.905511811023622
        },
        {
          "duration": 0.13888499999999837,
          "durationTicks": 192,
          "midi": 50,
          "name": "D3",
          "ticks": 38592,
          "time": 31.905405,
          "velocity": 0.905511811023622
        },
        {
          "duration": 0.13888499999999837,
          "durationTicks": 192,
          "midi": 53,
          "name": "F3",
          "ticks": 38592,
          "time": 31.905405,
          "velocity": 0.905511811023622
        },
        {
          "duration": 0.13888500000000192,
          "durationTicks": 192,
          "midi": 48,
          "name": "C3",
          "ticks": 38784,
          "time": 32.04429,
          "velocity": 0.905511811023622
        },
        {
          "duration": 0.13888500000000192,
          "durationTicks": 192,
          "midi": 51,
          "name": "D#3",
          "ticks": 38784,
          "time": 32.04429,
          "velocity": 0.905511811023622
        },
        {
          "duration": 0.13888500000000192,
          "durationTicks": 192,
          "midi": 48,
          "name": "C3",
          "ticks": 38976,
          "time": 32.183175,
          "velocity": 0.905511811023622
        },
        {
          "duration": 0.13888500000000192,
          "durationTicks": 192,
          "midi": 51,
          "name": "D#3",
          "ticks": 38976,
          "time": 32.183175,
          "velocity": 0.905511811023622
        },
        {
          "duration": 0.13888500000000192,
          "durationTicks": 192,
          "midi": 48,
          "name": "C3",
          "ticks": 39168,
          "time": 32.32206,
          "velocity": 0.968503937007874
        },
        {
          "duration": 0.13888500000000192,
          "durationTicks": 192,
          "midi": 51,
          "name": "D#3",
          "ticks": 39168,
          "time": 32.32206,
          "velocity": 0.968503937007874
        },
        {
          "duration": 0.13888499999999482,
          "durationTicks": 192,
          "midi": 51,
          "name": "D#3",
          "ticks": 39360,
          "time": 32.460945,
          "velocity": 0.968503937007874
        },
        {
          "duration": 0.13888499999999482,
          "durationTicks": 192,
          "midi": 54,
          "name": "F#3",
          "ticks": 39360,
          "time": 32.460945,
          "velocity": 0.968503937007874
        },
        {
          "duration": 0.13888500000000192,
          "durationTicks": 192,
          "midi": 51,
          "name": "D#3",
          "ticks": 39552,
          "time": 32.59983,
          "velocity": 0.968503937007874
        },
        {
          "duration": 0.13888500000000192,
          "durationTicks": 192,
          "midi": 54,
          "name": "F#3",
          "ticks": 39552,
          "time": 32.59983,
          "velocity": 0.968503937007874
        },
        {
          "duration": 0.13888500000000192,
          "durationTicks": 192,
          "midi": 51,
          "name": "D#3",
          "ticks": 39744,
          "time": 32.738715,
          "velocity": 0.968503937007874
        },
        {
          "duration": 0.13888500000000192,
          "durationTicks": 192,
          "midi": 54,
          "name": "F#3",
          "ticks": 39744,
          "time": 32.738715,
          "velocity": 0.968503937007874
        },
        {
          "duration": 0.13888500000000192,
          "durationTicks": 192,
          "midi": 51,
          "name": "D#3",
          "ticks": 39936,
          "time": 32.8776,
          "velocity": 0.968503937007874
        },
        {
          "duration": 0.13888500000000192,
          "durationTicks": 192,
          "midi": 54,
          "name": "F#3",
          "ticks": 39936,
          "time": 32.8776,
          "velocity": 0.968503937007874
        },
        {
          "duration": 0.13888499999999482,
          "durationTicks": 192,
          "midi": 51,
          "name": "D#3",
          "ticks": 40128,
          "time": 33.016485,
          "velocity": 0.968503937007874
        },
        {
          "duration": 0.13888499999999482,
          "durationTicks": 192,
          "midi": 54,
          "name": "F#3",
          "ticks": 40128,
          "time": 33.016485,
          "velocity": 0.968503937007874
        },
        {
          "duration": 0.13888500000000192,
          "durationTicks": 192,
          "midi": 51,
          "name": "D#3",
          "ticks": 40320,
          "time": 33.15537,
          "velocity": 0.968503937007874
        },
        {
          "duration": 0.13888500000000192,
          "durationTicks": 192,
          "midi": 54,
          "name": "F#3",
          "ticks": 40320,
          "time": 33.15537,
          "velocity": 0.968503937007874
        },
        {
          "duration": 0.13888500000000192,
          "durationTicks": 192,
          "midi": 51,
          "name": "D#3",
          "ticks": 40512,
          "time": 33.294255,
          "velocity": 0.968503937007874
        },
        {
          "duration": 0.13888500000000192,
          "durationTicks": 192,
          "midi": 54,
          "name": "F#3",
          "ticks": 40512,
          "time": 33.294255,
          "velocity": 0.968503937007874
        },
        {
          "duration": 0.13888499999999482,
          "durationTicks": 192,
          "midi": 51,
          "name": "D#3",
          "ticks": 40704,
          "time": 33.43314,
          "velocity": 0.968503937007874
        },
        {
          "duration": 0.13888499999999482,
          "durationTicks": 192,
          "midi": 54,
          "name": "F#3",
          "ticks": 40704,
          "time": 33.43314,
          "velocity": 0.968503937007874
        },
        {
          "duration": 0.13888500000000192,
          "durationTicks": 192,
          "midi": 51,
          "name": "D#3",
          "ticks": 40896,
          "time": 33.572025,
          "velocity": 0.968503937007874
        },
        {
          "duration": 0.13888500000000192,
          "durationTicks": 192,
          "midi": 54,
          "name": "F#3",
          "ticks": 40896,
          "time": 33.572025,
          "velocity": 0.968503937007874
        },
        {
          "duration": 0.13888500000000192,
          "durationTicks": 192,
          "midi": 51,
          "name": "D#3",
          "ticks": 41088,
          "time": 33.71091,
          "velocity": 0.968503937007874
        },
        {
          "duration": 0.13888500000000192,
          "durationTicks": 192,
          "midi": 54,
          "name": "F#3",
          "ticks": 41088,
          "time": 33.71091,
          "velocity": 0.968503937007874
        },
        {
          "duration": 0.13888500000000192,
          "durationTicks": 192,
          "midi": 51,
          "name": "D#3",
          "ticks": 41280,
          "time": 33.849795,
          "velocity": 0.968503937007874
        },
        {
          "duration": 0.13888500000000192,
          "durationTicks": 192,
          "midi": 54,
          "name": "F#3",
          "ticks": 41280,
          "time": 33.849795,
          "velocity": 0.968503937007874
        },
        {
          "duration": 0.13888499999999482,
          "durationTicks": 192,
          "midi": 51,
          "name": "D#3",
          "ticks": 41472,
          "time": 33.98868,
          "velocity": 0.968503937007874
        },
        {
          "duration": 0.13888499999999482,
          "durationTicks": 192,
          "midi": 54,
          "name": "F#3",
          "ticks": 41472,
          "time": 33.98868,
          "velocity": 0.968503937007874
        },
        {
          "duration": 0.13888500000000192,
          "durationTicks": 192,
          "midi": 51,
          "name": "D#3",
          "ticks": 41664,
          "time": 34.127565,
          "velocity": 0.968503937007874
        },
        {
          "duration": 0.13888500000000192,
          "durationTicks": 192,
          "midi": 54,
          "name": "F#3",
          "ticks": 41664,
          "time": 34.127565,
          "velocity": 0.968503937007874
        },
        {
          "duration": 0.13888500000000192,
          "durationTicks": 192,
          "midi": 51,
          "name": "D#3",
          "ticks": 41856,
          "time": 34.26645,
          "velocity": 0.968503937007874
        },
        {
          "duration": 0.13888500000000192,
          "durationTicks": 192,
          "midi": 54,
          "name": "F#3",
          "ticks": 41856,
          "time": 34.26645,
          "velocity": 0.968503937007874
        },
        {
          "duration": 0.13888499999999482,
          "durationTicks": 192,
          "midi": 51,
          "name": "D#3",
          "ticks": 42048,
          "time": 34.405335,
          "velocity": 0.968503937007874
        },
        {
          "duration": 0.13888499999999482,
          "durationTicks": 192,
          "midi": 54,
          "name": "F#3",
          "ticks": 42048,
          "time": 34.405335,
          "velocity": 0.968503937007874
        },
        {
          "duration": 0.27777000000000385,
          "durationTicks": 384,
          "midi": 51,
          "name": "D#3",
          "ticks": 42240,
          "time": 34.544219999999996,
          "velocity": 0.968503937007874
        },
        {
          "duration": 0.27777000000000385,
          "durationTicks": 384,
          "midi": 54,
          "name": "F#3",
          "ticks": 42240,
          "time": 34.544219999999996,
          "velocity": 0.968503937007874
        },
        {
          "duration": 0.27777000000000385,
          "durationTicks": 384,
          "midi": 53,
          "name": "F3",
          "ticks": 43776,
          "time": 35.6553,
          "velocity": 0.968503937007874
        },
        {
          "duration": 0.5769200000000012,
          "durationTicks": 768,
          "midi": 63,
          "name": "D#4",
          "ticks": 47616,
          "time": 38.518519999999995,
          "velocity": 0.7165354330708661
        },
        {
          "duration": 0.5769200000000012,
          "durationTicks": 768,
          "midi": 65,
          "name": "F4",
          "ticks": 48384,
          "time": 39.095439999999996,
          "velocity": 0.7165354330708661
        },
        {
          "duration": 0.5769200000000012,
          "durationTicks": 768,
          "midi": 62,
          "name": "D4",
          "ticks": 49152,
          "time": 39.67236,
          "velocity": 0.7165354330708661
        },
        {
          "duration": 0.5769200000000012,
          "durationTicks": 768,
          "midi": 63,
          "name": "D#4",
          "ticks": 49920,
          "time": 40.24928,
          "velocity": 0.7165354330708661
        },
        {
          "duration": 0.5769200000000012,
          "durationTicks": 768,
          "midi": 63,
          "name": "D#4",
          "ticks": 50688,
          "time": 40.8262,
          "velocity": 0.7165354330708661
        },
        {
          "duration": 0.5660200000000017,
          "durationTicks": 768,
          "midi": 65,
          "name": "F4",
          "ticks": 51456,
          "time": 41.40312,
          "velocity": 0.7165354330708661
        },
        {
          "duration": 0.5660200000000017,
          "durationTicks": 768,
          "midi": 62,
          "name": "D4",
          "ticks": 52224,
          "time": 41.96914,
          "velocity": 0.7165354330708661
        },
        {
          "duration": 0.5660199999999946,
          "durationTicks": 768,
          "midi": 63,
          "name": "D#4",
          "ticks": 52992,
          "time": 42.535160000000005,
          "velocity": 0.7165354330708661
        },
        {
          "duration": 0.5660200000000017,
          "durationTicks": 768,
          "midi": 63,
          "name": "D#4",
          "ticks": 53760,
          "time": 43.10118,
          "velocity": 0.7165354330708661
        },
        {
          "duration": 0.5555400000000006,
          "durationTicks": 768,
          "midi": 65,
          "name": "F4",
          "ticks": 54528,
          "time": 43.6672,
          "velocity": 0.7165354330708661
        },
        {
          "duration": 0.5555400000000006,
          "durationTicks": 768,
          "midi": 62,
          "name": "D4",
          "ticks": 55296,
          "time": 44.22274,
          "velocity": 0.7165354330708661
        },
        {
          "duration": 0.5555400000000006,
          "durationTicks": 768,
          "midi": 63,
          "name": "D#4",
          "ticks": 56064,
          "time": 44.77828,
          "velocity": 0.7165354330708661
        },
        {
          "duration": 0.5555400000000006,
          "durationTicks": 768,
          "midi": 63,
          "name": "D#4",
          "ticks": 56832,
          "time": 45.33382,
          "velocity": 0.7165354330708661
        },
        {
          "duration": 0.5555400000000006,
          "durationTicks": 768,
          "midi": 65,
          "name": "F4",
          "ticks": 57600,
          "time": 45.88936,
          "velocity": 0.7165354330708661
        },
        {
          "duration": 0.5555399999999935,
          "durationTicks": 768,
          "midi": 65,
          "name": "F4",
          "ticks": 58368,
          "time": 46.444900000000004,
          "velocity": 0.7165354330708661
        },
        {
          "duration": 0.5555400000000006,
          "durationTicks": 768,
          "midi": 60,
          "name": "C4",
          "ticks": 59136,
          "time": 47.00044,
          "velocity": 0.7165354330708661
        },
        {
          "duration": 0.5555400000000006,
          "durationTicks": 768,
          "midi": 65,
          "name": "F4",
          "ticks": 59904,
          "time": 47.55598,
          "velocity": 0.7165354330708661
        },
        {
          "duration": 0.5555400000000006,
          "durationTicks": 768,
          "midi": 67,
          "name": "G4",
          "ticks": 60672,
          "time": 48.11152,
          "velocity": 0.7165354330708661
        },
        {
          "duration": 0.5555400000000006,
          "durationTicks": 768,
          "midi": 67,
          "name": "G4",
          "ticks": 61440,
          "time": 48.66706,
          "velocity": 0.7165354330708661
        },
        {
          "duration": 0.5555400000000006,
          "durationTicks": 768,
          "midi": 63,
          "name": "D#4",
          "ticks": 62208,
          "time": 49.2226,
          "velocity": 0.7165354330708661
        },
        {
          "duration": 0.13888500000000192,
          "durationTicks": 192,
          "midi": 57,
          "name": "A3",
          "ticks": 63936,
          "time": 50.472565,
          "velocity": 0.7165354330708661
        },
        {
          "duration": 0.13888499999999482,
          "durationTicks": 192,
          "midi": 57,
          "name": "A3",
          "ticks": 64128,
          "time": 50.611450000000005,
          "velocity": 0.7165354330708661
        },
        {
          "duration": 0.13888500000000192,
          "durationTicks": 192,
          "midi": 57,
          "name": "A3",
          "ticks": 64320,
          "time": 50.750335,
          "velocity": 0.7165354330708661
        },
        {
          "duration": 0.27776999999999674,
          "durationTicks": 384,
          "midi": 57,
          "name": "A3",
          "ticks": 64512,
          "time": 50.88922,
          "velocity": 0.7165354330708661
        },
        {
          "duration": 0.13888499999999482,
          "durationTicks": 192,
          "midi": 58,
          "name": "A#3",
          "ticks": 65472,
          "time": 51.583645000000004,
          "velocity": 0.7165354330708661
        },
        {
          "duration": 0.13888500000000192,
          "durationTicks": 192,
          "midi": 58,
          "name": "A#3",
          "ticks": 65664,
          "time": 51.72253,
          "velocity": 0.7165354330708661
        },
        {
          "duration": 0.13888500000000192,
          "durationTicks": 192,
          "midi": 58,
          "name": "A#3",
          "ticks": 65856,
          "time": 51.861415,
          "velocity": 0.7165354330708661
        },
        {
          "duration": 0.27776999999999674,
          "durationTicks": 384,
          "midi": 58,
          "name": "A#3",
          "ticks": 66048,
          "time": 52.0003,
          "velocity": 0.7165354330708661
        },
        {
          "duration": 0.13888499999999482,
          "durationTicks": 192,
          "midi": 59,
          "name": "B3",
          "ticks": 67008,
          "time": 52.694725000000005,
          "velocity": 0.7952755905511811
        },
        {
          "duration": 0.13888500000000192,
          "durationTicks": 192,
          "midi": 59,
          "name": "B3",
          "ticks": 67200,
          "time": 52.83361,
          "velocity": 0.7952755905511811
        },
        {
          "duration": 0.13888500000000192,
          "durationTicks": 192,
          "midi": 59,
          "name": "B3",
          "ticks": 67392,
          "time": 52.972495,
          "velocity": 0.7952755905511811
        },
        {
          "duration": 0.27776999999999674,
          "durationTicks": 384,
          "midi": 59,
          "name": "B3",
          "ticks": 67584,
          "time": 53.111380000000004,
          "velocity": 0.7952755905511811
        },
        {
          "duration": 0.13888500000000192,
          "durationTicks": 192,
          "midi": 60,
          "name": "C4",
          "ticks": 68544,
          "time": 53.805805,
          "velocity": 0.8582677165354331
        },
        {
          "duration": 0.13888500000000192,
          "durationTicks": 192,
          "midi": 60,
          "name": "C4",
          "ticks": 68736,
          "time": 53.94469,
          "velocity": 0.8582677165354331
        },
        {
          "duration": 0.13888499999999482,
          "durationTicks": 192,
          "midi": 60,
          "name": "C4",
          "ticks": 68928,
          "time": 54.083575,
          "velocity": 0.8582677165354331
        },
        {
          "duration": 0.27777000000000385,
          "durationTicks": 384,
          "midi": 60,
          "name": "C4",
          "ticks": 69120,
          "time": 54.22246,
          "velocity": 0.8582677165354331
        },
        {
          "duration": 0.13888500000000192,
          "durationTicks": 192,
          "midi": 60,
          "name": "C4",
          "ticks": 70080,
          "time": 54.916885,
          "velocity": 0.905511811023622
        },
        {
          "duration": 0.13888500000000192,
          "durationTicks": 192,
          "midi": 60,
          "name": "C4",
          "ticks": 70272,
          "time": 55.05577,
          "velocity": 0.905511811023622
        },
        {
          "duration": 0.13888499999999482,
          "durationTicks": 192,
          "midi": 60,
          "name": "C4",
          "ticks": 70464,
          "time": 55.194655000000004,
          "velocity": 0.905511811023622
        },
        {
          "duration": 0.27777000000000385,
          "durationTicks": 384,
          "midi": 60,
          "name": "C4",
          "ticks": 70656,
          "time": 55.33354,
          "velocity": 0.905511811023622
        },
        {
          "duration": 0.13888500000000192,
          "durationTicks": 192,
          "midi": 60,
          "name": "C4",
          "ticks": 71040,
          "time": 55.61131,
          "velocity": 0.905511811023622
        },
        {
          "duration": 0.13888499999999482,
          "durationTicks": 192,
          "midi": 60,
          "name": "C4",
          "ticks": 71232,
          "time": 55.750195000000005,
          "velocity": 0.905511811023622
        },
        {
          "duration": 0.8333100000000044,
          "durationTicks": 1152,
          "midi": 62,
          "name": "D4",
          "ticks": 71424,
          "time": 55.88908,
          "velocity": 0.968503937007874
        },
        {
          "duration": 0.27776999999999674,
          "durationTicks": 384,
          "midi": 50,
          "name": "D3",
          "ticks": 72576,
          "time": 56.722390000000004,
          "velocity": 0.968503937007874
        },
        {
          "duration": 0.27776999999999674,
          "durationTicks": 384,
          "midi": 51,
          "name": "D#3",
          "ticks": 72960,
          "time": 57.00016,
          "velocity": 0.968503937007874
        },
        {
          "duration": 0.27777000000000385,
          "durationTicks": 384,
          "midi": 53,
          "name": "F3",
          "ticks": 73728,
          "time": 57.5557,
          "velocity": 0.968503937007874
        },
        {
          "duration": 0.27776999999999674,
          "durationTicks": 384,
          "midi": 55,
          "name": "G3",
          "ticks": 74496,
          "time": 58.11124,
          "velocity": 0.968503937007874
        },
        {
          "duration": 0.27776999999999674,
          "durationTicks": 384,
          "midi": 56,
          "name": "G#3",
          "ticks": 75264,
          "time": 58.66678,
          "velocity": 0.968503937007874
        },
        {
          "duration": 0.27776999999999674,
          "durationTicks": 384,
          "midi": 58,
          "name": "A#3",
          "ticks": 76032,
          "time": 59.22232,
          "velocity": 0.968503937007874
        },
        {
          "duration": 0.27776999999999674,
          "durationTicks": 384,
          "midi": 58,
          "name": "A#3",
          "ticks": 76800,
          "time": 59.777860000000004,
          "velocity": 0.968503937007874
        },
        {
          "duration": 0.13888500000000192,
          "durationTicks": 192,
          "midi": 53,
          "name": "F3",
          "ticks": 77568,
          "time": 60.3334,
          "velocity": 0.968503937007874
        },
        {
          "duration": 0.13888500000000192,
          "durationTicks": 192,
          "midi": 53,
          "name": "F3",
          "ticks": 77760,
          "time": 60.472285,
          "velocity": 0.968503937007874
        },
        {
          "duration": 0.13888500000000192,
          "durationTicks": 192,
          "midi": 58,
          "name": "A#3",
          "ticks": 77952,
          "time": 60.61117,
          "velocity": 0.968503937007874
        },
        {
          "duration": 0.13888500000000192,
          "durationTicks": 192,
          "midi": 58,
          "name": "A#3",
          "ticks": 78144,
          "time": 60.750055,
          "velocity": 0.968503937007874
        },
        {
          "duration": 0.13888500000000192,
          "durationTicks": 192,
          "midi": 53,
          "name": "F3",
          "ticks": 78336,
          "time": 60.888940000000005,
          "velocity": 0.968503937007874
        },
        {
          "duration": 0.13888499999999482,
          "durationTicks": 192,
          "midi": 53,
          "name": "F3",
          "ticks": 78528,
          "time": 61.02782500000001,
          "velocity": 0.968503937007874
        },
        {
          "duration": 0.13888500000000192,
          "durationTicks": 192,
          "midi": 58,
          "name": "A#3",
          "ticks": 78720,
          "time": 61.16671,
          "velocity": 0.968503937007874
        },
        {
          "duration": 0.13888499999999482,
          "durationTicks": 192,
          "midi": 58,
          "name": "A#3",
          "ticks": 78912,
          "time": 61.305595000000004,
          "velocity": 0.968503937007874
        },
        {
          "duration": 0.13888500000000192,
          "durationTicks": 192,
          "midi": 55,
          "name": "G3",
          "ticks": 79104,
          "time": 61.44448,
          "velocity": 0.968503937007874
        },
        {
          "duration": 0.13888500000000192,
          "durationTicks": 192,
          "midi": 55,
          "name": "G3",
          "ticks": 79296,
          "time": 61.583365,
          "velocity": 0.968503937007874
        },
        {
          "duration": 0.13888500000000192,
          "durationTicks": 192,
          "midi": 58,
          "name": "A#3",
          "ticks": 79488,
          "time": 61.72225,
          "velocity": 0.968503937007874
        },
        {
          "duration": 0.13888500000000192,
          "durationTicks": 192,
          "midi": 58,
          "name": "A#3",
          "ticks": 79680,
          "time": 61.861135000000004,
          "velocity": 0.968503937007874
        },
        {
          "duration": 0.13888499999999482,
          "durationTicks": 192,
          "midi": 56,
          "name": "G#3",
          "ticks": 79872,
          "time": 62.000020000000006,
          "velocity": 0.968503937007874
        },
        {
          "duration": 0.13888500000000192,
          "durationTicks": 192,
          "midi": 56,
          "name": "G#3",
          "ticks": 80064,
          "time": 62.138905,
          "velocity": 0.968503937007874
        },
        {
          "duration": 0.13888499999999482,
          "durationTicks": 192,
          "midi": 58,
          "name": "A#3",
          "ticks": 80256,
          "time": 62.27779,
          "velocity": 0.968503937007874
        },
        {
          "duration": 0.13888500000000192,
          "durationTicks": 192,
          "midi": 58,
          "name": "A#3",
          "ticks": 80448,
          "time": 62.416675,
          "velocity": 0.968503937007874
        },
        {
          "duration": 0.13888500000000192,
          "durationTicks": 192,
          "midi": 65,
          "name": "F4",
          "ticks": 80640,
          "time": 62.55556,
          "velocity": 0.968503937007874
        },
        {
          "duration": 0.13888500000000192,
          "durationTicks": 192,
          "midi": 63,
          "name": "D#4",
          "ticks": 80832,
          "time": 62.694445,
          "velocity": 0.968503937007874
        },
        {
          "duration": 0.13888500000000192,
          "durationTicks": 192,
          "midi": 58,
          "name": "A#3",
          "ticks": 81024,
          "time": 62.833330000000004,
          "velocity": 0.968503937007874
        },
        {
          "duration": 0.13888500000000192,
          "durationTicks": 192,
          "midi": 55,
          "name": "G3",
          "ticks": 81216,
          "time": 62.972215000000006,
          "velocity": 0.968503937007874
        },
        {
          "duration": 0.13888499999999482,
          "durationTicks": 192,
          "midi": 62,
          "name": "D4",
          "ticks": 81408,
          "time": 63.11110000000001,
          "velocity": 0.968503937007874
        },
        {
          "duration": 0.13888499999999482,
          "durationTicks": 192,
          "midi": 60,
          "name": "C4",
          "ticks": 81600,
          "time": 63.249985,
          "velocity": 0.968503937007874
        },
        {
          "duration": 0.13888500000000192,
          "durationTicks": 192,
          "midi": 56,
          "name": "G#3",
          "ticks": 81792,
          "time": 63.38887,
          "velocity": 0.968503937007874
        },
        {
          "duration": 0.13888500000000192,
          "durationTicks": 192,
          "midi": 53,
          "name": "F3",
          "ticks": 81984,
          "time": 63.527755,
          "velocity": 0.968503937007874
        },
        {
          "duration": 0.13888500000000192,
          "durationTicks": 192,
          "midi": 60,
          "name": "C4",
          "ticks": 82176,
          "time": 63.66664,
          "velocity": 0.968503937007874
        },
        {
          "duration": 0.13888500000000192,
          "durationTicks": 192,
          "midi": 58,
          "name": "A#3",
          "ticks": 82368,
          "time": 63.805525,
          "velocity": 0.968503937007874
        },
        {
          "duration": 0.13888500000000192,
          "durationTicks": 192,
          "midi": 55,
          "name": "G3",
          "ticks": 82560,
          "time": 63.944410000000005,
          "velocity": 0.968503937007874
        },
        {
          "duration": 0.13888500000000192,
          "durationTicks": 192,
          "midi": 51,
          "name": "D#3",
          "ticks": 82752,
          "time": 64.083295,
          "velocity": 0.968503937007874
        },
        {
          "duration": 0.1388849999999877,
          "durationTicks": 192,
          "midi": 50,
          "name": "D3",
          "ticks": 82944,
          "time": 64.22218000000001,
          "velocity": 0.968503937007874
        },
        {
          "duration": 0.13888500000000192,
          "durationTicks": 192,
          "midi": 53,
          "name": "F3",
          "ticks": 83136,
          "time": 64.361065,
          "velocity": 0.968503937007874
        },
        {
          "duration": 0.13888500000000192,
          "durationTicks": 192,
          "midi": 62,
          "name": "D4",
          "ticks": 83136,
          "time": 64.361065,
          "velocity": 0.968503937007874
        },
        {
          "duration": 0.13888500000000192,
          "durationTicks": 192,
          "midi": 56,
          "name": "G#3",
          "ticks": 83328,
          "time": 64.49995,
          "velocity": 0.968503937007874
        },
        {
          "duration": 0.13888500000000192,
          "durationTicks": 192,
          "midi": 65,
          "name": "F4",
          "ticks": 83328,
          "time": 64.49995,
          "velocity": 0.968503937007874
        },
        {
          "duration": 0.13888500000000192,
          "durationTicks": 192,
          "midi": 53,
          "name": "F3",
          "ticks": 83520,
          "time": 64.638835,
          "velocity": 0.968503937007874
        },
        {
          "duration": 0.13888500000000192,
          "durationTicks": 192,
          "midi": 62,
          "name": "D4",
          "ticks": 83520,
          "time": 64.638835,
          "velocity": 0.968503937007874
        },
        {
          "duration": 1.8055049999999966,
          "durationTicks": 2496,
          "midi": 55,
          "name": "G3",
          "ticks": 83712,
          "time": 64.77772,
          "velocity": 0.968503937007874
        },
        {
          "duration": 0.13888500000000192,
          "durationTicks": 192,
          "midi": 58,
          "name": "A#3",
          "ticks": 86208,
          "time": 66.583225,
          "velocity": 0.968503937007874
        },
        {
          "duration": 0.13888500000000192,
          "durationTicks": 192,
          "midi": 58,
          "name": "A#3",
          "ticks": 86400,
          "time": 66.72211,
          "velocity": 0.968503937007874
        },
        {
          "duration": 0.13888500000000192,
          "durationTicks": 192,
          "midi": 58,
          "name": "A#3",
          "ticks": 86592,
          "time": 66.860995,
          "velocity": 0.968503937007874
        },
        {
          "duration": 1.8055049999999966,
          "durationTicks": 2496,
          "midi": 58,
          "name": "A#3",
          "ticks": 86784,
          "time": 66.99988,
          "velocity": 0.968503937007874
        },
        {
          "duration": 0.13888500000000192,
          "durationTicks": 192,
          "midi": 58,
          "name": "A#3",
          "ticks": 89280,
          "time": 68.805385,
          "velocity": 0.968503937007874
        },
        {
          "duration": 0.13888500000000192,
          "durationTicks": 192,
          "midi": 58,
          "name": "A#3",
          "ticks": 89472,
          "time": 68.94427,
          "velocity": 0.968503937007874
        },
        {
          "duration": 0.13888500000000192,
          "durationTicks": 192,
          "midi": 58,
          "name": "A#3",
          "ticks": 89664,
          "time": 69.083155,
          "velocity": 0.968503937007874
        },
        {
          "duration": 0.27776999999998964,
          "durationTicks": 384,
          "midi": 58,
          "name": "A#3",
          "ticks": 89856,
          "time": 69.22204,
          "velocity": 0.968503937007874
        },
        {
          "duration": 0.13888500000000192,
          "durationTicks": 192,
          "midi": 58,
          "name": "A#3",
          "ticks": 90816,
          "time": 69.916465,
          "velocity": 0.968503937007874
        },
        {
          "duration": 0.13888500000000192,
          "durationTicks": 192,
          "midi": 58,
          "name": "A#3",
          "ticks": 91008,
          "time": 70.05535,
          "velocity": 0.968503937007874
        },
        {
          "duration": 0.13888500000000192,
          "durationTicks": 192,
          "midi": 58,
          "name": "A#3",
          "ticks": 91200,
          "time": 70.194235,
          "velocity": 0.968503937007874
        },
        {
          "duration": 0.27776999999998964,
          "durationTicks": 384,
          "midi": 58,
          "name": "A#3",
          "ticks": 91392,
          "time": 70.33312000000001,
          "velocity": 0.968503937007874
        },
        {
          "duration": 0.13888500000000192,
          "durationTicks": 192,
          "midi": 58,
          "name": "A#3",
          "ticks": 92352,
          "time": 71.027545,
          "velocity": 0.968503937007874
        },
        {
          "duration": 0.13888500000000192,
          "durationTicks": 192,
          "midi": 58,
          "name": "A#3",
          "ticks": 92544,
          "time": 71.16643,
          "velocity": 0.968503937007874
        },
        {
          "duration": 0.1388849999999877,
          "durationTicks": 192,
          "midi": 58,
          "name": "A#3",
          "ticks": 92736,
          "time": 71.30531500000001,
          "velocity": 0.968503937007874
        },
        {
          "duration": 0.27777000000000385,
          "durationTicks": 384,
          "midi": 63,
          "name": "D#4",
          "ticks": 92928,
          "time": 71.4442,
          "velocity": 0.968503937007874
        },
        {
          "duration": 0.14999999999999147,
          "durationTicks": 192,
          "midi": 55,
          "name": "G3",
          "ticks": 95424,
          "time": 73.26082000000001,
          "velocity": 0.968503937007874
        },
        {
          "duration": 0.15000000000000568,
          "durationTicks": 192,
          "midi": 55,
          "name": "G3",
          "ticks": 95616,
          "time": 73.41082,
          "velocity": 0.968503937007874
        },
        {
          "duration": 0.14999999999999147,
          "durationTicks": 192,
          "midi": 55,
          "name": "G3",
          "ticks": 95808,
          "time": 73.56082,
          "velocity": 0.968503937007874
        },
        {
          "duration": 1.2000000000000028,
          "durationTicks": 768,
          "midi": 51,
          "name": "D#3",
          "ticks": 96000,
          "time": 73.71082,
          "velocity": 0.968503937007874
        },
        {
          "duration": 0.14999999999999147,
          "durationTicks": 192,
          "midi": 53,
          "name": "F3",
          "ticks": 96960,
          "time": 75.06082,
          "velocity": 0.968503937007874
        },
        {
          "duration": 0.15000000000000568,
          "durationTicks": 192,
          "midi": 53,
          "name": "F3",
          "ticks": 97152,
          "time": 75.21082,
          "velocity": 0.968503937007874
        },
        {
          "duration": 0.14999999999999147,
          "durationTicks": 192,
          "midi": 53,
          "name": "F3",
          "ticks": 97344,
          "time": 75.36082,
          "velocity": 0.968503937007874
        },
        {
          "duration": 1.6000000000000085,
          "durationTicks": 1536,
          "midi": 50,
          "name": "D3",
          "ticks": 97536,
          "time": 75.51082,
          "velocity": 0.968503937007874
        },
        {
          "duration": 0.1415049999999951,
          "durationTicks": 192,
          "midi": 68,
          "name": "G#4",
          "ticks": 100032,
          "time": 77.81834500000001,
          "velocity": 0.7165354330708661
        },
        {
          "duration": 0.1415049999999951,
          "durationTicks": 192,
          "midi": 68,
          "name": "G#4",
          "ticks": 100224,
          "time": 77.95985,
          "velocity": 0.7165354330708661
        },
        {
          "duration": 0.14150500000000932,
          "durationTicks": 192,
          "midi": 68,
          "name": "G#4",
          "ticks": 100416,
          "time": 78.101355,
          "velocity": 0.7165354330708661
        },
        {
          "duration": 1.4150499999999937,
          "durationTicks": 1920,
          "midi": 67,
          "name": "G4",
          "ticks": 100608,
          "time": 78.24286000000001,
          "velocity": 0.7165354330708661
        },
        {
          "duration": 0.14150500000000932,
          "durationTicks": 192,
          "midi": 68,
          "name": "G#4",
          "ticks": 103104,
          "time": 80.082425,
          "velocity": 0.7165354330708661
        },
        {
          "duration": 0.1415049999999951,
          "durationTicks": 192,
          "midi": 68,
          "name": "G#4",
          "ticks": 103296,
          "time": 80.22393000000001,
          "velocity": 0.7165354330708661
        },
        {
          "duration": 0.1415049999999951,
          "durationTicks": 192,
          "midi": 68,
          "name": "G#4",
          "ticks": 103488,
          "time": 80.365435,
          "velocity": 0.7165354330708661
        },
        {
          "duration": 0.5660200000000088,
          "durationTicks": 768,
          "midi": 67,
          "name": "G4",
          "ticks": 103680,
          "time": 80.50694,
          "velocity": 0.7165354330708661
        },
        {
          "duration": 1.1320399999999893,
          "durationTicks": 1536,
          "midi": 62,
          "name": "D4",
          "ticks": 104448,
          "time": 81.07296000000001,
          "velocity": 0.7165354330708661
        },
        {
          "duration": 0.14150500000000932,
          "durationTicks": 192,
          "midi": 63,
          "name": "D#4",
          "ticks": 105984,
          "time": 82.205,
          "velocity": 0.7165354330708661
        },
        {
          "duration": 0.1415049999999951,
          "durationTicks": 192,
          "midi": 63,
          "name": "D#4",
          "ticks": 106176,
          "time": 82.34650500000001,
          "velocity": 0.7165354330708661
        },
        {
          "duration": 0.1415049999999951,
          "durationTicks": 192,
          "midi": 63,
          "name": "D#4",
          "ticks": 106368,
          "time": 82.48801,
          "velocity": 0.7165354330708661
        },
        {
          "duration": 0.14150500000000932,
          "durationTicks": 192,
          "midi": 65,
          "name": "F4",
          "ticks": 106560,
          "time": 82.629515,
          "velocity": 0.7165354330708661
        },
        {
          "duration": 0.7075249999999897,
          "durationTicks": 960,
          "midi": 67,
          "name": "G4",
          "ticks": 106752,
          "time": 82.77102000000001,
          "velocity": 0.7165354330708661
        },
        {
          "duration": 0.14150500000000932,
          "durationTicks": 192,
          "midi": 63,
          "name": "D#4",
          "ticks": 107712,
          "time": 83.478545,
          "velocity": 0.7165354330708661
        },
        {
          "duration": 0.1415049999999951,
          "durationTicks": 192,
          "midi": 63,
          "name": "D#4",
          "ticks": 107904,
          "time": 83.62005,
          "velocity": 0.7165354330708661
        },
        {
          "duration": 0.14150500000000932,
          "durationTicks": 192,
          "midi": 65,
          "name": "F4",
          "ticks": 108096,
          "time": 83.761555,
          "velocity": 0.7165354330708661
        },
        {
          "duration": 0.4245149999999853,
          "durationTicks": 576,
          "midi": 67,
          "name": "G4",
          "ticks": 108288,
          "time": 83.90306000000001,
          "velocity": 0.7165354330708661
        },
        {
          "duration": 0.14150500000000932,
          "durationTicks": 192,
          "midi": 62,
          "name": "D4",
          "ticks": 108864,
          "time": 84.327575,
          "velocity": 0.8582677165354331
        },
        {
          "duration": 0.2830100000000044,
          "durationTicks": 384,
          "midi": 63,
          "name": "D#4",
          "ticks": 109056,
          "time": 84.46908,
          "velocity": 0.905511811023622
        },
        {
          "duration": 0.2830100000000044,
          "durationTicks": 384,
          "midi": 56,
          "name": "G#3",
          "ticks": 109824,
          "time": 85.0351,
          "velocity": 0.905511811023622
        },
        {
          "duration": 0.2830099999999902,
          "durationTicks": 384,
          "midi": 55,
          "name": "G3",
          "ticks": 110592,
          "time": 85.60112000000001,
          "velocity": 0.905511811023622
        },
        {
          "duration": 0.1428549999999973,
          "durationTicks": 192,
          "midi": 56,
          "name": "G#3",
          "ticks": 111552,
          "time": 87.226985,
          "velocity": 0.968503937007874
        },
        {
          "duration": 0.1428550000000115,
          "durationTicks": 192,
          "midi": 56,
          "name": "G#3",
          "ticks": 111744,
          "time": 87.36984,
          "velocity": 0.968503937007874
        },
        {
          "duration": 0.1428549999999973,
          "durationTicks": 192,
          "midi": 56,
          "name": "G#3",
          "ticks": 111936,
          "time": 87.51269500000001,
          "velocity": 0.968503937007874
        },
        {
          "duration": 1.9047400000000039,
          "durationTicks": 1536,
          "midi": 53,
          "name": "F3",
          "ticks": 112128,
          "time": 87.65555,
          "velocity": 0.968503937007874
        },
        {
          "duration": 0.1428549999999973,
          "durationTicks": 192,
          "midi": 56,
          "name": "G#3",
          "ticks": 115392,
          "time": 90.84598500000001,
          "velocity": 0.7165354330708661
        },
        {
          "duration": 0.1428549999999973,
          "durationTicks": 192,
          "midi": 56,
          "name": "G#3",
          "ticks": 115584,
          "time": 90.98884000000001,
          "velocity": 0.7165354330708661
        },
        {
          "duration": 0.1428549999999973,
          "durationTicks": 192,
          "midi": 56,
          "name": "G#3",
          "ticks": 115776,
          "time": 91.13169500000001,
          "velocity": 0.7165354330708661
        },
        {
          "duration": 0.857129999999998,
          "durationTicks": 1152,
          "midi": 55,
          "name": "G3",
          "ticks": 115968,
          "time": 91.27455,
          "velocity": 0.7165354330708661
        },
        {
          "duration": 0.1428549999999973,
          "durationTicks": 192,
          "midi": 56,
          "name": "G#3",
          "ticks": 118464,
          "time": 93.13166500000001,
          "velocity": 0.7165354330708661
        },
        {
          "duration": 0.1428549999999973,
          "durationTicks": 192,
          "midi": 56,
          "name": "G#3",
          "ticks": 118656,
          "time": 93.27452000000001,
          "velocity": 0.7165354330708661
        },
        {
          "duration": 0.1428549999999973,
          "durationTicks": 192,
          "midi": 56,
          "name": "G#3",
          "ticks": 118848,
          "time": 93.417375,
          "velocity": 0.7165354330708661
        },
        {
          "duration": 0.7142750000000007,
          "durationTicks": 960,
          "midi": 55,
          "name": "G3",
          "ticks": 119040,
          "time": 93.56023,
          "velocity": 0.7165354330708661
        },
        {
          "duration": 0.1428549999999973,
          "durationTicks": 192,
          "midi": 63,
          "name": "D#4",
          "ticks": 120000,
          "time": 94.274505,
          "velocity": 0.7165354330708661
        },
        {
          "duration": 0.1428550000000115,
          "durationTicks": 192,
          "midi": 63,
          "name": "D#4",
          "ticks": 120192,
          "time": 94.41736,
          "velocity": 0.7165354330708661
        },
        {
          "duration": 0.1428549999999973,
          "durationTicks": 192,
          "midi": 60,
          "name": "C4",
          "ticks": 120384,
          "time": 94.56021500000001,
          "velocity": 0.7165354330708661
        },
        {
          "duration": 0.7142750000000007,
          "durationTicks": 960,
          "midi": 62,
          "name": "D4",
          "ticks": 120576,
          "time": 94.70307000000001,
          "velocity": 0.7165354330708661
        },
        {
          "duration": 0.1428549999999973,
          "durationTicks": 192,
          "midi": 65,
          "name": "F4",
          "ticks": 121536,
          "time": 95.41734500000001,
          "velocity": 0.7952755905511811
        },
        {
          "duration": 0.1428549999999973,
          "durationTicks": 192,
          "midi": 65,
          "name": "F4",
          "ticks": 121728,
          "time": 95.56020000000001,
          "velocity": 0.8582677165354331
        },
        {
          "duration": 0.1428549999999973,
          "durationTicks": 192,
          "midi": 62,
          "name": "D4",
          "ticks": 121920,
          "time": 95.703055,
          "velocity": 0.8582677165354331
        },
        {
          "duration": 0.707525000000004,
          "durationTicks": 960,
          "midi": 63,
          "name": "D#4",
          "ticks": 122112,
          "time": 95.84591,
          "velocity": 0.905511811023622
        },
        {
          "duration": 0.1415049999999951,
          "durationTicks": 192,
          "midi": 63,
          "name": "D#4",
          "ticks": 123072,
          "time": 96.55343500000001,
          "velocity": 0.968503937007874
        },
        {
          "duration": 0.1415049999999951,
          "durationTicks": 192,
          "midi": 63,
          "name": "D#4",
          "ticks": 123264,
          "time": 96.69494,
          "velocity": 0.968503937007874
        },
        {
          "duration": 0.14150500000000932,
          "durationTicks": 192,
          "midi": 60,
          "name": "C4",
          "ticks": 123456,
          "time": 96.836445,
          "velocity": 0.968503937007874
        },
        {
          "duration": 0.1415049999999951,
          "durationTicks": 192,
          "midi": 65,
          "name": "F4",
          "ticks": 123648,
          "time": 96.97795,
          "velocity": 0.968503937007874
        },
        {
          "duration": 0.1415049999999951,
          "durationTicks": 192,
          "midi": 65,
          "name": "F4",
          "ticks": 123840,
          "time": 97.119455,
          "velocity": 0.968503937007874
        },
        {
          "duration": 0.14150500000000932,
          "durationTicks": 192,
          "midi": 65,
          "name": "F4",
          "ticks": 124032,
          "time": 97.26096,
          "velocity": 0.968503937007874
        },
        {
          "duration": 0.1415049999999951,
          "durationTicks": 192,
          "midi": 59,
          "name": "B3",
          "ticks": 124224,
          "time": 97.402465,
          "velocity": 0.968503937007874
        },
        {
          "duration": 0.1415049999999951,
          "durationTicks": 192,
          "midi": 67,
          "name": "G4",
          "ticks": 124416,
          "time": 97.54397,
          "velocity": 0.968503937007874
        },
        {
          "duration": 0.14150500000000932,
          "durationTicks": 192,
          "midi": 67,
          "name": "G4",
          "ticks": 124608,
          "time": 97.685475,
          "velocity": 0.968503937007874
        },
        {
          "duration": 0.1415049999999951,
          "durationTicks": 192,
          "midi": 67,
          "name": "G4",
          "ticks": 124800,
          "time": 97.82698,
          "velocity": 0.968503937007874
        },
        {
          "duration": 0.14150500000000932,
          "durationTicks": 192,
          "midi": 58,
          "name": "A#3",
          "ticks": 124992,
          "time": 97.968485,
          "velocity": 0.968503937007874
        },
        {
          "duration": 0.14018500000000245,
          "durationTicks": 192,
          "midi": 68,
          "name": "G#4",
          "ticks": 125184,
          "time": 98.10999000000001,
          "velocity": 0.968503937007874
        },
        {
          "duration": 0.14018500000000245,
          "durationTicks": 192,
          "midi": 56,
          "name": "G#3",
          "ticks": 125376,
          "time": 98.25017500000001,
          "velocity": 0.968503937007874
        },
        {
          "duration": 0.14018499999998824,
          "durationTicks": 192,
          "midi": 56,
          "name": "G#3",
          "ticks": 125568,
          "time": 98.39036000000002,
          "velocity": 0.968503937007874
        },
        {
          "duration": 0.14018500000000245,
          "durationTicks": 192,
          "midi": 53,
          "name": "F3",
          "ticks": 125760,
          "time": 98.530545,
          "velocity": 0.968503937007874
        },
        {
          "duration": 0.14018500000000245,
          "durationTicks": 192,
          "midi": 58,
          "name": "A#3",
          "ticks": 125952,
          "time": 98.67073,
          "velocity": 0.968503937007874
        },
        {
          "duration": 0.14018500000000245,
          "durationTicks": 192,
          "midi": 58,
          "name": "A#3",
          "ticks": 126144,
          "time": 98.81091500000001,
          "velocity": 0.968503937007874
        },
        {
          "duration": 0.14018500000000245,
          "durationTicks": 192,
          "midi": 58,
          "name": "A#3",
          "ticks": 126336,
          "time": 98.95110000000001,
          "velocity": 0.968503937007874
        },
        {
          "duration": 0.14018500000000245,
          "durationTicks": 192,
          "midi": 55,
          "name": "G3",
          "ticks": 126528,
          "time": 99.09128500000001,
          "velocity": 0.968503937007874
        },
        {
          "duration": 0.14018499999998824,
          "durationTicks": 192,
          "midi": 60,
          "name": "C4",
          "ticks": 126720,
          "time": 99.23147000000002,
          "velocity": 0.968503937007874
        },
        {
          "duration": 0.14018500000000245,
          "durationTicks": 192,
          "midi": 60,
          "name": "C4",
          "ticks": 126912,
          "time": 99.371655,
          "velocity": 0.968503937007874
        },
        {
          "duration": 0.14018500000000245,
          "durationTicks": 192,
          "midi": 60,
          "name": "C4",
          "ticks": 127104,
          "time": 99.51184,
          "velocity": 0.968503937007874
        },
        {
          "duration": 0.14018500000000245,
          "durationTicks": 192,
          "midi": 56,
          "name": "G#3",
          "ticks": 127296,
          "time": 99.65202500000001,
          "velocity": 0.968503937007874
        },
        {
          "duration": 0.14018500000000245,
          "durationTicks": 192,
          "midi": 65,
          "name": "F4",
          "ticks": 127488,
          "time": 99.79221000000001,
          "velocity": 0.968503937007874
        },
        {
          "duration": 0.14018500000000245,
          "durationTicks": 192,
          "midi": 65,
          "name": "F4",
          "ticks": 127680,
          "time": 99.93239500000001,
          "velocity": 0.968503937007874
        },
        {
          "duration": 0.14018499999998824,
          "durationTicks": 192,
          "midi": 65,
          "name": "F4",
          "ticks": 127872,
          "time": 100.07258000000002,
          "velocity": 0.968503937007874
        },
        {
          "duration": 0.14018500000000245,
          "durationTicks": 192,
          "midi": 62,
          "name": "D4",
          "ticks": 128064,
          "time": 100.212765,
          "velocity": 0.968503937007874
        },
        {
          "duration": 0.13888500000000192,
          "durationTicks": 192,
          "midi": 63,
          "name": "D#4",
          "ticks": 128256,
          "time": 100.35295,
          "velocity": 0.905511811023622
        },
        {
          "duration": 0.13888500000000192,
          "durationTicks": 192,
          "midi": 48,
          "name": "C3",
          "ticks": 128448,
          "time": 100.49183500000001,
          "velocity": 0.905511811023622
        },
        {
          "duration": 0.13888500000000192,
          "durationTicks": 192,
          "midi": 51,
          "name": "D#3",
          "ticks": 128448,
          "time": 100.49183500000001,
          "velocity": 0.905511811023622
        },
        {
          "duration": 0.13888500000000192,
          "durationTicks": 192,
          "midi": 48,
          "name": "C3",
          "ticks": 128640,
          "time": 100.63072000000001,
          "velocity": 0.905511811023622
        },
        {
          "duration": 0.13888500000000192,
          "durationTicks": 192,
          "midi": 51,
          "name": "D#3",
          "ticks": 128640,
          "time": 100.63072000000001,
          "velocity": 0.905511811023622
        },
        {
          "duration": 0.1388849999999877,
          "durationTicks": 192,
          "midi": 48,
          "name": "C3",
          "ticks": 128832,
          "time": 100.76960500000001,
          "velocity": 0.905511811023622
        },
        {
          "duration": 0.1388849999999877,
          "durationTicks": 192,
          "midi": 51,
          "name": "D#3",
          "ticks": 128832,
          "time": 100.76960500000001,
          "velocity": 0.905511811023622
        },
        {
          "duration": 0.13888500000000192,
          "durationTicks": 192,
          "midi": 48,
          "name": "C3",
          "ticks": 129024,
          "time": 100.90849,
          "velocity": 0.905511811023622
        },
        {
          "duration": 0.13888500000000192,
          "durationTicks": 192,
          "midi": 51,
          "name": "D#3",
          "ticks": 129024,
          "time": 100.90849,
          "velocity": 0.905511811023622
        },
        {
          "duration": 0.13888500000000192,
          "durationTicks": 192,
          "midi": 48,
          "name": "C3",
          "ticks": 129216,
          "time": 101.047375,
          "velocity": 0.905511811023622
        },
        {
          "duration": 0.13888500000000192,
          "durationTicks": 192,
          "midi": 51,
          "name": "D#3",
          "ticks": 129216,
          "time": 101.047375,
          "velocity": 0.905511811023622
        },
        {
          "duration": 0.13888500000000192,
          "durationTicks": 192,
          "midi": 48,
          "name": "C3",
          "ticks": 129408,
          "time": 101.18626,
          "velocity": 0.905511811023622
        },
        {
          "duration": 0.13888500000000192,
          "durationTicks": 192,
          "midi": 51,
          "name": "D#3",
          "ticks": 129408,
          "time": 101.18626,
          "velocity": 0.905511811023622
        },
        {
          "duration": 0.13888500000000192,
          "durationTicks": 192,
          "midi": 48,
          "name": "C3",
          "ticks": 129600,
          "time": 101.325145,
          "velocity": 0.905511811023622
        },
        {
          "duration": 0.13888500000000192,
          "durationTicks": 192,
          "midi": 51,
          "name": "D#3",
          "ticks": 129600,
          "time": 101.325145,
          "velocity": 0.905511811023622
        },
        {
          "duration": 0.13888500000000192,
          "durationTicks": 192,
          "midi": 48,
          "name": "C3",
          "ticks": 129792,
          "time": 101.46403000000001,
          "velocity": 0.905511811023622
        },
        {
          "duration": 0.13888500000000192,
          "durationTicks": 192,
          "midi": 51,
          "name": "D#3",
          "ticks": 129792,
          "time": 101.46403000000001,
          "velocity": 0.905511811023622
        },
        {
          "duration": 0.13888500000000192,
          "durationTicks": 192,
          "midi": 48,
          "name": "C3",
          "ticks": 129984,
          "time": 101.60291500000001,
          "velocity": 0.905511811023622
        },
        {
          "duration": 0.13888500000000192,
          "durationTicks": 192,
          "midi": 51,
          "name": "D#3",
          "ticks": 129984,
          "time": 101.60291500000001,
          "velocity": 0.905511811023622
        },
        {
          "duration": 0.13888500000000192,
          "durationTicks": 192,
          "midi": 48,
          "name": "C3",
          "ticks": 130176,
          "time": 101.74180000000001,
          "velocity": 0.905511811023622
        },
        {
          "duration": 0.13888500000000192,
          "durationTicks": 192,
          "midi": 51,
          "name": "D#3",
          "ticks": 130176,
          "time": 101.74180000000001,
          "velocity": 0.905511811023622
        },
        {
          "duration": 0.1388849999999877,
          "durationTicks": 192,
          "midi": 48,
          "name": "C3",
          "ticks": 130368,
          "time": 101.88068500000001,
          "velocity": 0.905511811023622
        },
        {
          "duration": 0.1388849999999877,
          "durationTicks": 192,
          "midi": 51,
          "name": "D#3",
          "ticks": 130368,
          "time": 101.88068500000001,
          "velocity": 0.905511811023622
        },
        {
          "duration": 0.13888500000000192,
          "durationTicks": 192,
          "midi": 48,
          "name": "C3",
          "ticks": 130560,
          "time": 102.01957,
          "velocity": 0.905511811023622
        },
        {
          "duration": 0.13888500000000192,
          "durationTicks": 192,
          "midi": 51,
          "name": "D#3",
          "ticks": 130560,
          "time": 102.01957,
          "velocity": 0.905511811023622
        },
        {
          "duration": 0.13888500000000192,
          "durationTicks": 192,
          "midi": 48,
          "name": "C3",
          "ticks": 130752,
          "time": 102.158455,
          "velocity": 0.905511811023622
        },
        {
          "duration": 0.13888500000000192,
          "durationTicks": 192,
          "midi": 51,
          "name": "D#3",
          "ticks": 130752,
          "time": 102.158455,
          "velocity": 0.905511811023622
        },
        {
          "duration": 0.13888500000000192,
          "durationTicks": 192,
          "midi": 48,
          "name": "C3",
          "ticks": 130944,
          "time": 102.29734,
          "velocity": 0.905511811023622
        },
        {
          "duration": 0.13888500000000192,
          "durationTicks": 192,
          "midi": 51,
          "name": "D#3",
          "ticks": 130944,
          "time": 102.29734,
          "velocity": 0.905511811023622
        },
        {
          "duration": 0.13888500000000192,
          "durationTicks": 192,
          "midi": 48,
          "name": "C3",
          "ticks": 131136,
          "time": 102.43622500000001,
          "velocity": 0.905511811023622
        },
        {
          "duration": 0.13888500000000192,
          "durationTicks": 192,
          "midi": 51,
          "name": "D#3",
          "ticks": 131136,
          "time": 102.43622500000001,
          "velocity": 0.905511811023622
        },
        {
          "duration": 0.13888500000000192,
          "durationTicks": 192,
          "midi": 50,
          "name": "D3",
          "ticks": 131328,
          "time": 102.57511000000001,
          "velocity": 0.905511811023622
        },
        {
          "duration": 0.13888500000000192,
          "durationTicks": 192,
          "midi": 53,
          "name": "F3",
          "ticks": 131328,
          "time": 102.57511000000001,
          "velocity": 0.905511811023622
        },
        {
          "duration": 0.13888500000000192,
          "durationTicks": 192,
          "midi": 50,
          "name": "D3",
          "ticks": 131520,
          "time": 102.71399500000001,
          "velocity": 0.905511811023622
        },
        {
          "duration": 0.13888500000000192,
          "durationTicks": 192,
          "midi": 53,
          "name": "F3",
          "ticks": 131520,
          "time": 102.71399500000001,
          "velocity": 0.905511811023622
        },
        {
          "duration": 0.1388849999999877,
          "durationTicks": 192,
          "midi": 50,
          "name": "D3",
          "ticks": 131712,
          "time": 102.85288000000001,
          "velocity": 0.905511811023622
        },
        {
          "duration": 0.1388849999999877,
          "durationTicks": 192,
          "midi": 53,
          "name": "F3",
          "ticks": 131712,
          "time": 102.85288000000001,
          "velocity": 0.905511811023622
        },
        {
          "duration": 0.13888500000000192,
          "durationTicks": 192,
          "midi": 50,
          "name": "D3",
          "ticks": 131904,
          "time": 102.991765,
          "velocity": 0.905511811023622
        },
        {
          "duration": 0.13888500000000192,
          "durationTicks": 192,
          "midi": 53,
          "name": "F3",
          "ticks": 131904,
          "time": 102.991765,
          "velocity": 0.905511811023622
        },
        {
          "duration": 0.13888500000000192,
          "durationTicks": 192,
          "midi": 50,
          "name": "D3",
          "ticks": 132096,
          "time": 103.13065,
          "velocity": 0.905511811023622
        },
        {
          "duration": 0.13888500000000192,
          "durationTicks": 192,
          "midi": 53,
          "name": "F3",
          "ticks": 132096,
          "time": 103.13065,
          "velocity": 0.905511811023622
        },
        {
          "duration": 0.13888500000000192,
          "durationTicks": 192,
          "midi": 50,
          "name": "D3",
          "ticks": 132288,
          "time": 103.269535,
          "velocity": 0.905511811023622
        },
        {
          "duration": 0.13888500000000192,
          "durationTicks": 192,
          "midi": 53,
          "name": "F3",
          "ticks": 132288,
          "time": 103.269535,
          "velocity": 0.905511811023622
        },
        {
          "duration": 0.13888500000000192,
          "durationTicks": 192,
          "midi": 50,
          "name": "D3",
          "ticks": 132480,
          "time": 103.40842,
          "velocity": 0.905511811023622
        },
        {
          "duration": 0.13888500000000192,
          "durationTicks": 192,
          "midi": 53,
          "name": "F3",
          "ticks": 132480,
          "time": 103.40842,
          "velocity": 0.905511811023622
        },
        {
          "duration": 0.13888500000000192,
          "durationTicks": 192,
          "midi": 50,
          "name": "D3",
          "ticks": 132672,
          "time": 103.54730500000001,
          "velocity": 0.905511811023622
        },
        {
          "duration": 0.13888500000000192,
          "durationTicks": 192,
          "midi": 53,
          "name": "F3",
          "ticks": 132672,
          "time": 103.54730500000001,
          "velocity": 0.905511811023622
        },
        {
          "duration": 0.13888500000000192,
          "durationTicks": 192,
          "midi": 50,
          "name": "D3",
          "ticks": 132864,
          "time": 103.68619000000001,
          "velocity": 0.905511811023622
        },
        {
          "duration": 0.13888500000000192,
          "durationTicks": 192,
          "midi": 53,
          "name": "F3",
          "ticks": 132864,
          "time": 103.68619000000001,
          "velocity": 0.905511811023622
        },
        {
          "duration": 0.13888500000000192,
          "durationTicks": 192,
          "midi": 50,
          "name": "D3",
          "ticks": 133056,
          "time": 103.82507500000001,
          "velocity": 0.905511811023622
        },
        {
          "duration": 0.13888500000000192,
          "durationTicks": 192,
          "midi": 53,
          "name": "F3",
          "ticks": 133056,
          "time": 103.82507500000001,
          "velocity": 0.905511811023622
        },
        {
          "duration": 0.1388849999999877,
          "durationTicks": 192,
          "midi": 50,
          "name": "D3",
          "ticks": 133248,
          "time": 103.96396000000001,
          "velocity": 0.905511811023622
        },
        {
          "duration": 0.1388849999999877,
          "durationTicks": 192,
          "midi": 53,
          "name": "F3",
          "ticks": 133248,
          "time": 103.96396000000001,
          "velocity": 0.905511811023622
        },
        {
          "duration": 0.13888500000000192,
          "durationTicks": 192,
          "midi": 50,
          "name": "D3",
          "ticks": 133440,
          "time": 104.102845,
          "velocity": 0.905511811023622
        },
        {
          "duration": 0.13888500000000192,
          "durationTicks": 192,
          "midi": 53,
          "name": "F3",
          "ticks": 133440,
          "time": 104.102845,
          "velocity": 0.905511811023622
        },
        {
          "duration": 0.13888500000000192,
          "durationTicks": 192,
          "midi": 50,
          "name": "D3",
          "ticks": 133632,
          "time": 104.24173,
          "velocity": 0.905511811023622
        },
        {
          "duration": 0.13888500000000192,
          "durationTicks": 192,
          "midi": 53,
          "name": "F3",
          "ticks": 133632,
          "time": 104.24173,
          "velocity": 0.905511811023622
        },
        {
          "duration": 0.13888500000000192,
          "durationTicks": 192,
          "midi": 50,
          "name": "D3",
          "ticks": 133824,
          "time": 104.380615,
          "velocity": 0.905511811023622
        },
        {
          "duration": 0.13888500000000192,
          "durationTicks": 192,
          "midi": 53,
          "name": "F3",
          "ticks": 133824,
          "time": 104.380615,
          "velocity": 0.905511811023622
        },
        {
          "duration": 0.13888500000000192,
          "durationTicks": 192,
          "midi": 48,
          "name": "C3",
          "ticks": 134016,
          "time": 104.51950000000001,
          "velocity": 0.905511811023622
        },
        {
          "duration": 0.13888500000000192,
          "durationTicks": 192,
          "midi": 51,
          "name": "D#3",
          "ticks": 134016,
          "time": 104.51950000000001,
          "velocity": 0.905511811023622
        },
        {
          "duration": 0.13888500000000192,
          "durationTicks": 192,
          "midi": 48,
          "name": "C3",
          "ticks": 134208,
          "time": 104.65838500000001,
          "velocity": 0.905511811023622
        },
        {
          "duration": 0.13888500000000192,
          "durationTicks": 192,
          "midi": 51,
          "name": "D#3",
          "ticks": 134208,
          "time": 104.65838500000001,
          "velocity": 0.905511811023622
        },
        {
          "duration": 0.13888500000000192,
          "durationTicks": 192,
          "midi": 48,
          "name": "C3",
          "ticks": 134400,
          "time": 104.79727000000001,
          "velocity": 0.968503937007874
        },
        {
          "duration": 0.13888500000000192,
          "durationTicks": 192,
          "midi": 51,
          "name": "D#3",
          "ticks": 134400,
          "time": 104.79727000000001,
          "velocity": 0.968503937007874
        },
        {
          "duration": 0.1388849999999877,
          "durationTicks": 192,
          "midi": 51,
          "name": "D#3",
          "ticks": 134592,
          "time": 104.93615500000001,
          "velocity": 0.968503937007874
        },
        {
          "duration": 0.1388849999999877,
          "durationTicks": 192,
          "midi": 54,
          "name": "F#3",
          "ticks": 134592,
          "time": 104.93615500000001,
          "velocity": 0.968503937007874
        },
        {
          "duration": 0.13888500000000192,
          "durationTicks": 192,
          "midi": 51,
          "name": "D#3",
          "ticks": 134784,
          "time": 105.07504,
          "velocity": 0.968503937007874
        },
        {
          "duration": 0.13888500000000192,
          "durationTicks": 192,
          "midi": 54,
          "name": "F#3",
          "ticks": 134784,
          "time": 105.07504,
          "velocity": 0.968503937007874
        },
        {
          "duration": 0.13888500000000192,
          "durationTicks": 192,
          "midi": 51,
          "name": "D#3",
          "ticks": 134976,
          "time": 105.213925,
          "velocity": 0.968503937007874
        },
        {
          "duration": 0.13888500000000192,
          "durationTicks": 192,
          "midi": 54,
          "name": "F#3",
          "ticks": 134976,
          "time": 105.213925,
          "velocity": 0.968503937007874
        },
        {
          "duration": 0.13888500000000192,
          "durationTicks": 192,
          "midi": 51,
          "name": "D#3",
          "ticks": 135168,
          "time": 105.35281,
          "velocity": 0.968503937007874
        },
        {
          "duration": 0.13888500000000192,
          "durationTicks": 192,
          "midi": 54,
          "name": "F#3",
          "ticks": 135168,
          "time": 105.35281,
          "velocity": 0.968503937007874
        },
        {
          "duration": 0.13888500000000192,
          "durationTicks": 192,
          "midi": 51,
          "name": "D#3",
          "ticks": 135360,
          "time": 105.491695,
          "velocity": 0.968503937007874
        },
        {
          "duration": 0.13888500000000192,
          "durationTicks": 192,
          "midi": 54,
          "name": "F#3",
          "ticks": 135360,
          "time": 105.491695,
          "velocity": 0.968503937007874
        },
        {
          "duration": 0.13888500000000192,
          "durationTicks": 192,
          "midi": 51,
          "name": "D#3",
          "ticks": 135552,
          "time": 105.63058000000001,
          "velocity": 0.968503937007874
        },
        {
          "duration": 0.13888500000000192,
          "durationTicks": 192,
          "midi": 54,
          "name": "F#3",
          "ticks": 135552,
          "time": 105.63058000000001,
          "velocity": 0.968503937007874
        },
        {
          "duration": 0.13888500000000192,
          "durationTicks": 192,
          "midi": 51,
          "name": "D#3",
          "ticks": 135744,
          "time": 105.76946500000001,
          "velocity": 0.968503937007874
        },
        {
          "duration": 0.13888500000000192,
          "durationTicks": 192,
          "midi": 54,
          "name": "F#3",
          "ticks": 135744,
          "time": 105.76946500000001,
          "velocity": 0.968503937007874
        },
        {
          "duration": 0.1388849999999877,
          "durationTicks": 192,
          "midi": 51,
          "name": "D#3",
          "ticks": 135936,
          "time": 105.90835000000001,
          "velocity": 0.968503937007874
        },
        {
          "duration": 0.1388849999999877,
          "durationTicks": 192,
          "midi": 54,
          "name": "F#3",
          "ticks": 135936,
          "time": 105.90835000000001,
          "velocity": 0.968503937007874
        },
        {
          "duration": 0.13888500000000192,
          "durationTicks": 192,
          "midi": 51,
          "name": "D#3",
          "ticks": 136128,
          "time": 106.047235,
          "velocity": 0.968503937007874
        },
        {
          "duration": 0.13888500000000192,
          "durationTicks": 192,
          "midi": 54,
          "name": "F#3",
          "ticks": 136128,
          "time": 106.047235,
          "velocity": 0.968503937007874
        },
        {
          "duration": 0.13888500000000192,
          "durationTicks": 192,
          "midi": 51,
          "name": "D#3",
          "ticks": 136320,
          "time": 106.18612,
          "velocity": 0.968503937007874
        },
        {
          "duration": 0.13888500000000192,
          "durationTicks": 192,
          "midi": 54,
          "name": "F#3",
          "ticks": 136320,
          "time": 106.18612,
          "velocity": 0.968503937007874
        },
        {
          "duration": 0.13888500000000192,
          "durationTicks": 192,
          "midi": 51,
          "name": "D#3",
          "ticks": 136512,
          "time": 106.325005,
          "velocity": 0.968503937007874
        },
        {
          "duration": 0.13888500000000192,
          "durationTicks": 192,
          "midi": 54,
          "name": "F#3",
          "ticks": 136512,
          "time": 106.325005,
          "velocity": 0.968503937007874
        },
        {
          "duration": 0.13888500000000192,
          "durationTicks": 192,
          "midi": 51,
          "name": "D#3",
          "ticks": 136704,
          "time": 106.46389,
          "velocity": 0.968503937007874
        },
        {
          "duration": 0.13888500000000192,
          "durationTicks": 192,
          "midi": 54,
          "name": "F#3",
          "ticks": 136704,
          "time": 106.46389,
          "velocity": 0.968503937007874
        },
        {
          "duration": 0.13888500000000192,
          "durationTicks": 192,
          "midi": 51,
          "name": "D#3",
          "ticks": 136896,
          "time": 106.60277500000001,
          "velocity": 0.968503937007874
        },
        {
          "duration": 0.13888500000000192,
          "durationTicks": 192,
          "midi": 54,
          "name": "F#3",
          "ticks": 136896,
          "time": 106.60277500000001,
          "velocity": 0.968503937007874
        },
        {
          "duration": 0.13888500000000192,
          "durationTicks": 192,
          "midi": 51,
          "name": "D#3",
          "ticks": 137088,
          "time": 106.74166000000001,
          "velocity": 0.968503937007874
        },
        {
          "duration": 0.13888500000000192,
          "durationTicks": 192,
          "midi": 54,
          "name": "F#3",
          "ticks": 137088,
          "time": 106.74166000000001,
          "velocity": 0.968503937007874
        },
        {
          "duration": 0.1388849999999877,
          "durationTicks": 192,
          "midi": 51,
          "name": "D#3",
          "ticks": 137280,
          "time": 106.88054500000001,
          "velocity": 0.968503937007874
        },
        {
          "duration": 0.1388849999999877,
          "durationTicks": 192,
          "midi": 54,
          "name": "F#3",
          "ticks": 137280,
          "time": 106.88054500000001,
          "velocity": 0.968503937007874
        },
        {
          "duration": 0.27777000000000385,
          "durationTicks": 384,
          "midi": 51,
          "name": "D#3",
          "ticks": 137472,
          "time": 107.01943,
          "velocity": 0.968503937007874
        },
        {
          "duration": 0.27777000000000385,
          "durationTicks": 384,
          "midi": 54,
          "name": "F#3",
          "ticks": 137472,
          "time": 107.01943,
          "velocity": 0.968503937007874
        },
        {
          "duration": 0.27777000000000385,
          "durationTicks": 384,
          "midi": 53,
          "name": "F3",
          "ticks": 139008,
          "time": 108.13051,
          "velocity": 0.968503937007874
        },
        {
          "duration": 0.5769200000000012,
          "durationTicks": 768,
          "midi": 63,
          "name": "D#4",
          "ticks": 142848,
          "time": 110.99373000000001,
          "velocity": 0.7165354330708661
        },
        {
          "duration": 0.576919999999987,
          "durationTicks": 768,
          "midi": 65,
          "name": "F4",
          "ticks": 143616,
          "time": 111.57065000000001,
          "velocity": 0.7165354330708661
        },
        {
          "duration": 0.5769200000000012,
          "durationTicks": 768,
          "midi": 62,
          "name": "D4",
          "ticks": 144384,
          "time": 112.14757,
          "velocity": 0.7165354330708661
        },
        {
          "duration": 0.5769200000000012,
          "durationTicks": 768,
          "midi": 63,
          "name": "D#4",
          "ticks": 145152,
          "time": 112.72449,
          "velocity": 0.7165354330708661
        },
        {
          "duration": 0.5769200000000012,
          "durationTicks": 768,
          "midi": 63,
          "name": "D#4",
          "ticks": 145920,
          "time": 113.30141,
          "velocity": 0.7165354330708661
        },
        {
          "duration": 0.5660199999999946,
          "durationTicks": 768,
          "midi": 65,
          "name": "F4",
          "ticks": 146688,
          "time": 113.87833,
          "velocity": 0.7165354330708661
        },
        {
          "duration": 0.5660200000000088,
          "durationTicks": 768,
          "midi": 62,
          "name": "D4",
          "ticks": 147456,
          "time": 114.44435,
          "velocity": 0.7165354330708661
        },
        {
          "duration": 0.5660199999999946,
          "durationTicks": 768,
          "midi": 63,
          "name": "D#4",
          "ticks": 148224,
          "time": 115.01037000000001,
          "velocity": 0.7165354330708661
        },
        {
          "duration": 0.5660200000000088,
          "durationTicks": 768,
          "midi": 63,
          "name": "D#4",
          "ticks": 148992,
          "time": 115.57639,
          "velocity": 0.7165354330708661
        },
        {
          "duration": 0.5555399999999935,
          "durationTicks": 768,
          "midi": 65,
          "name": "F4",
          "ticks": 149760,
          "time": 116.14241000000001,
          "velocity": 0.7165354330708661
        },
        {
          "duration": 0.5555400000000077,
          "durationTicks": 768,
          "midi": 62,
          "name": "D4",
          "ticks": 150528,
          "time": 116.69795,
          "velocity": 0.7165354330708661
        },
        {
          "duration": 0.5555399999999935,
          "durationTicks": 768,
          "midi": 63,
          "name": "D#4",
          "ticks": 151296,
          "time": 117.25349000000001,
          "velocity": 0.7165354330708661
        },
        {
          "duration": 0.5555400000000077,
          "durationTicks": 768,
          "midi": 63,
          "name": "D#4",
          "ticks": 152064,
          "time": 117.80903,
          "velocity": 0.7165354330708661
        },
        {
          "duration": 0.5555399999999935,
          "durationTicks": 768,
          "midi": 65,
          "name": "F4",
          "ticks": 152832,
          "time": 118.36457000000001,
          "velocity": 0.7165354330708661
        },
        {
          "duration": 0.5555400000000077,
          "durationTicks": 768,
          "midi": 65,
          "name": "F4",
          "ticks": 153600,
          "time": 118.92011000000001,
          "velocity": 0.7165354330708661
        },
        {
          "duration": 0.5555399999999935,
          "durationTicks": 768,
          "midi": 60,
          "name": "C4",
          "ticks": 154368,
          "time": 119.47565000000002,
          "velocity": 0.7165354330708661
        },
        {
          "duration": 0.5555400000000077,
          "durationTicks": 768,
          "midi": 65,
          "name": "F4",
          "ticks": 155136,
          "time": 120.03119000000001,
          "velocity": 0.7165354330708661
        },
        {
          "duration": 0.5555399999999935,
          "durationTicks": 768,
          "midi": 67,
          "name": "G4",
          "ticks": 155904,
          "time": 120.58673000000002,
          "velocity": 0.7165354330708661
        },
        {
          "duration": 0.5555400000000077,
          "durationTicks": 768,
          "midi": 67,
          "name": "G4",
          "ticks": 156672,
          "time": 121.14227000000001,
          "velocity": 0.7165354330708661
        },
        {
          "duration": 0.5555399999999935,
          "durationTicks": 768,
          "midi": 63,
          "name": "D#4",
          "ticks": 157440,
          "time": 121.69781000000002,
          "velocity": 0.7165354330708661
        },
        {
          "duration": 0.13888500000000192,
          "durationTicks": 192,
          "midi": 57,
          "name": "A3",
          "ticks": 159168,
          "time": 122.94777500000001,
          "velocity": 0.7165354330708661
        },
        {
          "duration": 0.13888500000000192,
          "durationTicks": 192,
          "midi": 57,
          "name": "A3",
          "ticks": 159360,
          "time": 123.08666000000001,
          "velocity": 0.7165354330708661
        },
        {
          "duration": 0.13888500000000192,
          "durationTicks": 192,
          "midi": 57,
          "name": "A3",
          "ticks": 159552,
          "time": 123.22554500000001,
          "velocity": 0.7165354330708661
        },
        {
          "duration": 0.27777000000000385,
          "durationTicks": 384,
          "midi": 57,
          "name": "A3",
          "ticks": 159744,
          "time": 123.36443000000001,
          "velocity": 0.7165354330708661
        },
        {
          "duration": 0.13888500000000192,
          "durationTicks": 192,
          "midi": 58,
          "name": "A#3",
          "ticks": 160704,
          "time": 124.05885500000001,
          "velocity": 0.7165354330708661
        },
        {
          "duration": 0.13888500000000192,
          "durationTicks": 192,
          "midi": 58,
          "name": "A#3",
          "ticks": 160896,
          "time": 124.19774000000001,
          "velocity": 0.7165354330708661
        },
        {
          "duration": 0.13888500000000192,
          "durationTicks": 192,
          "midi": 58,
          "name": "A#3",
          "ticks": 161088,
          "time": 124.33662500000001,
          "velocity": 0.7165354330708661
        },
        {
          "duration": 0.27777000000000385,
          "durationTicks": 384,
          "midi": 58,
          "name": "A#3",
          "ticks": 161280,
          "time": 124.47551000000001,
          "velocity": 0.7165354330708661
        },
        {
          "duration": 0.13888500000000192,
          "durationTicks": 192,
          "midi": 59,
          "name": "B3",
          "ticks": 162240,
          "time": 125.16993500000001,
          "velocity": 0.7952755905511811
        },
        {
          "duration": 0.13888500000000192,
          "durationTicks": 192,
          "midi": 59,
          "name": "B3",
          "ticks": 162432,
          "time": 125.30882000000001,
          "velocity": 0.7952755905511811
        },
        {
          "duration": 0.13888500000000192,
          "durationTicks": 192,
          "midi": 59,
          "name": "B3",
          "ticks": 162624,
          "time": 125.44770500000001,
          "velocity": 0.7952755905511811
        },
        {
          "duration": 0.27777000000000385,
          "durationTicks": 384,
          "midi": 59,
          "name": "B3",
          "ticks": 162816,
          "time": 125.58659000000002,
          "velocity": 0.7952755905511811
        },
        {
          "duration": 0.13888500000000192,
          "durationTicks": 192,
          "midi": 60,
          "name": "C4",
          "ticks": 163776,
          "time": 126.28101500000001,
          "velocity": 0.8582677165354331
        },
        {
          "duration": 0.13888500000000192,
          "durationTicks": 192,
          "midi": 60,
          "name": "C4",
          "ticks": 163968,
          "time": 126.41990000000001,
          "velocity": 0.8582677165354331
        },
        {
          "duration": 0.13888500000000192,
          "durationTicks": 192,
          "midi": 60,
          "name": "C4",
          "ticks": 164160,
          "time": 126.55878500000001,
          "velocity": 0.8582677165354331
        },
        {
          "duration": 0.27777000000000385,
          "durationTicks": 384,
          "midi": 60,
          "name": "C4",
          "ticks": 164352,
          "time": 126.69767000000002,
          "velocity": 0.8582677165354331
        },
        {
          "duration": 0.13888500000000192,
          "durationTicks": 192,
          "midi": 60,
          "name": "C4",
          "ticks": 165312,
          "time": 127.39209500000001,
          "velocity": 0.905511811023622
        },
        {
          "duration": 0.13888500000000192,
          "durationTicks": 192,
          "midi": 60,
          "name": "C4",
          "ticks": 165504,
          "time": 127.53098000000001,
          "velocity": 0.905511811023622
        },
        {
          "duration": 0.13888500000000192,
          "durationTicks": 192,
          "midi": 60,
          "name": "C4",
          "ticks": 165696,
          "time": 127.66986500000002,
          "velocity": 0.905511811023622
        },
        {
          "duration": 0.27776999999998964,
          "durationTicks": 384,
          "midi": 60,
          "name": "C4",
          "ticks": 165888,
          "time": 127.80875000000002,
          "velocity": 0.905511811023622
        },
        {
          "duration": 0.13888500000001613,
          "durationTicks": 192,
          "midi": 60,
          "name": "C4",
          "ticks": 166272,
          "time": 128.08652,
          "velocity": 0.905511811023622
        },
        {
          "duration": 0.1388849999999877,
          "durationTicks": 192,
          "midi": 60,
          "name": "C4",
          "ticks": 166464,
          "time": 128.22540500000002,
          "velocity": 0.905511811023622
        },
        {
          "duration": 0.8333100000000115,
          "durationTicks": 1152,
          "midi": 62,
          "name": "D4",
          "ticks": 166656,
          "time": 128.36429,
          "velocity": 0.968503937007874
        },
        {
          "duration": 0.2777699999999754,
          "durationTicks": 384,
          "midi": 50,
          "name": "D3",
          "ticks": 167808,
          "time": 129.19760000000002,
          "velocity": 0.968503937007874
        },
        {
          "duration": 0.27777000000000385,
          "durationTicks": 384,
          "midi": 51,
          "name": "D#3",
          "ticks": 168192,
          "time": 129.47537,
          "velocity": 0.968503937007874
        },
        {
          "duration": 0.27777000000000385,
          "durationTicks": 384,
          "midi": 53,
          "name": "F3",
          "ticks": 168960,
          "time": 130.03091,
          "velocity": 0.968503937007874
        },
        {
          "duration": 0.27777000000000385,
          "durationTicks": 384,
          "midi": 55,
          "name": "G3",
          "ticks": 169728,
          "time": 130.58645,
          "velocity": 0.968503937007874
        },
        {
          "duration": 0.27777000000000385,
          "durationTicks": 384,
          "midi": 56,
          "name": "G#3",
          "ticks": 170496,
          "time": 131.14199000000002,
          "velocity": 0.968503937007874
        },
        {
          "duration": 0.27777000000000385,
          "durationTicks": 384,
          "midi": 58,
          "name": "A#3",
          "ticks": 171264,
          "time": 131.69753,
          "velocity": 0.968503937007874
        },
        {
          "duration": 0.27777000000000385,
          "durationTicks": 384,
          "midi": 58,
          "name": "A#3",
          "ticks": 172032,
          "time": 132.25307,
          "velocity": 0.968503937007874
        },
        {
          "duration": 0.1388849999999877,
          "durationTicks": 192,
          "midi": 53,
          "name": "F3",
          "ticks": 172800,
          "time": 132.80861000000002,
          "velocity": 0.968503937007874
        },
        {
          "duration": 0.13888500000001613,
          "durationTicks": 192,
          "midi": 53,
          "name": "F3",
          "ticks": 172992,
          "time": 132.947495,
          "velocity": 0.968503937007874
        },
        {
          "duration": 0.1388849999999877,
          "durationTicks": 192,
          "midi": 58,
          "name": "A#3",
          "ticks": 173184,
          "time": 133.08638000000002,
          "velocity": 0.968503937007874
        },
        {
          "duration": 0.13888500000001613,
          "durationTicks": 192,
          "midi": 58,
          "name": "A#3",
          "ticks": 173376,
          "time": 133.225265,
          "velocity": 0.968503937007874
        },
        {
          "duration": 0.1388849999999877,
          "durationTicks": 192,
          "midi": 53,
          "name": "F3",
          "ticks": 173568,
          "time": 133.36415000000002,
          "velocity": 0.968503937007874
        },
        {
          "duration": 0.13888500000001613,
          "durationTicks": 192,
          "midi": 53,
          "name": "F3",
          "ticks": 173760,
          "time": 133.503035,
          "velocity": 0.968503937007874
        },
        {
          "duration": 0.1388849999999877,
          "durationTicks": 192,
          "midi": 58,
          "name": "A#3",
          "ticks": 173952,
          "time": 133.64192000000003,
          "velocity": 0.968503937007874
        },
        {
          "duration": 0.1388849999999877,
          "durationTicks": 192,
          "midi": 58,
          "name": "A#3",
          "ticks": 174144,
          "time": 133.78080500000002,
          "velocity": 0.968503937007874
        },
        {
          "duration": 0.13888500000001613,
          "durationTicks": 192,
          "midi": 55,
          "name": "G3",
          "ticks": 174336,
          "time": 133.91969,
          "velocity": 0.968503937007874
        },
        {
          "duration": 0.1388849999999877,
          "durationTicks": 192,
          "midi": 55,
          "name": "G3",
          "ticks": 174528,
          "time": 134.05857500000002,
          "velocity": 0.968503937007874
        },
        {
          "duration": 0.13888500000001613,
          "durationTicks": 192,
          "midi": 58,
          "name": "A#3",
          "ticks": 174720,
          "time": 134.19746,
          "velocity": 0.968503937007874
        },
        {
          "duration": 0.1388849999999877,
          "durationTicks": 192,
          "midi": 58,
          "name": "A#3",
          "ticks": 174912,
          "time": 134.33634500000002,
          "velocity": 0.968503937007874
        },
        {
          "duration": 0.13888500000001613,
          "durationTicks": 192,
          "midi": 56,
          "name": "G#3",
          "ticks": 175104,
          "time": 134.47523,
          "velocity": 0.968503937007874
        },
        {
          "duration": 0.1388849999999877,
          "durationTicks": 192,
          "midi": 56,
          "name": "G#3",
          "ticks": 175296,
          "time": 134.61411500000003,
          "velocity": 0.968503937007874
        },
        {
          "duration": 0.1388849999999877,
          "durationTicks": 192,
          "midi": 58,
          "name": "A#3",
          "ticks": 175488,
          "time": 134.75300000000001,
          "velocity": 0.968503937007874
        },
        {
          "duration": 0.13888500000001613,
          "durationTicks": 192,
          "midi": 58,
          "name": "A#3",
          "ticks": 175680,
          "time": 134.891885,
          "velocity": 0.968503937007874
        },
        {
          "duration": 0.1388849999999877,
          "durationTicks": 192,
          "midi": 65,
          "name": "F4",
          "ticks": 175872,
          "time": 135.03077000000002,
          "velocity": 0.968503937007874
        },
        {
          "duration": 0.13888500000001613,
          "durationTicks": 192,
          "midi": 63,
          "name": "D#4",
          "ticks": 176064,
          "time": 135.169655,
          "velocity": 0.968503937007874
        },
        {
          "duration": 0.1388849999999877,
          "durationTicks": 192,
          "midi": 58,
          "name": "A#3",
          "ticks": 176256,
          "time": 135.30854000000002,
          "velocity": 0.968503937007874
        },
        {
          "duration": 0.13888500000001613,
          "durationTicks": 192,
          "midi": 55,
          "name": "G3",
          "ticks": 176448,
          "time": 135.447425,
          "velocity": 0.968503937007874
        },
        {
          "duration": 0.1388849999999877,
          "durationTicks": 192,
          "midi": 62,
          "name": "D4",
          "ticks": 176640,
          "time": 135.58631000000003,
          "velocity": 0.968503937007874
        },
        {
          "duration": 0.1388849999999877,
          "durationTicks": 192,
          "midi": 60,
          "name": "C4",
          "ticks": 176832,
          "time": 135.725195,
          "velocity": 0.968503937007874
        },
        {
          "duration": 0.13888500000001613,
          "durationTicks": 192,
          "midi": 56,
          "name": "G#3",
          "ticks": 177024,
          "time": 135.86408,
          "velocity": 0.968503937007874
        },
        {
          "duration": 0.1388849999999877,
          "durationTicks": 192,
          "midi": 53,
          "name": "F3",
          "ticks": 177216,
          "time": 136.00296500000002,
          "velocity": 0.968503937007874
        },
        {
          "duration": 0.13888500000001613,
          "durationTicks": 192,
          "midi": 60,
          "name": "C4",
          "ticks": 177408,
          "time": 136.14185,
          "velocity": 0.968503937007874
        },
        {
          "duration": 0.1388849999999877,
          "durationTicks": 192,
          "midi": 58,
          "name": "A#3",
          "ticks": 177600,
          "time": 136.28073500000002,
          "velocity": 0.968503937007874
        },
        {
          "duration": 0.13888500000001613,
          "durationTicks": 192,
          "midi": 55,
          "name": "G3",
          "ticks": 177792,
          "time": 136.41962,
          "velocity": 0.968503937007874
        },
        {
          "duration": 0.1388849999999877,
          "durationTicks": 192,
          "midi": 51,
          "name": "D#3",
          "ticks": 177984,
          "time": 136.55850500000003,
          "velocity": 0.968503937007874
        },
        {
          "duration": 0.1388849999999877,
          "durationTicks": 192,
          "midi": 50,
          "name": "D3",
          "ticks": 178176,
          "time": 136.69739,
          "velocity": 0.968503937007874
        },
        {
          "duration": 0.13888500000001613,
          "durationTicks": 192,
          "midi": 53,
          "name": "F3",
          "ticks": 178368,
          "time": 136.836275,
          "velocity": 0.968503937007874
        },
        {
          "duration": 0.13888500000001613,
          "durationTicks": 192,
          "midi": 62,
          "name": "D4",
          "ticks": 178368,
          "time": 136.836275,
          "velocity": 0.968503937007874
        },
        {
          "duration": 0.1388849999999877,
          "durationTicks": 192,
          "midi": 56,
          "name": "G#3",
          "ticks": 178560,
          "time": 136.97516000000002,
          "velocity": 0.968503937007874
        },
        {
          "duration": 0.1388849999999877,
          "durationTicks": 192,
          "midi": 65,
          "name": "F4",
          "ticks": 178560,
          "time": 136.97516000000002,
          "velocity": 0.968503937007874
        },
        {
          "duration": 0.13888500000001613,
          "durationTicks": 192,
          "midi": 53,
          "name": "F3",
          "ticks": 178752,
          "time": 137.114045,
          "velocity": 0.968503937007874
        },
        {
          "duration": 0.13888500000001613,
          "durationTicks": 192,
          "midi": 62,
          "name": "D4",
          "ticks": 178752,
          "time": 137.114045,
          "velocity": 0.968503937007874
        },
        {
          "duration": 1.8055049999999824,
          "durationTicks": 2496,
          "midi": 55,
          "name": "G3",
          "ticks": 178944,
          "time": 137.25293000000002,
          "velocity": 0.968503937007874
        },
        {
          "duration": 0.13888500000001613,
          "durationTicks": 192,
          "midi": 58,
          "name": "A#3",
          "ticks": 181440,
          "time": 139.058435,
          "velocity": 0.968503937007874
        },
        {
          "duration": 0.1388849999999877,
          "durationTicks": 192,
          "midi": 58,
          "name": "A#3",
          "ticks": 181632,
          "time": 139.19732000000002,
          "velocity": 0.968503937007874
        },
        {
          "duration": 0.13888500000001613,
          "durationTicks": 192,
          "midi": 58,
          "name": "A#3",
          "ticks": 181824,
          "time": 139.336205,
          "velocity": 0.968503937007874
        },
        {
          "duration": 1.8055049999999824,
          "durationTicks": 2496,
          "midi": 58,
          "name": "A#3",
          "ticks": 182016,
          "time": 139.47509000000002,
          "velocity": 0.968503937007874
        },
        {
          "duration": 0.13888500000001613,
          "durationTicks": 192,
          "midi": 58,
          "name": "A#3",
          "ticks": 184512,
          "time": 141.280595,
          "velocity": 0.968503937007874
        },
        {
          "duration": 0.1388849999999877,
          "durationTicks": 192,
          "midi": 58,
          "name": "A#3",
          "ticks": 184704,
          "time": 141.41948000000002,
          "velocity": 0.968503937007874
        },
        {
          "duration": 0.13888500000001613,
          "durationTicks": 192,
          "midi": 58,
          "name": "A#3",
          "ticks": 184896,
          "time": 141.558365,
          "velocity": 0.968503937007874
        },
        {
          "duration": 0.27777000000000385,
          "durationTicks": 384,
          "midi": 58,
          "name": "A#3",
          "ticks": 185088,
          "time": 141.69725000000003,
          "velocity": 0.968503937007874
        },
        {
          "duration": 0.1388849999999877,
          "durationTicks": 192,
          "midi": 58,
          "name": "A#3",
          "ticks": 186048,
          "time": 142.39167500000002,
          "velocity": 0.968503937007874
        },
        {
          "duration": 0.13888500000001613,
          "durationTicks": 192,
          "midi": 58,
          "name": "A#3",
          "ticks": 186240,
          "time": 142.53056,
          "velocity": 0.968503937007874
        },
        {
          "duration": 0.1388849999999877,
          "durationTicks": 192,
          "midi": 58,
          "name": "A#3",
          "ticks": 186432,
          "time": 142.66944500000002,
          "velocity": 0.968503937007874
        },
        {
          "duration": 0.27777000000000385,
          "durationTicks": 384,
          "midi": 58,
          "name": "A#3",
          "ticks": 186624,
          "time": 142.80833,
          "velocity": 0.968503937007874
        },
        {
          "duration": 0.13888500000001613,
          "durationTicks": 192,
          "midi": 58,
          "name": "A#3",
          "ticks": 187584,
          "time": 143.502755,
          "velocity": 0.968503937007874
        },
        {
          "duration": 0.1388849999999877,
          "durationTicks": 192,
          "midi": 58,
          "name": "A#3",
          "ticks": 187776,
          "time": 143.64164000000002,
          "velocity": 0.968503937007874
        },
        {
          "duration": 0.13888500000001613,
          "durationTicks": 192,
          "midi": 58,
          "name": "A#3",
          "ticks": 187968,
          "time": 143.780525,
          "velocity": 0.968503937007874
        },
        {
          "duration": 0.2777699999999754,
          "durationTicks": 384,
          "midi": 63,
          "name": "D#4",
          "ticks": 188160,
          "time": 143.91941000000003,
          "velocity": 0.968503937007874
        },
        {
          "duration": 0.1388849999999877,
          "durationTicks": 192,
          "midi": 49,
          "name": "C#3",
          "ticks": 191424,
          "time": 146.28045500000002,
          "velocity": 0.968503937007874
        },
        {
          "duration": 0.13888500000001613,
          "durationTicks": 192,
          "midi": 49,
          "name": "C#3",
          "ticks": 191616,
          "time": 146.41934,
          "velocity": 0.968503937007874
        },
        {
          "duration": 0.1388849999999877,
          "durationTicks": 192,
          "midi": 49,
          "name": "C#3",
          "ticks": 191808,
          "time": 146.55822500000002,
          "velocity": 0.968503937007874
        },
        {
          "duration": 1.5714199999999892,
          "durationTicks": 1536,
          "midi": 48,
          "name": "C3",
          "ticks": 192000,
          "time": 146.69711,
          "velocity": 0.968503937007874
        },
        {
          "duration": 1.288470000000018,
          "durationTicks": 1728,
          "midi": 60,
          "name": "C4",
          "ticks": 194304,
          "time": 148.83995000000002,
          "velocity": 0.7165354330708661
        },
        {
          "duration": 0.14562999999998283,
          "durationTicks": 192,
          "midi": 61,
          "name": "C#4",
          "ticks": 196032,
          "time": 150.12842000000003,
          "velocity": 0.7165354330708661
        },
        {
          "duration": 0.14563000000001125,
          "durationTicks": 192,
          "midi": 61,
          "name": "C#4",
          "ticks": 196224,
          "time": 150.27405000000002,
          "velocity": 0.7165354330708661
        },
        {
          "duration": 0.14562999999998283,
          "durationTicks": 192,
          "midi": 61,
          "name": "C#4",
          "ticks": 196416,
          "time": 150.41968000000003,
          "velocity": 0.7165354330708661
        },
        {
          "duration": 1.897560000000027,
          "durationTicks": 2496,
          "midi": 60,
          "name": "C4",
          "ticks": 196608,
          "time": 150.56531,
          "velocity": 0.7165354330708661
        },
        {
          "duration": 0.15000000000000568,
          "durationTicks": 192,
          "midi": 61,
          "name": "C#4",
          "ticks": 199104,
          "time": 152.46287000000004,
          "velocity": 0.7165354330708661
        },
        {
          "duration": 0.14999999999997726,
          "durationTicks": 192,
          "midi": 61,
          "name": "C#4",
          "ticks": 199296,
          "time": 152.61287000000004,
          "velocity": 0.7165354330708661
        },
        {
          "duration": 0.15000000000000568,
          "durationTicks": 192,
          "midi": 61,
          "name": "C#4",
          "ticks": 199488,
          "time": 152.76287000000002,
          "velocity": 0.7165354330708661
        },
        {
          "duration": 2.4000000000000057,
          "durationTicks": 3072,
          "midi": 60,
          "name": "C4",
          "ticks": 199680,
          "time": 152.91287000000003,
          "velocity": 0.7165354330708661
        },
        {
          "duration": 1.1999999999999886,
          "durationTicks": 1536,
          "midi": 60,
          "name": "C4",
          "ticks": 202752,
          "time": 155.31287000000003,
          "velocity": 0.7165354330708661
        },
        {
          "duration": 0.30000000000001137,
          "durationTicks": 384,
          "midi": 62,
          "name": "D4",
          "ticks": 204288,
          "time": 156.51287000000002,
          "velocity": 0.7165354330708661
        },
        {
          "duration": 0.30000000000001137,
          "durationTicks": 384,
          "midi": 63,
          "name": "D#4",
          "ticks": 204672,
          "time": 156.81287000000003,
          "velocity": 0.7165354330708661
        },
        {
          "duration": 0.29999999999998295,
          "durationTicks": 384,
          "midi": 65,
          "name": "F4",
          "ticks": 205056,
          "time": 157.11287000000004,
          "velocity": 0.7165354330708661
        },
        {
          "duration": 0.30000000000001137,
          "durationTicks": 384,
          "midi": 66,
          "name": "F#4",
          "ticks": 205440,
          "time": 157.41287000000003,
          "velocity": 0.7165354330708661
        },
        {
          "duration": 0.15000000000000568,
          "durationTicks": 192,
          "midi": 67,
          "name": "G4",
          "ticks": 205824,
          "time": 157.71287000000004,
          "velocity": 0.7165354330708661
        },
        {
          "duration": 0.14999999999997726,
          "durationTicks": 192,
          "midi": 67,
          "name": "G4",
          "ticks": 206016,
          "time": 157.86287000000004,
          "velocity": 0.7165354330708661
        },
        {
          "duration": 0.15000000000000568,
          "durationTicks": 192,
          "midi": 67,
          "name": "G4",
          "ticks": 206208,
          "time": 158.01287000000002,
          "velocity": 0.7165354330708661
        },
        {
          "duration": 0.15000000000000568,
          "durationTicks": 192,
          "midi": 65,
          "name": "F4",
          "ticks": 206400,
          "time": 158.16287000000003,
          "velocity": 0.7165354330708661
        },
        {
          "duration": 0.5999999999999943,
          "durationTicks": 768,
          "midi": 63,
          "name": "D#4",
          "ticks": 206592,
          "time": 158.31287000000003,
          "velocity": 0.7165354330708661
        },
        {
          "duration": 0.15000000000000568,
          "durationTicks": 192,
          "midi": 62,
          "name": "D4",
          "ticks": 207360,
          "time": 158.91287000000003,
          "velocity": 0.7165354330708661
        },
        {
          "duration": 0.15000000000000568,
          "durationTicks": 192,
          "midi": 67,
          "name": "G4",
          "ticks": 207552,
          "time": 159.06287000000003,
          "velocity": 0.7165354330708661
        },
        {
          "duration": 0.15000000000000568,
          "durationTicks": 192,
          "midi": 67,
          "name": "G4",
          "ticks": 207744,
          "time": 159.21287000000004,
          "velocity": 0.7165354330708661
        },
        {
          "duration": 0.14999999999997726,
          "durationTicks": 192,
          "midi": 65,
          "name": "F4",
          "ticks": 207936,
          "time": 159.36287000000004,
          "velocity": 0.7165354330708661
        },
        {
          "duration": 0.6000000000000227,
          "durationTicks": 768,
          "midi": 63,
          "name": "D#4",
          "ticks": 208128,
          "time": 159.51287000000002,
          "velocity": 0.7165354330708661
        },
        {
          "duration": 0.14999999999997726,
          "durationTicks": 192,
          "midi": 62,
          "name": "D4",
          "ticks": 208896,
          "time": 160.11287000000004,
          "velocity": 0.7165354330708661
        },
        {
          "duration": 0.15000000000000568,
          "durationTicks": 192,
          "midi": 67,
          "name": "G4",
          "ticks": 209088,
          "time": 160.26287000000002,
          "velocity": 0.7165354330708661
        },
        {
          "duration": 0.15000000000000568,
          "durationTicks": 192,
          "midi": 67,
          "name": "G4",
          "ticks": 209280,
          "time": 160.41287000000003,
          "velocity": 0.7165354330708661
        },
        {
          "duration": 0.15000000000000568,
          "durationTicks": 192,
          "midi": 65,
          "name": "F4",
          "ticks": 209472,
          "time": 160.56287000000003,
          "velocity": 0.7165354330708661
        },
        {
          "duration": 0.15000000000000568,
          "durationTicks": 192,
          "midi": 63,
          "name": "D#4",
          "ticks": 209664,
          "time": 160.71287000000004,
          "velocity": 0.7165354330708661
        },
        {
          "duration": 0.14999999999997726,
          "durationTicks": 192,
          "midi": 63,
          "name": "D#4",
          "ticks": 209856,
          "time": 160.86287000000004,
          "velocity": 0.7165354330708661
        },
        {
          "duration": 0.15000000000000568,
          "durationTicks": 192,
          "midi": 63,
          "name": "D#4",
          "ticks": 210048,
          "time": 161.01287000000002,
          "velocity": 0.7165354330708661
        },
        {
          "duration": 0.15000000000000568,
          "durationTicks": 192,
          "midi": 62,
          "name": "D4",
          "ticks": 210240,
          "time": 161.16287000000003,
          "velocity": 0.7165354330708661
        },
        {
          "duration": 0.15000000000000568,
          "durationTicks": 192,
          "midi": 60,
          "name": "C4",
          "ticks": 210432,
          "time": 161.31287000000003,
          "velocity": 0.7165354330708661
        },
        {
          "duration": 0.15000000000000568,
          "durationTicks": 192,
          "midi": 60,
          "name": "C4",
          "ticks": 210624,
          "time": 161.46287000000004,
          "velocity": 0.7165354330708661
        },
        {
          "duration": 0.14999999999997726,
          "durationTicks": 192,
          "midi": 60,
          "name": "C4",
          "ticks": 210816,
          "time": 161.61287000000004,
          "velocity": 0.7165354330708661
        },
        {
          "duration": 0.15000000000000568,
          "durationTicks": 192,
          "midi": 58,
          "name": "A#3",
          "ticks": 211008,
          "time": 161.76287000000002,
          "velocity": 0.7165354330708661
        },
        {
          "duration": 0.15000000000000568,
          "durationTicks": 192,
          "midi": 57,
          "name": "A3",
          "ticks": 211200,
          "time": 161.91287000000003,
          "velocity": 0.7165354330708661
        },
        {
          "duration": 0.15000000000000568,
          "durationTicks": 192,
          "midi": 57,
          "name": "A3",
          "ticks": 211392,
          "time": 162.06287000000003,
          "velocity": 0.7165354330708661
        },
        {
          "duration": 0.15000000000000568,
          "durationTicks": 192,
          "midi": 57,
          "name": "A3",
          "ticks": 211584,
          "time": 162.21287000000004,
          "velocity": 0.7165354330708661
        },
        {
          "duration": 0.14999999999997726,
          "durationTicks": 192,
          "midi": 55,
          "name": "G3",
          "ticks": 211776,
          "time": 162.36287000000004,
          "velocity": 0.7165354330708661
        },
        {
          "duration": 0.30000000000001137,
          "durationTicks": 384,
          "midi": 54,
          "name": "F#3",
          "ticks": 211968,
          "time": 162.51287000000002,
          "velocity": 0.7165354330708661
        },
        {
          "duration": 0.15000000000000568,
          "durationTicks": 192,
          "midi": 58,
          "name": "A#3",
          "ticks": 212928,
          "time": 163.26287000000002,
          "velocity": 0.7165354330708661
        },
        {
          "duration": 0.15000000000000568,
          "durationTicks": 192,
          "midi": 58,
          "name": "A#3",
          "ticks": 213120,
          "time": 163.41287000000003,
          "velocity": 0.7165354330708661
        },
        {
          "duration": 0.15000000000000568,
          "durationTicks": 192,
          "midi": 60,
          "name": "C4",
          "ticks": 213312,
          "time": 163.56287000000003,
          "velocity": 0.7165354330708661
        },
        {
          "duration": 0.75,
          "durationTicks": 960,
          "midi": 62,
          "name": "D4",
          "ticks": 213504,
          "time": 163.71287000000004,
          "velocity": 0.7165354330708661
        },
        {
          "duration": 0.15000000000000568,
          "durationTicks": 192,
          "midi": 58,
          "name": "A#3",
          "ticks": 214464,
          "time": 164.46287000000004,
          "velocity": 0.7165354330708661
        },
        {
          "duration": 0.14999999999997726,
          "durationTicks": 192,
          "midi": 58,
          "name": "A#3",
          "ticks": 214656,
          "time": 164.61287000000004,
          "velocity": 0.7165354330708661
        },
        {
          "duration": 0.15000000000000568,
          "durationTicks": 192,
          "midi": 60,
          "name": "C4",
          "ticks": 214848,
          "time": 164.76287000000002,
          "velocity": 0.7165354330708661
        },
        {
          "duration": 0.15000000000000568,
          "durationTicks": 192,
          "midi": 62,
          "name": "D4",
          "ticks": 215040,
          "time": 164.91287000000003,
          "velocity": 0.7165354330708661
        },
        {
          "duration": 0.15000000000000568,
          "durationTicks": 192,
          "midi": 62,
          "name": "D4",
          "ticks": 215232,
          "time": 165.06287000000003,
          "velocity": 0.7165354330708661
        },
        {
          "duration": 0.15000000000000568,
          "durationTicks": 192,
          "midi": 62,
          "name": "D4",
          "ticks": 215424,
          "time": 165.21287000000004,
          "velocity": 0.7165354330708661
        },
        {
          "duration": 0.14999999999997726,
          "durationTicks": 192,
          "midi": 60,
          "name": "C4",
          "ticks": 215616,
          "time": 165.36287000000004,
          "velocity": 0.7165354330708661
        },
        {
          "duration": 0.15000000000000568,
          "durationTicks": 192,
          "midi": 58,
          "name": "A#3",
          "ticks": 215808,
          "time": 165.51287000000002,
          "velocity": 0.7165354330708661
        },
        {
          "duration": 0.15000000000000568,
          "durationTicks": 192,
          "midi": 58,
          "name": "A#3",
          "ticks": 216000,
          "time": 165.66287000000003,
          "velocity": 0.7165354330708661
        },
        {
          "duration": 0.15000000000000568,
          "durationTicks": 192,
          "midi": 58,
          "name": "A#3",
          "ticks": 216192,
          "time": 165.81287000000003,
          "velocity": 0.7165354330708661
        },
        {
          "duration": 0.15000000000000568,
          "durationTicks": 192,
          "midi": 57,
          "name": "A3",
          "ticks": 216384,
          "time": 165.96287000000004,
          "velocity": 0.7165354330708661
        },
        {
          "duration": 0.14999999999997726,
          "durationTicks": 192,
          "midi": 55,
          "name": "G3",
          "ticks": 216576,
          "time": 166.11287000000004,
          "velocity": 0.7165354330708661
        },
        {
          "duration": 0.15000000000000568,
          "durationTicks": 192,
          "midi": 55,
          "name": "G3",
          "ticks": 216768,
          "time": 166.26287000000002,
          "velocity": 0.7165354330708661
        },
        {
          "duration": 0.15000000000000568,
          "durationTicks": 192,
          "midi": 55,
          "name": "G3",
          "ticks": 216960,
          "time": 166.41287000000003,
          "velocity": 0.7165354330708661
        },
        {
          "duration": 0.15000000000000568,
          "durationTicks": 192,
          "midi": 53,
          "name": "F3",
          "ticks": 217152,
          "time": 166.56287000000003,
          "velocity": 0.7165354330708661
        },
        {
          "duration": 0.15000000000000568,
          "durationTicks": 192,
          "midi": 51,
          "name": "D#3",
          "ticks": 217344,
          "time": 166.71287000000004,
          "velocity": 0.7165354330708661
        },
        {
          "duration": 0.14999999999997726,
          "durationTicks": 192,
          "midi": 51,
          "name": "D#3",
          "ticks": 217536,
          "time": 166.86287000000004,
          "velocity": 0.7165354330708661
        },
        {
          "duration": 0.15000000000000568,
          "durationTicks": 192,
          "midi": 51,
          "name": "D#3",
          "ticks": 217728,
          "time": 167.01287000000002,
          "velocity": 0.7165354330708661
        },
        {
          "duration": 0.15000000000000568,
          "durationTicks": 192,
          "midi": 50,
          "name": "D3",
          "ticks": 217920,
          "time": 167.16287000000003,
          "velocity": 0.7165354330708661
        },
        {
          "duration": 0.15000000000000568,
          "durationTicks": 192,
          "midi": 48,
          "name": "C3",
          "ticks": 218112,
          "time": 167.31287000000003,
          "velocity": 0.7165354330708661
        },
        {
          "duration": 0.15000000000000568,
          "durationTicks": 192,
          "midi": 60,
          "name": "C4",
          "ticks": 218304,
          "time": 167.46287000000004,
          "velocity": 0.7165354330708661
        },
        {
          "duration": 0.14999999999997726,
          "durationTicks": 192,
          "midi": 60,
          "name": "C4",
          "ticks": 218496,
          "time": 167.61287000000004,
          "velocity": 0.7165354330708661
        },
        {
          "duration": 0.15000000000000568,
          "durationTicks": 192,
          "midi": 58,
          "name": "A#3",
          "ticks": 218688,
          "time": 167.76287000000002,
          "velocity": 0.7165354330708661
        },
        {
          "duration": 0.15000000000000568,
          "durationTicks": 192,
          "midi": 57,
          "name": "A3",
          "ticks": 218880,
          "time": 167.91287000000003,
          "velocity": 0.7165354330708661
        },
        {
          "duration": 0.15000000000000568,
          "durationTicks": 192,
          "midi": 57,
          "name": "A3",
          "ticks": 219072,
          "time": 168.06287000000003,
          "velocity": 0.7165354330708661
        },
        {
          "duration": 0.15000000000000568,
          "durationTicks": 192,
          "midi": 57,
          "name": "A3",
          "ticks": 219264,
          "time": 168.21287000000004,
          "velocity": 0.7165354330708661
        },
        {
          "duration": 0.14999999999997726,
          "durationTicks": 192,
          "midi": 55,
          "name": "G3",
          "ticks": 219456,
          "time": 168.36287000000004,
          "velocity": 0.7165354330708661
        },
        {
          "duration": 0.15000000000000568,
          "durationTicks": 192,
          "midi": 54,
          "name": "F#3",
          "ticks": 219648,
          "time": 168.51287000000002,
          "velocity": 0.7165354330708661
        },
        {
          "duration": 0.15000000000000568,
          "durationTicks": 192,
          "midi": 54,
          "name": "F#3",
          "ticks": 219840,
          "time": 168.66287000000003,
          "velocity": 0.7165354330708661
        },
        {
          "duration": 0.15000000000000568,
          "durationTicks": 192,
          "midi": 54,
          "name": "F#3",
          "ticks": 220032,
          "time": 168.81287000000003,
          "velocity": 0.7165354330708661
        },
        {
          "duration": 0.15000000000000568,
          "durationTicks": 192,
          "midi": 51,
          "name": "D#3",
          "ticks": 220224,
          "time": 168.96287000000004,
          "velocity": 0.7165354330708661
        },
        {
          "duration": 0.14999999999997726,
          "durationTicks": 192,
          "midi": 50,
          "name": "D3",
          "ticks": 220416,
          "time": 169.11287000000004,
          "velocity": 0.7165354330708661
        },
        {
          "duration": 0.15000000000000568,
          "durationTicks": 192,
          "midi": 50,
          "name": "D3",
          "ticks": 220608,
          "time": 169.26287000000002,
          "velocity": 0.7165354330708661
        },
        {
          "duration": 0.15000000000000568,
          "durationTicks": 192,
          "midi": 50,
          "name": "D3",
          "ticks": 220800,
          "time": 169.41287000000003,
          "velocity": 0.7165354330708661
        },
        {
          "duration": 0.15000000000000568,
          "durationTicks": 192,
          "midi": 48,
          "name": "C3",
          "ticks": 220992,
          "time": 169.56287000000003,
          "velocity": 0.7165354330708661
        },
        {
          "duration": 0.15000000000000568,
          "durationTicks": 192,
          "midi": 58,
          "name": "A#3",
          "ticks": 221184,
          "time": 169.71287000000004,
          "velocity": 0.7165354330708661
        },
        {
          "duration": 0.14999999999997726,
          "durationTicks": 192,
          "midi": 62,
          "name": "D4",
          "ticks": 221376,
          "time": 169.86287000000004,
          "velocity": 0.7165354330708661
        },
        {
          "duration": 0.15000000000000568,
          "durationTicks": 192,
          "midi": 62,
          "name": "D4",
          "ticks": 221568,
          "time": 170.01287000000002,
          "velocity": 0.7165354330708661
        },
        {
          "duration": 0.15000000000000568,
          "durationTicks": 192,
          "midi": 60,
          "name": "C4",
          "ticks": 221760,
          "time": 170.16287000000003,
          "velocity": 0.7165354330708661
        },
        {
          "duration": 0.15000000000000568,
          "durationTicks": 192,
          "midi": 58,
          "name": "A#3",
          "ticks": 221952,
          "time": 170.31287000000003,
          "velocity": 0.7165354330708661
        },
        {
          "duration": 0.15000000000000568,
          "durationTicks": 192,
          "midi": 58,
          "name": "A#3",
          "ticks": 222144,
          "time": 170.46287000000004,
          "velocity": 0.7165354330708661
        },
        {
          "duration": 0.14999999999997726,
          "durationTicks": 192,
          "midi": 58,
          "name": "A#3",
          "ticks": 222336,
          "time": 170.61287000000004,
          "velocity": 0.7165354330708661
        },
        {
          "duration": 0.15000000000000568,
          "durationTicks": 192,
          "midi": 57,
          "name": "A3",
          "ticks": 222528,
          "time": 170.76287000000002,
          "velocity": 0.7952755905511811
        },
        {
          "duration": 0.15000000000000568,
          "durationTicks": 192,
          "midi": 55,
          "name": "G3",
          "ticks": 222720,
          "time": 170.91287000000003,
          "velocity": 0.7952755905511811
        },
        {
          "duration": 0.15000000000000568,
          "durationTicks": 192,
          "midi": 53,
          "name": "F3",
          "ticks": 222912,
          "time": 171.06287000000003,
          "velocity": 0.8582677165354331
        },
        {
          "duration": 0.15000000000000568,
          "durationTicks": 192,
          "midi": 51,
          "name": "D#3",
          "ticks": 223104,
          "time": 171.21287000000004,
          "velocity": 0.8582677165354331
        },
        {
          "duration": 0.14999999999997726,
          "durationTicks": 192,
          "midi": 50,
          "name": "D3",
          "ticks": 223296,
          "time": 171.36287000000004,
          "velocity": 0.8582677165354331
        },
        {
          "duration": 0.15000000000000568,
          "durationTicks": 192,
          "midi": 48,
          "name": "C3",
          "ticks": 223488,
          "time": 171.51287000000002,
          "velocity": 0.905511811023622
        },
        {
          "duration": 0.15000000000000568,
          "durationTicks": 192,
          "midi": 48,
          "name": "C3",
          "ticks": 223680,
          "time": 171.66287000000003,
          "velocity": 0.905511811023622
        },
        {
          "duration": 0.15000000000000568,
          "durationTicks": 192,
          "midi": 60,
          "name": "C4",
          "ticks": 223680,
          "time": 171.66287000000003,
          "velocity": 0.905511811023622
        },
        {
          "duration": 0.15000000000000568,
          "durationTicks": 192,
          "midi": 48,
          "name": "C3",
          "ticks": 223872,
          "time": 171.81287000000003,
          "velocity": 0.905511811023622
        },
        {
          "duration": 0.15000000000000568,
          "durationTicks": 192,
          "midi": 60,
          "name": "C4",
          "ticks": 223872,
          "time": 171.81287000000003,
          "velocity": 0.905511811023622
        },
        {
          "duration": 0.15000000000000568,
          "durationTicks": 192,
          "midi": 48,
          "name": "C3",
          "ticks": 224064,
          "time": 171.96287000000004,
          "velocity": 0.905511811023622
        },
        {
          "duration": 0.15000000000000568,
          "durationTicks": 192,
          "midi": 60,
          "name": "C4",
          "ticks": 224064,
          "time": 171.96287000000004,
          "velocity": 0.905511811023622
        },
        {
          "duration": 0.14999999999997726,
          "durationTicks": 192,
          "midi": 48,
          "name": "C3",
          "ticks": 224256,
          "time": 172.11287000000004,
          "velocity": 0.905511811023622
        },
        {
          "duration": 0.14999999999997726,
          "durationTicks": 192,
          "midi": 60,
          "name": "C4",
          "ticks": 224256,
          "time": 172.11287000000004,
          "velocity": 0.905511811023622
        },
        {
          "duration": 0.15000000000000568,
          "durationTicks": 192,
          "midi": 48,
          "name": "C3",
          "ticks": 224448,
          "time": 172.26287000000002,
          "velocity": 0.905511811023622
        },
        {
          "duration": 0.15000000000000568,
          "durationTicks": 192,
          "midi": 60,
          "name": "C4",
          "ticks": 224448,
          "time": 172.26287000000002,
          "velocity": 0.905511811023622
        },
        {
          "duration": 0.15000000000000568,
          "durationTicks": 192,
          "midi": 48,
          "name": "C3",
          "ticks": 224640,
          "time": 172.41287000000003,
          "velocity": 0.905511811023622
        },
        {
          "duration": 0.15000000000000568,
          "durationTicks": 192,
          "midi": 60,
          "name": "C4",
          "ticks": 224640,
          "time": 172.41287000000003,
          "velocity": 0.905511811023622
        },
        {
          "duration": 0.15000000000000568,
          "durationTicks": 192,
          "midi": 48,
          "name": "C3",
          "ticks": 224832,
          "time": 172.56287000000003,
          "velocity": 0.905511811023622
        },
        {
          "duration": 0.15000000000000568,
          "durationTicks": 192,
          "midi": 60,
          "name": "C4",
          "ticks": 224832,
          "time": 172.56287000000003,
          "velocity": 0.905511811023622
        },
        {
          "duration": 0.29999999999998295,
          "durationTicks": 384,
          "midi": 48,
          "name": "C3",
          "ticks": 225024,
          "time": 172.71287000000004,
          "velocity": 0.905511811023622
        },
        {
          "duration": 0.29999999999998295,
          "durationTicks": 384,
          "midi": 60,
          "name": "C4",
          "ticks": 225024,
          "time": 172.71287000000004,
          "velocity": 0.905511811023622
        },
        {
          "duration": 0.15000000000000568,
          "durationTicks": 192,
          "midi": 49,
          "name": "C#3",
          "ticks": 225984,
          "time": 173.46287000000004,
          "velocity": 0.905511811023622
        },
        {
          "duration": 0.14999999999997726,
          "durationTicks": 192,
          "midi": 49,
          "name": "C#3",
          "ticks": 226176,
          "time": 173.61287000000004,
          "velocity": 0.905511811023622
        },
        {
          "duration": 0.15000000000000568,
          "durationTicks": 192,
          "midi": 49,
          "name": "C#3",
          "ticks": 226368,
          "time": 173.76287000000002,
          "velocity": 0.905511811023622
        },
        {
          "duration": 0.15000000000000568,
          "durationTicks": 192,
          "midi": 49,
          "name": "C#3",
          "ticks": 226560,
          "time": 173.91287000000003,
          "velocity": 0.905511811023622
        },
        {
          "duration": 0.15000000000000568,
          "durationTicks": 192,
          "midi": 61,
          "name": "C#4",
          "ticks": 226752,
          "time": 174.06287000000003,
          "velocity": 0.905511811023622
        },
        {
          "duration": 0.15000000000000568,
          "durationTicks": 192,
          "midi": 61,
          "name": "C#4",
          "ticks": 226944,
          "time": 174.21287000000004,
          "velocity": 0.905511811023622
        },
        {
          "duration": 0.14999999999997726,
          "durationTicks": 192,
          "midi": 61,
          "name": "C#4",
          "ticks": 227136,
          "time": 174.36287000000004,
          "velocity": 0.905511811023622
        },
        {
          "duration": 0.15000000000000568,
          "durationTicks": 192,
          "midi": 61,
          "name": "C#4",
          "ticks": 227328,
          "time": 174.51287000000002,
          "velocity": 0.905511811023622
        },
        {
          "duration": 0.15000000000000568,
          "durationTicks": 192,
          "midi": 61,
          "name": "C#4",
          "ticks": 227520,
          "time": 174.66287000000003,
          "velocity": 0.905511811023622
        },
        {
          "duration": 0.15000000000000568,
          "durationTicks": 192,
          "midi": 61,
          "name": "C#4",
          "ticks": 227712,
          "time": 174.81287000000003,
          "velocity": 0.905511811023622
        },
        {
          "duration": 0.15000000000000568,
          "durationTicks": 192,
          "midi": 61,
          "name": "C#4",
          "ticks": 227904,
          "time": 174.96287000000004,
          "velocity": 0.905511811023622
        },
        {
          "duration": 0.29999999999998295,
          "durationTicks": 384,
          "midi": 61,
          "name": "C#4",
          "ticks": 228096,
          "time": 175.11287000000004,
          "velocity": 0.905511811023622
        },
        {
          "duration": 0.14999999999997726,
          "durationTicks": 192,
          "midi": 62,
          "name": "D4",
          "ticks": 229056,
          "time": 175.86287000000004,
          "velocity": 0.905511811023622
        },
        {
          "duration": 0.15000000000000568,
          "durationTicks": 192,
          "midi": 62,
          "name": "D4",
          "ticks": 229248,
          "time": 176.01287000000002,
          "velocity": 0.905511811023622
        },
        {
          "duration": 0.15000000000000568,
          "durationTicks": 192,
          "midi": 62,
          "name": "D4",
          "ticks": 229440,
          "time": 176.16287000000003,
          "velocity": 0.905511811023622
        },
        {
          "duration": 0.30000000000001137,
          "durationTicks": 384,
          "midi": 62,
          "name": "D4",
          "ticks": 229632,
          "time": 176.31287000000003,
          "velocity": 0.905511811023622
        },
        {
          "duration": 0.15000000000000568,
          "durationTicks": 192,
          "midi": 64,
          "name": "E4",
          "ticks": 230784,
          "time": 177.21287000000004,
          "velocity": 0.905511811023622
        },
        {
          "duration": 0.14999999999997726,
          "durationTicks": 192,
          "midi": 64,
          "name": "E4",
          "ticks": 230976,
          "time": 177.36287000000004,
          "velocity": 0.905511811023622
        },
        {
          "duration": 0.30000000000001137,
          "durationTicks": 384,
          "midi": 64,
          "name": "E4",
          "ticks": 231168,
          "time": 177.51287000000002,
          "velocity": 0.905511811023622
        },
        {
          "duration": 0.15000000000000568,
          "durationTicks": 192,
          "midi": 54,
          "name": "F#3",
          "ticks": 231552,
          "time": 177.81287000000003,
          "velocity": 0.905511811023622
        },
        {
          "duration": 0.15000000000000568,
          "durationTicks": 192,
          "midi": 54,
          "name": "F#3",
          "ticks": 231744,
          "time": 177.96287000000004,
          "velocity": 0.905511811023622
        },
        {
          "duration": 0.29999999999998295,
          "durationTicks": 384,
          "midi": 54,
          "name": "F#3",
          "ticks": 231936,
          "time": 178.11287000000004,
          "velocity": 0.905511811023622
        },
        {
          "duration": 0.5999999999999943,
          "durationTicks": 768,
          "midi": 72,
          "name": "C5",
          "ticks": 234624,
          "time": 180.21287000000004,
          "velocity": 0.905511811023622
        },
        {
          "duration": 0.30000000000001137,
          "durationTicks": 384,
          "midi": 69,
          "name": "A4",
          "ticks": 235392,
          "time": 180.81287000000003,
          "velocity": 0.905511811023622
        },
        {
          "duration": 0.29999999999998295,
          "durationTicks": 384,
          "midi": 66,
          "name": "F#4",
          "ticks": 235776,
          "time": 181.11287000000004,
          "velocity": 0.905511811023622
        },
        {
          "duration": 0.30000000000001137,
          "durationTicks": 384,
          "midi": 62,
          "name": "D4",
          "ticks": 236160,
          "time": 181.41287000000003,
          "velocity": 0.905511811023622
        },
        {
          "duration": 0.29999999999998295,
          "durationTicks": 384,
          "midi": 60,
          "name": "C4",
          "ticks": 236544,
          "time": 181.71287000000004,
          "velocity": 0.905511811023622
        },
        {
          "duration": 0.30000000000001137,
          "durationTicks": 384,
          "midi": 57,
          "name": "A3",
          "ticks": 236928,
          "time": 182.01287000000002,
          "velocity": 0.905511811023622
        },
        {
          "duration": 0.30000000000001137,
          "durationTicks": 384,
          "midi": 54,
          "name": "F#3",
          "ticks": 237312,
          "time": 182.31287000000003,
          "velocity": 0.905511811023622
        },
        {
          "duration": 0.29999999999998295,
          "durationTicks": 384,
          "midi": 50,
          "name": "D3",
          "ticks": 237696,
          "time": 182.61287000000004,
          "velocity": 0.905511811023622
        },
        {
          "duration": 0.30000000000001137,
          "durationTicks": 384,
          "midi": 55,
          "name": "G3",
          "ticks": 238080,
          "time": 182.91287000000003,
          "velocity": 0.905511811023622
        },
        {
          "duration": 0.6000000000000227,
          "durationTicks": 768,
          "midi": 77,
          "name": "F5",
          "ticks": 240768,
          "time": 185.01287000000002,
          "velocity": 0.905511811023622
        },
        {
          "duration": 0.29999999999998295,
          "durationTicks": 384,
          "midi": 74,
          "name": "D5",
          "ticks": 241536,
          "time": 185.61287000000004,
          "velocity": 0.905511811023622
        },
        {
          "duration": 0.30000000000001137,
          "durationTicks": 384,
          "midi": 71,
          "name": "B4",
          "ticks": 241920,
          "time": 185.91287000000003,
          "velocity": 0.905511811023622
        },
        {
          "duration": 0.29999999999998295,
          "durationTicks": 384,
          "midi": 67,
          "name": "G4",
          "ticks": 242304,
          "time": 186.21287000000004,
          "velocity": 0.905511811023622
        },
        {
          "duration": 0.30000000000001137,
          "durationTicks": 384,
          "midi": 65,
          "name": "F4",
          "ticks": 242688,
          "time": 186.51287000000002,
          "velocity": 0.905511811023622
        },
        {
          "duration": 0.30000000000001137,
          "durationTicks": 384,
          "midi": 62,
          "name": "D4",
          "ticks": 243072,
          "time": 186.81287000000003,
          "velocity": 0.905511811023622
        },
        {
          "duration": 0.29999999999998295,
          "durationTicks": 384,
          "midi": 59,
          "name": "B3",
          "ticks": 243456,
          "time": 187.11287000000004,
          "velocity": 0.905511811023622
        },
        {
          "duration": 0.30000000000001137,
          "durationTicks": 384,
          "midi": 55,
          "name": "G3",
          "ticks": 243840,
          "time": 187.41287000000003,
          "velocity": 0.905511811023622
        },
        {
          "duration": 0.29999999999998295,
          "durationTicks": 384,
          "midi": 60,
          "name": "C4",
          "ticks": 244224,
          "time": 187.71287000000004,
          "velocity": 0.905511811023622
        },
        {
          "duration": 0.6000000000000227,
          "durationTicks": 768,
          "midi": 48,
          "name": "C3",
          "ticks": 246528,
          "time": 189.51287000000002,
          "velocity": 0.905511811023622
        },
        {
          "duration": 0.6000000000000227,
          "durationTicks": 768,
          "midi": 60,
          "name": "C4",
          "ticks": 246528,
          "time": 189.51287000000002,
          "velocity": 0.905511811023622
        },
        {
          "duration": 0.5999999999999943,
          "durationTicks": 768,
          "midi": 48,
          "name": "C3",
          "ticks": 247296,
          "time": 190.11287000000004,
          "velocity": 0.905511811023622
        },
        {
          "duration": 0.5999999999999943,
          "durationTicks": 768,
          "midi": 60,
          "name": "C4",
          "ticks": 247296,
          "time": 190.11287000000004,
          "velocity": 0.905511811023622
        },
        {
          "duration": 0.5999999999999943,
          "durationTicks": 768,
          "midi": 55,
          "name": "G3",
          "ticks": 249600,
          "time": 191.91287000000003,
          "velocity": 0.905511811023622
        },
        {
          "duration": 0.6000000000000227,
          "durationTicks": 768,
          "midi": 56,
          "name": "G#3",
          "ticks": 250368,
          "time": 192.51287000000002,
          "velocity": 0.905511811023622
        },
        {
          "duration": 0.5999999999999943,
          "durationTicks": 768,
          "midi": 58,
          "name": "A#3",
          "ticks": 252672,
          "time": 194.31287000000003,
          "velocity": 0.905511811023622
        },
        {
          "duration": 0.5999999999999943,
          "durationTicks": 768,
          "midi": 51,
          "name": "D#3",
          "ticks": 253440,
          "time": 194.91287000000003,
          "velocity": 0.905511811023622
        },
        {
          "duration": 0.5999999999999943,
          "durationTicks": 768,
          "midi": 53,
          "name": "F3",
          "ticks": 255744,
          "time": 196.71287000000004,
          "velocity": 0.905511811023622
        },
        {
          "duration": 0.6122400000000141,
          "durationTicks": 768,
          "midi": 54,
          "name": "F#3",
          "ticks": 257280,
          "time": 197.91287000000003,
          "velocity": 0.905511811023622
        },
        {
          "duration": 0.6122400000000141,
          "durationTicks": 768,
          "midi": 53,
          "name": "F3",
          "ticks": 258816,
          "time": 199.13735000000003,
          "velocity": 0.8582677165354331
        },
        {
          "duration": 0.6122400000000141,
          "durationTicks": 768,
          "midi": 54,
          "name": "F#3",
          "ticks": 260352,
          "time": 200.36183000000003,
          "velocity": 0.7952755905511811
        },
        {
          "duration": 0.6122400000000141,
          "durationTicks": 768,
          "midi": 54,
          "name": "F#3",
          "ticks": 261888,
          "time": 201.58631000000003,
          "velocity": 0.7165354330708661
        },
        {
          "duration": 0.6122400000000141,
          "durationTicks": 768,
          "midi": 54,
          "name": "F#3",
          "ticks": 263424,
          "time": 202.81079000000003,
          "velocity": 0.7165354330708661
        },
        {
          "duration": 0.6122400000000141,
          "durationTicks": 768,
          "midi": 50,
          "name": "D3",
          "ticks": 264960,
          "time": 204.03527000000003,
          "velocity": 0.6141732283464567
        },
        {
          "duration": 0.6122400000000141,
          "durationTicks": 768,
          "midi": 50,
          "name": "D3",
          "ticks": 266496,
          "time": 205.25975000000003,
          "velocity": 0.6141732283464567
        },
        {
          "duration": 0.6122400000000141,
          "durationTicks": 768,
          "midi": 50,
          "name": "D3",
          "ticks": 268032,
          "time": 206.48423000000003,
          "velocity": 0.6141732283464567
        },
        {
          "duration": 0.15306000000001063,
          "durationTicks": 192,
          "midi": 50,
          "name": "D3",
          "ticks": 269568,
          "time": 207.70871000000002,
          "velocity": 0.968503937007874
        },
        {
          "duration": 0.1530599999999822,
          "durationTicks": 192,
          "midi": 50,
          "name": "D3",
          "ticks": 269760,
          "time": 207.86177000000004,
          "velocity": 0.968503937007874
        },
        {
          "duration": 0.1530599999999822,
          "durationTicks": 192,
          "midi": 62,
          "name": "D4",
          "ticks": 269760,
          "time": 207.86177000000004,
          "velocity": 0.968503937007874
        },
        {
          "duration": 0.15306000000001063,
          "durationTicks": 192,
          "midi": 50,
          "name": "D3",
          "ticks": 269952,
          "time": 208.01483000000002,
          "velocity": 0.968503937007874
        },
        {
          "duration": 0.15306000000001063,
          "durationTicks": 192,
          "midi": 62,
          "name": "D4",
          "ticks": 269952,
          "time": 208.01483000000002,
          "velocity": 0.968503937007874
        },
        {
          "duration": 0.15306000000001063,
          "durationTicks": 192,
          "midi": 50,
          "name": "D3",
          "ticks": 270144,
          "time": 208.16789000000003,
          "velocity": 0.968503937007874
        },
        {
          "duration": 0.15306000000001063,
          "durationTicks": 192,
          "midi": 62,
          "name": "D4",
          "ticks": 270144,
          "time": 208.16789000000003,
          "velocity": 0.968503937007874
        },
        {
          "duration": 0.6122399999999857,
          "durationTicks": 768,
          "midi": 50,
          "name": "D3",
          "ticks": 270336,
          "time": 208.32095000000004,
          "velocity": 0.968503937007874
        },
        {
          "duration": 0.6122399999999857,
          "durationTicks": 768,
          "midi": 62,
          "name": "D4",
          "ticks": 270336,
          "time": 208.32095000000004,
          "velocity": 0.968503937007874
        },
        {
          "duration": 0.6122400000000141,
          "durationTicks": 768,
          "midi": 50,
          "name": "D3",
          "ticks": 271104,
          "time": 208.93319000000002,
          "velocity": 0.968503937007874
        },
        {
          "duration": 0.6122400000000141,
          "durationTicks": 768,
          "midi": 62,
          "name": "D4",
          "ticks": 271104,
          "time": 208.93319000000002,
          "velocity": 0.968503937007874
        },
        {
          "duration": 1.2244799999999998,
          "durationTicks": 1536,
          "midi": 50,
          "name": "D3",
          "ticks": 271872,
          "time": 209.54543000000004,
          "velocity": 0.968503937007874
        },
        {
          "duration": 1.2244799999999998,
          "durationTicks": 1536,
          "midi": 62,
          "name": "D4",
          "ticks": 271872,
          "time": 209.54543000000004,
          "velocity": 0.968503937007874
        },
        {
          "duration": 0.6122400000000141,
          "durationTicks": 768,
          "midi": 53,
          "name": "F3",
          "ticks": 274176,
          "time": 211.38215000000002,
          "velocity": 0.6141732283464567
        },
        {
          "duration": 0.6122400000000141,
          "durationTicks": 768,
          "midi": 53,
          "name": "F3",
          "ticks": 275712,
          "time": 212.60663000000002,
          "velocity": 0.6141732283464567
        },
        {
          "duration": 0.6122400000000141,
          "durationTicks": 768,
          "midi": 53,
          "name": "F3",
          "ticks": 277248,
          "time": 213.83111000000002,
          "velocity": 0.6141732283464567
        },
        {
          "duration": 0.2830099999999902,
          "durationTicks": 384,
          "midi": 53,
          "name": "F3",
          "ticks": 278784,
          "time": 215.05559000000002,
          "velocity": 0.905511811023622
        },
        {
          "duration": 0.1415049999999951,
          "durationTicks": 192,
          "midi": 56,
          "name": "G#3",
          "ticks": 279744,
          "time": 215.76311500000003,
          "velocity": 0.968503937007874
        },
        {
          "duration": 0.1415049999999951,
          "durationTicks": 192,
          "midi": 56,
          "name": "G#3",
          "ticks": 279936,
          "time": 215.90462000000002,
          "velocity": 0.968503937007874
        },
        {
          "duration": 0.1415049999999951,
          "durationTicks": 192,
          "midi": 56,
          "name": "G#3",
          "ticks": 280128,
          "time": 216.04612500000002,
          "velocity": 0.968503937007874
        },
        {
          "duration": 0.707525000000004,
          "durationTicks": 960,
          "midi": 53,
          "name": "F3",
          "ticks": 280320,
          "time": 216.18763,
          "velocity": 0.968503937007874
        },
        {
          "duration": 0.1415049999999951,
          "durationTicks": 192,
          "midi": 56,
          "name": "G#3",
          "ticks": 281280,
          "time": 216.89515500000002,
          "velocity": 0.968503937007874
        },
        {
          "duration": 0.14150500000002353,
          "durationTicks": 192,
          "midi": 56,
          "name": "G#3",
          "ticks": 281472,
          "time": 217.03666,
          "velocity": 0.968503937007874
        },
        {
          "duration": 0.1415049999999951,
          "durationTicks": 192,
          "midi": 56,
          "name": "G#3",
          "ticks": 281664,
          "time": 217.17816500000004,
          "velocity": 0.968503937007874
        },
        {
          "duration": 0.707525000000004,
          "durationTicks": 960,
          "midi": 53,
          "name": "F3",
          "ticks": 281856,
          "time": 217.31967000000003,
          "velocity": 0.968503937007874
        },
        {
          "duration": 0.1415049999999951,
          "durationTicks": 192,
          "midi": 56,
          "name": "G#3",
          "ticks": 282816,
          "time": 218.02719500000003,
          "velocity": 0.968503937007874
        },
        {
          "duration": 0.1415049999999951,
          "durationTicks": 192,
          "midi": 56,
          "name": "G#3",
          "ticks": 283008,
          "time": 218.16870000000003,
          "velocity": 0.968503937007874
        },
        {
          "duration": 0.1415049999999951,
          "durationTicks": 192,
          "midi": 56,
          "name": "G#3",
          "ticks": 283200,
          "time": 218.31020500000002,
          "velocity": 0.968503937007874
        },
        {
          "duration": 0.1415049999999951,
          "durationTicks": 192,
          "midi": 53,
          "name": "F3",
          "ticks": 283392,
          "time": 218.45171000000002,
          "velocity": 0.968503937007874
        },
        {
          "duration": 0.1415049999999951,
          "durationTicks": 192,
          "midi": 56,
          "name": "G#3",
          "ticks": 283584,
          "time": 218.59321500000001,
          "velocity": 0.968503937007874
        },
        {
          "duration": 0.14150500000002353,
          "durationTicks": 192,
          "midi": 56,
          "name": "G#3",
          "ticks": 283776,
          "time": 218.73472,
          "velocity": 0.968503937007874
        },
        {
          "duration": 0.1415049999999951,
          "durationTicks": 192,
          "midi": 56,
          "name": "G#3",
          "ticks": 283968,
          "time": 218.87622500000003,
          "velocity": 0.968503937007874
        },
        {
          "duration": 0.1415049999999951,
          "durationTicks": 192,
          "midi": 53,
          "name": "F3",
          "ticks": 284160,
          "time": 219.01773000000003,
          "velocity": 0.968503937007874
        },
        {
          "duration": 0.1415049999999951,
          "durationTicks": 192,
          "midi": 56,
          "name": "G#3",
          "ticks": 284352,
          "time": 219.15923500000002,
          "velocity": 0.968503937007874
        },
        {
          "duration": 0.1415049999999951,
          "durationTicks": 192,
          "midi": 56,
          "name": "G#3",
          "ticks": 284544,
          "time": 219.30074000000002,
          "velocity": 0.968503937007874
        },
        {
          "duration": 0.1415049999999951,
          "durationTicks": 192,
          "midi": 56,
          "name": "G#3",
          "ticks": 284736,
          "time": 219.442245,
          "velocity": 0.968503937007874
        },
        {
          "duration": 0.14150500000002353,
          "durationTicks": 192,
          "midi": 53,
          "name": "F3",
          "ticks": 284928,
          "time": 219.58375,
          "velocity": 0.968503937007874
        },
        {
          "duration": 0.1415049999999951,
          "durationTicks": 192,
          "midi": 55,
          "name": "G3",
          "ticks": 285120,
          "time": 219.72525500000003,
          "velocity": 0.968503937007874
        },
        {
          "duration": 0.1415049999999951,
          "durationTicks": 192,
          "midi": 55,
          "name": "G3",
          "ticks": 285312,
          "time": 219.86676000000003,
          "velocity": 0.968503937007874
        },
        {
          "duration": 0.1415049999999951,
          "durationTicks": 192,
          "midi": 55,
          "name": "G3",
          "ticks": 285504,
          "time": 220.00826500000002,
          "velocity": 0.968503937007874
        },
        {
          "duration": 0.75,
          "durationTicks": 768,
          "midi": 51,
          "name": "D#3",
          "ticks": 285696,
          "time": 220.14977000000002,
          "velocity": 0.968503937007874
        },
        {
          "duration": 0.1415049999999951,
          "durationTicks": 192,
          "midi": 53,
          "name": "F3",
          "ticks": 286656,
          "time": 221.041275,
          "velocity": 0.968503937007874
        },
        {
          "duration": 0.14150500000002353,
          "durationTicks": 192,
          "midi": 53,
          "name": "F3",
          "ticks": 286848,
          "time": 221.18278,
          "velocity": 0.968503937007874
        },
        {
          "duration": 0.1415049999999951,
          "durationTicks": 192,
          "midi": 53,
          "name": "F3",
          "ticks": 287040,
          "time": 221.32428500000003,
          "velocity": 0.968503937007874
        },
        {
          "duration": 1.766019999999969,
          "durationTicks": 1536,
          "midi": 50,
          "name": "D3",
          "ticks": 287232,
          "time": 221.46579000000003,
          "velocity": 0.968503937007874
        },
        {
          "duration": 0.2830099999999902,
          "durationTicks": 384,
          "midi": 60,
          "name": "C4",
          "ticks": 289536,
          "time": 223.79783,
          "velocity": 0.7165354330708661
        },
        {
          "duration": 0.2830099999999902,
          "durationTicks": 384,
          "midi": 60,
          "name": "C4",
          "ticks": 291072,
          "time": 224.92987,
          "velocity": 0.7165354330708661
        },
        {
          "duration": 0.28301000000001864,
          "durationTicks": 384,
          "midi": 59,
          "name": "B3",
          "ticks": 292608,
          "time": 226.06190999999998,
          "velocity": 0.7165354330708661
        },
        {
          "duration": 0.2830099999999902,
          "durationTicks": 384,
          "midi": 59,
          "name": "B3",
          "ticks": 294144,
          "time": 227.19395,
          "velocity": 0.7165354330708661
        },
        {
          "duration": 0.28301000000001864,
          "durationTicks": 384,
          "midi": 60,
          "name": "C4",
          "ticks": 295680,
          "time": 228.32599,
          "velocity": 0.7165354330708661
        },
        {
          "duration": 0.2830099999999902,
          "durationTicks": 384,
          "midi": 59,
          "name": "B3",
          "ticks": 296448,
          "time": 228.89201,
          "velocity": 0.7165354330708661
        },
        {
          "duration": 0.1415049999999951,
          "durationTicks": 192,
          "midi": 51,
          "name": "D#3",
          "ticks": 297408,
          "time": 229.599535,
          "velocity": 0.7165354330708661
        },
        {
          "duration": 0.1415049999999951,
          "durationTicks": 192,
          "midi": 51,
          "name": "D#3",
          "ticks": 297600,
          "time": 229.74104,
          "velocity": 0.7165354330708661
        },
        {
          "duration": 0.1415049999999951,
          "durationTicks": 192,
          "midi": 53,
          "name": "F3",
          "ticks": 297792,
          "time": 229.882545,
          "velocity": 0.7165354330708661
        },
        {
          "duration": 0.1415049999999951,
          "durationTicks": 192,
          "midi": 55,
          "name": "G3",
          "ticks": 297984,
          "time": 230.02405,
          "velocity": 0.7165354330708661
        },
        {
          "duration": 0.14150500000002353,
          "durationTicks": 192,
          "midi": 55,
          "name": "G3",
          "ticks": 298176,
          "time": 230.16555499999998,
          "velocity": 0.7165354330708661
        },
        {
          "duration": 0.1415049999999951,
          "durationTicks": 192,
          "midi": 57,
          "name": "A3",
          "ticks": 298368,
          "time": 230.30706,
          "velocity": 0.7165354330708661
        },
        {
          "duration": 0.1415049999999951,
          "durationTicks": 192,
          "midi": 59,
          "name": "B3",
          "ticks": 298560,
          "time": 230.448565,
          "velocity": 0.7165354330708661
        },
        {
          "duration": 0.2830099999999902,
          "durationTicks": 384,
          "midi": 60,
          "name": "C4",
          "ticks": 298752,
          "time": 230.59007,
          "velocity": 0.7165354330708661
        },
        {
          "duration": 0.2830099999999902,
          "durationTicks": 384,
          "midi": 56,
          "name": "G#3",
          "ticks": 299520,
          "time": 231.15609,
          "velocity": 0.7165354330708661
        },
        {
          "duration": 0.28301000000001864,
          "durationTicks": 384,
          "midi": 55,
          "name": "G3",
          "ticks": 300288,
          "time": 231.72211,
          "velocity": 0.968503937007874
        },
        {
          "duration": 0.1388849999999877,
          "durationTicks": 192,
          "midi": 56,
          "name": "G#3",
          "ticks": 305856,
          "time": 236.519035,
          "velocity": 0.7165354330708661
        },
        {
          "duration": 0.13888500000001613,
          "durationTicks": 192,
          "midi": 56,
          "name": "G#3",
          "ticks": 306048,
          "time": 236.65792,
          "velocity": 0.7165354330708661
        },
        {
          "duration": 0.1388849999999877,
          "durationTicks": 192,
          "midi": 56,
          "name": "G#3",
          "ticks": 306240,
          "time": 236.796805,
          "velocity": 0.7165354330708661
        },
        {
          "duration": 0.5555400000000077,
          "durationTicks": 768,
          "midi": 55,
          "name": "G3",
          "ticks": 306432,
          "time": 236.93569,
          "velocity": 0.7165354330708661
        },
        {
          "duration": 0.1388849999999877,
          "durationTicks": 192,
          "midi": 55,
          "name": "G3",
          "ticks": 307200,
          "time": 237.49123,
          "velocity": 0.7165354330708661
        },
        {
          "duration": 0.13888500000001613,
          "durationTicks": 192,
          "midi": 56,
          "name": "G#3",
          "ticks": 307392,
          "time": 237.630115,
          "velocity": 0.7165354330708661
        },
        {
          "duration": 0.1388849999999877,
          "durationTicks": 192,
          "midi": 56,
          "name": "G#3",
          "ticks": 307584,
          "time": 237.769,
          "velocity": 0.7165354330708661
        },
        {
          "duration": 0.13888500000001613,
          "durationTicks": 192,
          "midi": 56,
          "name": "G#3",
          "ticks": 307776,
          "time": 237.907885,
          "velocity": 0.7165354330708661
        },
        {
          "duration": 0.1388849999999877,
          "durationTicks": 192,
          "midi": 53,
          "name": "F3",
          "ticks": 307968,
          "time": 238.04677,
          "velocity": 0.7952755905511811
        },
        {
          "duration": 0.13888500000001613,
          "durationTicks": 192,
          "midi": 50,
          "name": "D3",
          "ticks": 308160,
          "time": 238.185655,
          "velocity": 0.7952755905511811
        },
        {
          "duration": 0.1388849999999877,
          "durationTicks": 192,
          "midi": 50,
          "name": "D3",
          "ticks": 308352,
          "time": 238.32454,
          "velocity": 0.7952755905511811
        },
        {
          "duration": 0.1388849999999877,
          "durationTicks": 192,
          "midi": 50,
          "name": "D3",
          "ticks": 308544,
          "time": 238.463425,
          "velocity": 0.7952755905511811
        },
        {
          "duration": 0.13888500000001613,
          "durationTicks": 192,
          "midi": 59,
          "name": "B3",
          "ticks": 308736,
          "time": 238.60231,
          "velocity": 0.7952755905511811
        },
        {
          "duration": 0.1388849999999877,
          "durationTicks": 192,
          "midi": 56,
          "name": "G#3",
          "ticks": 308928,
          "time": 238.741195,
          "velocity": 0.7952755905511811
        },
        {
          "duration": 0.13888500000001613,
          "durationTicks": 192,
          "midi": 56,
          "name": "G#3",
          "ticks": 309120,
          "time": 238.88008,
          "velocity": 0.8582677165354331
        },
        {
          "duration": 0.1388849999999877,
          "durationTicks": 192,
          "midi": 56,
          "name": "G#3",
          "ticks": 309312,
          "time": 239.018965,
          "velocity": 0.8582677165354331
        },
        {
          "duration": 0.13888500000001613,
          "durationTicks": 192,
          "midi": 55,
          "name": "G3",
          "ticks": 309504,
          "time": 239.15785,
          "velocity": 0.8582677165354331
        },
        {
          "duration": 0.1388849999999877,
          "durationTicks": 192,
          "midi": 55,
          "name": "G3",
          "ticks": 309696,
          "time": 239.296735,
          "velocity": 0.8582677165354331
        },
        {
          "duration": 0.1388849999999877,
          "durationTicks": 192,
          "midi": 55,
          "name": "G3",
          "ticks": 309888,
          "time": 239.43562,
          "velocity": 0.8582677165354331
        },
        {
          "duration": 0.13888500000001613,
          "durationTicks": 192,
          "midi": 55,
          "name": "G3",
          "ticks": 310080,
          "time": 239.574505,
          "velocity": 0.8582677165354331
        },
        {
          "duration": 0.1388849999999877,
          "durationTicks": 192,
          "midi": 55,
          "name": "G3",
          "ticks": 310272,
          "time": 239.71339,
          "velocity": 0.905511811023622
        },
        {
          "duration": 0.13888500000001613,
          "durationTicks": 192,
          "midi": 60,
          "name": "C4",
          "ticks": 310464,
          "time": 239.852275,
          "velocity": 0.905511811023622
        },
        {
          "duration": 0.1388849999999877,
          "durationTicks": 192,
          "midi": 63,
          "name": "D#4",
          "ticks": 310656,
          "time": 239.99116,
          "velocity": 0.905511811023622
        },
        {
          "duration": 0.13888500000001613,
          "durationTicks": 192,
          "midi": 63,
          "name": "D#4",
          "ticks": 310848,
          "time": 240.130045,
          "velocity": 0.905511811023622
        },
        {
          "duration": 0.6944249999999954,
          "durationTicks": 960,
          "midi": 62,
          "name": "D4",
          "ticks": 311040,
          "time": 240.26893,
          "velocity": 0.905511811023622
        },
        {
          "duration": 0.1388849999999877,
          "durationTicks": 192,
          "midi": 65,
          "name": "F4",
          "ticks": 312000,
          "time": 240.963355,
          "velocity": 0.905511811023622
        },
        {
          "duration": 0.13888500000001613,
          "durationTicks": 192,
          "midi": 65,
          "name": "F4",
          "ticks": 312192,
          "time": 241.10224,
          "velocity": 0.905511811023622
        },
        {
          "duration": 0.1388849999999877,
          "durationTicks": 192,
          "midi": 62,
          "name": "D4",
          "ticks": 312384,
          "time": 241.241125,
          "velocity": 0.905511811023622
        },
        {
          "duration": 0.6944249999999954,
          "durationTicks": 960,
          "midi": 63,
          "name": "D#4",
          "ticks": 312576,
          "time": 241.38001,
          "velocity": 0.905511811023622
        },
        {
          "duration": 0.13888500000001613,
          "durationTicks": 192,
          "midi": 63,
          "name": "D#4",
          "ticks": 313536,
          "time": 242.074435,
          "velocity": 0.905511811023622
        },
        {
          "duration": 0.1388849999999877,
          "durationTicks": 192,
          "midi": 63,
          "name": "D#4",
          "ticks": 313728,
          "time": 242.21332,
          "velocity": 0.905511811023622
        },
        {
          "duration": 0.1388849999999877,
          "durationTicks": 192,
          "midi": 60,
          "name": "C4",
          "ticks": 313920,
          "time": 242.352205,
          "velocity": 0.905511811023622
        },
        {
          "duration": 0.13760999999999513,
          "durationTicks": 192,
          "midi": 65,
          "name": "F4",
          "ticks": 314112,
          "time": 242.49108999999999,
          "velocity": 0.905511811023622
        },
        {
          "duration": 0.13760999999999513,
          "durationTicks": 192,
          "midi": 65,
          "name": "F4",
          "ticks": 314304,
          "time": 242.62869999999998,
          "velocity": 0.905511811023622
        },
        {
          "duration": 0.13761000000002355,
          "durationTicks": 192,
          "midi": 65,
          "name": "F4",
          "ticks": 314496,
          "time": 242.76630999999998,
          "velocity": 0.905511811023622
        },
        {
          "duration": 0.13760999999999513,
          "durationTicks": 192,
          "midi": 59,
          "name": "B3",
          "ticks": 314688,
          "time": 242.90392,
          "velocity": 0.905511811023622
        },
        {
          "duration": 0.13760999999999513,
          "durationTicks": 192,
          "midi": 67,
          "name": "G4",
          "ticks": 314880,
          "time": 243.04153,
          "velocity": 0.905511811023622
        },
        {
          "duration": 0.13760999999999513,
          "durationTicks": 192,
          "midi": 67,
          "name": "G4",
          "ticks": 315072,
          "time": 243.17914,
          "velocity": 0.905511811023622
        },
        {
          "duration": 0.13760999999999513,
          "durationTicks": 192,
          "midi": 67,
          "name": "G4",
          "ticks": 315264,
          "time": 243.31674999999998,
          "velocity": 0.905511811023622
        },
        {
          "duration": 0.13760999999999513,
          "durationTicks": 192,
          "midi": 58,
          "name": "A#3",
          "ticks": 315456,
          "time": 243.45435999999998,
          "velocity": 0.905511811023622
        },
        {
          "duration": 0.13761000000002355,
          "durationTicks": 192,
          "midi": 68,
          "name": "G#4",
          "ticks": 315648,
          "time": 243.59196999999998,
          "velocity": 0.905511811023622
        },
        {
          "duration": 0.13760999999999513,
          "durationTicks": 192,
          "midi": 56,
          "name": "G#3",
          "ticks": 315840,
          "time": 243.72958,
          "velocity": 0.905511811023622
        },
        {
          "duration": 0.13760999999999513,
          "durationTicks": 192,
          "midi": 56,
          "name": "G#3",
          "ticks": 316032,
          "time": 243.86719,
          "velocity": 0.905511811023622
        },
        {
          "duration": 0.13760999999999513,
          "durationTicks": 192,
          "midi": 53,
          "name": "F3",
          "ticks": 316224,
          "time": 244.0048,
          "velocity": 0.905511811023622
        },
        {
          "duration": 0.13760999999999513,
          "durationTicks": 192,
          "midi": 58,
          "name": "A#3",
          "ticks": 316416,
          "time": 244.14240999999998,
          "velocity": 0.905511811023622
        },
        {
          "duration": 0.13760999999999513,
          "durationTicks": 192,
          "midi": 58,
          "name": "A#3",
          "ticks": 316608,
          "time": 244.28001999999998,
          "velocity": 0.905511811023622
        },
        {
          "duration": 0.13761000000002355,
          "durationTicks": 192,
          "midi": 58,
          "name": "A#3",
          "ticks": 316800,
          "time": 244.41762999999997,
          "velocity": 0.905511811023622
        },
        {
          "duration": 0.13760999999999513,
          "durationTicks": 192,
          "midi": 55,
          "name": "G3",
          "ticks": 316992,
          "time": 244.55524,
          "velocity": 0.905511811023622
        },
        {
          "duration": 0.13760999999999513,
          "durationTicks": 192,
          "midi": 60,
          "name": "C4",
          "ticks": 317184,
          "time": 244.69285,
          "velocity": 0.905511811023622
        },
        {
          "duration": 0.13760999999999513,
          "durationTicks": 192,
          "midi": 60,
          "name": "C4",
          "ticks": 317376,
          "time": 244.83046,
          "velocity": 0.905511811023622
        },
        {
          "duration": 0.13760999999999513,
          "durationTicks": 192,
          "midi": 60,
          "name": "C4",
          "ticks": 317568,
          "time": 244.96806999999998,
          "velocity": 0.905511811023622
        },
        {
          "duration": 0.13760999999999513,
          "durationTicks": 192,
          "midi": 56,
          "name": "G#3",
          "ticks": 317760,
          "time": 245.10567999999998,
          "velocity": 0.905511811023622
        },
        {
          "duration": 0.13761000000002355,
          "durationTicks": 192,
          "midi": 65,
          "name": "F4",
          "ticks": 317952,
          "time": 245.24328999999997,
          "velocity": 0.905511811023622
        },
        {
          "duration": 0.13760999999999513,
          "durationTicks": 192,
          "midi": 65,
          "name": "F4",
          "ticks": 318144,
          "time": 245.3809,
          "velocity": 0.905511811023622
        },
        {
          "duration": 0.13760999999999513,
          "durationTicks": 192,
          "midi": 65,
          "name": "F4",
          "ticks": 318336,
          "time": 245.51851,
          "velocity": 0.905511811023622
        },
        {
          "duration": 0.13760999999999513,
          "durationTicks": 192,
          "midi": 62,
          "name": "D4",
          "ticks": 318528,
          "time": 245.65612,
          "velocity": 0.905511811023622
        },
        {
          "duration": 0.13635999999999626,
          "durationTicks": 192,
          "midi": 63,
          "name": "D#4",
          "ticks": 318720,
          "time": 245.79372999999998,
          "velocity": 0.905511811023622
        },
        {
          "duration": 0.13635999999999626,
          "durationTicks": 192,
          "midi": 48,
          "name": "C3",
          "ticks": 318912,
          "time": 245.93008999999998,
          "velocity": 0.905511811023622
        },
        {
          "duration": 0.13635999999999626,
          "durationTicks": 192,
          "midi": 51,
          "name": "D#3",
          "ticks": 318912,
          "time": 245.93008999999998,
          "velocity": 0.905511811023622
        },
        {
          "duration": 0.13635999999999626,
          "durationTicks": 192,
          "midi": 48,
          "name": "C3",
          "ticks": 319104,
          "time": 246.06644999999997,
          "velocity": 0.905511811023622
        },
        {
          "duration": 0.13635999999999626,
          "durationTicks": 192,
          "midi": 51,
          "name": "D#3",
          "ticks": 319104,
          "time": 246.06644999999997,
          "velocity": 0.905511811023622
        },
        {
          "duration": 0.13636000000002468,
          "durationTicks": 192,
          "midi": 48,
          "name": "C3",
          "ticks": 319296,
          "time": 246.20280999999997,
          "velocity": 0.905511811023622
        },
        {
          "duration": 0.13636000000002468,
          "durationTicks": 192,
          "midi": 51,
          "name": "D#3",
          "ticks": 319296,
          "time": 246.20280999999997,
          "velocity": 0.905511811023622
        },
        {
          "duration": 0.13635999999999626,
          "durationTicks": 192,
          "midi": 48,
          "name": "C3",
          "ticks": 319488,
          "time": 246.33917,
          "velocity": 0.905511811023622
        },
        {
          "duration": 0.13635999999999626,
          "durationTicks": 192,
          "midi": 51,
          "name": "D#3",
          "ticks": 319488,
          "time": 246.33917,
          "velocity": 0.905511811023622
        },
        {
          "duration": 0.13635999999999626,
          "durationTicks": 192,
          "midi": 48,
          "name": "C3",
          "ticks": 319680,
          "time": 246.47553,
          "velocity": 0.905511811023622
        },
        {
          "duration": 0.13635999999999626,
          "durationTicks": 192,
          "midi": 51,
          "name": "D#3",
          "ticks": 319680,
          "time": 246.47553,
          "velocity": 0.905511811023622
        },
        {
          "duration": 0.13635999999999626,
          "durationTicks": 192,
          "midi": 48,
          "name": "C3",
          "ticks": 319872,
          "time": 246.61189,
          "velocity": 0.905511811023622
        },
        {
          "duration": 0.13635999999999626,
          "durationTicks": 192,
          "midi": 51,
          "name": "D#3",
          "ticks": 319872,
          "time": 246.61189,
          "velocity": 0.905511811023622
        },
        {
          "duration": 0.13635999999999626,
          "durationTicks": 192,
          "midi": 48,
          "name": "C3",
          "ticks": 320064,
          "time": 246.74824999999998,
          "velocity": 0.905511811023622
        },
        {
          "duration": 0.13635999999999626,
          "durationTicks": 192,
          "midi": 51,
          "name": "D#3",
          "ticks": 320064,
          "time": 246.74824999999998,
          "velocity": 0.905511811023622
        },
        {
          "duration": 0.13635999999999626,
          "durationTicks": 192,
          "midi": 48,
          "name": "C3",
          "ticks": 320256,
          "time": 246.88460999999998,
          "velocity": 0.905511811023622
        },
        {
          "duration": 0.13635999999999626,
          "durationTicks": 192,
          "midi": 51,
          "name": "D#3",
          "ticks": 320256,
          "time": 246.88460999999998,
          "velocity": 0.905511811023622
        },
        {
          "duration": 0.13635999999999626,
          "durationTicks": 192,
          "midi": 48,
          "name": "C3",
          "ticks": 320448,
          "time": 247.02096999999998,
          "velocity": 0.905511811023622
        },
        {
          "duration": 0.13635999999999626,
          "durationTicks": 192,
          "midi": 51,
          "name": "D#3",
          "ticks": 320448,
          "time": 247.02096999999998,
          "velocity": 0.905511811023622
        },
        {
          "duration": 0.13635999999999626,
          "durationTicks": 192,
          "midi": 48,
          "name": "C3",
          "ticks": 320640,
          "time": 247.15732999999997,
          "velocity": 0.905511811023622
        },
        {
          "duration": 0.13635999999999626,
          "durationTicks": 192,
          "midi": 51,
          "name": "D#3",
          "ticks": 320640,
          "time": 247.15732999999997,
          "velocity": 0.905511811023622
        },
        {
          "duration": 0.13636000000002468,
          "durationTicks": 192,
          "midi": 48,
          "name": "C3",
          "ticks": 320832,
          "time": 247.29368999999997,
          "velocity": 0.905511811023622
        },
        {
          "duration": 0.13636000000002468,
          "durationTicks": 192,
          "midi": 51,
          "name": "D#3",
          "ticks": 320832,
          "time": 247.29368999999997,
          "velocity": 0.905511811023622
        },
        {
          "duration": 0.13635999999999626,
          "durationTicks": 192,
          "midi": 48,
          "name": "C3",
          "ticks": 321024,
          "time": 247.43005,
          "velocity": 0.905511811023622
        },
        {
          "duration": 0.13635999999999626,
          "durationTicks": 192,
          "midi": 51,
          "name": "D#3",
          "ticks": 321024,
          "time": 247.43005,
          "velocity": 0.905511811023622
        },
        {
          "duration": 0.13635999999999626,
          "durationTicks": 192,
          "midi": 48,
          "name": "C3",
          "ticks": 321216,
          "time": 247.56641,
          "velocity": 0.905511811023622
        },
        {
          "duration": 0.13635999999999626,
          "durationTicks": 192,
          "midi": 51,
          "name": "D#3",
          "ticks": 321216,
          "time": 247.56641,
          "velocity": 0.905511811023622
        },
        {
          "duration": 0.13635999999999626,
          "durationTicks": 192,
          "midi": 48,
          "name": "C3",
          "ticks": 321408,
          "time": 247.70277,
          "velocity": 0.905511811023622
        },
        {
          "duration": 0.13635999999999626,
          "durationTicks": 192,
          "midi": 51,
          "name": "D#3",
          "ticks": 321408,
          "time": 247.70277,
          "velocity": 0.905511811023622
        },
        {
          "duration": 0.13635999999999626,
          "durationTicks": 192,
          "midi": 48,
          "name": "C3",
          "ticks": 321600,
          "time": 247.83912999999998,
          "velocity": 0.905511811023622
        },
        {
          "duration": 0.13635999999999626,
          "durationTicks": 192,
          "midi": 51,
          "name": "D#3",
          "ticks": 321600,
          "time": 247.83912999999998,
          "velocity": 0.905511811023622
        },
        {
          "duration": 0.13635999999999626,
          "durationTicks": 192,
          "midi": 50,
          "name": "D3",
          "ticks": 321792,
          "time": 247.97548999999998,
          "velocity": 0.905511811023622
        },
        {
          "duration": 0.13635999999999626,
          "durationTicks": 192,
          "midi": 53,
          "name": "F3",
          "ticks": 321792,
          "time": 247.97548999999998,
          "velocity": 0.905511811023622
        },
        {
          "duration": 0.13635999999999626,
          "durationTicks": 192,
          "midi": 50,
          "name": "D3",
          "ticks": 321984,
          "time": 248.11184999999998,
          "velocity": 0.905511811023622
        },
        {
          "duration": 0.13635999999999626,
          "durationTicks": 192,
          "midi": 53,
          "name": "F3",
          "ticks": 321984,
          "time": 248.11184999999998,
          "velocity": 0.905511811023622
        },
        {
          "duration": 0.13636000000002468,
          "durationTicks": 192,
          "midi": 50,
          "name": "D3",
          "ticks": 322176,
          "time": 248.24820999999997,
          "velocity": 0.905511811023622
        },
        {
          "duration": 0.13636000000002468,
          "durationTicks": 192,
          "midi": 53,
          "name": "F3",
          "ticks": 322176,
          "time": 248.24820999999997,
          "velocity": 0.905511811023622
        },
        {
          "duration": 0.13635999999999626,
          "durationTicks": 192,
          "midi": 50,
          "name": "D3",
          "ticks": 322368,
          "time": 248.38457,
          "velocity": 0.905511811023622
        },
        {
          "duration": 0.13635999999999626,
          "durationTicks": 192,
          "midi": 53,
          "name": "F3",
          "ticks": 322368,
          "time": 248.38457,
          "velocity": 0.905511811023622
        },
        {
          "duration": 0.13635999999999626,
          "durationTicks": 192,
          "midi": 50,
          "name": "D3",
          "ticks": 322560,
          "time": 248.52093,
          "velocity": 0.905511811023622
        },
        {
          "duration": 0.13635999999999626,
          "durationTicks": 192,
          "midi": 53,
          "name": "F3",
          "ticks": 322560,
          "time": 248.52093,
          "velocity": 0.905511811023622
        },
        {
          "duration": 0.13635999999999626,
          "durationTicks": 192,
          "midi": 50,
          "name": "D3",
          "ticks": 322752,
          "time": 248.65729,
          "velocity": 0.905511811023622
        },
        {
          "duration": 0.13635999999999626,
          "durationTicks": 192,
          "midi": 53,
          "name": "F3",
          "ticks": 322752,
          "time": 248.65729,
          "velocity": 0.905511811023622
        },
        {
          "duration": 0.13635999999999626,
          "durationTicks": 192,
          "midi": 50,
          "name": "D3",
          "ticks": 322944,
          "time": 248.79364999999999,
          "velocity": 0.905511811023622
        },
        {
          "duration": 0.13635999999999626,
          "durationTicks": 192,
          "midi": 53,
          "name": "F3",
          "ticks": 322944,
          "time": 248.79364999999999,
          "velocity": 0.905511811023622
        },
        {
          "duration": 0.13635999999999626,
          "durationTicks": 192,
          "midi": 50,
          "name": "D3",
          "ticks": 323136,
          "time": 248.93000999999998,
          "velocity": 0.905511811023622
        },
        {
          "duration": 0.13635999999999626,
          "durationTicks": 192,
          "midi": 53,
          "name": "F3",
          "ticks": 323136,
          "time": 248.93000999999998,
          "velocity": 0.905511811023622
        },
        {
          "duration": 0.13635999999999626,
          "durationTicks": 192,
          "midi": 50,
          "name": "D3",
          "ticks": 323328,
          "time": 249.06636999999998,
          "velocity": 0.905511811023622
        },
        {
          "duration": 0.13635999999999626,
          "durationTicks": 192,
          "midi": 53,
          "name": "F3",
          "ticks": 323328,
          "time": 249.06636999999998,
          "velocity": 0.905511811023622
        },
        {
          "duration": 0.13635999999999626,
          "durationTicks": 192,
          "midi": 50,
          "name": "D3",
          "ticks": 323520,
          "time": 249.20272999999997,
          "velocity": 0.905511811023622
        },
        {
          "duration": 0.13635999999999626,
          "durationTicks": 192,
          "midi": 53,
          "name": "F3",
          "ticks": 323520,
          "time": 249.20272999999997,
          "velocity": 0.905511811023622
        },
        {
          "duration": 0.13636000000002468,
          "durationTicks": 192,
          "midi": 50,
          "name": "D3",
          "ticks": 323712,
          "time": 249.33908999999997,
          "velocity": 0.905511811023622
        },
        {
          "duration": 0.13636000000002468,
          "durationTicks": 192,
          "midi": 53,
          "name": "F3",
          "ticks": 323712,
          "time": 249.33908999999997,
          "velocity": 0.905511811023622
        },
        {
          "duration": 0.13635999999999626,
          "durationTicks": 192,
          "midi": 50,
          "name": "D3",
          "ticks": 323904,
          "time": 249.47545,
          "velocity": 0.905511811023622
        },
        {
          "duration": 0.13635999999999626,
          "durationTicks": 192,
          "midi": 53,
          "name": "F3",
          "ticks": 323904,
          "time": 249.47545,
          "velocity": 0.905511811023622
        },
        {
          "duration": 0.13635999999999626,
          "durationTicks": 192,
          "midi": 50,
          "name": "D3",
          "ticks": 324096,
          "time": 249.61181,
          "velocity": 0.905511811023622
        },
        {
          "duration": 0.13635999999999626,
          "durationTicks": 192,
          "midi": 53,
          "name": "F3",
          "ticks": 324096,
          "time": 249.61181,
          "velocity": 0.905511811023622
        },
        {
          "duration": 0.13635999999999626,
          "durationTicks": 192,
          "midi": 50,
          "name": "D3",
          "ticks": 324288,
          "time": 249.74817,
          "velocity": 0.905511811023622
        },
        {
          "duration": 0.13635999999999626,
          "durationTicks": 192,
          "midi": 53,
          "name": "F3",
          "ticks": 324288,
          "time": 249.74817,
          "velocity": 0.905511811023622
        },
        {
          "duration": 0.13635999999999626,
          "durationTicks": 192,
          "midi": 48,
          "name": "C3",
          "ticks": 324480,
          "time": 249.88452999999998,
          "velocity": 0.905511811023622
        },
        {
          "duration": 0.13635999999999626,
          "durationTicks": 192,
          "midi": 51,
          "name": "D#3",
          "ticks": 324480,
          "time": 249.88452999999998,
          "velocity": 0.905511811023622
        },
        {
          "duration": 0.13635999999999626,
          "durationTicks": 192,
          "midi": 48,
          "name": "C3",
          "ticks": 324672,
          "time": 250.02088999999998,
          "velocity": 0.905511811023622
        },
        {
          "duration": 0.13635999999999626,
          "durationTicks": 192,
          "midi": 51,
          "name": "D#3",
          "ticks": 324672,
          "time": 250.02088999999998,
          "velocity": 0.905511811023622
        },
        {
          "duration": 0.13635999999999626,
          "durationTicks": 192,
          "midi": 51,
          "name": "D#3",
          "ticks": 324864,
          "time": 250.15724999999998,
          "velocity": 0.968503937007874
        },
        {
          "duration": 0.13635999999999626,
          "durationTicks": 192,
          "midi": 57,
          "name": "A3",
          "ticks": 324864,
          "time": 250.15724999999998,
          "velocity": 0.968503937007874
        },
        {
          "duration": 0.13635999999999626,
          "durationTicks": 192,
          "midi": 75,
          "name": "D#5",
          "ticks": 325056,
          "time": 250.29360999999997,
          "velocity": 0.968503937007874
        },
        {
          "duration": 0.13636000000002468,
          "durationTicks": 192,
          "midi": 75,
          "name": "D#5",
          "ticks": 325248,
          "time": 250.42996999999997,
          "velocity": 0.968503937007874
        },
        {
          "duration": 0.13635999999999626,
          "durationTicks": 192,
          "midi": 75,
          "name": "D#5",
          "ticks": 325440,
          "time": 250.56633,
          "velocity": 0.968503937007874
        },
        {
          "duration": 0.13635999999999626,
          "durationTicks": 192,
          "midi": 72,
          "name": "C5",
          "ticks": 325632,
          "time": 250.70269,
          "velocity": 0.968503937007874
        },
        {
          "duration": 0.13635999999999626,
          "durationTicks": 192,
          "midi": 69,
          "name": "A4",
          "ticks": 325824,
          "time": 250.83905,
          "velocity": 0.968503937007874
        },
        {
          "duration": 0.13635999999999626,
          "durationTicks": 192,
          "midi": 69,
          "name": "A4",
          "ticks": 326016,
          "time": 250.97540999999998,
          "velocity": 0.968503937007874
        },
        {
          "duration": 0.13635999999999626,
          "durationTicks": 192,
          "midi": 69,
          "name": "A4",
          "ticks": 326208,
          "time": 251.11176999999998,
          "velocity": 0.968503937007874
        },
        {
          "duration": 0.13635999999999626,
          "durationTicks": 192,
          "midi": 66,
          "name": "F#4",
          "ticks": 326400,
          "time": 251.24812999999997,
          "velocity": 0.968503937007874
        },
        {
          "duration": 0.13636000000002468,
          "durationTicks": 192,
          "midi": 63,
          "name": "D#4",
          "ticks": 326592,
          "time": 251.38448999999997,
          "velocity": 0.968503937007874
        },
        {
          "duration": 0.13635999999999626,
          "durationTicks": 192,
          "midi": 63,
          "name": "D#4",
          "ticks": 326784,
          "time": 251.52085,
          "velocity": 0.968503937007874
        },
        {
          "duration": 0.13635999999999626,
          "durationTicks": 192,
          "midi": 63,
          "name": "D#4",
          "ticks": 326976,
          "time": 251.65721,
          "velocity": 0.968503937007874
        },
        {
          "duration": 0.13635999999999626,
          "durationTicks": 192,
          "midi": 60,
          "name": "C4",
          "ticks": 327168,
          "time": 251.79357,
          "velocity": 0.968503937007874
        },
        {
          "duration": 0.13635999999999626,
          "durationTicks": 192,
          "midi": 57,
          "name": "A3",
          "ticks": 327360,
          "time": 251.92992999999998,
          "velocity": 0.968503937007874
        },
        {
          "duration": 0.13635999999999626,
          "durationTicks": 192,
          "midi": 57,
          "name": "A3",
          "ticks": 327552,
          "time": 252.06628999999998,
          "velocity": 0.968503937007874
        },
        {
          "duration": 0.13635999999999626,
          "durationTicks": 192,
          "midi": 57,
          "name": "A3",
          "ticks": 327744,
          "time": 252.20264999999998,
          "velocity": 0.968503937007874
        },
        {
          "duration": 0.2941099999999892,
          "durationTicks": 384,
          "midi": 60,
          "name": "C4",
          "ticks": 327936,
          "time": 252.33900999999997,
          "velocity": 0.968503937007874
        },
        {
          "duration": 0.2941099999999892,
          "durationTicks": 384,
          "midi": 59,
          "name": "B3",
          "ticks": 329472,
          "time": 253.51545,
          "velocity": 0.968503937007874
        },
        {
          "duration": 0.2941099999999892,
          "durationTicks": 384,
          "midi": 62,
          "name": "D4",
          "ticks": 329472,
          "time": 253.51545,
          "velocity": 0.968503937007874
        },
        {
          "duration": 0.5882199999999784,
          "durationTicks": 768,
          "midi": 60,
          "name": "C4",
          "ticks": 333312,
          "time": 256.45655,
          "velocity": 0.7165354330708661
        },
        {
          "duration": 0.5882199999999784,
          "durationTicks": 768,
          "midi": 62,
          "name": "D4",
          "ticks": 334080,
          "time": 257.04476999999997,
          "velocity": 0.7165354330708661
        },
        {
          "duration": 0.5882200000000353,
          "durationTicks": 768,
          "midi": 59,
          "name": "B3",
          "ticks": 334848,
          "time": 257.63298999999995,
          "velocity": 0.7165354330708661
        },
        {
          "duration": 0.5882199999999784,
          "durationTicks": 768,
          "midi": 60,
          "name": "C4",
          "ticks": 335616,
          "time": 258.22121,
          "velocity": 0.7165354330708661
        },
        {
          "duration": 0.5882199999999784,
          "durationTicks": 768,
          "midi": 60,
          "name": "C4",
          "ticks": 339456,
          "time": 261.16231,
          "velocity": 0.7165354330708661
        },
        {
          "duration": 0.5769199999999728,
          "durationTicks": 768,
          "midi": 62,
          "name": "D4",
          "ticks": 340224,
          "time": 261.75052999999997,
          "velocity": 0.7165354330708661
        },
        {
          "duration": 0.5769200000000296,
          "durationTicks": 768,
          "midi": 59,
          "name": "B3",
          "ticks": 340992,
          "time": 262.32744999999994,
          "velocity": 0.7165354330708661
        },
        {
          "duration": 0.5769199999999728,
          "durationTicks": 768,
          "midi": 60,
          "name": "C4",
          "ticks": 341760,
          "time": 262.90437,
          "velocity": 0.7165354330708661
        },
        {
          "duration": 0.5769200000000296,
          "durationTicks": 768,
          "midi": 67,
          "name": "G4",
          "ticks": 345600,
          "time": 265.78896999999995,
          "velocity": 0.7165354330708661
        },
        {
          "duration": 0.5660199999999804,
          "durationTicks": 768,
          "midi": 64,
          "name": "E4",
          "ticks": 346368,
          "time": 266.36589,
          "velocity": 0.7165354330708661
        },
        {
          "duration": 0.5660200000000373,
          "durationTicks": 768,
          "midi": 64,
          "name": "E4",
          "ticks": 347136,
          "time": 266.93190999999996,
          "velocity": 0.7165354330708661
        },
        {
          "duration": 0.5660199999999804,
          "durationTicks": 768,
          "midi": 60,
          "name": "C4",
          "ticks": 347904,
          "time": 267.49793,
          "velocity": 0.7165354330708661
        },
        {
          "duration": 0.5660199999999804,
          "durationTicks": 768,
          "midi": 65,
          "name": "F4",
          "ticks": 348672,
          "time": 268.06395,
          "velocity": 0.7165354330708661
        },
        {
          "duration": 0.5660200000000373,
          "durationTicks": 768,
          "midi": 66,
          "name": "F#4",
          "ticks": 349440,
          "time": 268.62996999999996,
          "velocity": 0.7165354330708661
        },
        {
          "duration": 0.5660199999999804,
          "durationTicks": 768,
          "midi": 66,
          "name": "F#4",
          "ticks": 350208,
          "time": 269.19599,
          "velocity": 0.7165354330708661
        },
        {
          "duration": 0.5660199999999804,
          "durationTicks": 768,
          "midi": 62,
          "name": "D4",
          "ticks": 350976,
          "time": 269.76201,
          "velocity": 0.7165354330708661
        },
        {
          "duration": 0.1415049999999951,
          "durationTicks": 192,
          "midi": 56,
          "name": "G#3",
          "ticks": 352704,
          "time": 271.035555,
          "velocity": 0.7165354330708661
        },
        {
          "duration": 0.1415049999999951,
          "durationTicks": 192,
          "midi": 56,
          "name": "G#3",
          "ticks": 352896,
          "time": 271.17706,
          "velocity": 0.7165354330708661
        },
        {
          "duration": 0.1415049999999951,
          "durationTicks": 192,
          "midi": 56,
          "name": "G#3",
          "ticks": 353088,
          "time": 271.318565,
          "velocity": 0.7165354330708661
        },
        {
          "duration": 0.2830099999999902,
          "durationTicks": 384,
          "midi": 56,
          "name": "G#3",
          "ticks": 353280,
          "time": 271.46007,
          "velocity": 0.7165354330708661
        },
        {
          "duration": 0.1415049999999951,
          "durationTicks": 192,
          "midi": 59,
          "name": "B3",
          "ticks": 354240,
          "time": 272.167595,
          "velocity": 0.7952755905511811
        },
        {
          "duration": 0.1415049999999951,
          "durationTicks": 192,
          "midi": 59,
          "name": "B3",
          "ticks": 354432,
          "time": 272.3091,
          "velocity": 0.7952755905511811
        },
        {
          "duration": 0.1415049999999951,
          "durationTicks": 192,
          "midi": 59,
          "name": "B3",
          "ticks": 354624,
          "time": 272.450605,
          "velocity": 0.7952755905511811
        },
        {
          "duration": 0.2830099999999902,
          "durationTicks": 384,
          "midi": 59,
          "name": "B3",
          "ticks": 354816,
          "time": 272.59211,
          "velocity": 0.7952755905511811
        },
        {
          "duration": 0.28301000000004706,
          "durationTicks": 384,
          "midi": 53,
          "name": "F3",
          "ticks": 356352,
          "time": 273.72414999999995,
          "velocity": 0.7952755905511811
        },
        {
          "duration": 0.2830099999999902,
          "durationTicks": 384,
          "midi": 55,
          "name": "G3",
          "ticks": 356736,
          "time": 274.00716,
          "velocity": 0.7952755905511811
        },
        {
          "duration": 0.2830099999999902,
          "durationTicks": 384,
          "midi": 56,
          "name": "G#3",
          "ticks": 357120,
          "time": 274.29017,
          "velocity": 0.8582677165354331
        },
        {
          "duration": 0.2830099999999902,
          "durationTicks": 384,
          "midi": 55,
          "name": "G3",
          "ticks": 357504,
          "time": 274.57318,
          "velocity": 0.8582677165354331
        },
        {
          "duration": 0.2830099999999902,
          "durationTicks": 384,
          "midi": 54,
          "name": "F#3",
          "ticks": 357888,
          "time": 274.85618999999997,
          "velocity": 0.8582677165354331
        },
        {
          "duration": 0.2830099999999902,
          "durationTicks": 384,
          "midi": 55,
          "name": "G3",
          "ticks": 358272,
          "time": 275.13919999999996,
          "velocity": 0.8582677165354331
        },
        {
          "duration": 0.28301000000004706,
          "durationTicks": 384,
          "midi": 57,
          "name": "A3",
          "ticks": 358656,
          "time": 275.42220999999995,
          "velocity": 0.8582677165354331
        },
        {
          "duration": 0.2830099999999902,
          "durationTicks": 384,
          "midi": 55,
          "name": "G3",
          "ticks": 359040,
          "time": 275.70522,
          "velocity": 0.8582677165354331
        },
        {
          "duration": 0.2830099999999902,
          "durationTicks": 384,
          "midi": 54,
          "name": "F#3",
          "ticks": 359424,
          "time": 275.98823,
          "velocity": 0.8582677165354331
        },
        {
          "duration": 0.2830099999999902,
          "durationTicks": 384,
          "midi": 55,
          "name": "G3",
          "ticks": 359808,
          "time": 276.27124,
          "velocity": 0.8582677165354331
        },
        {
          "duration": 0.2777699999999754,
          "durationTicks": 384,
          "midi": 57,
          "name": "A3",
          "ticks": 360192,
          "time": 276.55424999999997,
          "velocity": 0.905511811023622
        },
        {
          "duration": 0.27777000000003227,
          "durationTicks": 384,
          "midi": 55,
          "name": "G3",
          "ticks": 360576,
          "time": 276.83201999999994,
          "velocity": 0.905511811023622
        },
        {
          "duration": 0.2777699999999754,
          "durationTicks": 384,
          "midi": 54,
          "name": "F#3",
          "ticks": 360960,
          "time": 277.10979,
          "velocity": 0.905511811023622
        },
        {
          "duration": 0.27777000000003227,
          "durationTicks": 384,
          "midi": 55,
          "name": "G3",
          "ticks": 361344,
          "time": 277.38755999999995,
          "velocity": 0.905511811023622
        },
        {
          "duration": 0.2777699999999754,
          "durationTicks": 384,
          "midi": 54,
          "name": "F#3",
          "ticks": 361728,
          "time": 277.66533,
          "velocity": 0.905511811023622
        },
        {
          "duration": 0.27777000000003227,
          "durationTicks": 384,
          "midi": 55,
          "name": "G3",
          "ticks": 362112,
          "time": 277.94309999999996,
          "velocity": 0.905511811023622
        },
        {
          "duration": 0.2777699999999754,
          "durationTicks": 384,
          "midi": 54,
          "name": "F#3",
          "ticks": 362496,
          "time": 278.22087,
          "velocity": 0.905511811023622
        },
        {
          "duration": 0.2777699999999754,
          "durationTicks": 384,
          "midi": 55,
          "name": "G3",
          "ticks": 362880,
          "time": 278.49863999999997,
          "velocity": 0.905511811023622
        },
        {
          "duration": 0.83331000000004,
          "durationTicks": 1152,
          "midi": 55,
          "name": "G3",
          "ticks": 363264,
          "time": 278.77640999999994,
          "velocity": 0.968503937007874
        },
        {
          "duration": 0.83331000000004,
          "durationTicks": 1152,
          "midi": 65,
          "name": "F4",
          "ticks": 363264,
          "time": 278.77640999999994,
          "velocity": 0.968503937007874
        },
        {
          "duration": 0.1388849999999593,
          "durationTicks": 192,
          "midi": 50,
          "name": "D3",
          "ticks": 364416,
          "time": 279.60972,
          "velocity": 0.968503937007874
        },
        {
          "duration": 0.13888500000001613,
          "durationTicks": 192,
          "midi": 50,
          "name": "D3",
          "ticks": 364608,
          "time": 279.74860499999994,
          "velocity": 0.968503937007874
        },
        {
          "duration": 0.13888500000001613,
          "durationTicks": 192,
          "midi": 52,
          "name": "E3",
          "ticks": 364800,
          "time": 279.88748999999996,
          "velocity": 0.968503937007874
        },
        {
          "duration": 0.13888500000001613,
          "durationTicks": 192,
          "midi": 52,
          "name": "E3",
          "ticks": 364992,
          "time": 280.026375,
          "velocity": 0.968503937007874
        },
        {
          "duration": 0.1388849999999593,
          "durationTicks": 192,
          "midi": 55,
          "name": "G3",
          "ticks": 365184,
          "time": 280.16526,
          "velocity": 0.968503937007874
        },
        {
          "duration": 0.13888500000001613,
          "durationTicks": 192,
          "midi": 55,
          "name": "G3",
          "ticks": 365376,
          "time": 280.30414499999995,
          "velocity": 0.968503937007874
        },
        {
          "duration": 0.13888500000001613,
          "durationTicks": 192,
          "midi": 53,
          "name": "F3",
          "ticks": 365568,
          "time": 280.44302999999996,
          "velocity": 0.968503937007874
        },
        {
          "duration": 0.1388849999999593,
          "durationTicks": 192,
          "midi": 53,
          "name": "F3",
          "ticks": 365760,
          "time": 280.581915,
          "velocity": 0.968503937007874
        },
        {
          "duration": 0.13888500000001613,
          "durationTicks": 192,
          "midi": 55,
          "name": "G3",
          "ticks": 365952,
          "time": 280.72079999999994,
          "velocity": 0.968503937007874
        },
        {
          "duration": 0.13888500000001613,
          "durationTicks": 192,
          "midi": 55,
          "name": "G3",
          "ticks": 366144,
          "time": 280.85968499999996,
          "velocity": 0.968503937007874
        },
        {
          "duration": 0.13888500000001613,
          "durationTicks": 192,
          "midi": 52,
          "name": "E3",
          "ticks": 366336,
          "time": 280.99857,
          "velocity": 0.968503937007874
        },
        {
          "duration": 0.1388849999999593,
          "durationTicks": 192,
          "midi": 52,
          "name": "E3",
          "ticks": 366528,
          "time": 281.137455,
          "velocity": 0.968503937007874
        },
        {
          "duration": 0.13888500000001613,
          "durationTicks": 192,
          "midi": 55,
          "name": "G3",
          "ticks": 366720,
          "time": 281.27633999999995,
          "velocity": 0.968503937007874
        },
        {
          "duration": 0.13888500000001613,
          "durationTicks": 192,
          "midi": 55,
          "name": "G3",
          "ticks": 366912,
          "time": 281.41522499999996,
          "velocity": 0.968503937007874
        },
        {
          "duration": 0.13888500000001613,
          "durationTicks": 192,
          "midi": 50,
          "name": "D3",
          "ticks": 367104,
          "time": 281.55411,
          "velocity": 0.968503937007874
        },
        {
          "duration": 0.1388849999999593,
          "durationTicks": 192,
          "midi": 50,
          "name": "D3",
          "ticks": 367296,
          "time": 281.692995,
          "velocity": 0.968503937007874
        },
        {
          "duration": 0.13888500000001613,
          "durationTicks": 192,
          "midi": 57,
          "name": "A3",
          "ticks": 367488,
          "time": 281.83187999999996,
          "velocity": 0.968503937007874
        },
        {
          "duration": 0.13888500000001613,
          "durationTicks": 192,
          "midi": 57,
          "name": "A3",
          "ticks": 367680,
          "time": 281.970765,
          "velocity": 0.968503937007874
        },
        {
          "duration": 0.1388849999999593,
          "durationTicks": 192,
          "midi": 52,
          "name": "E3",
          "ticks": 367872,
          "time": 282.10965,
          "velocity": 0.968503937007874
        },
        {
          "duration": 0.13888500000001613,
          "durationTicks": 192,
          "midi": 52,
          "name": "E3",
          "ticks": 368064,
          "time": 282.24853499999995,
          "velocity": 0.968503937007874
        },
        {
          "duration": 0.13888500000001613,
          "durationTicks": 192,
          "midi": 55,
          "name": "G3",
          "ticks": 368256,
          "time": 282.38741999999996,
          "velocity": 0.968503937007874
        },
        {
          "duration": 0.13888500000001613,
          "durationTicks": 192,
          "midi": 55,
          "name": "G3",
          "ticks": 368448,
          "time": 282.526305,
          "velocity": 0.968503937007874
        },
        {
          "duration": 0.2777699999999754,
          "durationTicks": 384,
          "midi": 50,
          "name": "D3",
          "ticks": 368640,
          "time": 282.66519,
          "velocity": 0.968503937007874
        },
        {
          "duration": 0.13888500000001613,
          "durationTicks": 192,
          "midi": 50,
          "name": "D3",
          "ticks": 369408,
          "time": 283.22072999999995,
          "velocity": 0.968503937007874
        },
        {
          "duration": 0.13888500000001613,
          "durationTicks": 192,
          "midi": 50,
          "name": "D3",
          "ticks": 369600,
          "time": 283.35961499999996,
          "velocity": 0.968503937007874
        },
        {
          "duration": 0.13888500000001613,
          "durationTicks": 192,
          "midi": 55,
          "name": "G3",
          "ticks": 369792,
          "time": 283.4985,
          "velocity": 0.968503937007874
        },
        {
          "duration": 0.1388849999999593,
          "durationTicks": 192,
          "midi": 55,
          "name": "G3",
          "ticks": 369984,
          "time": 283.637385,
          "velocity": 0.968503937007874
        },
        {
          "duration": 0.13888500000001613,
          "durationTicks": 192,
          "midi": 50,
          "name": "D3",
          "ticks": 370176,
          "time": 283.77626999999995,
          "velocity": 0.968503937007874
        },
        {
          "duration": 0.13888500000001613,
          "durationTicks": 192,
          "midi": 50,
          "name": "D3",
          "ticks": 370368,
          "time": 283.91515499999997,
          "velocity": 0.968503937007874
        },
        {
          "duration": 0.1388849999999593,
          "durationTicks": 192,
          "midi": 55,
          "name": "G3",
          "ticks": 370560,
          "time": 284.05404,
          "velocity": 0.968503937007874
        },
        {
          "duration": 0.13888500000001613,
          "durationTicks": 192,
          "midi": 55,
          "name": "G3",
          "ticks": 370752,
          "time": 284.19292499999995,
          "velocity": 0.968503937007874
        },
        {
          "duration": 0.13888500000001613,
          "durationTicks": 192,
          "midi": 52,
          "name": "E3",
          "ticks": 370944,
          "time": 284.33180999999996,
          "velocity": 0.968503937007874
        },
        {
          "duration": 0.13888500000001613,
          "durationTicks": 192,
          "midi": 52,
          "name": "E3",
          "ticks": 371136,
          "time": 284.470695,
          "velocity": 0.968503937007874
        },
        {
          "duration": 0.1388849999999593,
          "durationTicks": 192,
          "midi": 55,
          "name": "G3",
          "ticks": 371328,
          "time": 284.60958,
          "velocity": 0.968503937007874
        },
        {
          "duration": 0.13888500000001613,
          "durationTicks": 192,
          "midi": 55,
          "name": "G3",
          "ticks": 371520,
          "time": 284.74846499999995,
          "velocity": 0.968503937007874
        },
        {
          "duration": 0.13888500000001613,
          "durationTicks": 192,
          "midi": 53,
          "name": "F3",
          "ticks": 371712,
          "time": 284.88734999999997,
          "velocity": 0.968503937007874
        },
        {
          "duration": 0.1388849999999593,
          "durationTicks": 192,
          "midi": 53,
          "name": "F3",
          "ticks": 371904,
          "time": 285.026235,
          "velocity": 0.968503937007874
        },
        {
          "duration": 0.13888500000001613,
          "durationTicks": 192,
          "midi": 59,
          "name": "B3",
          "ticks": 372096,
          "time": 285.16511999999994,
          "velocity": 0.968503937007874
        },
        {
          "duration": 0.13888500000001613,
          "durationTicks": 192,
          "midi": 59,
          "name": "B3",
          "ticks": 372288,
          "time": 285.30400499999996,
          "velocity": 0.968503937007874
        },
        {
          "duration": 0.13888500000001613,
          "durationTicks": 192,
          "midi": 62,
          "name": "D4",
          "ticks": 372480,
          "time": 285.44289,
          "velocity": 0.968503937007874
        },
        {
          "duration": 0.1388849999999593,
          "durationTicks": 192,
          "midi": 60,
          "name": "C4",
          "ticks": 372672,
          "time": 285.581775,
          "velocity": 0.968503937007874
        },
        {
          "duration": 0.13888500000001613,
          "durationTicks": 192,
          "midi": 55,
          "name": "G3",
          "ticks": 372864,
          "time": 285.72065999999995,
          "velocity": 0.968503937007874
        },
        {
          "duration": 0.13888500000001613,
          "durationTicks": 192,
          "midi": 52,
          "name": "E3",
          "ticks": 373056,
          "time": 285.85954499999997,
          "velocity": 0.968503937007874
        },
        {
          "duration": 0.1388849999999593,
          "durationTicks": 192,
          "midi": 59,
          "name": "B3",
          "ticks": 373248,
          "time": 285.99843,
          "velocity": 0.968503937007874
        },
        {
          "duration": 0.13888500000001613,
          "durationTicks": 192,
          "midi": 57,
          "name": "A3",
          "ticks": 373440,
          "time": 286.13731499999994,
          "velocity": 0.968503937007874
        },
        {
          "duration": 0.13888500000001613,
          "durationTicks": 192,
          "midi": 53,
          "name": "F3",
          "ticks": 373632,
          "time": 286.27619999999996,
          "velocity": 0.968503937007874
        },
        {
          "duration": 0.13888500000001613,
          "durationTicks": 192,
          "midi": 50,
          "name": "D3",
          "ticks": 373824,
          "time": 286.415085,
          "velocity": 0.968503937007874
        },
        {
          "duration": 0.1388849999999593,
          "durationTicks": 192,
          "midi": 57,
          "name": "A3",
          "ticks": 374016,
          "time": 286.55397,
          "velocity": 0.968503937007874
        },
        {
          "duration": 0.13888500000001613,
          "durationTicks": 192,
          "midi": 55,
          "name": "G3",
          "ticks": 374208,
          "time": 286.69285499999995,
          "velocity": 0.968503937007874
        },
        {
          "duration": 0.13888500000001613,
          "durationTicks": 192,
          "midi": 52,
          "name": "E3",
          "ticks": 374400,
          "time": 286.83173999999997,
          "velocity": 0.968503937007874
        },
        {
          "duration": 0.1388849999999593,
          "durationTicks": 192,
          "midi": 48,
          "name": "C3",
          "ticks": 374592,
          "time": 286.970625,
          "velocity": 0.968503937007874
        },
        {
          "duration": 0.13888500000001613,
          "durationTicks": 192,
          "midi": 50,
          "name": "D3",
          "ticks": 374784,
          "time": 287.10950999999994,
          "velocity": 0.968503937007874
        },
        {
          "duration": 0.13888500000001613,
          "durationTicks": 192,
          "midi": 59,
          "name": "B3",
          "ticks": 374784,
          "time": 287.10950999999994,
          "velocity": 0.968503937007874
        },
        {
          "duration": 0.13888500000001613,
          "durationTicks": 192,
          "midi": 50,
          "name": "D3",
          "ticks": 374976,
          "time": 287.24839499999996,
          "velocity": 0.968503937007874
        },
        {
          "duration": 0.13888500000001613,
          "durationTicks": 192,
          "midi": 59,
          "name": "B3",
          "ticks": 374976,
          "time": 287.24839499999996,
          "velocity": 0.968503937007874
        },
        {
          "duration": 0.13888500000001613,
          "durationTicks": 192,
          "midi": 53,
          "name": "F3",
          "ticks": 375168,
          "time": 287.38728,
          "velocity": 0.968503937007874
        },
        {
          "duration": 0.13888500000001613,
          "durationTicks": 192,
          "midi": 62,
          "name": "D4",
          "ticks": 375168,
          "time": 287.38728,
          "velocity": 0.968503937007874
        },
        {
          "duration": 0.1388849999999593,
          "durationTicks": 192,
          "midi": 53,
          "name": "F3",
          "ticks": 375360,
          "time": 287.526165,
          "velocity": 0.968503937007874
        },
        {
          "duration": 0.1388849999999593,
          "durationTicks": 192,
          "midi": 62,
          "name": "D4",
          "ticks": 375360,
          "time": 287.526165,
          "velocity": 0.968503937007874
        },
        {
          "duration": 1.8055050000000392,
          "durationTicks": 2496,
          "midi": 55,
          "name": "G3",
          "ticks": 375552,
          "time": 287.66504999999995,
          "velocity": 0.968503937007874
        },
        {
          "duration": 0.1388849999999593,
          "durationTicks": 192,
          "midi": 55,
          "name": "G3",
          "ticks": 378048,
          "time": 289.470555,
          "velocity": 0.968503937007874
        },
        {
          "duration": 0.13888500000001613,
          "durationTicks": 192,
          "midi": 55,
          "name": "G3",
          "ticks": 378240,
          "time": 289.60943999999995,
          "velocity": 0.968503937007874
        },
        {
          "duration": 0.13888500000001613,
          "durationTicks": 192,
          "midi": 55,
          "name": "G3",
          "ticks": 378432,
          "time": 289.74832499999997,
          "velocity": 0.968503937007874
        },
        {
          "duration": 1.8055049999999824,
          "durationTicks": 2496,
          "midi": 55,
          "name": "G3",
          "ticks": 378624,
          "time": 289.88721,
          "velocity": 0.968503937007874
        },
        {
          "duration": 0.13888500000001613,
          "durationTicks": 192,
          "midi": 67,
          "name": "G4",
          "ticks": 381120,
          "time": 291.69271499999996,
          "velocity": 0.968503937007874
        },
        {
          "duration": 0.1388849999999593,
          "durationTicks": 192,
          "midi": 67,
          "name": "G4",
          "ticks": 381312,
          "time": 291.8316,
          "velocity": 0.968503937007874
        },
        {
          "duration": 0.13888500000001613,
          "durationTicks": 192,
          "midi": 67,
          "name": "G4",
          "ticks": 381504,
          "time": 291.97048499999994,
          "velocity": 0.968503937007874
        },
        {
          "duration": 0.27777000000003227,
          "durationTicks": 384,
          "midi": 67,
          "name": "G4",
          "ticks": 381696,
          "time": 292.10936999999996,
          "velocity": 0.968503937007874
        },
        {
          "duration": 0.13888500000001613,
          "durationTicks": 192,
          "midi": 67,
          "name": "G4",
          "ticks": 382656,
          "time": 292.803795,
          "velocity": 0.968503937007874
        },
        {
          "duration": 0.1388849999999593,
          "durationTicks": 192,
          "midi": 67,
          "name": "G4",
          "ticks": 382848,
          "time": 292.94268,
          "velocity": 0.968503937007874
        },
        {
          "duration": 0.13888500000001613,
          "durationTicks": 192,
          "midi": 67,
          "name": "G4",
          "ticks": 383040,
          "time": 293.08156499999996,
          "velocity": 0.968503937007874
        },
        {
          "duration": 0.2777699999999754,
          "durationTicks": 384,
          "midi": 67,
          "name": "G4",
          "ticks": 383232,
          "time": 293.22044999999997,
          "velocity": 0.968503937007874
        },
        {
          "duration": 0.1388849999999593,
          "durationTicks": 192,
          "midi": 55,
          "name": "G3",
          "ticks": 384192,
          "time": 293.914875,
          "velocity": 0.968503937007874
        },
        {
          "duration": 0.13888500000001613,
          "durationTicks": 192,
          "midi": 55,
          "name": "G3",
          "ticks": 384384,
          "time": 294.05375999999995,
          "velocity": 0.968503937007874
        },
        {
          "duration": 0.13888500000001613,
          "durationTicks": 192,
          "midi": 55,
          "name": "G3",
          "ticks": 384576,
          "time": 294.19264499999997,
          "velocity": 0.968503937007874
        },
        {
          "duration": 0.694424999999967,
          "durationTicks": 960,
          "midi": 67,
          "name": "G4",
          "ticks": 384768,
          "time": 294.33153,
          "velocity": 0.968503937007874
        },
        {
          "duration": 0.13888500000001613,
          "durationTicks": 192,
          "midi": 67,
          "name": "G4",
          "ticks": 385728,
          "time": 295.02595499999995,
          "velocity": 0.968503937007874
        },
        {
          "duration": 0.13888500000001613,
          "durationTicks": 192,
          "midi": 67,
          "name": "G4",
          "ticks": 385920,
          "time": 295.16483999999997,
          "velocity": 0.968503937007874
        },
        {
          "duration": 0.1388849999999593,
          "durationTicks": 192,
          "midi": 67,
          "name": "G4",
          "ticks": 386112,
          "time": 295.303725,
          "velocity": 0.968503937007874
        },
        {
          "duration": 0.6944250000000238,
          "durationTicks": 960,
          "midi": 65,
          "name": "F4",
          "ticks": 386304,
          "time": 295.44260999999995,
          "velocity": 0.968503937007874
        },
        {
          "duration": 0.13888500000001613,
          "durationTicks": 192,
          "midi": 65,
          "name": "F4",
          "ticks": 387264,
          "time": 296.13703499999997,
          "velocity": 0.968503937007874
        },
        {
          "duration": 0.1388849999999593,
          "durationTicks": 192,
          "midi": 65,
          "name": "F4",
          "ticks": 387456,
          "time": 296.27592,
          "velocity": 0.968503937007874
        },
        {
          "duration": 0.13888500000001613,
          "durationTicks": 192,
          "midi": 65,
          "name": "F4",
          "ticks": 387648,
          "time": 296.41480499999994,
          "velocity": 0.968503937007874
        },
        {
          "duration": 0.6944250000000238,
          "durationTicks": 960,
          "midi": 60,
          "name": "C4",
          "ticks": 387840,
          "time": 296.55368999999996,
          "velocity": 0.968503937007874
        },
        {
          "duration": 0.1388849999999593,
          "durationTicks": 192,
          "midi": 60,
          "name": "C4",
          "ticks": 388800,
          "time": 297.248115,
          "velocity": 0.968503937007874
        },
        {
          "duration": 0.13888500000001613,
          "durationTicks": 192,
          "midi": 60,
          "name": "C4",
          "ticks": 388992,
          "time": 297.38699999999994,
          "velocity": 0.968503937007874
        },
        {
          "duration": 0.13888500000001613,
          "durationTicks": 192,
          "midi": 60,
          "name": "C4",
          "ticks": 389184,
          "time": 297.52588499999996,
          "velocity": 0.968503937007874
        },
        {
          "duration": 0.694424999999967,
          "durationTicks": 960,
          "midi": 56,
          "name": "G#3",
          "ticks": 389376,
          "time": 297.66477,
          "velocity": 0.968503937007874
        },
        {
          "duration": 0.13888500000001613,
          "durationTicks": 192,
          "midi": 56,
          "name": "G#3",
          "ticks": 390336,
          "time": 298.35919499999994,
          "velocity": 0.968503937007874
        },
        {
          "duration": 0.13888500000001613,
          "durationTicks": 192,
          "midi": 56,
          "name": "G#3",
          "ticks": 390528,
          "time": 298.49807999999996,
          "velocity": 0.968503937007874
        },
        {
          "duration": 0.13888500000001613,
          "durationTicks": 192,
          "midi": 56,
          "name": "G#3",
          "ticks": 390720,
          "time": 298.636965,
          "velocity": 0.968503937007874
        },
        {
          "duration": 0.1388849999999593,
          "durationTicks": 192,
          "midi": 56,
          "name": "G#3",
          "ticks": 390912,
          "time": 298.77585,
          "velocity": 0.968503937007874
        },
        {
          "duration": 0.13888500000001613,
          "durationTicks": 192,
          "midi": 68,
          "name": "G#4",
          "ticks": 391104,
          "time": 298.91473499999995,
          "velocity": 0.968503937007874
        },
        {
          "duration": 0.13888500000001613,
          "durationTicks": 192,
          "midi": 68,
          "name": "G#4",
          "ticks": 391296,
          "time": 299.05361999999997,
          "velocity": 0.968503937007874
        },
        {
          "duration": 0.1388849999999593,
          "durationTicks": 192,
          "midi": 68,
          "name": "G#4",
          "ticks": 391488,
          "time": 299.192505,
          "velocity": 0.968503937007874
        },
        {
          "duration": 0.13888500000001613,
          "durationTicks": 192,
          "midi": 68,
          "name": "G#4",
          "ticks": 391680,
          "time": 299.33138999999994,
          "velocity": 0.968503937007874
        },
        {
          "duration": 0.13888500000001613,
          "durationTicks": 192,
          "midi": 68,
          "name": "G#4",
          "ticks": 391872,
          "time": 299.47027499999996,
          "velocity": 0.968503937007874
        },
        {
          "duration": 0.13888500000001613,
          "durationTicks": 192,
          "midi": 68,
          "name": "G#4",
          "ticks": 392064,
          "time": 299.60916,
          "velocity": 0.968503937007874
        },
        {
          "duration": 0.1388849999999593,
          "durationTicks": 192,
          "midi": 68,
          "name": "G#4",
          "ticks": 392256,
          "time": 299.748045,
          "velocity": 0.968503937007874
        },
        {
          "duration": 0.13888500000001613,
          "durationTicks": 192,
          "midi": 68,
          "name": "G#4",
          "ticks": 392448,
          "time": 299.88692999999995,
          "velocity": 0.968503937007874
        },
        {
          "duration": 0.13888500000001613,
          "durationTicks": 192,
          "midi": 68,
          "name": "G#4",
          "ticks": 392640,
          "time": 300.02581499999997,
          "velocity": 0.968503937007874
        },
        {
          "duration": 0.13888500000001613,
          "durationTicks": 192,
          "midi": 68,
          "name": "G#4",
          "ticks": 392832,
          "time": 300.1647,
          "velocity": 0.968503937007874
        },
        {
          "duration": 0.1388849999999593,
          "durationTicks": 192,
          "midi": 68,
          "name": "G#4",
          "ticks": 393024,
          "time": 300.303585,
          "velocity": 0.968503937007874
        },
        {
          "duration": 0.13888500000001613,
          "durationTicks": 192,
          "midi": 68,
          "name": "G#4",
          "ticks": 393216,
          "time": 300.44246999999996,
          "velocity": 0.968503937007874
        },
        {
          "duration": 0.13888500000001613,
          "durationTicks": 192,
          "midi": 68,
          "name": "G#4",
          "ticks": 393408,
          "time": 300.581355,
          "velocity": 0.968503937007874
        },
        {
          "duration": 0.1388849999999593,
          "durationTicks": 192,
          "midi": 68,
          "name": "G#4",
          "ticks": 393600,
          "time": 300.72024,
          "velocity": 0.968503937007874
        },
        {
          "duration": 0.13888500000001613,
          "durationTicks": 192,
          "midi": 68,
          "name": "G#4",
          "ticks": 393792,
          "time": 300.85912499999995,
          "velocity": 0.968503937007874
        },
        {
          "duration": 0.2777699999999754,
          "durationTicks": 384,
          "midi": 68,
          "name": "G#4",
          "ticks": 393984,
          "time": 300.99800999999997,
          "velocity": 0.968503937007874
        },
        {
          "duration": 0.13888500000001613,
          "durationTicks": 192,
          "midi": 57,
          "name": "A3",
          "ticks": 397248,
          "time": 303.35905499999996,
          "velocity": 0.968503937007874
        },
        {
          "duration": 0.13888500000001613,
          "durationTicks": 192,
          "midi": 57,
          "name": "A3",
          "ticks": 397440,
          "time": 303.49793999999997,
          "velocity": 0.968503937007874
        },
        {
          "duration": 0.1388849999999593,
          "durationTicks": 192,
          "midi": 57,
          "name": "A3",
          "ticks": 397632,
          "time": 303.636825,
          "velocity": 0.968503937007874
        },
        {
          "duration": 0.13888500000001613,
          "durationTicks": 192,
          "midi": 57,
          "name": "A3",
          "ticks": 397824,
          "time": 303.77570999999995,
          "velocity": 0.968503937007874
        },
        {
          "duration": 0.13888500000001613,
          "durationTicks": 192,
          "midi": 69,
          "name": "A4",
          "ticks": 398016,
          "time": 303.91459499999996,
          "velocity": 0.968503937007874
        },
        {
          "duration": 0.13888500000001613,
          "durationTicks": 192,
          "midi": 69,
          "name": "A4",
          "ticks": 398208,
          "time": 304.05348,
          "velocity": 0.968503937007874
        },
        {
          "duration": 0.1388849999999593,
          "durationTicks": 192,
          "midi": 69,
          "name": "A4",
          "ticks": 398400,
          "time": 304.192365,
          "velocity": 0.968503937007874
        },
        {
          "duration": 0.13888500000001613,
          "durationTicks": 192,
          "midi": 69,
          "name": "A4",
          "ticks": 398592,
          "time": 304.33124999999995,
          "velocity": 0.968503937007874
        },
        {
          "duration": 0.13888500000001613,
          "durationTicks": 192,
          "midi": 69,
          "name": "A4",
          "ticks": 398784,
          "time": 304.47013499999997,
          "velocity": 0.968503937007874
        },
        {
          "duration": 0.1388849999999593,
          "durationTicks": 192,
          "midi": 69,
          "name": "A4",
          "ticks": 398976,
          "time": 304.60902,
          "velocity": 0.968503937007874
        },
        {
          "duration": 0.13888500000001613,
          "durationTicks": 192,
          "midi": 69,
          "name": "A4",
          "ticks": 399168,
          "time": 304.74790499999995,
          "velocity": 0.968503937007874
        },
        {
          "duration": 0.13888500000001613,
          "durationTicks": 192,
          "midi": 69,
          "name": "A4",
          "ticks": 399360,
          "time": 304.88678999999996,
          "velocity": 0.968503937007874
        },
        {
          "duration": 0.13888500000001613,
          "durationTicks": 192,
          "midi": 69,
          "name": "A4",
          "ticks": 399552,
          "time": 305.025675,
          "velocity": 0.968503937007874
        },
        {
          "duration": 0.1388849999999593,
          "durationTicks": 192,
          "midi": 69,
          "name": "A4",
          "ticks": 399744,
          "time": 305.16456,
          "velocity": 0.968503937007874
        },
        {
          "duration": 0.13888500000001613,
          "durationTicks": 192,
          "midi": 69,
          "name": "A4",
          "ticks": 399936,
          "time": 305.30344499999995,
          "velocity": 0.968503937007874
        },
        {
          "duration": 0.13888500000001613,
          "durationTicks": 192,
          "midi": 69,
          "name": "A4",
          "ticks": 400128,
          "time": 305.44232999999997,
          "velocity": 0.968503937007874
        },
        {
          "duration": 0.1388849999999593,
          "durationTicks": 192,
          "midi": 69,
          "name": "A4",
          "ticks": 400320,
          "time": 305.581215,
          "velocity": 0.968503937007874
        },
        {
          "duration": 0.13888500000001613,
          "durationTicks": 192,
          "midi": 69,
          "name": "A4",
          "ticks": 400512,
          "time": 305.72009999999995,
          "velocity": 0.968503937007874
        },
        {
          "duration": 0.13888500000001613,
          "durationTicks": 192,
          "midi": 69,
          "name": "A4",
          "ticks": 400704,
          "time": 305.85898499999996,
          "velocity": 0.968503937007874
        },
        {
          "duration": 0.2777699999999754,
          "durationTicks": 384,
          "midi": 69,
          "name": "A4",
          "ticks": 400896,
          "time": 305.99787,
          "velocity": 0.968503937007874
        },
        {
          "duration": 0.13888500000001613,
          "durationTicks": 192,
          "midi": 67,
          "name": "G4",
          "ticks": 403392,
          "time": 307.80337499999996,
          "velocity": 0.905511811023622
        },
        {
          "duration": 0.13888500000001613,
          "durationTicks": 192,
          "midi": 67,
          "name": "G4",
          "ticks": 403584,
          "time": 307.94226,
          "velocity": 0.905511811023622
        },
        {
          "duration": 0.1388849999999593,
          "durationTicks": 192,
          "midi": 67,
          "name": "G4",
          "ticks": 403776,
          "time": 308.081145,
          "velocity": 0.905511811023622
        },
        {
          "duration": 0.5555400000000077,
          "durationTicks": 768,
          "midi": 63,
          "name": "D#4",
          "ticks": 403968,
          "time": 308.22002999999995,
          "velocity": 0.905511811023622
        },
        {
          "duration": 0.5555400000000077,
          "durationTicks": 768,
          "midi": 65,
          "name": "F4",
          "ticks": 404736,
          "time": 308.77556999999996,
          "velocity": 0.905511811023622
        },
        {
          "duration": 0.6944250000000238,
          "durationTicks": 960,
          "midi": 62,
          "name": "D4",
          "ticks": 405504,
          "time": 309.33110999999997,
          "velocity": 0.905511811023622
        },
        {
          "duration": 0.1388849999999593,
          "durationTicks": 192,
          "midi": 67,
          "name": "G4",
          "ticks": 406464,
          "time": 310.025535,
          "velocity": 0.905511811023622
        },
        {
          "duration": 0.13888500000001613,
          "durationTicks": 192,
          "midi": 67,
          "name": "G4",
          "ticks": 406656,
          "time": 310.16441999999995,
          "velocity": 0.905511811023622
        },
        {
          "duration": 0.13888500000001613,
          "durationTicks": 192,
          "midi": 67,
          "name": "G4",
          "ticks": 406848,
          "time": 310.30330499999997,
          "velocity": 0.905511811023622
        },
        {
          "duration": 0.5555400000000077,
          "durationTicks": 768,
          "midi": 63,
          "name": "D#4",
          "ticks": 407040,
          "time": 310.44219,
          "velocity": 0.905511811023622
        },
        {
          "duration": 0.5555400000000077,
          "durationTicks": 768,
          "midi": 65,
          "name": "F4",
          "ticks": 407808,
          "time": 310.99773,
          "velocity": 0.905511811023622
        },
        {
          "duration": 0.694424999999967,
          "durationTicks": 960,
          "midi": 62,
          "name": "D4",
          "ticks": 408576,
          "time": 311.55327,
          "velocity": 0.905511811023622
        },
        {
          "duration": 0.13888500000001613,
          "durationTicks": 192,
          "midi": 67,
          "name": "G4",
          "ticks": 409536,
          "time": 312.24769499999996,
          "velocity": 0.905511811023622
        },
        {
          "duration": 0.1388849999999593,
          "durationTicks": 192,
          "midi": 67,
          "name": "G4",
          "ticks": 409728,
          "time": 312.38658,
          "velocity": 0.905511811023622
        },
        {
          "duration": 0.13888500000001613,
          "durationTicks": 192,
          "midi": 67,
          "name": "G4",
          "ticks": 409920,
          "time": 312.52546499999994,
          "velocity": 0.905511811023622
        },
        {
          "duration": 0.27777000000003227,
          "durationTicks": 384,
          "midi": 63,
          "name": "D#4",
          "ticks": 410112,
          "time": 312.66434999999996,
          "velocity": 0.905511811023622
        },
        {
          "duration": 0.2777699999999754,
          "durationTicks": 384,
          "midi": 65,
          "name": "F4",
          "ticks": 410496,
          "time": 312.94212,
          "velocity": 0.905511811023622
        },
        {
          "duration": 0.27777000000003227,
          "durationTicks": 384,
          "midi": 62,
          "name": "D4",
          "ticks": 410880,
          "time": 313.21988999999996,
          "velocity": 0.905511811023622
        },
        {
          "duration": 0.2777699999999754,
          "durationTicks": 384,
          "midi": 63,
          "name": "D#4",
          "ticks": 411264,
          "time": 313.49766,
          "velocity": 0.905511811023622
        },
        {
          "duration": 0.2777699999999754,
          "durationTicks": 384,
          "midi": 60,
          "name": "C4",
          "ticks": 411648,
          "time": 313.77543,
          "velocity": 0.905511811023622
        },
        {
          "duration": 0.27777000000003227,
          "durationTicks": 384,
          "midi": 62,
          "name": "D4",
          "ticks": 412032,
          "time": 314.05319999999995,
          "velocity": 0.905511811023622
        },
        {
          "duration": 0.2777699999999754,
          "durationTicks": 384,
          "midi": 58,
          "name": "A#3",
          "ticks": 412416,
          "time": 314.33097,
          "velocity": 0.905511811023622
        },
        {
          "duration": 0.27777000000003227,
          "durationTicks": 384,
          "midi": 60,
          "name": "C4",
          "ticks": 412800,
          "time": 314.60873999999995,
          "velocity": 0.905511811023622
        },
        {
          "duration": 0.2777699999999754,
          "durationTicks": 384,
          "midi": 56,
          "name": "G#3",
          "ticks": 413184,
          "time": 314.88651,
          "velocity": 0.905511811023622
        },
        {
          "duration": 0.27777000000003227,
          "durationTicks": 384,
          "midi": 58,
          "name": "A#3",
          "ticks": 413568,
          "time": 315.16427999999996,
          "velocity": 0.905511811023622
        },
        {
          "duration": 0.2777699999999754,
          "durationTicks": 384,
          "midi": 55,
          "name": "G3",
          "ticks": 413952,
          "time": 315.44205,
          "velocity": 0.905511811023622
        },
        {
          "duration": 0.2777699999999754,
          "durationTicks": 384,
          "midi": 56,
          "name": "G#3",
          "ticks": 414336,
          "time": 315.71981999999997,
          "velocity": 0.905511811023622
        },
        {
          "duration": 0.27777000000003227,
          "durationTicks": 384,
          "midi": 53,
          "name": "F3",
          "ticks": 414720,
          "time": 315.99758999999995,
          "velocity": 0.905511811023622
        },
        {
          "duration": 0.2777699999999754,
          "durationTicks": 384,
          "midi": 55,
          "name": "G3",
          "ticks": 415104,
          "time": 316.27536,
          "velocity": 0.905511811023622
        },
        {
          "duration": 0.27777000000003227,
          "durationTicks": 384,
          "midi": 51,
          "name": "D#3",
          "ticks": 415488,
          "time": 316.55312999999995,
          "velocity": 0.905511811023622
        },
        {
          "duration": 0.2777699999999754,
          "durationTicks": 384,
          "midi": 53,
          "name": "F3",
          "ticks": 415872,
          "time": 316.8309,
          "velocity": 0.905511811023622
        },
        {
          "duration": 0.27777000000003227,
          "durationTicks": 384,
          "midi": 50,
          "name": "D3",
          "ticks": 416256,
          "time": 317.10866999999996,
          "velocity": 0.905511811023622
        },
        {
          "duration": 0.2777699999999754,
          "durationTicks": 384,
          "midi": 60,
          "name": "C4",
          "ticks": 416640,
          "time": 317.38644,
          "velocity": 0.905511811023622
        },
        {
          "duration": 0.2777699999999754,
          "durationTicks": 384,
          "midi": 59,
          "name": "B3",
          "ticks": 417024,
          "time": 317.66420999999997,
          "velocity": 0.905511811023622
        },
        {
          "duration": 0.27777000000003227,
          "durationTicks": 384,
          "midi": 60,
          "name": "C4",
          "ticks": 417408,
          "time": 317.94197999999994,
          "velocity": 0.905511811023622
        },
        {
          "duration": 0.2777699999999754,
          "durationTicks": 384,
          "midi": 62,
          "name": "D4",
          "ticks": 417792,
          "time": 318.21975,
          "velocity": 0.905511811023622
        },
        {
          "duration": 0.27777000000003227,
          "durationTicks": 384,
          "midi": 60,
          "name": "C4",
          "ticks": 418176,
          "time": 318.49751999999995,
          "velocity": 0.905511811023622
        },
        {
          "duration": 0.2777699999999754,
          "durationTicks": 384,
          "midi": 62,
          "name": "D4",
          "ticks": 418560,
          "time": 318.77529,
          "velocity": 0.905511811023622
        },
        {
          "duration": 0.27777000000003227,
          "durationTicks": 384,
          "midi": 64,
          "name": "E4",
          "ticks": 418944,
          "time": 319.05305999999996,
          "velocity": 0.905511811023622
        },
        {
          "duration": 0.2777699999999754,
          "durationTicks": 384,
          "midi": 65,
          "name": "F4",
          "ticks": 419328,
          "time": 319.33083,
          "velocity": 0.905511811023622
        },
        {
          "duration": 0.2777699999999754,
          "durationTicks": 384,
          "midi": 64,
          "name": "E4",
          "ticks": 419712,
          "time": 319.60859999999997,
          "velocity": 0.905511811023622
        },
        {
          "duration": 0.27777000000003227,
          "durationTicks": 384,
          "midi": 65,
          "name": "F4",
          "ticks": 420096,
          "time": 319.88636999999994,
          "velocity": 0.905511811023622
        },
        {
          "duration": 0.2777699999999754,
          "durationTicks": 384,
          "midi": 67,
          "name": "G4",
          "ticks": 420480,
          "time": 320.16414,
          "velocity": 0.905511811023622
        },
        {
          "duration": 0.27777000000003227,
          "durationTicks": 384,
          "midi": 68,
          "name": "G#4",
          "ticks": 420864,
          "time": 320.44190999999995,
          "velocity": 0.905511811023622
        },
        {
          "duration": 0.2777699999999754,
          "durationTicks": 384,
          "midi": 55,
          "name": "G3",
          "ticks": 421248,
          "time": 320.71968,
          "velocity": 0.905511811023622
        },
        {
          "duration": 0.27777000000003227,
          "durationTicks": 384,
          "midi": 57,
          "name": "A3",
          "ticks": 421632,
          "time": 320.99744999999996,
          "velocity": 0.905511811023622
        },
        {
          "duration": 0.2777699999999754,
          "durationTicks": 384,
          "midi": 59,
          "name": "B3",
          "ticks": 422016,
          "time": 321.27522,
          "velocity": 0.905511811023622
        },
        {
          "duration": 0.5555400000000077,
          "durationTicks": 768,
          "midi": 60,
          "name": "C4",
          "ticks": 422400,
          "time": 321.55298999999997,
          "velocity": 0.905511811023622
        },
        {
          "duration": 0.2777699999999754,
          "durationTicks": 384,
          "midi": 62,
          "name": "D4",
          "ticks": 423168,
          "time": 322.10853,
          "velocity": 0.905511811023622
        },
        {
          "duration": 0.27777000000003227,
          "durationTicks": 384,
          "midi": 63,
          "name": "D#4",
          "ticks": 423552,
          "time": 322.38629999999995,
          "velocity": 0.905511811023622
        },
        {
          "duration": 0.2777699999999754,
          "durationTicks": 384,
          "midi": 65,
          "name": "F4",
          "ticks": 423936,
          "time": 322.66407,
          "velocity": 0.905511811023622
        },
        {
          "duration": 0.27777000000003227,
          "durationTicks": 384,
          "midi": 62,
          "name": "D4",
          "ticks": 424320,
          "time": 322.94183999999996,
          "velocity": 0.905511811023622
        },
        {
          "duration": 0.2777699999999754,
          "durationTicks": 384,
          "midi": 63,
          "name": "D#4",
          "ticks": 424704,
          "time": 323.21961,
          "velocity": 0.905511811023622
        },
        {
          "duration": 0.2777699999999754,
          "durationTicks": 384,
          "midi": 65,
          "name": "F4",
          "ticks": 425088,
          "time": 323.49737999999996,
          "velocity": 0.905511811023622
        },
        {
          "duration": 0.27777000000003227,
          "durationTicks": 384,
          "midi": 67,
          "name": "G4",
          "ticks": 425472,
          "time": 323.77514999999994,
          "velocity": 0.905511811023622
        },
        {
          "duration": 0.2777699999999754,
          "durationTicks": 384,
          "midi": 63,
          "name": "D#4",
          "ticks": 425856,
          "time": 324.05292,
          "velocity": 0.905511811023622
        },
        {
          "duration": 0.27777000000003227,
          "durationTicks": 384,
          "midi": 65,
          "name": "F4",
          "ticks": 426240,
          "time": 324.33068999999995,
          "velocity": 0.905511811023622
        },
        {
          "duration": 0.2777699999999754,
          "durationTicks": 384,
          "midi": 67,
          "name": "G4",
          "ticks": 426624,
          "time": 324.60846,
          "velocity": 0.905511811023622
        },
        {
          "duration": 0.27777000000003227,
          "durationTicks": 384,
          "midi": 68,
          "name": "G#4",
          "ticks": 427008,
          "time": 324.88622999999995,
          "velocity": 0.905511811023622
        },
        {
          "duration": 0.2777699999999754,
          "durationTicks": 384,
          "midi": 65,
          "name": "F4",
          "ticks": 427392,
          "time": 325.164,
          "velocity": 0.905511811023622
        },
        {
          "duration": 0.27777000000003227,
          "durationTicks": 384,
          "midi": 67,
          "name": "G4",
          "ticks": 427776,
          "time": 325.44176999999996,
          "velocity": 0.905511811023622
        },
        {
          "duration": 0.2777699999999754,
          "durationTicks": 384,
          "midi": 69,
          "name": "A4",
          "ticks": 428160,
          "time": 325.71954,
          "velocity": 0.905511811023622
        },
        {
          "duration": 0.27777000000003227,
          "durationTicks": 384,
          "midi": 71,
          "name": "B4",
          "ticks": 428544,
          "time": 325.99730999999997,
          "velocity": 0.905511811023622
        },
        {
          "duration": 0.2777699999999754,
          "durationTicks": 384,
          "midi": 67,
          "name": "G4",
          "ticks": 428928,
          "time": 326.27508,
          "velocity": 0.905511811023622
        },
        {
          "duration": 0.2777699999999754,
          "durationTicks": 384,
          "midi": 69,
          "name": "A4",
          "ticks": 429312,
          "time": 326.55285,
          "velocity": 0.905511811023622
        },
        {
          "duration": 0.27777000000003227,
          "durationTicks": 384,
          "midi": 71,
          "name": "B4",
          "ticks": 429696,
          "time": 326.83061999999995,
          "velocity": 0.905511811023622
        },
        {
          "duration": 0.2777699999999754,
          "durationTicks": 384,
          "midi": 72,
          "name": "C5",
          "ticks": 430080,
          "time": 327.10839,
          "velocity": 0.905511811023622
        },
        {
          "duration": 0.27777000000003227,
          "durationTicks": 384,
          "midi": 67,
          "name": "G4",
          "ticks": 430464,
          "time": 327.38615999999996,
          "velocity": 0.905511811023622
        },
        {
          "duration": 0.2777699999999754,
          "durationTicks": 384,
          "midi": 68,
          "name": "G#4",
          "ticks": 430848,
          "time": 327.66393,
          "velocity": 0.905511811023622
        },
        {
          "duration": 0.27777000000003227,
          "durationTicks": 384,
          "midi": 63,
          "name": "D#4",
          "ticks": 431232,
          "time": 327.94169999999997,
          "velocity": 0.905511811023622
        },
        {
          "duration": 0.2777699999999754,
          "durationTicks": 384,
          "midi": 65,
          "name": "F4",
          "ticks": 431616,
          "time": 328.21947,
          "velocity": 0.905511811023622
        },
        {
          "duration": 0.2777699999999754,
          "durationTicks": 384,
          "midi": 62,
          "name": "D4",
          "ticks": 432000,
          "time": 328.49724,
          "velocity": 0.905511811023622
        },
        {
          "duration": 0.27777000000003227,
          "durationTicks": 384,
          "midi": 63,
          "name": "D#4",
          "ticks": 432384,
          "time": 328.77500999999995,
          "velocity": 0.905511811023622
        },
        {
          "duration": 0.2777699999999754,
          "durationTicks": 384,
          "midi": 65,
          "name": "F4",
          "ticks": 432768,
          "time": 329.05278,
          "velocity": 0.905511811023622
        },
        {
          "duration": 0.27777000000003227,
          "durationTicks": 384,
          "midi": 67,
          "name": "G4",
          "ticks": 433152,
          "time": 329.33054999999996,
          "velocity": 0.905511811023622
        },
        {
          "duration": 0.2777699999999754,
          "durationTicks": 384,
          "midi": 66,
          "name": "F#4",
          "ticks": 433536,
          "time": 329.60832,
          "velocity": 0.905511811023622
        },
        {
          "duration": 0.27777000000003227,
          "durationTicks": 384,
          "midi": 67,
          "name": "G4",
          "ticks": 433920,
          "time": 329.88608999999997,
          "velocity": 0.905511811023622
        },
        {
          "duration": 0.2777699999999754,
          "durationTicks": 384,
          "midi": 55,
          "name": "G3",
          "ticks": 434304,
          "time": 330.16386,
          "velocity": 0.905511811023622
        },
        {
          "duration": 0.2777699999999754,
          "durationTicks": 384,
          "midi": 60,
          "name": "C4",
          "ticks": 434688,
          "time": 330.44163,
          "velocity": 0.905511811023622
        },
        {
          "duration": 0.2777699999999754,
          "durationTicks": 384,
          "midi": 51,
          "name": "D#3",
          "ticks": 436992,
          "time": 332.10825,
          "velocity": 0.905511811023622
        },
        {
          "duration": 0.2777699999999754,
          "durationTicks": 384,
          "midi": 53,
          "name": "F3",
          "ticks": 437376,
          "time": 332.38602,
          "velocity": 0.905511811023622
        },
        {
          "duration": 0.27777000000003227,
          "durationTicks": 384,
          "midi": 55,
          "name": "G3",
          "ticks": 437760,
          "time": 332.66378999999995,
          "velocity": 0.905511811023622
        },
        {
          "duration": 0.2777699999999754,
          "durationTicks": 384,
          "midi": 51,
          "name": "D#3",
          "ticks": 438144,
          "time": 332.94156,
          "velocity": 0.905511811023622
        },
        {
          "duration": 0.2777699999999754,
          "durationTicks": 384,
          "midi": 55,
          "name": "G3",
          "ticks": 440064,
          "time": 334.33041,
          "velocity": 0.905511811023622
        },
        {
          "duration": 0.27777000000003227,
          "durationTicks": 384,
          "midi": 57,
          "name": "A3",
          "ticks": 440448,
          "time": 334.60817999999995,
          "velocity": 0.905511811023622
        },
        {
          "duration": 0.2777699999999754,
          "durationTicks": 384,
          "midi": 59,
          "name": "B3",
          "ticks": 440832,
          "time": 334.88595,
          "velocity": 0.905511811023622
        },
        {
          "duration": 0.27777000000003227,
          "durationTicks": 384,
          "midi": 55,
          "name": "G3",
          "ticks": 441216,
          "time": 335.16371999999996,
          "velocity": 0.905511811023622
        },
        {
          "duration": 0.27777000000003227,
          "durationTicks": 384,
          "midi": 55,
          "name": "G3",
          "ticks": 443136,
          "time": 336.55256999999995,
          "velocity": 0.905511811023622
        },
        {
          "duration": 0.2777699999999754,
          "durationTicks": 384,
          "midi": 57,
          "name": "A3",
          "ticks": 443520,
          "time": 336.83034,
          "velocity": 0.905511811023622
        },
        {
          "duration": 0.27777000000003227,
          "durationTicks": 384,
          "midi": 59,
          "name": "B3",
          "ticks": 443904,
          "time": 337.10810999999995,
          "velocity": 0.905511811023622
        },
        {
          "duration": 0.2777699999999754,
          "durationTicks": 384,
          "midi": 55,
          "name": "G3",
          "ticks": 444288,
          "time": 337.38588,
          "velocity": 0.905511811023622
        },
        {
          "duration": 0.2777699999999754,
          "durationTicks": 384,
          "midi": 53,
          "name": "F3",
          "ticks": 447744,
          "time": 339.88581,
          "velocity": 0.905511811023622
        },
        {
          "duration": 0.2777699999999754,
          "durationTicks": 384,
          "midi": 56,
          "name": "G#3",
          "ticks": 447744,
          "time": 339.88581,
          "velocity": 0.905511811023622
        },
        {
          "duration": 0.2777699999999754,
          "durationTicks": 384,
          "midi": 51,
          "name": "D#3",
          "ticks": 448128,
          "time": 340.16357999999997,
          "velocity": 0.905511811023622
        },
        {
          "duration": 0.2777699999999754,
          "durationTicks": 384,
          "midi": 55,
          "name": "G3",
          "ticks": 448128,
          "time": 340.16357999999997,
          "velocity": 0.905511811023622
        },
        {
          "duration": 0.27777000000003227,
          "durationTicks": 384,
          "midi": 53,
          "name": "F3",
          "ticks": 449280,
          "time": 340.99688999999995,
          "velocity": 0.905511811023622
        },
        {
          "duration": 0.2777699999999754,
          "durationTicks": 384,
          "midi": 60,
          "name": "C4",
          "ticks": 449664,
          "time": 341.27466,
          "velocity": 0.905511811023622
        },
        {
          "duration": 0.27777000000003227,
          "durationTicks": 384,
          "midi": 55,
          "name": "G3",
          "ticks": 450048,
          "time": 341.55242999999996,
          "velocity": 0.905511811023622
        },
        {
          "duration": 0.27777000000003227,
          "durationTicks": 384,
          "midi": 67,
          "name": "G4",
          "ticks": 450048,
          "time": 341.55242999999996,
          "velocity": 0.905511811023622
        },
        {
          "duration": 0.2777699999999754,
          "durationTicks": 384,
          "midi": 55,
          "name": "G3",
          "ticks": 450816,
          "time": 342.10796999999997,
          "velocity": 0.905511811023622
        },
        {
          "duration": 0.27777000000003227,
          "durationTicks": 384,
          "midi": 60,
          "name": "C4",
          "ticks": 451584,
          "time": 342.66351,
          "velocity": 0.905511811023622
        },
        {
          "duration": 0.2777699999999754,
          "durationTicks": 384,
          "midi": 58,
          "name": "A#3",
          "ticks": 451968,
          "time": 342.94128,
          "velocity": 0.905511811023622
        },
        {
          "duration": 0.2777699999999754,
          "durationTicks": 384,
          "midi": 56,
          "name": "G#3",
          "ticks": 452352,
          "time": 343.21905,
          "velocity": 0.905511811023622
        },
        {
          "duration": 0.27777000000003227,
          "durationTicks": 384,
          "midi": 55,
          "name": "G3",
          "ticks": 452736,
          "time": 343.49681999999996,
          "velocity": 0.905511811023622
        },
        {
          "duration": 0.2777699999999754,
          "durationTicks": 384,
          "midi": 53,
          "name": "F3",
          "ticks": 453120,
          "time": 343.77459,
          "velocity": 0.905511811023622
        },
        {
          "duration": 0.2777699999999754,
          "durationTicks": 384,
          "midi": 51,
          "name": "D#3",
          "ticks": 453504,
          "time": 344.05235999999996,
          "velocity": 0.905511811023622
        },
        {
          "duration": 0.2777699999999754,
          "durationTicks": 384,
          "midi": 53,
          "name": "F3",
          "ticks": 454656,
          "time": 344.88567,
          "velocity": 0.905511811023622
        },
        {
          "duration": 0.2777699999999754,
          "durationTicks": 384,
          "midi": 56,
          "name": "G#3",
          "ticks": 454656,
          "time": 344.88567,
          "velocity": 0.905511811023622
        },
        {
          "duration": 0.2777699999999754,
          "durationTicks": 384,
          "midi": 51,
          "name": "D#3",
          "ticks": 455040,
          "time": 345.16344,
          "velocity": 0.905511811023622
        },
        {
          "duration": 0.2777699999999754,
          "durationTicks": 384,
          "midi": 55,
          "name": "G3",
          "ticks": 455040,
          "time": 345.16344,
          "velocity": 0.905511811023622
        },
        {
          "duration": 0.27777000000003227,
          "durationTicks": 384,
          "midi": 65,
          "name": "F4",
          "ticks": 455424,
          "time": 345.44120999999996,
          "velocity": 0.905511811023622
        },
        {
          "duration": 0.2777699999999754,
          "durationTicks": 384,
          "midi": 60,
          "name": "C4",
          "ticks": 455808,
          "time": 345.71898,
          "velocity": 0.905511811023622
        },
        {
          "duration": 0.2777699999999754,
          "durationTicks": 384,
          "midi": 55,
          "name": "G3",
          "ticks": 456192,
          "time": 345.99674999999996,
          "velocity": 0.905511811023622
        },
        {
          "duration": 0.2777699999999754,
          "durationTicks": 384,
          "midi": 67,
          "name": "G4",
          "ticks": 456192,
          "time": 345.99674999999996,
          "velocity": 0.905511811023622
        },
        {
          "duration": 0.27777000000003227,
          "durationTicks": 384,
          "midi": 55,
          "name": "G3",
          "ticks": 456960,
          "time": 346.55228999999997,
          "velocity": 0.905511811023622
        },
        {
          "duration": 0.27777000000003227,
          "durationTicks": 384,
          "midi": 67,
          "name": "G4",
          "ticks": 456960,
          "time": 346.55228999999997,
          "velocity": 0.905511811023622
        },
        {
          "duration": 0.13888500000001613,
          "durationTicks": 192,
          "midi": 48,
          "name": "C3",
          "ticks": 457728,
          "time": 347.10783,
          "velocity": 0.905511811023622
        },
        {
          "duration": 0.13888500000001613,
          "durationTicks": 192,
          "midi": 60,
          "name": "C4",
          "ticks": 457728,
          "time": 347.10783,
          "velocity": 0.905511811023622
        },
        {
          "duration": 0.1388849999999593,
          "durationTicks": 192,
          "midi": 55,
          "name": "G3",
          "ticks": 457920,
          "time": 347.246715,
          "velocity": 0.905511811023622
        },
        {
          "duration": 0.13888500000001613,
          "durationTicks": 192,
          "midi": 55,
          "name": "G3",
          "ticks": 458112,
          "time": 347.38559999999995,
          "velocity": 0.905511811023622
        },
        {
          "duration": 0.13888500000001613,
          "durationTicks": 192,
          "midi": 55,
          "name": "G3",
          "ticks": 458304,
          "time": 347.52448499999997,
          "velocity": 0.905511811023622
        },
        {
          "duration": 2.36104499999999,
          "durationTicks": 3264,
          "midi": 55,
          "name": "G3",
          "ticks": 458496,
          "time": 347.66337,
          "velocity": 0.905511811023622
        },
        {
          "duration": 0.13888500000001613,
          "durationTicks": 192,
          "midi": 55,
          "name": "G3",
          "ticks": 461760,
          "time": 350.024415,
          "velocity": 0.905511811023622
        },
        {
          "duration": 0.1388849999999593,
          "durationTicks": 192,
          "midi": 55,
          "name": "G3",
          "ticks": 461952,
          "time": 350.1633,
          "velocity": 0.905511811023622
        },
        {
          "duration": 0.13888500000001613,
          "durationTicks": 192,
          "midi": 55,
          "name": "G3",
          "ticks": 462144,
          "time": 350.30218499999995,
          "velocity": 0.905511811023622
        },
        {
          "duration": 0.13888500000001613,
          "durationTicks": 192,
          "midi": 60,
          "name": "C4",
          "ticks": 462336,
          "time": 350.44106999999997,
          "velocity": 0.905511811023622
        },
        {
          "duration": 0.13888500000001613,
          "durationTicks": 192,
          "midi": 55,
          "name": "G3",
          "ticks": 462528,
          "time": 350.579955,
          "velocity": 0.905511811023622
        },
        {
          "duration": 0.1388849999999593,
          "durationTicks": 192,
          "midi": 55,
          "name": "G3",
          "ticks": 462720,
          "time": 350.71884,
          "velocity": 0.905511811023622
        },
        {
          "duration": 0.13888500000001613,
          "durationTicks": 192,
          "midi": 55,
          "name": "G3",
          "ticks": 462912,
          "time": 350.85772499999996,
          "velocity": 0.905511811023622
        },
        {
          "duration": 0.13888500000001613,
          "durationTicks": 192,
          "midi": 55,
          "name": "G3",
          "ticks": 463104,
          "time": 350.99661,
          "velocity": 0.905511811023622
        },
        {
          "duration": 0.1388849999999593,
          "durationTicks": 192,
          "midi": 55,
          "name": "G3",
          "ticks": 463296,
          "time": 351.135495,
          "velocity": 0.905511811023622
        },
        {
          "duration": 0.13888500000001613,
          "durationTicks": 192,
          "midi": 55,
          "name": "G3",
          "ticks": 463488,
          "time": 351.27437999999995,
          "velocity": 0.905511811023622
        },
        {
          "duration": 0.13888500000001613,
          "durationTicks": 192,
          "midi": 55,
          "name": "G3",
          "ticks": 463680,
          "time": 351.41326499999997,
          "velocity": 0.905511811023622
        },
        {
          "duration": 0.1388849999999593,
          "durationTicks": 192,
          "midi": 55,
          "name": "G3",
          "ticks": 463872,
          "time": 351.55215,
          "velocity": 0.905511811023622
        },
        {
          "duration": 0.13888500000001613,
          "durationTicks": 192,
          "midi": 55,
          "name": "G3",
          "ticks": 464064,
          "time": 351.69103499999994,
          "velocity": 0.905511811023622
        },
        {
          "duration": 0.13888500000001613,
          "durationTicks": 192,
          "midi": 55,
          "name": "G3",
          "ticks": 464256,
          "time": 351.82991999999996,
          "velocity": 0.905511811023622
        },
        {
          "duration": 0.13888500000001613,
          "durationTicks": 192,
          "midi": 55,
          "name": "G3",
          "ticks": 464448,
          "time": 351.968805,
          "velocity": 0.905511811023622
        },
        {
          "duration": 0.13888500000001613,
          "durationTicks": 192,
          "midi": 55,
          "name": "G3",
          "ticks": 464640,
          "time": 352.10769,
          "velocity": 0.905511811023622
        },
        {
          "duration": 0.1388849999999593,
          "durationTicks": 192,
          "midi": 55,
          "name": "G3",
          "ticks": 464832,
          "time": 352.246575,
          "velocity": 0.905511811023622
        },
        {
          "duration": 0.13888500000001613,
          "durationTicks": 192,
          "midi": 55,
          "name": "G3",
          "ticks": 465024,
          "time": 352.38545999999997,
          "velocity": 0.905511811023622
        },
        {
          "duration": 0.13888500000001613,
          "durationTicks": 192,
          "midi": 55,
          "name": "G3",
          "ticks": 465216,
          "time": 352.524345,
          "velocity": 0.905511811023622
        },
        {
          "duration": 1.0908999999999764,
          "durationTicks": 768,
          "midi": 51,
          "name": "D#3",
          "ticks": 465408,
          "time": 352.66323,
          "velocity": 0.968503937007874
        },
        {
          "duration": 0.1388849999999593,
          "durationTicks": 192,
          "midi": 53,
          "name": "F3",
          "ticks": 466368,
          "time": 353.893015,
          "velocity": 0.968503937007874
        },
        {
          "duration": 0.13888500000001613,
          "durationTicks": 192,
          "midi": 53,
          "name": "F3",
          "ticks": 466560,
          "time": 354.03189999999995,
          "velocity": 0.968503937007874
        },
        {
          "duration": 0.13888500000001613,
          "durationTicks": 192,
          "midi": 53,
          "name": "F3",
          "ticks": 466752,
          "time": 354.17078499999997,
          "velocity": 0.968503937007874
        },
        {
          "duration": 1.7555399999999963,
          "durationTicks": 1536,
          "midi": 50,
          "name": "D3",
          "ticks": 466944,
          "time": 354.30967,
          "velocity": 0.968503937007874
        },
        {
          "duration": 0.1415049999999951,
          "durationTicks": 192,
          "midi": 55,
          "name": "G3",
          "ticks": 474816,
          "time": 360.734875,
          "velocity": 0.968503937007874
        },
        {
          "duration": 0.1415049999999951,
          "durationTicks": 192,
          "midi": 55,
          "name": "G3",
          "ticks": 475008,
          "time": 360.87638,
          "velocity": 0.968503937007874
        },
        {
          "duration": 0.1415049999999951,
          "durationTicks": 192,
          "midi": 55,
          "name": "G3",
          "ticks": 475200,
          "time": 361.017885,
          "velocity": 0.968503937007874
        },
        {
          "duration": 0.2830099999999902,
          "durationTicks": 384,
          "midi": 60,
          "name": "C4",
          "ticks": 475392,
          "time": 361.15939,
          "velocity": 0.968503937007874
        },
        {
          "duration": 0.1415049999999951,
          "durationTicks": 192,
          "midi": 55,
          "name": "G3",
          "ticks": 476352,
          "time": 361.866915,
          "velocity": 0.968503937007874
        },
        {
          "duration": 0.1415049999999951,
          "durationTicks": 192,
          "midi": 55,
          "name": "G3",
          "ticks": 476544,
          "time": 362.00842,
          "velocity": 0.968503937007874
        },
        {
          "duration": 0.1415049999999951,
          "durationTicks": 192,
          "midi": 55,
          "name": "G3",
          "ticks": 476736,
          "time": 362.149925,
          "velocity": 0.968503937007874
        },
        {
          "duration": 0.2830099999999902,
          "durationTicks": 384,
          "midi": 60,
          "name": "C4",
          "ticks": 476928,
          "time": 362.29143,
          "velocity": 0.968503937007874
        },
        {
          "duration": 0.1415049999999951,
          "durationTicks": 192,
          "midi": 55,
          "name": "G3",
          "ticks": 477888,
          "time": 362.99895499999997,
          "velocity": 0.968503937007874
        },
        {
          "duration": 0.1415049999999951,
          "durationTicks": 192,
          "midi": 55,
          "name": "G3",
          "ticks": 478080,
          "time": 363.14045999999996,
          "velocity": 0.968503937007874
        },
        {
          "duration": 0.1415049999999951,
          "durationTicks": 192,
          "midi": 55,
          "name": "G3",
          "ticks": 478272,
          "time": 363.28196499999996,
          "velocity": 0.968503937007874
        },
        {
          "duration": 0.28301000000004706,
          "durationTicks": 384,
          "midi": 60,
          "name": "C4",
          "ticks": 478464,
          "time": 363.42346999999995,
          "velocity": 0.968503937007874
        },
        {
          "duration": 0.2830099999999902,
          "durationTicks": 384,
          "midi": 55,
          "name": "G3",
          "ticks": 478848,
          "time": 363.70648,
          "velocity": 0.968503937007874
        },
        {
          "duration": 0.2830099999999902,
          "durationTicks": 384,
          "midi": 60,
          "name": "C4",
          "ticks": 479232,
          "time": 363.98949,
          "velocity": 0.968503937007874
        },
        {
          "duration": 0.2830099999999902,
          "durationTicks": 384,
          "midi": 55,
          "name": "G3",
          "ticks": 479616,
          "time": 364.2725,
          "velocity": 0.968503937007874
        },
        {
          "duration": 0.2830099999999902,
          "durationTicks": 384,
          "midi": 60,
          "name": "C4",
          "ticks": 480000,
          "time": 364.55550999999997,
          "velocity": 0.968503937007874
        },
        {
          "duration": 0.28301000000004706,
          "durationTicks": 384,
          "midi": 67,
          "name": "G4",
          "ticks": 480384,
          "time": 364.83851999999996,
          "velocity": 0.968503937007874
        },
        {
          "duration": 0.2830099999999902,
          "durationTicks": 384,
          "midi": 72,
          "name": "C5",
          "ticks": 480768,
          "time": 365.12153,
          "velocity": 0.968503937007874
        },
        {
          "duration": 0.2830099999999902,
          "durationTicks": 384,
          "midi": 67,
          "name": "G4",
          "ticks": 481152,
          "time": 365.40454,
          "velocity": 0.968503937007874
        },
        {
          "duration": 0.2830099999999902,
          "durationTicks": 384,
          "midi": 72,
          "name": "C5",
          "ticks": 481536,
          "time": 365.68755,
          "velocity": 0.968503937007874
        },
        {
          "duration": 0.2830099999999902,
          "durationTicks": 384,
          "midi": 55,
          "name": "G3",
          "ticks": 482304,
          "time": 366.25356999999997,
          "velocity": 0.968503937007874
        },
        {
          "duration": 0.2830099999999902,
          "durationTicks": 384,
          "midi": 48,
          "name": "C3",
          "ticks": 483072,
          "time": 366.81959,
          "velocity": 0.968503937007874
        }
      ],
      "endOfTrackTicks": 484608
    },
    {
      "channel": 10,
      "controlChanges": {},
      "pitchBends": [],
      "instrument": {
        "family": "ensemble",
        "number": 48,
        "name": "string ensemble 1"
      },
      "name": "STRINGS",
      "notes": [
        {
          "duration": 0.15,
          "durationTicks": 192,
          "midi": 43,
          "name": "G2",
          "ticks": 192,
          "time": 0.15,
          "velocity": 0.968503937007874
        },
        {
          "duration": 0.14999999999999997,
          "durationTicks": 192,
          "midi": 43,
          "name": "G2",
          "ticks": 384,
          "time": 0.3,
          "velocity": 0.968503937007874
        },
        {
          "duration": 0.15000000000000002,
          "durationTicks": 192,
          "midi": 43,
          "name": "G2",
          "ticks": 576,
          "time": 0.44999999999999996,
          "velocity": 0.968503937007874
        },
        {
          "duration": 1.1999999999999997,
          "durationTicks": 768,
          "midi": 39,
          "name": "D#2",
          "ticks": 768,
          "time": 0.6,
          "velocity": 0.968503937007874
        },
        {
          "duration": 0.1499999999999999,
          "durationTicks": 192,
          "midi": 41,
          "name": "F2",
          "ticks": 1728,
          "time": 1.9499999999999997,
          "velocity": 0.968503937007874
        },
        {
          "duration": 0.15000000000000036,
          "durationTicks": 192,
          "midi": 41,
          "name": "F2",
          "ticks": 1920,
          "time": 2.0999999999999996,
          "velocity": 0.968503937007874
        },
        {
          "duration": 0.1499999999999999,
          "durationTicks": 192,
          "midi": 41,
          "name": "F2",
          "ticks": 2112,
          "time": 2.25,
          "velocity": 0.968503937007874
        },
        {
          "duration": 1.6,
          "durationTicks": 1536,
          "midi": 38,
          "name": "D2",
          "ticks": 2304,
          "time": 2.4,
          "velocity": 0.968503937007874
        },
        {
          "duration": 2.3076799999999995,
          "durationTicks": 3072,
          "midi": 60,
          "name": "C4",
          "ticks": 4608,
          "time": 4.57692,
          "velocity": 0.7165354330708661
        },
        {
          "duration": 2.3076800000000004,
          "durationTicks": 3072,
          "midi": 59,
          "name": "B3",
          "ticks": 7680,
          "time": 6.8846,
          "velocity": 0.7165354330708661
        },
        {
          "duration": 0.5769199999999994,
          "durationTicks": 768,
          "midi": 60,
          "name": "C4",
          "ticks": 10752,
          "time": 9.19228,
          "velocity": 0.7165354330708661
        },
        {
          "duration": 0.5769199999999994,
          "durationTicks": 768,
          "midi": 59,
          "name": "B3",
          "ticks": 11520,
          "time": 9.7692,
          "velocity": 0.7165354330708661
        },
        {
          "duration": 0.5769200000000012,
          "durationTicks": 768,
          "midi": 60,
          "name": "C4",
          "ticks": 12288,
          "time": 10.346119999999999,
          "velocity": 0.7165354330708661
        },
        {
          "duration": 0.1442300000000003,
          "durationTicks": 192,
          "midi": 59,
          "name": "B3",
          "ticks": 13056,
          "time": 10.92304,
          "velocity": 0.7165354330708661
        },
        {
          "duration": 0.1442300000000003,
          "durationTicks": 192,
          "midi": 59,
          "name": "B3",
          "ticks": 13248,
          "time": 11.06727,
          "velocity": 0.7165354330708661
        },
        {
          "duration": 0.14422999999999853,
          "durationTicks": 192,
          "midi": 59,
          "name": "B3",
          "ticks": 13440,
          "time": 11.211500000000001,
          "velocity": 0.7952755905511811
        },
        {
          "duration": 0.1442300000000003,
          "durationTicks": 192,
          "midi": 59,
          "name": "B3",
          "ticks": 13632,
          "time": 11.35573,
          "velocity": 0.8582677165354331
        },
        {
          "duration": 0.28845999999999883,
          "durationTicks": 384,
          "midi": 60,
          "name": "C4",
          "ticks": 13824,
          "time": 11.49996,
          "velocity": 0.905511811023622
        },
        {
          "duration": 0.2884600000000006,
          "durationTicks": 384,
          "midi": 44,
          "name": "G#2",
          "ticks": 14592,
          "time": 12.07688,
          "velocity": 0.905511811023622
        },
        {
          "duration": 0.28845999999999883,
          "durationTicks": 384,
          "midi": 43,
          "name": "G2",
          "ticks": 15360,
          "time": 12.6538,
          "velocity": 0.905511811023622
        },
        {
          "duration": 0.14285499999999907,
          "durationTicks": 192,
          "midi": 44,
          "name": "G#2",
          "ticks": 16320,
          "time": 14.751775,
          "velocity": 0.968503937007874
        },
        {
          "duration": 0.14285500000000084,
          "durationTicks": 192,
          "midi": 44,
          "name": "G#2",
          "ticks": 16512,
          "time": 14.89463,
          "velocity": 0.968503937007874
        },
        {
          "duration": 0.14285499999999907,
          "durationTicks": 192,
          "midi": 44,
          "name": "G#2",
          "ticks": 16704,
          "time": 15.037485,
          "velocity": 0.968503937007874
        },
        {
          "duration": 1.9047399999999985,
          "durationTicks": 1536,
          "midi": 41,
          "name": "F2",
          "ticks": 16896,
          "time": 15.18034,
          "velocity": 0.968503937007874
        },
        {
          "duration": 0.14285500000000084,
          "durationTicks": 192,
          "midi": 43,
          "name": "G2",
          "ticks": 20928,
          "time": 18.942194999999998,
          "velocity": 0.7165354330708661
        },
        {
          "duration": 0.14285500000000084,
          "durationTicks": 192,
          "midi": 43,
          "name": "G2",
          "ticks": 21120,
          "time": 19.08505,
          "velocity": 0.7165354330708661
        },
        {
          "duration": 0.1428549999999973,
          "durationTicks": 192,
          "midi": 43,
          "name": "G2",
          "ticks": 21312,
          "time": 19.227905,
          "velocity": 0.7165354330708661
        },
        {
          "duration": 0.2857100000000017,
          "durationTicks": 384,
          "midi": 48,
          "name": "C3",
          "ticks": 21504,
          "time": 19.370759999999997,
          "velocity": 0.7165354330708661
        },
        {
          "duration": 0.14285500000000084,
          "durationTicks": 192,
          "midi": 43,
          "name": "G2",
          "ticks": 24000,
          "time": 21.227874999999997,
          "velocity": 0.7165354330708661
        },
        {
          "duration": 0.14285500000000084,
          "durationTicks": 192,
          "midi": 43,
          "name": "G2",
          "ticks": 24192,
          "time": 21.37073,
          "velocity": 0.7165354330708661
        },
        {
          "duration": 0.1428549999999973,
          "durationTicks": 192,
          "midi": 43,
          "name": "G2",
          "ticks": 24384,
          "time": 21.513585,
          "velocity": 0.7165354330708661
        },
        {
          "duration": 0.2857100000000017,
          "durationTicks": 384,
          "midi": 48,
          "name": "C3",
          "ticks": 24576,
          "time": 21.656439999999996,
          "velocity": 0.7165354330708661
        },
        {
          "duration": 0.14285500000000084,
          "durationTicks": 192,
          "midi": 48,
          "name": "C3",
          "ticks": 25536,
          "time": 22.370714999999997,
          "velocity": 0.7165354330708661
        },
        {
          "duration": 0.14285500000000084,
          "durationTicks": 192,
          "midi": 48,
          "name": "C3",
          "ticks": 25728,
          "time": 22.513569999999998,
          "velocity": 0.7165354330708661
        },
        {
          "duration": 0.1428549999999973,
          "durationTicks": 192,
          "midi": 48,
          "name": "C3",
          "ticks": 25920,
          "time": 22.656425,
          "velocity": 0.7165354330708661
        },
        {
          "duration": 0.2857100000000017,
          "durationTicks": 384,
          "midi": 48,
          "name": "C3",
          "ticks": 26112,
          "time": 22.799279999999996,
          "velocity": 0.7952755905511811
        },
        {
          "duration": 0.1415050000000022,
          "durationTicks": 192,
          "midi": 48,
          "name": "C3",
          "ticks": 27072,
          "time": 23.512204999999998,
          "velocity": 0.905511811023622
        },
        {
          "duration": 0.14150499999999866,
          "durationTicks": 192,
          "midi": 48,
          "name": "C3",
          "ticks": 27264,
          "time": 23.65371,
          "velocity": 0.905511811023622
        },
        {
          "duration": 0.1415050000000022,
          "durationTicks": 192,
          "midi": 48,
          "name": "C3",
          "ticks": 27456,
          "time": 23.795215,
          "velocity": 0.905511811023622
        },
        {
          "duration": 0.2830099999999973,
          "durationTicks": 384,
          "midi": 48,
          "name": "C3",
          "ticks": 27648,
          "time": 23.93672,
          "velocity": 0.968503937007874
        },
        {
          "duration": 0.28301000000000087,
          "durationTicks": 384,
          "midi": 48,
          "name": "C3",
          "ticks": 28416,
          "time": 24.50274,
          "velocity": 0.968503937007874
        },
        {
          "duration": 0.28301000000000087,
          "durationTicks": 384,
          "midi": 48,
          "name": "C3",
          "ticks": 29184,
          "time": 25.068759999999997,
          "velocity": 0.968503937007874
        },
        {
          "duration": 0.28037000000000134,
          "durationTicks": 384,
          "midi": 48,
          "name": "C3",
          "ticks": 29952,
          "time": 25.63478,
          "velocity": 0.968503937007874
        },
        {
          "duration": 0.28037000000000134,
          "durationTicks": 384,
          "midi": 48,
          "name": "C3",
          "ticks": 30720,
          "time": 26.19552,
          "velocity": 0.968503937007874
        },
        {
          "duration": 0.28037000000000134,
          "durationTicks": 384,
          "midi": 48,
          "name": "C3",
          "ticks": 31488,
          "time": 26.756259999999997,
          "velocity": 0.968503937007874
        },
        {
          "duration": 0.2803699999999978,
          "durationTicks": 384,
          "midi": 48,
          "name": "C3",
          "ticks": 32256,
          "time": 27.317,
          "velocity": 0.968503937007874
        },
        {
          "duration": 1.8055050000000001,
          "durationTicks": 2496,
          "midi": 48,
          "name": "C3",
          "ticks": 33024,
          "time": 27.87774,
          "velocity": 0.905511811023622
        },
        {
          "duration": 0.13888499999999837,
          "durationTicks": 192,
          "midi": 48,
          "name": "C3",
          "ticks": 35520,
          "time": 29.683245,
          "velocity": 0.8582677165354331
        },
        {
          "duration": 0.13888500000000192,
          "durationTicks": 192,
          "midi": 48,
          "name": "C3",
          "ticks": 35712,
          "time": 29.822129999999998,
          "velocity": 0.8582677165354331
        },
        {
          "duration": 0.13888499999999837,
          "durationTicks": 192,
          "midi": 48,
          "name": "C3",
          "ticks": 35904,
          "time": 29.961015,
          "velocity": 0.8582677165354331
        },
        {
          "duration": 1.8055050000000001,
          "durationTicks": 2496,
          "midi": 43,
          "name": "G2",
          "ticks": 36096,
          "time": 30.099899999999998,
          "velocity": 0.8582677165354331
        },
        {
          "duration": 0.13888499999999837,
          "durationTicks": 192,
          "midi": 43,
          "name": "G2",
          "ticks": 38592,
          "time": 31.905405,
          "velocity": 0.8582677165354331
        },
        {
          "duration": 0.13888500000000192,
          "durationTicks": 192,
          "midi": 48,
          "name": "C3",
          "ticks": 38784,
          "time": 32.04429,
          "velocity": 0.8582677165354331
        },
        {
          "duration": 0.13888500000000192,
          "durationTicks": 192,
          "midi": 48,
          "name": "C3",
          "ticks": 38976,
          "time": 32.183175,
          "velocity": 0.8582677165354331
        },
        {
          "duration": 0.13888500000000192,
          "durationTicks": 192,
          "midi": 48,
          "name": "C3",
          "ticks": 39168,
          "time": 32.32206,
          "velocity": 0.968503937007874
        },
        {
          "duration": 0.13888499999999482,
          "durationTicks": 192,
          "midi": 48,
          "name": "C3",
          "ticks": 39360,
          "time": 32.460945,
          "velocity": 0.968503937007874
        },
        {
          "duration": 0.13888500000000192,
          "durationTicks": 192,
          "midi": 48,
          "name": "C3",
          "ticks": 39552,
          "time": 32.59983,
          "velocity": 0.968503937007874
        },
        {
          "duration": 0.13888500000000192,
          "durationTicks": 192,
          "midi": 48,
          "name": "C3",
          "ticks": 39744,
          "time": 32.738715,
          "velocity": 0.968503937007874
        },
        {
          "duration": 0.13888500000000192,
          "durationTicks": 192,
          "midi": 48,
          "name": "C3",
          "ticks": 39936,
          "time": 32.8776,
          "velocity": 0.968503937007874
        },
        {
          "duration": 0.13888499999999482,
          "durationTicks": 192,
          "midi": 48,
          "name": "C3",
          "ticks": 40128,
          "time": 33.016485,
          "velocity": 0.968503937007874
        },
        {
          "duration": 0.13888500000000192,
          "durationTicks": 192,
          "midi": 48,
          "name": "C3",
          "ticks": 40320,
          "time": 33.15537,
          "velocity": 0.968503937007874
        },
        {
          "duration": 0.13888500000000192,
          "durationTicks": 192,
          "midi": 48,
          "name": "C3",
          "ticks": 40512,
          "time": 33.294255,
          "velocity": 0.968503937007874
        },
        {
          "duration": 0.13888499999999482,
          "durationTicks": 192,
          "midi": 48,
          "name": "C3",
          "ticks": 40704,
          "time": 33.43314,
          "velocity": 0.968503937007874
        },
        {
          "duration": 0.13888500000000192,
          "durationTicks": 192,
          "midi": 48,
          "name": "C3",
          "ticks": 40896,
          "time": 33.572025,
          "velocity": 0.968503937007874
        },
        {
          "duration": 0.13888500000000192,
          "durationTicks": 192,
          "midi": 48,
          "name": "C3",
          "ticks": 41088,
          "time": 33.71091,
          "velocity": 0.968503937007874
        },
        {
          "duration": 0.13888500000000192,
          "durationTicks": 192,
          "midi": 48,
          "name": "C3",
          "ticks": 41280,
          "time": 33.849795,
          "velocity": 0.968503937007874
        },
        {
          "duration": 0.13888499999999482,
          "durationTicks": 192,
          "midi": 48,
          "name": "C3",
          "ticks": 41472,
          "time": 33.98868,
          "velocity": 0.968503937007874
        },
        {
          "duration": 0.13888500000000192,
          "durationTicks": 192,
          "midi": 48,
          "name": "C3",
          "ticks": 41664,
          "time": 34.127565,
          "velocity": 0.968503937007874
        },
        {
          "duration": 0.13888500000000192,
          "durationTicks": 192,
          "midi": 48,
          "name": "C3",
          "ticks": 41856,
          "time": 34.26645,
          "velocity": 0.968503937007874
        },
        {
          "duration": 0.13888499999999482,
          "durationTicks": 192,
          "midi": 48,
          "name": "C3",
          "ticks": 42048,
          "time": 34.405335,
          "velocity": 0.968503937007874
        },
        {
          "duration": 0.27777000000000385,
          "durationTicks": 384,
          "midi": 48,
          "name": "C3",
          "ticks": 42240,
          "time": 34.544219999999996,
          "velocity": 0.968503937007874
        },
        {
          "duration": 0.27777000000000385,
          "durationTicks": 384,
          "midi": 50,
          "name": "D3",
          "ticks": 43776,
          "time": 35.6553,
          "velocity": 0.968503937007874
        },
        {
          "duration": 0.1442300000000003,
          "durationTicks": 192,
          "midi": 46,
          "name": "A#2",
          "ticks": 49344,
          "time": 39.81659,
          "velocity": 0.7165354330708661
        },
        {
          "duration": 0.1442300000000003,
          "durationTicks": 192,
          "midi": 46,
          "name": "A#2",
          "ticks": 49536,
          "time": 39.96082,
          "velocity": 0.7165354330708661
        },
        {
          "duration": 0.1442300000000003,
          "durationTicks": 192,
          "midi": 46,
          "name": "A#2",
          "ticks": 49728,
          "time": 40.10505,
          "velocity": 0.7165354330708661
        },
        {
          "duration": 0.2884600000000006,
          "durationTicks": 384,
          "midi": 51,
          "name": "D#3",
          "ticks": 49920,
          "time": 40.24928,
          "velocity": 0.7165354330708661
        },
        {
          "duration": 0.1415050000000022,
          "durationTicks": 192,
          "midi": 46,
          "name": "A#2",
          "ticks": 52416,
          "time": 42.110645,
          "velocity": 0.7165354330708661
        },
        {
          "duration": 0.1415050000000022,
          "durationTicks": 192,
          "midi": 46,
          "name": "A#2",
          "ticks": 52608,
          "time": 42.25215,
          "velocity": 0.7165354330708661
        },
        {
          "duration": 0.1415050000000022,
          "durationTicks": 192,
          "midi": 46,
          "name": "A#2",
          "ticks": 52800,
          "time": 42.393655,
          "velocity": 0.7165354330708661
        },
        {
          "duration": 0.2830099999999973,
          "durationTicks": 384,
          "midi": 51,
          "name": "D#3",
          "ticks": 52992,
          "time": 42.535160000000005,
          "velocity": 0.7165354330708661
        },
        {
          "duration": 0.13888499999999482,
          "durationTicks": 192,
          "midi": 46,
          "name": "A#2",
          "ticks": 55488,
          "time": 44.361625000000004,
          "velocity": 0.7165354330708661
        },
        {
          "duration": 0.13888500000000192,
          "durationTicks": 192,
          "midi": 46,
          "name": "A#2",
          "ticks": 55680,
          "time": 44.50051,
          "velocity": 0.7165354330708661
        },
        {
          "duration": 0.13888500000000192,
          "durationTicks": 192,
          "midi": 46,
          "name": "A#2",
          "ticks": 55872,
          "time": 44.639395,
          "velocity": 0.7165354330708661
        },
        {
          "duration": 0.27776999999999674,
          "durationTicks": 384,
          "midi": 51,
          "name": "D#3",
          "ticks": 56064,
          "time": 44.77828,
          "velocity": 0.7165354330708661
        },
        {
          "duration": 0.13888500000000192,
          "durationTicks": 192,
          "midi": 48,
          "name": "C3",
          "ticks": 58560,
          "time": 46.583785,
          "velocity": 0.7165354330708661
        },
        {
          "duration": 0.13888500000000192,
          "durationTicks": 192,
          "midi": 48,
          "name": "C3",
          "ticks": 58752,
          "time": 46.72267,
          "velocity": 0.7165354330708661
        },
        {
          "duration": 0.13888499999999482,
          "durationTicks": 192,
          "midi": 48,
          "name": "C3",
          "ticks": 58944,
          "time": 46.861555,
          "velocity": 0.7165354330708661
        },
        {
          "duration": 0.27777000000000385,
          "durationTicks": 384,
          "midi": 53,
          "name": "F3",
          "ticks": 59136,
          "time": 47.00044,
          "velocity": 0.7165354330708661
        },
        {
          "duration": 0.13888500000000192,
          "durationTicks": 192,
          "midi": 51,
          "name": "D#3",
          "ticks": 61632,
          "time": 48.805945,
          "velocity": 0.7165354330708661
        },
        {
          "duration": 0.13888499999999482,
          "durationTicks": 192,
          "midi": 51,
          "name": "D#3",
          "ticks": 61824,
          "time": 48.94483,
          "velocity": 0.7165354330708661
        },
        {
          "duration": 0.13888500000000192,
          "durationTicks": 192,
          "midi": 51,
          "name": "D#3",
          "ticks": 62016,
          "time": 49.083715,
          "velocity": 0.7165354330708661
        },
        {
          "duration": 0.27777000000000385,
          "durationTicks": 384,
          "midi": 56,
          "name": "G#3",
          "ticks": 62208,
          "time": 49.2226,
          "velocity": 0.7165354330708661
        },
        {
          "duration": 0.27777000000000385,
          "durationTicks": 384,
          "midi": 63,
          "name": "D#4",
          "ticks": 62976,
          "time": 49.77814,
          "velocity": 0.7165354330708661
        },
        {
          "duration": 0.27776999999999674,
          "durationTicks": 384,
          "midi": 65,
          "name": "F4",
          "ticks": 63360,
          "time": 50.055910000000004,
          "velocity": 0.7165354330708661
        },
        {
          "duration": 0.27777000000000385,
          "durationTicks": 384,
          "midi": 66,
          "name": "F#4",
          "ticks": 63744,
          "time": 50.33368,
          "velocity": 0.7165354330708661
        },
        {
          "duration": 0.27776999999999674,
          "durationTicks": 384,
          "midi": 65,
          "name": "F4",
          "ticks": 64128,
          "time": 50.611450000000005,
          "velocity": 0.7165354330708661
        },
        {
          "duration": 0.27776999999999674,
          "durationTicks": 384,
          "midi": 63,
          "name": "D#4",
          "ticks": 64512,
          "time": 50.88922,
          "velocity": 0.7165354330708661
        },
        {
          "duration": 0.27777000000000385,
          "durationTicks": 384,
          "midi": 65,
          "name": "F4",
          "ticks": 64896,
          "time": 51.16699,
          "velocity": 0.7165354330708661
        },
        {
          "duration": 0.27776999999999674,
          "durationTicks": 384,
          "midi": 66,
          "name": "F#4",
          "ticks": 65280,
          "time": 51.44476,
          "velocity": 0.7165354330708661
        },
        {
          "duration": 0.27777000000000385,
          "durationTicks": 384,
          "midi": 65,
          "name": "F4",
          "ticks": 65664,
          "time": 51.72253,
          "velocity": 0.7165354330708661
        },
        {
          "duration": 0.27776999999999674,
          "durationTicks": 384,
          "midi": 63,
          "name": "D#4",
          "ticks": 66048,
          "time": 52.0003,
          "velocity": 0.7165354330708661
        },
        {
          "duration": 0.27777000000000385,
          "durationTicks": 384,
          "midi": 65,
          "name": "F4",
          "ticks": 66432,
          "time": 52.27807,
          "velocity": 0.7165354330708661
        },
        {
          "duration": 0.27776999999999674,
          "durationTicks": 384,
          "midi": 66,
          "name": "F#4",
          "ticks": 66816,
          "time": 52.55584,
          "velocity": 0.7952755905511811
        },
        {
          "duration": 0.27777000000000385,
          "durationTicks": 384,
          "midi": 65,
          "name": "F4",
          "ticks": 67200,
          "time": 52.83361,
          "velocity": 0.7952755905511811
        },
        {
          "duration": 0.27776999999999674,
          "durationTicks": 384,
          "midi": 63,
          "name": "D#4",
          "ticks": 67584,
          "time": 53.111380000000004,
          "velocity": 0.7952755905511811
        },
        {
          "duration": 0.27777000000000385,
          "durationTicks": 384,
          "midi": 65,
          "name": "F4",
          "ticks": 67968,
          "time": 53.38915,
          "velocity": 0.7952755905511811
        },
        {
          "duration": 0.27776999999999674,
          "durationTicks": 384,
          "midi": 66,
          "name": "F#4",
          "ticks": 68352,
          "time": 53.666920000000005,
          "velocity": 0.8582677165354331
        },
        {
          "duration": 0.27776999999999674,
          "durationTicks": 384,
          "midi": 65,
          "name": "F4",
          "ticks": 68736,
          "time": 53.94469,
          "velocity": 0.8582677165354331
        },
        {
          "duration": 0.27777000000000385,
          "durationTicks": 384,
          "midi": 63,
          "name": "D#4",
          "ticks": 69120,
          "time": 54.22246,
          "velocity": 0.8582677165354331
        },
        {
          "duration": 0.27777000000000385,
          "durationTicks": 384,
          "midi": 65,
          "name": "F4",
          "ticks": 69504,
          "time": 54.50023,
          "velocity": 0.8582677165354331
        },
        {
          "duration": 0.27776999999999674,
          "durationTicks": 384,
          "midi": 66,
          "name": "F#4",
          "ticks": 69888,
          "time": 54.778000000000006,
          "velocity": 0.905511811023622
        },
        {
          "duration": 0.27776999999999674,
          "durationTicks": 384,
          "midi": 65,
          "name": "F4",
          "ticks": 70272,
          "time": 55.05577,
          "velocity": 0.905511811023622
        },
        {
          "duration": 0.27777000000000385,
          "durationTicks": 384,
          "midi": 66,
          "name": "F#4",
          "ticks": 70656,
          "time": 55.33354,
          "velocity": 0.905511811023622
        },
        {
          "duration": 0.27776999999999674,
          "durationTicks": 384,
          "midi": 60,
          "name": "C4",
          "ticks": 71040,
          "time": 55.61131,
          "velocity": 0.905511811023622
        },
        {
          "duration": 0.8333100000000044,
          "durationTicks": 1152,
          "midi": 62,
          "name": "D4",
          "ticks": 71424,
          "time": 55.88908,
          "velocity": 0.968503937007874
        },
        {
          "duration": 0.27776999999999674,
          "durationTicks": 384,
          "midi": 50,
          "name": "D3",
          "ticks": 72576,
          "time": 56.722390000000004,
          "velocity": 0.968503937007874
        },
        {
          "duration": 0.27776999999999674,
          "durationTicks": 384,
          "midi": 51,
          "name": "D#3",
          "ticks": 72960,
          "time": 57.00016,
          "velocity": 0.968503937007874
        },
        {
          "duration": 0.27777000000000385,
          "durationTicks": 384,
          "midi": 53,
          "name": "F3",
          "ticks": 73728,
          "time": 57.5557,
          "velocity": 0.968503937007874
        },
        {
          "duration": 0.27776999999999674,
          "durationTicks": 384,
          "midi": 55,
          "name": "G3",
          "ticks": 74496,
          "time": 58.11124,
          "velocity": 0.968503937007874
        },
        {
          "duration": 0.27776999999999674,
          "durationTicks": 384,
          "midi": 56,
          "name": "G#3",
          "ticks": 75264,
          "time": 58.66678,
          "velocity": 0.968503937007874
        },
        {
          "duration": 0.27776999999999674,
          "durationTicks": 384,
          "midi": 58,
          "name": "A#3",
          "ticks": 76032,
          "time": 59.22232,
          "velocity": 0.968503937007874
        },
        {
          "duration": 0.27776999999999674,
          "durationTicks": 384,
          "midi": 46,
          "name": "A#2",
          "ticks": 76800,
          "time": 59.777860000000004,
          "velocity": 0.968503937007874
        },
        {
          "duration": 0.27777000000000385,
          "durationTicks": 384,
          "midi": 50,
          "name": "D3",
          "ticks": 77568,
          "time": 60.3334,
          "velocity": 0.968503937007874
        },
        {
          "duration": 0.27777000000000385,
          "durationTicks": 384,
          "midi": 53,
          "name": "F3",
          "ticks": 77952,
          "time": 60.61117,
          "velocity": 0.968503937007874
        },
        {
          "duration": 0.27776999999999674,
          "durationTicks": 384,
          "midi": 50,
          "name": "D3",
          "ticks": 78336,
          "time": 60.888940000000005,
          "velocity": 0.968503937007874
        },
        {
          "duration": 0.27776999999999674,
          "durationTicks": 384,
          "midi": 53,
          "name": "F3",
          "ticks": 78720,
          "time": 61.16671,
          "velocity": 0.968503937007874
        },
        {
          "duration": 0.27777000000000385,
          "durationTicks": 384,
          "midi": 51,
          "name": "D#3",
          "ticks": 79104,
          "time": 61.44448,
          "velocity": 0.968503937007874
        },
        {
          "duration": 0.27777000000000385,
          "durationTicks": 384,
          "midi": 55,
          "name": "G3",
          "ticks": 79488,
          "time": 61.72225,
          "velocity": 0.968503937007874
        },
        {
          "duration": 0.27776999999999674,
          "durationTicks": 384,
          "midi": 53,
          "name": "F3",
          "ticks": 79872,
          "time": 62.000020000000006,
          "velocity": 0.968503937007874
        },
        {
          "duration": 0.27776999999999674,
          "durationTicks": 384,
          "midi": 56,
          "name": "G#3",
          "ticks": 80256,
          "time": 62.27779,
          "velocity": 0.968503937007874
        },
        {
          "duration": 0.27777000000000385,
          "durationTicks": 384,
          "midi": 55,
          "name": "G3",
          "ticks": 80640,
          "time": 62.55556,
          "velocity": 0.968503937007874
        },
        {
          "duration": 0.27777000000000385,
          "durationTicks": 384,
          "midi": 58,
          "name": "A#3",
          "ticks": 81024,
          "time": 62.833330000000004,
          "velocity": 0.968503937007874
        },
        {
          "duration": 0.27776999999998964,
          "durationTicks": 384,
          "midi": 56,
          "name": "G#3",
          "ticks": 81408,
          "time": 63.11110000000001,
          "velocity": 0.968503937007874
        },
        {
          "duration": 0.27777000000000385,
          "durationTicks": 384,
          "midi": 60,
          "name": "C4",
          "ticks": 81792,
          "time": 63.38887,
          "velocity": 0.968503937007874
        },
        {
          "duration": 0.27777000000000385,
          "durationTicks": 384,
          "midi": 58,
          "name": "A#3",
          "ticks": 82176,
          "time": 63.66664,
          "velocity": 0.968503937007874
        },
        {
          "duration": 0.27777000000000385,
          "durationTicks": 384,
          "midi": 46,
          "name": "A#2",
          "ticks": 82560,
          "time": 63.944410000000005,
          "velocity": 0.968503937007874
        },
        {
          "duration": 0.27776999999998964,
          "durationTicks": 384,
          "midi": 58,
          "name": "A#3",
          "ticks": 82944,
          "time": 64.22218000000001,
          "velocity": 0.968503937007874
        },
        {
          "duration": 0.27777000000000385,
          "durationTicks": 384,
          "midi": 46,
          "name": "A#2",
          "ticks": 83328,
          "time": 64.49995,
          "velocity": 0.968503937007874
        },
        {
          "duration": 1.8055049999999966,
          "durationTicks": 2496,
          "midi": 51,
          "name": "D#3",
          "ticks": 83712,
          "time": 64.77772,
          "velocity": 0.968503937007874
        },
        {
          "duration": 0.13888500000000192,
          "durationTicks": 192,
          "midi": 46,
          "name": "A#2",
          "ticks": 86208,
          "time": 66.583225,
          "velocity": 0.968503937007874
        },
        {
          "duration": 0.13888500000000192,
          "durationTicks": 192,
          "midi": 46,
          "name": "A#2",
          "ticks": 86400,
          "time": 66.72211,
          "velocity": 0.968503937007874
        },
        {
          "duration": 0.13888500000000192,
          "durationTicks": 192,
          "midi": 46,
          "name": "A#2",
          "ticks": 86592,
          "time": 66.860995,
          "velocity": 0.968503937007874
        },
        {
          "duration": 1.8055049999999966,
          "durationTicks": 2496,
          "midi": 51,
          "name": "D#3",
          "ticks": 86784,
          "time": 66.99988,
          "velocity": 0.968503937007874
        },
        {
          "duration": 0.13888500000000192,
          "durationTicks": 192,
          "midi": 46,
          "name": "A#2",
          "ticks": 89280,
          "time": 68.805385,
          "velocity": 0.968503937007874
        },
        {
          "duration": 0.13888500000000192,
          "durationTicks": 192,
          "midi": 46,
          "name": "A#2",
          "ticks": 89472,
          "time": 68.94427,
          "velocity": 0.968503937007874
        },
        {
          "duration": 0.13888500000000192,
          "durationTicks": 192,
          "midi": 46,
          "name": "A#2",
          "ticks": 89664,
          "time": 69.083155,
          "velocity": 0.968503937007874
        },
        {
          "duration": 0.27776999999998964,
          "durationTicks": 384,
          "midi": 51,
          "name": "D#3",
          "ticks": 89856,
          "time": 69.22204,
          "velocity": 0.968503937007874
        },
        {
          "duration": 0.13888500000000192,
          "durationTicks": 192,
          "midi": 46,
          "name": "A#2",
          "ticks": 90816,
          "time": 69.916465,
          "velocity": 0.968503937007874
        },
        {
          "duration": 0.13888500000000192,
          "durationTicks": 192,
          "midi": 46,
          "name": "A#2",
          "ticks": 91008,
          "time": 70.05535,
          "velocity": 0.968503937007874
        },
        {
          "duration": 0.13888500000000192,
          "durationTicks": 192,
          "midi": 46,
          "name": "A#2",
          "ticks": 91200,
          "time": 70.194235,
          "velocity": 0.968503937007874
        },
        {
          "duration": 0.27776999999998964,
          "durationTicks": 384,
          "midi": 51,
          "name": "D#3",
          "ticks": 91392,
          "time": 70.33312000000001,
          "velocity": 0.968503937007874
        },
        {
          "duration": 0.13888500000000192,
          "durationTicks": 192,
          "midi": 46,
          "name": "A#2",
          "ticks": 92352,
          "time": 71.027545,
          "velocity": 0.968503937007874
        },
        {
          "duration": 0.13888500000000192,
          "durationTicks": 192,
          "midi": 46,
          "name": "A#2",
          "ticks": 92544,
          "time": 71.16643,
          "velocity": 0.968503937007874
        },
        {
          "duration": 0.1388849999999877,
          "durationTicks": 192,
          "midi": 46,
          "name": "A#2",
          "ticks": 92736,
          "time": 71.30531500000001,
          "velocity": 0.968503937007874
        },
        {
          "duration": 0.27777000000000385,
          "durationTicks": 384,
          "midi": 51,
          "name": "D#3",
          "ticks": 92928,
          "time": 71.4442,
          "velocity": 0.968503937007874
        },
        {
          "duration": 0.14999999999999147,
          "durationTicks": 192,
          "midi": 43,
          "name": "G2",
          "ticks": 95424,
          "time": 73.26082000000001,
          "velocity": 0.968503937007874
        },
        {
          "duration": 0.15000000000000568,
          "durationTicks": 192,
          "midi": 43,
          "name": "G2",
          "ticks": 95616,
          "time": 73.41082,
          "velocity": 0.968503937007874
        },
        {
          "duration": 0.14999999999999147,
          "durationTicks": 192,
          "midi": 43,
          "name": "G2",
          "ticks": 95808,
          "time": 73.56082,
          "velocity": 0.968503937007874
        },
        {
          "duration": 1.2000000000000028,
          "durationTicks": 768,
          "midi": 39,
          "name": "D#2",
          "ticks": 96000,
          "time": 73.71082,
          "velocity": 0.968503937007874
        },
        {
          "duration": 0.14999999999999147,
          "durationTicks": 192,
          "midi": 41,
          "name": "F2",
          "ticks": 96960,
          "time": 75.06082,
          "velocity": 0.968503937007874
        },
        {
          "duration": 0.15000000000000568,
          "durationTicks": 192,
          "midi": 41,
          "name": "F2",
          "ticks": 97152,
          "time": 75.21082,
          "velocity": 0.968503937007874
        },
        {
          "duration": 0.14999999999999147,
          "durationTicks": 192,
          "midi": 41,
          "name": "F2",
          "ticks": 97344,
          "time": 75.36082,
          "velocity": 0.968503937007874
        },
        {
          "duration": 1.6000000000000085,
          "durationTicks": 1536,
          "midi": 38,
          "name": "D2",
          "ticks": 97536,
          "time": 75.51082,
          "velocity": 0.968503937007874
        },
        {
          "duration": 2.264080000000007,
          "durationTicks": 3072,
          "midi": 60,
          "name": "C4",
          "ticks": 99840,
          "time": 77.67684,
          "velocity": 0.7165354330708661
        },
        {
          "duration": 2.2640799999999928,
          "durationTicks": 3072,
          "midi": 59,
          "name": "B3",
          "ticks": 102912,
          "time": 79.94092,
          "velocity": 0.7165354330708661
        },
        {
          "duration": 0.5660200000000088,
          "durationTicks": 768,
          "midi": 60,
          "name": "C4",
          "ticks": 105984,
          "time": 82.205,
          "velocity": 0.7165354330708661
        },
        {
          "duration": 0.5660199999999946,
          "durationTicks": 768,
          "midi": 59,
          "name": "B3",
          "ticks": 106752,
          "time": 82.77102000000001,
          "velocity": 0.7165354330708661
        },
        {
          "duration": 0.5660200000000088,
          "durationTicks": 768,
          "midi": 60,
          "name": "C4",
          "ticks": 107520,
          "time": 83.33704,
          "velocity": 0.7165354330708661
        },
        {
          "duration": 0.1415049999999951,
          "durationTicks": 192,
          "midi": 59,
          "name": "B3",
          "ticks": 108288,
          "time": 83.90306000000001,
          "velocity": 0.7165354330708661
        },
        {
          "duration": 0.1415049999999951,
          "durationTicks": 192,
          "midi": 59,
          "name": "B3",
          "ticks": 108480,
          "time": 84.044565,
          "velocity": 0.7165354330708661
        },
        {
          "duration": 0.1415049999999951,
          "durationTicks": 192,
          "midi": 59,
          "name": "B3",
          "ticks": 108672,
          "time": 84.18607,
          "velocity": 0.7952755905511811
        },
        {
          "duration": 0.14150500000000932,
          "durationTicks": 192,
          "midi": 59,
          "name": "B3",
          "ticks": 108864,
          "time": 84.327575,
          "velocity": 0.8582677165354331
        },
        {
          "duration": 0.2830100000000044,
          "durationTicks": 384,
          "midi": 60,
          "name": "C4",
          "ticks": 109056,
          "time": 84.46908,
          "velocity": 0.905511811023622
        },
        {
          "duration": 0.2830100000000044,
          "durationTicks": 384,
          "midi": 44,
          "name": "G#2",
          "ticks": 109824,
          "time": 85.0351,
          "velocity": 0.905511811023622
        },
        {
          "duration": 0.2830099999999902,
          "durationTicks": 384,
          "midi": 43,
          "name": "G2",
          "ticks": 110592,
          "time": 85.60112000000001,
          "velocity": 0.905511811023622
        },
        {
          "duration": 0.1428549999999973,
          "durationTicks": 192,
          "midi": 44,
          "name": "G#2",
          "ticks": 111552,
          "time": 87.226985,
          "velocity": 0.968503937007874
        },
        {
          "duration": 0.1428550000000115,
          "durationTicks": 192,
          "midi": 44,
          "name": "G#2",
          "ticks": 111744,
          "time": 87.36984,
          "velocity": 0.968503937007874
        },
        {
          "duration": 0.1428549999999973,
          "durationTicks": 192,
          "midi": 44,
          "name": "G#2",
          "ticks": 111936,
          "time": 87.51269500000001,
          "velocity": 0.968503937007874
        },
        {
          "duration": 1.9047400000000039,
          "durationTicks": 1536,
          "midi": 41,
          "name": "F2",
          "ticks": 112128,
          "time": 87.65555,
          "velocity": 0.968503937007874
        },
        {
          "duration": 0.1428550000000115,
          "durationTicks": 192,
          "midi": 43,
          "name": "G2",
          "ticks": 116160,
          "time": 91.417405,
          "velocity": 0.7165354330708661
        },
        {
          "duration": 0.1428549999999973,
          "durationTicks": 192,
          "midi": 43,
          "name": "G2",
          "ticks": 116352,
          "time": 91.56026000000001,
          "velocity": 0.7165354330708661
        },
        {
          "duration": 0.1428549999999973,
          "durationTicks": 192,
          "midi": 43,
          "name": "G2",
          "ticks": 116544,
          "time": 91.70311500000001,
          "velocity": 0.7165354330708661
        },
        {
          "duration": 0.2857099999999946,
          "durationTicks": 384,
          "midi": 48,
          "name": "C3",
          "ticks": 116736,
          "time": 91.84597000000001,
          "velocity": 0.7165354330708661
        },
        {
          "duration": 0.1428549999999973,
          "durationTicks": 192,
          "midi": 43,
          "name": "G2",
          "ticks": 119232,
          "time": 93.70308500000002,
          "velocity": 0.7165354330708661
        },
        {
          "duration": 0.1428549999999973,
          "durationTicks": 192,
          "midi": 43,
          "name": "G2",
          "ticks": 119424,
          "time": 93.84594000000001,
          "velocity": 0.7165354330708661
        },
        {
          "duration": 0.1428549999999973,
          "durationTicks": 192,
          "midi": 43,
          "name": "G2",
          "ticks": 119616,
          "time": 93.98879500000001,
          "velocity": 0.7165354330708661
        },
        {
          "duration": 0.2857099999999946,
          "durationTicks": 384,
          "midi": 48,
          "name": "C3",
          "ticks": 119808,
          "time": 94.13165000000001,
          "velocity": 0.7165354330708661
        },
        {
          "duration": 0.1428549999999973,
          "durationTicks": 192,
          "midi": 48,
          "name": "C3",
          "ticks": 120768,
          "time": 94.84592500000001,
          "velocity": 0.7165354330708661
        },
        {
          "duration": 0.1428549999999973,
          "durationTicks": 192,
          "midi": 48,
          "name": "C3",
          "ticks": 120960,
          "time": 94.98878,
          "velocity": 0.7165354330708661
        },
        {
          "duration": 0.1428550000000115,
          "durationTicks": 192,
          "midi": 48,
          "name": "C3",
          "ticks": 121152,
          "time": 95.131635,
          "velocity": 0.7165354330708661
        },
        {
          "duration": 0.2857099999999946,
          "durationTicks": 384,
          "midi": 48,
          "name": "C3",
          "ticks": 121344,
          "time": 95.27449000000001,
          "velocity": 0.7952755905511811
        },
        {
          "duration": 0.14150500000000932,
          "durationTicks": 192,
          "midi": 48,
          "name": "C3",
          "ticks": 122304,
          "time": 95.987415,
          "velocity": 0.905511811023622
        },
        {
          "duration": 0.1415049999999951,
          "durationTicks": 192,
          "midi": 48,
          "name": "C3",
          "ticks": 122496,
          "time": 96.12892000000001,
          "velocity": 0.905511811023622
        },
        {
          "duration": 0.1415049999999951,
          "durationTicks": 192,
          "midi": 48,
          "name": "C3",
          "ticks": 122688,
          "time": 96.270425,
          "velocity": 0.905511811023622
        },
        {
          "duration": 0.2830100000000044,
          "durationTicks": 384,
          "midi": 48,
          "name": "C3",
          "ticks": 122880,
          "time": 96.41193,
          "velocity": 0.968503937007874
        },
        {
          "duration": 0.2830099999999902,
          "durationTicks": 384,
          "midi": 48,
          "name": "C3",
          "ticks": 123648,
          "time": 96.97795,
          "velocity": 0.968503937007874
        },
        {
          "duration": 0.2830100000000044,
          "durationTicks": 384,
          "midi": 48,
          "name": "C3",
          "ticks": 124416,
          "time": 97.54397,
          "velocity": 0.968503937007874
        },
        {
          "duration": 0.2803700000000049,
          "durationTicks": 384,
          "midi": 48,
          "name": "C3",
          "ticks": 125184,
          "time": 98.10999000000001,
          "velocity": 0.968503937007874
        },
        {
          "duration": 0.2803700000000049,
          "durationTicks": 384,
          "midi": 48,
          "name": "C3",
          "ticks": 125952,
          "time": 98.67073,
          "velocity": 0.968503937007874
        },
        {
          "duration": 0.2803699999999907,
          "durationTicks": 384,
          "midi": 48,
          "name": "C3",
          "ticks": 126720,
          "time": 99.23147000000002,
          "velocity": 0.968503937007874
        },
        {
          "duration": 0.2803700000000049,
          "durationTicks": 384,
          "midi": 48,
          "name": "C3",
          "ticks": 127488,
          "time": 99.79221000000001,
          "velocity": 0.968503937007874
        },
        {
          "duration": 1.8055049999999966,
          "durationTicks": 2496,
          "midi": 48,
          "name": "C3",
          "ticks": 128256,
          "time": 100.35295,
          "velocity": 0.905511811023622
        },
        {
          "duration": 0.13888500000000192,
          "durationTicks": 192,
          "midi": 48,
          "name": "C3",
          "ticks": 130752,
          "time": 102.158455,
          "velocity": 0.8582677165354331
        },
        {
          "duration": 0.13888500000000192,
          "durationTicks": 192,
          "midi": 48,
          "name": "C3",
          "ticks": 130944,
          "time": 102.29734,
          "velocity": 0.8582677165354331
        },
        {
          "duration": 0.13888500000000192,
          "durationTicks": 192,
          "midi": 48,
          "name": "C3",
          "ticks": 131136,
          "time": 102.43622500000001,
          "velocity": 0.8582677165354331
        },
        {
          "duration": 1.8055049999999966,
          "durationTicks": 2496,
          "midi": 43,
          "name": "G2",
          "ticks": 131328,
          "time": 102.57511000000001,
          "velocity": 0.8582677165354331
        },
        {
          "duration": 0.13888500000000192,
          "durationTicks": 192,
          "midi": 43,
          "name": "G2",
          "ticks": 133824,
          "time": 104.380615,
          "velocity": 0.8582677165354331
        },
        {
          "duration": 0.13888500000000192,
          "durationTicks": 192,
          "midi": 48,
          "name": "C3",
          "ticks": 134016,
          "time": 104.51950000000001,
          "velocity": 0.8582677165354331
        },
        {
          "duration": 0.13888500000000192,
          "durationTicks": 192,
          "midi": 48,
          "name": "C3",
          "ticks": 134208,
          "time": 104.65838500000001,
          "velocity": 0.8582677165354331
        },
        {
          "duration": 0.13888500000000192,
          "durationTicks": 192,
          "midi": 48,
          "name": "C3",
          "ticks": 134400,
          "time": 104.79727000000001,
          "velocity": 0.968503937007874
        },
        {
          "duration": 0.1388849999999877,
          "durationTicks": 192,
          "midi": 48,
          "name": "C3",
          "ticks": 134592,
          "time": 104.93615500000001,
          "velocity": 0.968503937007874
        },
        {
          "duration": 0.13888500000000192,
          "durationTicks": 192,
          "midi": 48,
          "name": "C3",
          "ticks": 134784,
          "time": 105.07504,
          "velocity": 0.968503937007874
        },
        {
          "duration": 0.13888500000000192,
          "durationTicks": 192,
          "midi": 48,
          "name": "C3",
          "ticks": 134976,
          "time": 105.213925,
          "velocity": 0.968503937007874
        },
        {
          "duration": 0.13888500000000192,
          "durationTicks": 192,
          "midi": 48,
          "name": "C3",
          "ticks": 135168,
          "time": 105.35281,
          "velocity": 0.968503937007874
        },
        {
          "duration": 0.13888500000000192,
          "durationTicks": 192,
          "midi": 48,
          "name": "C3",
          "ticks": 135360,
          "time": 105.491695,
          "velocity": 0.968503937007874
        },
        {
          "duration": 0.13888500000000192,
          "durationTicks": 192,
          "midi": 48,
          "name": "C3",
          "ticks": 135552,
          "time": 105.63058000000001,
          "velocity": 0.968503937007874
        },
        {
          "duration": 0.13888500000000192,
          "durationTicks": 192,
          "midi": 48,
          "name": "C3",
          "ticks": 135744,
          "time": 105.76946500000001,
          "velocity": 0.968503937007874
        },
        {
          "duration": 0.1388849999999877,
          "durationTicks": 192,
          "midi": 48,
          "name": "C3",
          "ticks": 135936,
          "time": 105.90835000000001,
          "velocity": 0.968503937007874
        },
        {
          "duration": 0.13888500000000192,
          "durationTicks": 192,
          "midi": 48,
          "name": "C3",
          "ticks": 136128,
          "time": 106.047235,
          "velocity": 0.968503937007874
        },
        {
          "duration": 0.13888500000000192,
          "durationTicks": 192,
          "midi": 48,
          "name": "C3",
          "ticks": 136320,
          "time": 106.18612,
          "velocity": 0.968503937007874
        },
        {
          "duration": 0.13888500000000192,
          "durationTicks": 192,
          "midi": 48,
          "name": "C3",
          "ticks": 136512,
          "time": 106.325005,
          "velocity": 0.968503937007874
        },
        {
          "duration": 0.13888500000000192,
          "durationTicks": 192,
          "midi": 48,
          "name": "C3",
          "ticks": 136704,
          "time": 106.46389,
          "velocity": 0.968503937007874
        },
        {
          "duration": 0.13888500000000192,
          "durationTicks": 192,
          "midi": 48,
          "name": "C3",
          "ticks": 136896,
          "time": 106.60277500000001,
          "velocity": 0.968503937007874
        },
        {
          "duration": 0.13888500000000192,
          "durationTicks": 192,
          "midi": 48,
          "name": "C3",
          "ticks": 137088,
          "time": 106.74166000000001,
          "velocity": 0.968503937007874
        },
        {
          "duration": 0.1388849999999877,
          "durationTicks": 192,
          "midi": 48,
          "name": "C3",
          "ticks": 137280,
          "time": 106.88054500000001,
          "velocity": 0.968503937007874
        },
        {
          "duration": 0.27777000000000385,
          "durationTicks": 384,
          "midi": 48,
          "name": "C3",
          "ticks": 137472,
          "time": 107.01943,
          "velocity": 0.968503937007874
        },
        {
          "duration": 0.27777000000000385,
          "durationTicks": 384,
          "midi": 50,
          "name": "D3",
          "ticks": 139008,
          "time": 108.13051,
          "velocity": 0.968503937007874
        },
        {
          "duration": 0.1442299999999932,
          "durationTicks": 192,
          "midi": 46,
          "name": "A#2",
          "ticks": 144576,
          "time": 112.29180000000001,
          "velocity": 0.7165354330708661
        },
        {
          "duration": 0.1442300000000074,
          "durationTicks": 192,
          "midi": 46,
          "name": "A#2",
          "ticks": 144768,
          "time": 112.43603,
          "velocity": 0.7165354330708661
        },
        {
          "duration": 0.1442299999999932,
          "durationTicks": 192,
          "midi": 46,
          "name": "A#2",
          "ticks": 144960,
          "time": 112.58026000000001,
          "velocity": 0.7165354330708661
        },
        {
          "duration": 0.2884600000000006,
          "durationTicks": 384,
          "midi": 51,
          "name": "D#3",
          "ticks": 145152,
          "time": 112.72449,
          "velocity": 0.7165354330708661
        },
        {
          "duration": 0.1415049999999951,
          "durationTicks": 192,
          "midi": 46,
          "name": "A#2",
          "ticks": 147648,
          "time": 114.58585500000001,
          "velocity": 0.7165354330708661
        },
        {
          "duration": 0.1415049999999951,
          "durationTicks": 192,
          "midi": 46,
          "name": "A#2",
          "ticks": 147840,
          "time": 114.72736,
          "velocity": 0.7165354330708661
        },
        {
          "duration": 0.14150500000000932,
          "durationTicks": 192,
          "midi": 46,
          "name": "A#2",
          "ticks": 148032,
          "time": 114.868865,
          "velocity": 0.7165354330708661
        },
        {
          "duration": 0.2830099999999902,
          "durationTicks": 384,
          "midi": 51,
          "name": "D#3",
          "ticks": 148224,
          "time": 115.01037000000001,
          "velocity": 0.7165354330708661
        },
        {
          "duration": 0.13888500000000192,
          "durationTicks": 192,
          "midi": 46,
          "name": "A#2",
          "ticks": 150720,
          "time": 116.83683500000001,
          "velocity": 0.7165354330708661
        },
        {
          "duration": 0.13888500000000192,
          "durationTicks": 192,
          "midi": 46,
          "name": "A#2",
          "ticks": 150912,
          "time": 116.97572000000001,
          "velocity": 0.7165354330708661
        },
        {
          "duration": 0.13888500000000192,
          "durationTicks": 192,
          "midi": 46,
          "name": "A#2",
          "ticks": 151104,
          "time": 117.11460500000001,
          "velocity": 0.7165354330708661
        },
        {
          "duration": 0.27777000000000385,
          "durationTicks": 384,
          "midi": 51,
          "name": "D#3",
          "ticks": 151296,
          "time": 117.25349000000001,
          "velocity": 0.7165354330708661
        },
        {
          "duration": 0.13888500000000192,
          "durationTicks": 192,
          "midi": 48,
          "name": "C3",
          "ticks": 153792,
          "time": 119.05899500000001,
          "velocity": 0.7165354330708661
        },
        {
          "duration": 0.13888500000000192,
          "durationTicks": 192,
          "midi": 48,
          "name": "C3",
          "ticks": 153984,
          "time": 119.19788000000001,
          "velocity": 0.7165354330708661
        },
        {
          "duration": 0.13888500000000192,
          "durationTicks": 192,
          "midi": 48,
          "name": "C3",
          "ticks": 154176,
          "time": 119.33676500000001,
          "velocity": 0.7165354330708661
        },
        {
          "duration": 0.27776999999998964,
          "durationTicks": 384,
          "midi": 53,
          "name": "F3",
          "ticks": 154368,
          "time": 119.47565000000002,
          "velocity": 0.7165354330708661
        },
        {
          "duration": 0.13888500000000192,
          "durationTicks": 192,
          "midi": 51,
          "name": "D#3",
          "ticks": 156864,
          "time": 121.28115500000001,
          "velocity": 0.7165354330708661
        },
        {
          "duration": 0.13888500000000192,
          "durationTicks": 192,
          "midi": 51,
          "name": "D#3",
          "ticks": 157056,
          "time": 121.42004000000001,
          "velocity": 0.7165354330708661
        },
        {
          "duration": 0.13888500000000192,
          "durationTicks": 192,
          "midi": 51,
          "name": "D#3",
          "ticks": 157248,
          "time": 121.55892500000002,
          "velocity": 0.7165354330708661
        },
        {
          "duration": 0.27776999999998964,
          "durationTicks": 384,
          "midi": 56,
          "name": "G#3",
          "ticks": 157440,
          "time": 121.69781000000002,
          "velocity": 0.7165354330708661
        },
        {
          "duration": 0.27777000000000385,
          "durationTicks": 384,
          "midi": 63,
          "name": "D#4",
          "ticks": 158208,
          "time": 122.25335000000001,
          "velocity": 0.7165354330708661
        },
        {
          "duration": 0.27777000000000385,
          "durationTicks": 384,
          "midi": 65,
          "name": "F4",
          "ticks": 158592,
          "time": 122.53112000000002,
          "velocity": 0.7165354330708661
        },
        {
          "duration": 0.27776999999998964,
          "durationTicks": 384,
          "midi": 66,
          "name": "F#4",
          "ticks": 158976,
          "time": 122.80889000000002,
          "velocity": 0.7165354330708661
        },
        {
          "duration": 0.27777000000000385,
          "durationTicks": 384,
          "midi": 65,
          "name": "F4",
          "ticks": 159360,
          "time": 123.08666000000001,
          "velocity": 0.7165354330708661
        },
        {
          "duration": 0.27777000000000385,
          "durationTicks": 384,
          "midi": 63,
          "name": "D#4",
          "ticks": 159744,
          "time": 123.36443000000001,
          "velocity": 0.7165354330708661
        },
        {
          "duration": 0.27776999999998964,
          "durationTicks": 384,
          "midi": 65,
          "name": "F4",
          "ticks": 160128,
          "time": 123.64220000000002,
          "velocity": 0.7165354330708661
        },
        {
          "duration": 0.27777000000000385,
          "durationTicks": 384,
          "midi": 66,
          "name": "F#4",
          "ticks": 160512,
          "time": 123.91997,
          "velocity": 0.7165354330708661
        },
        {
          "duration": 0.27777000000000385,
          "durationTicks": 384,
          "midi": 65,
          "name": "F4",
          "ticks": 160896,
          "time": 124.19774000000001,
          "velocity": 0.7165354330708661
        },
        {
          "duration": 0.27777000000000385,
          "durationTicks": 384,
          "midi": 63,
          "name": "D#4",
          "ticks": 161280,
          "time": 124.47551000000001,
          "velocity": 0.7165354330708661
        },
        {
          "duration": 0.27776999999998964,
          "durationTicks": 384,
          "midi": 65,
          "name": "F4",
          "ticks": 161664,
          "time": 124.75328000000002,
          "velocity": 0.7165354330708661
        },
        {
          "duration": 0.27777000000000385,
          "durationTicks": 384,
          "midi": 66,
          "name": "F#4",
          "ticks": 162048,
          "time": 125.03105000000001,
          "velocity": 0.7952755905511811
        },
        {
          "duration": 0.27777000000000385,
          "durationTicks": 384,
          "midi": 65,
          "name": "F4",
          "ticks": 162432,
          "time": 125.30882000000001,
          "velocity": 0.7952755905511811
        },
        {
          "duration": 0.27777000000000385,
          "durationTicks": 384,
          "midi": 63,
          "name": "D#4",
          "ticks": 162816,
          "time": 125.58659000000002,
          "velocity": 0.7952755905511811
        },
        {
          "duration": 0.27776999999998964,
          "durationTicks": 384,
          "midi": 65,
          "name": "F4",
          "ticks": 163200,
          "time": 125.86436000000002,
          "velocity": 0.7952755905511811
        },
        {
          "duration": 0.27777000000000385,
          "durationTicks": 384,
          "midi": 66,
          "name": "F#4",
          "ticks": 163584,
          "time": 126.14213000000001,
          "velocity": 0.8582677165354331
        },
        {
          "duration": 0.27777000000000385,
          "durationTicks": 384,
          "midi": 65,
          "name": "F4",
          "ticks": 163968,
          "time": 126.41990000000001,
          "velocity": 0.8582677165354331
        },
        {
          "duration": 0.27777000000000385,
          "durationTicks": 384,
          "midi": 63,
          "name": "D#4",
          "ticks": 164352,
          "time": 126.69767000000002,
          "velocity": 0.8582677165354331
        },
        {
          "duration": 0.27776999999998964,
          "durationTicks": 384,
          "midi": 65,
          "name": "F4",
          "ticks": 164736,
          "time": 126.97544000000002,
          "velocity": 0.8582677165354331
        },
        {
          "duration": 0.27777000000000385,
          "durationTicks": 384,
          "midi": 66,
          "name": "F#4",
          "ticks": 165120,
          "time": 127.25321000000001,
          "velocity": 0.905511811023622
        },
        {
          "duration": 0.27777000000000385,
          "durationTicks": 384,
          "midi": 65,
          "name": "F4",
          "ticks": 165504,
          "time": 127.53098000000001,
          "velocity": 0.905511811023622
        },
        {
          "duration": 0.27776999999998964,
          "durationTicks": 384,
          "midi": 66,
          "name": "F#4",
          "ticks": 165888,
          "time": 127.80875000000002,
          "velocity": 0.905511811023622
        },
        {
          "duration": 0.27777000000000385,
          "durationTicks": 384,
          "midi": 60,
          "name": "C4",
          "ticks": 166272,
          "time": 128.08652,
          "velocity": 0.905511811023622
        },
        {
          "duration": 0.8333100000000115,
          "durationTicks": 1152,
          "midi": 62,
          "name": "D4",
          "ticks": 166656,
          "time": 128.36429,
          "velocity": 0.968503937007874
        },
        {
          "duration": 0.2777699999999754,
          "durationTicks": 384,
          "midi": 50,
          "name": "D3",
          "ticks": 167808,
          "time": 129.19760000000002,
          "velocity": 0.968503937007874
        },
        {
          "duration": 0.27777000000000385,
          "durationTicks": 384,
          "midi": 51,
          "name": "D#3",
          "ticks": 168192,
          "time": 129.47537,
          "velocity": 0.968503937007874
        },
        {
          "duration": 0.27777000000000385,
          "durationTicks": 384,
          "midi": 53,
          "name": "F3",
          "ticks": 168960,
          "time": 130.03091,
          "velocity": 0.968503937007874
        },
        {
          "duration": 0.27777000000000385,
          "durationTicks": 384,
          "midi": 55,
          "name": "G3",
          "ticks": 169728,
          "time": 130.58645,
          "velocity": 0.968503937007874
        },
        {
          "duration": 0.27777000000000385,
          "durationTicks": 384,
          "midi": 56,
          "name": "G#3",
          "ticks": 170496,
          "time": 131.14199000000002,
          "velocity": 0.968503937007874
        },
        {
          "duration": 0.27777000000000385,
          "durationTicks": 384,
          "midi": 58,
          "name": "A#3",
          "ticks": 171264,
          "time": 131.69753,
          "velocity": 0.968503937007874
        },
        {
          "duration": 0.27777000000000385,
          "durationTicks": 384,
          "midi": 46,
          "name": "A#2",
          "ticks": 172032,
          "time": 132.25307,
          "velocity": 0.968503937007874
        },
        {
          "duration": 0.27777000000000385,
          "durationTicks": 384,
          "midi": 50,
          "name": "D3",
          "ticks": 172800,
          "time": 132.80861000000002,
          "velocity": 0.968503937007874
        },
        {
          "duration": 0.27777000000000385,
          "durationTicks": 384,
          "midi": 53,
          "name": "F3",
          "ticks": 173184,
          "time": 133.08638000000002,
          "velocity": 0.968503937007874
        },
        {
          "duration": 0.27777000000000385,
          "durationTicks": 384,
          "midi": 50,
          "name": "D3",
          "ticks": 173568,
          "time": 133.36415000000002,
          "velocity": 0.968503937007874
        },
        {
          "duration": 0.2777699999999754,
          "durationTicks": 384,
          "midi": 53,
          "name": "F3",
          "ticks": 173952,
          "time": 133.64192000000003,
          "velocity": 0.968503937007874
        },
        {
          "duration": 0.27777000000000385,
          "durationTicks": 384,
          "midi": 51,
          "name": "D#3",
          "ticks": 174336,
          "time": 133.91969,
          "velocity": 0.968503937007874
        },
        {
          "duration": 0.27777000000000385,
          "durationTicks": 384,
          "midi": 55,
          "name": "G3",
          "ticks": 174720,
          "time": 134.19746,
          "velocity": 0.968503937007874
        },
        {
          "duration": 0.27777000000000385,
          "durationTicks": 384,
          "midi": 53,
          "name": "F3",
          "ticks": 175104,
          "time": 134.47523,
          "velocity": 0.968503937007874
        },
        {
          "duration": 0.27777000000000385,
          "durationTicks": 384,
          "midi": 56,
          "name": "G#3",
          "ticks": 175488,
          "time": 134.75300000000001,
          "velocity": 0.968503937007874
        },
        {
          "duration": 0.27777000000000385,
          "durationTicks": 384,
          "midi": 55,
          "name": "G3",
          "ticks": 175872,
          "time": 135.03077000000002,
          "velocity": 0.968503937007874
        },
        {
          "duration": 0.27777000000000385,
          "durationTicks": 384,
          "midi": 58,
          "name": "A#3",
          "ticks": 176256,
          "time": 135.30854000000002,
          "velocity": 0.968503937007874
        },
        {
          "duration": 0.2777699999999754,
          "durationTicks": 384,
          "midi": 56,
          "name": "G#3",
          "ticks": 176640,
          "time": 135.58631000000003,
          "velocity": 0.968503937007874
        },
        {
          "duration": 0.27777000000000385,
          "durationTicks": 384,
          "midi": 60,
          "name": "C4",
          "ticks": 177024,
          "time": 135.86408,
          "velocity": 0.968503937007874
        },
        {
          "duration": 0.27777000000000385,
          "durationTicks": 384,
          "midi": 58,
          "name": "A#3",
          "ticks": 177408,
          "time": 136.14185,
          "velocity": 0.968503937007874
        },
        {
          "duration": 0.27777000000000385,
          "durationTicks": 384,
          "midi": 46,
          "name": "A#2",
          "ticks": 177792,
          "time": 136.41962,
          "velocity": 0.968503937007874
        },
        {
          "duration": 0.27777000000000385,
          "durationTicks": 384,
          "midi": 58,
          "name": "A#3",
          "ticks": 178176,
          "time": 136.69739,
          "velocity": 0.968503937007874
        },
        {
          "duration": 0.27777000000000385,
          "durationTicks": 384,
          "midi": 46,
          "name": "A#2",
          "ticks": 178560,
          "time": 136.97516000000002,
          "velocity": 0.968503937007874
        },
        {
          "duration": 1.8055049999999824,
          "durationTicks": 2496,
          "midi": 51,
          "name": "D#3",
          "ticks": 178944,
          "time": 137.25293000000002,
          "velocity": 0.968503937007874
        },
        {
          "duration": 0.13888500000001613,
          "durationTicks": 192,
          "midi": 46,
          "name": "A#2",
          "ticks": 181440,
          "time": 139.058435,
          "velocity": 0.968503937007874
        },
        {
          "duration": 0.1388849999999877,
          "durationTicks": 192,
          "midi": 46,
          "name": "A#2",
          "ticks": 181632,
          "time": 139.19732000000002,
          "velocity": 0.968503937007874
        },
        {
          "duration": 0.13888500000001613,
          "durationTicks": 192,
          "midi": 46,
          "name": "A#2",
          "ticks": 181824,
          "time": 139.336205,
          "velocity": 0.968503937007874
        },
        {
          "duration": 1.8055049999999824,
          "durationTicks": 2496,
          "midi": 51,
          "name": "D#3",
          "ticks": 182016,
          "time": 139.47509000000002,
          "velocity": 0.968503937007874
        },
        {
          "duration": 0.13888500000001613,
          "durationTicks": 192,
          "midi": 46,
          "name": "A#2",
          "ticks": 184512,
          "time": 141.280595,
          "velocity": 0.968503937007874
        },
        {
          "duration": 0.1388849999999877,
          "durationTicks": 192,
          "midi": 46,
          "name": "A#2",
          "ticks": 184704,
          "time": 141.41948000000002,
          "velocity": 0.968503937007874
        },
        {
          "duration": 0.13888500000001613,
          "durationTicks": 192,
          "midi": 46,
          "name": "A#2",
          "ticks": 184896,
          "time": 141.558365,
          "velocity": 0.968503937007874
        },
        {
          "duration": 0.27777000000000385,
          "durationTicks": 384,
          "midi": 51,
          "name": "D#3",
          "ticks": 185088,
          "time": 141.69725000000003,
          "velocity": 0.968503937007874
        },
        {
          "duration": 0.1388849999999877,
          "durationTicks": 192,
          "midi": 46,
          "name": "A#2",
          "ticks": 186048,
          "time": 142.39167500000002,
          "velocity": 0.968503937007874
        },
        {
          "duration": 0.13888500000001613,
          "durationTicks": 192,
          "midi": 46,
          "name": "A#2",
          "ticks": 186240,
          "time": 142.53056,
          "velocity": 0.968503937007874
        },
        {
          "duration": 0.1388849999999877,
          "durationTicks": 192,
          "midi": 46,
          "name": "A#2",
          "ticks": 186432,
          "time": 142.66944500000002,
          "velocity": 0.968503937007874
        },
        {
          "duration": 0.27777000000000385,
          "durationTicks": 384,
          "midi": 51,
          "name": "D#3",
          "ticks": 186624,
          "time": 142.80833,
          "velocity": 0.968503937007874
        },
        {
          "duration": 0.13888500000001613,
          "durationTicks": 192,
          "midi": 46,
          "name": "A#2",
          "ticks": 187584,
          "time": 143.502755,
          "velocity": 0.968503937007874
        },
        {
          "duration": 0.1388849999999877,
          "durationTicks": 192,
          "midi": 46,
          "name": "A#2",
          "ticks": 187776,
          "time": 143.64164000000002,
          "velocity": 0.968503937007874
        },
        {
          "duration": 0.13888500000001613,
          "durationTicks": 192,
          "midi": 46,
          "name": "A#2",
          "ticks": 187968,
          "time": 143.780525,
          "velocity": 0.968503937007874
        },
        {
          "duration": 0.2777699999999754,
          "durationTicks": 384,
          "midi": 51,
          "name": "D#3",
          "ticks": 188160,
          "time": 143.91941000000003,
          "velocity": 0.968503937007874
        },
        {
          "duration": 0.1388849999999877,
          "durationTicks": 192,
          "midi": 37,
          "name": "C#2",
          "ticks": 191424,
          "time": 146.28045500000002,
          "velocity": 0.968503937007874
        },
        {
          "duration": 0.13888500000001613,
          "durationTicks": 192,
          "midi": 37,
          "name": "C#2",
          "ticks": 191616,
          "time": 146.41934,
          "velocity": 0.968503937007874
        },
        {
          "duration": 0.1388849999999877,
          "durationTicks": 192,
          "midi": 37,
          "name": "C#2",
          "ticks": 191808,
          "time": 146.55822500000002,
          "velocity": 0.968503937007874
        },
        {
          "duration": 1.5714199999999892,
          "durationTicks": 1536,
          "midi": 36,
          "name": "C2",
          "ticks": 192000,
          "time": 146.69711,
          "velocity": 0.968503937007874
        },
        {
          "duration": 1.288470000000018,
          "durationTicks": 1728,
          "midi": 60,
          "name": "C4",
          "ticks": 194304,
          "time": 148.83995000000002,
          "velocity": 0.7165354330708661
        },
        {
          "duration": 0.14562999999998283,
          "durationTicks": 192,
          "midi": 61,
          "name": "C#4",
          "ticks": 196032,
          "time": 150.12842000000003,
          "velocity": 0.7165354330708661
        },
        {
          "duration": 0.14563000000001125,
          "durationTicks": 192,
          "midi": 61,
          "name": "C#4",
          "ticks": 196224,
          "time": 150.27405000000002,
          "velocity": 0.7165354330708661
        },
        {
          "duration": 0.14562999999998283,
          "durationTicks": 192,
          "midi": 61,
          "name": "C#4",
          "ticks": 196416,
          "time": 150.41968000000003,
          "velocity": 0.7165354330708661
        },
        {
          "duration": 1.897560000000027,
          "durationTicks": 2496,
          "midi": 60,
          "name": "C4",
          "ticks": 196608,
          "time": 150.56531,
          "velocity": 0.7165354330708661
        },
        {
          "duration": 0.15000000000000568,
          "durationTicks": 192,
          "midi": 61,
          "name": "C#4",
          "ticks": 199104,
          "time": 152.46287000000004,
          "velocity": 0.7165354330708661
        },
        {
          "duration": 0.14999999999997726,
          "durationTicks": 192,
          "midi": 61,
          "name": "C#4",
          "ticks": 199296,
          "time": 152.61287000000004,
          "velocity": 0.7165354330708661
        },
        {
          "duration": 0.15000000000000568,
          "durationTicks": 192,
          "midi": 61,
          "name": "C#4",
          "ticks": 199488,
          "time": 152.76287000000002,
          "velocity": 0.7165354330708661
        },
        {
          "duration": 2.4000000000000057,
          "durationTicks": 3072,
          "midi": 60,
          "name": "C4",
          "ticks": 199680,
          "time": 152.91287000000003,
          "velocity": 0.7165354330708661
        },
        {
          "duration": 1.1999999999999886,
          "durationTicks": 1536,
          "midi": 60,
          "name": "C4",
          "ticks": 202752,
          "time": 155.31287000000003,
          "velocity": 0.7165354330708661
        },
        {
          "duration": 0.30000000000001137,
          "durationTicks": 384,
          "midi": 62,
          "name": "D4",
          "ticks": 204288,
          "time": 156.51287000000002,
          "velocity": 0.7165354330708661
        },
        {
          "duration": 0.30000000000001137,
          "durationTicks": 384,
          "midi": 63,
          "name": "D#4",
          "ticks": 204672,
          "time": 156.81287000000003,
          "velocity": 0.7165354330708661
        },
        {
          "duration": 0.29999999999998295,
          "durationTicks": 384,
          "midi": 65,
          "name": "F4",
          "ticks": 205056,
          "time": 157.11287000000004,
          "velocity": 0.7165354330708661
        },
        {
          "duration": 0.30000000000001137,
          "durationTicks": 384,
          "midi": 66,
          "name": "F#4",
          "ticks": 205440,
          "time": 157.41287000000003,
          "velocity": 0.7165354330708661
        },
        {
          "duration": 0.15000000000000568,
          "durationTicks": 192,
          "midi": 67,
          "name": "G4",
          "ticks": 205824,
          "time": 157.71287000000004,
          "velocity": 0.7165354330708661
        },
        {
          "duration": 0.14999999999997726,
          "durationTicks": 192,
          "midi": 67,
          "name": "G4",
          "ticks": 206016,
          "time": 157.86287000000004,
          "velocity": 0.7165354330708661
        },
        {
          "duration": 0.15000000000000568,
          "durationTicks": 192,
          "midi": 67,
          "name": "G4",
          "ticks": 206208,
          "time": 158.01287000000002,
          "velocity": 0.7165354330708661
        },
        {
          "duration": 0.15000000000000568,
          "durationTicks": 192,
          "midi": 65,
          "name": "F4",
          "ticks": 206400,
          "time": 158.16287000000003,
          "velocity": 0.7165354330708661
        },
        {
          "duration": 0.5999999999999943,
          "durationTicks": 768,
          "midi": 63,
          "name": "D#4",
          "ticks": 206592,
          "time": 158.31287000000003,
          "velocity": 0.7165354330708661
        },
        {
          "duration": 0.15000000000000568,
          "durationTicks": 192,
          "midi": 62,
          "name": "D4",
          "ticks": 207360,
          "time": 158.91287000000003,
          "velocity": 0.7165354330708661
        },
        {
          "duration": 0.15000000000000568,
          "durationTicks": 192,
          "midi": 67,
          "name": "G4",
          "ticks": 207552,
          "time": 159.06287000000003,
          "velocity": 0.7165354330708661
        },
        {
          "duration": 0.15000000000000568,
          "durationTicks": 192,
          "midi": 67,
          "name": "G4",
          "ticks": 207744,
          "time": 159.21287000000004,
          "velocity": 0.7165354330708661
        },
        {
          "duration": 0.14999999999997726,
          "durationTicks": 192,
          "midi": 65,
          "name": "F4",
          "ticks": 207936,
          "time": 159.36287000000004,
          "velocity": 0.7165354330708661
        },
        {
          "duration": 0.6000000000000227,
          "durationTicks": 768,
          "midi": 63,
          "name": "D#4",
          "ticks": 208128,
          "time": 159.51287000000002,
          "velocity": 0.7165354330708661
        },
        {
          "duration": 0.14999999999997726,
          "durationTicks": 192,
          "midi": 62,
          "name": "D4",
          "ticks": 208896,
          "time": 160.11287000000004,
          "velocity": 0.7165354330708661
        },
        {
          "duration": 0.15000000000000568,
          "durationTicks": 192,
          "midi": 67,
          "name": "G4",
          "ticks": 209088,
          "time": 160.26287000000002,
          "velocity": 0.7165354330708661
        },
        {
          "duration": 0.15000000000000568,
          "durationTicks": 192,
          "midi": 67,
          "name": "G4",
          "ticks": 209280,
          "time": 160.41287000000003,
          "velocity": 0.7165354330708661
        },
        {
          "duration": 0.15000000000000568,
          "durationTicks": 192,
          "midi": 65,
          "name": "F4",
          "ticks": 209472,
          "time": 160.56287000000003,
          "velocity": 0.7165354330708661
        },
        {
          "duration": 0.15000000000000568,
          "durationTicks": 192,
          "midi": 63,
          "name": "D#4",
          "ticks": 209664,
          "time": 160.71287000000004,
          "velocity": 0.7165354330708661
        },
        {
          "duration": 0.14999999999997726,
          "durationTicks": 192,
          "midi": 63,
          "name": "D#4",
          "ticks": 209856,
          "time": 160.86287000000004,
          "velocity": 0.7165354330708661
        },
        {
          "duration": 0.15000000000000568,
          "durationTicks": 192,
          "midi": 63,
          "name": "D#4",
          "ticks": 210048,
          "time": 161.01287000000002,
          "velocity": 0.7165354330708661
        },
        {
          "duration": 0.15000000000000568,
          "durationTicks": 192,
          "midi": 62,
          "name": "D4",
          "ticks": 210240,
          "time": 161.16287000000003,
          "velocity": 0.7165354330708661
        },
        {
          "duration": 0.15000000000000568,
          "durationTicks": 192,
          "midi": 60,
          "name": "C4",
          "ticks": 210432,
          "time": 161.31287000000003,
          "velocity": 0.7165354330708661
        },
        {
          "duration": 0.15000000000000568,
          "durationTicks": 192,
          "midi": 60,
          "name": "C4",
          "ticks": 210624,
          "time": 161.46287000000004,
          "velocity": 0.7165354330708661
        },
        {
          "duration": 0.14999999999997726,
          "durationTicks": 192,
          "midi": 60,
          "name": "C4",
          "ticks": 210816,
          "time": 161.61287000000004,
          "velocity": 0.7165354330708661
        },
        {
          "duration": 0.15000000000000568,
          "durationTicks": 192,
          "midi": 58,
          "name": "A#3",
          "ticks": 211008,
          "time": 161.76287000000002,
          "velocity": 0.7165354330708661
        },
        {
          "duration": 0.15000000000000568,
          "durationTicks": 192,
          "midi": 57,
          "name": "A3",
          "ticks": 211200,
          "time": 161.91287000000003,
          "velocity": 0.7165354330708661
        },
        {
          "duration": 0.15000000000000568,
          "durationTicks": 192,
          "midi": 57,
          "name": "A3",
          "ticks": 211392,
          "time": 162.06287000000003,
          "velocity": 0.7165354330708661
        },
        {
          "duration": 0.15000000000000568,
          "durationTicks": 192,
          "midi": 57,
          "name": "A3",
          "ticks": 211584,
          "time": 162.21287000000004,
          "velocity": 0.7165354330708661
        },
        {
          "duration": 0.14999999999997726,
          "durationTicks": 192,
          "midi": 55,
          "name": "G3",
          "ticks": 211776,
          "time": 162.36287000000004,
          "velocity": 0.7165354330708661
        },
        {
          "duration": 0.30000000000001137,
          "durationTicks": 384,
          "midi": 54,
          "name": "F#3",
          "ticks": 211968,
          "time": 162.51287000000002,
          "velocity": 0.7165354330708661
        },
        {
          "duration": 0.15000000000000568,
          "durationTicks": 192,
          "midi": 58,
          "name": "A#3",
          "ticks": 212928,
          "time": 163.26287000000002,
          "velocity": 0.7165354330708661
        },
        {
          "duration": 0.15000000000000568,
          "durationTicks": 192,
          "midi": 58,
          "name": "A#3",
          "ticks": 213120,
          "time": 163.41287000000003,
          "velocity": 0.7165354330708661
        },
        {
          "duration": 0.15000000000000568,
          "durationTicks": 192,
          "midi": 60,
          "name": "C4",
          "ticks": 213312,
          "time": 163.56287000000003,
          "velocity": 0.7165354330708661
        },
        {
          "duration": 0.75,
          "durationTicks": 960,
          "midi": 62,
          "name": "D4",
          "ticks": 213504,
          "time": 163.71287000000004,
          "velocity": 0.7165354330708661
        },
        {
          "duration": 0.15000000000000568,
          "durationTicks": 192,
          "midi": 58,
          "name": "A#3",
          "ticks": 214464,
          "time": 164.46287000000004,
          "velocity": 0.7165354330708661
        },
        {
          "duration": 0.14999999999997726,
          "durationTicks": 192,
          "midi": 58,
          "name": "A#3",
          "ticks": 214656,
          "time": 164.61287000000004,
          "velocity": 0.7165354330708661
        },
        {
          "duration": 0.15000000000000568,
          "durationTicks": 192,
          "midi": 60,
          "name": "C4",
          "ticks": 214848,
          "time": 164.76287000000002,
          "velocity": 0.7165354330708661
        },
        {
          "duration": 0.15000000000000568,
          "durationTicks": 192,
          "midi": 62,
          "name": "D4",
          "ticks": 215040,
          "time": 164.91287000000003,
          "velocity": 0.7165354330708661
        },
        {
          "duration": 0.15000000000000568,
          "durationTicks": 192,
          "midi": 62,
          "name": "D4",
          "ticks": 215232,
          "time": 165.06287000000003,
          "velocity": 0.7165354330708661
        },
        {
          "duration": 0.15000000000000568,
          "durationTicks": 192,
          "midi": 62,
          "name": "D4",
          "ticks": 215424,
          "time": 165.21287000000004,
          "velocity": 0.7165354330708661
        },
        {
          "duration": 0.14999999999997726,
          "durationTicks": 192,
          "midi": 60,
          "name": "C4",
          "ticks": 215616,
          "time": 165.36287000000004,
          "velocity": 0.7165354330708661
        },
        {
          "duration": 0.15000000000000568,
          "durationTicks": 192,
          "midi": 58,
          "name": "A#3",
          "ticks": 215808,
          "time": 165.51287000000002,
          "velocity": 0.7165354330708661
        },
        {
          "duration": 0.15000000000000568,
          "durationTicks": 192,
          "midi": 58,
          "name": "A#3",
          "ticks": 216000,
          "time": 165.66287000000003,
          "velocity": 0.7165354330708661
        },
        {
          "duration": 0.15000000000000568,
          "durationTicks": 192,
          "midi": 58,
          "name": "A#3",
          "ticks": 216192,
          "time": 165.81287000000003,
          "velocity": 0.7165354330708661
        },
        {
          "duration": 0.15000000000000568,
          "durationTicks": 192,
          "midi": 57,
          "name": "A3",
          "ticks": 216384,
          "time": 165.96287000000004,
          "velocity": 0.7165354330708661
        },
        {
          "duration": 0.14999999999997726,
          "durationTicks": 192,
          "midi": 55,
          "name": "G3",
          "ticks": 216576,
          "time": 166.11287000000004,
          "velocity": 0.7165354330708661
        },
        {
          "duration": 0.15000000000000568,
          "durationTicks": 192,
          "midi": 55,
          "name": "G3",
          "ticks": 216768,
          "time": 166.26287000000002,
          "velocity": 0.7165354330708661
        },
        {
          "duration": 0.15000000000000568,
          "durationTicks": 192,
          "midi": 55,
          "name": "G3",
          "ticks": 216960,
          "time": 166.41287000000003,
          "velocity": 0.7165354330708661
        },
        {
          "duration": 0.15000000000000568,
          "durationTicks": 192,
          "midi": 53,
          "name": "F3",
          "ticks": 217152,
          "time": 166.56287000000003,
          "velocity": 0.7165354330708661
        },
        {
          "duration": 0.15000000000000568,
          "durationTicks": 192,
          "midi": 51,
          "name": "D#3",
          "ticks": 217344,
          "time": 166.71287000000004,
          "velocity": 0.7165354330708661
        },
        {
          "duration": 0.14999999999997726,
          "durationTicks": 192,
          "midi": 51,
          "name": "D#3",
          "ticks": 217536,
          "time": 166.86287000000004,
          "velocity": 0.7165354330708661
        },
        {
          "duration": 0.15000000000000568,
          "durationTicks": 192,
          "midi": 51,
          "name": "D#3",
          "ticks": 217728,
          "time": 167.01287000000002,
          "velocity": 0.7165354330708661
        },
        {
          "duration": 0.15000000000000568,
          "durationTicks": 192,
          "midi": 50,
          "name": "D3",
          "ticks": 217920,
          "time": 167.16287000000003,
          "velocity": 0.7165354330708661
        },
        {
          "duration": 0.15000000000000568,
          "durationTicks": 192,
          "midi": 48,
          "name": "C3",
          "ticks": 218112,
          "time": 167.31287000000003,
          "velocity": 0.7165354330708661
        },
        {
          "duration": 0.15000000000000568,
          "durationTicks": 192,
          "midi": 60,
          "name": "C4",
          "ticks": 218304,
          "time": 167.46287000000004,
          "velocity": 0.7165354330708661
        },
        {
          "duration": 0.14999999999997726,
          "durationTicks": 192,
          "midi": 60,
          "name": "C4",
          "ticks": 218496,
          "time": 167.61287000000004,
          "velocity": 0.7165354330708661
        },
        {
          "duration": 0.15000000000000568,
          "durationTicks": 192,
          "midi": 58,
          "name": "A#3",
          "ticks": 218688,
          "time": 167.76287000000002,
          "velocity": 0.7165354330708661
        },
        {
          "duration": 0.15000000000000568,
          "durationTicks": 192,
          "midi": 57,
          "name": "A3",
          "ticks": 218880,
          "time": 167.91287000000003,
          "velocity": 0.7165354330708661
        },
        {
          "duration": 0.15000000000000568,
          "durationTicks": 192,
          "midi": 57,
          "name": "A3",
          "ticks": 219072,
          "time": 168.06287000000003,
          "velocity": 0.7165354330708661
        },
        {
          "duration": 0.15000000000000568,
          "durationTicks": 192,
          "midi": 57,
          "name": "A3",
          "ticks": 219264,
          "time": 168.21287000000004,
          "velocity": 0.7165354330708661
        },
        {
          "duration": 0.14999999999997726,
          "durationTicks": 192,
          "midi": 55,
          "name": "G3",
          "ticks": 219456,
          "time": 168.36287000000004,
          "velocity": 0.7165354330708661
        },
        {
          "duration": 0.15000000000000568,
          "durationTicks": 192,
          "midi": 54,
          "name": "F#3",
          "ticks": 219648,
          "time": 168.51287000000002,
          "velocity": 0.7165354330708661
        },
        {
          "duration": 0.15000000000000568,
          "durationTicks": 192,
          "midi": 54,
          "name": "F#3",
          "ticks": 219840,
          "time": 168.66287000000003,
          "velocity": 0.7165354330708661
        },
        {
          "duration": 0.15000000000000568,
          "durationTicks": 192,
          "midi": 54,
          "name": "F#3",
          "ticks": 220032,
          "time": 168.81287000000003,
          "velocity": 0.7165354330708661
        },
        {
          "duration": 0.15000000000000568,
          "durationTicks": 192,
          "midi": 51,
          "name": "D#3",
          "ticks": 220224,
          "time": 168.96287000000004,
          "velocity": 0.7165354330708661
        },
        {
          "duration": 0.14999999999997726,
          "durationTicks": 192,
          "midi": 50,
          "name": "D3",
          "ticks": 220416,
          "time": 169.11287000000004,
          "velocity": 0.7165354330708661
        },
        {
          "duration": 0.15000000000000568,
          "durationTicks": 192,
          "midi": 50,
          "name": "D3",
          "ticks": 220608,
          "time": 169.26287000000002,
          "velocity": 0.7165354330708661
        },
        {
          "duration": 0.15000000000000568,
          "durationTicks": 192,
          "midi": 50,
          "name": "D3",
          "ticks": 220800,
          "time": 169.41287000000003,
          "velocity": 0.7165354330708661
        },
        {
          "duration": 0.15000000000000568,
          "durationTicks": 192,
          "midi": 48,
          "name": "C3",
          "ticks": 220992,
          "time": 169.56287000000003,
          "velocity": 0.7165354330708661
        },
        {
          "duration": 0.15000000000000568,
          "durationTicks": 192,
          "midi": 46,
          "name": "A#2",
          "ticks": 221184,
          "time": 169.71287000000004,
          "velocity": 0.7165354330708661
        },
        {
          "duration": 0.14999999999997726,
          "durationTicks": 192,
          "midi": 62,
          "name": "D4",
          "ticks": 221376,
          "time": 169.86287000000004,
          "velocity": 0.7165354330708661
        },
        {
          "duration": 0.15000000000000568,
          "durationTicks": 192,
          "midi": 62,
          "name": "D4",
          "ticks": 221568,
          "time": 170.01287000000002,
          "velocity": 0.7165354330708661
        },
        {
          "duration": 0.15000000000000568,
          "durationTicks": 192,
          "midi": 60,
          "name": "C4",
          "ticks": 221760,
          "time": 170.16287000000003,
          "velocity": 0.7165354330708661
        },
        {
          "duration": 0.15000000000000568,
          "durationTicks": 192,
          "midi": 58,
          "name": "A#3",
          "ticks": 221952,
          "time": 170.31287000000003,
          "velocity": 0.7165354330708661
        },
        {
          "duration": 0.15000000000000568,
          "durationTicks": 192,
          "midi": 58,
          "name": "A#3",
          "ticks": 222144,
          "time": 170.46287000000004,
          "velocity": 0.7165354330708661
        },
        {
          "duration": 0.14999999999997726,
          "durationTicks": 192,
          "midi": 58,
          "name": "A#3",
          "ticks": 222336,
          "time": 170.61287000000004,
          "velocity": 0.7165354330708661
        },
        {
          "duration": 0.15000000000000568,
          "durationTicks": 192,
          "midi": 57,
          "name": "A3",
          "ticks": 222528,
          "time": 170.76287000000002,
          "velocity": 0.7952755905511811
        },
        {
          "duration": 0.15000000000000568,
          "durationTicks": 192,
          "midi": 55,
          "name": "G3",
          "ticks": 222720,
          "time": 170.91287000000003,
          "velocity": 0.7952755905511811
        },
        {
          "duration": 0.15000000000000568,
          "durationTicks": 192,
          "midi": 53,
          "name": "F3",
          "ticks": 222912,
          "time": 171.06287000000003,
          "velocity": 0.8582677165354331
        },
        {
          "duration": 0.15000000000000568,
          "durationTicks": 192,
          "midi": 51,
          "name": "D#3",
          "ticks": 223104,
          "time": 171.21287000000004,
          "velocity": 0.8582677165354331
        },
        {
          "duration": 0.14999999999997726,
          "durationTicks": 192,
          "midi": 50,
          "name": "D3",
          "ticks": 223296,
          "time": 171.36287000000004,
          "velocity": 0.8582677165354331
        },
        {
          "duration": 0.15000000000000568,
          "durationTicks": 192,
          "midi": 36,
          "name": "C2",
          "ticks": 223488,
          "time": 171.51287000000002,
          "velocity": 0.905511811023622
        },
        {
          "duration": 0.15000000000000568,
          "durationTicks": 192,
          "midi": 48,
          "name": "C3",
          "ticks": 223488,
          "time": 171.51287000000002,
          "velocity": 0.905511811023622
        },
        {
          "duration": 0.15000000000000568,
          "durationTicks": 192,
          "midi": 36,
          "name": "C2",
          "ticks": 223680,
          "time": 171.66287000000003,
          "velocity": 0.905511811023622
        },
        {
          "duration": 0.15000000000000568,
          "durationTicks": 192,
          "midi": 48,
          "name": "C3",
          "ticks": 223680,
          "time": 171.66287000000003,
          "velocity": 0.905511811023622
        },
        {
          "duration": 0.15000000000000568,
          "durationTicks": 192,
          "midi": 36,
          "name": "C2",
          "ticks": 223872,
          "time": 171.81287000000003,
          "velocity": 0.905511811023622
        },
        {
          "duration": 0.15000000000000568,
          "durationTicks": 192,
          "midi": 48,
          "name": "C3",
          "ticks": 223872,
          "time": 171.81287000000003,
          "velocity": 0.905511811023622
        },
        {
          "duration": 0.15000000000000568,
          "durationTicks": 192,
          "midi": 36,
          "name": "C2",
          "ticks": 224064,
          "time": 171.96287000000004,
          "velocity": 0.905511811023622
        },
        {
          "duration": 0.15000000000000568,
          "durationTicks": 192,
          "midi": 48,
          "name": "C3",
          "ticks": 224064,
          "time": 171.96287000000004,
          "velocity": 0.905511811023622
        },
        {
          "duration": 0.14999999999997726,
          "durationTicks": 192,
          "midi": 36,
          "name": "C2",
          "ticks": 224256,
          "time": 172.11287000000004,
          "velocity": 0.905511811023622
        },
        {
          "duration": 0.14999999999997726,
          "durationTicks": 192,
          "midi": 48,
          "name": "C3",
          "ticks": 224256,
          "time": 172.11287000000004,
          "velocity": 0.905511811023622
        },
        {
          "duration": 0.15000000000000568,
          "durationTicks": 192,
          "midi": 36,
          "name": "C2",
          "ticks": 224448,
          "time": 172.26287000000002,
          "velocity": 0.905511811023622
        },
        {
          "duration": 0.15000000000000568,
          "durationTicks": 192,
          "midi": 48,
          "name": "C3",
          "ticks": 224448,
          "time": 172.26287000000002,
          "velocity": 0.905511811023622
        },
        {
          "duration": 0.15000000000000568,
          "durationTicks": 192,
          "midi": 36,
          "name": "C2",
          "ticks": 224640,
          "time": 172.41287000000003,
          "velocity": 0.905511811023622
        },
        {
          "duration": 0.15000000000000568,
          "durationTicks": 192,
          "midi": 48,
          "name": "C3",
          "ticks": 224640,
          "time": 172.41287000000003,
          "velocity": 0.905511811023622
        },
        {
          "duration": 0.15000000000000568,
          "durationTicks": 192,
          "midi": 36,
          "name": "C2",
          "ticks": 224832,
          "time": 172.56287000000003,
          "velocity": 0.905511811023622
        },
        {
          "duration": 0.15000000000000568,
          "durationTicks": 192,
          "midi": 48,
          "name": "C3",
          "ticks": 224832,
          "time": 172.56287000000003,
          "velocity": 0.905511811023622
        },
        {
          "duration": 0.29999999999998295,
          "durationTicks": 384,
          "midi": 36,
          "name": "C2",
          "ticks": 225024,
          "time": 172.71287000000004,
          "velocity": 0.905511811023622
        },
        {
          "duration": 0.29999999999998295,
          "durationTicks": 384,
          "midi": 48,
          "name": "C3",
          "ticks": 225024,
          "time": 172.71287000000004,
          "velocity": 0.905511811023622
        },
        {
          "duration": 0.15000000000000568,
          "durationTicks": 192,
          "midi": 49,
          "name": "C#3",
          "ticks": 225984,
          "time": 173.46287000000004,
          "velocity": 0.905511811023622
        },
        {
          "duration": 0.14999999999997726,
          "durationTicks": 192,
          "midi": 49,
          "name": "C#3",
          "ticks": 226176,
          "time": 173.61287000000004,
          "velocity": 0.905511811023622
        },
        {
          "duration": 0.15000000000000568,
          "durationTicks": 192,
          "midi": 49,
          "name": "C#3",
          "ticks": 226368,
          "time": 173.76287000000002,
          "velocity": 0.905511811023622
        },
        {
          "duration": 0.15000000000000568,
          "durationTicks": 192,
          "midi": 49,
          "name": "C#3",
          "ticks": 226560,
          "time": 173.91287000000003,
          "velocity": 0.905511811023622
        },
        {
          "duration": 0.15000000000000568,
          "durationTicks": 192,
          "midi": 49,
          "name": "C#3",
          "ticks": 226752,
          "time": 174.06287000000003,
          "velocity": 0.905511811023622
        },
        {
          "duration": 0.15000000000000568,
          "durationTicks": 192,
          "midi": 49,
          "name": "C#3",
          "ticks": 226944,
          "time": 174.21287000000004,
          "velocity": 0.905511811023622
        },
        {
          "duration": 0.14999999999997726,
          "durationTicks": 192,
          "midi": 49,
          "name": "C#3",
          "ticks": 227136,
          "time": 174.36287000000004,
          "velocity": 0.905511811023622
        },
        {
          "duration": 0.15000000000000568,
          "durationTicks": 192,
          "midi": 49,
          "name": "C#3",
          "ticks": 227328,
          "time": 174.51287000000002,
          "velocity": 0.905511811023622
        },
        {
          "duration": 0.15000000000000568,
          "durationTicks": 192,
          "midi": 49,
          "name": "C#3",
          "ticks": 227520,
          "time": 174.66287000000003,
          "velocity": 0.905511811023622
        },
        {
          "duration": 0.15000000000000568,
          "durationTicks": 192,
          "midi": 49,
          "name": "C#3",
          "ticks": 227712,
          "time": 174.81287000000003,
          "velocity": 0.905511811023622
        },
        {
          "duration": 0.15000000000000568,
          "durationTicks": 192,
          "midi": 49,
          "name": "C#3",
          "ticks": 227904,
          "time": 174.96287000000004,
          "velocity": 0.905511811023622
        },
        {
          "duration": 0.29999999999998295,
          "durationTicks": 384,
          "midi": 49,
          "name": "C#3",
          "ticks": 228096,
          "time": 175.11287000000004,
          "velocity": 0.905511811023622
        },
        {
          "duration": 0.14999999999997726,
          "durationTicks": 192,
          "midi": 50,
          "name": "D3",
          "ticks": 229056,
          "time": 175.86287000000004,
          "velocity": 0.905511811023622
        },
        {
          "duration": 0.15000000000000568,
          "durationTicks": 192,
          "midi": 50,
          "name": "D3",
          "ticks": 229248,
          "time": 176.01287000000002,
          "velocity": 0.905511811023622
        },
        {
          "duration": 0.15000000000000568,
          "durationTicks": 192,
          "midi": 50,
          "name": "D3",
          "ticks": 229440,
          "time": 176.16287000000003,
          "velocity": 0.905511811023622
        },
        {
          "duration": 0.30000000000001137,
          "durationTicks": 384,
          "midi": 50,
          "name": "D3",
          "ticks": 229632,
          "time": 176.31287000000003,
          "velocity": 0.905511811023622
        },
        {
          "duration": 0.15000000000000568,
          "durationTicks": 192,
          "midi": 52,
          "name": "E3",
          "ticks": 230784,
          "time": 177.21287000000004,
          "velocity": 0.905511811023622
        },
        {
          "duration": 0.14999999999997726,
          "durationTicks": 192,
          "midi": 52,
          "name": "E3",
          "ticks": 230976,
          "time": 177.36287000000004,
          "velocity": 0.905511811023622
        },
        {
          "duration": 0.30000000000001137,
          "durationTicks": 384,
          "midi": 52,
          "name": "E3",
          "ticks": 231168,
          "time": 177.51287000000002,
          "velocity": 0.905511811023622
        },
        {
          "duration": 0.15000000000000568,
          "durationTicks": 192,
          "midi": 54,
          "name": "F#3",
          "ticks": 231552,
          "time": 177.81287000000003,
          "velocity": 0.905511811023622
        },
        {
          "duration": 0.15000000000000568,
          "durationTicks": 192,
          "midi": 54,
          "name": "F#3",
          "ticks": 231744,
          "time": 177.96287000000004,
          "velocity": 0.905511811023622
        },
        {
          "duration": 0.29999999999998295,
          "durationTicks": 384,
          "midi": 54,
          "name": "F#3",
          "ticks": 231936,
          "time": 178.11287000000004,
          "velocity": 0.905511811023622
        },
        {
          "duration": 0.5999999999999943,
          "durationTicks": 768,
          "midi": 60,
          "name": "C4",
          "ticks": 234624,
          "time": 180.21287000000004,
          "velocity": 0.905511811023622
        },
        {
          "duration": 0.30000000000001137,
          "durationTicks": 384,
          "midi": 57,
          "name": "A3",
          "ticks": 235392,
          "time": 180.81287000000003,
          "velocity": 0.905511811023622
        },
        {
          "duration": 0.29999999999998295,
          "durationTicks": 384,
          "midi": 54,
          "name": "F#3",
          "ticks": 235776,
          "time": 181.11287000000004,
          "velocity": 0.905511811023622
        },
        {
          "duration": 0.30000000000001137,
          "durationTicks": 384,
          "midi": 50,
          "name": "D3",
          "ticks": 236160,
          "time": 181.41287000000003,
          "velocity": 0.905511811023622
        },
        {
          "duration": 0.29999999999998295,
          "durationTicks": 384,
          "midi": 48,
          "name": "C3",
          "ticks": 236544,
          "time": 181.71287000000004,
          "velocity": 0.905511811023622
        },
        {
          "duration": 0.30000000000001137,
          "durationTicks": 384,
          "midi": 45,
          "name": "A2",
          "ticks": 236928,
          "time": 182.01287000000002,
          "velocity": 0.905511811023622
        },
        {
          "duration": 0.30000000000001137,
          "durationTicks": 384,
          "midi": 42,
          "name": "F#2",
          "ticks": 237312,
          "time": 182.31287000000003,
          "velocity": 0.905511811023622
        },
        {
          "duration": 0.29999999999998295,
          "durationTicks": 384,
          "midi": 38,
          "name": "D2",
          "ticks": 237696,
          "time": 182.61287000000004,
          "velocity": 0.905511811023622
        },
        {
          "duration": 0.30000000000001137,
          "durationTicks": 384,
          "midi": 43,
          "name": "G2",
          "ticks": 238080,
          "time": 182.91287000000003,
          "velocity": 0.905511811023622
        },
        {
          "duration": 0.6000000000000227,
          "durationTicks": 768,
          "midi": 65,
          "name": "F4",
          "ticks": 240768,
          "time": 185.01287000000002,
          "velocity": 0.905511811023622
        },
        {
          "duration": 0.29999999999998295,
          "durationTicks": 384,
          "midi": 62,
          "name": "D4",
          "ticks": 241536,
          "time": 185.61287000000004,
          "velocity": 0.905511811023622
        },
        {
          "duration": 0.30000000000001137,
          "durationTicks": 384,
          "midi": 59,
          "name": "B3",
          "ticks": 241920,
          "time": 185.91287000000003,
          "velocity": 0.905511811023622
        },
        {
          "duration": 0.29999999999998295,
          "durationTicks": 384,
          "midi": 55,
          "name": "G3",
          "ticks": 242304,
          "time": 186.21287000000004,
          "velocity": 0.905511811023622
        },
        {
          "duration": 0.30000000000001137,
          "durationTicks": 384,
          "midi": 53,
          "name": "F3",
          "ticks": 242688,
          "time": 186.51287000000002,
          "velocity": 0.905511811023622
        },
        {
          "duration": 0.30000000000001137,
          "durationTicks": 384,
          "midi": 50,
          "name": "D3",
          "ticks": 243072,
          "time": 186.81287000000003,
          "velocity": 0.905511811023622
        },
        {
          "duration": 0.29999999999998295,
          "durationTicks": 384,
          "midi": 47,
          "name": "B2",
          "ticks": 243456,
          "time": 187.11287000000004,
          "velocity": 0.905511811023622
        },
        {
          "duration": 0.30000000000001137,
          "durationTicks": 384,
          "midi": 43,
          "name": "G2",
          "ticks": 243840,
          "time": 187.41287000000003,
          "velocity": 0.905511811023622
        },
        {
          "duration": 0.29999999999998295,
          "durationTicks": 384,
          "midi": 48,
          "name": "C3",
          "ticks": 244224,
          "time": 187.71287000000004,
          "velocity": 0.905511811023622
        },
        {
          "duration": 0.6000000000000227,
          "durationTicks": 768,
          "midi": 43,
          "name": "G2",
          "ticks": 246528,
          "time": 189.51287000000002,
          "velocity": 0.905511811023622
        },
        {
          "duration": 0.5999999999999943,
          "durationTicks": 768,
          "midi": 44,
          "name": "G#2",
          "ticks": 247296,
          "time": 190.11287000000004,
          "velocity": 0.905511811023622
        },
        {
          "duration": 0.5999999999999943,
          "durationTicks": 768,
          "midi": 43,
          "name": "G2",
          "ticks": 249600,
          "time": 191.91287000000003,
          "velocity": 0.905511811023622
        },
        {
          "duration": 0.6000000000000227,
          "durationTicks": 768,
          "midi": 44,
          "name": "G#2",
          "ticks": 250368,
          "time": 192.51287000000002,
          "velocity": 0.905511811023622
        },
        {
          "duration": 0.5999999999999943,
          "durationTicks": 768,
          "midi": 46,
          "name": "A#2",
          "ticks": 252672,
          "time": 194.31287000000003,
          "velocity": 0.905511811023622
        },
        {
          "duration": 0.5999999999999943,
          "durationTicks": 768,
          "midi": 48,
          "name": "C3",
          "ticks": 253440,
          "time": 194.91287000000003,
          "velocity": 0.905511811023622
        },
        {
          "duration": 0.5999999999999943,
          "durationTicks": 768,
          "midi": 49,
          "name": "C#3",
          "ticks": 255744,
          "time": 196.71287000000004,
          "velocity": 0.905511811023622
        },
        {
          "duration": 0.6122400000000141,
          "durationTicks": 768,
          "midi": 51,
          "name": "D#3",
          "ticks": 257280,
          "time": 197.91287000000003,
          "velocity": 0.905511811023622
        },
        {
          "duration": 0.6122400000000141,
          "durationTicks": 768,
          "midi": 53,
          "name": "F3",
          "ticks": 258816,
          "time": 199.13735000000003,
          "velocity": 0.8582677165354331
        },
        {
          "duration": 0.6122400000000141,
          "durationTicks": 768,
          "midi": 42,
          "name": "F#2",
          "ticks": 260352,
          "time": 200.36183000000003,
          "velocity": 0.7952755905511811
        },
        {
          "duration": 0.6122400000000141,
          "durationTicks": 768,
          "midi": 42,
          "name": "F#2",
          "ticks": 261888,
          "time": 201.58631000000003,
          "velocity": 0.7165354330708661
        },
        {
          "duration": 0.6122400000000141,
          "durationTicks": 768,
          "midi": 42,
          "name": "F#2",
          "ticks": 263424,
          "time": 202.81079000000003,
          "velocity": 0.7165354330708661
        },
        {
          "duration": 0.6122400000000141,
          "durationTicks": 768,
          "midi": 42,
          "name": "F#2",
          "ticks": 264960,
          "time": 204.03527000000003,
          "velocity": 0.6141732283464567
        },
        {
          "duration": 0.6122400000000141,
          "durationTicks": 768,
          "midi": 42,
          "name": "F#2",
          "ticks": 266496,
          "time": 205.25975000000003,
          "velocity": 0.6141732283464567
        },
        {
          "duration": 0.6122400000000141,
          "durationTicks": 768,
          "midi": 42,
          "name": "F#2",
          "ticks": 268032,
          "time": 206.48423000000003,
          "velocity": 0.6141732283464567
        },
        {
          "duration": 0.15306000000001063,
          "durationTicks": 192,
          "midi": 42,
          "name": "F#2",
          "ticks": 269568,
          "time": 207.70871000000002,
          "velocity": 0.968503937007874
        },
        {
          "duration": 0.1530599999999822,
          "durationTicks": 192,
          "midi": 50,
          "name": "D3",
          "ticks": 269760,
          "time": 207.86177000000004,
          "velocity": 0.968503937007874
        },
        {
          "duration": 0.15306000000001063,
          "durationTicks": 192,
          "midi": 50,
          "name": "D3",
          "ticks": 269952,
          "time": 208.01483000000002,
          "velocity": 0.968503937007874
        },
        {
          "duration": 0.15306000000001063,
          "durationTicks": 192,
          "midi": 50,
          "name": "D3",
          "ticks": 270144,
          "time": 208.16789000000003,
          "velocity": 0.968503937007874
        },
        {
          "duration": 0.6122399999999857,
          "durationTicks": 768,
          "midi": 47,
          "name": "B2",
          "ticks": 270336,
          "time": 208.32095000000004,
          "velocity": 0.968503937007874
        },
        {
          "duration": 0.6122400000000141,
          "durationTicks": 768,
          "midi": 48,
          "name": "C3",
          "ticks": 271104,
          "time": 208.93319000000002,
          "velocity": 0.968503937007874
        },
        {
          "duration": 1.2244799999999998,
          "durationTicks": 1536,
          "midi": 45,
          "name": "A2",
          "ticks": 271872,
          "time": 209.54543000000004,
          "velocity": 0.968503937007874
        },
        {
          "duration": 0.6122400000000141,
          "durationTicks": 768,
          "midi": 47,
          "name": "B2",
          "ticks": 274176,
          "time": 211.38215000000002,
          "velocity": 0.6141732283464567
        },
        {
          "duration": 0.6122400000000141,
          "durationTicks": 768,
          "midi": 47,
          "name": "B2",
          "ticks": 275712,
          "time": 212.60663000000002,
          "velocity": 0.6141732283464567
        },
        {
          "duration": 0.6122400000000141,
          "durationTicks": 768,
          "midi": 47,
          "name": "B2",
          "ticks": 277248,
          "time": 213.83111000000002,
          "velocity": 0.6141732283464567
        },
        {
          "duration": 0.1415049999999951,
          "durationTicks": 192,
          "midi": 47,
          "name": "B2",
          "ticks": 278784,
          "time": 215.05559000000002,
          "velocity": 0.905511811023622
        },
        {
          "duration": 0.1415049999999951,
          "durationTicks": 192,
          "midi": 44,
          "name": "G#2",
          "ticks": 278976,
          "time": 215.19709500000002,
          "velocity": 0.968503937007874
        },
        {
          "duration": 0.14150500000002353,
          "durationTicks": 192,
          "midi": 44,
          "name": "G#2",
          "ticks": 279168,
          "time": 215.3386,
          "velocity": 0.968503937007874
        },
        {
          "duration": 0.1415049999999951,
          "durationTicks": 192,
          "midi": 44,
          "name": "G#2",
          "ticks": 279360,
          "time": 215.48010500000004,
          "velocity": 0.968503937007874
        },
        {
          "duration": 0.707525000000004,
          "durationTicks": 960,
          "midi": 41,
          "name": "F2",
          "ticks": 279552,
          "time": 215.62161000000003,
          "velocity": 0.968503937007874
        },
        {
          "duration": 0.1415049999999951,
          "durationTicks": 192,
          "midi": 44,
          "name": "G#2",
          "ticks": 280512,
          "time": 216.32913500000004,
          "velocity": 0.968503937007874
        },
        {
          "duration": 0.1415049999999951,
          "durationTicks": 192,
          "midi": 44,
          "name": "G#2",
          "ticks": 280704,
          "time": 216.47064000000003,
          "velocity": 0.968503937007874
        },
        {
          "duration": 0.1415049999999951,
          "durationTicks": 192,
          "midi": 44,
          "name": "G#2",
          "ticks": 280896,
          "time": 216.61214500000003,
          "velocity": 0.968503937007874
        },
        {
          "duration": 0.707525000000004,
          "durationTicks": 960,
          "midi": 41,
          "name": "F2",
          "ticks": 281088,
          "time": 216.75365000000002,
          "velocity": 0.968503937007874
        },
        {
          "duration": 0.1415049999999951,
          "durationTicks": 192,
          "midi": 44,
          "name": "G#2",
          "ticks": 282048,
          "time": 217.46117500000003,
          "velocity": 0.968503937007874
        },
        {
          "duration": 0.1415049999999951,
          "durationTicks": 192,
          "midi": 44,
          "name": "G#2",
          "ticks": 282240,
          "time": 217.60268000000002,
          "velocity": 0.968503937007874
        },
        {
          "duration": 0.1415049999999951,
          "durationTicks": 192,
          "midi": 44,
          "name": "G#2",
          "ticks": 282432,
          "time": 217.74418500000002,
          "velocity": 0.968503937007874
        },
        {
          "duration": 0.14150500000002353,
          "durationTicks": 192,
          "midi": 41,
          "name": "F2",
          "ticks": 282624,
          "time": 217.88569,
          "velocity": 0.968503937007874
        },
        {
          "duration": 0.1415049999999951,
          "durationTicks": 192,
          "midi": 44,
          "name": "G#2",
          "ticks": 282816,
          "time": 218.02719500000003,
          "velocity": 0.968503937007874
        },
        {
          "duration": 0.1415049999999951,
          "durationTicks": 192,
          "midi": 44,
          "name": "G#2",
          "ticks": 283008,
          "time": 218.16870000000003,
          "velocity": 0.968503937007874
        },
        {
          "duration": 0.1415049999999951,
          "durationTicks": 192,
          "midi": 44,
          "name": "G#2",
          "ticks": 283200,
          "time": 218.31020500000002,
          "velocity": 0.968503937007874
        },
        {
          "duration": 0.1415049999999951,
          "durationTicks": 192,
          "midi": 41,
          "name": "F2",
          "ticks": 283392,
          "time": 218.45171000000002,
          "velocity": 0.968503937007874
        },
        {
          "duration": 0.1415049999999951,
          "durationTicks": 192,
          "midi": 44,
          "name": "G#2",
          "ticks": 283584,
          "time": 218.59321500000001,
          "velocity": 0.968503937007874
        },
        {
          "duration": 0.14150500000002353,
          "durationTicks": 192,
          "midi": 44,
          "name": "G#2",
          "ticks": 283776,
          "time": 218.73472,
          "velocity": 0.968503937007874
        },
        {
          "duration": 0.1415049999999951,
          "durationTicks": 192,
          "midi": 44,
          "name": "G#2",
          "ticks": 283968,
          "time": 218.87622500000003,
          "velocity": 0.968503937007874
        },
        {
          "duration": 0.1415049999999951,
          "durationTicks": 192,
          "midi": 41,
          "name": "F2",
          "ticks": 284160,
          "time": 219.01773000000003,
          "velocity": 0.968503937007874
        },
        {
          "duration": 0.1415049999999951,
          "durationTicks": 192,
          "midi": 44,
          "name": "G#2",
          "ticks": 284352,
          "time": 219.15923500000002,
          "velocity": 0.968503937007874
        },
        {
          "duration": 0.1415049999999951,
          "durationTicks": 192,
          "midi": 44,
          "name": "G#2",
          "ticks": 284544,
          "time": 219.30074000000002,
          "velocity": 0.968503937007874
        },
        {
          "duration": 0.1415049999999951,
          "durationTicks": 192,
          "midi": 44,
          "name": "G#2",
          "ticks": 284736,
          "time": 219.442245,
          "velocity": 0.968503937007874
        },
        {
          "duration": 0.14150500000002353,
          "durationTicks": 192,
          "midi": 41,
          "name": "F2",
          "ticks": 284928,
          "time": 219.58375,
          "velocity": 0.968503937007874
        },
        {
          "duration": 0.1415049999999951,
          "durationTicks": 192,
          "midi": 43,
          "name": "G2",
          "ticks": 285120,
          "time": 219.72525500000003,
          "velocity": 0.968503937007874
        },
        {
          "duration": 0.1415049999999951,
          "durationTicks": 192,
          "midi": 43,
          "name": "G2",
          "ticks": 285312,
          "time": 219.86676000000003,
          "velocity": 0.968503937007874
        },
        {
          "duration": 0.1415049999999951,
          "durationTicks": 192,
          "midi": 43,
          "name": "G2",
          "ticks": 285504,
          "time": 220.00826500000002,
          "velocity": 0.968503937007874
        },
        {
          "duration": 0.75,
          "durationTicks": 768,
          "midi": 39,
          "name": "D#2",
          "ticks": 285696,
          "time": 220.14977000000002,
          "velocity": 0.968503937007874
        },
        {
          "duration": 0.1415049999999951,
          "durationTicks": 192,
          "midi": 41,
          "name": "F2",
          "ticks": 286656,
          "time": 221.041275,
          "velocity": 0.968503937007874
        },
        {
          "duration": 0.14150500000002353,
          "durationTicks": 192,
          "midi": 41,
          "name": "F2",
          "ticks": 286848,
          "time": 221.18278,
          "velocity": 0.968503937007874
        },
        {
          "duration": 0.1415049999999951,
          "durationTicks": 192,
          "midi": 41,
          "name": "F2",
          "ticks": 287040,
          "time": 221.32428500000003,
          "velocity": 0.968503937007874
        },
        {
          "duration": 1.766019999999969,
          "durationTicks": 1536,
          "midi": 38,
          "name": "D2",
          "ticks": 287232,
          "time": 221.46579000000003,
          "velocity": 0.968503937007874
        },
        {
          "duration": 0.2830099999999902,
          "durationTicks": 384,
          "midi": 48,
          "name": "C3",
          "ticks": 289536,
          "time": 223.79783,
          "velocity": 0.7165354330708661
        },
        {
          "duration": 0.2830099999999902,
          "durationTicks": 384,
          "midi": 48,
          "name": "C3",
          "ticks": 291072,
          "time": 224.92987,
          "velocity": 0.7165354330708661
        },
        {
          "duration": 0.28301000000001864,
          "durationTicks": 384,
          "midi": 47,
          "name": "B2",
          "ticks": 292608,
          "time": 226.06190999999998,
          "velocity": 0.7165354330708661
        },
        {
          "duration": 0.2830099999999902,
          "durationTicks": 384,
          "midi": 47,
          "name": "B2",
          "ticks": 294144,
          "time": 227.19395,
          "velocity": 0.7165354330708661
        },
        {
          "duration": 0.28301000000001864,
          "durationTicks": 384,
          "midi": 48,
          "name": "C3",
          "ticks": 295680,
          "time": 228.32599,
          "velocity": 0.7165354330708661
        },
        {
          "duration": 0.2830099999999902,
          "durationTicks": 384,
          "midi": 47,
          "name": "B2",
          "ticks": 296448,
          "time": 228.89201,
          "velocity": 0.7165354330708661
        },
        {
          "duration": 0.2830099999999902,
          "durationTicks": 384,
          "midi": 48,
          "name": "C3",
          "ticks": 297216,
          "time": 229.45803,
          "velocity": 0.7165354330708661
        },
        {
          "duration": 0.28301000000001864,
          "durationTicks": 384,
          "midi": 43,
          "name": "G2",
          "ticks": 297984,
          "time": 230.02405,
          "velocity": 0.7165354330708661
        },
        {
          "duration": 0.2830099999999902,
          "durationTicks": 384,
          "midi": 48,
          "name": "C3",
          "ticks": 298752,
          "time": 230.59007,
          "velocity": 0.7165354330708661
        },
        {
          "duration": 0.2830099999999902,
          "durationTicks": 384,
          "midi": 44,
          "name": "G#2",
          "ticks": 299520,
          "time": 231.15609,
          "velocity": 0.7165354330708661
        },
        {
          "duration": 0.28301000000001864,
          "durationTicks": 384,
          "midi": 43,
          "name": "G2",
          "ticks": 300288,
          "time": 231.72211,
          "velocity": 0.968503937007874
        },
        {
          "duration": 0.1388849999999877,
          "durationTicks": 192,
          "midi": 43,
          "name": "G2",
          "ticks": 306624,
          "time": 237.074575,
          "velocity": 0.7165354330708661
        },
        {
          "duration": 0.1388849999999877,
          "durationTicks": 192,
          "midi": 43,
          "name": "G2",
          "ticks": 306816,
          "time": 237.21346,
          "velocity": 0.7165354330708661
        },
        {
          "duration": 0.13888500000001613,
          "durationTicks": 192,
          "midi": 43,
          "name": "G2",
          "ticks": 307008,
          "time": 237.35234499999999,
          "velocity": 0.7165354330708661
        },
        {
          "duration": 0.1388849999999877,
          "durationTicks": 192,
          "midi": 48,
          "name": "C3",
          "ticks": 307200,
          "time": 237.49123,
          "velocity": 0.7165354330708661
        },
        {
          "duration": 0.13888500000001613,
          "durationTicks": 192,
          "midi": 56,
          "name": "G#3",
          "ticks": 307392,
          "time": 237.630115,
          "velocity": 0.7165354330708661
        },
        {
          "duration": 0.1388849999999877,
          "durationTicks": 192,
          "midi": 56,
          "name": "G#3",
          "ticks": 307584,
          "time": 237.769,
          "velocity": 0.7165354330708661
        },
        {
          "duration": 0.13888500000001613,
          "durationTicks": 192,
          "midi": 56,
          "name": "G#3",
          "ticks": 307776,
          "time": 237.907885,
          "velocity": 0.7165354330708661
        },
        {
          "duration": 0.1388849999999877,
          "durationTicks": 192,
          "midi": 53,
          "name": "F3",
          "ticks": 307968,
          "time": 238.04677,
          "velocity": 0.7952755905511811
        },
        {
          "duration": 0.13888500000001613,
          "durationTicks": 192,
          "midi": 50,
          "name": "D3",
          "ticks": 308160,
          "time": 238.185655,
          "velocity": 0.7952755905511811
        },
        {
          "duration": 0.1388849999999877,
          "durationTicks": 192,
          "midi": 50,
          "name": "D3",
          "ticks": 308352,
          "time": 238.32454,
          "velocity": 0.7952755905511811
        },
        {
          "duration": 0.1388849999999877,
          "durationTicks": 192,
          "midi": 50,
          "name": "D3",
          "ticks": 308544,
          "time": 238.463425,
          "velocity": 0.7952755905511811
        },
        {
          "duration": 0.13888500000001613,
          "durationTicks": 192,
          "midi": 47,
          "name": "B2",
          "ticks": 308736,
          "time": 238.60231,
          "velocity": 0.7952755905511811
        },
        {
          "duration": 0.1388849999999877,
          "durationTicks": 192,
          "midi": 44,
          "name": "G#2",
          "ticks": 308928,
          "time": 238.741195,
          "velocity": 0.7952755905511811
        },
        {
          "duration": 0.13888500000001613,
          "durationTicks": 192,
          "midi": 44,
          "name": "G#2",
          "ticks": 309120,
          "time": 238.88008,
          "velocity": 0.8582677165354331
        },
        {
          "duration": 0.1388849999999877,
          "durationTicks": 192,
          "midi": 44,
          "name": "G#2",
          "ticks": 309312,
          "time": 239.018965,
          "velocity": 0.8582677165354331
        },
        {
          "duration": 0.13888500000001613,
          "durationTicks": 192,
          "midi": 43,
          "name": "G2",
          "ticks": 309504,
          "time": 239.15785,
          "velocity": 0.8582677165354331
        },
        {
          "duration": 0.1388849999999877,
          "durationTicks": 192,
          "midi": 55,
          "name": "G3",
          "ticks": 309696,
          "time": 239.296735,
          "velocity": 0.8582677165354331
        },
        {
          "duration": 0.1388849999999877,
          "durationTicks": 192,
          "midi": 55,
          "name": "G3",
          "ticks": 309888,
          "time": 239.43562,
          "velocity": 0.8582677165354331
        },
        {
          "duration": 0.13888500000001613,
          "durationTicks": 192,
          "midi": 55,
          "name": "G3",
          "ticks": 310080,
          "time": 239.574505,
          "velocity": 0.8582677165354331
        },
        {
          "duration": 0.1388849999999877,
          "durationTicks": 192,
          "midi": 48,
          "name": "C3",
          "ticks": 310272,
          "time": 239.71339,
          "velocity": 0.905511811023622
        },
        {
          "duration": 0.13888500000001613,
          "durationTicks": 192,
          "midi": 48,
          "name": "C3",
          "ticks": 310464,
          "time": 239.852275,
          "velocity": 0.905511811023622
        },
        {
          "duration": 0.1388849999999877,
          "durationTicks": 192,
          "midi": 48,
          "name": "C3",
          "ticks": 310656,
          "time": 239.99116,
          "velocity": 0.905511811023622
        },
        {
          "duration": 0.13888500000001613,
          "durationTicks": 192,
          "midi": 48,
          "name": "C3",
          "ticks": 310848,
          "time": 240.130045,
          "velocity": 0.905511811023622
        },
        {
          "duration": 0.6944249999999954,
          "durationTicks": 960,
          "midi": 48,
          "name": "C3",
          "ticks": 311040,
          "time": 240.26893,
          "velocity": 0.905511811023622
        },
        {
          "duration": 0.1388849999999877,
          "durationTicks": 192,
          "midi": 48,
          "name": "C3",
          "ticks": 312000,
          "time": 240.963355,
          "velocity": 0.905511811023622
        },
        {
          "duration": 0.13888500000001613,
          "durationTicks": 192,
          "midi": 48,
          "name": "C3",
          "ticks": 312192,
          "time": 241.10224,
          "velocity": 0.905511811023622
        },
        {
          "duration": 0.1388849999999877,
          "durationTicks": 192,
          "midi": 48,
          "name": "C3",
          "ticks": 312384,
          "time": 241.241125,
          "velocity": 0.905511811023622
        },
        {
          "duration": 0.6944249999999954,
          "durationTicks": 960,
          "midi": 48,
          "name": "C3",
          "ticks": 312576,
          "time": 241.38001,
          "velocity": 0.905511811023622
        },
        {
          "duration": 0.13888500000001613,
          "durationTicks": 192,
          "midi": 48,
          "name": "C3",
          "ticks": 313536,
          "time": 242.074435,
          "velocity": 0.905511811023622
        },
        {
          "duration": 0.1388849999999877,
          "durationTicks": 192,
          "midi": 48,
          "name": "C3",
          "ticks": 313728,
          "time": 242.21332,
          "velocity": 0.905511811023622
        },
        {
          "duration": 0.1388849999999877,
          "durationTicks": 192,
          "midi": 48,
          "name": "C3",
          "ticks": 313920,
          "time": 242.352205,
          "velocity": 0.905511811023622
        },
        {
          "duration": 0.27521999999999025,
          "durationTicks": 384,
          "midi": 48,
          "name": "C3",
          "ticks": 314112,
          "time": 242.49108999999999,
          "velocity": 0.905511811023622
        },
        {
          "duration": 0.27521999999999025,
          "durationTicks": 384,
          "midi": 48,
          "name": "C3",
          "ticks": 314880,
          "time": 243.04153,
          "velocity": 0.905511811023622
        },
        {
          "duration": 0.27522000000001867,
          "durationTicks": 384,
          "midi": 48,
          "name": "C3",
          "ticks": 315648,
          "time": 243.59196999999998,
          "velocity": 0.905511811023622
        },
        {
          "duration": 0.27521999999999025,
          "durationTicks": 384,
          "midi": 48,
          "name": "C3",
          "ticks": 316416,
          "time": 244.14240999999998,
          "velocity": 0.905511811023622
        },
        {
          "duration": 0.27521999999999025,
          "durationTicks": 384,
          "midi": 48,
          "name": "C3",
          "ticks": 317184,
          "time": 244.69285,
          "velocity": 0.905511811023622
        },
        {
          "duration": 0.27522000000001867,
          "durationTicks": 384,
          "midi": 48,
          "name": "C3",
          "ticks": 317952,
          "time": 245.24328999999997,
          "velocity": 0.905511811023622
        },
        {
          "duration": 1.7726800000000082,
          "durationTicks": 2496,
          "midi": 48,
          "name": "C3",
          "ticks": 318720,
          "time": 245.79372999999998,
          "velocity": 0.905511811023622
        },
        {
          "duration": 0.13635999999999626,
          "durationTicks": 192,
          "midi": 48,
          "name": "C3",
          "ticks": 321216,
          "time": 247.56641,
          "velocity": 0.905511811023622
        },
        {
          "duration": 0.13635999999999626,
          "durationTicks": 192,
          "midi": 48,
          "name": "C3",
          "ticks": 321408,
          "time": 247.70277,
          "velocity": 0.905511811023622
        },
        {
          "duration": 0.13635999999999626,
          "durationTicks": 192,
          "midi": 48,
          "name": "C3",
          "ticks": 321600,
          "time": 247.83912999999998,
          "velocity": 0.905511811023622
        },
        {
          "duration": 1.7726800000000082,
          "durationTicks": 2496,
          "midi": 43,
          "name": "G2",
          "ticks": 321792,
          "time": 247.97548999999998,
          "velocity": 0.905511811023622
        },
        {
          "duration": 0.13635999999999626,
          "durationTicks": 192,
          "midi": 43,
          "name": "G2",
          "ticks": 324288,
          "time": 249.74817,
          "velocity": 0.905511811023622
        },
        {
          "duration": 0.13635999999999626,
          "durationTicks": 192,
          "midi": 48,
          "name": "C3",
          "ticks": 324480,
          "time": 249.88452999999998,
          "velocity": 0.905511811023622
        },
        {
          "duration": 0.13635999999999626,
          "durationTicks": 192,
          "midi": 48,
          "name": "C3",
          "ticks": 324672,
          "time": 250.02088999999998,
          "velocity": 0.905511811023622
        },
        {
          "duration": 0.13635999999999626,
          "durationTicks": 192,
          "midi": 48,
          "name": "C3",
          "ticks": 324864,
          "time": 250.15724999999998,
          "velocity": 0.968503937007874
        },
        {
          "duration": 0.13635999999999626,
          "durationTicks": 192,
          "midi": 63,
          "name": "D#4",
          "ticks": 325056,
          "time": 250.29360999999997,
          "velocity": 0.968503937007874
        },
        {
          "duration": 0.13636000000002468,
          "durationTicks": 192,
          "midi": 63,
          "name": "D#4",
          "ticks": 325248,
          "time": 250.42996999999997,
          "velocity": 0.968503937007874
        },
        {
          "duration": 0.13635999999999626,
          "durationTicks": 192,
          "midi": 63,
          "name": "D#4",
          "ticks": 325440,
          "time": 250.56633,
          "velocity": 0.968503937007874
        },
        {
          "duration": 0.13635999999999626,
          "durationTicks": 192,
          "midi": 60,
          "name": "C4",
          "ticks": 325632,
          "time": 250.70269,
          "velocity": 0.968503937007874
        },
        {
          "duration": 0.13635999999999626,
          "durationTicks": 192,
          "midi": 57,
          "name": "A3",
          "ticks": 325824,
          "time": 250.83905,
          "velocity": 0.968503937007874
        },
        {
          "duration": 0.13635999999999626,
          "durationTicks": 192,
          "midi": 57,
          "name": "A3",
          "ticks": 326016,
          "time": 250.97540999999998,
          "velocity": 0.968503937007874
        },
        {
          "duration": 0.13635999999999626,
          "durationTicks": 192,
          "midi": 57,
          "name": "A3",
          "ticks": 326208,
          "time": 251.11176999999998,
          "velocity": 0.968503937007874
        },
        {
          "duration": 0.13635999999999626,
          "durationTicks": 192,
          "midi": 54,
          "name": "F#3",
          "ticks": 326400,
          "time": 251.24812999999997,
          "velocity": 0.968503937007874
        },
        {
          "duration": 0.13636000000002468,
          "durationTicks": 192,
          "midi": 51,
          "name": "D#3",
          "ticks": 326592,
          "time": 251.38448999999997,
          "velocity": 0.968503937007874
        },
        {
          "duration": 0.13635999999999626,
          "durationTicks": 192,
          "midi": 51,
          "name": "D#3",
          "ticks": 326784,
          "time": 251.52085,
          "velocity": 0.968503937007874
        },
        {
          "duration": 0.13635999999999626,
          "durationTicks": 192,
          "midi": 51,
          "name": "D#3",
          "ticks": 326976,
          "time": 251.65721,
          "velocity": 0.968503937007874
        },
        {
          "duration": 0.13635999999999626,
          "durationTicks": 192,
          "midi": 48,
          "name": "C3",
          "ticks": 327168,
          "time": 251.79357,
          "velocity": 0.968503937007874
        },
        {
          "duration": 0.13635999999999626,
          "durationTicks": 192,
          "midi": 45,
          "name": "A2",
          "ticks": 327360,
          "time": 251.92992999999998,
          "velocity": 0.968503937007874
        },
        {
          "duration": 0.13635999999999626,
          "durationTicks": 192,
          "midi": 45,
          "name": "A2",
          "ticks": 327552,
          "time": 252.06628999999998,
          "velocity": 0.968503937007874
        },
        {
          "duration": 0.13635999999999626,
          "durationTicks": 192,
          "midi": 45,
          "name": "A2",
          "ticks": 327744,
          "time": 252.20264999999998,
          "velocity": 0.968503937007874
        },
        {
          "duration": 0.2941099999999892,
          "durationTicks": 384,
          "midi": 48,
          "name": "C3",
          "ticks": 327936,
          "time": 252.33900999999997,
          "velocity": 0.968503937007874
        },
        {
          "duration": 0.2941099999999892,
          "durationTicks": 384,
          "midi": 47,
          "name": "B2",
          "ticks": 329472,
          "time": 253.51545,
          "velocity": 0.968503937007874
        },
        {
          "duration": 0.14705500000002303,
          "durationTicks": 192,
          "midi": 43,
          "name": "G2",
          "ticks": 335040,
          "time": 257.780045,
          "velocity": 0.7165354330708661
        },
        {
          "duration": 0.14705499999996618,
          "durationTicks": 192,
          "midi": 43,
          "name": "G2",
          "ticks": 335232,
          "time": 257.9271,
          "velocity": 0.7165354330708661
        },
        {
          "duration": 0.14705500000002303,
          "durationTicks": 192,
          "midi": 43,
          "name": "G2",
          "ticks": 335424,
          "time": 258.07415499999996,
          "velocity": 0.7165354330708661
        },
        {
          "duration": 0.2941099999999892,
          "durationTicks": 384,
          "midi": 48,
          "name": "C3",
          "ticks": 335616,
          "time": 258.22121,
          "velocity": 0.7165354330708661
        },
        {
          "duration": 0.1442299999999932,
          "durationTicks": 192,
          "midi": 43,
          "name": "G2",
          "ticks": 341184,
          "time": 262.47168,
          "velocity": 0.7165354330708661
        },
        {
          "duration": 0.1442299999999932,
          "durationTicks": 192,
          "midi": 43,
          "name": "G2",
          "ticks": 341376,
          "time": 262.61591,
          "velocity": 0.7165354330708661
        },
        {
          "duration": 0.1442299999999932,
          "durationTicks": 192,
          "midi": 43,
          "name": "G2",
          "ticks": 341568,
          "time": 262.76014,
          "velocity": 0.7165354330708661
        },
        {
          "duration": 0.2884599999999864,
          "durationTicks": 384,
          "midi": 48,
          "name": "C3",
          "ticks": 341760,
          "time": 262.90437,
          "velocity": 0.7165354330708661
        },
        {
          "duration": 0.14150500000005195,
          "durationTicks": 192,
          "midi": 48,
          "name": "C3",
          "ticks": 347328,
          "time": 267.07341499999995,
          "velocity": 0.7165354330708661
        },
        {
          "duration": 0.1415049999999951,
          "durationTicks": 192,
          "midi": 48,
          "name": "C3",
          "ticks": 347520,
          "time": 267.21492,
          "velocity": 0.7165354330708661
        },
        {
          "duration": 0.1415049999999951,
          "durationTicks": 192,
          "midi": 48,
          "name": "C3",
          "ticks": 347712,
          "time": 267.356425,
          "velocity": 0.7165354330708661
        },
        {
          "duration": 0.2830099999999902,
          "durationTicks": 384,
          "midi": 53,
          "name": "F3",
          "ticks": 347904,
          "time": 267.49793,
          "velocity": 0.7165354330708661
        },
        {
          "duration": 0.1415049999999951,
          "durationTicks": 192,
          "midi": 50,
          "name": "D3",
          "ticks": 350400,
          "time": 269.337495,
          "velocity": 0.7165354330708661
        },
        {
          "duration": 0.1415049999999951,
          "durationTicks": 192,
          "midi": 50,
          "name": "D3",
          "ticks": 350592,
          "time": 269.479,
          "velocity": 0.7165354330708661
        },
        {
          "duration": 0.1415049999999951,
          "durationTicks": 192,
          "midi": 50,
          "name": "D3",
          "ticks": 350784,
          "time": 269.620505,
          "velocity": 0.7165354330708661
        },
        {
          "duration": 0.2830099999999902,
          "durationTicks": 384,
          "midi": 55,
          "name": "G3",
          "ticks": 350976,
          "time": 269.76201,
          "velocity": 0.7165354330708661
        },
        {
          "duration": 0.28301000000004706,
          "durationTicks": 384,
          "midi": 65,
          "name": "F4",
          "ticks": 351744,
          "time": 270.32802999999996,
          "velocity": 0.7165354330708661
        },
        {
          "duration": 0.2830099999999902,
          "durationTicks": 384,
          "midi": 67,
          "name": "G4",
          "ticks": 352128,
          "time": 270.61104,
          "velocity": 0.7165354330708661
        },
        {
          "duration": 0.2830099999999902,
          "durationTicks": 384,
          "midi": 68,
          "name": "G#4",
          "ticks": 352512,
          "time": 270.89405,
          "velocity": 0.7165354330708661
        },
        {
          "duration": 0.2830099999999902,
          "durationTicks": 384,
          "midi": 67,
          "name": "G4",
          "ticks": 352896,
          "time": 271.17706,
          "velocity": 0.7165354330708661
        },
        {
          "duration": 0.2830099999999902,
          "durationTicks": 384,
          "midi": 65,
          "name": "F4",
          "ticks": 353280,
          "time": 271.46007,
          "velocity": 0.7165354330708661
        },
        {
          "duration": 0.2830099999999902,
          "durationTicks": 384,
          "midi": 67,
          "name": "G4",
          "ticks": 353664,
          "time": 271.74307999999996,
          "velocity": 0.7165354330708661
        },
        {
          "duration": 0.28301000000004706,
          "durationTicks": 384,
          "midi": 68,
          "name": "G#4",
          "ticks": 354048,
          "time": 272.02608999999995,
          "velocity": 0.7952755905511811
        },
        {
          "duration": 0.2830099999999902,
          "durationTicks": 384,
          "midi": 67,
          "name": "G4",
          "ticks": 354432,
          "time": 272.3091,
          "velocity": 0.7952755905511811
        },
        {
          "duration": 0.2830099999999902,
          "durationTicks": 384,
          "midi": 65,
          "name": "F4",
          "ticks": 354816,
          "time": 272.59211,
          "velocity": 0.7952755905511811
        },
        {
          "duration": 0.2830099999999902,
          "durationTicks": 384,
          "midi": 67,
          "name": "G4",
          "ticks": 355200,
          "time": 272.87512,
          "velocity": 0.7952755905511811
        },
        {
          "duration": 0.2830099999999902,
          "durationTicks": 384,
          "midi": 68,
          "name": "G#4",
          "ticks": 355584,
          "time": 273.15812999999997,
          "velocity": 0.7952755905511811
        },
        {
          "duration": 0.2830099999999902,
          "durationTicks": 384,
          "midi": 67,
          "name": "G4",
          "ticks": 355968,
          "time": 273.44113999999996,
          "velocity": 0.7952755905511811
        },
        {
          "duration": 0.28301000000004706,
          "durationTicks": 384,
          "midi": 65,
          "name": "F4",
          "ticks": 356352,
          "time": 273.72414999999995,
          "velocity": 0.7952755905511811
        },
        {
          "duration": 0.2830099999999902,
          "durationTicks": 384,
          "midi": 67,
          "name": "G4",
          "ticks": 356736,
          "time": 274.00716,
          "velocity": 0.7952755905511811
        },
        {
          "duration": 0.2830099999999902,
          "durationTicks": 384,
          "midi": 68,
          "name": "G#4",
          "ticks": 357120,
          "time": 274.29017,
          "velocity": 0.8582677165354331
        },
        {
          "duration": 0.2830099999999902,
          "durationTicks": 384,
          "midi": 67,
          "name": "G4",
          "ticks": 357504,
          "time": 274.57318,
          "velocity": 0.8582677165354331
        },
        {
          "duration": 0.2830099999999902,
          "durationTicks": 384,
          "midi": 66,
          "name": "F#4",
          "ticks": 357888,
          "time": 274.85618999999997,
          "velocity": 0.8582677165354331
        },
        {
          "duration": 0.2830099999999902,
          "durationTicks": 384,
          "midi": 67,
          "name": "G4",
          "ticks": 358272,
          "time": 275.13919999999996,
          "velocity": 0.8582677165354331
        },
        {
          "duration": 0.28301000000004706,
          "durationTicks": 384,
          "midi": 69,
          "name": "A4",
          "ticks": 358656,
          "time": 275.42220999999995,
          "velocity": 0.8582677165354331
        },
        {
          "duration": 0.2830099999999902,
          "durationTicks": 384,
          "midi": 67,
          "name": "G4",
          "ticks": 359040,
          "time": 275.70522,
          "velocity": 0.8582677165354331
        },
        {
          "duration": 0.2830099999999902,
          "durationTicks": 384,
          "midi": 66,
          "name": "F#4",
          "ticks": 359424,
          "time": 275.98823,
          "velocity": 0.8582677165354331
        },
        {
          "duration": 0.2830099999999902,
          "durationTicks": 384,
          "midi": 67,
          "name": "G4",
          "ticks": 359808,
          "time": 276.27124,
          "velocity": 0.8582677165354331
        },
        {
          "duration": 0.2777699999999754,
          "durationTicks": 384,
          "midi": 69,
          "name": "A4",
          "ticks": 360192,
          "time": 276.55424999999997,
          "velocity": 0.905511811023622
        },
        {
          "duration": 0.27777000000003227,
          "durationTicks": 384,
          "midi": 67,
          "name": "G4",
          "ticks": 360576,
          "time": 276.83201999999994,
          "velocity": 0.905511811023622
        },
        {
          "duration": 0.2777699999999754,
          "durationTicks": 384,
          "midi": 66,
          "name": "F#4",
          "ticks": 360960,
          "time": 277.10979,
          "velocity": 0.905511811023622
        },
        {
          "duration": 0.27777000000003227,
          "durationTicks": 384,
          "midi": 67,
          "name": "G4",
          "ticks": 361344,
          "time": 277.38755999999995,
          "velocity": 0.905511811023622
        },
        {
          "duration": 0.2777699999999754,
          "durationTicks": 384,
          "midi": 66,
          "name": "F#4",
          "ticks": 361728,
          "time": 277.66533,
          "velocity": 0.905511811023622
        },
        {
          "duration": 0.27777000000003227,
          "durationTicks": 384,
          "midi": 67,
          "name": "G4",
          "ticks": 362112,
          "time": 277.94309999999996,
          "velocity": 0.905511811023622
        },
        {
          "duration": 0.2777699999999754,
          "durationTicks": 384,
          "midi": 66,
          "name": "F#4",
          "ticks": 362496,
          "time": 278.22087,
          "velocity": 0.905511811023622
        },
        {
          "duration": 0.2777699999999754,
          "durationTicks": 384,
          "midi": 67,
          "name": "G4",
          "ticks": 362880,
          "time": 278.49863999999997,
          "velocity": 0.905511811023622
        },
        {
          "duration": 0.83331000000004,
          "durationTicks": 1152,
          "midi": 62,
          "name": "D4",
          "ticks": 363264,
          "time": 278.77640999999994,
          "velocity": 0.968503937007874
        },
        {
          "duration": 0.2777699999999754,
          "durationTicks": 384,
          "midi": 59,
          "name": "B3",
          "ticks": 364416,
          "time": 279.60972,
          "velocity": 0.968503937007874
        },
        {
          "duration": 0.27777000000003227,
          "durationTicks": 384,
          "midi": 60,
          "name": "C4",
          "ticks": 364800,
          "time": 279.88748999999996,
          "velocity": 0.968503937007874
        },
        {
          "duration": 0.2777699999999754,
          "durationTicks": 384,
          "midi": 62,
          "name": "D4",
          "ticks": 365568,
          "time": 280.44302999999996,
          "velocity": 0.968503937007874
        },
        {
          "duration": 0.2777699999999754,
          "durationTicks": 384,
          "midi": 64,
          "name": "E4",
          "ticks": 366336,
          "time": 280.99857,
          "velocity": 0.968503937007874
        },
        {
          "duration": 0.2777699999999754,
          "durationTicks": 384,
          "midi": 65,
          "name": "F4",
          "ticks": 367104,
          "time": 281.55411,
          "velocity": 0.968503937007874
        },
        {
          "duration": 0.2777699999999754,
          "durationTicks": 384,
          "midi": 67,
          "name": "G4",
          "ticks": 367872,
          "time": 282.10965,
          "velocity": 0.968503937007874
        },
        {
          "duration": 0.2777699999999754,
          "durationTicks": 384,
          "midi": 59,
          "name": "B3",
          "ticks": 368640,
          "time": 282.66519,
          "velocity": 0.968503937007874
        },
        {
          "duration": 0.27777000000003227,
          "durationTicks": 384,
          "midi": 47,
          "name": "B2",
          "ticks": 369408,
          "time": 283.22072999999995,
          "velocity": 0.968503937007874
        },
        {
          "duration": 0.2777699999999754,
          "durationTicks": 384,
          "midi": 50,
          "name": "D3",
          "ticks": 369792,
          "time": 283.4985,
          "velocity": 0.968503937007874
        },
        {
          "duration": 0.27777000000003227,
          "durationTicks": 384,
          "midi": 47,
          "name": "B2",
          "ticks": 370176,
          "time": 283.77626999999995,
          "velocity": 0.968503937007874
        },
        {
          "duration": 0.2777699999999754,
          "durationTicks": 384,
          "midi": 50,
          "name": "D3",
          "ticks": 370560,
          "time": 284.05404,
          "velocity": 0.968503937007874
        },
        {
          "duration": 0.27777000000003227,
          "durationTicks": 384,
          "midi": 48,
          "name": "C3",
          "ticks": 370944,
          "time": 284.33180999999996,
          "velocity": 0.968503937007874
        },
        {
          "duration": 0.2777699999999754,
          "durationTicks": 384,
          "midi": 52,
          "name": "E3",
          "ticks": 371328,
          "time": 284.60958,
          "velocity": 0.968503937007874
        },
        {
          "duration": 0.2777699999999754,
          "durationTicks": 384,
          "midi": 50,
          "name": "D3",
          "ticks": 371712,
          "time": 284.88734999999997,
          "velocity": 0.968503937007874
        },
        {
          "duration": 0.27777000000003227,
          "durationTicks": 384,
          "midi": 53,
          "name": "F3",
          "ticks": 372096,
          "time": 285.16511999999994,
          "velocity": 0.968503937007874
        },
        {
          "duration": 0.2777699999999754,
          "durationTicks": 384,
          "midi": 52,
          "name": "E3",
          "ticks": 372480,
          "time": 285.44289,
          "velocity": 0.968503937007874
        },
        {
          "duration": 0.27777000000003227,
          "durationTicks": 384,
          "midi": 55,
          "name": "G3",
          "ticks": 372864,
          "time": 285.72065999999995,
          "velocity": 0.968503937007874
        },
        {
          "duration": 0.2777699999999754,
          "durationTicks": 384,
          "midi": 53,
          "name": "F3",
          "ticks": 373248,
          "time": 285.99843,
          "velocity": 0.968503937007874
        },
        {
          "duration": 0.27777000000003227,
          "durationTicks": 384,
          "midi": 57,
          "name": "A3",
          "ticks": 373632,
          "time": 286.27619999999996,
          "velocity": 0.968503937007874
        },
        {
          "duration": 0.2777699999999754,
          "durationTicks": 384,
          "midi": 55,
          "name": "G3",
          "ticks": 374016,
          "time": 286.55397,
          "velocity": 0.968503937007874
        },
        {
          "duration": 0.2777699999999754,
          "durationTicks": 384,
          "midi": 43,
          "name": "G2",
          "ticks": 374400,
          "time": 286.83173999999997,
          "velocity": 0.968503937007874
        },
        {
          "duration": 0.27777000000003227,
          "durationTicks": 384,
          "midi": 55,
          "name": "G3",
          "ticks": 374784,
          "time": 287.10950999999994,
          "velocity": 0.968503937007874
        },
        {
          "duration": 0.2777699999999754,
          "durationTicks": 384,
          "midi": 43,
          "name": "G2",
          "ticks": 375168,
          "time": 287.38728,
          "velocity": 0.968503937007874
        },
        {
          "duration": 1.8055050000000392,
          "durationTicks": 2496,
          "midi": 48,
          "name": "C3",
          "ticks": 375552,
          "time": 287.66504999999995,
          "velocity": 0.968503937007874
        },
        {
          "duration": 0.1388849999999593,
          "durationTicks": 192,
          "midi": 43,
          "name": "G2",
          "ticks": 378048,
          "time": 289.470555,
          "velocity": 0.968503937007874
        },
        {
          "duration": 0.13888500000001613,
          "durationTicks": 192,
          "midi": 43,
          "name": "G2",
          "ticks": 378240,
          "time": 289.60943999999995,
          "velocity": 0.968503937007874
        },
        {
          "duration": 0.13888500000001613,
          "durationTicks": 192,
          "midi": 43,
          "name": "G2",
          "ticks": 378432,
          "time": 289.74832499999997,
          "velocity": 0.968503937007874
        },
        {
          "duration": 1.8055049999999824,
          "durationTicks": 2496,
          "midi": 48,
          "name": "C3",
          "ticks": 378624,
          "time": 289.88721,
          "velocity": 0.968503937007874
        },
        {
          "duration": 0.13888500000001613,
          "durationTicks": 192,
          "midi": 43,
          "name": "G2",
          "ticks": 381120,
          "time": 291.69271499999996,
          "velocity": 0.968503937007874
        },
        {
          "duration": 0.1388849999999593,
          "durationTicks": 192,
          "midi": 43,
          "name": "G2",
          "ticks": 381312,
          "time": 291.8316,
          "velocity": 0.968503937007874
        },
        {
          "duration": 0.13888500000001613,
          "durationTicks": 192,
          "midi": 43,
          "name": "G2",
          "ticks": 381504,
          "time": 291.97048499999994,
          "velocity": 0.968503937007874
        },
        {
          "duration": 0.27777000000003227,
          "durationTicks": 384,
          "midi": 48,
          "name": "C3",
          "ticks": 381696,
          "time": 292.10936999999996,
          "velocity": 0.968503937007874
        },
        {
          "duration": 0.13888500000001613,
          "durationTicks": 192,
          "midi": 43,
          "name": "G2",
          "ticks": 382656,
          "time": 292.803795,
          "velocity": 0.968503937007874
        },
        {
          "duration": 0.1388849999999593,
          "durationTicks": 192,
          "midi": 43,
          "name": "G2",
          "ticks": 382848,
          "time": 292.94268,
          "velocity": 0.968503937007874
        },
        {
          "duration": 0.13888500000001613,
          "durationTicks": 192,
          "midi": 43,
          "name": "G2",
          "ticks": 383040,
          "time": 293.08156499999996,
          "velocity": 0.968503937007874
        },
        {
          "duration": 0.2777699999999754,
          "durationTicks": 384,
          "midi": 48,
          "name": "C3",
          "ticks": 383232,
          "time": 293.22044999999997,
          "velocity": 0.968503937007874
        },
        {
          "duration": 0.1388849999999593,
          "durationTicks": 192,
          "midi": 43,
          "name": "G2",
          "ticks": 384192,
          "time": 293.914875,
          "velocity": 0.968503937007874
        },
        {
          "duration": 0.13888500000001613,
          "durationTicks": 192,
          "midi": 43,
          "name": "G2",
          "ticks": 384384,
          "time": 294.05375999999995,
          "velocity": 0.968503937007874
        },
        {
          "duration": 0.13888500000001613,
          "durationTicks": 192,
          "midi": 43,
          "name": "G2",
          "ticks": 384576,
          "time": 294.19264499999997,
          "velocity": 0.968503937007874
        },
        {
          "duration": 0.694424999999967,
          "durationTicks": 960,
          "midi": 48,
          "name": "C3",
          "ticks": 384768,
          "time": 294.33153,
          "velocity": 0.968503937007874
        },
        {
          "duration": 0.13888500000001613,
          "durationTicks": 192,
          "midi": 48,
          "name": "C3",
          "ticks": 385728,
          "time": 295.02595499999995,
          "velocity": 0.968503937007874
        },
        {
          "duration": 0.13888500000001613,
          "durationTicks": 192,
          "midi": 48,
          "name": "C3",
          "ticks": 385920,
          "time": 295.16483999999997,
          "velocity": 0.968503937007874
        },
        {
          "duration": 0.1388849999999593,
          "durationTicks": 192,
          "midi": 48,
          "name": "C3",
          "ticks": 386112,
          "time": 295.303725,
          "velocity": 0.968503937007874
        },
        {
          "duration": 0.6944250000000238,
          "durationTicks": 960,
          "midi": 44,
          "name": "G#2",
          "ticks": 386304,
          "time": 295.44260999999995,
          "velocity": 0.968503937007874
        },
        {
          "duration": 0.13888500000001613,
          "durationTicks": 192,
          "midi": 44,
          "name": "G#2",
          "ticks": 387264,
          "time": 296.13703499999997,
          "velocity": 0.968503937007874
        },
        {
          "duration": 0.1388849999999593,
          "durationTicks": 192,
          "midi": 44,
          "name": "G#2",
          "ticks": 387456,
          "time": 296.27592,
          "velocity": 0.968503937007874
        },
        {
          "duration": 0.13888500000001613,
          "durationTicks": 192,
          "midi": 44,
          "name": "G#2",
          "ticks": 387648,
          "time": 296.41480499999994,
          "velocity": 0.968503937007874
        },
        {
          "duration": 0.6944250000000238,
          "durationTicks": 960,
          "midi": 52,
          "name": "E3",
          "ticks": 387840,
          "time": 296.55368999999996,
          "velocity": 0.968503937007874
        },
        {
          "duration": 0.1388849999999593,
          "durationTicks": 192,
          "midi": 52,
          "name": "E3",
          "ticks": 388800,
          "time": 297.248115,
          "velocity": 0.968503937007874
        },
        {
          "duration": 0.13888500000001613,
          "durationTicks": 192,
          "midi": 52,
          "name": "E3",
          "ticks": 388992,
          "time": 297.38699999999994,
          "velocity": 0.968503937007874
        },
        {
          "duration": 0.13888500000001613,
          "durationTicks": 192,
          "midi": 52,
          "name": "E3",
          "ticks": 389184,
          "time": 297.52588499999996,
          "velocity": 0.968503937007874
        },
        {
          "duration": 0.694424999999967,
          "durationTicks": 960,
          "midi": 53,
          "name": "F3",
          "ticks": 389376,
          "time": 297.66477,
          "velocity": 0.968503937007874
        },
        {
          "duration": 0.13888500000001613,
          "durationTicks": 192,
          "midi": 53,
          "name": "F3",
          "ticks": 390336,
          "time": 298.35919499999994,
          "velocity": 0.968503937007874
        },
        {
          "duration": 0.13888500000001613,
          "durationTicks": 192,
          "midi": 53,
          "name": "F3",
          "ticks": 390528,
          "time": 298.49807999999996,
          "velocity": 0.968503937007874
        },
        {
          "duration": 0.13888500000001613,
          "durationTicks": 192,
          "midi": 53,
          "name": "F3",
          "ticks": 390720,
          "time": 298.636965,
          "velocity": 0.968503937007874
        },
        {
          "duration": 0.1388849999999593,
          "durationTicks": 192,
          "midi": 41,
          "name": "F2",
          "ticks": 390912,
          "time": 298.77585,
          "velocity": 0.968503937007874
        },
        {
          "duration": 0.13888500000001613,
          "durationTicks": 192,
          "midi": 53,
          "name": "F3",
          "ticks": 391104,
          "time": 298.91473499999995,
          "velocity": 0.968503937007874
        },
        {
          "duration": 0.13888500000001613,
          "durationTicks": 192,
          "midi": 53,
          "name": "F3",
          "ticks": 391296,
          "time": 299.05361999999997,
          "velocity": 0.968503937007874
        },
        {
          "duration": 0.1388849999999593,
          "durationTicks": 192,
          "midi": 53,
          "name": "F3",
          "ticks": 391488,
          "time": 299.192505,
          "velocity": 0.968503937007874
        },
        {
          "duration": 0.13888500000001613,
          "durationTicks": 192,
          "midi": 53,
          "name": "F3",
          "ticks": 391680,
          "time": 299.33138999999994,
          "velocity": 0.968503937007874
        },
        {
          "duration": 0.13888500000001613,
          "durationTicks": 192,
          "midi": 53,
          "name": "F3",
          "ticks": 391872,
          "time": 299.47027499999996,
          "velocity": 0.968503937007874
        },
        {
          "duration": 0.13888500000001613,
          "durationTicks": 192,
          "midi": 53,
          "name": "F3",
          "ticks": 392064,
          "time": 299.60916,
          "velocity": 0.968503937007874
        },
        {
          "duration": 0.1388849999999593,
          "durationTicks": 192,
          "midi": 53,
          "name": "F3",
          "ticks": 392256,
          "time": 299.748045,
          "velocity": 0.968503937007874
        },
        {
          "duration": 0.13888500000001613,
          "durationTicks": 192,
          "midi": 53,
          "name": "F3",
          "ticks": 392448,
          "time": 299.88692999999995,
          "velocity": 0.968503937007874
        },
        {
          "duration": 0.13888500000001613,
          "durationTicks": 192,
          "midi": 53,
          "name": "F3",
          "ticks": 392640,
          "time": 300.02581499999997,
          "velocity": 0.968503937007874
        },
        {
          "duration": 0.13888500000001613,
          "durationTicks": 192,
          "midi": 53,
          "name": "F3",
          "ticks": 392832,
          "time": 300.1647,
          "velocity": 0.968503937007874
        },
        {
          "duration": 0.1388849999999593,
          "durationTicks": 192,
          "midi": 53,
          "name": "F3",
          "ticks": 393024,
          "time": 300.303585,
          "velocity": 0.968503937007874
        },
        {
          "duration": 0.13888500000001613,
          "durationTicks": 192,
          "midi": 53,
          "name": "F3",
          "ticks": 393216,
          "time": 300.44246999999996,
          "velocity": 0.968503937007874
        },
        {
          "duration": 0.13888500000001613,
          "durationTicks": 192,
          "midi": 53,
          "name": "F3",
          "ticks": 393408,
          "time": 300.581355,
          "velocity": 0.968503937007874
        },
        {
          "duration": 0.1388849999999593,
          "durationTicks": 192,
          "midi": 53,
          "name": "F3",
          "ticks": 393600,
          "time": 300.72024,
          "velocity": 0.968503937007874
        },
        {
          "duration": 0.13888500000001613,
          "durationTicks": 192,
          "midi": 53,
          "name": "F3",
          "ticks": 393792,
          "time": 300.85912499999995,
          "velocity": 0.968503937007874
        },
        {
          "duration": 0.2777699999999754,
          "durationTicks": 384,
          "midi": 53,
          "name": "F3",
          "ticks": 393984,
          "time": 300.99800999999997,
          "velocity": 0.968503937007874
        },
        {
          "duration": 0.13888500000001613,
          "durationTicks": 192,
          "midi": 42,
          "name": "F#2",
          "ticks": 397248,
          "time": 303.35905499999996,
          "velocity": 0.968503937007874
        },
        {
          "duration": 0.13888500000001613,
          "durationTicks": 192,
          "midi": 42,
          "name": "F#2",
          "ticks": 397440,
          "time": 303.49793999999997,
          "velocity": 0.968503937007874
        },
        {
          "duration": 0.1388849999999593,
          "durationTicks": 192,
          "midi": 42,
          "name": "F#2",
          "ticks": 397632,
          "time": 303.636825,
          "velocity": 0.968503937007874
        },
        {
          "duration": 0.13888500000001613,
          "durationTicks": 192,
          "midi": 42,
          "name": "F#2",
          "ticks": 397824,
          "time": 303.77570999999995,
          "velocity": 0.968503937007874
        },
        {
          "duration": 0.13888500000001613,
          "durationTicks": 192,
          "midi": 54,
          "name": "F#3",
          "ticks": 398016,
          "time": 303.91459499999996,
          "velocity": 0.968503937007874
        },
        {
          "duration": 0.13888500000001613,
          "durationTicks": 192,
          "midi": 54,
          "name": "F#3",
          "ticks": 398208,
          "time": 304.05348,
          "velocity": 0.968503937007874
        },
        {
          "duration": 0.1388849999999593,
          "durationTicks": 192,
          "midi": 54,
          "name": "F#3",
          "ticks": 398400,
          "time": 304.192365,
          "velocity": 0.968503937007874
        },
        {
          "duration": 0.13888500000001613,
          "durationTicks": 192,
          "midi": 54,
          "name": "F#3",
          "ticks": 398592,
          "time": 304.33124999999995,
          "velocity": 0.968503937007874
        },
        {
          "duration": 0.13888500000001613,
          "durationTicks": 192,
          "midi": 54,
          "name": "F#3",
          "ticks": 398784,
          "time": 304.47013499999997,
          "velocity": 0.968503937007874
        },
        {
          "duration": 0.1388849999999593,
          "durationTicks": 192,
          "midi": 54,
          "name": "F#3",
          "ticks": 398976,
          "time": 304.60902,
          "velocity": 0.968503937007874
        },
        {
          "duration": 0.13888500000001613,
          "durationTicks": 192,
          "midi": 54,
          "name": "F#3",
          "ticks": 399168,
          "time": 304.74790499999995,
          "velocity": 0.968503937007874
        },
        {
          "duration": 0.13888500000001613,
          "durationTicks": 192,
          "midi": 54,
          "name": "F#3",
          "ticks": 399360,
          "time": 304.88678999999996,
          "velocity": 0.968503937007874
        },
        {
          "duration": 0.13888500000001613,
          "durationTicks": 192,
          "midi": 54,
          "name": "F#3",
          "ticks": 399552,
          "time": 305.025675,
          "velocity": 0.968503937007874
        },
        {
          "duration": 0.1388849999999593,
          "durationTicks": 192,
          "midi": 54,
          "name": "F#3",
          "ticks": 399744,
          "time": 305.16456,
          "velocity": 0.968503937007874
        },
        {
          "duration": 0.13888500000001613,
          "durationTicks": 192,
          "midi": 54,
          "name": "F#3",
          "ticks": 399936,
          "time": 305.30344499999995,
          "velocity": 0.968503937007874
        },
        {
          "duration": 0.13888500000001613,
          "durationTicks": 192,
          "midi": 54,
          "name": "F#3",
          "ticks": 400128,
          "time": 305.44232999999997,
          "velocity": 0.968503937007874
        },
        {
          "duration": 0.1388849999999593,
          "durationTicks": 192,
          "midi": 54,
          "name": "F#3",
          "ticks": 400320,
          "time": 305.581215,
          "velocity": 0.968503937007874
        },
        {
          "duration": 0.13888500000001613,
          "durationTicks": 192,
          "midi": 54,
          "name": "F#3",
          "ticks": 400512,
          "time": 305.72009999999995,
          "velocity": 0.968503937007874
        },
        {
          "duration": 0.13888500000001613,
          "durationTicks": 192,
          "midi": 54,
          "name": "F#3",
          "ticks": 400704,
          "time": 305.85898499999996,
          "velocity": 0.968503937007874
        },
        {
          "duration": 0.2777699999999754,
          "durationTicks": 384,
          "midi": 54,
          "name": "F#3",
          "ticks": 400896,
          "time": 305.99787,
          "velocity": 0.968503937007874
        },
        {
          "duration": 0.13888500000001613,
          "durationTicks": 192,
          "midi": 67,
          "name": "G4",
          "ticks": 403392,
          "time": 307.80337499999996,
          "velocity": 0.905511811023622
        },
        {
          "duration": 0.13888500000001613,
          "durationTicks": 192,
          "midi": 67,
          "name": "G4",
          "ticks": 403584,
          "time": 307.94226,
          "velocity": 0.905511811023622
        },
        {
          "duration": 0.1388849999999593,
          "durationTicks": 192,
          "midi": 67,
          "name": "G4",
          "ticks": 403776,
          "time": 308.081145,
          "velocity": 0.905511811023622
        },
        {
          "duration": 0.5555400000000077,
          "durationTicks": 768,
          "midi": 63,
          "name": "D#4",
          "ticks": 403968,
          "time": 308.22002999999995,
          "velocity": 0.905511811023622
        },
        {
          "duration": 0.5555400000000077,
          "durationTicks": 768,
          "midi": 65,
          "name": "F4",
          "ticks": 404736,
          "time": 308.77556999999996,
          "velocity": 0.905511811023622
        },
        {
          "duration": 0.6944250000000238,
          "durationTicks": 960,
          "midi": 62,
          "name": "D4",
          "ticks": 405504,
          "time": 309.33110999999997,
          "velocity": 0.905511811023622
        },
        {
          "duration": 0.1388849999999593,
          "durationTicks": 192,
          "midi": 67,
          "name": "G4",
          "ticks": 406464,
          "time": 310.025535,
          "velocity": 0.905511811023622
        },
        {
          "duration": 0.13888500000001613,
          "durationTicks": 192,
          "midi": 67,
          "name": "G4",
          "ticks": 406656,
          "time": 310.16441999999995,
          "velocity": 0.905511811023622
        },
        {
          "duration": 0.13888500000001613,
          "durationTicks": 192,
          "midi": 67,
          "name": "G4",
          "ticks": 406848,
          "time": 310.30330499999997,
          "velocity": 0.905511811023622
        },
        {
          "duration": 0.5555400000000077,
          "durationTicks": 768,
          "midi": 63,
          "name": "D#4",
          "ticks": 407040,
          "time": 310.44219,
          "velocity": 0.905511811023622
        },
        {
          "duration": 0.5555400000000077,
          "durationTicks": 768,
          "midi": 65,
          "name": "F4",
          "ticks": 407808,
          "time": 310.99773,
          "velocity": 0.905511811023622
        },
        {
          "duration": 0.694424999999967,
          "durationTicks": 960,
          "midi": 62,
          "name": "D4",
          "ticks": 408576,
          "time": 311.55327,
          "velocity": 0.905511811023622
        },
        {
          "duration": 0.13888500000001613,
          "durationTicks": 192,
          "midi": 67,
          "name": "G4",
          "ticks": 409536,
          "time": 312.24769499999996,
          "velocity": 0.905511811023622
        },
        {
          "duration": 0.1388849999999593,
          "durationTicks": 192,
          "midi": 67,
          "name": "G4",
          "ticks": 409728,
          "time": 312.38658,
          "velocity": 0.905511811023622
        },
        {
          "duration": 0.13888500000001613,
          "durationTicks": 192,
          "midi": 67,
          "name": "G4",
          "ticks": 409920,
          "time": 312.52546499999994,
          "velocity": 0.905511811023622
        },
        {
          "duration": 0.27777000000003227,
          "durationTicks": 384,
          "midi": 63,
          "name": "D#4",
          "ticks": 410112,
          "time": 312.66434999999996,
          "velocity": 0.905511811023622
        },
        {
          "duration": 0.2777699999999754,
          "durationTicks": 384,
          "midi": 65,
          "name": "F4",
          "ticks": 410496,
          "time": 312.94212,
          "velocity": 0.905511811023622
        },
        {
          "duration": 0.27777000000003227,
          "durationTicks": 384,
          "midi": 62,
          "name": "D4",
          "ticks": 410880,
          "time": 313.21988999999996,
          "velocity": 0.905511811023622
        },
        {
          "duration": 0.2777699999999754,
          "durationTicks": 384,
          "midi": 63,
          "name": "D#4",
          "ticks": 411264,
          "time": 313.49766,
          "velocity": 0.905511811023622
        },
        {
          "duration": 0.2777699999999754,
          "durationTicks": 384,
          "midi": 60,
          "name": "C4",
          "ticks": 411648,
          "time": 313.77543,
          "velocity": 0.905511811023622
        },
        {
          "duration": 0.27777000000003227,
          "durationTicks": 384,
          "midi": 62,
          "name": "D4",
          "ticks": 412032,
          "time": 314.05319999999995,
          "velocity": 0.905511811023622
        },
        {
          "duration": 0.2777699999999754,
          "durationTicks": 384,
          "midi": 58,
          "name": "A#3",
          "ticks": 412416,
          "time": 314.33097,
          "velocity": 0.905511811023622
        },
        {
          "duration": 0.27777000000003227,
          "durationTicks": 384,
          "midi": 60,
          "name": "C4",
          "ticks": 412800,
          "time": 314.60873999999995,
          "velocity": 0.905511811023622
        },
        {
          "duration": 0.2777699999999754,
          "durationTicks": 384,
          "midi": 56,
          "name": "G#3",
          "ticks": 413184,
          "time": 314.88651,
          "velocity": 0.905511811023622
        },
        {
          "duration": 0.27777000000003227,
          "durationTicks": 384,
          "midi": 58,
          "name": "A#3",
          "ticks": 413568,
          "time": 315.16427999999996,
          "velocity": 0.905511811023622
        },
        {
          "duration": 0.2777699999999754,
          "durationTicks": 384,
          "midi": 55,
          "name": "G3",
          "ticks": 413952,
          "time": 315.44205,
          "velocity": 0.905511811023622
        },
        {
          "duration": 0.2777699999999754,
          "durationTicks": 384,
          "midi": 56,
          "name": "G#3",
          "ticks": 414336,
          "time": 315.71981999999997,
          "velocity": 0.905511811023622
        },
        {
          "duration": 0.27777000000003227,
          "durationTicks": 384,
          "midi": 53,
          "name": "F3",
          "ticks": 414720,
          "time": 315.99758999999995,
          "velocity": 0.905511811023622
        },
        {
          "duration": 0.2777699999999754,
          "durationTicks": 384,
          "midi": 55,
          "name": "G3",
          "ticks": 415104,
          "time": 316.27536,
          "velocity": 0.905511811023622
        },
        {
          "duration": 0.27777000000003227,
          "durationTicks": 384,
          "midi": 51,
          "name": "D#3",
          "ticks": 415488,
          "time": 316.55312999999995,
          "velocity": 0.905511811023622
        },
        {
          "duration": 0.2777699999999754,
          "durationTicks": 384,
          "midi": 53,
          "name": "F3",
          "ticks": 415872,
          "time": 316.8309,
          "velocity": 0.905511811023622
        },
        {
          "duration": 0.27777000000003227,
          "durationTicks": 384,
          "midi": 50,
          "name": "D3",
          "ticks": 416256,
          "time": 317.10866999999996,
          "velocity": 0.905511811023622
        },
        {
          "duration": 0.2777699999999754,
          "durationTicks": 384,
          "midi": 48,
          "name": "C3",
          "ticks": 416640,
          "time": 317.38644,
          "velocity": 0.905511811023622
        },
        {
          "duration": 0.2777699999999754,
          "durationTicks": 384,
          "midi": 47,
          "name": "B2",
          "ticks": 417024,
          "time": 317.66420999999997,
          "velocity": 0.905511811023622
        },
        {
          "duration": 0.27777000000003227,
          "durationTicks": 384,
          "midi": 48,
          "name": "C3",
          "ticks": 417408,
          "time": 317.94197999999994,
          "velocity": 0.905511811023622
        },
        {
          "duration": 0.2777699999999754,
          "durationTicks": 384,
          "midi": 50,
          "name": "D3",
          "ticks": 417792,
          "time": 318.21975,
          "velocity": 0.905511811023622
        },
        {
          "duration": 0.27777000000003227,
          "durationTicks": 384,
          "midi": 48,
          "name": "C3",
          "ticks": 418176,
          "time": 318.49751999999995,
          "velocity": 0.905511811023622
        },
        {
          "duration": 0.2777699999999754,
          "durationTicks": 384,
          "midi": 50,
          "name": "D3",
          "ticks": 418560,
          "time": 318.77529,
          "velocity": 0.905511811023622
        },
        {
          "duration": 0.27777000000003227,
          "durationTicks": 384,
          "midi": 52,
          "name": "E3",
          "ticks": 418944,
          "time": 319.05305999999996,
          "velocity": 0.905511811023622
        },
        {
          "duration": 0.2777699999999754,
          "durationTicks": 384,
          "midi": 53,
          "name": "F3",
          "ticks": 419328,
          "time": 319.33083,
          "velocity": 0.905511811023622
        },
        {
          "duration": 0.2777699999999754,
          "durationTicks": 384,
          "midi": 52,
          "name": "E3",
          "ticks": 419712,
          "time": 319.60859999999997,
          "velocity": 0.905511811023622
        },
        {
          "duration": 0.27777000000003227,
          "durationTicks": 384,
          "midi": 53,
          "name": "F3",
          "ticks": 420096,
          "time": 319.88636999999994,
          "velocity": 0.905511811023622
        },
        {
          "duration": 0.2777699999999754,
          "durationTicks": 384,
          "midi": 55,
          "name": "G3",
          "ticks": 420480,
          "time": 320.16414,
          "velocity": 0.905511811023622
        },
        {
          "duration": 0.27777000000003227,
          "durationTicks": 384,
          "midi": 56,
          "name": "G#3",
          "ticks": 420864,
          "time": 320.44190999999995,
          "velocity": 0.905511811023622
        },
        {
          "duration": 0.2777699999999754,
          "durationTicks": 384,
          "midi": 55,
          "name": "G3",
          "ticks": 421248,
          "time": 320.71968,
          "velocity": 0.905511811023622
        },
        {
          "duration": 0.27777000000003227,
          "durationTicks": 384,
          "midi": 57,
          "name": "A3",
          "ticks": 421632,
          "time": 320.99744999999996,
          "velocity": 0.905511811023622
        },
        {
          "duration": 0.2777699999999754,
          "durationTicks": 384,
          "midi": 59,
          "name": "B3",
          "ticks": 422016,
          "time": 321.27522,
          "velocity": 0.905511811023622
        },
        {
          "duration": 1.1110800000000154,
          "durationTicks": 1536,
          "midi": 60,
          "name": "C4",
          "ticks": 422400,
          "time": 321.55298999999997,
          "velocity": 0.905511811023622
        },
        {
          "duration": 1.1110799999999585,
          "durationTicks": 1536,
          "midi": 56,
          "name": "G#3",
          "ticks": 423936,
          "time": 322.66407,
          "velocity": 0.905511811023622
        },
        {
          "duration": 1.1110800000000154,
          "durationTicks": 1536,
          "midi": 51,
          "name": "D#3",
          "ticks": 425472,
          "time": 323.77514999999994,
          "velocity": 0.905511811023622
        },
        {
          "duration": 0.5555400000000077,
          "durationTicks": 768,
          "midi": 53,
          "name": "F3",
          "ticks": 427008,
          "time": 324.88622999999995,
          "velocity": 0.905511811023622
        },
        {
          "duration": 0.5555400000000077,
          "durationTicks": 768,
          "midi": 51,
          "name": "D#3",
          "ticks": 427776,
          "time": 325.44176999999996,
          "velocity": 0.905511811023622
        },
        {
          "duration": 0.5555400000000077,
          "durationTicks": 768,
          "midi": 50,
          "name": "D3",
          "ticks": 428544,
          "time": 325.99730999999997,
          "velocity": 0.905511811023622
        },
        {
          "duration": 0.5555400000000077,
          "durationTicks": 768,
          "midi": 53,
          "name": "F3",
          "ticks": 429312,
          "time": 326.55285,
          "velocity": 0.905511811023622
        },
        {
          "duration": 0.2777699999999754,
          "durationTicks": 384,
          "midi": 51,
          "name": "D#3",
          "ticks": 430080,
          "time": 327.10839,
          "velocity": 0.905511811023622
        },
        {
          "duration": 0.2777699999999754,
          "durationTicks": 384,
          "midi": 48,
          "name": "C3",
          "ticks": 430848,
          "time": 327.66393,
          "velocity": 0.905511811023622
        },
        {
          "duration": 0.2777699999999754,
          "durationTicks": 384,
          "midi": 53,
          "name": "F3",
          "ticks": 431616,
          "time": 328.21947,
          "velocity": 0.905511811023622
        },
        {
          "duration": 0.27777000000003227,
          "durationTicks": 384,
          "midi": 50,
          "name": "D3",
          "ticks": 432384,
          "time": 328.77500999999995,
          "velocity": 0.905511811023622
        },
        {
          "duration": 0.27777000000003227,
          "durationTicks": 384,
          "midi": 55,
          "name": "G3",
          "ticks": 433152,
          "time": 329.33054999999996,
          "velocity": 0.905511811023622
        },
        {
          "duration": 0.27777000000003227,
          "durationTicks": 384,
          "midi": 43,
          "name": "G2",
          "ticks": 433920,
          "time": 329.88608999999997,
          "velocity": 0.905511811023622
        },
        {
          "duration": 0.2777699999999754,
          "durationTicks": 384,
          "midi": 48,
          "name": "C3",
          "ticks": 434688,
          "time": 330.44163,
          "velocity": 0.905511811023622
        },
        {
          "duration": 0.2777699999999754,
          "durationTicks": 384,
          "midi": 39,
          "name": "D#2",
          "ticks": 436992,
          "time": 332.10825,
          "velocity": 0.905511811023622
        },
        {
          "duration": 0.2777699999999754,
          "durationTicks": 384,
          "midi": 41,
          "name": "F2",
          "ticks": 437376,
          "time": 332.38602,
          "velocity": 0.905511811023622
        },
        {
          "duration": 0.27777000000003227,
          "durationTicks": 384,
          "midi": 43,
          "name": "G2",
          "ticks": 437760,
          "time": 332.66378999999995,
          "velocity": 0.905511811023622
        },
        {
          "duration": 0.2777699999999754,
          "durationTicks": 384,
          "midi": 39,
          "name": "D#2",
          "ticks": 438144,
          "time": 332.94156,
          "velocity": 0.905511811023622
        },
        {
          "duration": 0.2777699999999754,
          "durationTicks": 384,
          "midi": 43,
          "name": "G2",
          "ticks": 440064,
          "time": 334.33041,
          "velocity": 0.905511811023622
        },
        {
          "duration": 0.27777000000003227,
          "durationTicks": 384,
          "midi": 45,
          "name": "A2",
          "ticks": 440448,
          "time": 334.60817999999995,
          "velocity": 0.905511811023622
        },
        {
          "duration": 0.2777699999999754,
          "durationTicks": 384,
          "midi": 47,
          "name": "B2",
          "ticks": 440832,
          "time": 334.88595,
          "velocity": 0.905511811023622
        },
        {
          "duration": 0.27777000000003227,
          "durationTicks": 384,
          "midi": 43,
          "name": "G2",
          "ticks": 441216,
          "time": 335.16371999999996,
          "velocity": 0.905511811023622
        },
        {
          "duration": 0.27777000000003227,
          "durationTicks": 384,
          "midi": 43,
          "name": "G2",
          "ticks": 443136,
          "time": 336.55256999999995,
          "velocity": 0.905511811023622
        },
        {
          "duration": 0.2777699999999754,
          "durationTicks": 384,
          "midi": 45,
          "name": "A2",
          "ticks": 443520,
          "time": 336.83034,
          "velocity": 0.905511811023622
        },
        {
          "duration": 0.27777000000003227,
          "durationTicks": 384,
          "midi": 47,
          "name": "B2",
          "ticks": 443904,
          "time": 337.10810999999995,
          "velocity": 0.905511811023622
        },
        {
          "duration": 0.2777699999999754,
          "durationTicks": 384,
          "midi": 43,
          "name": "G2",
          "ticks": 444288,
          "time": 337.38588,
          "velocity": 0.905511811023622
        },
        {
          "duration": 0.2777699999999754,
          "durationTicks": 384,
          "midi": 53,
          "name": "F3",
          "ticks": 447744,
          "time": 339.88581,
          "velocity": 0.905511811023622
        },
        {
          "duration": 0.2777699999999754,
          "durationTicks": 384,
          "midi": 48,
          "name": "C3",
          "ticks": 448128,
          "time": 340.16357999999997,
          "velocity": 0.905511811023622
        },
        {
          "duration": 0.27777000000003227,
          "durationTicks": 384,
          "midi": 53,
          "name": "F3",
          "ticks": 449280,
          "time": 340.99688999999995,
          "velocity": 0.905511811023622
        },
        {
          "duration": 0.2777699999999754,
          "durationTicks": 384,
          "midi": 48,
          "name": "C3",
          "ticks": 449664,
          "time": 341.27466,
          "velocity": 0.905511811023622
        },
        {
          "duration": 0.27777000000003227,
          "durationTicks": 384,
          "midi": 55,
          "name": "G3",
          "ticks": 450048,
          "time": 341.55242999999996,
          "velocity": 0.905511811023622
        },
        {
          "duration": 0.2777699999999754,
          "durationTicks": 384,
          "midi": 43,
          "name": "G2",
          "ticks": 450816,
          "time": 342.10796999999997,
          "velocity": 0.905511811023622
        },
        {
          "duration": 0.27777000000003227,
          "durationTicks": 384,
          "midi": 60,
          "name": "C4",
          "ticks": 451584,
          "time": 342.66351,
          "velocity": 0.905511811023622
        },
        {
          "duration": 0.2777699999999754,
          "durationTicks": 384,
          "midi": 55,
          "name": "G3",
          "ticks": 451968,
          "time": 342.94128,
          "velocity": 0.905511811023622
        },
        {
          "duration": 0.2777699999999754,
          "durationTicks": 384,
          "midi": 56,
          "name": "G#3",
          "ticks": 452352,
          "time": 343.21905,
          "velocity": 0.905511811023622
        },
        {
          "duration": 0.27777000000003227,
          "durationTicks": 384,
          "midi": 51,
          "name": "D#3",
          "ticks": 452736,
          "time": 343.49681999999996,
          "velocity": 0.905511811023622
        },
        {
          "duration": 0.2777699999999754,
          "durationTicks": 384,
          "midi": 53,
          "name": "F3",
          "ticks": 453120,
          "time": 343.77459,
          "velocity": 0.905511811023622
        },
        {
          "duration": 0.2777699999999754,
          "durationTicks": 384,
          "midi": 48,
          "name": "C3",
          "ticks": 453504,
          "time": 344.05235999999996,
          "velocity": 0.905511811023622
        },
        {
          "duration": 0.2777699999999754,
          "durationTicks": 384,
          "midi": 53,
          "name": "F3",
          "ticks": 454656,
          "time": 344.88567,
          "velocity": 0.905511811023622
        },
        {
          "duration": 0.2777699999999754,
          "durationTicks": 384,
          "midi": 48,
          "name": "C3",
          "ticks": 455040,
          "time": 345.16344,
          "velocity": 0.905511811023622
        },
        {
          "duration": 0.27777000000003227,
          "durationTicks": 384,
          "midi": 53,
          "name": "F3",
          "ticks": 455424,
          "time": 345.44120999999996,
          "velocity": 0.905511811023622
        },
        {
          "duration": 0.2777699999999754,
          "durationTicks": 384,
          "midi": 48,
          "name": "C3",
          "ticks": 455808,
          "time": 345.71898,
          "velocity": 0.905511811023622
        },
        {
          "duration": 0.2777699999999754,
          "durationTicks": 384,
          "midi": 55,
          "name": "G3",
          "ticks": 456192,
          "time": 345.99674999999996,
          "velocity": 0.905511811023622
        },
        {
          "duration": 0.27777000000003227,
          "durationTicks": 384,
          "midi": 43,
          "name": "G2",
          "ticks": 456960,
          "time": 346.55228999999997,
          "velocity": 0.905511811023622
        },
        {
          "duration": 0.2777699999999754,
          "durationTicks": 384,
          "midi": 48,
          "name": "C3",
          "ticks": 457728,
          "time": 347.10783,
          "velocity": 0.905511811023622
        },
        {
          "duration": 0.13888500000001613,
          "durationTicks": 192,
          "midi": 43,
          "name": "G2",
          "ticks": 461760,
          "time": 350.024415,
          "velocity": 0.905511811023622
        },
        {
          "duration": 0.1388849999999593,
          "durationTicks": 192,
          "midi": 43,
          "name": "G2",
          "ticks": 461952,
          "time": 350.1633,
          "velocity": 0.905511811023622
        },
        {
          "duration": 0.13888500000001613,
          "durationTicks": 192,
          "midi": 43,
          "name": "G2",
          "ticks": 462144,
          "time": 350.30218499999995,
          "velocity": 0.905511811023622
        },
        {
          "duration": 0.13888500000001613,
          "durationTicks": 192,
          "midi": 48,
          "name": "C3",
          "ticks": 462336,
          "time": 350.44106999999997,
          "velocity": 0.905511811023622
        },
        {
          "duration": 0.13888500000001613,
          "durationTicks": 192,
          "midi": 43,
          "name": "G2",
          "ticks": 462528,
          "time": 350.579955,
          "velocity": 0.905511811023622
        },
        {
          "duration": 0.1388849999999593,
          "durationTicks": 192,
          "midi": 43,
          "name": "G2",
          "ticks": 462720,
          "time": 350.71884,
          "velocity": 0.905511811023622
        },
        {
          "duration": 0.13888500000001613,
          "durationTicks": 192,
          "midi": 43,
          "name": "G2",
          "ticks": 462912,
          "time": 350.85772499999996,
          "velocity": 0.905511811023622
        },
        {
          "duration": 0.13888500000001613,
          "durationTicks": 192,
          "midi": 43,
          "name": "G2",
          "ticks": 463104,
          "time": 350.99661,
          "velocity": 0.905511811023622
        },
        {
          "duration": 0.1388849999999593,
          "durationTicks": 192,
          "midi": 43,
          "name": "G2",
          "ticks": 463296,
          "time": 351.135495,
          "velocity": 0.905511811023622
        },
        {
          "duration": 0.13888500000001613,
          "durationTicks": 192,
          "midi": 43,
          "name": "G2",
          "ticks": 463488,
          "time": 351.27437999999995,
          "velocity": 0.905511811023622
        },
        {
          "duration": 0.13888500000001613,
          "durationTicks": 192,
          "midi": 43,
          "name": "G2",
          "ticks": 463680,
          "time": 351.41326499999997,
          "velocity": 0.905511811023622
        },
        {
          "duration": 0.1388849999999593,
          "durationTicks": 192,
          "midi": 43,
          "name": "G2",
          "ticks": 463872,
          "time": 351.55215,
          "velocity": 0.905511811023622
        },
        {
          "duration": 0.13888500000001613,
          "durationTicks": 192,
          "midi": 43,
          "name": "G2",
          "ticks": 464064,
          "time": 351.69103499999994,
          "velocity": 0.905511811023622
        },
        {
          "duration": 0.13888500000001613,
          "durationTicks": 192,
          "midi": 43,
          "name": "G2",
          "ticks": 464256,
          "time": 351.82991999999996,
          "velocity": 0.905511811023622
        },
        {
          "duration": 0.13888500000001613,
          "durationTicks": 192,
          "midi": 43,
          "name": "G2",
          "ticks": 464448,
          "time": 351.968805,
          "velocity": 0.905511811023622
        },
        {
          "duration": 0.13888500000001613,
          "durationTicks": 192,
          "midi": 43,
          "name": "G2",
          "ticks": 464640,
          "time": 352.10769,
          "velocity": 0.905511811023622
        },
        {
          "duration": 0.1388849999999593,
          "durationTicks": 192,
          "midi": 43,
          "name": "G2",
          "ticks": 464832,
          "time": 352.246575,
          "velocity": 0.905511811023622
        },
        {
          "duration": 0.13888500000001613,
          "durationTicks": 192,
          "midi": 43,
          "name": "G2",
          "ticks": 465024,
          "time": 352.38545999999997,
          "velocity": 0.905511811023622
        },
        {
          "duration": 0.13888500000001613,
          "durationTicks": 192,
          "midi": 43,
          "name": "G2",
          "ticks": 465216,
          "time": 352.524345,
          "velocity": 0.905511811023622
        },
        {
          "duration": 1.0908999999999764,
          "durationTicks": 768,
          "midi": 39,
          "name": "D#2",
          "ticks": 465408,
          "time": 352.66323,
          "velocity": 0.968503937007874
        },
        {
          "duration": 0.1388849999999593,
          "durationTicks": 192,
          "midi": 41,
          "name": "F2",
          "ticks": 466368,
          "time": 353.893015,
          "velocity": 0.968503937007874
        },
        {
          "duration": 0.13888500000001613,
          "durationTicks": 192,
          "midi": 41,
          "name": "F2",
          "ticks": 466560,
          "time": 354.03189999999995,
          "velocity": 0.968503937007874
        },
        {
          "duration": 0.13888500000001613,
          "durationTicks": 192,
          "midi": 41,
          "name": "F2",
          "ticks": 466752,
          "time": 354.17078499999997,
          "velocity": 0.968503937007874
        },
        {
          "duration": 1.7555399999999963,
          "durationTicks": 1536,
          "midi": 38,
          "name": "D2",
          "ticks": 466944,
          "time": 354.30967,
          "velocity": 0.968503937007874
        },
        {
          "duration": 2.2640800000000354,
          "durationTicks": 3072,
          "midi": 36,
          "name": "C2",
          "ticks": 469248,
          "time": 356.63122999999996,
          "velocity": 0.6141732283464567
        },
        {
          "duration": 2.2640800000000354,
          "durationTicks": 3072,
          "midi": 43,
          "name": "G2",
          "ticks": 469248,
          "time": 356.63122999999996,
          "velocity": 0.6141732283464567
        },
        {
          "duration": 1.8395649999999932,
          "durationTicks": 2496,
          "midi": 36,
          "name": "C2",
          "ticks": 472320,
          "time": 358.89531,
          "velocity": 0.6141732283464567
        },
        {
          "duration": 1.8395649999999932,
          "durationTicks": 2496,
          "midi": 43,
          "name": "G2",
          "ticks": 472320,
          "time": 358.89531,
          "velocity": 0.6141732283464567
        },
        {
          "duration": 0.1415049999999951,
          "durationTicks": 192,
          "midi": 43,
          "name": "G2",
          "ticks": 474816,
          "time": 360.734875,
          "velocity": 0.968503937007874
        },
        {
          "duration": 0.1415049999999951,
          "durationTicks": 192,
          "midi": 43,
          "name": "G2",
          "ticks": 475008,
          "time": 360.87638,
          "velocity": 0.968503937007874
        },
        {
          "duration": 0.1415049999999951,
          "durationTicks": 192,
          "midi": 43,
          "name": "G2",
          "ticks": 475200,
          "time": 361.017885,
          "velocity": 0.968503937007874
        },
        {
          "duration": 0.2830099999999902,
          "durationTicks": 384,
          "midi": 48,
          "name": "C3",
          "ticks": 475392,
          "time": 361.15939,
          "velocity": 0.968503937007874
        },
        {
          "duration": 0.1415049999999951,
          "durationTicks": 192,
          "midi": 43,
          "name": "G2",
          "ticks": 476352,
          "time": 361.866915,
          "velocity": 0.968503937007874
        },
        {
          "duration": 0.1415049999999951,
          "durationTicks": 192,
          "midi": 43,
          "name": "G2",
          "ticks": 476544,
          "time": 362.00842,
          "velocity": 0.968503937007874
        },
        {
          "duration": 0.1415049999999951,
          "durationTicks": 192,
          "midi": 43,
          "name": "G2",
          "ticks": 476736,
          "time": 362.149925,
          "velocity": 0.968503937007874
        },
        {
          "duration": 0.2830099999999902,
          "durationTicks": 384,
          "midi": 48,
          "name": "C3",
          "ticks": 476928,
          "time": 362.29143,
          "velocity": 0.968503937007874
        },
        {
          "duration": 0.1415049999999951,
          "durationTicks": 192,
          "midi": 43,
          "name": "G2",
          "ticks": 477888,
          "time": 362.99895499999997,
          "velocity": 0.968503937007874
        },
        {
          "duration": 0.1415049999999951,
          "durationTicks": 192,
          "midi": 43,
          "name": "G2",
          "ticks": 478080,
          "time": 363.14045999999996,
          "velocity": 0.968503937007874
        },
        {
          "duration": 0.1415049999999951,
          "durationTicks": 192,
          "midi": 43,
          "name": "G2",
          "ticks": 478272,
          "time": 363.28196499999996,
          "velocity": 0.968503937007874
        },
        {
          "duration": 0.28301000000004706,
          "durationTicks": 384,
          "midi": 48,
          "name": "C3",
          "ticks": 478464,
          "time": 363.42346999999995,
          "velocity": 0.968503937007874
        },
        {
          "duration": 0.2830099999999902,
          "durationTicks": 384,
          "midi": 43,
          "name": "G2",
          "ticks": 478848,
          "time": 363.70648,
          "velocity": 0.968503937007874
        },
        {
          "duration": 0.2830099999999902,
          "durationTicks": 384,
          "midi": 48,
          "name": "C3",
          "ticks": 479232,
          "time": 363.98949,
          "velocity": 0.968503937007874
        },
        {
          "duration": 0.2830099999999902,
          "durationTicks": 384,
          "midi": 43,
          "name": "G2",
          "ticks": 479616,
          "time": 364.2725,
          "velocity": 0.968503937007874
        },
        {
          "duration": 0.2830099999999902,
          "durationTicks": 384,
          "midi": 48,
          "name": "C3",
          "ticks": 480000,
          "time": 364.55550999999997,
          "velocity": 0.968503937007874
        },
        {
          "duration": 0.28301000000004706,
          "durationTicks": 384,
          "midi": 55,
          "name": "G3",
          "ticks": 480384,
          "time": 364.83851999999996,
          "velocity": 0.968503937007874
        },
        {
          "duration": 0.2830099999999902,
          "durationTicks": 384,
          "midi": 60,
          "name": "C4",
          "ticks": 480768,
          "time": 365.12153,
          "velocity": 0.968503937007874
        },
        {
          "duration": 0.2830099999999902,
          "durationTicks": 384,
          "midi": 55,
          "name": "G3",
          "ticks": 481152,
          "time": 365.40454,
          "velocity": 0.968503937007874
        },
        {
          "duration": 0.2830099999999902,
          "durationTicks": 384,
          "midi": 60,
          "name": "C4",
          "ticks": 481536,
          "time": 365.68755,
          "velocity": 0.968503937007874
        },
        {
          "duration": 0.2830099999999902,
          "durationTicks": 384,
          "midi": 43,
          "name": "G2",
          "ticks": 482304,
          "time": 366.25356999999997,
          "velocity": 0.968503937007874
        },
        {
          "duration": 0.2830099999999902,
          "durationTicks": 384,
          "midi": 36,
          "name": "C2",
          "ticks": 483072,
          "time": 366.81959,
          "velocity": 0.968503937007874
        },
        {
          "duration": 0.2830099999999902,
          "durationTicks": 384,
          "midi": 48,
          "name": "C3",
          "ticks": 483072,
          "time": 366.81959,
          "velocity": 0.968503937007874
        }
      ],
      "endOfTrackTicks": 484608
    },
    {
      "channel": 11,
      "controlChanges": {},
      "pitchBends": [],
      "instrument": {
        "family": "strings",
        "number": 43,
        "name": "contrabass"
      },
      "name": "CONTRABASS",
      "notes": [
        {
          "duration": 0.15,
          "durationTicks": 192,
          "midi": 43,
          "name": "G2",
          "ticks": 192,
          "time": 0.15,
          "velocity": 0.968503937007874
        },
        {
          "duration": 0.14999999999999997,
          "durationTicks": 192,
          "midi": 43,
          "name": "G2",
          "ticks": 384,
          "time": 0.3,
          "velocity": 0.968503937007874
        },
        {
          "duration": 0.15000000000000002,
          "durationTicks": 192,
          "midi": 43,
          "name": "G2",
          "ticks": 576,
          "time": 0.44999999999999996,
          "velocity": 0.968503937007874
        },
        {
          "duration": 1.1999999999999997,
          "durationTicks": 768,
          "midi": 39,
          "name": "D#2",
          "ticks": 768,
          "time": 0.6,
          "velocity": 0.968503937007874
        },
        {
          "duration": 0.1499999999999999,
          "durationTicks": 192,
          "midi": 41,
          "name": "F2",
          "ticks": 1728,
          "time": 1.9499999999999997,
          "velocity": 0.968503937007874
        },
        {
          "duration": 0.15000000000000036,
          "durationTicks": 192,
          "midi": 41,
          "name": "F2",
          "ticks": 1920,
          "time": 2.0999999999999996,
          "velocity": 0.968503937007874
        },
        {
          "duration": 0.1499999999999999,
          "durationTicks": 192,
          "midi": 41,
          "name": "F2",
          "ticks": 2112,
          "time": 2.25,
          "velocity": 0.968503937007874
        },
        {
          "duration": 1.6,
          "durationTicks": 1536,
          "midi": 38,
          "name": "D2",
          "ticks": 2304,
          "time": 2.4,
          "velocity": 0.968503937007874
        },
        {
          "duration": 0.1442300000000003,
          "durationTicks": 192,
          "midi": 35,
          "name": "B1",
          "ticks": 13248,
          "time": 11.06727,
          "velocity": 0.7165354330708661
        },
        {
          "duration": 0.14422999999999853,
          "durationTicks": 192,
          "midi": 35,
          "name": "B1",
          "ticks": 13440,
          "time": 11.211500000000001,
          "velocity": 0.7952755905511811
        },
        {
          "duration": 0.1442300000000003,
          "durationTicks": 192,
          "midi": 35,
          "name": "B1",
          "ticks": 13632,
          "time": 11.35573,
          "velocity": 0.8582677165354331
        },
        {
          "duration": 0.28845999999999883,
          "durationTicks": 384,
          "midi": 36,
          "name": "C2",
          "ticks": 13824,
          "time": 11.49996,
          "velocity": 0.905511811023622
        },
        {
          "duration": 0.2884600000000006,
          "durationTicks": 384,
          "midi": 32,
          "name": "G#1",
          "ticks": 14592,
          "time": 12.07688,
          "velocity": 0.905511811023622
        },
        {
          "duration": 0.28845999999999883,
          "durationTicks": 384,
          "midi": 31,
          "name": "G1",
          "ticks": 15360,
          "time": 12.6538,
          "velocity": 0.905511811023622
        },
        {
          "duration": 0.14285499999999907,
          "durationTicks": 192,
          "midi": 32,
          "name": "G#1",
          "ticks": 16320,
          "time": 14.751775,
          "velocity": 0.968503937007874
        },
        {
          "duration": 0.14285500000000084,
          "durationTicks": 192,
          "midi": 32,
          "name": "G#1",
          "ticks": 16512,
          "time": 14.89463,
          "velocity": 0.968503937007874
        },
        {
          "duration": 0.14285499999999907,
          "durationTicks": 192,
          "midi": 32,
          "name": "G#1",
          "ticks": 16704,
          "time": 15.037485,
          "velocity": 0.968503937007874
        },
        {
          "duration": 1.9047399999999985,
          "durationTicks": 1536,
          "midi": 29,
          "name": "F1",
          "ticks": 16896,
          "time": 15.18034,
          "velocity": 0.968503937007874
        },
        {
          "duration": 0.14285500000000084,
          "durationTicks": 192,
          "midi": 31,
          "name": "G1",
          "ticks": 20928,
          "time": 18.942194999999998,
          "velocity": 0.7165354330708661
        },
        {
          "duration": 0.14285500000000084,
          "durationTicks": 192,
          "midi": 31,
          "name": "G1",
          "ticks": 21120,
          "time": 19.08505,
          "velocity": 0.7165354330708661
        },
        {
          "duration": 0.1428549999999973,
          "durationTicks": 192,
          "midi": 31,
          "name": "G1",
          "ticks": 21312,
          "time": 19.227905,
          "velocity": 0.7165354330708661
        },
        {
          "duration": 0.2857100000000017,
          "durationTicks": 384,
          "midi": 36,
          "name": "C2",
          "ticks": 21504,
          "time": 19.370759999999997,
          "velocity": 0.7165354330708661
        },
        {
          "duration": 0.14285500000000084,
          "durationTicks": 192,
          "midi": 31,
          "name": "G1",
          "ticks": 24000,
          "time": 21.227874999999997,
          "velocity": 0.7165354330708661
        },
        {
          "duration": 0.14285500000000084,
          "durationTicks": 192,
          "midi": 31,
          "name": "G1",
          "ticks": 24192,
          "time": 21.37073,
          "velocity": 0.7165354330708661
        },
        {
          "duration": 0.1428549999999973,
          "durationTicks": 192,
          "midi": 31,
          "name": "G1",
          "ticks": 24384,
          "time": 21.513585,
          "velocity": 0.7165354330708661
        },
        {
          "duration": 0.2857100000000017,
          "durationTicks": 384,
          "midi": 36,
          "name": "C2",
          "ticks": 24576,
          "time": 21.656439999999996,
          "velocity": 0.7165354330708661
        },
        {
          "duration": 0.14285500000000084,
          "durationTicks": 192,
          "midi": 36,
          "name": "C2",
          "ticks": 25536,
          "time": 22.370714999999997,
          "velocity": 0.7165354330708661
        },
        {
          "duration": 0.14285500000000084,
          "durationTicks": 192,
          "midi": 36,
          "name": "C2",
          "ticks": 25728,
          "time": 22.513569999999998,
          "velocity": 0.7165354330708661
        },
        {
          "duration": 0.1428549999999973,
          "durationTicks": 192,
          "midi": 36,
          "name": "C2",
          "ticks": 25920,
          "time": 22.656425,
          "velocity": 0.7165354330708661
        },
        {
          "duration": 0.2857100000000017,
          "durationTicks": 384,
          "midi": 36,
          "name": "C2",
          "ticks": 26112,
          "time": 22.799279999999996,
          "velocity": 0.7952755905511811
        },
        {
          "duration": 0.1415050000000022,
          "durationTicks": 192,
          "midi": 36,
          "name": "C2",
          "ticks": 27072,
          "time": 23.512204999999998,
          "velocity": 0.905511811023622
        },
        {
          "duration": 0.14150499999999866,
          "durationTicks": 192,
          "midi": 36,
          "name": "C2",
          "ticks": 27264,
          "time": 23.65371,
          "velocity": 0.905511811023622
        },
        {
          "duration": 0.1415050000000022,
          "durationTicks": 192,
          "midi": 36,
          "name": "C2",
          "ticks": 27456,
          "time": 23.795215,
          "velocity": 0.905511811023622
        },
        {
          "duration": 0.2830099999999973,
          "durationTicks": 384,
          "midi": 36,
          "name": "C2",
          "ticks": 27648,
          "time": 23.93672,
          "velocity": 0.968503937007874
        },
        {
          "duration": 0.28301000000000087,
          "durationTicks": 384,
          "midi": 36,
          "name": "C2",
          "ticks": 28416,
          "time": 24.50274,
          "velocity": 0.968503937007874
        },
        {
          "duration": 0.28301000000000087,
          "durationTicks": 384,
          "midi": 36,
          "name": "C2",
          "ticks": 29184,
          "time": 25.068759999999997,
          "velocity": 0.968503937007874
        },
        {
          "duration": 0.28037000000000134,
          "durationTicks": 384,
          "midi": 36,
          "name": "C2",
          "ticks": 29952,
          "time": 25.63478,
          "velocity": 0.968503937007874
        },
        {
          "duration": 0.28037000000000134,
          "durationTicks": 384,
          "midi": 36,
          "name": "C2",
          "ticks": 30720,
          "time": 26.19552,
          "velocity": 0.968503937007874
        },
        {
          "duration": 0.28037000000000134,
          "durationTicks": 384,
          "midi": 36,
          "name": "C2",
          "ticks": 31488,
          "time": 26.756259999999997,
          "velocity": 0.968503937007874
        },
        {
          "duration": 0.2803699999999978,
          "durationTicks": 384,
          "midi": 36,
          "name": "C2",
          "ticks": 32256,
          "time": 27.317,
          "velocity": 0.968503937007874
        },
        {
          "duration": 1.8055050000000001,
          "durationTicks": 2496,
          "midi": 36,
          "name": "C2",
          "ticks": 33024,
          "time": 27.87774,
          "velocity": 0.905511811023622
        },
        {
          "duration": 0.13888499999999837,
          "durationTicks": 192,
          "midi": 36,
          "name": "C2",
          "ticks": 35520,
          "time": 29.683245,
          "velocity": 0.8582677165354331
        },
        {
          "duration": 0.13888500000000192,
          "durationTicks": 192,
          "midi": 36,
          "name": "C2",
          "ticks": 35712,
          "time": 29.822129999999998,
          "velocity": 0.8582677165354331
        },
        {
          "duration": 0.13888499999999837,
          "durationTicks": 192,
          "midi": 36,
          "name": "C2",
          "ticks": 35904,
          "time": 29.961015,
          "velocity": 0.8582677165354331
        },
        {
          "duration": 1.8055050000000001,
          "durationTicks": 2496,
          "midi": 31,
          "name": "G1",
          "ticks": 36096,
          "time": 30.099899999999998,
          "velocity": 0.8582677165354331
        },
        {
          "duration": 0.13888499999999837,
          "durationTicks": 192,
          "midi": 31,
          "name": "G1",
          "ticks": 38592,
          "time": 31.905405,
          "velocity": 0.8582677165354331
        },
        {
          "duration": 0.13888500000000192,
          "durationTicks": 192,
          "midi": 36,
          "name": "C2",
          "ticks": 38784,
          "time": 32.04429,
          "velocity": 0.8582677165354331
        },
        {
          "duration": 0.13888500000000192,
          "durationTicks": 192,
          "midi": 36,
          "name": "C2",
          "ticks": 38976,
          "time": 32.183175,
          "velocity": 0.8582677165354331
        },
        {
          "duration": 0.13888500000000192,
          "durationTicks": 192,
          "midi": 36,
          "name": "C2",
          "ticks": 39168,
          "time": 32.32206,
          "velocity": 0.968503937007874
        },
        {
          "duration": 0.13888499999999482,
          "durationTicks": 192,
          "midi": 36,
          "name": "C2",
          "ticks": 39360,
          "time": 32.460945,
          "velocity": 0.968503937007874
        },
        {
          "duration": 0.13888500000000192,
          "durationTicks": 192,
          "midi": 36,
          "name": "C2",
          "ticks": 39552,
          "time": 32.59983,
          "velocity": 0.968503937007874
        },
        {
          "duration": 0.13888500000000192,
          "durationTicks": 192,
          "midi": 36,
          "name": "C2",
          "ticks": 39744,
          "time": 32.738715,
          "velocity": 0.968503937007874
        },
        {
          "duration": 0.13888500000000192,
          "durationTicks": 192,
          "midi": 36,
          "name": "C2",
          "ticks": 39936,
          "time": 32.8776,
          "velocity": 0.968503937007874
        },
        {
          "duration": 0.13888499999999482,
          "durationTicks": 192,
          "midi": 36,
          "name": "C2",
          "ticks": 40128,
          "time": 33.016485,
          "velocity": 0.968503937007874
        },
        {
          "duration": 0.13888500000000192,
          "durationTicks": 192,
          "midi": 36,
          "name": "C2",
          "ticks": 40320,
          "time": 33.15537,
          "velocity": 0.968503937007874
        },
        {
          "duration": 0.13888500000000192,
          "durationTicks": 192,
          "midi": 36,
          "name": "C2",
          "ticks": 40512,
          "time": 33.294255,
          "velocity": 0.968503937007874
        },
        {
          "duration": 0.13888499999999482,
          "durationTicks": 192,
          "midi": 36,
          "name": "C2",
          "ticks": 40704,
          "time": 33.43314,
          "velocity": 0.968503937007874
        },
        {
          "duration": 0.13888500000000192,
          "durationTicks": 192,
          "midi": 36,
          "name": "C2",
          "ticks": 40896,
          "time": 33.572025,
          "velocity": 0.968503937007874
        },
        {
          "duration": 0.13888500000000192,
          "durationTicks": 192,
          "midi": 36,
          "name": "C2",
          "ticks": 41088,
          "time": 33.71091,
          "velocity": 0.968503937007874
        },
        {
          "duration": 0.13888500000000192,
          "durationTicks": 192,
          "midi": 36,
          "name": "C2",
          "ticks": 41280,
          "time": 33.849795,
          "velocity": 0.968503937007874
        },
        {
          "duration": 0.13888499999999482,
          "durationTicks": 192,
          "midi": 36,
          "name": "C2",
          "ticks": 41472,
          "time": 33.98868,
          "velocity": 0.968503937007874
        },
        {
          "duration": 0.13888500000000192,
          "durationTicks": 192,
          "midi": 36,
          "name": "C2",
          "ticks": 41664,
          "time": 34.127565,
          "velocity": 0.968503937007874
        },
        {
          "duration": 0.13888500000000192,
          "durationTicks": 192,
          "midi": 36,
          "name": "C2",
          "ticks": 41856,
          "time": 34.26645,
          "velocity": 0.968503937007874
        },
        {
          "duration": 0.13888499999999482,
          "durationTicks": 192,
          "midi": 36,
          "name": "C2",
          "ticks": 42048,
          "time": 34.405335,
          "velocity": 0.968503937007874
        },
        {
          "duration": 0.27777000000000385,
          "durationTicks": 384,
          "midi": 36,
          "name": "C2",
          "ticks": 42240,
          "time": 34.544219999999996,
          "velocity": 0.968503937007874
        },
        {
          "duration": 0.27777000000000385,
          "durationTicks": 384,
          "midi": 38,
          "name": "D2",
          "ticks": 43776,
          "time": 35.6553,
          "velocity": 0.968503937007874
        },
        {
          "duration": 0.1442300000000003,
          "durationTicks": 192,
          "midi": 34,
          "name": "A#1",
          "ticks": 49344,
          "time": 39.81659,
          "velocity": 0.7165354330708661
        },
        {
          "duration": 0.1442300000000003,
          "durationTicks": 192,
          "midi": 34,
          "name": "A#1",
          "ticks": 49536,
          "time": 39.96082,
          "velocity": 0.7165354330708661
        },
        {
          "duration": 0.1442300000000003,
          "durationTicks": 192,
          "midi": 34,
          "name": "A#1",
          "ticks": 49728,
          "time": 40.10505,
          "velocity": 0.7165354330708661
        },
        {
          "duration": 0.2884600000000006,
          "durationTicks": 384,
          "midi": 39,
          "name": "D#2",
          "ticks": 49920,
          "time": 40.24928,
          "velocity": 0.7165354330708661
        },
        {
          "duration": 0.1415050000000022,
          "durationTicks": 192,
          "midi": 34,
          "name": "A#1",
          "ticks": 52416,
          "time": 42.110645,
          "velocity": 0.7165354330708661
        },
        {
          "duration": 0.1415050000000022,
          "durationTicks": 192,
          "midi": 34,
          "name": "A#1",
          "ticks": 52608,
          "time": 42.25215,
          "velocity": 0.7165354330708661
        },
        {
          "duration": 0.1415050000000022,
          "durationTicks": 192,
          "midi": 34,
          "name": "A#1",
          "ticks": 52800,
          "time": 42.393655,
          "velocity": 0.7165354330708661
        },
        {
          "duration": 0.2830099999999973,
          "durationTicks": 384,
          "midi": 39,
          "name": "D#2",
          "ticks": 52992,
          "time": 42.535160000000005,
          "velocity": 0.7165354330708661
        },
        {
          "duration": 0.13888499999999482,
          "durationTicks": 192,
          "midi": 34,
          "name": "A#1",
          "ticks": 55488,
          "time": 44.361625000000004,
          "velocity": 0.7165354330708661
        },
        {
          "duration": 0.13888500000000192,
          "durationTicks": 192,
          "midi": 34,
          "name": "A#1",
          "ticks": 55680,
          "time": 44.50051,
          "velocity": 0.7165354330708661
        },
        {
          "duration": 0.13888500000000192,
          "durationTicks": 192,
          "midi": 34,
          "name": "A#1",
          "ticks": 55872,
          "time": 44.639395,
          "velocity": 0.7165354330708661
        },
        {
          "duration": 0.27776999999999674,
          "durationTicks": 384,
          "midi": 39,
          "name": "D#2",
          "ticks": 56064,
          "time": 44.77828,
          "velocity": 0.7165354330708661
        },
        {
          "duration": 0.13888500000000192,
          "durationTicks": 192,
          "midi": 36,
          "name": "C2",
          "ticks": 58560,
          "time": 46.583785,
          "velocity": 0.7165354330708661
        },
        {
          "duration": 0.13888500000000192,
          "durationTicks": 192,
          "midi": 36,
          "name": "C2",
          "ticks": 58752,
          "time": 46.72267,
          "velocity": 0.7165354330708661
        },
        {
          "duration": 0.13888499999999482,
          "durationTicks": 192,
          "midi": 36,
          "name": "C2",
          "ticks": 58944,
          "time": 46.861555,
          "velocity": 0.7165354330708661
        },
        {
          "duration": 0.27777000000000385,
          "durationTicks": 384,
          "midi": 41,
          "name": "F2",
          "ticks": 59136,
          "time": 47.00044,
          "velocity": 0.7165354330708661
        },
        {
          "duration": 0.13888500000000192,
          "durationTicks": 192,
          "midi": 39,
          "name": "D#2",
          "ticks": 61632,
          "time": 48.805945,
          "velocity": 0.7165354330708661
        },
        {
          "duration": 0.13888499999999482,
          "durationTicks": 192,
          "midi": 39,
          "name": "D#2",
          "ticks": 61824,
          "time": 48.94483,
          "velocity": 0.7165354330708661
        },
        {
          "duration": 0.13888500000000192,
          "durationTicks": 192,
          "midi": 39,
          "name": "D#2",
          "ticks": 62016,
          "time": 49.083715,
          "velocity": 0.7165354330708661
        },
        {
          "duration": 0.27777000000000385,
          "durationTicks": 384,
          "midi": 44,
          "name": "G#2",
          "ticks": 62208,
          "time": 49.2226,
          "velocity": 0.7165354330708661
        },
        {
          "duration": 0.13888500000000192,
          "durationTicks": 192,
          "midi": 45,
          "name": "A2",
          "ticks": 63936,
          "time": 50.472565,
          "velocity": 0.7165354330708661
        },
        {
          "duration": 0.13888499999999482,
          "durationTicks": 192,
          "midi": 45,
          "name": "A2",
          "ticks": 64128,
          "time": 50.611450000000005,
          "velocity": 0.7165354330708661
        },
        {
          "duration": 0.13888500000000192,
          "durationTicks": 192,
          "midi": 45,
          "name": "A2",
          "ticks": 64320,
          "time": 50.750335,
          "velocity": 0.7165354330708661
        },
        {
          "duration": 0.27776999999999674,
          "durationTicks": 384,
          "midi": 45,
          "name": "A2",
          "ticks": 64512,
          "time": 50.88922,
          "velocity": 0.7165354330708661
        },
        {
          "duration": 0.13888499999999482,
          "durationTicks": 192,
          "midi": 46,
          "name": "A#2",
          "ticks": 65472,
          "time": 51.583645000000004,
          "velocity": 0.7165354330708661
        },
        {
          "duration": 0.13888500000000192,
          "durationTicks": 192,
          "midi": 46,
          "name": "A#2",
          "ticks": 65664,
          "time": 51.72253,
          "velocity": 0.7165354330708661
        },
        {
          "duration": 0.13888500000000192,
          "durationTicks": 192,
          "midi": 46,
          "name": "A#2",
          "ticks": 65856,
          "time": 51.861415,
          "velocity": 0.7165354330708661
        },
        {
          "duration": 0.27776999999999674,
          "durationTicks": 384,
          "midi": 46,
          "name": "A#2",
          "ticks": 66048,
          "time": 52.0003,
          "velocity": 0.7165354330708661
        },
        {
          "duration": 0.13888499999999482,
          "durationTicks": 192,
          "midi": 47,
          "name": "B2",
          "ticks": 67008,
          "time": 52.694725000000005,
          "velocity": 0.7952755905511811
        },
        {
          "duration": 0.13888500000000192,
          "durationTicks": 192,
          "midi": 47,
          "name": "B2",
          "ticks": 67200,
          "time": 52.83361,
          "velocity": 0.7952755905511811
        },
        {
          "duration": 0.13888500000000192,
          "durationTicks": 192,
          "midi": 47,
          "name": "B2",
          "ticks": 67392,
          "time": 52.972495,
          "velocity": 0.7952755905511811
        },
        {
          "duration": 0.27776999999999674,
          "durationTicks": 384,
          "midi": 47,
          "name": "B2",
          "ticks": 67584,
          "time": 53.111380000000004,
          "velocity": 0.7952755905511811
        },
        {
          "duration": 0.13888500000000192,
          "durationTicks": 192,
          "midi": 48,
          "name": "C3",
          "ticks": 68544,
          "time": 53.805805,
          "velocity": 0.8582677165354331
        },
        {
          "duration": 0.13888500000000192,
          "durationTicks": 192,
          "midi": 48,
          "name": "C3",
          "ticks": 68736,
          "time": 53.94469,
          "velocity": 0.8582677165354331
        },
        {
          "duration": 0.13888499999999482,
          "durationTicks": 192,
          "midi": 48,
          "name": "C3",
          "ticks": 68928,
          "time": 54.083575,
          "velocity": 0.8582677165354331
        },
        {
          "duration": 0.27777000000000385,
          "durationTicks": 384,
          "midi": 48,
          "name": "C3",
          "ticks": 69120,
          "time": 54.22246,
          "velocity": 0.8582677165354331
        },
        {
          "duration": 0.13888500000000192,
          "durationTicks": 192,
          "midi": 48,
          "name": "C3",
          "ticks": 70080,
          "time": 54.916885,
          "velocity": 0.905511811023622
        },
        {
          "duration": 0.13888500000000192,
          "durationTicks": 192,
          "midi": 48,
          "name": "C3",
          "ticks": 70272,
          "time": 55.05577,
          "velocity": 0.905511811023622
        },
        {
          "duration": 0.13888499999999482,
          "durationTicks": 192,
          "midi": 48,
          "name": "C3",
          "ticks": 70464,
          "time": 55.194655000000004,
          "velocity": 0.905511811023622
        },
        {
          "duration": 0.27777000000000385,
          "durationTicks": 384,
          "midi": 48,
          "name": "C3",
          "ticks": 70656,
          "time": 55.33354,
          "velocity": 0.905511811023622
        },
        {
          "duration": 0.13888500000000192,
          "durationTicks": 192,
          "midi": 48,
          "name": "C3",
          "ticks": 71040,
          "time": 55.61131,
          "velocity": 0.905511811023622
        },
        {
          "duration": 0.13888499999999482,
          "durationTicks": 192,
          "midi": 48,
          "name": "C3",
          "ticks": 71232,
          "time": 55.750195000000005,
          "velocity": 0.905511811023622
        },
        {
          "duration": 0.8333100000000044,
          "durationTicks": 1152,
          "midi": 50,
          "name": "D3",
          "ticks": 71424,
          "time": 55.88908,
          "velocity": 0.968503937007874
        },
        {
          "duration": 0.27776999999999674,
          "durationTicks": 384,
          "midi": 38,
          "name": "D2",
          "ticks": 72576,
          "time": 56.722390000000004,
          "velocity": 0.968503937007874
        },
        {
          "duration": 0.27776999999999674,
          "durationTicks": 384,
          "midi": 39,
          "name": "D#2",
          "ticks": 72960,
          "time": 57.00016,
          "velocity": 0.968503937007874
        },
        {
          "duration": 0.27777000000000385,
          "durationTicks": 384,
          "midi": 41,
          "name": "F2",
          "ticks": 73728,
          "time": 57.5557,
          "velocity": 0.968503937007874
        },
        {
          "duration": 0.27776999999999674,
          "durationTicks": 384,
          "midi": 43,
          "name": "G2",
          "ticks": 74496,
          "time": 58.11124,
          "velocity": 0.968503937007874
        },
        {
          "duration": 0.27776999999999674,
          "durationTicks": 384,
          "midi": 44,
          "name": "G#2",
          "ticks": 75264,
          "time": 58.66678,
          "velocity": 0.968503937007874
        },
        {
          "duration": 0.27776999999999674,
          "durationTicks": 384,
          "midi": 46,
          "name": "A#2",
          "ticks": 76032,
          "time": 59.22232,
          "velocity": 0.968503937007874
        },
        {
          "duration": 0.27776999999999674,
          "durationTicks": 384,
          "midi": 34,
          "name": "A#1",
          "ticks": 76800,
          "time": 59.777860000000004,
          "velocity": 0.968503937007874
        },
        {
          "duration": 0.27777000000000385,
          "durationTicks": 384,
          "midi": 38,
          "name": "D2",
          "ticks": 77568,
          "time": 60.3334,
          "velocity": 0.968503937007874
        },
        {
          "duration": 0.27777000000000385,
          "durationTicks": 384,
          "midi": 41,
          "name": "F2",
          "ticks": 77952,
          "time": 60.61117,
          "velocity": 0.968503937007874
        },
        {
          "duration": 0.27776999999999674,
          "durationTicks": 384,
          "midi": 38,
          "name": "D2",
          "ticks": 78336,
          "time": 60.888940000000005,
          "velocity": 0.968503937007874
        },
        {
          "duration": 0.27776999999999674,
          "durationTicks": 384,
          "midi": 41,
          "name": "F2",
          "ticks": 78720,
          "time": 61.16671,
          "velocity": 0.968503937007874
        },
        {
          "duration": 0.27777000000000385,
          "durationTicks": 384,
          "midi": 39,
          "name": "D#2",
          "ticks": 79104,
          "time": 61.44448,
          "velocity": 0.968503937007874
        },
        {
          "duration": 0.27777000000000385,
          "durationTicks": 384,
          "midi": 43,
          "name": "G2",
          "ticks": 79488,
          "time": 61.72225,
          "velocity": 0.968503937007874
        },
        {
          "duration": 0.27776999999999674,
          "durationTicks": 384,
          "midi": 41,
          "name": "F2",
          "ticks": 79872,
          "time": 62.000020000000006,
          "velocity": 0.968503937007874
        },
        {
          "duration": 0.27776999999999674,
          "durationTicks": 384,
          "midi": 44,
          "name": "G#2",
          "ticks": 80256,
          "time": 62.27779,
          "velocity": 0.968503937007874
        },
        {
          "duration": 0.27777000000000385,
          "durationTicks": 384,
          "midi": 43,
          "name": "G2",
          "ticks": 80640,
          "time": 62.55556,
          "velocity": 0.968503937007874
        },
        {
          "duration": 0.27777000000000385,
          "durationTicks": 384,
          "midi": 46,
          "name": "A#2",
          "ticks": 81024,
          "time": 62.833330000000004,
          "velocity": 0.968503937007874
        },
        {
          "duration": 0.27776999999998964,
          "durationTicks": 384,
          "midi": 44,
          "name": "G#2",
          "ticks": 81408,
          "time": 63.11110000000001,
          "velocity": 0.968503937007874
        },
        {
          "duration": 0.27777000000000385,
          "durationTicks": 384,
          "midi": 48,
          "name": "C3",
          "ticks": 81792,
          "time": 63.38887,
          "velocity": 0.968503937007874
        },
        {
          "duration": 0.27777000000000385,
          "durationTicks": 384,
          "midi": 46,
          "name": "A#2",
          "ticks": 82176,
          "time": 63.66664,
          "velocity": 0.968503937007874
        },
        {
          "duration": 0.27777000000000385,
          "durationTicks": 384,
          "midi": 34,
          "name": "A#1",
          "ticks": 82560,
          "time": 63.944410000000005,
          "velocity": 0.968503937007874
        },
        {
          "duration": 0.27776999999998964,
          "durationTicks": 384,
          "midi": 46,
          "name": "A#2",
          "ticks": 82944,
          "time": 64.22218000000001,
          "velocity": 0.968503937007874
        },
        {
          "duration": 0.27777000000000385,
          "durationTicks": 384,
          "midi": 34,
          "name": "A#1",
          "ticks": 83328,
          "time": 64.49995,
          "velocity": 0.968503937007874
        },
        {
          "duration": 1.8055049999999966,
          "durationTicks": 2496,
          "midi": 39,
          "name": "D#2",
          "ticks": 83712,
          "time": 64.77772,
          "velocity": 0.968503937007874
        },
        {
          "duration": 0.13888500000000192,
          "durationTicks": 192,
          "midi": 34,
          "name": "A#1",
          "ticks": 86208,
          "time": 66.583225,
          "velocity": 0.968503937007874
        },
        {
          "duration": 0.13888500000000192,
          "durationTicks": 192,
          "midi": 34,
          "name": "A#1",
          "ticks": 86400,
          "time": 66.72211,
          "velocity": 0.968503937007874
        },
        {
          "duration": 0.13888500000000192,
          "durationTicks": 192,
          "midi": 34,
          "name": "A#1",
          "ticks": 86592,
          "time": 66.860995,
          "velocity": 0.968503937007874
        },
        {
          "duration": 1.8055049999999966,
          "durationTicks": 2496,
          "midi": 39,
          "name": "D#2",
          "ticks": 86784,
          "time": 66.99988,
          "velocity": 0.968503937007874
        },
        {
          "duration": 0.13888500000000192,
          "durationTicks": 192,
          "midi": 34,
          "name": "A#1",
          "ticks": 89280,
          "time": 68.805385,
          "velocity": 0.968503937007874
        },
        {
          "duration": 0.13888500000000192,
          "durationTicks": 192,
          "midi": 34,
          "name": "A#1",
          "ticks": 89472,
          "time": 68.94427,
          "velocity": 0.968503937007874
        },
        {
          "duration": 0.13888500000000192,
          "durationTicks": 192,
          "midi": 34,
          "name": "A#1",
          "ticks": 89664,
          "time": 69.083155,
          "velocity": 0.968503937007874
        },
        {
          "duration": 0.27776999999998964,
          "durationTicks": 384,
          "midi": 39,
          "name": "D#2",
          "ticks": 89856,
          "time": 69.22204,
          "velocity": 0.968503937007874
        },
        {
          "duration": 0.13888500000000192,
          "durationTicks": 192,
          "midi": 34,
          "name": "A#1",
          "ticks": 90816,
          "time": 69.916465,
          "velocity": 0.968503937007874
        },
        {
          "duration": 0.13888500000000192,
          "durationTicks": 192,
          "midi": 34,
          "name": "A#1",
          "ticks": 91008,
          "time": 70.05535,
          "velocity": 0.968503937007874
        },
        {
          "duration": 0.13888500000000192,
          "durationTicks": 192,
          "midi": 34,
          "name": "A#1",
          "ticks": 91200,
          "time": 70.194235,
          "velocity": 0.968503937007874
        },
        {
          "duration": 0.27776999999998964,
          "durationTicks": 384,
          "midi": 39,
          "name": "D#2",
          "ticks": 91392,
          "time": 70.33312000000001,
          "velocity": 0.968503937007874
        },
        {
          "duration": 0.13888500000000192,
          "durationTicks": 192,
          "midi": 34,
          "name": "A#1",
          "ticks": 92352,
          "time": 71.027545,
          "velocity": 0.968503937007874
        },
        {
          "duration": 0.13888500000000192,
          "durationTicks": 192,
          "midi": 34,
          "name": "A#1",
          "ticks": 92544,
          "time": 71.16643,
          "velocity": 0.968503937007874
        },
        {
          "duration": 0.1388849999999877,
          "durationTicks": 192,
          "midi": 34,
          "name": "A#1",
          "ticks": 92736,
          "time": 71.30531500000001,
          "velocity": 0.968503937007874
        },
        {
          "duration": 0.27777000000000385,
          "durationTicks": 384,
          "midi": 39,
          "name": "D#2",
          "ticks": 92928,
          "time": 71.4442,
          "velocity": 0.968503937007874
        },
        {
          "duration": 0.14999999999999147,
          "durationTicks": 192,
          "midi": 43,
          "name": "G2",
          "ticks": 95424,
          "time": 73.26082000000001,
          "velocity": 0.968503937007874
        },
        {
          "duration": 0.15000000000000568,
          "durationTicks": 192,
          "midi": 43,
          "name": "G2",
          "ticks": 95616,
          "time": 73.41082,
          "velocity": 0.968503937007874
        },
        {
          "duration": 0.14999999999999147,
          "durationTicks": 192,
          "midi": 43,
          "name": "G2",
          "ticks": 95808,
          "time": 73.56082,
          "velocity": 0.968503937007874
        },
        {
          "duration": 1.2000000000000028,
          "durationTicks": 768,
          "midi": 39,
          "name": "D#2",
          "ticks": 96000,
          "time": 73.71082,
          "velocity": 0.968503937007874
        },
        {
          "duration": 0.14999999999999147,
          "durationTicks": 192,
          "midi": 41,
          "name": "F2",
          "ticks": 96960,
          "time": 75.06082,
          "velocity": 0.968503937007874
        },
        {
          "duration": 0.15000000000000568,
          "durationTicks": 192,
          "midi": 41,
          "name": "F2",
          "ticks": 97152,
          "time": 75.21082,
          "velocity": 0.968503937007874
        },
        {
          "duration": 0.14999999999999147,
          "durationTicks": 192,
          "midi": 41,
          "name": "F2",
          "ticks": 97344,
          "time": 75.36082,
          "velocity": 0.968503937007874
        },
        {
          "duration": 1.6000000000000085,
          "durationTicks": 1536,
          "midi": 38,
          "name": "D2",
          "ticks": 97536,
          "time": 75.51082,
          "velocity": 0.968503937007874
        },
        {
          "duration": 0.1415049999999951,
          "durationTicks": 192,
          "midi": 35,
          "name": "B1",
          "ticks": 108480,
          "time": 84.044565,
          "velocity": 0.7165354330708661
        },
        {
          "duration": 0.1415049999999951,
          "durationTicks": 192,
          "midi": 35,
          "name": "B1",
          "ticks": 108672,
          "time": 84.18607,
          "velocity": 0.7952755905511811
        },
        {
          "duration": 0.14150500000000932,
          "durationTicks": 192,
          "midi": 35,
          "name": "B1",
          "ticks": 108864,
          "time": 84.327575,
          "velocity": 0.8582677165354331
        },
        {
          "duration": 0.2830100000000044,
          "durationTicks": 384,
          "midi": 36,
          "name": "C2",
          "ticks": 109056,
          "time": 84.46908,
          "velocity": 0.905511811023622
        },
        {
          "duration": 0.2830100000000044,
          "durationTicks": 384,
          "midi": 32,
          "name": "G#1",
          "ticks": 109824,
          "time": 85.0351,
          "velocity": 0.905511811023622
        },
        {
          "duration": 0.2830099999999902,
          "durationTicks": 384,
          "midi": 31,
          "name": "G1",
          "ticks": 110592,
          "time": 85.60112000000001,
          "velocity": 0.905511811023622
        },
        {
          "duration": 0.1428549999999973,
          "durationTicks": 192,
          "midi": 32,
          "name": "G#1",
          "ticks": 111552,
          "time": 87.226985,
          "velocity": 0.968503937007874
        },
        {
          "duration": 0.1428550000000115,
          "durationTicks": 192,
          "midi": 32,
          "name": "G#1",
          "ticks": 111744,
          "time": 87.36984,
          "velocity": 0.968503937007874
        },
        {
          "duration": 0.1428549999999973,
          "durationTicks": 192,
          "midi": 32,
          "name": "G#1",
          "ticks": 111936,
          "time": 87.51269500000001,
          "velocity": 0.968503937007874
        },
        {
          "duration": 1.9047400000000039,
          "durationTicks": 1536,
          "midi": 29,
          "name": "F1",
          "ticks": 112128,
          "time": 87.65555,
          "velocity": 0.968503937007874
        },
        {
          "duration": 0.1428550000000115,
          "durationTicks": 192,
          "midi": 31,
          "name": "G1",
          "ticks": 116160,
          "time": 91.417405,
          "velocity": 0.7165354330708661
        },
        {
          "duration": 0.1428549999999973,
          "durationTicks": 192,
          "midi": 31,
          "name": "G1",
          "ticks": 116352,
          "time": 91.56026000000001,
          "velocity": 0.7165354330708661
        },
        {
          "duration": 0.1428549999999973,
          "durationTicks": 192,
          "midi": 31,
          "name": "G1",
          "ticks": 116544,
          "time": 91.70311500000001,
          "velocity": 0.7165354330708661
        },
        {
          "duration": 0.2857099999999946,
          "durationTicks": 384,
          "midi": 36,
          "name": "C2",
          "ticks": 116736,
          "time": 91.84597000000001,
          "velocity": 0.7165354330708661
        },
        {
          "duration": 0.1428549999999973,
          "durationTicks": 192,
          "midi": 31,
          "name": "G1",
          "ticks": 119232,
          "time": 93.70308500000002,
          "velocity": 0.7165354330708661
        },
        {
          "duration": 0.1428549999999973,
          "durationTicks": 192,
          "midi": 31,
          "name": "G1",
          "ticks": 119424,
          "time": 93.84594000000001,
          "velocity": 0.7165354330708661
        },
        {
          "duration": 0.1428549999999973,
          "durationTicks": 192,
          "midi": 31,
          "name": "G1",
          "ticks": 119616,
          "time": 93.98879500000001,
          "velocity": 0.7165354330708661
        },
        {
          "duration": 0.2857099999999946,
          "durationTicks": 384,
          "midi": 36,
          "name": "C2",
          "ticks": 119808,
          "time": 94.13165000000001,
          "velocity": 0.7165354330708661
        },
        {
          "duration": 0.1428549999999973,
          "durationTicks": 192,
          "midi": 36,
          "name": "C2",
          "ticks": 120768,
          "time": 94.84592500000001,
          "velocity": 0.7165354330708661
        },
        {
          "duration": 0.1428549999999973,
          "durationTicks": 192,
          "midi": 36,
          "name": "C2",
          "ticks": 120960,
          "time": 94.98878,
          "velocity": 0.7165354330708661
        },
        {
          "duration": 0.1428550000000115,
          "durationTicks": 192,
          "midi": 36,
          "name": "C2",
          "ticks": 121152,
          "time": 95.131635,
          "velocity": 0.7165354330708661
        },
        {
          "duration": 0.2857099999999946,
          "durationTicks": 384,
          "midi": 36,
          "name": "C2",
          "ticks": 121344,
          "time": 95.27449000000001,
          "velocity": 0.7952755905511811
        },
        {
          "duration": 0.14150500000000932,
          "durationTicks": 192,
          "midi": 36,
          "name": "C2",
          "ticks": 122304,
          "time": 95.987415,
          "velocity": 0.905511811023622
        },
        {
          "duration": 0.1415049999999951,
          "durationTicks": 192,
          "midi": 36,
          "name": "C2",
          "ticks": 122496,
          "time": 96.12892000000001,
          "velocity": 0.905511811023622
        },
        {
          "duration": 0.1415049999999951,
          "durationTicks": 192,
          "midi": 36,
          "name": "C2",
          "ticks": 122688,
          "time": 96.270425,
          "velocity": 0.905511811023622
        },
        {
          "duration": 0.2830100000000044,
          "durationTicks": 384,
          "midi": 36,
          "name": "C2",
          "ticks": 122880,
          "time": 96.41193,
          "velocity": 0.968503937007874
        },
        {
          "duration": 0.2830099999999902,
          "durationTicks": 384,
          "midi": 36,
          "name": "C2",
          "ticks": 123648,
          "time": 96.97795,
          "velocity": 0.968503937007874
        },
        {
          "duration": 0.2830100000000044,
          "durationTicks": 384,
          "midi": 36,
          "name": "C2",
          "ticks": 124416,
          "time": 97.54397,
          "velocity": 0.968503937007874
        },
        {
          "duration": 0.2803700000000049,
          "durationTicks": 384,
          "midi": 36,
          "name": "C2",
          "ticks": 125184,
          "time": 98.10999000000001,
          "velocity": 0.968503937007874
        },
        {
          "duration": 0.2803700000000049,
          "durationTicks": 384,
          "midi": 36,
          "name": "C2",
          "ticks": 125952,
          "time": 98.67073,
          "velocity": 0.968503937007874
        },
        {
          "duration": 0.2803699999999907,
          "durationTicks": 384,
          "midi": 36,
          "name": "C2",
          "ticks": 126720,
          "time": 99.23147000000002,
          "velocity": 0.968503937007874
        },
        {
          "duration": 0.2803700000000049,
          "durationTicks": 384,
          "midi": 36,
          "name": "C2",
          "ticks": 127488,
          "time": 99.79221000000001,
          "velocity": 0.968503937007874
        },
        {
          "duration": 1.8055049999999966,
          "durationTicks": 2496,
          "midi": 36,
          "name": "C2",
          "ticks": 128256,
          "time": 100.35295,
          "velocity": 0.905511811023622
        },
        {
          "duration": 0.13888500000000192,
          "durationTicks": 192,
          "midi": 36,
          "name": "C2",
          "ticks": 130752,
          "time": 102.158455,
          "velocity": 0.8582677165354331
        },
        {
          "duration": 0.13888500000000192,
          "durationTicks": 192,
          "midi": 36,
          "name": "C2",
          "ticks": 130944,
          "time": 102.29734,
          "velocity": 0.8582677165354331
        },
        {
          "duration": 0.13888500000000192,
          "durationTicks": 192,
          "midi": 36,
          "name": "C2",
          "ticks": 131136,
          "time": 102.43622500000001,
          "velocity": 0.8582677165354331
        },
        {
          "duration": 1.8055049999999966,
          "durationTicks": 2496,
          "midi": 31,
          "name": "G1",
          "ticks": 131328,
          "time": 102.57511000000001,
          "velocity": 0.8582677165354331
        },
        {
          "duration": 0.13888500000000192,
          "durationTicks": 192,
          "midi": 31,
          "name": "G1",
          "ticks": 133824,
          "time": 104.380615,
          "velocity": 0.8582677165354331
        },
        {
          "duration": 0.13888500000000192,
          "durationTicks": 192,
          "midi": 36,
          "name": "C2",
          "ticks": 134016,
          "time": 104.51950000000001,
          "velocity": 0.8582677165354331
        },
        {
          "duration": 0.13888500000000192,
          "durationTicks": 192,
          "midi": 36,
          "name": "C2",
          "ticks": 134208,
          "time": 104.65838500000001,
          "velocity": 0.8582677165354331
        },
        {
          "duration": 0.13888500000000192,
          "durationTicks": 192,
          "midi": 36,
          "name": "C2",
          "ticks": 134400,
          "time": 104.79727000000001,
          "velocity": 0.968503937007874
        },
        {
          "duration": 0.1388849999999877,
          "durationTicks": 192,
          "midi": 36,
          "name": "C2",
          "ticks": 134592,
          "time": 104.93615500000001,
          "velocity": 0.968503937007874
        },
        {
          "duration": 0.13888500000000192,
          "durationTicks": 192,
          "midi": 36,
          "name": "C2",
          "ticks": 134784,
          "time": 105.07504,
          "velocity": 0.968503937007874
        },
        {
          "duration": 0.13888500000000192,
          "durationTicks": 192,
          "midi": 36,
          "name": "C2",
          "ticks": 134976,
          "time": 105.213925,
          "velocity": 0.968503937007874
        },
        {
          "duration": 0.13888500000000192,
          "durationTicks": 192,
          "midi": 36,
          "name": "C2",
          "ticks": 135168,
          "time": 105.35281,
          "velocity": 0.968503937007874
        },
        {
          "duration": 0.13888500000000192,
          "durationTicks": 192,
          "midi": 36,
          "name": "C2",
          "ticks": 135360,
          "time": 105.491695,
          "velocity": 0.968503937007874
        },
        {
          "duration": 0.13888500000000192,
          "durationTicks": 192,
          "midi": 36,
          "name": "C2",
          "ticks": 135552,
          "time": 105.63058000000001,
          "velocity": 0.968503937007874
        },
        {
          "duration": 0.13888500000000192,
          "durationTicks": 192,
          "midi": 36,
          "name": "C2",
          "ticks": 135744,
          "time": 105.76946500000001,
          "velocity": 0.968503937007874
        },
        {
          "duration": 0.1388849999999877,
          "durationTicks": 192,
          "midi": 36,
          "name": "C2",
          "ticks": 135936,
          "time": 105.90835000000001,
          "velocity": 0.968503937007874
        },
        {
          "duration": 0.13888500000000192,
          "durationTicks": 192,
          "midi": 36,
          "name": "C2",
          "ticks": 136128,
          "time": 106.047235,
          "velocity": 0.968503937007874
        },
        {
          "duration": 0.13888500000000192,
          "durationTicks": 192,
          "midi": 36,
          "name": "C2",
          "ticks": 136320,
          "time": 106.18612,
          "velocity": 0.968503937007874
        },
        {
          "duration": 0.13888500000000192,
          "durationTicks": 192,
          "midi": 36,
          "name": "C2",
          "ticks": 136512,
          "time": 106.325005,
          "velocity": 0.968503937007874
        },
        {
          "duration": 0.13888500000000192,
          "durationTicks": 192,
          "midi": 36,
          "name": "C2",
          "ticks": 136704,
          "time": 106.46389,
          "velocity": 0.968503937007874
        },
        {
          "duration": 0.13888500000000192,
          "durationTicks": 192,
          "midi": 36,
          "name": "C2",
          "ticks": 136896,
          "time": 106.60277500000001,
          "velocity": 0.968503937007874
        },
        {
          "duration": 0.13888500000000192,
          "durationTicks": 192,
          "midi": 36,
          "name": "C2",
          "ticks": 137088,
          "time": 106.74166000000001,
          "velocity": 0.968503937007874
        },
        {
          "duration": 0.1388849999999877,
          "durationTicks": 192,
          "midi": 36,
          "name": "C2",
          "ticks": 137280,
          "time": 106.88054500000001,
          "velocity": 0.968503937007874
        },
        {
          "duration": 0.27777000000000385,
          "durationTicks": 384,
          "midi": 36,
          "name": "C2",
          "ticks": 137472,
          "time": 107.01943,
          "velocity": 0.968503937007874
        },
        {
          "duration": 0.27777000000000385,
          "durationTicks": 384,
          "midi": 38,
          "name": "D2",
          "ticks": 139008,
          "time": 108.13051,
          "velocity": 0.968503937007874
        },
        {
          "duration": 0.1442299999999932,
          "durationTicks": 192,
          "midi": 34,
          "name": "A#1",
          "ticks": 144576,
          "time": 112.29180000000001,
          "velocity": 0.7165354330708661
        },
        {
          "duration": 0.1442300000000074,
          "durationTicks": 192,
          "midi": 34,
          "name": "A#1",
          "ticks": 144768,
          "time": 112.43603,
          "velocity": 0.7165354330708661
        },
        {
          "duration": 0.1442299999999932,
          "durationTicks": 192,
          "midi": 34,
          "name": "A#1",
          "ticks": 144960,
          "time": 112.58026000000001,
          "velocity": 0.7165354330708661
        },
        {
          "duration": 0.2884600000000006,
          "durationTicks": 384,
          "midi": 39,
          "name": "D#2",
          "ticks": 145152,
          "time": 112.72449,
          "velocity": 0.7165354330708661
        },
        {
          "duration": 0.1415049999999951,
          "durationTicks": 192,
          "midi": 34,
          "name": "A#1",
          "ticks": 147648,
          "time": 114.58585500000001,
          "velocity": 0.7165354330708661
        },
        {
          "duration": 0.1415049999999951,
          "durationTicks": 192,
          "midi": 34,
          "name": "A#1",
          "ticks": 147840,
          "time": 114.72736,
          "velocity": 0.7165354330708661
        },
        {
          "duration": 0.14150500000000932,
          "durationTicks": 192,
          "midi": 34,
          "name": "A#1",
          "ticks": 148032,
          "time": 114.868865,
          "velocity": 0.7165354330708661
        },
        {
          "duration": 0.2830099999999902,
          "durationTicks": 384,
          "midi": 39,
          "name": "D#2",
          "ticks": 148224,
          "time": 115.01037000000001,
          "velocity": 0.7165354330708661
        },
        {
          "duration": 0.13888500000000192,
          "durationTicks": 192,
          "midi": 34,
          "name": "A#1",
          "ticks": 150720,
          "time": 116.83683500000001,
          "velocity": 0.7165354330708661
        },
        {
          "duration": 0.13888500000000192,
          "durationTicks": 192,
          "midi": 34,
          "name": "A#1",
          "ticks": 150912,
          "time": 116.97572000000001,
          "velocity": 0.7165354330708661
        },
        {
          "duration": 0.13888500000000192,
          "durationTicks": 192,
          "midi": 34,
          "name": "A#1",
          "ticks": 151104,
          "time": 117.11460500000001,
          "velocity": 0.7165354330708661
        },
        {
          "duration": 0.27777000000000385,
          "durationTicks": 384,
          "midi": 39,
          "name": "D#2",
          "ticks": 151296,
          "time": 117.25349000000001,
          "velocity": 0.7165354330708661
        },
        {
          "duration": 0.13888500000000192,
          "durationTicks": 192,
          "midi": 36,
          "name": "C2",
          "ticks": 153792,
          "time": 119.05899500000001,
          "velocity": 0.7165354330708661
        },
        {
          "duration": 0.13888500000000192,
          "durationTicks": 192,
          "midi": 36,
          "name": "C2",
          "ticks": 153984,
          "time": 119.19788000000001,
          "velocity": 0.7165354330708661
        },
        {
          "duration": 0.13888500000000192,
          "durationTicks": 192,
          "midi": 36,
          "name": "C2",
          "ticks": 154176,
          "time": 119.33676500000001,
          "velocity": 0.7165354330708661
        },
        {
          "duration": 0.27776999999998964,
          "durationTicks": 384,
          "midi": 41,
          "name": "F2",
          "ticks": 154368,
          "time": 119.47565000000002,
          "velocity": 0.7165354330708661
        },
        {
          "duration": 0.13888500000000192,
          "durationTicks": 192,
          "midi": 39,
          "name": "D#2",
          "ticks": 156864,
          "time": 121.28115500000001,
          "velocity": 0.7165354330708661
        },
        {
          "duration": 0.13888500000000192,
          "durationTicks": 192,
          "midi": 39,
          "name": "D#2",
          "ticks": 157056,
          "time": 121.42004000000001,
          "velocity": 0.7165354330708661
        },
        {
          "duration": 0.13888500000000192,
          "durationTicks": 192,
          "midi": 39,
          "name": "D#2",
          "ticks": 157248,
          "time": 121.55892500000002,
          "velocity": 0.7165354330708661
        },
        {
          "duration": 0.27776999999998964,
          "durationTicks": 384,
          "midi": 44,
          "name": "G#2",
          "ticks": 157440,
          "time": 121.69781000000002,
          "velocity": 0.7165354330708661
        },
        {
          "duration": 0.13888500000000192,
          "durationTicks": 192,
          "midi": 45,
          "name": "A2",
          "ticks": 159168,
          "time": 122.94777500000001,
          "velocity": 0.7165354330708661
        },
        {
          "duration": 0.13888500000000192,
          "durationTicks": 192,
          "midi": 45,
          "name": "A2",
          "ticks": 159360,
          "time": 123.08666000000001,
          "velocity": 0.7165354330708661
        },
        {
          "duration": 0.13888500000000192,
          "durationTicks": 192,
          "midi": 45,
          "name": "A2",
          "ticks": 159552,
          "time": 123.22554500000001,
          "velocity": 0.7165354330708661
        },
        {
          "duration": 0.27777000000000385,
          "durationTicks": 384,
          "midi": 45,
          "name": "A2",
          "ticks": 159744,
          "time": 123.36443000000001,
          "velocity": 0.7165354330708661
        },
        {
          "duration": 0.13888500000000192,
          "durationTicks": 192,
          "midi": 46,
          "name": "A#2",
          "ticks": 160704,
          "time": 124.05885500000001,
          "velocity": 0.7165354330708661
        },
        {
          "duration": 0.13888500000000192,
          "durationTicks": 192,
          "midi": 46,
          "name": "A#2",
          "ticks": 160896,
          "time": 124.19774000000001,
          "velocity": 0.7165354330708661
        },
        {
          "duration": 0.13888500000000192,
          "durationTicks": 192,
          "midi": 46,
          "name": "A#2",
          "ticks": 161088,
          "time": 124.33662500000001,
          "velocity": 0.7165354330708661
        },
        {
          "duration": 0.27777000000000385,
          "durationTicks": 384,
          "midi": 46,
          "name": "A#2",
          "ticks": 161280,
          "time": 124.47551000000001,
          "velocity": 0.7165354330708661
        },
        {
          "duration": 0.13888500000000192,
          "durationTicks": 192,
          "midi": 47,
          "name": "B2",
          "ticks": 162240,
          "time": 125.16993500000001,
          "velocity": 0.7952755905511811
        },
        {
          "duration": 0.13888500000000192,
          "durationTicks": 192,
          "midi": 47,
          "name": "B2",
          "ticks": 162432,
          "time": 125.30882000000001,
          "velocity": 0.7952755905511811
        },
        {
          "duration": 0.13888500000000192,
          "durationTicks": 192,
          "midi": 47,
          "name": "B2",
          "ticks": 162624,
          "time": 125.44770500000001,
          "velocity": 0.7952755905511811
        },
        {
          "duration": 0.27777000000000385,
          "durationTicks": 384,
          "midi": 47,
          "name": "B2",
          "ticks": 162816,
          "time": 125.58659000000002,
          "velocity": 0.7952755905511811
        },
        {
          "duration": 0.13888500000000192,
          "durationTicks": 192,
          "midi": 48,
          "name": "C3",
          "ticks": 163776,
          "time": 126.28101500000001,
          "velocity": 0.8582677165354331
        },
        {
          "duration": 0.13888500000000192,
          "durationTicks": 192,
          "midi": 48,
          "name": "C3",
          "ticks": 163968,
          "time": 126.41990000000001,
          "velocity": 0.8582677165354331
        },
        {
          "duration": 0.13888500000000192,
          "durationTicks": 192,
          "midi": 48,
          "name": "C3",
          "ticks": 164160,
          "time": 126.55878500000001,
          "velocity": 0.8582677165354331
        },
        {
          "duration": 0.27777000000000385,
          "durationTicks": 384,
          "midi": 48,
          "name": "C3",
          "ticks": 164352,
          "time": 126.69767000000002,
          "velocity": 0.8582677165354331
        },
        {
          "duration": 0.13888500000000192,
          "durationTicks": 192,
          "midi": 48,
          "name": "C3",
          "ticks": 165312,
          "time": 127.39209500000001,
          "velocity": 0.905511811023622
        },
        {
          "duration": 0.13888500000000192,
          "durationTicks": 192,
          "midi": 48,
          "name": "C3",
          "ticks": 165504,
          "time": 127.53098000000001,
          "velocity": 0.905511811023622
        },
        {
          "duration": 0.13888500000000192,
          "durationTicks": 192,
          "midi": 48,
          "name": "C3",
          "ticks": 165696,
          "time": 127.66986500000002,
          "velocity": 0.905511811023622
        },
        {
          "duration": 0.27776999999998964,
          "durationTicks": 384,
          "midi": 48,
          "name": "C3",
          "ticks": 165888,
          "time": 127.80875000000002,
          "velocity": 0.905511811023622
        },
        {
          "duration": 0.13888500000001613,
          "durationTicks": 192,
          "midi": 48,
          "name": "C3",
          "ticks": 166272,
          "time": 128.08652,
          "velocity": 0.905511811023622
        },
        {
          "duration": 0.1388849999999877,
          "durationTicks": 192,
          "midi": 48,
          "name": "C3",
          "ticks": 166464,
          "time": 128.22540500000002,
          "velocity": 0.905511811023622
        },
        {
          "duration": 0.8333100000000115,
          "durationTicks": 1152,
          "midi": 50,
          "name": "D3",
          "ticks": 166656,
          "time": 128.36429,
          "velocity": 0.968503937007874
        },
        {
          "duration": 0.2777699999999754,
          "durationTicks": 384,
          "midi": 38,
          "name": "D2",
          "ticks": 167808,
          "time": 129.19760000000002,
          "velocity": 0.968503937007874
        },
        {
          "duration": 0.27777000000000385,
          "durationTicks": 384,
          "midi": 39,
          "name": "D#2",
          "ticks": 168192,
          "time": 129.47537,
          "velocity": 0.968503937007874
        },
        {
          "duration": 0.27777000000000385,
          "durationTicks": 384,
          "midi": 41,
          "name": "F2",
          "ticks": 168960,
          "time": 130.03091,
          "velocity": 0.968503937007874
        },
        {
          "duration": 0.27777000000000385,
          "durationTicks": 384,
          "midi": 43,
          "name": "G2",
          "ticks": 169728,
          "time": 130.58645,
          "velocity": 0.968503937007874
        },
        {
          "duration": 0.27777000000000385,
          "durationTicks": 384,
          "midi": 44,
          "name": "G#2",
          "ticks": 170496,
          "time": 131.14199000000002,
          "velocity": 0.968503937007874
        },
        {
          "duration": 0.27777000000000385,
          "durationTicks": 384,
          "midi": 46,
          "name": "A#2",
          "ticks": 171264,
          "time": 131.69753,
          "velocity": 0.968503937007874
        },
        {
          "duration": 0.27777000000000385,
          "durationTicks": 384,
          "midi": 34,
          "name": "A#1",
          "ticks": 172032,
          "time": 132.25307,
          "velocity": 0.968503937007874
        },
        {
          "duration": 0.27777000000000385,
          "durationTicks": 384,
          "midi": 38,
          "name": "D2",
          "ticks": 172800,
          "time": 132.80861000000002,
          "velocity": 0.968503937007874
        },
        {
          "duration": 0.27777000000000385,
          "durationTicks": 384,
          "midi": 41,
          "name": "F2",
          "ticks": 173184,
          "time": 133.08638000000002,
          "velocity": 0.968503937007874
        },
        {
          "duration": 0.27777000000000385,
          "durationTicks": 384,
          "midi": 38,
          "name": "D2",
          "ticks": 173568,
          "time": 133.36415000000002,
          "velocity": 0.968503937007874
        },
        {
          "duration": 0.2777699999999754,
          "durationTicks": 384,
          "midi": 41,
          "name": "F2",
          "ticks": 173952,
          "time": 133.64192000000003,
          "velocity": 0.968503937007874
        },
        {
          "duration": 0.27777000000000385,
          "durationTicks": 384,
          "midi": 39,
          "name": "D#2",
          "ticks": 174336,
          "time": 133.91969,
          "velocity": 0.968503937007874
        },
        {
          "duration": 0.27777000000000385,
          "durationTicks": 384,
          "midi": 43,
          "name": "G2",
          "ticks": 174720,
          "time": 134.19746,
          "velocity": 0.968503937007874
        },
        {
          "duration": 0.27777000000000385,
          "durationTicks": 384,
          "midi": 41,
          "name": "F2",
          "ticks": 175104,
          "time": 134.47523,
          "velocity": 0.968503937007874
        },
        {
          "duration": 0.27777000000000385,
          "durationTicks": 384,
          "midi": 44,
          "name": "G#2",
          "ticks": 175488,
          "time": 134.75300000000001,
          "velocity": 0.968503937007874
        },
        {
          "duration": 0.27777000000000385,
          "durationTicks": 384,
          "midi": 43,
          "name": "G2",
          "ticks": 175872,
          "time": 135.03077000000002,
          "velocity": 0.968503937007874
        },
        {
          "duration": 0.27777000000000385,
          "durationTicks": 384,
          "midi": 46,
          "name": "A#2",
          "ticks": 176256,
          "time": 135.30854000000002,
          "velocity": 0.968503937007874
        },
        {
          "duration": 0.2777699999999754,
          "durationTicks": 384,
          "midi": 44,
          "name": "G#2",
          "ticks": 176640,
          "time": 135.58631000000003,
          "velocity": 0.968503937007874
        },
        {
          "duration": 0.27777000000000385,
          "durationTicks": 384,
          "midi": 48,
          "name": "C3",
          "ticks": 177024,
          "time": 135.86408,
          "velocity": 0.968503937007874
        },
        {
          "duration": 0.27777000000000385,
          "durationTicks": 384,
          "midi": 46,
          "name": "A#2",
          "ticks": 177408,
          "time": 136.14185,
          "velocity": 0.968503937007874
        },
        {
          "duration": 0.27777000000000385,
          "durationTicks": 384,
          "midi": 34,
          "name": "A#1",
          "ticks": 177792,
          "time": 136.41962,
          "velocity": 0.968503937007874
        },
        {
          "duration": 0.27777000000000385,
          "durationTicks": 384,
          "midi": 46,
          "name": "A#2",
          "ticks": 178176,
          "time": 136.69739,
          "velocity": 0.968503937007874
        },
        {
          "duration": 0.27777000000000385,
          "durationTicks": 384,
          "midi": 34,
          "name": "A#1",
          "ticks": 178560,
          "time": 136.97516000000002,
          "velocity": 0.968503937007874
        },
        {
          "duration": 1.8055049999999824,
          "durationTicks": 2496,
          "midi": 39,
          "name": "D#2",
          "ticks": 178944,
          "time": 137.25293000000002,
          "velocity": 0.968503937007874
        },
        {
          "duration": 0.13888500000001613,
          "durationTicks": 192,
          "midi": 34,
          "name": "A#1",
          "ticks": 181440,
          "time": 139.058435,
          "velocity": 0.968503937007874
        },
        {
          "duration": 0.1388849999999877,
          "durationTicks": 192,
          "midi": 34,
          "name": "A#1",
          "ticks": 181632,
          "time": 139.19732000000002,
          "velocity": 0.968503937007874
        },
        {
          "duration": 0.13888500000001613,
          "durationTicks": 192,
          "midi": 34,
          "name": "A#1",
          "ticks": 181824,
          "time": 139.336205,
          "velocity": 0.968503937007874
        },
        {
          "duration": 1.8055049999999824,
          "durationTicks": 2496,
          "midi": 39,
          "name": "D#2",
          "ticks": 182016,
          "time": 139.47509000000002,
          "velocity": 0.968503937007874
        },
        {
          "duration": 0.13888500000001613,
          "durationTicks": 192,
          "midi": 34,
          "name": "A#1",
          "ticks": 184512,
          "time": 141.280595,
          "velocity": 0.968503937007874
        },
        {
          "duration": 0.1388849999999877,
          "durationTicks": 192,
          "midi": 34,
          "name": "A#1",
          "ticks": 184704,
          "time": 141.41948000000002,
          "velocity": 0.968503937007874
        },
        {
          "duration": 0.13888500000001613,
          "durationTicks": 192,
          "midi": 34,
          "name": "A#1",
          "ticks": 184896,
          "time": 141.558365,
          "velocity": 0.968503937007874
        },
        {
          "duration": 0.27777000000000385,
          "durationTicks": 384,
          "midi": 39,
          "name": "D#2",
          "ticks": 185088,
          "time": 141.69725000000003,
          "velocity": 0.968503937007874
        },
        {
          "duration": 0.1388849999999877,
          "durationTicks": 192,
          "midi": 34,
          "name": "A#1",
          "ticks": 186048,
          "time": 142.39167500000002,
          "velocity": 0.968503937007874
        },
        {
          "duration": 0.13888500000001613,
          "durationTicks": 192,
          "midi": 34,
          "name": "A#1",
          "ticks": 186240,
          "time": 142.53056,
          "velocity": 0.968503937007874
        },
        {
          "duration": 0.1388849999999877,
          "durationTicks": 192,
          "midi": 34,
          "name": "A#1",
          "ticks": 186432,
          "time": 142.66944500000002,
          "velocity": 0.968503937007874
        },
        {
          "duration": 0.27777000000000385,
          "durationTicks": 384,
          "midi": 39,
          "name": "D#2",
          "ticks": 186624,
          "time": 142.80833,
          "velocity": 0.968503937007874
        },
        {
          "duration": 0.13888500000001613,
          "durationTicks": 192,
          "midi": 34,
          "name": "A#1",
          "ticks": 187584,
          "time": 143.502755,
          "velocity": 0.968503937007874
        },
        {
          "duration": 0.1388849999999877,
          "durationTicks": 192,
          "midi": 34,
          "name": "A#1",
          "ticks": 187776,
          "time": 143.64164000000002,
          "velocity": 0.968503937007874
        },
        {
          "duration": 0.13888500000001613,
          "durationTicks": 192,
          "midi": 34,
          "name": "A#1",
          "ticks": 187968,
          "time": 143.780525,
          "velocity": 0.968503937007874
        },
        {
          "duration": 0.2777699999999754,
          "durationTicks": 384,
          "midi": 39,
          "name": "D#2",
          "ticks": 188160,
          "time": 143.91941000000003,
          "velocity": 0.968503937007874
        },
        {
          "duration": 0.1388849999999877,
          "durationTicks": 192,
          "midi": 37,
          "name": "C#2",
          "ticks": 191424,
          "time": 146.28045500000002,
          "velocity": 0.968503937007874
        },
        {
          "duration": 0.13888500000001613,
          "durationTicks": 192,
          "midi": 37,
          "name": "C#2",
          "ticks": 191616,
          "time": 146.41934,
          "velocity": 0.968503937007874
        },
        {
          "duration": 0.1388849999999877,
          "durationTicks": 192,
          "midi": 37,
          "name": "C#2",
          "ticks": 191808,
          "time": 146.55822500000002,
          "velocity": 0.968503937007874
        },
        {
          "duration": 1.5714199999999892,
          "durationTicks": 1536,
          "midi": 36,
          "name": "C2",
          "ticks": 192000,
          "time": 146.69711,
          "velocity": 0.968503937007874
        },
        {
          "duration": 0.30000000000001137,
          "durationTicks": 384,
          "midi": 31,
          "name": "G1",
          "ticks": 206208,
          "time": 158.01287000000002,
          "velocity": 0.7165354330708661
        },
        {
          "duration": 0.30000000000001137,
          "durationTicks": 384,
          "midi": 36,
          "name": "C2",
          "ticks": 206592,
          "time": 158.31287000000003,
          "velocity": 0.7165354330708661
        },
        {
          "duration": 0.30000000000001137,
          "durationTicks": 384,
          "midi": 31,
          "name": "G1",
          "ticks": 207360,
          "time": 158.91287000000003,
          "velocity": 0.7165354330708661
        },
        {
          "duration": 0.30000000000001137,
          "durationTicks": 384,
          "midi": 36,
          "name": "C2",
          "ticks": 208128,
          "time": 159.51287000000002,
          "velocity": 0.7165354330708661
        },
        {
          "duration": 0.29999999999998295,
          "durationTicks": 384,
          "midi": 31,
          "name": "G1",
          "ticks": 208896,
          "time": 160.11287000000004,
          "velocity": 0.7165354330708661
        },
        {
          "duration": 0.29999999999998295,
          "durationTicks": 384,
          "midi": 36,
          "name": "C2",
          "ticks": 209664,
          "time": 160.71287000000004,
          "velocity": 0.7165354330708661
        },
        {
          "duration": 0.30000000000001137,
          "durationTicks": 384,
          "midi": 33,
          "name": "A1",
          "ticks": 211200,
          "time": 161.91287000000003,
          "velocity": 0.7165354330708661
        },
        {
          "duration": 0.30000000000001137,
          "durationTicks": 384,
          "midi": 38,
          "name": "D2",
          "ticks": 211968,
          "time": 162.51287000000002,
          "velocity": 0.7165354330708661
        },
        {
          "duration": 0.29999999999998295,
          "durationTicks": 384,
          "midi": 43,
          "name": "G2",
          "ticks": 212736,
          "time": 163.11287000000004,
          "velocity": 0.7165354330708661
        },
        {
          "duration": 0.29999999999998295,
          "durationTicks": 384,
          "midi": 38,
          "name": "D2",
          "ticks": 213504,
          "time": 163.71287000000004,
          "velocity": 0.7165354330708661
        },
        {
          "duration": 0.30000000000001137,
          "durationTicks": 384,
          "midi": 43,
          "name": "G2",
          "ticks": 214272,
          "time": 164.31287000000003,
          "velocity": 0.7165354330708661
        },
        {
          "duration": 0.30000000000001137,
          "durationTicks": 384,
          "midi": 38,
          "name": "D2",
          "ticks": 215040,
          "time": 164.91287000000003,
          "velocity": 0.7165354330708661
        },
        {
          "duration": 0.75,
          "durationTicks": 960,
          "midi": 31,
          "name": "G1",
          "ticks": 215808,
          "time": 165.51287000000002,
          "velocity": 0.7165354330708661
        },
        {
          "duration": 0.15000000000000568,
          "durationTicks": 192,
          "midi": 31,
          "name": "G1",
          "ticks": 216768,
          "time": 166.26287000000002,
          "velocity": 0.7165354330708661
        },
        {
          "duration": 0.15000000000000568,
          "durationTicks": 192,
          "midi": 31,
          "name": "G1",
          "ticks": 216960,
          "time": 166.41287000000003,
          "velocity": 0.7165354330708661
        },
        {
          "duration": 0.15000000000000568,
          "durationTicks": 192,
          "midi": 31,
          "name": "G1",
          "ticks": 217152,
          "time": 166.56287000000003,
          "velocity": 0.7165354330708661
        },
        {
          "duration": 0.75,
          "durationTicks": 960,
          "midi": 33,
          "name": "A1",
          "ticks": 217344,
          "time": 166.71287000000004,
          "velocity": 0.7165354330708661
        },
        {
          "duration": 0.15000000000000568,
          "durationTicks": 192,
          "midi": 33,
          "name": "A1",
          "ticks": 218304,
          "time": 167.46287000000004,
          "velocity": 0.7165354330708661
        },
        {
          "duration": 0.14999999999997726,
          "durationTicks": 192,
          "midi": 33,
          "name": "A1",
          "ticks": 218496,
          "time": 167.61287000000004,
          "velocity": 0.7165354330708661
        },
        {
          "duration": 0.15000000000000568,
          "durationTicks": 192,
          "midi": 33,
          "name": "A1",
          "ticks": 218688,
          "time": 167.76287000000002,
          "velocity": 0.7165354330708661
        },
        {
          "duration": 0.75,
          "durationTicks": 960,
          "midi": 33,
          "name": "A1",
          "ticks": 218880,
          "time": 167.91287000000003,
          "velocity": 0.7165354330708661
        },
        {
          "duration": 0.15000000000000568,
          "durationTicks": 192,
          "midi": 33,
          "name": "A1",
          "ticks": 219840,
          "time": 168.66287000000003,
          "velocity": 0.7165354330708661
        },
        {
          "duration": 0.15000000000000568,
          "durationTicks": 192,
          "midi": 33,
          "name": "A1",
          "ticks": 220032,
          "time": 168.81287000000003,
          "velocity": 0.7165354330708661
        },
        {
          "duration": 0.15000000000000568,
          "durationTicks": 192,
          "midi": 33,
          "name": "A1",
          "ticks": 220224,
          "time": 168.96287000000004,
          "velocity": 0.7165354330708661
        },
        {
          "duration": 0.75,
          "durationTicks": 960,
          "midi": 34,
          "name": "A#1",
          "ticks": 220416,
          "time": 169.11287000000004,
          "velocity": 0.7165354330708661
        },
        {
          "duration": 0.14999999999997726,
          "durationTicks": 192,
          "midi": 34,
          "name": "A#1",
          "ticks": 221376,
          "time": 169.86287000000004,
          "velocity": 0.7165354330708661
        },
        {
          "duration": 0.15000000000000568,
          "durationTicks": 192,
          "midi": 34,
          "name": "A#1",
          "ticks": 221568,
          "time": 170.01287000000002,
          "velocity": 0.7165354330708661
        },
        {
          "duration": 0.15000000000000568,
          "durationTicks": 192,
          "midi": 34,
          "name": "A#1",
          "ticks": 221760,
          "time": 170.16287000000003,
          "velocity": 0.7165354330708661
        },
        {
          "duration": 0.75,
          "durationTicks": 960,
          "midi": 34,
          "name": "A#1",
          "ticks": 221952,
          "time": 170.31287000000003,
          "velocity": 0.7952755905511811
        },
        {
          "duration": 0.15000000000000568,
          "durationTicks": 192,
          "midi": 34,
          "name": "A#1",
          "ticks": 222912,
          "time": 171.06287000000003,
          "velocity": 0.8582677165354331
        },
        {
          "duration": 0.15000000000000568,
          "durationTicks": 192,
          "midi": 34,
          "name": "A#1",
          "ticks": 223104,
          "time": 171.21287000000004,
          "velocity": 0.8582677165354331
        },
        {
          "duration": 0.14999999999997726,
          "durationTicks": 192,
          "midi": 34,
          "name": "A#1",
          "ticks": 223296,
          "time": 171.36287000000004,
          "velocity": 0.8582677165354331
        },
        {
          "duration": 0.15000000000000568,
          "durationTicks": 192,
          "midi": 36,
          "name": "C2",
          "ticks": 223488,
          "time": 171.51287000000002,
          "velocity": 0.905511811023622
        },
        {
          "duration": 0.15000000000000568,
          "durationTicks": 192,
          "midi": 36,
          "name": "C2",
          "ticks": 223680,
          "time": 171.66287000000003,
          "velocity": 0.905511811023622
        },
        {
          "duration": 0.15000000000000568,
          "durationTicks": 192,
          "midi": 36,
          "name": "C2",
          "ticks": 223872,
          "time": 171.81287000000003,
          "velocity": 0.905511811023622
        },
        {
          "duration": 0.15000000000000568,
          "durationTicks": 192,
          "midi": 36,
          "name": "C2",
          "ticks": 224064,
          "time": 171.96287000000004,
          "velocity": 0.905511811023622
        },
        {
          "duration": 0.14999999999997726,
          "durationTicks": 192,
          "midi": 36,
          "name": "C2",
          "ticks": 224256,
          "time": 172.11287000000004,
          "velocity": 0.905511811023622
        },
        {
          "duration": 0.15000000000000568,
          "durationTicks": 192,
          "midi": 36,
          "name": "C2",
          "ticks": 224448,
          "time": 172.26287000000002,
          "velocity": 0.905511811023622
        },
        {
          "duration": 0.15000000000000568,
          "durationTicks": 192,
          "midi": 36,
          "name": "C2",
          "ticks": 224640,
          "time": 172.41287000000003,
          "velocity": 0.905511811023622
        },
        {
          "duration": 0.15000000000000568,
          "durationTicks": 192,
          "midi": 36,
          "name": "C2",
          "ticks": 224832,
          "time": 172.56287000000003,
          "velocity": 0.905511811023622
        },
        {
          "duration": 0.29999999999998295,
          "durationTicks": 384,
          "midi": 36,
          "name": "C2",
          "ticks": 225024,
          "time": 172.71287000000004,
          "velocity": 0.905511811023622
        },
        {
          "duration": 0.15000000000000568,
          "durationTicks": 192,
          "midi": 37,
          "name": "C#2",
          "ticks": 225984,
          "time": 173.46287000000004,
          "velocity": 0.905511811023622
        },
        {
          "duration": 0.14999999999997726,
          "durationTicks": 192,
          "midi": 37,
          "name": "C#2",
          "ticks": 226176,
          "time": 173.61287000000004,
          "velocity": 0.905511811023622
        },
        {
          "duration": 0.15000000000000568,
          "durationTicks": 192,
          "midi": 37,
          "name": "C#2",
          "ticks": 226368,
          "time": 173.76287000000002,
          "velocity": 0.905511811023622
        },
        {
          "duration": 0.15000000000000568,
          "durationTicks": 192,
          "midi": 37,
          "name": "C#2",
          "ticks": 226560,
          "time": 173.91287000000003,
          "velocity": 0.905511811023622
        },
        {
          "duration": 0.15000000000000568,
          "durationTicks": 192,
          "midi": 37,
          "name": "C#2",
          "ticks": 226752,
          "time": 174.06287000000003,
          "velocity": 0.905511811023622
        },
        {
          "duration": 0.15000000000000568,
          "durationTicks": 192,
          "midi": 37,
          "name": "C#2",
          "ticks": 226944,
          "time": 174.21287000000004,
          "velocity": 0.905511811023622
        },
        {
          "duration": 0.14999999999997726,
          "durationTicks": 192,
          "midi": 37,
          "name": "C#2",
          "ticks": 227136,
          "time": 174.36287000000004,
          "velocity": 0.905511811023622
        },
        {
          "duration": 0.15000000000000568,
          "durationTicks": 192,
          "midi": 37,
          "name": "C#2",
          "ticks": 227328,
          "time": 174.51287000000002,
          "velocity": 0.905511811023622
        },
        {
          "duration": 0.15000000000000568,
          "durationTicks": 192,
          "midi": 37,
          "name": "C#2",
          "ticks": 227520,
          "time": 174.66287000000003,
          "velocity": 0.905511811023622
        },
        {
          "duration": 0.15000000000000568,
          "durationTicks": 192,
          "midi": 37,
          "name": "C#2",
          "ticks": 227712,
          "time": 174.81287000000003,
          "velocity": 0.905511811023622
        },
        {
          "duration": 0.15000000000000568,
          "durationTicks": 192,
          "midi": 37,
          "name": "C#2",
          "ticks": 227904,
          "time": 174.96287000000004,
          "velocity": 0.905511811023622
        },
        {
          "duration": 0.29999999999998295,
          "durationTicks": 384,
          "midi": 37,
          "name": "C#2",
          "ticks": 228096,
          "time": 175.11287000000004,
          "velocity": 0.905511811023622
        },
        {
          "duration": 0.14999999999997726,
          "durationTicks": 192,
          "midi": 38,
          "name": "D2",
          "ticks": 229056,
          "time": 175.86287000000004,
          "velocity": 0.905511811023622
        },
        {
          "duration": 0.15000000000000568,
          "durationTicks": 192,
          "midi": 38,
          "name": "D2",
          "ticks": 229248,
          "time": 176.01287000000002,
          "velocity": 0.905511811023622
        },
        {
          "duration": 0.15000000000000568,
          "durationTicks": 192,
          "midi": 38,
          "name": "D2",
          "ticks": 229440,
          "time": 176.16287000000003,
          "velocity": 0.905511811023622
        },
        {
          "duration": 0.30000000000001137,
          "durationTicks": 384,
          "midi": 38,
          "name": "D2",
          "ticks": 229632,
          "time": 176.31287000000003,
          "velocity": 0.905511811023622
        },
        {
          "duration": 0.15000000000000568,
          "durationTicks": 192,
          "midi": 40,
          "name": "E2",
          "ticks": 230784,
          "time": 177.21287000000004,
          "velocity": 0.905511811023622
        },
        {
          "duration": 0.14999999999997726,
          "durationTicks": 192,
          "midi": 40,
          "name": "E2",
          "ticks": 230976,
          "time": 177.36287000000004,
          "velocity": 0.905511811023622
        },
        {
          "duration": 0.30000000000001137,
          "durationTicks": 384,
          "midi": 40,
          "name": "E2",
          "ticks": 231168,
          "time": 177.51287000000002,
          "velocity": 0.905511811023622
        },
        {
          "duration": 0.15000000000000568,
          "durationTicks": 192,
          "midi": 42,
          "name": "F#2",
          "ticks": 231552,
          "time": 177.81287000000003,
          "velocity": 0.905511811023622
        },
        {
          "duration": 0.15000000000000568,
          "durationTicks": 192,
          "midi": 42,
          "name": "F#2",
          "ticks": 231744,
          "time": 177.96287000000004,
          "velocity": 0.905511811023622
        },
        {
          "duration": 0.29999999999998295,
          "durationTicks": 384,
          "midi": 42,
          "name": "F#2",
          "ticks": 231936,
          "time": 178.11287000000004,
          "velocity": 0.905511811023622
        },
        {
          "duration": 0.5999999999999943,
          "durationTicks": 768,
          "midi": 48,
          "name": "C3",
          "ticks": 234624,
          "time": 180.21287000000004,
          "velocity": 0.905511811023622
        },
        {
          "duration": 0.30000000000001137,
          "durationTicks": 384,
          "midi": 45,
          "name": "A2",
          "ticks": 235392,
          "time": 180.81287000000003,
          "velocity": 0.905511811023622
        },
        {
          "duration": 0.29999999999998295,
          "durationTicks": 384,
          "midi": 42,
          "name": "F#2",
          "ticks": 235776,
          "time": 181.11287000000004,
          "velocity": 0.905511811023622
        },
        {
          "duration": 0.30000000000001137,
          "durationTicks": 384,
          "midi": 38,
          "name": "D2",
          "ticks": 236160,
          "time": 181.41287000000003,
          "velocity": 0.905511811023622
        },
        {
          "duration": 0.29999999999998295,
          "durationTicks": 384,
          "midi": 36,
          "name": "C2",
          "ticks": 236544,
          "time": 181.71287000000004,
          "velocity": 0.905511811023622
        },
        {
          "duration": 0.30000000000001137,
          "durationTicks": 384,
          "midi": 33,
          "name": "A1",
          "ticks": 236928,
          "time": 182.01287000000002,
          "velocity": 0.905511811023622
        },
        {
          "duration": 0.30000000000001137,
          "durationTicks": 384,
          "midi": 30,
          "name": "F#1",
          "ticks": 237312,
          "time": 182.31287000000003,
          "velocity": 0.905511811023622
        },
        {
          "duration": 0.29999999999998295,
          "durationTicks": 384,
          "midi": 38,
          "name": "D2",
          "ticks": 237696,
          "time": 182.61287000000004,
          "velocity": 0.905511811023622
        },
        {
          "duration": 0.30000000000001137,
          "durationTicks": 384,
          "midi": 31,
          "name": "G1",
          "ticks": 238080,
          "time": 182.91287000000003,
          "velocity": 0.905511811023622
        },
        {
          "duration": 0.6000000000000227,
          "durationTicks": 768,
          "midi": 53,
          "name": "F3",
          "ticks": 240768,
          "time": 185.01287000000002,
          "velocity": 0.905511811023622
        },
        {
          "duration": 0.29999999999998295,
          "durationTicks": 384,
          "midi": 50,
          "name": "D3",
          "ticks": 241536,
          "time": 185.61287000000004,
          "velocity": 0.905511811023622
        },
        {
          "duration": 0.30000000000001137,
          "durationTicks": 384,
          "midi": 47,
          "name": "B2",
          "ticks": 241920,
          "time": 185.91287000000003,
          "velocity": 0.905511811023622
        },
        {
          "duration": 0.29999999999998295,
          "durationTicks": 384,
          "midi": 43,
          "name": "G2",
          "ticks": 242304,
          "time": 186.21287000000004,
          "velocity": 0.905511811023622
        },
        {
          "duration": 0.30000000000001137,
          "durationTicks": 384,
          "midi": 41,
          "name": "F2",
          "ticks": 242688,
          "time": 186.51287000000002,
          "velocity": 0.905511811023622
        },
        {
          "duration": 0.30000000000001137,
          "durationTicks": 384,
          "midi": 38,
          "name": "D2",
          "ticks": 243072,
          "time": 186.81287000000003,
          "velocity": 0.905511811023622
        },
        {
          "duration": 0.29999999999998295,
          "durationTicks": 384,
          "midi": 35,
          "name": "B1",
          "ticks": 243456,
          "time": 187.11287000000004,
          "velocity": 0.905511811023622
        },
        {
          "duration": 0.30000000000001137,
          "durationTicks": 384,
          "midi": 31,
          "name": "G1",
          "ticks": 243840,
          "time": 187.41287000000003,
          "velocity": 0.905511811023622
        },
        {
          "duration": 0.29999999999998295,
          "durationTicks": 384,
          "midi": 36,
          "name": "C2",
          "ticks": 244224,
          "time": 187.71287000000004,
          "velocity": 0.905511811023622
        },
        {
          "duration": 0.6000000000000227,
          "durationTicks": 768,
          "midi": 31,
          "name": "G1",
          "ticks": 246528,
          "time": 189.51287000000002,
          "velocity": 0.905511811023622
        },
        {
          "duration": 0.5999999999999943,
          "durationTicks": 768,
          "midi": 32,
          "name": "G#1",
          "ticks": 247296,
          "time": 190.11287000000004,
          "velocity": 0.905511811023622
        },
        {
          "duration": 0.5999999999999943,
          "durationTicks": 768,
          "midi": 31,
          "name": "G1",
          "ticks": 249600,
          "time": 191.91287000000003,
          "velocity": 0.905511811023622
        },
        {
          "duration": 0.6000000000000227,
          "durationTicks": 768,
          "midi": 32,
          "name": "G#1",
          "ticks": 250368,
          "time": 192.51287000000002,
          "velocity": 0.905511811023622
        },
        {
          "duration": 0.5999999999999943,
          "durationTicks": 768,
          "midi": 34,
          "name": "A#1",
          "ticks": 252672,
          "time": 194.31287000000003,
          "velocity": 0.905511811023622
        },
        {
          "duration": 0.5999999999999943,
          "durationTicks": 768,
          "midi": 36,
          "name": "C2",
          "ticks": 253440,
          "time": 194.91287000000003,
          "velocity": 0.905511811023622
        },
        {
          "duration": 0.5999999999999943,
          "durationTicks": 768,
          "midi": 37,
          "name": "C#2",
          "ticks": 255744,
          "time": 196.71287000000004,
          "velocity": 0.905511811023622
        },
        {
          "duration": 0.6122400000000141,
          "durationTicks": 768,
          "midi": 39,
          "name": "D#2",
          "ticks": 257280,
          "time": 197.91287000000003,
          "velocity": 0.905511811023622
        },
        {
          "duration": 0.6122400000000141,
          "durationTicks": 768,
          "midi": 41,
          "name": "F2",
          "ticks": 258816,
          "time": 199.13735000000003,
          "velocity": 0.8582677165354331
        },
        {
          "duration": 0.6122400000000141,
          "durationTicks": 768,
          "midi": 30,
          "name": "F#1",
          "ticks": 260352,
          "time": 200.36183000000003,
          "velocity": 0.7952755905511811
        },
        {
          "duration": 0.6122400000000141,
          "durationTicks": 768,
          "midi": 30,
          "name": "F#1",
          "ticks": 261888,
          "time": 201.58631000000003,
          "velocity": 0.7165354330708661
        },
        {
          "duration": 0.6122400000000141,
          "durationTicks": 768,
          "midi": 30,
          "name": "F#1",
          "ticks": 263424,
          "time": 202.81079000000003,
          "velocity": 0.7165354330708661
        },
        {
          "duration": 0.6122400000000141,
          "durationTicks": 768,
          "midi": 30,
          "name": "F#1",
          "ticks": 264960,
          "time": 204.03527000000003,
          "velocity": 0.6141732283464567
        },
        {
          "duration": 0.6122400000000141,
          "durationTicks": 768,
          "midi": 30,
          "name": "F#1",
          "ticks": 266496,
          "time": 205.25975000000003,
          "velocity": 0.6141732283464567
        },
        {
          "duration": 0.6122400000000141,
          "durationTicks": 768,
          "midi": 30,
          "name": "F#1",
          "ticks": 268032,
          "time": 206.48423000000003,
          "velocity": 0.6141732283464567
        },
        {
          "duration": 0.15306000000001063,
          "durationTicks": 192,
          "midi": 30,
          "name": "F#1",
          "ticks": 269568,
          "time": 207.70871000000002,
          "velocity": 0.968503937007874
        },
        {
          "duration": 0.1530599999999822,
          "durationTicks": 192,
          "midi": 38,
          "name": "D2",
          "ticks": 269760,
          "time": 207.86177000000004,
          "velocity": 0.968503937007874
        },
        {
          "duration": 0.15306000000001063,
          "durationTicks": 192,
          "midi": 38,
          "name": "D2",
          "ticks": 269952,
          "time": 208.01483000000002,
          "velocity": 0.968503937007874
        },
        {
          "duration": 0.15306000000001063,
          "durationTicks": 192,
          "midi": 38,
          "name": "D2",
          "ticks": 270144,
          "time": 208.16789000000003,
          "velocity": 0.968503937007874
        },
        {
          "duration": 0.6122399999999857,
          "durationTicks": 768,
          "midi": 35,
          "name": "B1",
          "ticks": 270336,
          "time": 208.32095000000004,
          "velocity": 0.968503937007874
        },
        {
          "duration": 0.6122400000000141,
          "durationTicks": 768,
          "midi": 36,
          "name": "C2",
          "ticks": 271104,
          "time": 208.93319000000002,
          "velocity": 0.968503937007874
        },
        {
          "duration": 1.2244799999999998,
          "durationTicks": 1536,
          "midi": 33,
          "name": "A1",
          "ticks": 271872,
          "time": 209.54543000000004,
          "velocity": 0.968503937007874
        },
        {
          "duration": 0.6122400000000141,
          "durationTicks": 768,
          "midi": 35,
          "name": "B1",
          "ticks": 274176,
          "time": 211.38215000000002,
          "velocity": 0.6141732283464567
        },
        {
          "duration": 0.6122400000000141,
          "durationTicks": 768,
          "midi": 35,
          "name": "B1",
          "ticks": 275712,
          "time": 212.60663000000002,
          "velocity": 0.6141732283464567
        },
        {
          "duration": 0.6122400000000141,
          "durationTicks": 768,
          "midi": 35,
          "name": "B1",
          "ticks": 277248,
          "time": 213.83111000000002,
          "velocity": 0.6141732283464567
        },
        {
          "duration": 0.1415049999999951,
          "durationTicks": 192,
          "midi": 35,
          "name": "B1",
          "ticks": 278784,
          "time": 215.05559000000002,
          "velocity": 0.905511811023622
        },
        {
          "duration": 0.1415049999999951,
          "durationTicks": 192,
          "midi": 44,
          "name": "G#2",
          "ticks": 278976,
          "time": 215.19709500000002,
          "velocity": 0.968503937007874
        },
        {
          "duration": 0.14150500000002353,
          "durationTicks": 192,
          "midi": 44,
          "name": "G#2",
          "ticks": 279168,
          "time": 215.3386,
          "velocity": 0.968503937007874
        },
        {
          "duration": 0.1415049999999951,
          "durationTicks": 192,
          "midi": 44,
          "name": "G#2",
          "ticks": 279360,
          "time": 215.48010500000004,
          "velocity": 0.968503937007874
        },
        {
          "duration": 0.707525000000004,
          "durationTicks": 960,
          "midi": 41,
          "name": "F2",
          "ticks": 279552,
          "time": 215.62161000000003,
          "velocity": 0.968503937007874
        },
        {
          "duration": 0.1415049999999951,
          "durationTicks": 192,
          "midi": 44,
          "name": "G#2",
          "ticks": 280512,
          "time": 216.32913500000004,
          "velocity": 0.968503937007874
        },
        {
          "duration": 0.1415049999999951,
          "durationTicks": 192,
          "midi": 44,
          "name": "G#2",
          "ticks": 280704,
          "time": 216.47064000000003,
          "velocity": 0.968503937007874
        },
        {
          "duration": 0.1415049999999951,
          "durationTicks": 192,
          "midi": 44,
          "name": "G#2",
          "ticks": 280896,
          "time": 216.61214500000003,
          "velocity": 0.968503937007874
        },
        {
          "duration": 0.707525000000004,
          "durationTicks": 960,
          "midi": 41,
          "name": "F2",
          "ticks": 281088,
          "time": 216.75365000000002,
          "velocity": 0.968503937007874
        },
        {
          "duration": 0.1415049999999951,
          "durationTicks": 192,
          "midi": 44,
          "name": "G#2",
          "ticks": 282048,
          "time": 217.46117500000003,
          "velocity": 0.968503937007874
        },
        {
          "duration": 0.1415049999999951,
          "durationTicks": 192,
          "midi": 44,
          "name": "G#2",
          "ticks": 282240,
          "time": 217.60268000000002,
          "velocity": 0.968503937007874
        },
        {
          "duration": 0.1415049999999951,
          "durationTicks": 192,
          "midi": 44,
          "name": "G#2",
          "ticks": 282432,
          "time": 217.74418500000002,
          "velocity": 0.968503937007874
        },
        {
          "duration": 0.14150500000002353,
          "durationTicks": 192,
          "midi": 41,
          "name": "F2",
          "ticks": 282624,
          "time": 217.88569,
          "velocity": 0.968503937007874
        },
        {
          "duration": 0.1415049999999951,
          "durationTicks": 192,
          "midi": 44,
          "name": "G#2",
          "ticks": 282816,
          "time": 218.02719500000003,
          "velocity": 0.968503937007874
        },
        {
          "duration": 0.1415049999999951,
          "durationTicks": 192,
          "midi": 44,
          "name": "G#2",
          "ticks": 283008,
          "time": 218.16870000000003,
          "velocity": 0.968503937007874
        },
        {
          "duration": 0.1415049999999951,
          "durationTicks": 192,
          "midi": 44,
          "name": "G#2",
          "ticks": 283200,
          "time": 218.31020500000002,
          "velocity": 0.968503937007874
        },
        {
          "duration": 0.1415049999999951,
          "durationTicks": 192,
          "midi": 41,
          "name": "F2",
          "ticks": 283392,
          "time": 218.45171000000002,
          "velocity": 0.968503937007874
        },
        {
          "duration": 0.1415049999999951,
          "durationTicks": 192,
          "midi": 44,
          "name": "G#2",
          "ticks": 283584,
          "time": 218.59321500000001,
          "velocity": 0.968503937007874
        },
        {
          "duration": 0.14150500000002353,
          "durationTicks": 192,
          "midi": 44,
          "name": "G#2",
          "ticks": 283776,
          "time": 218.73472,
          "velocity": 0.968503937007874
        },
        {
          "duration": 0.1415049999999951,
          "durationTicks": 192,
          "midi": 44,
          "name": "G#2",
          "ticks": 283968,
          "time": 218.87622500000003,
          "velocity": 0.968503937007874
        },
        {
          "duration": 0.1415049999999951,
          "durationTicks": 192,
          "midi": 41,
          "name": "F2",
          "ticks": 284160,
          "time": 219.01773000000003,
          "velocity": 0.968503937007874
        },
        {
          "duration": 0.1415049999999951,
          "durationTicks": 192,
          "midi": 44,
          "name": "G#2",
          "ticks": 284352,
          "time": 219.15923500000002,
          "velocity": 0.968503937007874
        },
        {
          "duration": 0.1415049999999951,
          "durationTicks": 192,
          "midi": 44,
          "name": "G#2",
          "ticks": 284544,
          "time": 219.30074000000002,
          "velocity": 0.968503937007874
        },
        {
          "duration": 0.1415049999999951,
          "durationTicks": 192,
          "midi": 44,
          "name": "G#2",
          "ticks": 284736,
          "time": 219.442245,
          "velocity": 0.968503937007874
        },
        {
          "duration": 0.14150500000002353,
          "durationTicks": 192,
          "midi": 41,
          "name": "F2",
          "ticks": 284928,
          "time": 219.58375,
          "velocity": 0.968503937007874
        },
        {
          "duration": 0.1415049999999951,
          "durationTicks": 192,
          "midi": 43,
          "name": "G2",
          "ticks": 285120,
          "time": 219.72525500000003,
          "velocity": 0.968503937007874
        },
        {
          "duration": 0.1415049999999951,
          "durationTicks": 192,
          "midi": 43,
          "name": "G2",
          "ticks": 285312,
          "time": 219.86676000000003,
          "velocity": 0.968503937007874
        },
        {
          "duration": 0.1415049999999951,
          "durationTicks": 192,
          "midi": 43,
          "name": "G2",
          "ticks": 285504,
          "time": 220.00826500000002,
          "velocity": 0.968503937007874
        },
        {
          "duration": 0.75,
          "durationTicks": 768,
          "midi": 39,
          "name": "D#2",
          "ticks": 285696,
          "time": 220.14977000000002,
          "velocity": 0.968503937007874
        },
        {
          "duration": 0.1415049999999951,
          "durationTicks": 192,
          "midi": 41,
          "name": "F2",
          "ticks": 286656,
          "time": 221.041275,
          "velocity": 0.968503937007874
        },
        {
          "duration": 0.14150500000002353,
          "durationTicks": 192,
          "midi": 41,
          "name": "F2",
          "ticks": 286848,
          "time": 221.18278,
          "velocity": 0.968503937007874
        },
        {
          "duration": 0.1415049999999951,
          "durationTicks": 192,
          "midi": 41,
          "name": "F2",
          "ticks": 287040,
          "time": 221.32428500000003,
          "velocity": 0.968503937007874
        },
        {
          "duration": 1.766019999999969,
          "durationTicks": 1536,
          "midi": 38,
          "name": "D2",
          "ticks": 287232,
          "time": 221.46579000000003,
          "velocity": 0.968503937007874
        },
        {
          "duration": 0.2830099999999902,
          "durationTicks": 384,
          "midi": 36,
          "name": "C2",
          "ticks": 289536,
          "time": 223.79783,
          "velocity": 0.7165354330708661
        },
        {
          "duration": 0.2830099999999902,
          "durationTicks": 384,
          "midi": 36,
          "name": "C2",
          "ticks": 291072,
          "time": 224.92987,
          "velocity": 0.7165354330708661
        },
        {
          "duration": 0.28301000000001864,
          "durationTicks": 384,
          "midi": 35,
          "name": "B1",
          "ticks": 292608,
          "time": 226.06190999999998,
          "velocity": 0.7165354330708661
        },
        {
          "duration": 0.2830099999999902,
          "durationTicks": 384,
          "midi": 35,
          "name": "B1",
          "ticks": 294144,
          "time": 227.19395,
          "velocity": 0.7165354330708661
        },
        {
          "duration": 0.28301000000001864,
          "durationTicks": 384,
          "midi": 36,
          "name": "C2",
          "ticks": 295680,
          "time": 228.32599,
          "velocity": 0.7165354330708661
        },
        {
          "duration": 0.2830099999999902,
          "durationTicks": 384,
          "midi": 35,
          "name": "B1",
          "ticks": 296448,
          "time": 228.89201,
          "velocity": 0.7165354330708661
        },
        {
          "duration": 0.2830099999999902,
          "durationTicks": 384,
          "midi": 36,
          "name": "C2",
          "ticks": 297216,
          "time": 229.45803,
          "velocity": 0.7165354330708661
        },
        {
          "duration": 0.28301000000001864,
          "durationTicks": 384,
          "midi": 31,
          "name": "G1",
          "ticks": 297984,
          "time": 230.02405,
          "velocity": 0.7165354330708661
        },
        {
          "duration": 0.2830099999999902,
          "durationTicks": 384,
          "midi": 36,
          "name": "C2",
          "ticks": 298752,
          "time": 230.59007,
          "velocity": 0.7165354330708661
        },
        {
          "duration": 0.2830099999999902,
          "durationTicks": 384,
          "midi": 32,
          "name": "G#1",
          "ticks": 299520,
          "time": 231.15609,
          "velocity": 0.7165354330708661
        },
        {
          "duration": 0.28301000000001864,
          "durationTicks": 384,
          "midi": 31,
          "name": "G1",
          "ticks": 300288,
          "time": 231.72211,
          "velocity": 0.968503937007874
        },
        {
          "duration": 0.1388849999999877,
          "durationTicks": 192,
          "midi": 31,
          "name": "G1",
          "ticks": 306624,
          "time": 237.074575,
          "velocity": 0.7165354330708661
        },
        {
          "duration": 0.1388849999999877,
          "durationTicks": 192,
          "midi": 31,
          "name": "G1",
          "ticks": 306816,
          "time": 237.21346,
          "velocity": 0.7165354330708661
        },
        {
          "duration": 0.13888500000001613,
          "durationTicks": 192,
          "midi": 31,
          "name": "G1",
          "ticks": 307008,
          "time": 237.35234499999999,
          "velocity": 0.7165354330708661
        },
        {
          "duration": 0.1388849999999877,
          "durationTicks": 192,
          "midi": 36,
          "name": "C2",
          "ticks": 307200,
          "time": 237.49123,
          "velocity": 0.7165354330708661
        },
        {
          "duration": 0.13888500000001613,
          "durationTicks": 192,
          "midi": 44,
          "name": "G#2",
          "ticks": 307392,
          "time": 237.630115,
          "velocity": 0.7165354330708661
        },
        {
          "duration": 0.1388849999999877,
          "durationTicks": 192,
          "midi": 44,
          "name": "G#2",
          "ticks": 307584,
          "time": 237.769,
          "velocity": 0.7165354330708661
        },
        {
          "duration": 0.13888500000001613,
          "durationTicks": 192,
          "midi": 44,
          "name": "G#2",
          "ticks": 307776,
          "time": 237.907885,
          "velocity": 0.7165354330708661
        },
        {
          "duration": 0.1388849999999877,
          "durationTicks": 192,
          "midi": 41,
          "name": "F2",
          "ticks": 307968,
          "time": 238.04677,
          "velocity": 0.7952755905511811
        },
        {
          "duration": 0.13888500000001613,
          "durationTicks": 192,
          "midi": 38,
          "name": "D2",
          "ticks": 308160,
          "time": 238.185655,
          "velocity": 0.7952755905511811
        },
        {
          "duration": 0.1388849999999877,
          "durationTicks": 192,
          "midi": 38,
          "name": "D2",
          "ticks": 308352,
          "time": 238.32454,
          "velocity": 0.7952755905511811
        },
        {
          "duration": 0.1388849999999877,
          "durationTicks": 192,
          "midi": 38,
          "name": "D2",
          "ticks": 308544,
          "time": 238.463425,
          "velocity": 0.7952755905511811
        },
        {
          "duration": 0.13888500000001613,
          "durationTicks": 192,
          "midi": 35,
          "name": "B1",
          "ticks": 308736,
          "time": 238.60231,
          "velocity": 0.7952755905511811
        },
        {
          "duration": 0.1388849999999877,
          "durationTicks": 192,
          "midi": 32,
          "name": "G#1",
          "ticks": 308928,
          "time": 238.741195,
          "velocity": 0.7952755905511811
        },
        {
          "duration": 0.13888500000001613,
          "durationTicks": 192,
          "midi": 32,
          "name": "G#1",
          "ticks": 309120,
          "time": 238.88008,
          "velocity": 0.8582677165354331
        },
        {
          "duration": 0.1388849999999877,
          "durationTicks": 192,
          "midi": 32,
          "name": "G#1",
          "ticks": 309312,
          "time": 239.018965,
          "velocity": 0.8582677165354331
        },
        {
          "duration": 0.13888500000001613,
          "durationTicks": 192,
          "midi": 31,
          "name": "G1",
          "ticks": 309504,
          "time": 239.15785,
          "velocity": 0.8582677165354331
        },
        {
          "duration": 0.1388849999999877,
          "durationTicks": 192,
          "midi": 43,
          "name": "G2",
          "ticks": 309696,
          "time": 239.296735,
          "velocity": 0.8582677165354331
        },
        {
          "duration": 0.1388849999999877,
          "durationTicks": 192,
          "midi": 43,
          "name": "G2",
          "ticks": 309888,
          "time": 239.43562,
          "velocity": 0.8582677165354331
        },
        {
          "duration": 0.13888500000001613,
          "durationTicks": 192,
          "midi": 43,
          "name": "G2",
          "ticks": 310080,
          "time": 239.574505,
          "velocity": 0.8582677165354331
        },
        {
          "duration": 0.1388849999999877,
          "durationTicks": 192,
          "midi": 36,
          "name": "C2",
          "ticks": 310272,
          "time": 239.71339,
          "velocity": 0.905511811023622
        },
        {
          "duration": 0.13888500000001613,
          "durationTicks": 192,
          "midi": 36,
          "name": "C2",
          "ticks": 310464,
          "time": 239.852275,
          "velocity": 0.905511811023622
        },
        {
          "duration": 0.1388849999999877,
          "durationTicks": 192,
          "midi": 36,
          "name": "C2",
          "ticks": 310656,
          "time": 239.99116,
          "velocity": 0.905511811023622
        },
        {
          "duration": 0.13888500000001613,
          "durationTicks": 192,
          "midi": 36,
          "name": "C2",
          "ticks": 310848,
          "time": 240.130045,
          "velocity": 0.905511811023622
        },
        {
          "duration": 0.6944249999999954,
          "durationTicks": 960,
          "midi": 36,
          "name": "C2",
          "ticks": 311040,
          "time": 240.26893,
          "velocity": 0.905511811023622
        },
        {
          "duration": 0.1388849999999877,
          "durationTicks": 192,
          "midi": 36,
          "name": "C2",
          "ticks": 312000,
          "time": 240.963355,
          "velocity": 0.905511811023622
        },
        {
          "duration": 0.13888500000001613,
          "durationTicks": 192,
          "midi": 36,
          "name": "C2",
          "ticks": 312192,
          "time": 241.10224,
          "velocity": 0.905511811023622
        },
        {
          "duration": 0.1388849999999877,
          "durationTicks": 192,
          "midi": 36,
          "name": "C2",
          "ticks": 312384,
          "time": 241.241125,
          "velocity": 0.905511811023622
        },
        {
          "duration": 0.6944249999999954,
          "durationTicks": 960,
          "midi": 36,
          "name": "C2",
          "ticks": 312576,
          "time": 241.38001,
          "velocity": 0.905511811023622
        },
        {
          "duration": 0.13888500000001613,
          "durationTicks": 192,
          "midi": 36,
          "name": "C2",
          "ticks": 313536,
          "time": 242.074435,
          "velocity": 0.905511811023622
        },
        {
          "duration": 0.1388849999999877,
          "durationTicks": 192,
          "midi": 36,
          "name": "C2",
          "ticks": 313728,
          "time": 242.21332,
          "velocity": 0.905511811023622
        },
        {
          "duration": 0.1388849999999877,
          "durationTicks": 192,
          "midi": 36,
          "name": "C2",
          "ticks": 313920,
          "time": 242.352205,
          "velocity": 0.905511811023622
        },
        {
          "duration": 0.27521999999999025,
          "durationTicks": 384,
          "midi": 36,
          "name": "C2",
          "ticks": 314112,
          "time": 242.49108999999999,
          "velocity": 0.905511811023622
        },
        {
          "duration": 0.27521999999999025,
          "durationTicks": 384,
          "midi": 36,
          "name": "C2",
          "ticks": 314880,
          "time": 243.04153,
          "velocity": 0.905511811023622
        },
        {
          "duration": 0.27522000000001867,
          "durationTicks": 384,
          "midi": 36,
          "name": "C2",
          "ticks": 315648,
          "time": 243.59196999999998,
          "velocity": 0.905511811023622
        },
        {
          "duration": 0.27521999999999025,
          "durationTicks": 384,
          "midi": 36,
          "name": "C2",
          "ticks": 316416,
          "time": 244.14240999999998,
          "velocity": 0.905511811023622
        },
        {
          "duration": 0.27521999999999025,
          "durationTicks": 384,
          "midi": 36,
          "name": "C2",
          "ticks": 317184,
          "time": 244.69285,
          "velocity": 0.905511811023622
        },
        {
          "duration": 0.27522000000001867,
          "durationTicks": 384,
          "midi": 36,
          "name": "C2",
          "ticks": 317952,
          "time": 245.24328999999997,
          "velocity": 0.905511811023622
        },
        {
          "duration": 1.7726800000000082,
          "durationTicks": 2496,
          "midi": 36,
          "name": "C2",
          "ticks": 318720,
          "time": 245.79372999999998,
          "velocity": 0.905511811023622
        },
        {
          "duration": 0.13635999999999626,
          "durationTicks": 192,
          "midi": 36,
          "name": "C2",
          "ticks": 321216,
          "time": 247.56641,
          "velocity": 0.905511811023622
        },
        {
          "duration": 0.13635999999999626,
          "durationTicks": 192,
          "midi": 36,
          "name": "C2",
          "ticks": 321408,
          "time": 247.70277,
          "velocity": 0.905511811023622
        },
        {
          "duration": 0.13635999999999626,
          "durationTicks": 192,
          "midi": 36,
          "name": "C2",
          "ticks": 321600,
          "time": 247.83912999999998,
          "velocity": 0.905511811023622
        },
        {
          "duration": 1.7726800000000082,
          "durationTicks": 2496,
          "midi": 31,
          "name": "G1",
          "ticks": 321792,
          "time": 247.97548999999998,
          "velocity": 0.905511811023622
        },
        {
          "duration": 0.13635999999999626,
          "durationTicks": 192,
          "midi": 31,
          "name": "G1",
          "ticks": 324288,
          "time": 249.74817,
          "velocity": 0.905511811023622
        },
        {
          "duration": 0.13635999999999626,
          "durationTicks": 192,
          "midi": 36,
          "name": "C2",
          "ticks": 324480,
          "time": 249.88452999999998,
          "velocity": 0.905511811023622
        },
        {
          "duration": 0.13635999999999626,
          "durationTicks": 192,
          "midi": 36,
          "name": "C2",
          "ticks": 324672,
          "time": 250.02088999999998,
          "velocity": 0.905511811023622
        },
        {
          "duration": 0.13635999999999626,
          "durationTicks": 192,
          "midi": 36,
          "name": "C2",
          "ticks": 324864,
          "time": 250.15724999999998,
          "velocity": 0.968503937007874
        },
        {
          "duration": 0.13635999999999626,
          "durationTicks": 192,
          "midi": 51,
          "name": "D#3",
          "ticks": 325056,
          "time": 250.29360999999997,
          "velocity": 0.968503937007874
        },
        {
          "duration": 0.13636000000002468,
          "durationTicks": 192,
          "midi": 51,
          "name": "D#3",
          "ticks": 325248,
          "time": 250.42996999999997,
          "velocity": 0.968503937007874
        },
        {
          "duration": 0.13635999999999626,
          "durationTicks": 192,
          "midi": 51,
          "name": "D#3",
          "ticks": 325440,
          "time": 250.56633,
          "velocity": 0.968503937007874
        },
        {
          "duration": 0.13635999999999626,
          "durationTicks": 192,
          "midi": 48,
          "name": "C3",
          "ticks": 325632,
          "time": 250.70269,
          "velocity": 0.968503937007874
        },
        {
          "duration": 0.13635999999999626,
          "durationTicks": 192,
          "midi": 45,
          "name": "A2",
          "ticks": 325824,
          "time": 250.83905,
          "velocity": 0.968503937007874
        },
        {
          "duration": 0.13635999999999626,
          "durationTicks": 192,
          "midi": 45,
          "name": "A2",
          "ticks": 326016,
          "time": 250.97540999999998,
          "velocity": 0.968503937007874
        },
        {
          "duration": 0.13635999999999626,
          "durationTicks": 192,
          "midi": 45,
          "name": "A2",
          "ticks": 326208,
          "time": 251.11176999999998,
          "velocity": 0.968503937007874
        },
        {
          "duration": 0.13635999999999626,
          "durationTicks": 192,
          "midi": 42,
          "name": "F#2",
          "ticks": 326400,
          "time": 251.24812999999997,
          "velocity": 0.968503937007874
        },
        {
          "duration": 0.13636000000002468,
          "durationTicks": 192,
          "midi": 39,
          "name": "D#2",
          "ticks": 326592,
          "time": 251.38448999999997,
          "velocity": 0.968503937007874
        },
        {
          "duration": 0.13635999999999626,
          "durationTicks": 192,
          "midi": 39,
          "name": "D#2",
          "ticks": 326784,
          "time": 251.52085,
          "velocity": 0.968503937007874
        },
        {
          "duration": 0.13635999999999626,
          "durationTicks": 192,
          "midi": 39,
          "name": "D#2",
          "ticks": 326976,
          "time": 251.65721,
          "velocity": 0.968503937007874
        },
        {
          "duration": 0.13635999999999626,
          "durationTicks": 192,
          "midi": 36,
          "name": "C2",
          "ticks": 327168,
          "time": 251.79357,
          "velocity": 0.968503937007874
        },
        {
          "duration": 0.13635999999999626,
          "durationTicks": 192,
          "midi": 33,
          "name": "A1",
          "ticks": 327360,
          "time": 251.92992999999998,
          "velocity": 0.968503937007874
        },
        {
          "duration": 0.13635999999999626,
          "durationTicks": 192,
          "midi": 33,
          "name": "A1",
          "ticks": 327552,
          "time": 252.06628999999998,
          "velocity": 0.968503937007874
        },
        {
          "duration": 0.13635999999999626,
          "durationTicks": 192,
          "midi": 33,
          "name": "A1",
          "ticks": 327744,
          "time": 252.20264999999998,
          "velocity": 0.968503937007874
        },
        {
          "duration": 0.2941099999999892,
          "durationTicks": 384,
          "midi": 36,
          "name": "C2",
          "ticks": 327936,
          "time": 252.33900999999997,
          "velocity": 0.968503937007874
        },
        {
          "duration": 0.2941099999999892,
          "durationTicks": 384,
          "midi": 35,
          "name": "B1",
          "ticks": 329472,
          "time": 253.51545,
          "velocity": 0.968503937007874
        },
        {
          "duration": 0.14705500000002303,
          "durationTicks": 192,
          "midi": 31,
          "name": "G1",
          "ticks": 335040,
          "time": 257.780045,
          "velocity": 0.7165354330708661
        },
        {
          "duration": 0.14705499999996618,
          "durationTicks": 192,
          "midi": 31,
          "name": "G1",
          "ticks": 335232,
          "time": 257.9271,
          "velocity": 0.7165354330708661
        },
        {
          "duration": 0.14705500000002303,
          "durationTicks": 192,
          "midi": 31,
          "name": "G1",
          "ticks": 335424,
          "time": 258.07415499999996,
          "velocity": 0.7165354330708661
        },
        {
          "duration": 0.2941099999999892,
          "durationTicks": 384,
          "midi": 36,
          "name": "C2",
          "ticks": 335616,
          "time": 258.22121,
          "velocity": 0.7165354330708661
        },
        {
          "duration": 0.1442299999999932,
          "durationTicks": 192,
          "midi": 31,
          "name": "G1",
          "ticks": 341184,
          "time": 262.47168,
          "velocity": 0.7165354330708661
        },
        {
          "duration": 0.1442299999999932,
          "durationTicks": 192,
          "midi": 31,
          "name": "G1",
          "ticks": 341376,
          "time": 262.61591,
          "velocity": 0.7165354330708661
        },
        {
          "duration": 0.1442299999999932,
          "durationTicks": 192,
          "midi": 31,
          "name": "G1",
          "ticks": 341568,
          "time": 262.76014,
          "velocity": 0.7165354330708661
        },
        {
          "duration": 0.2884599999999864,
          "durationTicks": 384,
          "midi": 36,
          "name": "C2",
          "ticks": 341760,
          "time": 262.90437,
          "velocity": 0.7165354330708661
        },
        {
          "duration": 0.14150500000005195,
          "durationTicks": 192,
          "midi": 36,
          "name": "C2",
          "ticks": 347328,
          "time": 267.07341499999995,
          "velocity": 0.7165354330708661
        },
        {
          "duration": 0.1415049999999951,
          "durationTicks": 192,
          "midi": 36,
          "name": "C2",
          "ticks": 347520,
          "time": 267.21492,
          "velocity": 0.7165354330708661
        },
        {
          "duration": 0.1415049999999951,
          "durationTicks": 192,
          "midi": 36,
          "name": "C2",
          "ticks": 347712,
          "time": 267.356425,
          "velocity": 0.7165354330708661
        },
        {
          "duration": 0.2830099999999902,
          "durationTicks": 384,
          "midi": 41,
          "name": "F2",
          "ticks": 347904,
          "time": 267.49793,
          "velocity": 0.7165354330708661
        },
        {
          "duration": 0.1415049999999951,
          "durationTicks": 192,
          "midi": 38,
          "name": "D2",
          "ticks": 350400,
          "time": 269.337495,
          "velocity": 0.7165354330708661
        },
        {
          "duration": 0.1415049999999951,
          "durationTicks": 192,
          "midi": 38,
          "name": "D2",
          "ticks": 350592,
          "time": 269.479,
          "velocity": 0.7165354330708661
        },
        {
          "duration": 0.1415049999999951,
          "durationTicks": 192,
          "midi": 38,
          "name": "D2",
          "ticks": 350784,
          "time": 269.620505,
          "velocity": 0.7165354330708661
        },
        {
          "duration": 0.2830099999999902,
          "durationTicks": 384,
          "midi": 43,
          "name": "G2",
          "ticks": 350976,
          "time": 269.76201,
          "velocity": 0.7165354330708661
        },
        {
          "duration": 0.1415049999999951,
          "durationTicks": 192,
          "midi": 44,
          "name": "G#2",
          "ticks": 352704,
          "time": 271.035555,
          "velocity": 0.7165354330708661
        },
        {
          "duration": 0.1415049999999951,
          "durationTicks": 192,
          "midi": 44,
          "name": "G#2",
          "ticks": 352896,
          "time": 271.17706,
          "velocity": 0.7165354330708661
        },
        {
          "duration": 0.1415049999999951,
          "durationTicks": 192,
          "midi": 44,
          "name": "G#2",
          "ticks": 353088,
          "time": 271.318565,
          "velocity": 0.7165354330708661
        },
        {
          "duration": 0.2830099999999902,
          "durationTicks": 384,
          "midi": 44,
          "name": "G#2",
          "ticks": 353280,
          "time": 271.46007,
          "velocity": 0.7165354330708661
        },
        {
          "duration": 0.1415049999999951,
          "durationTicks": 192,
          "midi": 47,
          "name": "B2",
          "ticks": 354240,
          "time": 272.167595,
          "velocity": 0.7952755905511811
        },
        {
          "duration": 0.1415049999999951,
          "durationTicks": 192,
          "midi": 47,
          "name": "B2",
          "ticks": 354432,
          "time": 272.3091,
          "velocity": 0.7952755905511811
        },
        {
          "duration": 0.1415049999999951,
          "durationTicks": 192,
          "midi": 47,
          "name": "B2",
          "ticks": 354624,
          "time": 272.450605,
          "velocity": 0.7952755905511811
        },
        {
          "duration": 0.2830099999999902,
          "durationTicks": 384,
          "midi": 47,
          "name": "B2",
          "ticks": 354816,
          "time": 272.59211,
          "velocity": 0.7952755905511811
        },
        {
          "duration": 0.1415049999999951,
          "durationTicks": 192,
          "midi": 50,
          "name": "D3",
          "ticks": 355776,
          "time": 273.29963499999997,
          "velocity": 0.7952755905511811
        },
        {
          "duration": 0.1415049999999951,
          "durationTicks": 192,
          "midi": 50,
          "name": "D3",
          "ticks": 355968,
          "time": 273.44113999999996,
          "velocity": 0.7952755905511811
        },
        {
          "duration": 0.1415049999999951,
          "durationTicks": 192,
          "midi": 50,
          "name": "D3",
          "ticks": 356160,
          "time": 273.58264499999996,
          "velocity": 0.7952755905511811
        },
        {
          "duration": 0.28301000000004706,
          "durationTicks": 384,
          "midi": 50,
          "name": "D3",
          "ticks": 356352,
          "time": 273.72414999999995,
          "velocity": 0.7952755905511811
        },
        {
          "duration": 0.1415049999999951,
          "durationTicks": 192,
          "midi": 50,
          "name": "D3",
          "ticks": 357312,
          "time": 274.431675,
          "velocity": 0.8582677165354331
        },
        {
          "duration": 0.1415049999999951,
          "durationTicks": 192,
          "midi": 50,
          "name": "D3",
          "ticks": 357504,
          "time": 274.57318,
          "velocity": 0.8582677165354331
        },
        {
          "duration": 0.1415049999999951,
          "durationTicks": 192,
          "midi": 50,
          "name": "D3",
          "ticks": 357696,
          "time": 274.714685,
          "velocity": 0.8582677165354331
        },
        {
          "duration": 0.2830099999999902,
          "durationTicks": 384,
          "midi": 50,
          "name": "D3",
          "ticks": 357888,
          "time": 274.85618999999997,
          "velocity": 0.8582677165354331
        },
        {
          "duration": 0.1415049999999951,
          "durationTicks": 192,
          "midi": 50,
          "name": "D3",
          "ticks": 358848,
          "time": 275.563715,
          "velocity": 0.8582677165354331
        },
        {
          "duration": 0.1415049999999951,
          "durationTicks": 192,
          "midi": 50,
          "name": "D3",
          "ticks": 359040,
          "time": 275.70522,
          "velocity": 0.8582677165354331
        },
        {
          "duration": 0.1415049999999951,
          "durationTicks": 192,
          "midi": 50,
          "name": "D3",
          "ticks": 359232,
          "time": 275.846725,
          "velocity": 0.8582677165354331
        },
        {
          "duration": 0.2830099999999902,
          "durationTicks": 384,
          "midi": 50,
          "name": "D3",
          "ticks": 359424,
          "time": 275.98823,
          "velocity": 0.8582677165354331
        },
        {
          "duration": 0.27777000000003227,
          "durationTicks": 384,
          "midi": 50,
          "name": "D3",
          "ticks": 360576,
          "time": 276.83201999999994,
          "velocity": 0.905511811023622
        },
        {
          "duration": 0.27777000000003227,
          "durationTicks": 384,
          "midi": 50,
          "name": "D3",
          "ticks": 361344,
          "time": 277.38755999999995,
          "velocity": 0.905511811023622
        },
        {
          "duration": 0.27777000000003227,
          "durationTicks": 384,
          "midi": 50,
          "name": "D3",
          "ticks": 362112,
          "time": 277.94309999999996,
          "velocity": 0.905511811023622
        },
        {
          "duration": 0.2777699999999754,
          "durationTicks": 384,
          "midi": 50,
          "name": "D3",
          "ticks": 362880,
          "time": 278.49863999999997,
          "velocity": 0.905511811023622
        },
        {
          "duration": 0.83331000000004,
          "durationTicks": 1152,
          "midi": 50,
          "name": "D3",
          "ticks": 363264,
          "time": 278.77640999999994,
          "velocity": 0.968503937007874
        },
        {
          "duration": 0.2777699999999754,
          "durationTicks": 384,
          "midi": 47,
          "name": "B2",
          "ticks": 364416,
          "time": 279.60972,
          "velocity": 0.968503937007874
        },
        {
          "duration": 0.27777000000003227,
          "durationTicks": 384,
          "midi": 48,
          "name": "C3",
          "ticks": 364800,
          "time": 279.88748999999996,
          "velocity": 0.968503937007874
        },
        {
          "duration": 0.2777699999999754,
          "durationTicks": 384,
          "midi": 50,
          "name": "D3",
          "ticks": 365568,
          "time": 280.44302999999996,
          "velocity": 0.968503937007874
        },
        {
          "duration": 0.2777699999999754,
          "durationTicks": 384,
          "midi": 52,
          "name": "E3",
          "ticks": 366336,
          "time": 280.99857,
          "velocity": 0.968503937007874
        },
        {
          "duration": 0.2777699999999754,
          "durationTicks": 384,
          "midi": 53,
          "name": "F3",
          "ticks": 367104,
          "time": 281.55411,
          "velocity": 0.968503937007874
        },
        {
          "duration": 0.2777699999999754,
          "durationTicks": 384,
          "midi": 55,
          "name": "G3",
          "ticks": 367872,
          "time": 282.10965,
          "velocity": 0.968503937007874
        },
        {
          "duration": 0.2777699999999754,
          "durationTicks": 384,
          "midi": 47,
          "name": "B2",
          "ticks": 368640,
          "time": 282.66519,
          "velocity": 0.968503937007874
        },
        {
          "duration": 0.27777000000003227,
          "durationTicks": 384,
          "midi": 35,
          "name": "B1",
          "ticks": 369408,
          "time": 283.22072999999995,
          "velocity": 0.968503937007874
        },
        {
          "duration": 0.2777699999999754,
          "durationTicks": 384,
          "midi": 38,
          "name": "D2",
          "ticks": 369792,
          "time": 283.4985,
          "velocity": 0.968503937007874
        },
        {
          "duration": 0.27777000000003227,
          "durationTicks": 384,
          "midi": 35,
          "name": "B1",
          "ticks": 370176,
          "time": 283.77626999999995,
          "velocity": 0.968503937007874
        },
        {
          "duration": 0.2777699999999754,
          "durationTicks": 384,
          "midi": 38,
          "name": "D2",
          "ticks": 370560,
          "time": 284.05404,
          "velocity": 0.968503937007874
        },
        {
          "duration": 0.27777000000003227,
          "durationTicks": 384,
          "midi": 36,
          "name": "C2",
          "ticks": 370944,
          "time": 284.33180999999996,
          "velocity": 0.968503937007874
        },
        {
          "duration": 0.2777699999999754,
          "durationTicks": 384,
          "midi": 40,
          "name": "E2",
          "ticks": 371328,
          "time": 284.60958,
          "velocity": 0.968503937007874
        },
        {
          "duration": 0.2777699999999754,
          "durationTicks": 384,
          "midi": 38,
          "name": "D2",
          "ticks": 371712,
          "time": 284.88734999999997,
          "velocity": 0.968503937007874
        },
        {
          "duration": 0.27777000000003227,
          "durationTicks": 384,
          "midi": 41,
          "name": "F2",
          "ticks": 372096,
          "time": 285.16511999999994,
          "velocity": 0.968503937007874
        },
        {
          "duration": 0.2777699999999754,
          "durationTicks": 384,
          "midi": 40,
          "name": "E2",
          "ticks": 372480,
          "time": 285.44289,
          "velocity": 0.968503937007874
        },
        {
          "duration": 0.27777000000003227,
          "durationTicks": 384,
          "midi": 43,
          "name": "G2",
          "ticks": 372864,
          "time": 285.72065999999995,
          "velocity": 0.968503937007874
        },
        {
          "duration": 0.2777699999999754,
          "durationTicks": 384,
          "midi": 41,
          "name": "F2",
          "ticks": 373248,
          "time": 285.99843,
          "velocity": 0.968503937007874
        },
        {
          "duration": 0.27777000000003227,
          "durationTicks": 384,
          "midi": 45,
          "name": "A2",
          "ticks": 373632,
          "time": 286.27619999999996,
          "velocity": 0.968503937007874
        },
        {
          "duration": 0.2777699999999754,
          "durationTicks": 384,
          "midi": 43,
          "name": "G2",
          "ticks": 374016,
          "time": 286.55397,
          "velocity": 0.968503937007874
        },
        {
          "duration": 0.2777699999999754,
          "durationTicks": 384,
          "midi": 31,
          "name": "G1",
          "ticks": 374400,
          "time": 286.83173999999997,
          "velocity": 0.968503937007874
        },
        {
          "duration": 0.27777000000003227,
          "durationTicks": 384,
          "midi": 43,
          "name": "G2",
          "ticks": 374784,
          "time": 287.10950999999994,
          "velocity": 0.968503937007874
        },
        {
          "duration": 0.2777699999999754,
          "durationTicks": 384,
          "midi": 31,
          "name": "G1",
          "ticks": 375168,
          "time": 287.38728,
          "velocity": 0.968503937007874
        },
        {
          "duration": 1.8055050000000392,
          "durationTicks": 2496,
          "midi": 36,
          "name": "C2",
          "ticks": 375552,
          "time": 287.66504999999995,
          "velocity": 0.968503937007874
        },
        {
          "duration": 0.1388849999999593,
          "durationTicks": 192,
          "midi": 31,
          "name": "G1",
          "ticks": 378048,
          "time": 289.470555,
          "velocity": 0.968503937007874
        },
        {
          "duration": 0.13888500000001613,
          "durationTicks": 192,
          "midi": 31,
          "name": "G1",
          "ticks": 378240,
          "time": 289.60943999999995,
          "velocity": 0.968503937007874
        },
        {
          "duration": 0.13888500000001613,
          "durationTicks": 192,
          "midi": 31,
          "name": "G1",
          "ticks": 378432,
          "time": 289.74832499999997,
          "velocity": 0.968503937007874
        },
        {
          "duration": 1.8055049999999824,
          "durationTicks": 2496,
          "midi": 36,
          "name": "C2",
          "ticks": 378624,
          "time": 289.88721,
          "velocity": 0.968503937007874
        },
        {
          "duration": 0.13888500000001613,
          "durationTicks": 192,
          "midi": 31,
          "name": "G1",
          "ticks": 381120,
          "time": 291.69271499999996,
          "velocity": 0.968503937007874
        },
        {
          "duration": 0.1388849999999593,
          "durationTicks": 192,
          "midi": 31,
          "name": "G1",
          "ticks": 381312,
          "time": 291.8316,
          "velocity": 0.968503937007874
        },
        {
          "duration": 0.13888500000001613,
          "durationTicks": 192,
          "midi": 31,
          "name": "G1",
          "ticks": 381504,
          "time": 291.97048499999994,
          "velocity": 0.968503937007874
        },
        {
          "duration": 0.27777000000003227,
          "durationTicks": 384,
          "midi": 36,
          "name": "C2",
          "ticks": 381696,
          "time": 292.10936999999996,
          "velocity": 0.968503937007874
        },
        {
          "duration": 0.13888500000001613,
          "durationTicks": 192,
          "midi": 31,
          "name": "G1",
          "ticks": 382656,
          "time": 292.803795,
          "velocity": 0.968503937007874
        },
        {
          "duration": 0.1388849999999593,
          "durationTicks": 192,
          "midi": 31,
          "name": "G1",
          "ticks": 382848,
          "time": 292.94268,
          "velocity": 0.968503937007874
        },
        {
          "duration": 0.13888500000001613,
          "durationTicks": 192,
          "midi": 31,
          "name": "G1",
          "ticks": 383040,
          "time": 293.08156499999996,
          "velocity": 0.968503937007874
        },
        {
          "duration": 0.2777699999999754,
          "durationTicks": 384,
          "midi": 36,
          "name": "C2",
          "ticks": 383232,
          "time": 293.22044999999997,
          "velocity": 0.968503937007874
        },
        {
          "duration": 0.1388849999999593,
          "durationTicks": 192,
          "midi": 31,
          "name": "G1",
          "ticks": 384192,
          "time": 293.914875,
          "velocity": 0.968503937007874
        },
        {
          "duration": 0.13888500000001613,
          "durationTicks": 192,
          "midi": 31,
          "name": "G1",
          "ticks": 384384,
          "time": 294.05375999999995,
          "velocity": 0.968503937007874
        },
        {
          "duration": 0.13888500000001613,
          "durationTicks": 192,
          "midi": 31,
          "name": "G1",
          "ticks": 384576,
          "time": 294.19264499999997,
          "velocity": 0.968503937007874
        },
        {
          "duration": 0.694424999999967,
          "durationTicks": 960,
          "midi": 36,
          "name": "C2",
          "ticks": 384768,
          "time": 294.33153,
          "velocity": 0.968503937007874
        },
        {
          "duration": 0.13888500000001613,
          "durationTicks": 192,
          "midi": 36,
          "name": "C2",
          "ticks": 385728,
          "time": 295.02595499999995,
          "velocity": 0.968503937007874
        },
        {
          "duration": 0.13888500000001613,
          "durationTicks": 192,
          "midi": 36,
          "name": "C2",
          "ticks": 385920,
          "time": 295.16483999999997,
          "velocity": 0.968503937007874
        },
        {
          "duration": 0.1388849999999593,
          "durationTicks": 192,
          "midi": 36,
          "name": "C2",
          "ticks": 386112,
          "time": 295.303725,
          "velocity": 0.968503937007874
        },
        {
          "duration": 0.6944250000000238,
          "durationTicks": 960,
          "midi": 32,
          "name": "G#1",
          "ticks": 386304,
          "time": 295.44260999999995,
          "velocity": 0.968503937007874
        },
        {
          "duration": 0.13888500000001613,
          "durationTicks": 192,
          "midi": 32,
          "name": "G#1",
          "ticks": 387264,
          "time": 296.13703499999997,
          "velocity": 0.968503937007874
        },
        {
          "duration": 0.1388849999999593,
          "durationTicks": 192,
          "midi": 32,
          "name": "G#1",
          "ticks": 387456,
          "time": 296.27592,
          "velocity": 0.968503937007874
        },
        {
          "duration": 0.13888500000001613,
          "durationTicks": 192,
          "midi": 32,
          "name": "G#1",
          "ticks": 387648,
          "time": 296.41480499999994,
          "velocity": 0.968503937007874
        },
        {
          "duration": 0.6944250000000238,
          "durationTicks": 960,
          "midi": 40,
          "name": "E2",
          "ticks": 387840,
          "time": 296.55368999999996,
          "velocity": 0.968503937007874
        },
        {
          "duration": 0.1388849999999593,
          "durationTicks": 192,
          "midi": 40,
          "name": "E2",
          "ticks": 388800,
          "time": 297.248115,
          "velocity": 0.968503937007874
        },
        {
          "duration": 0.13888500000001613,
          "durationTicks": 192,
          "midi": 40,
          "name": "E2",
          "ticks": 388992,
          "time": 297.38699999999994,
          "velocity": 0.968503937007874
        },
        {
          "duration": 0.13888500000001613,
          "durationTicks": 192,
          "midi": 40,
          "name": "E2",
          "ticks": 389184,
          "time": 297.52588499999996,
          "velocity": 0.968503937007874
        },
        {
          "duration": 0.694424999999967,
          "durationTicks": 960,
          "midi": 41,
          "name": "F2",
          "ticks": 389376,
          "time": 297.66477,
          "velocity": 0.968503937007874
        },
        {
          "duration": 0.13888500000001613,
          "durationTicks": 192,
          "midi": 41,
          "name": "F2",
          "ticks": 390336,
          "time": 298.35919499999994,
          "velocity": 0.968503937007874
        },
        {
          "duration": 0.13888500000001613,
          "durationTicks": 192,
          "midi": 41,
          "name": "F2",
          "ticks": 390528,
          "time": 298.49807999999996,
          "velocity": 0.968503937007874
        },
        {
          "duration": 0.13888500000001613,
          "durationTicks": 192,
          "midi": 41,
          "name": "F2",
          "ticks": 390720,
          "time": 298.636965,
          "velocity": 0.968503937007874
        },
        {
          "duration": 0.1388849999999593,
          "durationTicks": 192,
          "midi": 29,
          "name": "F1",
          "ticks": 390912,
          "time": 298.77585,
          "velocity": 0.968503937007874
        },
        {
          "duration": 0.13888500000001613,
          "durationTicks": 192,
          "midi": 41,
          "name": "F2",
          "ticks": 391104,
          "time": 298.91473499999995,
          "velocity": 0.968503937007874
        },
        {
          "duration": 0.13888500000001613,
          "durationTicks": 192,
          "midi": 41,
          "name": "F2",
          "ticks": 391296,
          "time": 299.05361999999997,
          "velocity": 0.968503937007874
        },
        {
          "duration": 0.1388849999999593,
          "durationTicks": 192,
          "midi": 41,
          "name": "F2",
          "ticks": 391488,
          "time": 299.192505,
          "velocity": 0.968503937007874
        },
        {
          "duration": 0.13888500000001613,
          "durationTicks": 192,
          "midi": 41,
          "name": "F2",
          "ticks": 391680,
          "time": 299.33138999999994,
          "velocity": 0.968503937007874
        },
        {
          "duration": 0.13888500000001613,
          "durationTicks": 192,
          "midi": 41,
          "name": "F2",
          "ticks": 391872,
          "time": 299.47027499999996,
          "velocity": 0.968503937007874
        },
        {
          "duration": 0.13888500000001613,
          "durationTicks": 192,
          "midi": 41,
          "name": "F2",
          "ticks": 392064,
          "time": 299.60916,
          "velocity": 0.968503937007874
        },
        {
          "duration": 0.1388849999999593,
          "durationTicks": 192,
          "midi": 41,
          "name": "F2",
          "ticks": 392256,
          "time": 299.748045,
          "velocity": 0.968503937007874
        },
        {
          "duration": 0.13888500000001613,
          "durationTicks": 192,
          "midi": 41,
          "name": "F2",
          "ticks": 392448,
          "time": 299.88692999999995,
          "velocity": 0.968503937007874
        },
        {
          "duration": 0.13888500000001613,
          "durationTicks": 192,
          "midi": 41,
          "name": "F2",
          "ticks": 392640,
          "time": 300.02581499999997,
          "velocity": 0.968503937007874
        },
        {
          "duration": 0.13888500000001613,
          "durationTicks": 192,
          "midi": 41,
          "name": "F2",
          "ticks": 392832,
          "time": 300.1647,
          "velocity": 0.968503937007874
        },
        {
          "duration": 0.1388849999999593,
          "durationTicks": 192,
          "midi": 41,
          "name": "F2",
          "ticks": 393024,
          "time": 300.303585,
          "velocity": 0.968503937007874
        },
        {
          "duration": 0.13888500000001613,
          "durationTicks": 192,
          "midi": 41,
          "name": "F2",
          "ticks": 393216,
          "time": 300.44246999999996,
          "velocity": 0.968503937007874
        },
        {
          "duration": 0.13888500000001613,
          "durationTicks": 192,
          "midi": 41,
          "name": "F2",
          "ticks": 393408,
          "time": 300.581355,
          "velocity": 0.968503937007874
        },
        {
          "duration": 0.1388849999999593,
          "durationTicks": 192,
          "midi": 41,
          "name": "F2",
          "ticks": 393600,
          "time": 300.72024,
          "velocity": 0.968503937007874
        },
        {
          "duration": 0.13888500000001613,
          "durationTicks": 192,
          "midi": 41,
          "name": "F2",
          "ticks": 393792,
          "time": 300.85912499999995,
          "velocity": 0.968503937007874
        },
        {
          "duration": 0.2777699999999754,
          "durationTicks": 384,
          "midi": 41,
          "name": "F2",
          "ticks": 393984,
          "time": 300.99800999999997,
          "velocity": 0.968503937007874
        },
        {
          "duration": 0.13888500000001613,
          "durationTicks": 192,
          "midi": 30,
          "name": "F#1",
          "ticks": 397248,
          "time": 303.35905499999996,
          "velocity": 0.968503937007874
        },
        {
          "duration": 0.13888500000001613,
          "durationTicks": 192,
          "midi": 30,
          "name": "F#1",
          "ticks": 397440,
          "time": 303.49793999999997,
          "velocity": 0.968503937007874
        },
        {
          "duration": 0.1388849999999593,
          "durationTicks": 192,
          "midi": 30,
          "name": "F#1",
          "ticks": 397632,
          "time": 303.636825,
          "velocity": 0.968503937007874
        },
        {
          "duration": 0.13888500000001613,
          "durationTicks": 192,
          "midi": 30,
          "name": "F#1",
          "ticks": 397824,
          "time": 303.77570999999995,
          "velocity": 0.968503937007874
        },
        {
          "duration": 0.13888500000001613,
          "durationTicks": 192,
          "midi": 42,
          "name": "F#2",
          "ticks": 398016,
          "time": 303.91459499999996,
          "velocity": 0.968503937007874
        },
        {
          "duration": 0.13888500000001613,
          "durationTicks": 192,
          "midi": 42,
          "name": "F#2",
          "ticks": 398208,
          "time": 304.05348,
          "velocity": 0.968503937007874
        },
        {
          "duration": 0.1388849999999593,
          "durationTicks": 192,
          "midi": 42,
          "name": "F#2",
          "ticks": 398400,
          "time": 304.192365,
          "velocity": 0.968503937007874
        },
        {
          "duration": 0.13888500000001613,
          "durationTicks": 192,
          "midi": 42,
          "name": "F#2",
          "ticks": 398592,
          "time": 304.33124999999995,
          "velocity": 0.968503937007874
        },
        {
          "duration": 0.13888500000001613,
          "durationTicks": 192,
          "midi": 42,
          "name": "F#2",
          "ticks": 398784,
          "time": 304.47013499999997,
          "velocity": 0.968503937007874
        },
        {
          "duration": 0.1388849999999593,
          "durationTicks": 192,
          "midi": 42,
          "name": "F#2",
          "ticks": 398976,
          "time": 304.60902,
          "velocity": 0.968503937007874
        },
        {
          "duration": 0.13888500000001613,
          "durationTicks": 192,
          "midi": 42,
          "name": "F#2",
          "ticks": 399168,
          "time": 304.74790499999995,
          "velocity": 0.968503937007874
        },
        {
          "duration": 0.13888500000001613,
          "durationTicks": 192,
          "midi": 42,
          "name": "F#2",
          "ticks": 399360,
          "time": 304.88678999999996,
          "velocity": 0.968503937007874
        },
        {
          "duration": 0.13888500000001613,
          "durationTicks": 192,
          "midi": 42,
          "name": "F#2",
          "ticks": 399552,
          "time": 305.025675,
          "velocity": 0.968503937007874
        },
        {
          "duration": 0.1388849999999593,
          "durationTicks": 192,
          "midi": 42,
          "name": "F#2",
          "ticks": 399744,
          "time": 305.16456,
          "velocity": 0.968503937007874
        },
        {
          "duration": 0.13888500000001613,
          "durationTicks": 192,
          "midi": 42,
          "name": "F#2",
          "ticks": 399936,
          "time": 305.30344499999995,
          "velocity": 0.968503937007874
        },
        {
          "duration": 0.13888500000001613,
          "durationTicks": 192,
          "midi": 42,
          "name": "F#2",
          "ticks": 400128,
          "time": 305.44232999999997,
          "velocity": 0.968503937007874
        },
        {
          "duration": 0.1388849999999593,
          "durationTicks": 192,
          "midi": 42,
          "name": "F#2",
          "ticks": 400320,
          "time": 305.581215,
          "velocity": 0.968503937007874
        },
        {
          "duration": 0.13888500000001613,
          "durationTicks": 192,
          "midi": 42,
          "name": "F#2",
          "ticks": 400512,
          "time": 305.72009999999995,
          "velocity": 0.968503937007874
        },
        {
          "duration": 0.13888500000001613,
          "durationTicks": 192,
          "midi": 42,
          "name": "F#2",
          "ticks": 400704,
          "time": 305.85898499999996,
          "velocity": 0.968503937007874
        },
        {
          "duration": 0.2777699999999754,
          "durationTicks": 384,
          "midi": 42,
          "name": "F#2",
          "ticks": 400896,
          "time": 305.99787,
          "velocity": 0.968503937007874
        },
        {
          "duration": 0.27777000000003227,
          "durationTicks": 384,
          "midi": 31,
          "name": "G1",
          "ticks": 403968,
          "time": 308.22002999999995,
          "velocity": 0.968503937007874
        },
        {
          "duration": 0.2777699999999754,
          "durationTicks": 384,
          "midi": 31,
          "name": "G1",
          "ticks": 407040,
          "time": 310.44219,
          "velocity": 0.968503937007874
        },
        {
          "duration": 0.2777699999999754,
          "durationTicks": 384,
          "midi": 44,
          "name": "G#2",
          "ticks": 413184,
          "time": 314.88651,
          "velocity": 0.968503937007874
        },
        {
          "duration": 0.27777000000003227,
          "durationTicks": 384,
          "midi": 46,
          "name": "A#2",
          "ticks": 413568,
          "time": 315.16427999999996,
          "velocity": 0.968503937007874
        },
        {
          "duration": 0.2777699999999754,
          "durationTicks": 384,
          "midi": 43,
          "name": "G2",
          "ticks": 413952,
          "time": 315.44205,
          "velocity": 0.968503937007874
        },
        {
          "duration": 0.2777699999999754,
          "durationTicks": 384,
          "midi": 44,
          "name": "G#2",
          "ticks": 414336,
          "time": 315.71981999999997,
          "velocity": 0.968503937007874
        },
        {
          "duration": 0.27777000000003227,
          "durationTicks": 384,
          "midi": 41,
          "name": "F2",
          "ticks": 414720,
          "time": 315.99758999999995,
          "velocity": 0.968503937007874
        },
        {
          "duration": 0.2777699999999754,
          "durationTicks": 384,
          "midi": 43,
          "name": "G2",
          "ticks": 415104,
          "time": 316.27536,
          "velocity": 0.968503937007874
        },
        {
          "duration": 0.27777000000003227,
          "durationTicks": 384,
          "midi": 39,
          "name": "D#2",
          "ticks": 415488,
          "time": 316.55312999999995,
          "velocity": 0.968503937007874
        },
        {
          "duration": 0.2777699999999754,
          "durationTicks": 384,
          "midi": 41,
          "name": "F2",
          "ticks": 415872,
          "time": 316.8309,
          "velocity": 0.968503937007874
        },
        {
          "duration": 0.27777000000003227,
          "durationTicks": 384,
          "midi": 38,
          "name": "D2",
          "ticks": 416256,
          "time": 317.10866999999996,
          "velocity": 0.968503937007874
        },
        {
          "duration": 0.2777699999999754,
          "durationTicks": 384,
          "midi": 36,
          "name": "C2",
          "ticks": 416640,
          "time": 317.38644,
          "velocity": 0.968503937007874
        },
        {
          "duration": 0.2777699999999754,
          "durationTicks": 384,
          "midi": 35,
          "name": "B1",
          "ticks": 417024,
          "time": 317.66420999999997,
          "velocity": 0.968503937007874
        },
        {
          "duration": 0.27777000000003227,
          "durationTicks": 384,
          "midi": 36,
          "name": "C2",
          "ticks": 417408,
          "time": 317.94197999999994,
          "velocity": 0.968503937007874
        },
        {
          "duration": 0.2777699999999754,
          "durationTicks": 384,
          "midi": 38,
          "name": "D2",
          "ticks": 417792,
          "time": 318.21975,
          "velocity": 0.968503937007874
        },
        {
          "duration": 0.27777000000003227,
          "durationTicks": 384,
          "midi": 36,
          "name": "C2",
          "ticks": 418176,
          "time": 318.49751999999995,
          "velocity": 0.968503937007874
        },
        {
          "duration": 0.2777699999999754,
          "durationTicks": 384,
          "midi": 38,
          "name": "D2",
          "ticks": 418560,
          "time": 318.77529,
          "velocity": 0.968503937007874
        },
        {
          "duration": 0.27777000000003227,
          "durationTicks": 384,
          "midi": 40,
          "name": "E2",
          "ticks": 418944,
          "time": 319.05305999999996,
          "velocity": 0.968503937007874
        },
        {
          "duration": 0.2777699999999754,
          "durationTicks": 384,
          "midi": 41,
          "name": "F2",
          "ticks": 419328,
          "time": 319.33083,
          "velocity": 0.968503937007874
        },
        {
          "duration": 0.2777699999999754,
          "durationTicks": 384,
          "midi": 40,
          "name": "E2",
          "ticks": 419712,
          "time": 319.60859999999997,
          "velocity": 0.968503937007874
        },
        {
          "duration": 0.27777000000003227,
          "durationTicks": 384,
          "midi": 41,
          "name": "F2",
          "ticks": 420096,
          "time": 319.88636999999994,
          "velocity": 0.968503937007874
        },
        {
          "duration": 0.2777699999999754,
          "durationTicks": 384,
          "midi": 43,
          "name": "G2",
          "ticks": 420480,
          "time": 320.16414,
          "velocity": 0.968503937007874
        },
        {
          "duration": 0.27777000000003227,
          "durationTicks": 384,
          "midi": 44,
          "name": "G#2",
          "ticks": 420864,
          "time": 320.44190999999995,
          "velocity": 0.968503937007874
        },
        {
          "duration": 0.2777699999999754,
          "durationTicks": 384,
          "midi": 43,
          "name": "G2",
          "ticks": 421248,
          "time": 320.71968,
          "velocity": 0.968503937007874
        },
        {
          "duration": 0.27777000000003227,
          "durationTicks": 384,
          "midi": 45,
          "name": "A2",
          "ticks": 421632,
          "time": 320.99744999999996,
          "velocity": 0.968503937007874
        },
        {
          "duration": 0.2777699999999754,
          "durationTicks": 384,
          "midi": 47,
          "name": "B2",
          "ticks": 422016,
          "time": 321.27522,
          "velocity": 0.968503937007874
        },
        {
          "duration": 1.1110800000000154,
          "durationTicks": 1536,
          "midi": 48,
          "name": "C3",
          "ticks": 422400,
          "time": 321.55298999999997,
          "velocity": 0.968503937007874
        },
        {
          "duration": 1.1110799999999585,
          "durationTicks": 1536,
          "midi": 44,
          "name": "G#2",
          "ticks": 423936,
          "time": 322.66407,
          "velocity": 0.968503937007874
        },
        {
          "duration": 1.1110800000000154,
          "durationTicks": 1536,
          "midi": 39,
          "name": "D#2",
          "ticks": 425472,
          "time": 323.77514999999994,
          "velocity": 0.968503937007874
        },
        {
          "duration": 0.5555400000000077,
          "durationTicks": 768,
          "midi": 41,
          "name": "F2",
          "ticks": 427008,
          "time": 324.88622999999995,
          "velocity": 0.968503937007874
        },
        {
          "duration": 0.5555400000000077,
          "durationTicks": 768,
          "midi": 39,
          "name": "D#2",
          "ticks": 427776,
          "time": 325.44176999999996,
          "velocity": 0.968503937007874
        },
        {
          "duration": 0.5555400000000077,
          "durationTicks": 768,
          "midi": 38,
          "name": "D2",
          "ticks": 428544,
          "time": 325.99730999999997,
          "velocity": 0.968503937007874
        },
        {
          "duration": 0.5555400000000077,
          "durationTicks": 768,
          "midi": 41,
          "name": "F2",
          "ticks": 429312,
          "time": 326.55285,
          "velocity": 0.968503937007874
        },
        {
          "duration": 0.2777699999999754,
          "durationTicks": 384,
          "midi": 39,
          "name": "D#2",
          "ticks": 430080,
          "time": 327.10839,
          "velocity": 0.968503937007874
        },
        {
          "duration": 0.2777699999999754,
          "durationTicks": 384,
          "midi": 36,
          "name": "C2",
          "ticks": 430848,
          "time": 327.66393,
          "velocity": 0.968503937007874
        },
        {
          "duration": 0.2777699999999754,
          "durationTicks": 384,
          "midi": 41,
          "name": "F2",
          "ticks": 431616,
          "time": 328.21947,
          "velocity": 0.968503937007874
        },
        {
          "duration": 0.27777000000003227,
          "durationTicks": 384,
          "midi": 38,
          "name": "D2",
          "ticks": 432384,
          "time": 328.77500999999995,
          "velocity": 0.968503937007874
        },
        {
          "duration": 0.27777000000003227,
          "durationTicks": 384,
          "midi": 43,
          "name": "G2",
          "ticks": 433152,
          "time": 329.33054999999996,
          "velocity": 0.968503937007874
        },
        {
          "duration": 0.27777000000003227,
          "durationTicks": 384,
          "midi": 31,
          "name": "G1",
          "ticks": 433920,
          "time": 329.88608999999997,
          "velocity": 0.968503937007874
        },
        {
          "duration": 0.2777699999999754,
          "durationTicks": 384,
          "midi": 36,
          "name": "C2",
          "ticks": 434688,
          "time": 330.44163,
          "velocity": 0.968503937007874
        },
        {
          "duration": 0.2777699999999754,
          "durationTicks": 384,
          "midi": 39,
          "name": "D#2",
          "ticks": 436992,
          "time": 332.10825,
          "velocity": 0.968503937007874
        },
        {
          "duration": 0.2777699999999754,
          "durationTicks": 384,
          "midi": 41,
          "name": "F2",
          "ticks": 437376,
          "time": 332.38602,
          "velocity": 0.968503937007874
        },
        {
          "duration": 0.27777000000003227,
          "durationTicks": 384,
          "midi": 43,
          "name": "G2",
          "ticks": 437760,
          "time": 332.66378999999995,
          "velocity": 0.968503937007874
        },
        {
          "duration": 0.2777699999999754,
          "durationTicks": 384,
          "midi": 39,
          "name": "D#2",
          "ticks": 438144,
          "time": 332.94156,
          "velocity": 0.968503937007874
        },
        {
          "duration": 0.2777699999999754,
          "durationTicks": 384,
          "midi": 31,
          "name": "G1",
          "ticks": 440064,
          "time": 334.33041,
          "velocity": 0.968503937007874
        },
        {
          "duration": 0.27777000000003227,
          "durationTicks": 384,
          "midi": 33,
          "name": "A1",
          "ticks": 440448,
          "time": 334.60817999999995,
          "velocity": 0.968503937007874
        },
        {
          "duration": 0.2777699999999754,
          "durationTicks": 384,
          "midi": 35,
          "name": "B1",
          "ticks": 440832,
          "time": 334.88595,
          "velocity": 0.968503937007874
        },
        {
          "duration": 0.27777000000003227,
          "durationTicks": 384,
          "midi": 31,
          "name": "G1",
          "ticks": 441216,
          "time": 335.16371999999996,
          "velocity": 0.968503937007874
        },
        {
          "duration": 0.27777000000003227,
          "durationTicks": 384,
          "midi": 31,
          "name": "G1",
          "ticks": 443136,
          "time": 336.55256999999995,
          "velocity": 0.968503937007874
        },
        {
          "duration": 0.2777699999999754,
          "durationTicks": 384,
          "midi": 33,
          "name": "A1",
          "ticks": 443520,
          "time": 336.83034,
          "velocity": 0.968503937007874
        },
        {
          "duration": 0.27777000000003227,
          "durationTicks": 384,
          "midi": 35,
          "name": "B1",
          "ticks": 443904,
          "time": 337.10810999999995,
          "velocity": 0.968503937007874
        },
        {
          "duration": 0.2777699999999754,
          "durationTicks": 384,
          "midi": 31,
          "name": "G1",
          "ticks": 444288,
          "time": 337.38588,
          "velocity": 0.968503937007874
        },
        {
          "duration": 0.2777699999999754,
          "durationTicks": 384,
          "midi": 41,
          "name": "F2",
          "ticks": 447744,
          "time": 339.88581,
          "velocity": 0.968503937007874
        },
        {
          "duration": 0.2777699999999754,
          "durationTicks": 384,
          "midi": 36,
          "name": "C2",
          "ticks": 448128,
          "time": 340.16357999999997,
          "velocity": 0.968503937007874
        },
        {
          "duration": 0.27777000000003227,
          "durationTicks": 384,
          "midi": 41,
          "name": "F2",
          "ticks": 449280,
          "time": 340.99688999999995,
          "velocity": 0.968503937007874
        },
        {
          "duration": 0.2777699999999754,
          "durationTicks": 384,
          "midi": 36,
          "name": "C2",
          "ticks": 449664,
          "time": 341.27466,
          "velocity": 0.968503937007874
        },
        {
          "duration": 0.27777000000003227,
          "durationTicks": 384,
          "midi": 43,
          "name": "G2",
          "ticks": 450048,
          "time": 341.55242999999996,
          "velocity": 0.968503937007874
        },
        {
          "duration": 0.2777699999999754,
          "durationTicks": 384,
          "midi": 31,
          "name": "G1",
          "ticks": 450816,
          "time": 342.10796999999997,
          "velocity": 0.968503937007874
        },
        {
          "duration": 0.27777000000003227,
          "durationTicks": 384,
          "midi": 48,
          "name": "C3",
          "ticks": 451584,
          "time": 342.66351,
          "velocity": 0.968503937007874
        },
        {
          "duration": 0.2777699999999754,
          "durationTicks": 384,
          "midi": 43,
          "name": "G2",
          "ticks": 451968,
          "time": 342.94128,
          "velocity": 0.968503937007874
        },
        {
          "duration": 0.2777699999999754,
          "durationTicks": 384,
          "midi": 44,
          "name": "G#2",
          "ticks": 452352,
          "time": 343.21905,
          "velocity": 0.968503937007874
        },
        {
          "duration": 0.27777000000003227,
          "durationTicks": 384,
          "midi": 39,
          "name": "D#2",
          "ticks": 452736,
          "time": 343.49681999999996,
          "velocity": 0.968503937007874
        },
        {
          "duration": 0.2777699999999754,
          "durationTicks": 384,
          "midi": 41,
          "name": "F2",
          "ticks": 453120,
          "time": 343.77459,
          "velocity": 0.968503937007874
        },
        {
          "duration": 0.2777699999999754,
          "durationTicks": 384,
          "midi": 36,
          "name": "C2",
          "ticks": 453504,
          "time": 344.05235999999996,
          "velocity": 0.968503937007874
        },
        {
          "duration": 0.2777699999999754,
          "durationTicks": 384,
          "midi": 41,
          "name": "F2",
          "ticks": 454656,
          "time": 344.88567,
          "velocity": 0.968503937007874
        },
        {
          "duration": 0.2777699999999754,
          "durationTicks": 384,
          "midi": 36,
          "name": "C2",
          "ticks": 455040,
          "time": 345.16344,
          "velocity": 0.968503937007874
        },
        {
          "duration": 0.27777000000003227,
          "durationTicks": 384,
          "midi": 41,
          "name": "F2",
          "ticks": 455424,
          "time": 345.44120999999996,
          "velocity": 0.968503937007874
        },
        {
          "duration": 0.2777699999999754,
          "durationTicks": 384,
          "midi": 36,
          "name": "C2",
          "ticks": 455808,
          "time": 345.71898,
          "velocity": 0.968503937007874
        },
        {
          "duration": 0.2777699999999754,
          "durationTicks": 384,
          "midi": 43,
          "name": "G2",
          "ticks": 456192,
          "time": 345.99674999999996,
          "velocity": 0.968503937007874
        },
        {
          "duration": 0.27777000000003227,
          "durationTicks": 384,
          "midi": 31,
          "name": "G1",
          "ticks": 456960,
          "time": 346.55228999999997,
          "velocity": 0.968503937007874
        },
        {
          "duration": 0.2777699999999754,
          "durationTicks": 384,
          "midi": 36,
          "name": "C2",
          "ticks": 457728,
          "time": 347.10783,
          "velocity": 0.968503937007874
        },
        {
          "duration": 0.13888500000001613,
          "durationTicks": 192,
          "midi": 31,
          "name": "G1",
          "ticks": 461760,
          "time": 350.024415,
          "velocity": 0.968503937007874
        },
        {
          "duration": 0.1388849999999593,
          "durationTicks": 192,
          "midi": 31,
          "name": "G1",
          "ticks": 461952,
          "time": 350.1633,
          "velocity": 0.968503937007874
        },
        {
          "duration": 0.13888500000001613,
          "durationTicks": 192,
          "midi": 31,
          "name": "G1",
          "ticks": 462144,
          "time": 350.30218499999995,
          "velocity": 0.968503937007874
        },
        {
          "duration": 0.13888500000001613,
          "durationTicks": 192,
          "midi": 36,
          "name": "C2",
          "ticks": 462336,
          "time": 350.44106999999997,
          "velocity": 0.968503937007874
        },
        {
          "duration": 0.13888500000001613,
          "durationTicks": 192,
          "midi": 31,
          "name": "G1",
          "ticks": 462528,
          "time": 350.579955,
          "velocity": 0.968503937007874
        },
        {
          "duration": 0.1388849999999593,
          "durationTicks": 192,
          "midi": 31,
          "name": "G1",
          "ticks": 462720,
          "time": 350.71884,
          "velocity": 0.968503937007874
        },
        {
          "duration": 0.13888500000001613,
          "durationTicks": 192,
          "midi": 31,
          "name": "G1",
          "ticks": 462912,
          "time": 350.85772499999996,
          "velocity": 0.968503937007874
        },
        {
          "duration": 0.13888500000001613,
          "durationTicks": 192,
          "midi": 31,
          "name": "G1",
          "ticks": 463104,
          "time": 350.99661,
          "velocity": 0.968503937007874
        },
        {
          "duration": 0.1388849999999593,
          "durationTicks": 192,
          "midi": 31,
          "name": "G1",
          "ticks": 463296,
          "time": 351.135495,
          "velocity": 0.968503937007874
        },
        {
          "duration": 0.13888500000001613,
          "durationTicks": 192,
          "midi": 31,
          "name": "G1",
          "ticks": 463488,
          "time": 351.27437999999995,
          "velocity": 0.968503937007874
        },
        {
          "duration": 0.13888500000001613,
          "durationTicks": 192,
          "midi": 31,
          "name": "G1",
          "ticks": 463680,
          "time": 351.41326499999997,
          "velocity": 0.968503937007874
        },
        {
          "duration": 0.1388849999999593,
          "durationTicks": 192,
          "midi": 31,
          "name": "G1",
          "ticks": 463872,
          "time": 351.55215,
          "velocity": 0.968503937007874
        },
        {
          "duration": 0.13888500000001613,
          "durationTicks": 192,
          "midi": 31,
          "name": "G1",
          "ticks": 464064,
          "time": 351.69103499999994,
          "velocity": 0.968503937007874
        },
        {
          "duration": 0.13888500000001613,
          "durationTicks": 192,
          "midi": 31,
          "name": "G1",
          "ticks": 464256,
          "time": 351.82991999999996,
          "velocity": 0.968503937007874
        },
        {
          "duration": 0.13888500000001613,
          "durationTicks": 192,
          "midi": 31,
          "name": "G1",
          "ticks": 464448,
          "time": 351.968805,
          "velocity": 0.968503937007874
        },
        {
          "duration": 0.13888500000001613,
          "durationTicks": 192,
          "midi": 31,
          "name": "G1",
          "ticks": 464640,
          "time": 352.10769,
          "velocity": 0.968503937007874
        },
        {
          "duration": 0.1388849999999593,
          "durationTicks": 192,
          "midi": 31,
          "name": "G1",
          "ticks": 464832,
          "time": 352.246575,
          "velocity": 0.968503937007874
        },
        {
          "duration": 0.13888500000001613,
          "durationTicks": 192,
          "midi": 31,
          "name": "G1",
          "ticks": 465024,
          "time": 352.38545999999997,
          "velocity": 0.968503937007874
        },
        {
          "duration": 0.13888500000001613,
          "durationTicks": 192,
          "midi": 31,
          "name": "G1",
          "ticks": 465216,
          "time": 352.524345,
          "velocity": 0.968503937007874
        },
        {
          "duration": 1.0908999999999764,
          "durationTicks": 768,
          "midi": 27,
          "name": "D#1",
          "ticks": 465408,
          "time": 352.66323,
          "velocity": 0.968503937007874
        },
        {
          "duration": 0.1388849999999593,
          "durationTicks": 192,
          "midi": 29,
          "name": "F1",
          "ticks": 466368,
          "time": 353.893015,
          "velocity": 0.968503937007874
        },
        {
          "duration": 0.13888500000001613,
          "durationTicks": 192,
          "midi": 29,
          "name": "F1",
          "ticks": 466560,
          "time": 354.03189999999995,
          "velocity": 0.968503937007874
        },
        {
          "duration": 0.13888500000001613,
          "durationTicks": 192,
          "midi": 29,
          "name": "F1",
          "ticks": 466752,
          "time": 354.17078499999997,
          "velocity": 0.968503937007874
        },
        {
          "duration": 1.7555399999999963,
          "durationTicks": 1536,
          "midi": 26,
          "name": "D1",
          "ticks": 466944,
          "time": 354.30967,
          "velocity": 0.968503937007874
        },
        {
          "duration": 0.1415049999999951,
          "durationTicks": 192,
          "midi": 31,
          "name": "G1",
          "ticks": 474816,
          "time": 360.734875,
          "velocity": 0.968503937007874
        },
        {
          "duration": 0.1415049999999951,
          "durationTicks": 192,
          "midi": 31,
          "name": "G1",
          "ticks": 475008,
          "time": 360.87638,
          "velocity": 0.968503937007874
        },
        {
          "duration": 0.1415049999999951,
          "durationTicks": 192,
          "midi": 31,
          "name": "G1",
          "ticks": 475200,
          "time": 361.017885,
          "velocity": 0.968503937007874
        },
        {
          "duration": 0.2830099999999902,
          "durationTicks": 384,
          "midi": 36,
          "name": "C2",
          "ticks": 475392,
          "time": 361.15939,
          "velocity": 0.968503937007874
        },
        {
          "duration": 0.1415049999999951,
          "durationTicks": 192,
          "midi": 31,
          "name": "G1",
          "ticks": 476352,
          "time": 361.866915,
          "velocity": 0.968503937007874
        },
        {
          "duration": 0.1415049999999951,
          "durationTicks": 192,
          "midi": 31,
          "name": "G1",
          "ticks": 476544,
          "time": 362.00842,
          "velocity": 0.968503937007874
        },
        {
          "duration": 0.1415049999999951,
          "durationTicks": 192,
          "midi": 31,
          "name": "G1",
          "ticks": 476736,
          "time": 362.149925,
          "velocity": 0.968503937007874
        },
        {
          "duration": 0.2830099999999902,
          "durationTicks": 384,
          "midi": 36,
          "name": "C2",
          "ticks": 476928,
          "time": 362.29143,
          "velocity": 0.968503937007874
        },
        {
          "duration": 0.1415049999999951,
          "durationTicks": 192,
          "midi": 31,
          "name": "G1",
          "ticks": 477888,
          "time": 362.99895499999997,
          "velocity": 0.968503937007874
        },
        {
          "duration": 0.1415049999999951,
          "durationTicks": 192,
          "midi": 31,
          "name": "G1",
          "ticks": 478080,
          "time": 363.14045999999996,
          "velocity": 0.968503937007874
        },
        {
          "duration": 0.1415049999999951,
          "durationTicks": 192,
          "midi": 31,
          "name": "G1",
          "ticks": 478272,
          "time": 363.28196499999996,
          "velocity": 0.968503937007874
        },
        {
          "duration": 0.28301000000004706,
          "durationTicks": 384,
          "midi": 36,
          "name": "C2",
          "ticks": 478464,
          "time": 363.42346999999995,
          "velocity": 0.968503937007874
        },
        {
          "duration": 0.2830099999999902,
          "durationTicks": 384,
          "midi": 31,
          "name": "G1",
          "ticks": 478848,
          "time": 363.70648,
          "velocity": 0.968503937007874
        },
        {
          "duration": 0.2830099999999902,
          "durationTicks": 384,
          "midi": 36,
          "name": "C2",
          "ticks": 479232,
          "time": 363.98949,
          "velocity": 0.968503937007874
        },
        {
          "duration": 0.2830099999999902,
          "durationTicks": 384,
          "midi": 31,
          "name": "G1",
          "ticks": 479616,
          "time": 364.2725,
          "velocity": 0.968503937007874
        },
        {
          "duration": 0.2830099999999902,
          "durationTicks": 384,
          "midi": 36,
          "name": "C2",
          "ticks": 480000,
          "time": 364.55550999999997,
          "velocity": 0.968503937007874
        },
        {
          "duration": 0.28301000000004706,
          "durationTicks": 384,
          "midi": 43,
          "name": "G2",
          "ticks": 480384,
          "time": 364.83851999999996,
          "velocity": 0.968503937007874
        },
        {
          "duration": 0.2830099999999902,
          "durationTicks": 384,
          "midi": 48,
          "name": "C3",
          "ticks": 480768,
          "time": 365.12153,
          "velocity": 0.968503937007874
        },
        {
          "duration": 0.2830099999999902,
          "durationTicks": 384,
          "midi": 43,
          "name": "G2",
          "ticks": 481152,
          "time": 365.40454,
          "velocity": 0.968503937007874
        },
        {
          "duration": 0.2830099999999902,
          "durationTicks": 384,
          "midi": 48,
          "name": "C3",
          "ticks": 481536,
          "time": 365.68755,
          "velocity": 0.968503937007874
        },
        {
          "duration": 0.2830099999999902,
          "durationTicks": 384,
          "midi": 31,
          "name": "G1",
          "ticks": 482304,
          "time": 366.25356999999997,
          "velocity": 0.968503937007874
        },
        {
          "duration": 0.2830099999999902,
          "durationTicks": 384,
          "midi": 36,
          "name": "C2",
          "ticks": 483072,
          "time": 366.81959,
          "velocity": 0.968503937007874
        }
      ],
      "endOfTrackTicks": 484608
    },
    {
      "channel": 0,
      "controlChanges": {},
      "pitchBends": [],
      "instrument": {
        "family": "piano",
        "number": 0,
        "name": "acoustic grand piano"
      },
      "name": "GS/RESET",
      "notes": [],
      "endOfTrackTicks": 6144
    }
  ]
}